<?xml version="1.0" encoding="utf-8" standalone="no"?>
<!DOCTYPE svg PUBLIC "-//W3C//DTD SVG 1.1//EN"
  "http://www.w3.org/Graphics/SVG/1.1/DTD/svg11.dtd">
<svg xmlns:xlink="http://www.w3.org/1999/xlink" width="864pt" height="432pt" viewBox="0 0 864 432" xmlns="http://www.w3.org/2000/svg" version="1.1">
 <metadata>
  <rdf:RDF xmlns:dc="http://purl.org/dc/elements/1.1/" xmlns:cc="http://creativecommons.org/ns#" xmlns:rdf="http://www.w3.org/1999/02/22-rdf-syntax-ns#">
   <cc:Work>
    <dc:type rdf:resource="http://purl.org/dc/dcmitype/StillImage"/>
    <dc:date>2026-05-16T12:46:40.159427</dc:date>
    <dc:format>image/svg+xml</dc:format>
    <dc:creator>
     <cc:Agent>
      <dc:title>Matplotlib v3.7.2, https://matplotlib.org/</dc:title>
     </cc:Agent>
    </dc:creator>
   </cc:Work>
  </rdf:RDF>
 </metadata>
 <defs>
  <style type="text/css">*{stroke-linejoin: round; stroke-linecap: butt}</style>
 </defs>
 <g id="figure_1">
  <g id="patch_1">
   <path d="M 0 432 
L 864 432 
L 864 0 
L 0 0 
L 0 432 
z
" style="fill: none"/>
  </g>
  <g id="axes_1">
   <g id="patch_2">
    <path d="M 53.75 371.304 
L 853.2 371.304 
L 853.2 10.8 
L 53.75 10.8 
L 53.75 371.304 
z
" style="fill: none"/>
   </g>
   <g id="matplotlib.axis_1">
    <g id="xtick_1">
     <g id="line2d_1">
      <path d="M 88.461533 371.304 
L 88.461533 10.8 
" clip-path="url(#p1e3ec2240b)" style="fill: none; stroke-dasharray: 1.85,0.8; stroke-dashoffset: 0; stroke: #808080; stroke-width: 0.5"/>
     </g>
     <g id="line2d_2">
      <defs>
       <path id="m27d1c590e6" d="M 0 0 
L 0 3.5 
" style="stroke: #ffffff; stroke-width: 0.8"/>
      </defs>
      <g>
       <use xlink:href="#m27d1c590e6" x="88.461533" y="371.304" style="fill: #ffffff; stroke: #ffffff; stroke-width: 0.8"/>
      </g>
     </g>
     <g id="text_1">
      <!-- 2019 -->
      <g style="fill: #ffffff" transform="translate(75.736533 385.902438) scale(0.1 -0.1)">
       <defs>
        <path id="DejaVuSans-32" d="M 1228 531 
L 3431 531 
L 3431 0 
L 469 0 
L 469 531 
Q 828 903 1448 1529 
Q 2069 2156 2228 2338 
Q 2531 2678 2651 2914 
Q 2772 3150 2772 3378 
Q 2772 3750 2511 3984 
Q 2250 4219 1831 4219 
Q 1534 4219 1204 4116 
Q 875 4013 500 3803 
L 500 4441 
Q 881 4594 1212 4672 
Q 1544 4750 1819 4750 
Q 2544 4750 2975 4387 
Q 3406 4025 3406 3419 
Q 3406 3131 3298 2873 
Q 3191 2616 2906 2266 
Q 2828 2175 2409 1742 
Q 1991 1309 1228 531 
z
" transform="scale(0.015625)"/>
        <path id="DejaVuSans-30" d="M 2034 4250 
Q 1547 4250 1301 3770 
Q 1056 3291 1056 2328 
Q 1056 1369 1301 889 
Q 1547 409 2034 409 
Q 2525 409 2770 889 
Q 3016 1369 3016 2328 
Q 3016 3291 2770 3770 
Q 2525 4250 2034 4250 
z
M 2034 4750 
Q 2819 4750 3233 4129 
Q 3647 3509 3647 2328 
Q 3647 1150 3233 529 
Q 2819 -91 2034 -91 
Q 1250 -91 836 529 
Q 422 1150 422 2328 
Q 422 3509 836 4129 
Q 1250 4750 2034 4750 
z
" transform="scale(0.015625)"/>
        <path id="DejaVuSans-31" d="M 794 531 
L 1825 531 
L 1825 4091 
L 703 3866 
L 703 4441 
L 1819 4666 
L 2450 4666 
L 2450 531 
L 3481 531 
L 3481 0 
L 794 0 
L 794 531 
z
" transform="scale(0.015625)"/>
        <path id="DejaVuSans-39" d="M 703 97 
L 703 672 
Q 941 559 1184 500 
Q 1428 441 1663 441 
Q 2288 441 2617 861 
Q 2947 1281 2994 2138 
Q 2813 1869 2534 1725 
Q 2256 1581 1919 1581 
Q 1219 1581 811 2004 
Q 403 2428 403 3163 
Q 403 3881 828 4315 
Q 1253 4750 1959 4750 
Q 2769 4750 3195 4129 
Q 3622 3509 3622 2328 
Q 3622 1225 3098 567 
Q 2575 -91 1691 -91 
Q 1453 -91 1209 -44 
Q 966 3 703 97 
z
M 1959 2075 
Q 2384 2075 2632 2365 
Q 2881 2656 2881 3163 
Q 2881 3666 2632 3958 
Q 2384 4250 1959 4250 
Q 1534 4250 1286 3958 
Q 1038 3666 1038 3163 
Q 1038 2656 1286 2365 
Q 1534 2075 1959 2075 
z
" transform="scale(0.015625)"/>
       </defs>
       <use xlink:href="#DejaVuSans-32"/>
       <use xlink:href="#DejaVuSans-30" x="63.623047"/>
       <use xlink:href="#DejaVuSans-31" x="127.246094"/>
       <use xlink:href="#DejaVuSans-39" x="190.869141"/>
      </g>
     </g>
    </g>
    <g id="xtick_2">
     <g id="line2d_3">
      <path d="M 187.44364 371.304 
L 187.44364 10.8 
" clip-path="url(#p1e3ec2240b)" style="fill: none; stroke-dasharray: 1.85,0.8; stroke-dashoffset: 0; stroke: #808080; stroke-width: 0.5"/>
     </g>
     <g id="line2d_4">
      <g>
       <use xlink:href="#m27d1c590e6" x="187.44364" y="371.304" style="fill: #ffffff; stroke: #ffffff; stroke-width: 0.8"/>
      </g>
     </g>
     <g id="text_2">
      <!-- 2020 -->
      <g style="fill: #ffffff" transform="translate(174.71864 385.902438) scale(0.1 -0.1)">
       <use xlink:href="#DejaVuSans-32"/>
       <use xlink:href="#DejaVuSans-30" x="63.623047"/>
       <use xlink:href="#DejaVuSans-32" x="127.246094"/>
       <use xlink:href="#DejaVuSans-30" x="190.869141"/>
      </g>
     </g>
    </g>
    <g id="xtick_3">
     <g id="line2d_5">
      <path d="M 286.69693 371.304 
L 286.69693 10.8 
" clip-path="url(#p1e3ec2240b)" style="fill: none; stroke-dasharray: 1.85,0.8; stroke-dashoffset: 0; stroke: #808080; stroke-width: 0.5"/>
     </g>
     <g id="line2d_6">
      <g>
       <use xlink:href="#m27d1c590e6" x="286.69693" y="371.304" style="fill: #ffffff; stroke: #ffffff; stroke-width: 0.8"/>
      </g>
     </g>
     <g id="text_3">
      <!-- 2021 -->
      <g style="fill: #ffffff" transform="translate(273.97193 385.902438) scale(0.1 -0.1)">
       <use xlink:href="#DejaVuSans-32"/>
       <use xlink:href="#DejaVuSans-30" x="63.623047"/>
       <use xlink:href="#DejaVuSans-32" x="127.246094"/>
       <use xlink:href="#DejaVuSans-31" x="190.869141"/>
      </g>
     </g>
    </g>
    <g id="xtick_4">
     <g id="line2d_7">
      <path d="M 385.679037 371.304 
L 385.679037 10.8 
" clip-path="url(#p1e3ec2240b)" style="fill: none; stroke-dasharray: 1.85,0.8; stroke-dashoffset: 0; stroke: #808080; stroke-width: 0.5"/>
     </g>
     <g id="line2d_8">
      <g>
       <use xlink:href="#m27d1c590e6" x="385.679037" y="371.304" style="fill: #ffffff; stroke: #ffffff; stroke-width: 0.8"/>
      </g>
     </g>
     <g id="text_4">
      <!-- 2022 -->
      <g style="fill: #ffffff" transform="translate(372.954037 385.902438) scale(0.1 -0.1)">
       <use xlink:href="#DejaVuSans-32"/>
       <use xlink:href="#DejaVuSans-30" x="63.623047"/>
       <use xlink:href="#DejaVuSans-32" x="127.246094"/>
       <use xlink:href="#DejaVuSans-32" x="190.869141"/>
      </g>
     </g>
    </g>
    <g id="xtick_5">
     <g id="line2d_9">
      <path d="M 484.661143 371.304 
L 484.661143 10.8 
" clip-path="url(#p1e3ec2240b)" style="fill: none; stroke-dasharray: 1.85,0.8; stroke-dashoffset: 0; stroke: #808080; stroke-width: 0.5"/>
     </g>
     <g id="line2d_10">
      <g>
       <use xlink:href="#m27d1c590e6" x="484.661143" y="371.304" style="fill: #ffffff; stroke: #ffffff; stroke-width: 0.8"/>
      </g>
     </g>
     <g id="text_5">
      <!-- 2023 -->
      <g style="fill: #ffffff" transform="translate(471.936143 385.902438) scale(0.1 -0.1)">
       <defs>
        <path id="DejaVuSans-33" d="M 2597 2516 
Q 3050 2419 3304 2112 
Q 3559 1806 3559 1356 
Q 3559 666 3084 287 
Q 2609 -91 1734 -91 
Q 1441 -91 1130 -33 
Q 819 25 488 141 
L 488 750 
Q 750 597 1062 519 
Q 1375 441 1716 441 
Q 2309 441 2620 675 
Q 2931 909 2931 1356 
Q 2931 1769 2642 2001 
Q 2353 2234 1838 2234 
L 1294 2234 
L 1294 2753 
L 1863 2753 
Q 2328 2753 2575 2939 
Q 2822 3125 2822 3475 
Q 2822 3834 2567 4026 
Q 2313 4219 1838 4219 
Q 1578 4219 1281 4162 
Q 984 4106 628 3988 
L 628 4550 
Q 988 4650 1302 4700 
Q 1616 4750 1894 4750 
Q 2613 4750 3031 4423 
Q 3450 4097 3450 3541 
Q 3450 3153 3228 2886 
Q 3006 2619 2597 2516 
z
" transform="scale(0.015625)"/>
       </defs>
       <use xlink:href="#DejaVuSans-32"/>
       <use xlink:href="#DejaVuSans-30" x="63.623047"/>
       <use xlink:href="#DejaVuSans-32" x="127.246094"/>
       <use xlink:href="#DejaVuSans-33" x="190.869141"/>
      </g>
     </g>
    </g>
    <g id="xtick_6">
     <g id="line2d_11">
      <path d="M 583.64325 371.304 
L 583.64325 10.8 
" clip-path="url(#p1e3ec2240b)" style="fill: none; stroke-dasharray: 1.85,0.8; stroke-dashoffset: 0; stroke: #808080; stroke-width: 0.5"/>
     </g>
     <g id="line2d_12">
      <g>
       <use xlink:href="#m27d1c590e6" x="583.64325" y="371.304" style="fill: #ffffff; stroke: #ffffff; stroke-width: 0.8"/>
      </g>
     </g>
     <g id="text_6">
      <!-- 2024 -->
      <g style="fill: #ffffff" transform="translate(570.91825 385.902438) scale(0.1 -0.1)">
       <defs>
        <path id="DejaVuSans-34" d="M 2419 4116 
L 825 1625 
L 2419 1625 
L 2419 4116 
z
M 2253 4666 
L 3047 4666 
L 3047 1625 
L 3713 1625 
L 3713 1100 
L 3047 1100 
L 3047 0 
L 2419 0 
L 2419 1100 
L 313 1100 
L 313 1709 
L 2253 4666 
z
" transform="scale(0.015625)"/>
       </defs>
       <use xlink:href="#DejaVuSans-32"/>
       <use xlink:href="#DejaVuSans-30" x="63.623047"/>
       <use xlink:href="#DejaVuSans-32" x="127.246094"/>
       <use xlink:href="#DejaVuSans-34" x="190.869141"/>
      </g>
     </g>
    </g>
    <g id="xtick_7">
     <g id="line2d_13">
      <path d="M 682.89654 371.304 
L 682.89654 10.8 
" clip-path="url(#p1e3ec2240b)" style="fill: none; stroke-dasharray: 1.85,0.8; stroke-dashoffset: 0; stroke: #808080; stroke-width: 0.5"/>
     </g>
     <g id="line2d_14">
      <g>
       <use xlink:href="#m27d1c590e6" x="682.89654" y="371.304" style="fill: #ffffff; stroke: #ffffff; stroke-width: 0.8"/>
      </g>
     </g>
     <g id="text_7">
      <!-- 2025 -->
      <g style="fill: #ffffff" transform="translate(670.17154 385.902438) scale(0.1 -0.1)">
       <defs>
        <path id="DejaVuSans-35" d="M 691 4666 
L 3169 4666 
L 3169 4134 
L 1269 4134 
L 1269 2991 
Q 1406 3038 1543 3061 
Q 1681 3084 1819 3084 
Q 2600 3084 3056 2656 
Q 3513 2228 3513 1497 
Q 3513 744 3044 326 
Q 2575 -91 1722 -91 
Q 1428 -91 1123 -41 
Q 819 9 494 109 
L 494 744 
Q 775 591 1075 516 
Q 1375 441 1709 441 
Q 2250 441 2565 725 
Q 2881 1009 2881 1497 
Q 2881 1984 2565 2268 
Q 2250 2553 1709 2553 
Q 1456 2553 1204 2497 
Q 953 2441 691 2322 
L 691 4666 
z
" transform="scale(0.015625)"/>
       </defs>
       <use xlink:href="#DejaVuSans-32"/>
       <use xlink:href="#DejaVuSans-30" x="63.623047"/>
       <use xlink:href="#DejaVuSans-32" x="127.246094"/>
       <use xlink:href="#DejaVuSans-35" x="190.869141"/>
      </g>
     </g>
    </g>
    <g id="xtick_8">
     <g id="line2d_15">
      <path d="M 781.878647 371.304 
L 781.878647 10.8 
" clip-path="url(#p1e3ec2240b)" style="fill: none; stroke-dasharray: 1.85,0.8; stroke-dashoffset: 0; stroke: #808080; stroke-width: 0.5"/>
     </g>
     <g id="line2d_16">
      <g>
       <use xlink:href="#m27d1c590e6" x="781.878647" y="371.304" style="fill: #ffffff; stroke: #ffffff; stroke-width: 0.8"/>
      </g>
     </g>
     <g id="text_8">
      <!-- 2026 -->
      <g style="fill: #ffffff" transform="translate(769.153647 385.902438) scale(0.1 -0.1)">
       <defs>
        <path id="DejaVuSans-36" d="M 2113 2584 
Q 1688 2584 1439 2293 
Q 1191 2003 1191 1497 
Q 1191 994 1439 701 
Q 1688 409 2113 409 
Q 2538 409 2786 701 
Q 3034 994 3034 1497 
Q 3034 2003 2786 2293 
Q 2538 2584 2113 2584 
z
M 3366 4563 
L 3366 3988 
Q 3128 4100 2886 4159 
Q 2644 4219 2406 4219 
Q 1781 4219 1451 3797 
Q 1122 3375 1075 2522 
Q 1259 2794 1537 2939 
Q 1816 3084 2150 3084 
Q 2853 3084 3261 2657 
Q 3669 2231 3669 1497 
Q 3669 778 3244 343 
Q 2819 -91 2113 -91 
Q 1303 -91 875 529 
Q 447 1150 447 2328 
Q 447 3434 972 4092 
Q 1497 4750 2381 4750 
Q 2619 4750 2861 4703 
Q 3103 4656 3366 4563 
z
" transform="scale(0.015625)"/>
       </defs>
       <use xlink:href="#DejaVuSans-32"/>
       <use xlink:href="#DejaVuSans-30" x="63.623047"/>
       <use xlink:href="#DejaVuSans-32" x="127.246094"/>
       <use xlink:href="#DejaVuSans-36" x="190.869141"/>
      </g>
     </g>
    </g>
    <g id="text_9">
     <!-- Datum -->
     <g style="fill: #d3d3d3" transform="translate(433.179063 401.10025) scale(0.12 -0.12)">
      <defs>
       <path id="DejaVuSans-44" d="M 1259 4147 
L 1259 519 
L 2022 519 
Q 2988 519 3436 956 
Q 3884 1394 3884 2338 
Q 3884 3275 3436 3711 
Q 2988 4147 2022 4147 
L 1259 4147 
z
M 628 4666 
L 1925 4666 
Q 3281 4666 3915 4102 
Q 4550 3538 4550 2338 
Q 4550 1131 3912 565 
Q 3275 0 1925 0 
L 628 0 
L 628 4666 
z
" transform="scale(0.015625)"/>
       <path id="DejaVuSans-61" d="M 2194 1759 
Q 1497 1759 1228 1600 
Q 959 1441 959 1056 
Q 959 750 1161 570 
Q 1363 391 1709 391 
Q 2188 391 2477 730 
Q 2766 1069 2766 1631 
L 2766 1759 
L 2194 1759 
z
M 3341 1997 
L 3341 0 
L 2766 0 
L 2766 531 
Q 2569 213 2275 61 
Q 1981 -91 1556 -91 
Q 1019 -91 701 211 
Q 384 513 384 1019 
Q 384 1609 779 1909 
Q 1175 2209 1959 2209 
L 2766 2209 
L 2766 2266 
Q 2766 2663 2505 2880 
Q 2244 3097 1772 3097 
Q 1472 3097 1187 3025 
Q 903 2953 641 2809 
L 641 3341 
Q 956 3463 1253 3523 
Q 1550 3584 1831 3584 
Q 2591 3584 2966 3190 
Q 3341 2797 3341 1997 
z
" transform="scale(0.015625)"/>
       <path id="DejaVuSans-74" d="M 1172 4494 
L 1172 3500 
L 2356 3500 
L 2356 3053 
L 1172 3053 
L 1172 1153 
Q 1172 725 1289 603 
Q 1406 481 1766 481 
L 2356 481 
L 2356 0 
L 1766 0 
Q 1100 0 847 248 
Q 594 497 594 1153 
L 594 3053 
L 172 3053 
L 172 3500 
L 594 3500 
L 594 4494 
L 1172 4494 
z
" transform="scale(0.015625)"/>
       <path id="DejaVuSans-75" d="M 544 1381 
L 544 3500 
L 1119 3500 
L 1119 1403 
Q 1119 906 1312 657 
Q 1506 409 1894 409 
Q 2359 409 2629 706 
Q 2900 1003 2900 1516 
L 2900 3500 
L 3475 3500 
L 3475 0 
L 2900 0 
L 2900 538 
Q 2691 219 2414 64 
Q 2138 -91 1772 -91 
Q 1169 -91 856 284 
Q 544 659 544 1381 
z
M 1991 3584 
L 1991 3584 
z
" transform="scale(0.015625)"/>
       <path id="DejaVuSans-6d" d="M 3328 2828 
Q 3544 3216 3844 3400 
Q 4144 3584 4550 3584 
Q 5097 3584 5394 3201 
Q 5691 2819 5691 2113 
L 5691 0 
L 5113 0 
L 5113 2094 
Q 5113 2597 4934 2840 
Q 4756 3084 4391 3084 
Q 3944 3084 3684 2787 
Q 3425 2491 3425 1978 
L 3425 0 
L 2847 0 
L 2847 2094 
Q 2847 2600 2669 2842 
Q 2491 3084 2119 3084 
Q 1678 3084 1418 2786 
Q 1159 2488 1159 1978 
L 1159 0 
L 581 0 
L 581 3500 
L 1159 3500 
L 1159 2956 
Q 1356 3278 1631 3431 
Q 1906 3584 2284 3584 
Q 2666 3584 2933 3390 
Q 3200 3197 3328 2828 
z
" transform="scale(0.015625)"/>
      </defs>
      <use xlink:href="#DejaVuSans-44"/>
      <use xlink:href="#DejaVuSans-61" x="77.001953"/>
      <use xlink:href="#DejaVuSans-74" x="138.28125"/>
      <use xlink:href="#DejaVuSans-75" x="177.490234"/>
      <use xlink:href="#DejaVuSans-6d" x="240.869141"/>
     </g>
    </g>
   </g>
   <g id="matplotlib.axis_2">
    <g id="ytick_1">
     <g id="line2d_17">
      <path d="M 53.75 371.304 
L 853.2 371.304 
" clip-path="url(#p1e3ec2240b)" style="fill: none; stroke-dasharray: 1.85,0.8; stroke-dashoffset: 0; stroke: #808080; stroke-width: 0.5"/>
     </g>
     <g id="line2d_18">
      <defs>
       <path id="m33fe4ce845" d="M 0 0 
L -3.5 0 
" style="stroke: #ffffff; stroke-width: 0.8"/>
      </defs>
      <g>
       <use xlink:href="#m33fe4ce845" x="53.75" y="371.304" style="fill: #ffffff; stroke: #ffffff; stroke-width: 0.8"/>
      </g>
     </g>
     <g id="text_10">
      <!-- 0 -->
      <g style="fill: #ffffff" transform="translate(40.3875 375.103219) scale(0.1 -0.1)">
       <use xlink:href="#DejaVuSans-30"/>
      </g>
     </g>
    </g>
    <g id="ytick_2">
     <g id="line2d_19">
      <path d="M 53.75 327.96072 
L 853.2 327.96072 
" clip-path="url(#p1e3ec2240b)" style="fill: none; stroke-dasharray: 1.85,0.8; stroke-dashoffset: 0; stroke: #808080; stroke-width: 0.5"/>
     </g>
     <g id="line2d_20">
      <g>
       <use xlink:href="#m33fe4ce845" x="53.75" y="327.96072" style="fill: #ffffff; stroke: #ffffff; stroke-width: 0.8"/>
      </g>
     </g>
     <g id="text_11">
      <!-- 100 -->
      <g style="fill: #ffffff" transform="translate(27.6625 331.759939) scale(0.1 -0.1)">
       <use xlink:href="#DejaVuSans-31"/>
       <use xlink:href="#DejaVuSans-30" x="63.623047"/>
       <use xlink:href="#DejaVuSans-30" x="127.246094"/>
      </g>
     </g>
    </g>
    <g id="ytick_3">
     <g id="line2d_21">
      <path d="M 53.75 284.61744 
L 853.2 284.61744 
" clip-path="url(#p1e3ec2240b)" style="fill: none; stroke-dasharray: 1.85,0.8; stroke-dashoffset: 0; stroke: #808080; stroke-width: 0.5"/>
     </g>
     <g id="line2d_22">
      <g>
       <use xlink:href="#m33fe4ce845" x="53.75" y="284.61744" style="fill: #ffffff; stroke: #ffffff; stroke-width: 0.8"/>
      </g>
     </g>
     <g id="text_12">
      <!-- 200 -->
      <g style="fill: #ffffff" transform="translate(27.6625 288.416659) scale(0.1 -0.1)">
       <use xlink:href="#DejaVuSans-32"/>
       <use xlink:href="#DejaVuSans-30" x="63.623047"/>
       <use xlink:href="#DejaVuSans-30" x="127.246094"/>
      </g>
     </g>
    </g>
    <g id="ytick_4">
     <g id="line2d_23">
      <path d="M 53.75 241.27416 
L 853.2 241.27416 
" clip-path="url(#p1e3ec2240b)" style="fill: none; stroke-dasharray: 1.85,0.8; stroke-dashoffset: 0; stroke: #808080; stroke-width: 0.5"/>
     </g>
     <g id="line2d_24">
      <g>
       <use xlink:href="#m33fe4ce845" x="53.75" y="241.27416" style="fill: #ffffff; stroke: #ffffff; stroke-width: 0.8"/>
      </g>
     </g>
     <g id="text_13">
      <!-- 300 -->
      <g style="fill: #ffffff" transform="translate(27.6625 245.073379) scale(0.1 -0.1)">
       <use xlink:href="#DejaVuSans-33"/>
       <use xlink:href="#DejaVuSans-30" x="63.623047"/>
       <use xlink:href="#DejaVuSans-30" x="127.246094"/>
      </g>
     </g>
    </g>
    <g id="ytick_5">
     <g id="line2d_25">
      <path d="M 53.75 197.93088 
L 853.2 197.93088 
" clip-path="url(#p1e3ec2240b)" style="fill: none; stroke-dasharray: 1.85,0.8; stroke-dashoffset: 0; stroke: #808080; stroke-width: 0.5"/>
     </g>
     <g id="line2d_26">
      <g>
       <use xlink:href="#m33fe4ce845" x="53.75" y="197.93088" style="fill: #ffffff; stroke: #ffffff; stroke-width: 0.8"/>
      </g>
     </g>
     <g id="text_14">
      <!-- 400 -->
      <g style="fill: #ffffff" transform="translate(27.6625 201.730099) scale(0.1 -0.1)">
       <use xlink:href="#DejaVuSans-34"/>
       <use xlink:href="#DejaVuSans-30" x="63.623047"/>
       <use xlink:href="#DejaVuSans-30" x="127.246094"/>
      </g>
     </g>
    </g>
    <g id="ytick_6">
     <g id="line2d_27">
      <path d="M 53.75 154.587601 
L 853.2 154.587601 
" clip-path="url(#p1e3ec2240b)" style="fill: none; stroke-dasharray: 1.85,0.8; stroke-dashoffset: 0; stroke: #808080; stroke-width: 0.5"/>
     </g>
     <g id="line2d_28">
      <g>
       <use xlink:href="#m33fe4ce845" x="53.75" y="154.587601" style="fill: #ffffff; stroke: #ffffff; stroke-width: 0.8"/>
      </g>
     </g>
     <g id="text_15">
      <!-- 500 -->
      <g style="fill: #ffffff" transform="translate(27.6625 158.386819) scale(0.1 -0.1)">
       <use xlink:href="#DejaVuSans-35"/>
       <use xlink:href="#DejaVuSans-30" x="63.623047"/>
       <use xlink:href="#DejaVuSans-30" x="127.246094"/>
      </g>
     </g>
    </g>
    <g id="ytick_7">
     <g id="line2d_29">
      <path d="M 53.75 111.244321 
L 853.2 111.244321 
" clip-path="url(#p1e3ec2240b)" style="fill: none; stroke-dasharray: 1.85,0.8; stroke-dashoffset: 0; stroke: #808080; stroke-width: 0.5"/>
     </g>
     <g id="line2d_30">
      <g>
       <use xlink:href="#m33fe4ce845" x="53.75" y="111.244321" style="fill: #ffffff; stroke: #ffffff; stroke-width: 0.8"/>
      </g>
     </g>
     <g id="text_16">
      <!-- 600 -->
      <g style="fill: #ffffff" transform="translate(27.6625 115.043539) scale(0.1 -0.1)">
       <use xlink:href="#DejaVuSans-36"/>
       <use xlink:href="#DejaVuSans-30" x="63.623047"/>
       <use xlink:href="#DejaVuSans-30" x="127.246094"/>
      </g>
     </g>
    </g>
    <g id="ytick_8">
     <g id="line2d_31">
      <path d="M 53.75 67.901041 
L 853.2 67.901041 
" clip-path="url(#p1e3ec2240b)" style="fill: none; stroke-dasharray: 1.85,0.8; stroke-dashoffset: 0; stroke: #808080; stroke-width: 0.5"/>
     </g>
     <g id="line2d_32">
      <g>
       <use xlink:href="#m33fe4ce845" x="53.75" y="67.901041" style="fill: #ffffff; stroke: #ffffff; stroke-width: 0.8"/>
      </g>
     </g>
     <g id="text_17">
      <!-- 700 -->
      <g style="fill: #ffffff" transform="translate(27.6625 71.70026) scale(0.1 -0.1)">
       <defs>
        <path id="DejaVuSans-37" d="M 525 4666 
L 3525 4666 
L 3525 4397 
L 1831 0 
L 1172 0 
L 2766 4134 
L 525 4134 
L 525 4666 
z
" transform="scale(0.015625)"/>
       </defs>
       <use xlink:href="#DejaVuSans-37"/>
       <use xlink:href="#DejaVuSans-30" x="63.623047"/>
       <use xlink:href="#DejaVuSans-30" x="127.246094"/>
      </g>
     </g>
    </g>
    <g id="ytick_9">
     <g id="line2d_33">
      <path d="M 53.75 24.557761 
L 853.2 24.557761 
" clip-path="url(#p1e3ec2240b)" style="fill: none; stroke-dasharray: 1.85,0.8; stroke-dashoffset: 0; stroke: #808080; stroke-width: 0.5"/>
     </g>
     <g id="line2d_34">
      <g>
       <use xlink:href="#m33fe4ce845" x="53.75" y="24.557761" style="fill: #ffffff; stroke: #ffffff; stroke-width: 0.8"/>
      </g>
     </g>
     <g id="text_18">
      <!-- 800 -->
      <g style="fill: #ffffff" transform="translate(27.6625 28.35698) scale(0.1 -0.1)">
       <defs>
        <path id="DejaVuSans-38" d="M 2034 2216 
Q 1584 2216 1326 1975 
Q 1069 1734 1069 1313 
Q 1069 891 1326 650 
Q 1584 409 2034 409 
Q 2484 409 2743 651 
Q 3003 894 3003 1313 
Q 3003 1734 2745 1975 
Q 2488 2216 2034 2216 
z
M 1403 2484 
Q 997 2584 770 2862 
Q 544 3141 544 3541 
Q 544 4100 942 4425 
Q 1341 4750 2034 4750 
Q 2731 4750 3128 4425 
Q 3525 4100 3525 3541 
Q 3525 3141 3298 2862 
Q 3072 2584 2669 2484 
Q 3125 2378 3379 2068 
Q 3634 1759 3634 1313 
Q 3634 634 3220 271 
Q 2806 -91 2034 -91 
Q 1263 -91 848 271 
Q 434 634 434 1313 
Q 434 1759 690 2068 
Q 947 2378 1403 2484 
z
M 1172 3481 
Q 1172 3119 1398 2916 
Q 1625 2713 2034 2713 
Q 2441 2713 2670 2916 
Q 2900 3119 2900 3481 
Q 2900 3844 2670 4047 
Q 2441 4250 2034 4250 
Q 1625 4250 1398 4047 
Q 1172 3844 1172 3481 
z
" transform="scale(0.015625)"/>
       </defs>
       <use xlink:href="#DejaVuSans-38"/>
       <use xlink:href="#DejaVuSans-30" x="63.623047"/>
       <use xlink:href="#DejaVuSans-30" x="127.246094"/>
      </g>
     </g>
    </g>
    <g id="text_19">
     <!-- Index, Durchschnitt 2019–2023 = 100 -->
     <g style="fill: #d3d3d3" transform="translate(21.166875 305.382938) rotate(-90) scale(0.12 -0.12)">
      <defs>
       <path id="DejaVuSans-49" d="M 628 4666 
L 1259 4666 
L 1259 0 
L 628 0 
L 628 4666 
z
" transform="scale(0.015625)"/>
       <path id="DejaVuSans-6e" d="M 3513 2113 
L 3513 0 
L 2938 0 
L 2938 2094 
Q 2938 2591 2744 2837 
Q 2550 3084 2163 3084 
Q 1697 3084 1428 2787 
Q 1159 2491 1159 1978 
L 1159 0 
L 581 0 
L 581 3500 
L 1159 3500 
L 1159 2956 
Q 1366 3272 1645 3428 
Q 1925 3584 2291 3584 
Q 2894 3584 3203 3211 
Q 3513 2838 3513 2113 
z
" transform="scale(0.015625)"/>
       <path id="DejaVuSans-64" d="M 2906 2969 
L 2906 4863 
L 3481 4863 
L 3481 0 
L 2906 0 
L 2906 525 
Q 2725 213 2448 61 
Q 2172 -91 1784 -91 
Q 1150 -91 751 415 
Q 353 922 353 1747 
Q 353 2572 751 3078 
Q 1150 3584 1784 3584 
Q 2172 3584 2448 3432 
Q 2725 3281 2906 2969 
z
M 947 1747 
Q 947 1113 1208 752 
Q 1469 391 1925 391 
Q 2381 391 2643 752 
Q 2906 1113 2906 1747 
Q 2906 2381 2643 2742 
Q 2381 3103 1925 3103 
Q 1469 3103 1208 2742 
Q 947 2381 947 1747 
z
" transform="scale(0.015625)"/>
       <path id="DejaVuSans-65" d="M 3597 1894 
L 3597 1613 
L 953 1613 
Q 991 1019 1311 708 
Q 1631 397 2203 397 
Q 2534 397 2845 478 
Q 3156 559 3463 722 
L 3463 178 
Q 3153 47 2828 -22 
Q 2503 -91 2169 -91 
Q 1331 -91 842 396 
Q 353 884 353 1716 
Q 353 2575 817 3079 
Q 1281 3584 2069 3584 
Q 2775 3584 3186 3129 
Q 3597 2675 3597 1894 
z
M 3022 2063 
Q 3016 2534 2758 2815 
Q 2500 3097 2075 3097 
Q 1594 3097 1305 2825 
Q 1016 2553 972 2059 
L 3022 2063 
z
" transform="scale(0.015625)"/>
       <path id="DejaVuSans-78" d="M 3513 3500 
L 2247 1797 
L 3578 0 
L 2900 0 
L 1881 1375 
L 863 0 
L 184 0 
L 1544 1831 
L 300 3500 
L 978 3500 
L 1906 2253 
L 2834 3500 
L 3513 3500 
z
" transform="scale(0.015625)"/>
       <path id="DejaVuSans-2c" d="M 750 794 
L 1409 794 
L 1409 256 
L 897 -744 
L 494 -744 
L 750 256 
L 750 794 
z
" transform="scale(0.015625)"/>
       <path id="DejaVuSans-20" transform="scale(0.015625)"/>
       <path id="DejaVuSans-72" d="M 2631 2963 
Q 2534 3019 2420 3045 
Q 2306 3072 2169 3072 
Q 1681 3072 1420 2755 
Q 1159 2438 1159 1844 
L 1159 0 
L 581 0 
L 581 3500 
L 1159 3500 
L 1159 2956 
Q 1341 3275 1631 3429 
Q 1922 3584 2338 3584 
Q 2397 3584 2469 3576 
Q 2541 3569 2628 3553 
L 2631 2963 
z
" transform="scale(0.015625)"/>
       <path id="DejaVuSans-63" d="M 3122 3366 
L 3122 2828 
Q 2878 2963 2633 3030 
Q 2388 3097 2138 3097 
Q 1578 3097 1268 2742 
Q 959 2388 959 1747 
Q 959 1106 1268 751 
Q 1578 397 2138 397 
Q 2388 397 2633 464 
Q 2878 531 3122 666 
L 3122 134 
Q 2881 22 2623 -34 
Q 2366 -91 2075 -91 
Q 1284 -91 818 406 
Q 353 903 353 1747 
Q 353 2603 823 3093 
Q 1294 3584 2113 3584 
Q 2378 3584 2631 3529 
Q 2884 3475 3122 3366 
z
" transform="scale(0.015625)"/>
       <path id="DejaVuSans-68" d="M 3513 2113 
L 3513 0 
L 2938 0 
L 2938 2094 
Q 2938 2591 2744 2837 
Q 2550 3084 2163 3084 
Q 1697 3084 1428 2787 
Q 1159 2491 1159 1978 
L 1159 0 
L 581 0 
L 581 4863 
L 1159 4863 
L 1159 2956 
Q 1366 3272 1645 3428 
Q 1925 3584 2291 3584 
Q 2894 3584 3203 3211 
Q 3513 2838 3513 2113 
z
" transform="scale(0.015625)"/>
       <path id="DejaVuSans-73" d="M 2834 3397 
L 2834 2853 
Q 2591 2978 2328 3040 
Q 2066 3103 1784 3103 
Q 1356 3103 1142 2972 
Q 928 2841 928 2578 
Q 928 2378 1081 2264 
Q 1234 2150 1697 2047 
L 1894 2003 
Q 2506 1872 2764 1633 
Q 3022 1394 3022 966 
Q 3022 478 2636 193 
Q 2250 -91 1575 -91 
Q 1294 -91 989 -36 
Q 684 19 347 128 
L 347 722 
Q 666 556 975 473 
Q 1284 391 1588 391 
Q 1994 391 2212 530 
Q 2431 669 2431 922 
Q 2431 1156 2273 1281 
Q 2116 1406 1581 1522 
L 1381 1569 
Q 847 1681 609 1914 
Q 372 2147 372 2553 
Q 372 3047 722 3315 
Q 1072 3584 1716 3584 
Q 2034 3584 2315 3537 
Q 2597 3491 2834 3397 
z
" transform="scale(0.015625)"/>
       <path id="DejaVuSans-69" d="M 603 3500 
L 1178 3500 
L 1178 0 
L 603 0 
L 603 3500 
z
M 603 4863 
L 1178 4863 
L 1178 4134 
L 603 4134 
L 603 4863 
z
" transform="scale(0.015625)"/>
       <path id="DejaVuSans-2013" d="M 313 1978 
L 2888 1978 
L 2888 1528 
L 313 1528 
L 313 1978 
z
" transform="scale(0.015625)"/>
       <path id="DejaVuSans-3d" d="M 678 2906 
L 4684 2906 
L 4684 2381 
L 678 2381 
L 678 2906 
z
M 678 1631 
L 4684 1631 
L 4684 1100 
L 678 1100 
L 678 1631 
z
" transform="scale(0.015625)"/>
      </defs>
      <use xlink:href="#DejaVuSans-49"/>
      <use xlink:href="#DejaVuSans-6e" x="29.492188"/>
      <use xlink:href="#DejaVuSans-64" x="92.871094"/>
      <use xlink:href="#DejaVuSans-65" x="156.347656"/>
      <use xlink:href="#DejaVuSans-78" x="216.121094"/>
      <use xlink:href="#DejaVuSans-2c" x="275.300781"/>
      <use xlink:href="#DejaVuSans-20" x="307.087891"/>
      <use xlink:href="#DejaVuSans-44" x="338.875"/>
      <use xlink:href="#DejaVuSans-75" x="415.876953"/>
      <use xlink:href="#DejaVuSans-72" x="479.255859"/>
      <use xlink:href="#DejaVuSans-63" x="518.119141"/>
      <use xlink:href="#DejaVuSans-68" x="573.099609"/>
      <use xlink:href="#DejaVuSans-73" x="636.478516"/>
      <use xlink:href="#DejaVuSans-63" x="688.578125"/>
      <use xlink:href="#DejaVuSans-68" x="743.558594"/>
      <use xlink:href="#DejaVuSans-6e" x="806.9375"/>
      <use xlink:href="#DejaVuSans-69" x="870.316406"/>
      <use xlink:href="#DejaVuSans-74" x="898.099609"/>
      <use xlink:href="#DejaVuSans-74" x="937.308594"/>
      <use xlink:href="#DejaVuSans-20" x="976.517578"/>
      <use xlink:href="#DejaVuSans-32" x="1008.304688"/>
      <use xlink:href="#DejaVuSans-30" x="1071.927734"/>
      <use xlink:href="#DejaVuSans-31" x="1135.550781"/>
      <use xlink:href="#DejaVuSans-39" x="1199.173828"/>
      <use xlink:href="#DejaVuSans-2013" x="1262.796875"/>
      <use xlink:href="#DejaVuSans-32" x="1312.796875"/>
      <use xlink:href="#DejaVuSans-30" x="1376.419922"/>
      <use xlink:href="#DejaVuSans-32" x="1440.042969"/>
      <use xlink:href="#DejaVuSans-33" x="1503.666016"/>
      <use xlink:href="#DejaVuSans-20" x="1567.289062"/>
      <use xlink:href="#DejaVuSans-3d" x="1599.076172"/>
      <use xlink:href="#DejaVuSans-20" x="1682.865234"/>
      <use xlink:href="#DejaVuSans-31" x="1714.652344"/>
      <use xlink:href="#DejaVuSans-30" x="1778.275391"/>
      <use xlink:href="#DejaVuSans-30" x="1841.898438"/>
     </g>
    </g>
   </g>
   <g id="line2d_35">
    <path d="M 90.088636 328.321444 
L 90.35982 331.531639 
L 90.631004 329.150637 
L 91.444556 334.20299 
L 91.715739 331.029827 
L 91.986923 330.326255 
L 92.258107 331.854361 
L 92.529291 330.507777 
L 92.800475 331.032573 
L 93.071659 332.136064 
L 93.342843 333.845893 
L 93.614026 333.075965 
L 93.88521 331.795745 
L 94.156394 332.194136 
L 94.427578 328.635074 
L 94.698762 330.310761 
L 94.969946 330.977529 
L 95.512313 331.41346 
L 95.783497 330.563435 
L 96.054681 330.580773 
L 96.325865 330.178737 
L 96.868233 331.985961 
L 97.139417 330.428558 
L 97.4106 330.047124 
L 97.681784 329.939428 
L 97.952968 329.412017 
L 98.224152 330.602746 
L 98.495336 330.316763 
L 98.76652 330.380212 
L 99.037704 329.033301 
L 99.580071 329.382372 
L 99.851255 329.843406 
L 100.393623 329.782411 
L 100.664807 329.167817 
L 100.935991 326.499794 
L 101.207174 328.078924 
L 101.478358 328.161858 
L 101.749542 329.043628 
L 102.020726 330.814953 
L 102.29191 330.115965 
L 102.563094 329.936534 
L 102.834277 329.957813 
L 103.105461 328.643801 
L 103.376645 329.130185 
L 103.647829 329.99738 
L 103.919013 330.490327 
L 104.461381 328.838054 
L 104.732564 329.590049 
L 105.003748 328.452301 
L 105.274932 331.085058 
L 105.546116 330.411088 
L 105.8173 330.462231 
L 106.088484 329.711502 
L 106.359668 329.618119 
L 106.902035 331.563562 
L 107.173219 331.389866 
L 107.444403 330.689999 
L 107.986771 333.260495 
L 108.529138 334.220255 
L 108.800322 333.502592 
L 109.071506 333.229382 
L 109.34269 332.724067 
L 109.613874 334.42151 
L 109.885058 333.932723 
L 110.156242 334.005919 
L 110.427425 334.496482 
L 110.698609 333.613551 
L 110.969793 333.78715 
L 111.240977 333.624468 
L 111.512161 332.740753 
L 111.783345 333.370398 
L 112.054528 334.432743 
L 112.325712 333.519508 
L 112.596896 333.949419 
L 112.86808 332.454216 
L 113.139264 332.702216 
L 113.410448 331.657192 
L 113.681632 332.632548 
L 113.952815 332.874108 
L 114.495183 332.263403 
L 114.766367 332.384091 
L 115.308735 330.083946 
L 115.851102 328.917732 
L 116.122286 330.625186 
L 116.39347 330.816976 
L 116.935838 330.077076 
L 117.207022 330.060847 
L 118.020573 328.650767 
L 118.291757 331.012584 
L 118.562941 330.059659 
L 118.834125 330.684457 
L 119.105309 329.20441 
L 119.376493 328.703731 
L 120.732412 331.030995 
L 121.003596 330.22118 
L 121.27478 330.380142 
L 121.545963 330.952196 
L 121.817147 331.100074 
L 122.359515 329.213664 
L 122.630699 330.569636 
L 122.901883 331.084223 
L 123.173066 330.820055 
L 123.44425 331.668812 
L 123.986618 329.547782 
L 124.257802 331.090609 
L 124.528986 330.952003 
L 124.80017 330.263624 
L 125.071353 331.173727 
L 125.342537 331.165142 
L 125.613721 330.935201 
L 125.884905 329.903556 
L 126.156089 330.524897 
L 126.427273 330.09115 
L 126.96964 330.828368 
L 127.240824 329.726157 
L 127.512008 329.918167 
L 127.783192 330.386695 
L 128.054376 330.271048 
L 128.32556 328.971646 
L 128.596744 329.713851 
L 128.867927 329.187662 
L 129.139111 327.274995 
L 129.410295 327.146786 
L 129.681479 327.554503 
L 129.952663 328.865771 
L 130.223847 327.087154 
L 130.495031 327.110174 
L 130.766214 326.923214 
L 131.037398 325.810562 
L 131.308582 326.30211 
L 131.579766 326.286039 
L 132.122134 325.826879 
L 132.393318 326.817559 
L 132.664501 326.380672 
L 132.935685 325.152935 
L 133.206869 325.926957 
L 133.749237 324.941925 
L 134.020421 324.044946 
L 134.291604 325.578624 
L 135.105156 327.47647 
L 135.647524 323.82345 
L 135.918708 324.76216 
L 136.189891 323.88448 
L 136.461075 324.833429 
L 136.732259 326.412216 
L 137.274627 326.817242 
L 137.545811 326.417696 
L 137.816995 326.475516 
L 138.359362 324.832417 
L 138.630546 326.138187 
L 139.172914 325.642144 
L 139.444098 325.737155 
L 139.715282 325.405712 
L 139.986465 323.753306 
L 140.257649 324.321006 
L 140.528833 325.38138 
L 140.800017 324.602415 
L 141.071201 325.79267 
L 141.342385 325.28498 
L 141.613569 325.636892 
L 142.155936 323.607548 
L 142.42712 323.702797 
L 142.698304 323.11965 
L 142.969488 323.917775 
L 143.240672 325.210711 
L 143.511855 325.674568 
L 143.783039 328.28208 
L 144.325407 325.709138 
L 144.596591 325.571156 
L 144.867775 324.880367 
L 145.138959 325.360146 
L 145.410142 327.146961 
L 145.681326 327.689459 
L 145.95251 327.613 
L 146.223694 326.823118 
L 147.037246 326.129725 
L 147.308429 326.461828 
L 147.579613 325.588881 
L 147.850797 325.285789 
L 148.121981 325.833873 
L 148.393165 325.529531 
L 148.664349 326.00646 
L 149.206716 328.015801 
L 149.749084 327.968238 
L 150.291452 327.157368 
L 150.83382 328.994596 
L 151.105003 328.050028 
L 151.376187 325.28498 
L 151.918555 326.226847 
L 152.189739 327.365167 
L 152.460923 326.388527 
L 152.732107 326.812677 
L 153.00329 326.043229 
L 153.274474 324.67357 
L 153.816842 326.017543 
L 154.088026 327.59312 
L 154.35921 328.110706 
L 154.630393 327.096725 
L 154.901577 327.576178 
L 155.172761 328.452424 
L 155.443945 328.787483 
L 155.715129 328.703142 
L 155.986313 329.968096 
L 156.257497 327.777803 
L 156.52868 327.613748 
L 156.799864 327.169296 
L 157.342232 327.507882 
L 157.613416 328.064498 
L 157.8846 328.889205 
L 158.155784 328.506584 
L 158.698151 328.238678 
L 158.969335 329.041833 
L 159.782887 327.385109 
L 160.054071 328.96241 
L 160.325254 327.373005 
L 160.596438 327.211607 
L 160.867622 328.458529 
L 161.138806 328.898389 
L 161.681174 326.978245 
L 161.952358 327.287494 
L 162.223541 328.343039 
L 162.494725 328.303904 
L 162.765909 327.924124 
L 163.037093 327.944866 
L 163.308277 327.243978 
L 163.579461 325.961712 
L 163.850645 327.387801 
L 164.393012 326.868755 
L 164.664196 327.616571 
L 164.93538 327.66446 
L 165.477748 325.236748 
L 165.748931 325.734868 
L 166.020115 324.885231 
L 166.291299 325.230714 
L 166.562483 325.95091 
L 166.833667 327.700939 
L 167.376035 327.110148 
L 167.647218 328.124605 
L 167.918402 328.534223 
L 168.189586 329.469581 
L 168.46077 329.776333 
L 169.003138 330.633534 
L 169.274322 330.249602 
L 169.816689 331.116655 
L 170.087873 330.377301 
L 170.359057 331.685807 
L 170.630241 329.596682 
L 171.443792 331.177905 
L 171.714976 331.533108 
L 171.98616 331.328238 
L 172.257344 331.427876 
L 172.528528 331.923374 
L 172.799712 333.34656 
L 173.070896 332.981822 
L 173.613263 334.041519 
L 174.155631 335.803801 
L 174.426815 335.239303 
L 174.697999 335.248733 
L 174.969182 335.40137 
L 175.240366 335.097248 
L 175.51155 334.985621 
L 175.782734 332.807642 
L 176.053918 332.721049 
L 176.325102 332.961176 
L 176.596286 333.56517 
L 176.867469 333.657604 
L 177.409837 331.324658 
L 177.681021 332.385348 
L 177.952205 331.271456 
L 178.223389 332.911925 
L 178.494573 333.563015 
L 178.765756 332.7801 
L 179.03694 332.820177 
L 179.308124 333.038876 
L 179.579308 332.741211 
L 179.850492 333.007991 
L 180.39286 332.000088 
L 180.664043 333.111957 
L 180.935227 331.893052 
L 181.206411 332.556317 
L 181.477595 332.192916 
L 181.748779 331.41695 
L 182.019963 331.389013 
L 182.56233 332.994295 
L 182.833514 333.480152 
L 183.104698 334.692583 
L 183.375882 336.561479 
L 183.647066 336.448065 
L 183.91825 335.029436 
L 184.189434 334.780442 
L 184.460617 334.9789 
L 185.002985 337.272518 
L 185.274169 337.067955 
L 185.545353 337.634907 
L 185.816537 337.00374 
L 186.08772 337.297297 
L 186.358904 337.283214 
L 186.630088 337.415109 
L 186.901272 337.077851 
L 187.172456 338.189016 
L 187.44364 337.960202 
L 187.714824 338.030846 
L 187.986007 338.683635 
L 188.257191 338.473134 
L 188.528375 338.519888 
L 189.070743 336.989033 
L 189.341927 336.493798 
L 189.613111 337.080622 
L 189.884294 336.700156 
L 190.426662 335.3589 
L 190.697846 334.273957 
L 190.96903 334.368361 
L 191.511398 336.139308 
L 191.782581 336.266215 
L 192.053765 337.343655 
L 192.596133 336.426444 
L 192.867317 336.616307 
L 193.138501 336.577119 
L 193.409685 337.480203 
L 193.680868 336.716139 
L 194.223236 336.886817 
L 194.49442 337.578196 
L 194.765604 337.232397 
L 195.307972 337.922385 
L 195.579155 337.593713 
L 195.850339 337.580254 
L 196.121523 338.249941 
L 196.392707 337.632294 
L 196.935075 339.938174 
L 197.206258 338.062584 
L 197.748626 338.608627 
L 198.01981 338.214289 
L 198.290994 338.435828 
L 198.562178 337.29669 
L 199.646913 335.890446 
L 200.189281 336.671321 
L 200.460465 336.834434 
L 200.731649 336.5728 
L 201.002832 335.658069 
L 201.274016 336.063342 
L 201.5452 337.467246 
L 201.816384 337.367748 
L 202.087568 336.329568 
L 202.358752 336.097226 
L 202.629936 334.086996 
L 202.901119 333.992126 
L 203.172303 333.332239 
L 203.443487 334.288216 
L 203.714671 334.654124 
L 203.985855 337.25993 
L 204.257039 336.100832 
L 204.528223 336.727451 
L 204.799406 336.685342 
L 205.341774 337.776918 
L 205.612958 339.545982 
L 205.884142 340.463105 
L 206.426509 342.594471 
L 206.697693 340.873392 
L 207.240061 341.138782 
L 208.053613 338.192315 
L 208.59598 340.255473 
L 208.867164 340.430646 
L 209.138348 340.09966 
L 209.9519 340.316116 
L 210.494267 342.452522 
L 210.765451 342.885635 
L 211.036635 341.228269 
L 211.307819 341.089724 
L 211.579003 340.012795 
L 211.850187 340.551422 
L 212.12137 339.174902 
L 212.392554 340.234414 
L 212.663738 340.482845 
L 212.934922 339.519865 
L 213.206106 337.92447 
L 213.47729 337.999584 
L 213.748474 337.401386 
L 214.019657 335.941405 
L 214.290841 336.490165 
L 214.833209 334.761926 
L 215.646761 336.613053 
L 215.917944 334.954305 
L 216.460312 335.499072 
L 217.00268 336.628596 
L 217.273864 337.808875 
L 217.545047 338.053119 
L 217.816231 337.684862 
L 218.087415 336.158142 
L 218.629783 336.200699 
L 219.172151 335.128784 
L 219.443334 334.089662 
L 219.714518 334.842563 
L 219.985702 335.121852 
L 220.256886 333.632209 
L 220.52807 333.82918 
L 220.799254 334.447292 
L 221.341621 332.482831 
L 221.612805 332.607126 
L 221.883989 333.373539 
L 222.697541 331.078417 
L 223.239908 331.737231 
L 223.511092 332.649094 
L 223.782276 332.289071 
L 224.324644 328.351 
L 224.867012 326.374418 
L 225.138195 326.397236 
L 225.680563 327.478722 
L 225.951747 327.646392 
L 226.222931 326.031011 
L 226.494115 326.134651 
L 227.036482 329.432864 
L 227.57885 326.385501 
L 227.850034 326.315727 
L 228.121218 321.425717 
L 228.392402 320.788736 
L 228.663585 321.452432 
L 228.934769 322.97983 
L 229.205953 323.418802 
L 230.019505 325.987213 
L 230.290689 326.910362 
L 230.561872 325.81832 
L 230.833056 324.262263 
L 231.375424 325.655101 
L 231.646608 327.384713 
L 231.917792 326.532482 
L 232.188976 324.368762 
L 232.460159 325.816429 
L 232.731343 325.22095 
L 233.002527 323.573101 
L 233.273711 323.134904 
L 233.544895 321.934278 
L 233.816079 324.555723 
L 234.087263 324.513597 
L 234.358446 322.829639 
L 234.62963 322.254048 
L 234.900814 323.162929 
L 235.171998 323.525943 
L 235.443182 323.608991 
L 235.714366 328.71463 
L 235.98555 330.398527 
L 236.256733 330.984611 
L 236.527917 328.323344 
L 236.799101 328.069046 
L 237.070285 327.355491 
L 237.341469 325.288577 
L 238.15502 328.615977 
L 238.968572 323.353743 
L 239.239756 322.377111 
L 239.782123 325.320579 
L 240.053307 324.932803 
L 240.324491 326.523844 
L 240.595675 327.303346 
L 240.866859 324.917734 
L 241.138043 325.285252 
L 241.409227 323.595013 
L 241.951594 321.468107 
L 242.222778 321.287814 
L 242.493962 320.230035 
L 242.765146 321.194439 
L 243.307514 320.21699 
L 243.849881 317.303764 
L 244.121065 318.950944 
L 244.392249 317.581655 
L 244.663433 317.677633 
L 244.934617 319.711296 
L 245.205801 318.916269 
L 245.476984 316.216086 
L 245.748168 316.832245 
L 246.290536 320.452885 
L 246.56172 319.852102 
L 246.832904 319.928104 
L 247.104088 320.616096 
L 247.375271 318.782738 
L 247.646455 317.917206 
L 247.917639 316.011444 
L 248.188823 317.349629 
L 248.460007 320.611258 
L 248.731191 318.529451 
L 249.002374 320.828276 
L 249.273558 321.845706 
L 249.544742 322.225011 
L 249.815926 322.372203 
L 250.08711 322.848366 
L 250.358294 322.278371 
L 250.629478 323.20627 
L 250.900661 322.822619 
L 251.171845 320.793213 
L 251.443029 320.192342 
L 251.714213 320.277298 
L 251.985397 322.183492 
L 252.527765 320.757816 
L 252.798948 320.252976 
L 253.070132 322.828864 
L 253.341316 322.23956 
L 253.6125 322.899852 
L 253.883684 322.848938 
L 254.154868 323.364343 
L 254.697235 321.915761 
L 254.968419 324.171906 
L 255.510787 325.591212 
L 255.781971 324.535412 
L 256.053155 324.051376 
L 256.324339 327.142862 
L 256.595522 325.348314 
L 257.409074 327.244154 
L 257.680258 327.104422 
L 257.951442 327.553404 
L 258.222626 327.6081 
L 258.493809 326.274516 
L 258.764993 328.599343 
L 259.307361 330.074727 
L 259.578545 329.016227 
L 260.120912 330.33718 
L 260.392096 330.877171 
L 260.66328 329.67125 
L 260.934464 329.585484 
L 261.205648 329.147919 
L 261.476832 329.05414 
L 261.748016 329.562534 
L 262.019199 330.383361 
L 262.290383 330.407394 
L 262.561567 330.086163 
L 262.832751 329.386815 
L 263.103935 329.505866 
L 263.375119 330.05907 
L 263.646303 329.930746 
L 263.917486 329.256591 
L 264.459854 326.668933 
L 264.731038 327.016184 
L 265.002222 327.127776 
L 265.273406 327.818873 
L 265.54459 326.592817 
L 265.815773 326.125767 
L 266.086957 327.404866 
L 266.358141 327.471693 
L 266.629325 328.083956 
L 266.900509 326.669303 
L 267.171693 327.268767 
L 267.442877 326.231633 
L 267.71406 326.666329 
L 267.985244 326.356816 
L 268.527612 325.445287 
L 268.798796 325.334944 
L 269.06998 325.803868 
L 269.341164 325.743198 
L 269.612347 326.276328 
L 269.883531 325.912865 
L 270.154715 326.965182 
L 270.425899 327.426409 
L 270.697083 326.071176 
L 270.968267 326.7237 
L 271.23945 325.759225 
L 271.510634 326.603619 
L 271.781818 330.12697 
L 272.053002 331.298303 
L 272.324186 330.343258 
L 272.59537 330.862674 
L 272.866554 330.288544 
L 273.137737 330.199391 
L 273.680105 332.399757 
L 273.951289 332.981558 
L 274.222473 331.99503 
L 274.493657 331.483628 
L 274.764841 331.61386 
L 275.036024 332.198651 
L 275.307208 331.543145 
L 275.578392 332.776397 
L 275.849576 334.56886 
L 276.12076 335.453322 
L 276.391944 334.979173 
L 276.663128 334.019967 
L 276.934311 331.754868 
L 277.205495 331.26339 
L 277.476679 333.015398 
L 277.747863 331.407081 
L 278.019047 331.582316 
L 278.290231 333.09761 
L 278.561415 332.224979 
L 278.832598 333.36651 
L 279.103782 332.028861 
L 279.374966 331.417285 
L 279.64615 331.61057 
L 279.917334 331.327525 
L 280.188518 330.525487 
L 280.730885 332.687464 
L 281.002069 331.614291 
L 281.273253 331.991934 
L 281.544437 331.73329 
L 281.815621 332.405061 
L 282.086805 332.136865 
L 282.357988 332.334267 
L 282.629172 333.488526 
L 282.900356 333.572278 
L 283.17154 333.993727 
L 283.442724 333.5689 
L 283.713908 332.705216 
L 283.985092 332.721445 
L 284.256275 332.57252 
L 284.527459 333.870506 
L 284.798643 333.400482 
L 285.069827 332.158337 
L 285.341011 334.069667 
L 285.612195 334.509061 
L 285.883379 333.659328 
L 286.154562 334.192774 
L 286.425746 333.844002 
L 286.69693 335.367055 
L 286.968114 334.891586 
L 287.239298 333.837994 
L 287.510482 334.283783 
L 287.781666 334.333298 
L 288.052849 334.654063 
L 288.324033 333.937262 
L 288.595217 334.385858 
L 288.866401 333.585464 
L 289.137585 334.078693 
L 289.408769 333.649749 
L 289.679953 335.514255 
L 290.493504 332.508227 
L 291.035872 331.156161 
L 291.307056 331.346464 
L 291.849423 334.302695 
L 292.120607 334.416733 
L 292.391791 335.989618 
L 292.662975 336.2645 
L 293.205343 335.182522 
L 293.476526 336.214492 
L 293.74771 335.228219 
L 294.018894 335.145031 
L 294.290078 334.808565 
L 294.561262 335.332044 
L 294.832446 335.20029 
L 295.374813 336.02549 
L 295.645997 335.703178 
L 295.917181 336.307445 
L 296.730733 334.211696 
L 297.001917 334.47618 
L 298.086652 337.205339 
L 298.357836 335.537355 
L 298.62902 336.839624 
L 298.900204 336.814704 
L 299.442571 334.010907 
L 299.713755 334.09187 
L 299.984939 333.911225 
L 300.256123 334.127663 
L 300.798491 333.237166 
L 301.069674 331.020219 
L 301.612042 333.318798 
L 302.15441 331.426574 
L 302.696777 331.901083 
L 302.967961 332.257826 
L 303.239145 331.637356 
L 303.781513 332.823634 
L 304.866248 329.656137 
L 305.137432 329.953688 
L 305.408616 329.311341 
L 305.950984 330.576146 
L 306.222168 329.420013 
L 306.493351 329.301541 
L 306.764535 330.163774 
L 307.035719 332.048803 
L 307.306903 332.201238 
L 307.578087 331.070826 
L 307.849271 331.130176 
L 308.120455 331.671935 
L 308.391638 332.723979 
L 308.662822 333.210583 
L 308.934006 333.011844 
L 309.20519 332.279052 
L 309.476374 332.600045 
L 309.747558 332.217203 
L 310.289925 332.435304 
L 310.832293 333.16383 
L 311.103477 330.68253 
L 311.374661 329.29797 
L 311.645845 328.499784 
L 311.917028 323.481626 
L 312.188212 324.288468 
L 312.459396 322.732428 
L 313.001764 316.503441 
L 313.272948 314.880205 
L 313.544132 316.118093 
L 314.086499 316.983132 
L 314.357683 316.153595 
L 314.628867 314.70022 
L 314.900051 314.643966 
L 315.171235 315.488712 
L 315.442419 314.877109 
L 315.713602 312.946945 
L 315.984786 312.407596 
L 316.25597 313.856547 
L 316.527154 311.447256 
L 316.798338 310.786428 
L 317.340706 312.418548 
L 317.611889 311.995357 
L 318.154257 309.278443 
L 318.696625 310.795198 
L 319.238993 315.416396 
L 319.510176 321.822985 
L 319.78136 321.567948 
L 320.052544 322.148561 
L 320.594912 328.805172 
L 320.866096 330.001329 
L 321.13728 329.608935 
L 321.408463 329.466678 
L 321.679647 329.140407 
L 321.950831 328.343347 
L 322.222015 329.10026 
L 322.493199 329.130986 
L 322.764383 326.986953 
L 323.30675 329.428044 
L 323.849118 329.75179 
L 324.391486 332.124506 
L 324.66267 332.466461 
L 324.933853 332.12418 
L 325.205037 331.128047 
L 325.476221 331.226647 
L 325.747405 331.484595 
L 326.018589 330.506794 
L 326.289773 330.329448 
L 326.560957 329.499419 
L 326.83214 329.190468 
L 327.103324 328.302329 
L 327.374508 328.299945 
L 327.645692 329.996122 
L 327.916876 329.689274 
L 328.18806 329.687409 
L 328.459244 328.070832 
L 328.730427 327.169516 
L 329.001611 326.776954 
L 329.272795 325.483147 
L 329.543979 327.007906 
L 330.086347 326.614764 
L 330.357531 328.091899 
L 330.628714 327.455771 
L 330.899898 328.102745 
L 331.442266 327.073563 
L 331.984634 324.40101 
L 332.255818 322.809873 
L 332.527001 322.875328 
L 332.798185 322.16662 
L 333.340553 324.255094 
L 333.611737 325.685722 
L 333.882921 326.337305 
L 334.154104 325.614233 
L 334.425288 326.843834 
L 334.696472 326.327796 
L 334.967656 326.069777 
L 335.510024 323.760572 
L 336.323575 326.45568 
L 336.594759 326.917619 
L 336.865943 326.943349 
L 337.137127 326.195277 
L 337.408311 326.574124 
L 337.679495 327.355597 
L 338.221862 324.506181 
L 338.493046 324.826576 
L 339.306598 328.285792 
L 339.577782 329.809874 
L 339.848965 329.787486 
L 340.120149 328.42468 
L 340.391333 330.0397 
L 341.204885 327.385848 
L 341.476069 328.718069 
L 341.747252 329.436022 
L 342.018436 329.056761 
L 342.28962 329.927149 
L 342.560804 331.665276 
L 342.831988 332.141166 
L 343.103172 331.540313 
L 343.374355 329.856275 
L 343.645539 330.227259 
L 344.187907 326.788442 
L 344.459091 328.489272 
L 344.730275 328.113556 
L 345.001459 327.937741 
L 345.543826 328.713979 
L 345.81501 329.879471 
L 346.086194 328.88252 
L 346.357378 328.976933 
L 346.628562 326.760364 
L 346.899746 326.48097 
L 347.170929 324.963793 
L 347.442113 325.233696 
L 347.713297 327.328504 
L 347.984481 328.532903 
L 348.255665 328.580105 
L 348.526849 328.928156 
L 348.798033 327.567038 
L 349.069216 326.813416 
L 349.3404 327.693039 
L 349.611584 327.306917 
L 349.882768 326.395907 
L 350.153952 324.248294 
L 350.425136 323.673267 
L 350.69632 325.148704 
L 350.967503 325.957956 
L 351.238687 325.774822 
L 351.509871 326.61238 
L 351.781055 328.582181 
L 352.052239 327.353591 
L 352.323423 329.097603 
L 352.594607 327.618472 
L 352.86579 327.232305 
L 353.408158 328.879828 
L 353.679342 328.028063 
L 353.950526 326.26454 
L 354.492893 327.748501 
L 354.764077 327.975407 
L 355.035261 328.532481 
L 355.577629 324.969519 
L 355.848813 325.578413 
L 356.119997 324.195955 
L 356.39118 324.636977 
L 356.662364 325.294348 
L 357.204732 322.030221 
L 357.475916 322.341749 
L 357.7471 324.358822 
L 358.560651 325.788676 
L 358.831835 326.247651 
L 359.103019 326.435298 
L 359.374203 325.597713 
L 359.645387 325.876034 
L 359.916571 325.470973 
L 360.187754 326.413562 
L 360.458938 326.004542 
L 360.730122 326.669048 
L 361.001306 326.145533 
L 361.27249 328.18728 
L 361.814858 330.363385 
L 362.086041 330.145011 
L 362.357225 331.284106 
L 362.628409 330.097352 
L 362.899593 330.380107 
L 363.170777 329.707157 
L 363.441961 330.044978 
L 363.713145 332.442279 
L 363.984328 331.930402 
L 364.255512 332.062446 
L 364.526696 332.024674 
L 364.79788 334.029071 
L 365.069064 335.16762 
L 365.340248 334.050324 
L 365.611431 333.560587 
L 365.882615 334.310718 
L 366.153799 333.582658 
L 366.424983 332.435576 
L 366.696167 333.491113 
L 366.967351 333.231282 
L 367.238535 332.549869 
L 368.052086 332.584879 
L 368.865638 331.360099 
L 369.136822 331.323109 
L 369.408005 329.831196 
L 369.679189 329.713385 
L 369.950373 328.896489 
L 370.492741 331.339717 
L 370.763925 333.883437 
L 371.306292 332.674859 
L 371.577476 332.491302 
L 371.84866 331.753724 
L 372.119844 331.7493 
L 372.391028 330.991543 
L 372.662212 329.844989 
L 372.933396 330.351589 
L 373.204579 331.137626 
L 373.475763 330.019635 
L 373.746947 330.10029 
L 374.018131 332.099383 
L 374.289315 332.183064 
L 374.560499 331.410661 
L 374.831682 331.729112 
L 375.102866 331.478209 
L 375.37405 331.436215 
L 375.645234 331.865062 
L 375.916418 332.547591 
L 376.458786 333.231959 
L 376.729969 332.29682 
L 377.001153 333.547076 
L 377.272337 333.229038 
L 377.543521 331.985248 
L 377.814705 332.208662 
L 378.085889 331.729253 
L 378.357073 330.723988 
L 379.170624 333.351521 
L 379.441808 332.64086 
L 379.712992 333.512303 
L 379.984176 332.117706 
L 380.25536 332.138862 
L 380.797727 330.633165 
L 381.068911 330.597565 
L 381.340095 331.18723 
L 381.882463 329.168274 
L 382.153647 330.210123 
L 382.42483 330.610012 
L 382.696014 330.602649 
L 382.967198 331.475412 
L 383.238382 331.786131 
L 383.509566 330.833989 
L 383.78075 330.314802 
L 384.051934 330.040272 
L 384.323117 331.63615 
L 384.594301 331.29613 
L 385.136669 334.625597 
L 386.221404 330.298994 
L 386.492588 330.599333 
L 386.763772 330.535215 
L 387.034956 330.213343 
L 387.30614 330.76622 
L 387.577324 331.046143 
L 387.848507 330.679592 
L 388.119691 331.387104 
L 388.390875 331.512806 
L 388.662059 332.718841 
L 389.204427 330.952759 
L 389.475611 331.319608 
L 390.017978 333.485914 
L 390.289162 333.610059 
L 390.560346 332.541618 
L 390.83153 332.554444 
L 391.373898 333.548809 
L 391.645081 332.61068 
L 391.916265 332.452246 
L 392.187449 332.825305 
L 392.458633 331.958173 
L 392.729817 332.180478 
L 393.272185 335.047997 
L 393.543368 335.197995 
L 393.814552 336.965608 
L 394.085736 334.079423 
L 394.35692 332.964097 
L 394.628104 333.076103 
L 394.899288 332.113475 
L 395.441655 334.373824 
L 395.712839 334.141684 
L 395.984023 333.52782 
L 396.255207 334.071048 
L 396.526391 333.853872 
L 396.797575 334.171795 
L 397.068758 333.545405 
L 397.88231 330.361238 
L 398.153494 331.227518 
L 398.424678 331.092254 
L 398.695862 329.834205 
L 398.967045 329.628463 
L 399.238229 331.413687 
L 399.509413 331.460423 
L 399.780597 331.028198 
L 400.051781 331.511618 
L 400.322965 331.012654 
L 400.594149 329.500087 
L 400.865332 329.393913 
L 401.136516 330.322481 
L 401.4077 330.128377 
L 401.678884 331.10339 
L 401.950068 331.160198 
L 402.221252 332.347216 
L 402.763619 331.495609 
L 403.034803 332.557355 
L 403.305987 332.248589 
L 403.577171 333.836903 
L 403.848355 331.089465 
L 404.119539 330.626673 
L 404.390723 331.229866 
L 404.661906 332.219297 
L 404.93309 332.073178 
L 405.204274 332.445455 
L 405.475458 333.762581 
L 406.017826 333.071819 
L 406.289009 333.512242 
L 406.560193 334.609482 
L 406.831377 334.566766 
L 407.102561 333.109406 
L 407.373745 333.464521 
L 407.644929 333.440542 
L 407.916113 334.524051 
L 408.187296 335.121571 
L 408.729664 334.943002 
L 409.000848 334.08156 
L 409.272032 333.913697 
L 409.543216 335.103503 
L 409.8144 334.590429 
L 410.085583 334.978962 
L 410.356767 333.529492 
L 410.627951 332.853252 
L 411.170319 332.553221 
L 411.712687 336.189008 
L 411.98387 334.419258 
L 412.255054 334.690041 
L 412.526238 335.318102 
L 412.797422 334.837312 
L 413.33979 334.500045 
L 413.882157 335.583009 
L 414.424525 333.62043 
L 414.695709 334.360814 
L 414.966893 332.797385 
L 415.509261 331.406113 
L 415.780444 331.585958 
L 416.051628 331.976355 
L 416.322812 330.453989 
L 416.593996 331.029271 
L 416.86518 332.136311 
L 417.136364 331.690055 
L 417.407547 330.209516 
L 417.678731 331.586617 
L 417.949915 333.611106 
L 418.221099 333.889964 
L 418.492283 335.119424 
L 418.763467 334.319989 
L 419.034651 332.542542 
L 419.305834 332.347128 
L 419.577018 334.385251 
L 419.848202 334.127513 
L 420.119386 331.978739 
L 420.39057 331.953194 
L 420.932938 332.907641 
L 421.475305 331.414646 
L 421.746489 331.987905 
L 422.017673 331.827026 
L 422.288857 330.892521 
L 422.560041 332.313991 
L 422.831225 332.422074 
L 423.102408 332.833891 
L 423.373592 332.98154 
L 423.644776 333.301662 
L 423.91596 334.454004 
L 424.458328 331.447351 
L 424.729512 332.506283 
L 425.000695 334.896618 
L 425.271879 332.91971 
L 425.543063 331.796537 
L 425.814247 331.155501 
L 426.085431 329.076527 
L 426.627799 331.578322 
L 426.898982 330.535022 
L 427.170166 330.645664 
L 427.44135 328.863915 
L 427.712534 330.66645 
L 427.983718 329.607308 
L 428.254902 329.648766 
L 428.526085 328.564861 
L 428.797269 329.653384 
L 429.068453 330.123821 
L 429.339637 328.069583 
L 429.610821 327.337168 
L 429.882005 328.998159 
L 430.695556 328.048832 
L 431.237924 324.81076 
L 431.780292 325.159366 
L 432.322659 323.743146 
L 432.865027 324.086544 
L 433.136211 325.510971 
L 433.407395 325.368608 
L 433.678579 326.036166 
L 434.220946 323.88192 
L 434.49213 324.129902 
L 434.763314 323.727621 
L 435.034498 324.827957 
L 435.305682 324.82487 
L 435.576866 325.565614 
L 435.84805 323.605252 
L 436.119233 325.283027 
L 436.661601 323.097703 
L 436.932785 324.071889 
L 437.203969 324.095218 
L 437.475153 323.458201 
L 437.746336 323.15912 
L 438.01752 324.920576 
L 438.288704 325.472134 
L 438.559888 326.339451 
L 438.831072 326.319175 
L 439.102256 324.052168 
L 439.37344 323.725677 
L 439.644623 324.143792 
L 439.915807 324.951258 
L 440.186991 323.479603 
L 440.458175 324.0254 
L 440.729359 323.940733 
L 441.271727 322.031154 
L 441.814094 324.403421 
L 442.085278 324.42119 
L 442.89883 322.195393 
L 443.170014 322.247486 
L 443.441197 323.566653 
L 443.712381 322.737873 
L 443.983565 323.808531 
L 444.254749 323.267194 
L 444.525933 323.028475 
L 444.797117 323.446924 
L 445.068301 323.019142 
L 445.339484 322.96697 
L 445.610668 322.479951 
L 445.881852 321.21139 
L 446.42422 321.108383 
L 446.966588 322.782868 
L 447.237771 323.701768 
L 447.508955 323.640966 
L 447.780139 324.431253 
L 448.051323 323.917977 
L 448.322507 324.780333 
L 448.864874 327.534412 
L 449.407242 324.391616 
L 449.678426 324.428403 
L 449.94961 324.801779 
L 450.220794 326.47702 
L 450.491978 324.720147 
L 451.034345 325.175991 
L 451.305529 325.743937 
L 451.576713 325.577059 
L 451.847897 327.198773 
L 452.119081 326.504641 
L 452.390265 326.659495 
L 452.661448 327.820404 
L 452.932632 327.641941 
L 453.203816 325.510487 
L 453.475 324.548493 
L 453.746184 324.786913 
L 454.288552 326.773576 
L 454.559735 327.188437 
L 454.830919 324.06618 
L 455.102103 323.099981 
L 455.373287 323.698522 
L 455.644471 324.706267 
L 455.915655 324.209167 
L 456.458022 321.797818 
L 456.729206 320.200901 
L 457.00039 322.588755 
L 457.542758 324.373653 
L 457.813942 323.493845 
L 458.085126 325.85443 
L 458.356309 326.170479 
L 458.627493 324.832532 
L 459.169861 324.063761 
L 459.441045 324.424506 
L 459.712229 325.370191 
L 459.983412 325.238965 
L 460.254596 324.084503 
L 460.52578 324.819178 
L 461.339332 327.906707 
L 461.610516 327.00905 
L 461.881699 326.887992 
L 462.152883 326.415137 
L 462.424067 329.101016 
L 462.695251 328.905866 
L 463.237619 329.557168 
L 463.508803 328.718412 
L 463.779986 329.408674 
L 464.05117 329.716622 
L 464.322354 331.780677 
L 464.593538 331.78672 
L 465.135906 330.539499 
L 465.40709 331.62972 
L 465.678273 330.97775 
L 465.949457 331.227641 
L 466.220641 332.238236 
L 466.491825 332.035793 
L 466.763009 332.055744 
L 467.034193 331.388019 
L 467.305377 332.58517 
L 467.847744 333.790238 
L 468.118928 332.843162 
L 468.93248 334.907895 
L 469.203664 334.770784 
L 469.474847 335.868446 
L 469.746031 335.268815 
L 470.017215 334.14603 
L 470.288399 334.770432 
L 470.559583 334.542251 
L 470.830767 333.908357 
L 471.373134 334.860939 
L 471.644318 334.80648 
L 471.915502 333.922036 
L 472.186686 334.035115 
L 472.45787 333.875924 
L 472.729054 334.120406 
L 473.271421 333.286805 
L 473.542605 332.273782 
L 473.813789 332.194315 
L 474.356157 332.595919 
L 474.627341 332.507928 
L 474.898524 331.534533 
L 475.169708 331.806618 
L 475.440892 331.12488 
L 475.712076 332.337592 
L 475.98326 332.735106 
L 476.254444 330.629329 
L 476.525628 330.317256 
L 477.067995 330.632267 
L 477.339179 329.865855 
L 477.610363 331.072743 
L 478.152731 329.960259 
L 478.423915 329.929119 
L 478.695098 330.13786 
L 478.966282 328.308768 
L 479.237466 328.520764 
L 479.50865 329.151086 
L 479.779834 328.960932 
L 480.593385 326.18787 
L 480.864569 326.691795 
L 481.135753 326.922783 
L 481.406937 328.117304 
L 481.678121 327.312556 
L 481.949305 326.90241 
L 482.220488 327.796583 
L 482.491672 327.545848 
L 482.762856 326.192664 
L 483.03404 326.318349 
L 483.305224 325.801106 
L 483.576408 325.934636 
L 483.847592 327.175198 
L 484.118775 325.543043 
L 484.389959 326.435975 
L 484.661143 325.567673 
L 485.203511 328.967899 
L 485.474695 328.132205 
L 485.745879 328.074948 
L 486.017062 328.603398 
L 486.288246 327.86794 
L 486.55943 329.120448 
L 486.830614 327.990177 
L 487.101798 325.743708 
L 487.372982 325.645355 
L 487.644166 323.950735 
L 487.915349 323.804001 
L 488.186533 325.63399 
L 488.457717 325.662842 
L 488.728901 323.266314 
L 489.000085 322.487736 
L 489.271269 323.94178 
L 489.542453 324.093661 
L 489.813636 321.462909 
L 490.08482 322.393965 
L 490.356004 324.072153 
L 490.627188 322.441238 
L 490.898372 322.27947 
L 491.169556 320.576406 
L 491.711923 318.887363 
L 491.983107 319.216291 
L 492.254291 319.207547 
L 492.525475 319.331446 
L 492.796659 318.097358 
L 493.067843 319.191555 
L 493.339026 319.487672 
L 493.61021 317.294827 
L 494.152578 315.267638 
L 494.423762 318.396967 
L 494.694946 319.864945 
L 494.96613 320.082632 
L 495.237313 322.887915 
L 495.779681 320.977878 
L 496.050865 321.227321 
L 496.322049 323.513575 
L 496.864417 319.929212 
L 497.1356 319.391931 
L 497.406784 320.74251 
L 497.677968 320.928847 
L 497.949152 320.557625 
L 498.220336 322.47112 
L 498.49152 319.334604 
L 498.762704 319.529253 
L 499.033887 318.68215 
L 499.305071 321.369736 
L 499.847439 318.378354 
L 500.118623 317.531998 
L 500.660991 318.346985 
L 500.932174 317.694347 
L 501.474542 321.024315 
L 501.745726 321.108691 
L 502.01691 319.806985 
L 502.288094 320.449596 
L 502.830461 318.197225 
L 503.101645 320.14287 
L 503.915197 321.960368 
L 504.186381 324.120252 
L 504.457564 324.397518 
L 504.728748 324.070341 
L 504.999932 324.591358 
L 505.271116 322.794233 
L 505.5423 322.150804 
L 505.813484 321.20584 
L 506.084668 324.205904 
L 506.355851 322.954945 
L 506.627035 323.846848 
L 506.898219 323.56514 
L 507.169403 323.844148 
L 507.440587 326.632287 
L 507.711771 326.042763 
L 507.982955 326.082488 
L 508.254138 324.832145 
L 508.525322 325.195185 
L 508.796506 325.83769 
L 509.06769 326.11061 
L 509.338874 325.561718 
L 509.881242 322.681224 
L 510.423609 323.714144 
L 510.694793 322.664423 
L 510.965977 322.538035 
L 511.237161 321.679839 
L 511.508345 321.264565 
L 511.779528 319.478488 
L 512.050712 319.44697 
L 512.321896 321.027508 
L 512.59308 320.536355 
L 512.864264 322.099318 
L 513.135448 322.864613 
L 513.406632 322.775039 
L 513.677815 322.532027 
L 513.948999 322.074301 
L 514.220183 322.997326 
L 514.491367 323.482374 
L 514.762551 323.346178 
L 515.033735 322.290686 
L 515.304919 323.647942 
L 515.576102 323.952037 
L 516.11847 320.682404 
L 516.389654 320.751113 
L 516.660838 317.414688 
L 517.474389 323.268918 
L 518.016757 322.493445 
L 518.559125 319.703336 
L 518.830309 321.378101 
L 519.101493 320.737487 
L 519.372676 321.761849 
L 519.64386 321.949725 
L 519.915044 321.103783 
L 520.186228 321.353867 
L 520.457412 319.553742 
L 520.728596 319.586149 
L 520.99978 321.327654 
L 521.270963 320.80245 
L 521.542147 322.467997 
L 521.813331 322.393684 
L 522.084515 319.033939 
L 522.355699 320.971369 
L 522.626883 320.761607 
L 522.898066 320.289376 
L 523.16925 319.306737 
L 523.711618 321.894597 
L 523.982802 320.392066 
L 524.253986 321.916386 
L 524.796353 322.825108 
L 525.067537 320.612779 
L 525.609905 319.610832 
L 526.152273 324.576439 
L 526.423457 323.751459 
L 526.69464 323.541777 
L 526.965824 322.749344 
L 527.237008 323.188439 
L 527.508192 323.842811 
L 527.779376 322.462112 
L 528.321744 322.308639 
L 528.592927 321.941253 
L 529.135295 322.570722 
L 529.406479 320.631419 
L 529.677663 322.275028 
L 529.948847 321.372146 
L 530.220031 321.884736 
L 530.762398 325.608796 
L 531.033582 325.036434 
L 531.57595 320.343343 
L 531.847134 320.609973 
L 532.118318 320.687506 
L 532.389501 320.555558 
L 532.660685 321.083656 
L 532.931869 322.130185 
L 533.203053 322.038384 
L 534.016604 317.71311 
L 534.287788 318.628333 
L 535.10134 316.306355 
L 535.914891 321.027191 
L 536.186075 320.126456 
L 536.457259 320.559807 
L 536.728443 319.239065 
L 536.999627 321.069406 
L 537.270811 321.755146 
L 537.813178 319.559117 
L 538.084362 317.814551 
L 538.355546 315.141663 
L 538.62673 316.48181 
L 539.169098 320.672736 
L 539.982649 317.330796 
L 540.253833 317.921112 
L 540.525017 318.008514 
L 540.796201 317.744416 
L 541.067385 318.05671 
L 541.338569 319.899867 
L 541.609752 318.71935 
L 542.15212 321.801671 
L 542.423304 321.532797 
L 542.694488 320.73966 
L 542.965672 321.006467 
L 543.236855 317.888837 
L 543.508039 318.005373 
L 543.779223 316.149391 
L 544.050407 316.738281 
L 544.592775 318.435021 
L 544.863959 318.737779 
L 545.135142 320.728066 
L 545.406326 320.195254 
L 545.67751 320.022393 
L 545.948694 321.537679 
L 546.219878 321.339485 
L 546.491062 322.069119 
L 546.762246 324.145094 
L 547.033429 323.236538 
L 547.304613 323.667189 
L 547.575797 324.505047 
L 547.846981 326.134818 
L 548.118165 325.116729 
L 548.389349 327.520654 
L 548.660533 327.724021 
L 548.931716 325.866384 
L 549.2029 326.435245 
L 549.474084 325.430386 
L 549.745268 325.188244 
L 550.016452 324.211648 
L 550.287636 325.386016 
L 550.55882 324.366572 
L 550.830003 326.244308 
L 551.101187 324.825925 
L 551.372371 327.72761 
L 551.643555 328.209113 
L 551.914739 326.980892 
L 552.185923 323.853516 
L 552.457107 322.700655 
L 552.72829 321.042823 
L 552.999474 323.173679 
L 553.270658 324.276478 
L 553.541842 324.016137 
L 553.813026 320.802071 
L 554.08421 319.247378 
L 554.355393 320.28993 
L 554.626577 324.367161 
L 554.897761 325.19727 
L 555.168945 323.211433 
L 555.440129 317.738012 
L 555.982497 314.872473 
L 556.25368 315.235258 
L 556.524864 315.342109 
L 557.067232 317.368058 
L 557.338416 317.874006 
L 557.6096 319.19422 
L 557.880784 318.418747 
L 558.151967 316.85509 
L 558.423151 316.805275 
L 558.965519 315.061439 
L 559.236703 313.885162 
L 559.507887 315.038683 
L 560.050254 319.165025 
L 560.321438 320.449771 
L 560.863806 317.9652 
L 561.13499 317.567061 
L 561.406174 321.737535 
L 561.677358 322.078558 
L 561.948541 321.208778 
L 562.219725 317.612099 
L 562.490909 315.697092 
L 562.762093 315.789499 
L 563.304461 321.944825 
L 563.575645 322.570089 
L 563.846828 322.191716 
L 564.118012 322.94957 
L 564.389196 322.750356 
L 564.66038 321.149991 
L 564.931564 321.425691 
L 565.202748 321.292608 
L 565.473931 321.40764 
L 565.745115 323.696499 
L 566.016299 322.287018 
L 566.287483 324.601316 
L 566.558667 324.068063 
L 566.829851 325.215795 
L 567.101035 324.905718 
L 567.372218 325.981926 
L 567.643402 324.254443 
L 567.914586 323.613064 
L 568.18577 323.93959 
L 568.456954 323.912233 
L 568.728138 324.573475 
L 568.999322 323.600362 
L 569.270505 324.736131 
L 569.541689 324.191275 
L 569.812873 326.831281 
L 570.084057 327.720889 
L 570.355241 329.018725 
L 570.626425 329.304752 
L 570.897609 328.448958 
L 571.168792 328.10417 
L 571.439976 328.194572 
L 571.71116 328.968383 
L 572.253528 328.784597 
L 572.524712 328.029268 
L 572.795896 329.043549 
L 573.067079 330.772527 
L 573.338263 329.00005 
L 573.609447 330.28346 
L 573.880631 329.428237 
L 574.151815 330.407561 
L 574.422999 330.39587 
L 574.694182 331.298321 
L 574.965366 329.937915 
L 575.23655 331.658986 
L 575.507734 330.816862 
L 576.050102 331.058 
L 576.321286 328.903438 
L 576.592469 329.128092 
L 576.863653 328.513498 
L 577.134837 327.357365 
L 577.406021 327.752486 
L 577.677205 324.671749 
L 577.948389 324.20893 
L 578.219573 324.442723 
L 578.490756 322.43216 
L 579.033124 321.210018 
L 579.304308 319.697187 
L 579.575492 319.661376 
L 579.846676 317.124729 
L 580.11786 319.079153 
L 580.660227 314.252988 
L 580.931411 314.866245 
L 581.202595 313.98597 
L 581.744963 307.824382 
L 582.016147 298.79143 
L 582.28733 293.512896 
L 583.64325 241.334486 
L 583.914434 233.671915 
L 584.999169 193.729949 
L 585.270353 193.138024 
L 586.897456 149.04761 
L 587.16864 147.175961 
L 587.439824 143.464251 
L 588.253375 122.310802 
L 588.524559 118.578262 
L 589.066927 103.919693 
L 589.880478 103.320299 
L 590.151662 104.316591 
L 590.422846 107.859523 
L 590.69403 113.606629 
L 590.965214 113.987544 
L 591.236398 118.730846 
L 591.778765 123.424862 
L 592.049949 119.55214 
L 592.321133 126.734554 
L 592.592317 127.163322 
L 592.863501 123.143189 
L 593.405868 124.972597 
L 593.677052 131.517986 
L 594.21942 134.059682 
L 594.490604 133.059019 
L 594.761788 131.058404 
L 595.032972 132.682414 
L 595.304155 132.539233 
L 595.575339 133.890024 
L 595.846523 132.079889 
L 596.117707 128.372665 
L 596.388891 122.480381 
L 596.660075 124.028231 
L 596.931258 121.460673 
L 597.473626 110.746165 
L 597.74481 115.415691 
L 598.287178 111.836764 
L 598.829545 105.734631 
L 599.100729 105.540624 
L 599.371913 103.519751 
L 599.643097 103.142874 
L 599.914281 96.295765 
L 600.185465 93.536232 
L 600.456649 86.453175 
L 600.727832 91.752161 
L 601.2702 77.198912 
L 601.541384 71.861723 
L 601.812568 73.377563 
L 602.083752 71.278621 
L 602.354936 65.557807 
L 602.626119 66.869181 
L 602.897303 65.342627 
L 603.168487 59.153699 
L 603.439671 60.839733 
L 603.710855 56.871948 
L 604.253223 66.536154 
L 604.524406 61.325626 
L 604.79559 74.09541 
L 605.066774 79.16618 
L 605.337958 77.865414 
L 605.880326 86.641279 
L 606.422693 87.418661 
L 606.693877 84.585423 
L 606.965061 90.008694 
L 607.507429 95.450421 
L 607.778613 96.876 
L 608.049796 103.543387 
L 608.32098 99.952242 
L 608.592164 105.59679 
L 608.863348 104.883605 
L 609.134532 108.771482 
L 609.405716 106.971991 
L 609.948083 114.157132 
L 610.219267 109.827406 
L 611.032819 117.418338 
L 611.304003 122.954029 
L 611.575187 121.052903 
L 611.84637 112.515476 
L 612.117554 117.004049 
L 612.388738 108.821895 
L 612.659922 109.860305 
L 612.931106 105.205618 
L 613.473474 91.727021 
L 613.744657 91.409159 
L 614.015841 88.622788 
L 614.287025 91.46046 
L 614.558209 89.606263 
L 614.829393 90.420784 
L 615.100577 87.240875 
L 615.371761 88.666278 
L 615.642944 82.856664 
L 616.185312 87.350735 
L 616.456496 86.50671 
L 616.998864 91.836942 
L 617.270047 82.819367 
L 617.541231 78.685196 
L 617.812415 79.046714 
L 618.083599 73.708892 
L 618.354783 80.134454 
L 618.625967 77.639907 
L 618.897151 78.993742 
L 619.168334 76.371962 
L 619.439518 78.973501 
L 619.710702 76.428708 
L 619.981886 77.228143 
L 620.25307 77.441177 
L 620.524254 75.281178 
L 620.795438 81.870945 
L 621.066621 83.629313 
L 621.337805 82.435874 
L 621.608989 86.603789 
L 621.880173 87.45924 
L 622.422541 81.473203 
L 622.693725 87.83288 
L 622.964908 85.34025 
L 623.236092 93.20244 
L 623.507276 90.869907 
L 623.77846 86.086915 
L 624.049644 83.984534 
L 624.592012 70.215115 
L 625.134379 90.68051 
L 625.405563 83.566577 
L 625.676747 83.820048 
L 625.947931 75.750217 
L 626.219115 78.62304 
L 626.490299 73.914431 
L 626.761482 82.94718 
L 627.032666 83.615195 
L 627.30385 86.104024 
L 627.575034 85.307774 
L 627.846218 79.649011 
L 628.117402 78.822931 
L 628.388585 77.277949 
L 628.659769 77.104913 
L 628.930953 80.610679 
L 629.202137 78.43636 
L 629.473321 73.200735 
L 629.744505 70.843361 
L 630.015689 75.023388 
L 630.286872 74.630536 
L 630.558056 75.763385 
L 630.82924 71.830012 
L 631.100424 71.729389 
L 631.371608 78.025124 
L 631.642792 81.700698 
L 631.913976 82.146381 
L 632.185159 81.915148 
L 632.456343 74.589729 
L 632.727527 71.507418 
L 632.998711 79.226911 
L 633.269895 75.338241 
L 633.541079 77.806082 
L 633.812263 76.844493 
L 634.083446 75.161044 
L 634.35463 72.240949 
L 634.896998 91.774768 
L 635.168182 103.320528 
L 635.439366 109.091306 
L 635.71055 103.633349 
L 636.252917 76.545341 
L 636.524101 75.701985 
L 636.795285 74.176646 
L 637.066469 77.356009 
L 637.337653 71.092548 
L 637.608836 70.3329 
L 637.88002 72.5545 
L 638.151204 76.526376 
L 638.422388 73.201659 
L 638.693572 67.093201 
L 638.964756 57.247559 
L 639.23594 57.744271 
L 639.507123 59.969953 
L 640.591859 95.084003 
L 640.863043 97.846052 
L 641.40541 63.202517 
L 641.676594 71.356065 
L 641.947778 69.776961 
L 642.218962 59.083617 
L 642.490146 52.91274 
L 643.032514 27.393068 
L 643.303697 40.741689 
L 643.846065 83.160231 
L 644.117249 80.721533 
L 644.388433 71.408914 
L 644.659617 66.354691 
L 644.930801 86.003146 
L 645.201984 87.868937 
L 645.473168 80.137173 
L 645.744352 65.141249 
L 646.015536 75.617539 
L 646.28672 78.254783 
L 646.557904 82.100666 
L 646.829088 82.02616 
L 647.100271 87.508315 
L 647.371455 82.306847 
L 647.913823 60.782837 
L 648.185007 54.723403 
L 648.456191 66.957559 
L 648.998558 117.756079 
L 649.540926 81.351714 
L 649.81211 81.694576 
L 650.083294 74.892012 
L 650.354478 74.995019 
L 650.625661 84.901622 
L 650.896845 77.672191 
L 651.439213 55.826229 
L 651.710397 59.627769 
L 651.981581 74.351951 
L 652.252765 81.551835 
L 652.523948 65.325826 
L 652.795132 64.943081 
L 653.066316 69.227628 
L 653.3375 78.744757 
L 653.608684 75.396931 
L 653.879868 76.661226 
L 654.151052 76.437478 
L 654.422235 80.409811 
L 654.693419 80.099735 
L 654.964603 76.992863 
L 655.235787 82.973446 
L 655.506971 81.004411 
L 656.320522 54.363503 
L 656.591706 44.939098 
L 656.86289 58.693554 
L 657.134074 79.790845 
L 657.405258 87.103879 
L 657.676442 98.606043 
L 657.947626 100.038316 
L 658.218809 91.354427 
L 658.489993 92.86622 
L 658.761177 93.271774 
L 659.032361 87.546096 
L 659.574729 81.705624 
L 659.845912 82.483692 
L 660.117096 88.934255 
L 660.38828 90.705632 
L 660.930648 92.153457 
L 661.201832 90.612706 
L 661.473016 91.354392 
L 661.744199 94.199075 
L 662.015383 89.879386 
L 662.286567 89.461103 
L 662.557751 85.297491 
L 662.828935 86.299922 
L 663.100119 88.360696 
L 663.371303 94.263087 
L 663.642486 97.347704 
L 663.91367 97.033888 
L 664.184854 100.620442 
L 664.456038 96.948166 
L 664.727222 91.192616 
L 664.998406 89.227389 
L 665.540773 73.514885 
L 665.811957 79.767086 
L 666.083141 82.238454 
L 666.354325 81.840474 
L 666.625509 86.783897 
L 666.896693 87.887137 
L 667.167877 89.468668 
L 667.43906 86.227501 
L 667.710244 85.534565 
L 667.981428 83.642763 
L 668.252612 82.699022 
L 668.523796 86.804569 
L 668.79498 86.350924 
L 669.066164 84.688817 
L 669.337347 80.922955 
L 669.608531 85.038478 
L 669.879715 82.328645 
L 670.150899 88.231924 
L 670.422083 86.282927 
L 670.693267 86.957689 
L 670.96445 83.565547 
L 671.235634 78.403189 
L 671.506818 77.206794 
L 671.778002 72.442398 
L 672.049186 76.602237 
L 672.32037 78.245476 
L 672.591554 75.989851 
L 672.862737 75.347785 
L 673.133921 87.796981 
L 673.405105 90.074044 
L 673.676289 86.218915 
L 673.947473 91.949379 
L 674.218657 92.979906 
L 674.489841 95.605759 
L 675.032208 81.081398 
L 675.303392 82.806708 
L 675.574576 82.009904 
L 675.84576 84.622394 
L 676.116944 84.541722 
L 676.388128 83.795136 
L 676.659311 81.295566 
L 676.930495 83.595007 
L 677.201679 77.248542 
L 677.472863 81.582376 
L 677.744047 82.067178 
L 678.015231 81.387578 
L 678.286415 81.087432 
L 678.557598 85.878825 
L 678.828782 83.234201 
L 679.099966 84.081251 
L 679.37115 83.948054 
L 679.642334 88.470098 
L 679.913518 85.191282 
L 680.727069 79.025479 
L 680.998253 77.120808 
L 681.269437 85.121376 
L 681.540621 80.842282 
L 681.811805 84.824239 
L 682.082988 82.746945 
L 682.625356 97.577169 
L 682.89654 90.743062 
L 683.167724 92.004128 
L 683.710092 88.464829 
L 683.981275 83.54572 
L 684.252459 89.65102 
L 684.523643 86.98656 
L 684.794827 89.993274 
L 685.066011 89.030937 
L 685.337195 89.933995 
L 685.608379 88.271385 
L 685.879562 84.182895 
L 686.150746 82.000184 
L 686.693114 85.557524 
L 686.964298 85.781624 
L 687.235482 83.568345 
L 687.506666 88.262712 
L 687.777849 88.57366 
L 688.049033 91.024145 
L 688.591401 81.718757 
L 688.862585 80.227856 
L 689.133769 81.674819 
L 689.404953 76.67501 
L 689.94732 80.207439 
L 690.218504 74.38397 
L 690.489688 80.035415 
L 690.760872 75.706392 
L 691.303239 74.50289 
L 691.574423 83.414467 
L 691.845607 73.062305 
L 692.116791 75.069385 
L 692.387975 70.473371 
L 692.659159 69.903376 
L 692.930343 66.699954 
L 693.47271 80.784331 
L 693.743894 81.117938 
L 694.015078 77.632483 
L 694.286262 79.17312 
L 694.557446 82.197973 
L 694.82863 81.309306 
L 695.370997 67.971418 
L 695.642181 70.143617 
L 696.184549 79.591051 
L 696.455733 78.521449 
L 696.9981 77.556279 
L 697.269284 74.78568 
L 697.540468 70.826014 
L 697.811652 74.325465 
L 698.35402 66.977985 
L 698.625204 68.802924 
L 698.896387 68.614811 
L 699.167571 66.306847 
L 699.438755 75.208546 
L 699.709939 79.612285 
L 699.981123 85.992537 
L 700.252307 85.312621 
L 700.523491 83.054708 
L 700.794674 74.634257 
L 701.065858 70.136105 
L 701.337042 69.203271 
L 701.608226 80.264792 
L 701.87941 77.34182 
L 702.150594 83.499116 
L 702.421777 78.332957 
L 702.692961 77.607105 
L 702.964145 80.326711 
L 703.235329 78.799102 
L 703.506513 78.933917 
L 703.777697 80.122342 
L 704.048881 78.444409 
L 704.320064 80.502394 
L 704.591248 77.600297 
L 704.862432 80.008207 
L 705.133616 79.451503 
L 705.4048 84.195245 
L 705.675984 85.355011 
L 705.947168 87.610601 
L 706.218351 77.912696 
L 706.489535 79.324235 
L 706.760719 84.249563 
L 707.031903 82.317605 
L 707.303087 77.900064 
L 707.845455 74.279415 
L 708.116638 75.795615 
L 708.387822 76.383873 
L 708.659006 76.394103 
L 708.93019 76.701567 
L 709.201374 75.853628 
L 709.743742 68.388117 
L 710.014925 68.292261 
L 710.286109 78.125202 
L 710.557293 80.014048 
L 710.828477 79.095825 
L 711.370845 72.981984 
L 711.642028 75.529715 
L 711.913212 70.787573 
L 712.184396 78.009097 
L 712.45558 77.705142 
L 712.726764 82.498233 
L 712.997948 75.021154 
L 713.269132 77.051325 
L 713.540315 74.925307 
L 713.811499 78.812287 
L 714.082683 78.65293 
L 714.353867 71.114803 
L 714.625051 72.348865 
L 714.896235 74.190957 
L 715.167419 71.68019 
L 715.438602 77.006216 
L 715.709786 76.248829 
L 715.98097 80.896196 
L 716.794522 63.28692 
L 717.065706 68.35951 
L 717.336889 64.406583 
L 717.608073 64.850023 
L 717.879257 67.31935 
L 718.150441 76.047195 
L 718.421625 69.068368 
L 718.692809 66.599049 
L 718.963993 57.331486 
L 719.235176 53.076856 
L 719.50636 53.01192 
L 719.777544 49.111868 
L 720.048728 48.118769 
L 720.319912 49.134466 
L 721.133463 71.945809 
L 721.404647 74.803238 
L 721.947015 58.729382 
L 722.218199 58.852727 
L 722.489383 56.653619 
L 723.03175 47.148647 
L 723.302934 55.08025 
L 723.574118 54.607869 
L 723.845302 62.499264 
L 724.116486 62.998465 
L 724.38767 64.59459 
L 724.658853 62.562062 
L 724.930037 55.410717 
L 725.201221 53.990144 
L 725.743589 39.291023 
L 726.285957 45.168062 
L 726.55714 59.859266 
L 726.828324 61.441176 
L 727.099508 70.301743 
L 727.370692 64.351886 
L 727.91306 59.738526 
L 728.184244 59.427156 
L 728.726611 51.813881 
L 728.997795 51.899039 
L 729.540163 46.62851 
L 730.082531 53.003871 
L 730.353714 66.516327 
L 730.624898 65.343524 
L 730.896082 60.498913 
L 731.167266 49.600065 
L 731.709634 41.484043 
L 731.980818 43.79579 
L 732.252001 41.388927 
L 732.523185 46.685177 
L 733.336737 55.263429 
L 733.879104 57.403441 
L 734.150288 47.983989 
L 734.692656 54.879778 
L 734.96384 68.070079 
L 735.235024 55.084578 
L 735.506208 51.789576 
L 735.777391 43.842772 
L 736.048575 42.500849 
L 736.319759 46.805505 
L 736.590943 53.555931 
L 736.862127 52.674231 
L 737.133311 56.358232 
L 737.404495 50.372679 
L 737.675678 51.790728 
L 737.946862 44.784675 
L 738.218046 43.896765 
L 738.760414 49.356983 
L 739.031598 49.457509 
L 739.302782 56.996603 
L 739.573965 58.220619 
L 739.845149 58.808515 
L 740.116333 63.300035 
L 740.387517 73.276429 
L 740.658701 53.715165 
L 740.929885 43.542592 
L 741.201069 48.075895 
L 741.472252 49.701216 
L 741.743436 57.352255 
L 742.285804 44.539508 
L 742.556988 42.332114 
L 742.828172 60.415575 
L 743.370539 51.462337 
L 743.912907 41.606895 
L 744.184091 32.528985 
L 744.455275 37.966956 
L 744.726459 48.944884 
L 744.997642 49.507649 
L 745.811194 36.759143 
L 746.082378 38.933577 
L 746.353562 52.299386 
L 746.624746 59.572465 
L 747.167113 38.466052 
L 747.438297 40.323178 
L 747.709481 38.772205 
L 747.980665 26.613602 
L 748.251849 43.281195 
L 748.523033 52.825082 
L 749.336584 40.104752 
L 749.607768 47.521821 
L 749.878952 46.477395 
L 750.42132 37.653369 
L 750.692503 44.842275 
L 751.234871 49.4939 
L 751.506055 49.899243 
L 751.777239 50.091411 
L 752.048423 49.567632 
L 752.319607 46.420904 
L 752.59079 50.952008 
L 753.133158 67.91212 
L 753.404342 67.339424 
L 753.675526 50.669157 
L 754.217893 35.670884 
L 754.760261 58.106256 
L 755.031445 58.392441 
L 755.302629 54.459156 
L 755.573813 61.400123 
L 756.11618 56.084608 
L 756.658548 57.435408 
L 756.929732 61.842059 
L 757.4721 55.948632 
L 757.743284 46.726591 
L 758.014467 50.978292 
L 758.556835 64.209893 
L 759.099203 52.315651 
L 759.370387 52.12657 
L 759.641571 58.340163 
L 759.912754 61.028867 
L 760.183938 60.626673 
L 760.455122 53.422101 
L 760.726306 57.294769 
L 760.99749 64.352651 
L 761.268674 67.589825 
L 761.539858 62.833214 
L 761.811041 63.690072 
L 762.082225 64.118075 
L 762.353409 63.555143 
L 762.624593 63.388871 
L 763.166961 60.436176 
L 763.438145 63.162704 
L 763.709328 62.964203 
L 763.980512 71.384698 
L 764.251696 59.309054 
L 764.794064 53.804186 
L 765.065248 58.549661 
L 765.336431 60.864592 
L 765.607615 60.945766 
L 766.149983 47.836393 
L 766.421167 58.077896 
L 766.963535 66.75027 
L 767.234718 68.995981 
L 767.505902 65.891643 
L 767.777086 56.683465 
L 768.04827 57.044711 
L 768.319454 54.37346 
L 768.590638 48.577612 
L 769.133005 64.652823 
L 769.404189 68.497871 
L 769.675373 69.154169 
L 769.946557 67.295987 
L 770.217741 61.335785 
L 770.488925 67.698717 
L 770.760109 64.294031 
L 771.031292 62.828121 
L 771.302476 65.030079 
L 771.57366 59.61146 
L 771.844844 67.783903 
L 772.116028 69.476033 
L 772.387212 65.440163 
L 772.658396 56.070006 
L 772.929579 62.309215 
L 773.200763 61.556516 
L 773.471947 63.427013 
L 774.014315 65.357009 
L 774.556682 60.281234 
L 774.827866 54.010253 
L 775.09905 53.451209 
L 775.370234 61.253283 
L 775.641418 61.103144 
L 775.912602 56.436644 
L 776.183786 58.599933 
L 776.454969 56.171333 
L 777.268521 45.148499 
L 777.810889 56.077457 
L 778.082073 53.135722 
L 778.353256 51.7215 
L 778.62444 52.758255 
L 778.895624 53.296645 
L 779.166808 50.423233 
L 779.437992 51.526209 
L 779.709176 55.112832 
L 779.98036 60.703203 
L 780.251543 62.046842 
L 780.522727 65.309605 
L 780.793911 61.333534 
L 781.065095 59.960479 
L 781.336279 60.123663 
L 781.607463 61.923647 
L 781.878647 62.142178 
L 782.14983 61.913029 
L 782.421014 65.814251 
L 782.692198 61.933253 
L 782.963382 55.433905 
L 783.234566 54.601791 
L 783.50575 61.17802 
L 783.776934 58.856465 
L 784.048117 54.859229 
L 784.319301 54.290483 
L 784.590485 55.553097 
L 785.132853 51.913105 
L 785.404037 52.384501 
L 785.67522 50.403678 
L 785.946404 50.720115 
L 786.217588 52.651255 
L 786.488772 47.268491 
L 786.759956 49.602317 
L 787.03114 55.726802 
L 787.302324 53.023813 
L 787.573507 53.463321 
L 787.844691 57.779597 
L 788.387059 49.271956 
L 788.658243 48.463724 
L 788.929427 49.586659 
L 789.200611 48.435443 
L 789.471794 48.770757 
L 790.014162 52.174942 
L 790.55653 65.882407 
L 790.827714 66.32078 
L 791.098898 63.530442 
L 791.912449 74.597268 
L 792.183633 73.81035 
L 792.454817 77.77123 
L 792.726001 72.68789 
L 792.997185 79.123983 
L 793.268368 80.403619 
L 793.539552 83.222308 
L 793.810736 76.547461 
L 794.08192 76.241316 
L 794.353104 74.184325 
L 794.624288 73.859285 
L 794.895472 71.759015 
L 795.166655 73.845149 
L 795.437839 72.733887 
L 795.709023 76.307343 
L 795.980207 83.063162 
L 796.251391 79.537867 
L 796.522575 74.212157 
L 797.064942 76.453215 
L 797.336126 70.291556 
L 797.60731 72.552618 
L 797.878494 75.750428 
L 798.149678 71.669423 
L 798.963229 55.285983 
L 799.505597 57.128832 
L 799.776781 56.927278 
L 800.047965 57.051194 
L 800.319149 58.28661 
L 800.590332 50.267966 
L 800.861516 53.003871 
L 801.1327 48.444618 
L 801.403884 56.55918 
L 801.675068 53.478346 
L 801.946252 56.083421 
L 802.488619 49.195954 
L 802.759803 47.566622 
L 803.030987 52.702433 
L 803.573355 45.176947 
L 803.844539 52.013007 
L 804.115723 63.1126 
L 804.386906 61.55517 
L 804.65809 58.498579 
L 804.929274 62.955186 
L 805.200458 60.209464 
L 805.471642 51.075036 
L 805.742826 52.860814 
L 806.827561 69.420122 
L 807.098745 61.418297 
L 807.369929 68.600068 
L 807.641113 67.822405 
L 807.912296 71.333792 
L 808.454664 63.881968 
L 808.725848 64.565527 
L 808.997032 63.306993 
L 809.268216 62.670408 
L 809.5394 57.012129 
L 809.810583 55.22468 
L 810.081767 63.866372 
L 810.352951 67.534293 
L 810.624135 59.050498 
L 810.895319 59.273947 
L 811.166503 70.527479 
L 811.437687 70.87648 
L 811.980054 66.14142 
L 812.793606 46.193576 
L 813.335974 58.322562 
L 813.607157 55.637869 
L 813.878341 58.349197 
L 814.149525 51.595393 
L 814.420709 51.173082 
L 814.691893 53.067074 
L 814.963077 48.526162 
L 815.234261 50.387739 
L 815.505444 53.243541 
L 815.776628 63.60596 
L 816.047812 65.230349 
L 816.318996 62.351808 
L 816.59018 49.758094 
L 816.861364 62.99214 
L 816.861364 62.99214 
" clip-path="url(#p1e3ec2240b)" style="fill: none; stroke: #cc241d; stroke-width: 1.5; stroke-linecap: square"/>
   </g>
   <g id="patch_3">
    <path d="M 53.75 371.304 
L 53.75 10.8 
" style="fill: none; stroke: #333333; stroke-width: 0.8; stroke-linejoin: miter; stroke-linecap: square"/>
   </g>
   <g id="patch_4">
    <path d="M 853.2 371.304 
L 853.2 10.8 
" style="fill: none; stroke: #333333; stroke-width: 0.8; stroke-linejoin: miter; stroke-linecap: square"/>
   </g>
   <g id="patch_5">
    <path d="M 53.75 371.304 
L 853.2 371.304 
" style="fill: none; stroke: #333333; stroke-width: 0.8; stroke-linejoin: miter; stroke-linecap: square"/>
   </g>
   <g id="patch_6">
    <path d="M 53.75 10.8 
L 853.2 10.8 
" style="fill: none; stroke: #333333; stroke-width: 0.8; stroke-linejoin: miter; stroke-linecap: square"/>
   </g>
   <g id="text_20">
    <!-- Quelle: IMF PortWatch / HDX -->
    <g style="fill: #a9a9a9" transform="translate(739.70125 423.71585) scale(0.08 -0.08)">
     <defs>
      <path id="DejaVuSans-51" d="M 2522 4238 
Q 1834 4238 1429 3725 
Q 1025 3213 1025 2328 
Q 1025 1447 1429 934 
Q 1834 422 2522 422 
Q 3209 422 3611 934 
Q 4013 1447 4013 2328 
Q 4013 3213 3611 3725 
Q 3209 4238 2522 4238 
z
M 3406 84 
L 4238 -825 
L 3475 -825 
L 2784 -78 
Q 2681 -84 2626 -87 
Q 2572 -91 2522 -91 
Q 1538 -91 948 567 
Q 359 1225 359 2328 
Q 359 3434 948 4092 
Q 1538 4750 2522 4750 
Q 3503 4750 4090 4092 
Q 4678 3434 4678 2328 
Q 4678 1516 4351 937 
Q 4025 359 3406 84 
z
" transform="scale(0.015625)"/>
      <path id="DejaVuSans-6c" d="M 603 4863 
L 1178 4863 
L 1178 0 
L 603 0 
L 603 4863 
z
" transform="scale(0.015625)"/>
      <path id="DejaVuSans-3a" d="M 750 794 
L 1409 794 
L 1409 0 
L 750 0 
L 750 794 
z
M 750 3309 
L 1409 3309 
L 1409 2516 
L 750 2516 
L 750 3309 
z
" transform="scale(0.015625)"/>
      <path id="DejaVuSans-4d" d="M 628 4666 
L 1569 4666 
L 2759 1491 
L 3956 4666 
L 4897 4666 
L 4897 0 
L 4281 0 
L 4281 4097 
L 3078 897 
L 2444 897 
L 1241 4097 
L 1241 0 
L 628 0 
L 628 4666 
z
" transform="scale(0.015625)"/>
      <path id="DejaVuSans-46" d="M 628 4666 
L 3309 4666 
L 3309 4134 
L 1259 4134 
L 1259 2759 
L 3109 2759 
L 3109 2228 
L 1259 2228 
L 1259 0 
L 628 0 
L 628 4666 
z
" transform="scale(0.015625)"/>
      <path id="DejaVuSans-50" d="M 1259 4147 
L 1259 2394 
L 2053 2394 
Q 2494 2394 2734 2622 
Q 2975 2850 2975 3272 
Q 2975 3691 2734 3919 
Q 2494 4147 2053 4147 
L 1259 4147 
z
M 628 4666 
L 2053 4666 
Q 2838 4666 3239 4311 
Q 3641 3956 3641 3272 
Q 3641 2581 3239 2228 
Q 2838 1875 2053 1875 
L 1259 1875 
L 1259 0 
L 628 0 
L 628 4666 
z
" transform="scale(0.015625)"/>
      <path id="DejaVuSans-6f" d="M 1959 3097 
Q 1497 3097 1228 2736 
Q 959 2375 959 1747 
Q 959 1119 1226 758 
Q 1494 397 1959 397 
Q 2419 397 2687 759 
Q 2956 1122 2956 1747 
Q 2956 2369 2687 2733 
Q 2419 3097 1959 3097 
z
M 1959 3584 
Q 2709 3584 3137 3096 
Q 3566 2609 3566 1747 
Q 3566 888 3137 398 
Q 2709 -91 1959 -91 
Q 1206 -91 779 398 
Q 353 888 353 1747 
Q 353 2609 779 3096 
Q 1206 3584 1959 3584 
z
" transform="scale(0.015625)"/>
      <path id="DejaVuSans-57" d="M 213 4666 
L 850 4666 
L 1831 722 
L 2809 4666 
L 3519 4666 
L 4500 722 
L 5478 4666 
L 6119 4666 
L 4947 0 
L 4153 0 
L 3169 4050 
L 2175 0 
L 1381 0 
L 213 4666 
z
" transform="scale(0.015625)"/>
      <path id="DejaVuSans-2f" d="M 1625 4666 
L 2156 4666 
L 531 -594 
L 0 -594 
L 1625 4666 
z
" transform="scale(0.015625)"/>
      <path id="DejaVuSans-48" d="M 628 4666 
L 1259 4666 
L 1259 2753 
L 3553 2753 
L 3553 4666 
L 4184 4666 
L 4184 0 
L 3553 0 
L 3553 2222 
L 1259 2222 
L 1259 0 
L 628 0 
L 628 4666 
z
" transform="scale(0.015625)"/>
      <path id="DejaVuSans-58" d="M 403 4666 
L 1081 4666 
L 2241 2931 
L 3406 4666 
L 4084 4666 
L 2584 2425 
L 4184 0 
L 3506 0 
L 2194 1984 
L 872 0 
L 191 0 
L 1856 2491 
L 403 4666 
z
" transform="scale(0.015625)"/>
     </defs>
     <use xlink:href="#DejaVuSans-51"/>
     <use xlink:href="#DejaVuSans-75" x="78.710938"/>
     <use xlink:href="#DejaVuSans-65" x="142.089844"/>
     <use xlink:href="#DejaVuSans-6c" x="203.613281"/>
     <use xlink:href="#DejaVuSans-6c" x="231.396484"/>
     <use xlink:href="#DejaVuSans-65" x="259.179688"/>
     <use xlink:href="#DejaVuSans-3a" x="320.703125"/>
     <use xlink:href="#DejaVuSans-20" x="354.394531"/>
     <use xlink:href="#DejaVuSans-49" x="386.181641"/>
     <use xlink:href="#DejaVuSans-4d" x="415.673828"/>
     <use xlink:href="#DejaVuSans-46" x="501.953125"/>
     <use xlink:href="#DejaVuSans-20" x="559.472656"/>
     <use xlink:href="#DejaVuSans-50" x="591.259766"/>
     <use xlink:href="#DejaVuSans-6f" x="647.9375"/>
     <use xlink:href="#DejaVuSans-72" x="709.119141"/>
     <use xlink:href="#DejaVuSans-74" x="750.232422"/>
     <use xlink:href="#DejaVuSans-57" x="789.441406"/>
     <use xlink:href="#DejaVuSans-61" x="881.943359"/>
     <use xlink:href="#DejaVuSans-74" x="943.222656"/>
     <use xlink:href="#DejaVuSans-63" x="982.431641"/>
     <use xlink:href="#DejaVuSans-68" x="1037.412109"/>
     <use xlink:href="#DejaVuSans-20" x="1100.791016"/>
     <use xlink:href="#DejaVuSans-2f" x="1132.578125"/>
     <use xlink:href="#DejaVuSans-20" x="1166.269531"/>
     <use xlink:href="#DejaVuSans-48" x="1198.056641"/>
     <use xlink:href="#DejaVuSans-44" x="1273.251953"/>
     <use xlink:href="#DejaVuSans-58" x="1350.253906"/>
    </g>
   </g>
   <g id="legend_1">
    <g id="patch_7">
     <path d="M 60.75 33.478125 
L 326.526563 33.478125 
Q 328.526563 33.478125 328.526563 31.478125 
L 328.526563 17.8 
Q 328.526563 15.8 326.526563 15.8 
L 60.75 15.8 
Q 58.75 15.8 58.75 17.8 
L 58.75 31.478125 
Q 58.75 33.478125 60.75 33.478125 
z
" style="opacity: 0.7; stroke: #cccccc; stroke-linejoin: miter"/>
    </g>
    <g id="line2d_36">
     <path d="M 62.75 23.898438 
L 72.75 23.898438 
L 82.75 23.898438 
" style="fill: none; stroke: #cc241d; stroke-width: 1.5; stroke-linecap: square"/>
    </g>
    <g id="text_21">
     <!-- Kap der Guten Hoffnung, 28-Tage-Durchschnitt -->
     <g style="fill: #e6e6e6" transform="translate(90.75 27.398438) scale(0.1 -0.1)">
      <defs>
       <path id="DejaVuSans-4b" d="M 628 4666 
L 1259 4666 
L 1259 2694 
L 3353 4666 
L 4166 4666 
L 1850 2491 
L 4331 0 
L 3500 0 
L 1259 2247 
L 1259 0 
L 628 0 
L 628 4666 
z
" transform="scale(0.015625)"/>
       <path id="DejaVuSans-70" d="M 1159 525 
L 1159 -1331 
L 581 -1331 
L 581 3500 
L 1159 3500 
L 1159 2969 
Q 1341 3281 1617 3432 
Q 1894 3584 2278 3584 
Q 2916 3584 3314 3078 
Q 3713 2572 3713 1747 
Q 3713 922 3314 415 
Q 2916 -91 2278 -91 
Q 1894 -91 1617 61 
Q 1341 213 1159 525 
z
M 3116 1747 
Q 3116 2381 2855 2742 
Q 2594 3103 2138 3103 
Q 1681 3103 1420 2742 
Q 1159 2381 1159 1747 
Q 1159 1113 1420 752 
Q 1681 391 2138 391 
Q 2594 391 2855 752 
Q 3116 1113 3116 1747 
z
" transform="scale(0.015625)"/>
       <path id="DejaVuSans-47" d="M 3809 666 
L 3809 1919 
L 2778 1919 
L 2778 2438 
L 4434 2438 
L 4434 434 
Q 4069 175 3628 42 
Q 3188 -91 2688 -91 
Q 1594 -91 976 548 
Q 359 1188 359 2328 
Q 359 3472 976 4111 
Q 1594 4750 2688 4750 
Q 3144 4750 3555 4637 
Q 3966 4525 4313 4306 
L 4313 3634 
Q 3963 3931 3569 4081 
Q 3175 4231 2741 4231 
Q 1884 4231 1454 3753 
Q 1025 3275 1025 2328 
Q 1025 1384 1454 906 
Q 1884 428 2741 428 
Q 3075 428 3337 486 
Q 3600 544 3809 666 
z
" transform="scale(0.015625)"/>
       <path id="DejaVuSans-66" d="M 2375 4863 
L 2375 4384 
L 1825 4384 
Q 1516 4384 1395 4259 
Q 1275 4134 1275 3809 
L 1275 3500 
L 2222 3500 
L 2222 3053 
L 1275 3053 
L 1275 0 
L 697 0 
L 697 3053 
L 147 3053 
L 147 3500 
L 697 3500 
L 697 3744 
Q 697 4328 969 4595 
Q 1241 4863 1831 4863 
L 2375 4863 
z
" transform="scale(0.015625)"/>
       <path id="DejaVuSans-67" d="M 2906 1791 
Q 2906 2416 2648 2759 
Q 2391 3103 1925 3103 
Q 1463 3103 1205 2759 
Q 947 2416 947 1791 
Q 947 1169 1205 825 
Q 1463 481 1925 481 
Q 2391 481 2648 825 
Q 2906 1169 2906 1791 
z
M 3481 434 
Q 3481 -459 3084 -895 
Q 2688 -1331 1869 -1331 
Q 1566 -1331 1297 -1286 
Q 1028 -1241 775 -1147 
L 775 -588 
Q 1028 -725 1275 -790 
Q 1522 -856 1778 -856 
Q 2344 -856 2625 -561 
Q 2906 -266 2906 331 
L 2906 616 
Q 2728 306 2450 153 
Q 2172 0 1784 0 
Q 1141 0 747 490 
Q 353 981 353 1791 
Q 353 2603 747 3093 
Q 1141 3584 1784 3584 
Q 2172 3584 2450 3431 
Q 2728 3278 2906 2969 
L 2906 3500 
L 3481 3500 
L 3481 434 
z
" transform="scale(0.015625)"/>
       <path id="DejaVuSans-2d" d="M 313 2009 
L 1997 2009 
L 1997 1497 
L 313 1497 
L 313 2009 
z
" transform="scale(0.015625)"/>
       <path id="DejaVuSans-54" d="M -19 4666 
L 3928 4666 
L 3928 4134 
L 2272 4134 
L 2272 0 
L 1638 0 
L 1638 4134 
L -19 4134 
L -19 4666 
z
" transform="scale(0.015625)"/>
      </defs>
      <use xlink:href="#DejaVuSans-4b"/>
      <use xlink:href="#DejaVuSans-61" x="63.826172"/>
      <use xlink:href="#DejaVuSans-70" x="125.105469"/>
      <use xlink:href="#DejaVuSans-20" x="188.582031"/>
      <use xlink:href="#DejaVuSans-64" x="220.369141"/>
      <use xlink:href="#DejaVuSans-65" x="283.845703"/>
      <use xlink:href="#DejaVuSans-72" x="345.369141"/>
      <use xlink:href="#DejaVuSans-20" x="386.482422"/>
      <use xlink:href="#DejaVuSans-47" x="418.269531"/>
      <use xlink:href="#DejaVuSans-75" x="495.759766"/>
      <use xlink:href="#DejaVuSans-74" x="559.138672"/>
      <use xlink:href="#DejaVuSans-65" x="598.347656"/>
      <use xlink:href="#DejaVuSans-6e" x="659.871094"/>
      <use xlink:href="#DejaVuSans-20" x="723.25"/>
      <use xlink:href="#DejaVuSans-48" x="755.037109"/>
      <use xlink:href="#DejaVuSans-6f" x="830.232422"/>
      <use xlink:href="#DejaVuSans-66" x="891.414062"/>
      <use xlink:href="#DejaVuSans-66" x="926.619141"/>
      <use xlink:href="#DejaVuSans-6e" x="961.824219"/>
      <use xlink:href="#DejaVuSans-75" x="1025.203125"/>
      <use xlink:href="#DejaVuSans-6e" x="1088.582031"/>
      <use xlink:href="#DejaVuSans-67" x="1151.960938"/>
      <use xlink:href="#DejaVuSans-2c" x="1215.4375"/>
      <use xlink:href="#DejaVuSans-20" x="1247.224609"/>
      <use xlink:href="#DejaVuSans-32" x="1279.011719"/>
      <use xlink:href="#DejaVuSans-38" x="1342.634766"/>
      <use xlink:href="#DejaVuSans-2d" x="1406.257812"/>
      <use xlink:href="#DejaVuSans-54" x="1433.216797"/>
      <use xlink:href="#DejaVuSans-61" x="1477.800781"/>
      <use xlink:href="#DejaVuSans-67" x="1539.080078"/>
      <use xlink:href="#DejaVuSans-65" x="1602.556641"/>
      <use xlink:href="#DejaVuSans-2d" x="1664.080078"/>
      <use xlink:href="#DejaVuSans-44" x="1700.164062"/>
      <use xlink:href="#DejaVuSans-75" x="1777.166016"/>
      <use xlink:href="#DejaVuSans-72" x="1840.544922"/>
      <use xlink:href="#DejaVuSans-63" x="1879.408203"/>
      <use xlink:href="#DejaVuSans-68" x="1934.388672"/>
      <use xlink:href="#DejaVuSans-73" x="1997.767578"/>
      <use xlink:href="#DejaVuSans-63" x="2049.867188"/>
      <use xlink:href="#DejaVuSans-68" x="2104.847656"/>
      <use xlink:href="#DejaVuSans-6e" x="2168.226562"/>
      <use xlink:href="#DejaVuSans-69" x="2231.605469"/>
      <use xlink:href="#DejaVuSans-74" x="2259.388672"/>
      <use xlink:href="#DejaVuSans-74" x="2298.597656"/>
     </g>
    </g>
   </g>
  </g>
 </g>
 <defs>
  <clipPath id="p1e3ec2240b">
   <rect x="53.75" y="10.8" width="799.45" height="360.504"/>
  </clipPath>
 </defs>
</svg>
