<svg xmlns="http://www.w3.org/2000/svg" version="1.1" style="font-family:Lato, &#x27;Helvetica Neue&#x27;, Helvetica, Arial, &#x27;Liberation Sans&#x27;, sans-serif;font-size:18px;background-color:white;text-rendering:geometricPrecision;-webkit-font-smoothing:antialiased" width="850" height="706.25" viewBox="0 0 850 706.25"><defs><style>@import url(https://ourworldindata.org/fonts.css)</style></defs><defs><pattern id="noDataPattern" patternUnits="userSpaceOnUse" width="4" height="4" patternTransform="rotate(-45 2 2)"><path d="M -1,2 l 6,0" stroke="#ccc" stroke-width="0.7"></path></pattern></defs><rect class="background-fill" fill="white" width="850" height="706.25"></rect><g class="HeaderView"><g transform="translate(769, 16) scale(1)"><svg className="owidLogo" xmlns="http://www.w3.org/2000/svg" width="65" height="36" viewBox="0 0 65 36"  fill="none"><path fill="#002147" d="M0 0h64.8v36H0z"/><path fill="#CE261E" d="M0 33.3h64.8V36H0z"/><path fill="#fff" d="M13.796 10.575c0 .636-.106 1.226-.318 1.77a4.193 4.193 0 0 1-.894 1.404 4.084 4.084 0 0 1-1.386.93c-.54.22-1.138.33-1.794.33-.656 0-1.256-.11-1.8-.33a4.149 4.149 0 0 1-1.392-.93 4.193 4.193 0 0 1-.894-1.404A4.833 4.833 0 0 1 5 10.575c0-.636.106-1.224.318-1.764a4.18 4.18 0 0 1 .894-1.41 4.076 4.076 0 0 1 1.392-.924 4.684 4.684 0 0 1 1.8-.336c.656 0 1.254.112 1.794.336.54.224 1.002.534 1.386.93.384.392.682.86.894 1.404.212.54.318 1.128.318 1.764Zm-1.656 0c0-.476-.064-.902-.192-1.278a2.671 2.671 0 0 0-.54-.966 2.332 2.332 0 0 0-.864-.606 2.94 2.94 0 0 0-1.14-.21c-.424 0-.806.07-1.146.21-.34.14-.63.342-.87.606a2.742 2.742 0 0 0-.546.966 3.955 3.955 0 0 0-.192 1.278c0 .476.064.904.192 1.284.128.376.31.696.546.96.24.26.53.46.87.6.34.14.722.21 1.146.21.424 0 .804-.07 1.14-.21.34-.14.628-.34.864-.6.236-.264.416-.584.54-.96a4.01 4.01 0 0 0 .192-1.284ZM16.104 8.757v3.912c0 .376.086.668.258.876.176.204.438.306.786.306.256 0 .496-.056.72-.168a2.58 2.58 0 0 0 .636-.474V8.757h1.482v6.156h-.906c-.192 0-.318-.09-.378-.27l-.102-.492a4.65 4.65 0 0 1-.396.354 2.577 2.577 0 0 1-.438.27 2.35 2.35 0 0 1-.498.168 2.345 2.345 0 0 1-.57.066c-.336 0-.634-.056-.894-.168a1.821 1.821 0 0 1-.648-.486 2.157 2.157 0 0 1-.402-.738 3.233 3.233 0 0 1-.132-.948V8.757h1.482ZM21.328 14.913V8.757h.87c.152 0 .258.028.318.084.06.056.1.152.12.288l.09.744c.22-.38.478-.68.774-.9.296-.22.628-.33.996-.33.304 0 .556.07.756.21l-.192 1.11c-.012.072-.038.124-.078.156a.278.278 0 0 1-.162.042 1.01 1.01 0 0 1-.246-.042 1.646 1.646 0 0 0-.414-.042c-.308 0-.572.086-.792.258-.22.168-.406.416-.558.744v3.834h-1.482ZM27.347 6.237h1.356a.57.57 0 0 1 .348.102c.096.064.16.152.192.264l1.476 5.19c.036.128.068.268.096.42.032.148.062.306.09.474a5.968 5.968 0 0 1 .228-.894l1.704-5.19a.575.575 0 0 1 .186-.252.543.543 0 0 1 .348-.114h.474a.57.57 0 0 1 .348.102.497.497 0 0 1 .192.264l1.692 5.19c.088.256.164.54.228.852.028-.156.056-.306.084-.45.032-.144.064-.278.096-.402l1.476-5.19c.028-.1.09-.186.186-.258a.563.563 0 0 1 .348-.108h1.266l-2.694 8.676h-1.458l-1.896-5.928-.078-.246a9.504 9.504 0 0 1-.072-.282c-.024.1-.05.194-.078.282-.024.088-.048.17-.072.246l-1.914 5.928H30.04l-2.694-8.676ZM42.771 8.661c.46 0 .876.074 1.248.222.376.148.696.358.96.63s.468.604.612.996c.144.392.216.83.216 1.314 0 .488-.072.928-.216 1.32a2.85 2.85 0 0 1-.612 1.002 2.653 2.653 0 0 1-.96.636 3.35 3.35 0 0 1-1.248.222c-.46 0-.878-.074-1.254-.222a2.712 2.712 0 0 1-.966-.636 2.922 2.922 0 0 1-.618-1.002 3.807 3.807 0 0 1-.216-1.32c0-.484.072-.922.216-1.314.148-.392.354-.724.618-.996.268-.272.59-.482.966-.63a3.397 3.397 0 0 1 1.254-.222Zm0 5.202c.512 0 .89-.172 1.134-.516.248-.344.372-.848.372-1.512s-.124-1.17-.372-1.518c-.244-.348-.622-.522-1.134-.522-.52 0-.904.176-1.152.528-.248.348-.372.852-.372 1.512s.124 1.164.372 1.512c.248.344.632.516 1.152.516ZM46.723 14.913V8.757h.87c.152 0 .258.028.318.084.06.056.1.152.12.288l.09.744c.22-.38.478-.68.774-.9.296-.22.628-.33.996-.33.304 0 .556.07.756.21l-.192 1.11c-.012.072-.038.124-.078.156a.278.278 0 0 1-.162.042 1.01 1.01 0 0 1-.246-.042 1.646 1.646 0 0 0-.414-.042c-.308 0-.572.086-.792.258-.22.168-.406.416-.558.744v3.834h-1.482ZM52.96 5.997v8.916h-1.482V5.997h1.482ZM58.732 14.913c-.192 0-.318-.09-.378-.27l-.12-.594a3.68 3.68 0 0 1-.402.39c-.14.116-.292.216-.456.3-.16.084-.334.148-.522.192a2.372 2.372 0 0 1-.6.072c-.336 0-.644-.07-.924-.21a2.098 2.098 0 0 1-.726-.606 3.033 3.033 0 0 1-.468-.99 5.072 5.072 0 0 1-.162-1.344c0-.456.062-.88.186-1.272s.302-.732.534-1.02c.232-.288.51-.512.834-.672a2.384 2.384 0 0 1 1.092-.246 2.103 2.103 0 0 1 1.536.606V5.997h1.482v8.916h-.906Zm-1.974-1.086c.308 0 .57-.064.786-.192.216-.128.42-.31.612-.546v-2.76a1.452 1.452 0 0 0-.552-.432 1.597 1.597 0 0 0-.636-.126c-.224 0-.428.042-.612.126a1.21 1.21 0 0 0-.462.384c-.124.168-.22.384-.288.648-.068.26-.102.568-.102.924 0 .36.028.666.084.918.06.248.144.452.252.612.108.156.24.27.396.342.156.068.33.102.522.102ZM16.331 20.757v6.156H14.85v-6.156h1.481Zm.223-1.794a.844.844 0 0 1-.078.36.963.963 0 0 1-.21.294.995.995 0 0 1-.3.204.963.963 0 0 1-.372.072.948.948 0 0 1-.367-.072 1.018 1.018 0 0 1-.498-.498.963.963 0 0 1 0-.732.995.995 0 0 1 .205-.3.929.929 0 0 1 .293-.198.899.899 0 0 1 .738 0 .912.912 0 0 1 .3.198.943.943 0 0 1 .288.672ZM17.771 26.913v-6.156h.906c.192 0 .318.09.378.27l.102.486a2.934 2.934 0 0 1 .828-.618c.156-.076.322-.134.498-.174.176-.04.368-.06.576-.06.336 0 .634.058.894.174.26.112.476.272.648.48.176.204.308.45.396.738.092.284.138.598.138.942v3.918h-1.482v-3.918c0-.376-.088-.666-.264-.87-.172-.208-.432-.312-.78-.312-.256 0-.496.058-.72.174a2.58 2.58 0 0 0-.636.474v4.452h-1.482ZM34.22 22.575c0 .636-.106 1.22-.318 1.752-.212.532-.51.99-.894 1.374a4 4 0 0 1-1.386.894 4.87 4.87 0 0 1-1.794.318h-3.312v-8.676h3.312a4.79 4.79 0 0 1 1.794.324 4 4 0 0 1 1.386.894c.384.38.682.836.894 1.368.212.532.318 1.116.318 1.752Zm-1.65 0c0-.476-.064-.902-.192-1.278a2.68 2.68 0 0 0-.546-.96 2.332 2.332 0 0 0-.864-.606 2.94 2.94 0 0 0-1.14-.21h-1.686v6.108h1.686c.424 0 .804-.07 1.14-.21.34-.14.628-.34.864-.6a2.75 2.75 0 0 0 .546-.96 4.01 4.01 0 0 0 .192-1.284ZM39.98 26.913h-.665c-.14 0-.25-.02-.33-.06-.08-.044-.14-.13-.18-.258l-.132-.438c-.156.14-.31.264-.462.372a2.804 2.804 0 0 1-.462.264c-.16.072-.33.126-.51.162-.18.036-.38.054-.6.054-.26 0-.5-.034-.72-.102a1.618 1.618 0 0 1-.57-.318 1.448 1.448 0 0 1-.366-.522 1.852 1.852 0 0 1-.132-.726c0-.232.06-.46.18-.684.124-.228.328-.432.612-.612.284-.184.662-.336 1.134-.456.472-.12 1.058-.188 1.758-.204v-.36c0-.412-.088-.716-.264-.912-.172-.2-.424-.3-.756-.3a1.837 1.837 0 0 0-1.02.276c-.116.068-.224.13-.324.186a.664.664 0 0 1-.33.084.429.429 0 0 1-.258-.078.614.614 0 0 1-.174-.192l-.27-.474c.708-.648 1.562-.972 2.562-.972.36 0 .68.06.96.18.284.116.524.28.72.492.196.208.344.458.444.75.104.292.156.612.156.96v3.888Zm-2.88-.924c.153 0 .293-.014.42-.042.129-.028.249-.07.36-.126.117-.056.227-.124.33-.204.109-.084.217-.182.325-.294v-1.038c-.432.02-.794.058-1.086.114-.288.052-.52.12-.696.204a.923.923 0 0 0-.378.294.664.664 0 0 0-.108.366c0 .26.076.446.228.558.156.112.358.168.606.168ZM43.22 27.01c-.532 0-.942-.15-1.23-.45-.288-.305-.432-.723-.432-1.255v-3.438h-.624a.31.31 0 0 1-.21-.078c-.056-.052-.084-.13-.084-.234v-.588l.99-.162.312-1.68a.302.302 0 0 1 .108-.186.365.365 0 0 1 .222-.066h.768v1.938h1.62v1.056h-1.62v3.336c0 .192.048.342.144.45a.488.488 0 0 0 .384.162c.092 0 .168-.01.228-.03.064-.024.118-.048.162-.072.048-.024.09-.046.126-.066a.194.194 0 0 1 .108-.036.16.16 0 0 1 .108.036c.028.02.058.052.09.096l.444.72c-.216.18-.464.316-.744.408a2.77 2.77 0 0 1-.87.138ZM50.423 26.913h-.666c-.14 0-.25-.02-.33-.06-.08-.044-.14-.13-.18-.258l-.132-.438c-.156.14-.31.264-.462.372a2.804 2.804 0 0 1-.462.264c-.16.072-.33.126-.51.162-.18.036-.38.054-.6.054-.26 0-.5-.034-.72-.102a1.618 1.618 0 0 1-.57-.318 1.448 1.448 0 0 1-.366-.522 1.852 1.852 0 0 1-.132-.726c0-.232.06-.46.18-.684.124-.228.328-.432.612-.612.284-.184.662-.336 1.134-.456.472-.12 1.058-.188 1.758-.204v-.36c0-.412-.088-.716-.264-.912-.172-.2-.424-.3-.756-.3a1.837 1.837 0 0 0-1.02.276c-.116.068-.224.13-.324.186a.664.664 0 0 1-.33.084.429.429 0 0 1-.258-.078.614.614 0 0 1-.174-.192l-.27-.474c.708-.648 1.562-.972 2.562-.972.36 0 .68.06.96.18.284.116.524.28.72.492.196.208.344.458.444.75.104.292.156.612.156.96v3.888Zm-2.88-.924c.152 0 .292-.014.42-.042.128-.028.248-.07.36-.126.116-.056.226-.124.33-.204.108-.084.216-.182.324-.294v-1.038c-.432.02-.794.058-1.086.114-.288.052-.52.12-.696.204a.923.923 0 0 0-.378.294.664.664 0 0 0-.108.366c0 .26.076.446.228.558.156.112.358.168.606.168Z"/></svg></g><a href="https://ourworldindata.org/grapher/gdp-per-capita-penn-world-table?tab=chart&amp;time=1960..latest&amp;country=CHN~IND~KOR" style="font-family:&#x27;Playfair Display&#x27;, Georgia, &#x27;Times New Roman&#x27;, &#x27;Liberation Serif&#x27;, serif" target="_blank" rel="noopener"><text font-size="24.75" font-weight="500" x="16.0" y="40.0" fill="#5b5b5b"><tspan x="16" y="40.0075">GDP per capita, 1960 to 2019</tspan></text></a><text x="16.0" y="63.9" style="font-size:14.625px;line-height:1.2" fill="#5b5b5b"><tspan x="16" y="63.9">This data is adjusted for inflation and for differences in the cost of living between countries.</tspan></text></g><g style="pointer-events:none"><g class="LineChart"><defs><clipPath id="boundsClip-4"><rect x="60.14" y="73.25" width="838" height="454.15"></rect></clipPath></defs><rect x="16" y="83.25" width="818" height="434.15" fill="none"></rect><g class="DualAxisView"><g class="HorizontalAxis"><line x1="70.1" y1="496.9" x2="70.1" y2="501.9" stroke="#999" stroke-width="1"></line><line x1="723.5" y1="496.9" x2="723.5" y2="501.9" stroke="#999" stroke-width="1"></line><line x1="180.9" y1="496.9" x2="180.9" y2="501.9" stroke="#999" stroke-width="1"></line><line x1="291.6" y1="496.9" x2="291.6" y2="501.9" stroke="#999" stroke-width="1"></line><line x1="402.4" y1="496.9" x2="402.4" y2="501.9" stroke="#999" stroke-width="1"></line><line x1="513.1" y1="496.9" x2="513.1" y2="501.9" stroke="#999" stroke-width="1"></line><line x1="623.9" y1="496.9" x2="623.9" y2="501.9" stroke="#999" stroke-width="1"></line><text x="70.14" y="515.4" fill="#5b5b5b" text-anchor="start" font-size="13.5">1960</text><text x="723.535" y="515.4" fill="#5b5b5b" text-anchor="end" font-size="13.5">2019</text><text x="180.9" y="515.4" fill="#5b5b5b" text-anchor="middle" font-size="13.5">1970</text><text x="291.6" y="515.4" fill="#5b5b5b" text-anchor="middle" font-size="13.5">1980</text><text x="402.4" y="515.4" fill="#5b5b5b" text-anchor="middle" font-size="13.5">1990</text><text x="513.1" y="515.4" fill="#5b5b5b" text-anchor="middle" font-size="13.5">2000</text><text x="623.9" y="515.4" fill="#5b5b5b" text-anchor="middle" font-size="13.5">2010</text></g><g class="VerticalAxis"><text x="65.14" y="496.9" dy=".32em" text-anchor="end" fill="#5b5b5b" font-size="13.5">$0</text><text x="65.14" y="448.6" dy=".32em" text-anchor="end" fill="#5b5b5b" font-size="13.5">$5,000</text><text x="65.14" y="400.3" dy=".32em" text-anchor="end" fill="#5b5b5b" font-size="13.5">$10,000</text><text x="65.14" y="352.1" dy=".32em" text-anchor="end" fill="#5b5b5b" font-size="13.5">$15,000</text><text x="65.14" y="303.8" dy=".32em" text-anchor="end" fill="#5b5b5b" font-size="13.5">$20,000</text><text x="65.14" y="255.5" dy=".32em" text-anchor="end" fill="#5b5b5b" font-size="13.5">$25,000</text><text x="65.14" y="207.2" dy=".32em" text-anchor="end" fill="#5b5b5b" font-size="13.5">$30,000</text><text x="65.14" y="159" dy=".32em" text-anchor="end" fill="#5b5b5b" font-size="13.5">$35,000</text><text x="65.14" y="110.7" dy=".32em" text-anchor="end" fill="#5b5b5b" font-size="13.5">$40,000</text></g><g class="AxisGridLines horizontalLines"><line x1="70.14" y1="496.9" x2="723.53" y2="496.9" stroke="#999" stroke-width="1"></line><line x1="70.14" y1="448.6" x2="723.53" y2="448.6" stroke="#ddd" stroke-width="1" stroke-dasharray="3,2"></line><line x1="70.14" y1="400.3" x2="723.53" y2="400.3" stroke="#ddd" stroke-width="1" stroke-dasharray="3,2"></line><line x1="70.14" y1="352.1" x2="723.53" y2="352.1" stroke="#ddd" stroke-width="1" stroke-dasharray="3,2"></line><line x1="70.14" y1="303.8" x2="723.53" y2="303.8" stroke="#ddd" stroke-width="1" stroke-dasharray="3,2"></line><line x1="70.14" y1="255.5" x2="723.53" y2="255.5" stroke="#ddd" stroke-width="1" stroke-dasharray="3,2"></line><line x1="70.14" y1="207.2" x2="723.53" y2="207.2" stroke="#ddd" stroke-width="1" stroke-dasharray="3,2"></line><line x1="70.14" y1="159" x2="723.53" y2="159" stroke="#ddd" stroke-width="1" stroke-dasharray="3,2"></line><line x1="70.14" y1="110.7" x2="723.53" y2="110.7" stroke="#ddd" stroke-width="1" stroke-dasharray="3,2"></line></g></g><g clip-path="url(#boundsClip-4)"><g class="LineLabels" style="cursor:default"><g class="legendMark"><rect x="723.535" y="89.25" width="110.465" height="13.5" fill="#fff" opacity="0"></rect><text font-size="13.50" font-weight="400" x="727.5" y="101.0" fill="#883039"><tspan x="727.535" y="100.995">South Korea</tspan></text></g><g class="legendMark"><rect x="723.535" y="353.75" width="70.37" height="13.5" fill="#fff" opacity="0"></rect><text font-size="13.50" font-weight="400" x="727.5" y="365.5" fill="#286bbb"><tspan x="727.535" y="365.495">China</tspan></text></g><g class="legendMark"><rect x="723.535" y="425.35" width="64.43" height="13.5" fill="#fff" opacity="0"></rect><text font-size="13.50" font-weight="400" x="727.5" y="437.1" fill="#be5915"><tspan x="727.535" y="437.095">India</tspan></text></g></g><g class="Lines"><rect x="70" y="89" width="653" height="408" fill="rgba(255,255,255,0)" opacity="0"></rect><g><path stroke-linecap="round" stroke-linejoin="round" stroke="#ddd" d="M70.1 484.8L81.2 484.3L92.3 484.6L103.4 483.6L114.4 482.8L125.5 482.4L136.6 480.9L147.7 480.4L158.7 478.8L169.8 476.8L180.9 475.6L192 472.2L203 469.6L214.1 464.1L225.2 458.6L236.3 453.4L247.3 450.3L258.4 446.8L269.5 442.8L280.6 440.8L291.6 444.6L302.7 442L313.8 438.9L324.9 432.6L335.9 427.2L347 424.7L358.1 412.8L369.2 400.2L380.2 387.8L391.3 377.3L402.4 363.5L413.4 346.7L424.5 336.3L435.6 322.6L446.7 302.2L457.7 280.4L468.8 257.1L479.9 263.6L491 293.4L502 272.5L513.1 257.1L524.2 251.4L535.3 233.7L546.3 224.5L557.4 208.3L568.5 187.1L579.6 177.2L590.6 158.9L601.7 159L612.8 172.2L623.9 150L634.9 150.9L646 151.5L657.1 161L668.2 147L679.2 127.6L690.3 118.3L701.4 102.2L712.5 97.2L723.5 89.3" fill="none" stroke-width="1"></path></g><g><path stroke-linecap="round" stroke-linejoin="round" stroke="#ddd" d="M70.1 485.6L81.2 485.5L92.3 485.3L103.4 484.7L114.4 484.1L125.5 484.6L136.6 484.9L147.7 484.3L158.7 484L169.8 483L180.9 483.1L192 482.8L203 482.6L214.1 482.1L225.2 482.6L236.3 481.5L247.3 482L258.4 482.4L269.5 483L280.6 484.3L291.6 484.2L302.7 484.6L313.8 485.2L324.9 485.1L335.9 485.4L347 485.5L358.1 485.2L369.2 484.9L380.2 484.2L391.3 483.6L402.4 483.1L413.4 482.9L424.5 482.5L435.6 482L446.7 481.4L457.7 480.5L468.8 479.5L479.9 479L491 477.8L502 476.8L513.1 476.3L524.2 475.5L535.3 474.7L546.3 473.1L557.4 471.3L568.5 468.2L579.6 465.2L590.6 461.9L601.7 460.4L612.8 458.4L623.9 452.9L634.9 449.6L646 446.4L657.1 446.3L668.2 444.8L679.2 442.5L690.3 440.1L701.4 437.1L712.5 433.4L723.5 432.1" fill="none" stroke-width="1"></path></g><g><path stroke-linecap="round" stroke-linejoin="round" stroke="#ddd" d="M70.1 487.3L81.2 488.7L92.3 488.1L103.4 487.3L114.4 486.4L125.5 485.6L136.6 485.6L147.7 485.6L158.7 486.2L169.8 485.5L180.9 484.4L192 483.6L203 484.2L214.1 483.4L225.2 483.5L236.3 483.1L247.3 483.9L258.4 483.2L269.5 481.3L280.6 480.7L291.6 480.7L302.7 480.8L313.8 479.9L324.9 478.8L335.9 476.7L347 474.3L358.1 474L369.2 473.3L380.2 472.3L391.3 472.7L402.4 473.5L413.4 472.6L424.5 470.6L435.6 468.5L446.7 466.6L457.7 463.8L468.8 461.6L479.9 460.6L491 460.8L502 458.9L513.1 456.3L524.2 453.1L535.3 449.2L546.3 445.1L557.4 439.4L568.5 433.3L579.6 427.9L590.6 421.4L601.7 416.9L612.8 410.6L623.9 399.2L634.9 391.9L646 385.8L657.1 382L668.2 377.1L679.2 373.5L690.3 370L701.4 363.1L712.5 363.5L723.5 360.5" fill="none" stroke-width="1"></path></g><g><path fill="none" stroke-linecap="butt" stroke-linejoin="round" stroke="#fff" stroke-width="2.5" d="M70.1 484.8L81.2 484.3L92.3 484.6L103.4 483.6L114.4 482.8L125.5 482.4L136.6 480.9L147.7 480.4L158.7 478.8L169.8 476.8L180.9 475.6L192 472.2L203 469.6L214.1 464.1L225.2 458.6L236.3 453.4L247.3 450.3L258.4 446.8L269.5 442.8L280.6 440.8L291.6 444.6L302.7 442L313.8 438.9L324.9 432.6L335.9 427.2L347 424.7L358.1 412.8L369.2 400.2L380.2 387.8L391.3 377.3L402.4 363.5L413.4 346.7L424.5 336.3L435.6 322.6L446.7 302.2L457.7 280.4L468.8 257.1L479.9 263.6L491 293.4L502 272.5L513.1 257.1L524.2 251.4L535.3 233.7L546.3 224.5L557.4 208.3L568.5 187.1L579.6 177.2L590.6 158.9L601.7 159L612.8 172.2L623.9 150L634.9 150.9L646 151.5L657.1 161L668.2 147L679.2 127.6L690.3 118.3L701.4 102.2L712.5 97.2L723.5 89.3"></path><polyline points="70.10,484.80 81.20,484.30 92.30,484.60 103.40,483.60 114.40,482.80 125.50,482.40 136.60,480.90 147.70,480.40 158.70,478.80 169.80,476.80 180.90,475.60 192.00,472.20 203.00,469.60 214.10,464.10 225.20,458.60 236.30,453.40 247.30,450.30 258.40,446.80 269.50,442.80 280.60,440.80 291.60,444.60 302.70,442.00 313.80,438.90 324.90,432.60 335.90,427.20 347.00,424.70 358.10,412.80 369.20,400.20 380.20,387.80 391.30,377.30 402.40,363.50 413.40,346.70 424.50,336.30 435.60,322.60 446.70,302.20 457.70,280.40 468.80,257.10 479.90,263.60 491.00,293.40 502.00,272.50 513.10,257.10 524.20,251.40 535.30,233.70 546.30,224.50 557.40,208.30 568.50,187.10 579.60,177.20 590.60,158.90 601.70,159.00 612.80,172.20 623.90,150.00 634.90,150.90 646.00,151.50 657.10,161.00 668.20,147.00 679.20,127.60 690.30,118.30 701.40,102.20 712.50,97.20 723.50,89.30" stroke-linejoin="round" stroke-width="1.5" stroke="#883039" fill="none" stroke-linecap="butt"></polyline><g><circle cx="70.1" cy="484.8" r="1.8" fill="#883039"></circle><circle cx="81.2" cy="484.3" r="1.8" fill="#883039"></circle><circle cx="92.3" cy="484.6" r="1.8" fill="#883039"></circle><circle cx="103.4" cy="483.6" r="1.8" fill="#883039"></circle><circle cx="114.4" cy="482.8" r="1.8" fill="#883039"></circle><circle cx="125.5" cy="482.4" r="1.8" fill="#883039"></circle><circle cx="136.6" cy="480.9" r="1.8" fill="#883039"></circle><circle cx="147.7" cy="480.4" r="1.8" fill="#883039"></circle><circle cx="158.7" cy="478.8" r="1.8" fill="#883039"></circle><circle cx="169.8" cy="476.8" r="1.8" fill="#883039"></circle><circle cx="180.9" cy="475.6" r="1.8" fill="#883039"></circle><circle cx="192" cy="472.2" r="1.8" fill="#883039"></circle><circle cx="203" cy="469.6" r="1.8" fill="#883039"></circle><circle cx="214.1" cy="464.1" r="1.8" fill="#883039"></circle><circle cx="225.2" cy="458.6" r="1.8" fill="#883039"></circle><circle cx="236.3" cy="453.4" r="1.8" fill="#883039"></circle><circle cx="247.3" cy="450.3" r="1.8" fill="#883039"></circle><circle cx="258.4" cy="446.8" r="1.8" fill="#883039"></circle><circle cx="269.5" cy="442.8" r="1.8" fill="#883039"></circle><circle cx="280.6" cy="440.8" r="1.8" fill="#883039"></circle><circle cx="291.6" cy="444.6" r="1.8" fill="#883039"></circle><circle cx="302.7" cy="442" r="1.8" fill="#883039"></circle><circle cx="313.8" cy="438.9" r="1.8" fill="#883039"></circle><circle cx="324.9" cy="432.6" r="1.8" fill="#883039"></circle><circle cx="335.9" cy="427.2" r="1.8" fill="#883039"></circle><circle cx="347" cy="424.7" r="1.8" fill="#883039"></circle><circle cx="358.1" cy="412.8" r="1.8" fill="#883039"></circle><circle cx="369.2" cy="400.2" r="1.8" fill="#883039"></circle><circle cx="380.2" cy="387.8" r="1.8" fill="#883039"></circle><circle cx="391.3" cy="377.3" r="1.8" fill="#883039"></circle><circle cx="402.4" cy="363.5" r="1.8" fill="#883039"></circle><circle cx="413.4" cy="346.7" r="1.8" fill="#883039"></circle><circle cx="424.5" cy="336.3" r="1.8" fill="#883039"></circle><circle cx="435.6" cy="322.6" r="1.8" fill="#883039"></circle><circle cx="446.7" cy="302.2" r="1.8" fill="#883039"></circle><circle cx="457.7" cy="280.4" r="1.8" fill="#883039"></circle><circle cx="468.8" cy="257.1" r="1.8" fill="#883039"></circle><circle cx="479.9" cy="263.6" r="1.8" fill="#883039"></circle><circle cx="491" cy="293.4" r="1.8" fill="#883039"></circle><circle cx="502" cy="272.5" r="1.8" fill="#883039"></circle><circle cx="513.1" cy="257.1" r="1.8" fill="#883039"></circle><circle cx="524.2" cy="251.4" r="1.8" fill="#883039"></circle><circle cx="535.3" cy="233.7" r="1.8" fill="#883039"></circle><circle cx="546.3" cy="224.5" r="1.8" fill="#883039"></circle><circle cx="557.4" cy="208.3" r="1.8" fill="#883039"></circle><circle cx="568.5" cy="187.1" r="1.8" fill="#883039"></circle><circle cx="579.6" cy="177.2" r="1.8" fill="#883039"></circle><circle cx="590.6" cy="158.9" r="1.8" fill="#883039"></circle><circle cx="601.7" cy="159" r="1.8" fill="#883039"></circle><circle cx="612.8" cy="172.2" r="1.8" fill="#883039"></circle><circle cx="623.9" cy="150" r="1.8" fill="#883039"></circle><circle cx="634.9" cy="150.9" r="1.8" fill="#883039"></circle><circle cx="646" cy="151.5" r="1.8" fill="#883039"></circle><circle cx="657.1" cy="161" r="1.8" fill="#883039"></circle><circle cx="668.2" cy="147" r="1.8" fill="#883039"></circle><circle cx="679.2" cy="127.6" r="1.8" fill="#883039"></circle><circle cx="690.3" cy="118.3" r="1.8" fill="#883039"></circle><circle cx="701.4" cy="102.2" r="1.8" fill="#883039"></circle><circle cx="712.5" cy="97.2" r="1.8" fill="#883039"></circle><circle cx="723.5" cy="89.3" r="1.8" fill="#883039"></circle></g></g><g><path fill="none" stroke-linecap="butt" stroke-linejoin="round" stroke="#fff" stroke-width="2.5" d="M70.1 485.6L81.2 485.5L92.3 485.3L103.4 484.7L114.4 484.1L125.5 484.6L136.6 484.9L147.7 484.3L158.7 484L169.8 483L180.9 483.1L192 482.8L203 482.6L214.1 482.1L225.2 482.6L236.3 481.5L247.3 482L258.4 482.4L269.5 483L280.6 484.3L291.6 484.2L302.7 484.6L313.8 485.2L324.9 485.1L335.9 485.4L347 485.5L358.1 485.2L369.2 484.9L380.2 484.2L391.3 483.6L402.4 483.1L413.4 482.9L424.5 482.5L435.6 482L446.7 481.4L457.7 480.5L468.8 479.5L479.9 479L491 477.8L502 476.8L513.1 476.3L524.2 475.5L535.3 474.7L546.3 473.1L557.4 471.3L568.5 468.2L579.6 465.2L590.6 461.9L601.7 460.4L612.8 458.4L623.9 452.9L634.9 449.6L646 446.4L657.1 446.3L668.2 444.8L679.2 442.5L690.3 440.1L701.4 437.1L712.5 433.4L723.5 432.1"></path><polyline points="70.10,485.60 81.20,485.50 92.30,485.30 103.40,484.70 114.40,484.10 125.50,484.60 136.60,484.90 147.70,484.30 158.70,484.00 169.80,483.00 180.90,483.10 192.00,482.80 203.00,482.60 214.10,482.10 225.20,482.60 236.30,481.50 247.30,482.00 258.40,482.40 269.50,483.00 280.60,484.30 291.60,484.20 302.70,484.60 313.80,485.20 324.90,485.10 335.90,485.40 347.00,485.50 358.10,485.20 369.20,484.90 380.20,484.20 391.30,483.60 402.40,483.10 413.40,482.90 424.50,482.50 435.60,482.00 446.70,481.40 457.70,480.50 468.80,479.50 479.90,479.00 491.00,477.80 502.00,476.80 513.10,476.30 524.20,475.50 535.30,474.70 546.30,473.10 557.40,471.30 568.50,468.20 579.60,465.20 590.60,461.90 601.70,460.40 612.80,458.40 623.90,452.90 634.90,449.60 646.00,446.40 657.10,446.30 668.20,444.80 679.20,442.50 690.30,440.10 701.40,437.10 712.50,433.40 723.50,432.10" stroke-linejoin="round" stroke-width="1.5" stroke="#BE5915" fill="none" stroke-linecap="butt"></polyline><g><circle cx="70.1" cy="485.6" r="1.8" fill="#BE5915"></circle><circle cx="81.2" cy="485.5" r="1.8" fill="#BE5915"></circle><circle cx="92.3" cy="485.3" r="1.8" fill="#BE5915"></circle><circle cx="103.4" cy="484.7" r="1.8" fill="#BE5915"></circle><circle cx="114.4" cy="484.1" r="1.8" fill="#BE5915"></circle><circle cx="125.5" cy="484.6" r="1.8" fill="#BE5915"></circle><circle cx="136.6" cy="484.9" r="1.8" fill="#BE5915"></circle><circle cx="147.7" cy="484.3" r="1.8" fill="#BE5915"></circle><circle cx="158.7" cy="484" r="1.8" fill="#BE5915"></circle><circle cx="169.8" cy="483" r="1.8" fill="#BE5915"></circle><circle cx="180.9" cy="483.1" r="1.8" fill="#BE5915"></circle><circle cx="192" cy="482.8" r="1.8" fill="#BE5915"></circle><circle cx="203" cy="482.6" r="1.8" fill="#BE5915"></circle><circle cx="214.1" cy="482.1" r="1.8" fill="#BE5915"></circle><circle cx="225.2" cy="482.6" r="1.8" fill="#BE5915"></circle><circle cx="236.3" cy="481.5" r="1.8" fill="#BE5915"></circle><circle cx="247.3" cy="482" r="1.8" fill="#BE5915"></circle><circle cx="258.4" cy="482.4" r="1.8" fill="#BE5915"></circle><circle cx="269.5" cy="483" r="1.8" fill="#BE5915"></circle><circle cx="280.6" cy="484.3" r="1.8" fill="#BE5915"></circle><circle cx="291.6" cy="484.2" r="1.8" fill="#BE5915"></circle><circle cx="302.7" cy="484.6" r="1.8" fill="#BE5915"></circle><circle cx="313.8" cy="485.2" r="1.8" fill="#BE5915"></circle><circle cx="324.9" cy="485.1" r="1.8" fill="#BE5915"></circle><circle cx="335.9" cy="485.4" r="1.8" fill="#BE5915"></circle><circle cx="347" cy="485.5" r="1.8" fill="#BE5915"></circle><circle cx="358.1" cy="485.2" r="1.8" fill="#BE5915"></circle><circle cx="369.2" cy="484.9" r="1.8" fill="#BE5915"></circle><circle cx="380.2" cy="484.2" r="1.8" fill="#BE5915"></circle><circle cx="391.3" cy="483.6" r="1.8" fill="#BE5915"></circle><circle cx="402.4" cy="483.1" r="1.8" fill="#BE5915"></circle><circle cx="413.4" cy="482.9" r="1.8" fill="#BE5915"></circle><circle cx="424.5" cy="482.5" r="1.8" fill="#BE5915"></circle><circle cx="435.6" cy="482" r="1.8" fill="#BE5915"></circle><circle cx="446.7" cy="481.4" r="1.8" fill="#BE5915"></circle><circle cx="457.7" cy="480.5" r="1.8" fill="#BE5915"></circle><circle cx="468.8" cy="479.5" r="1.8" fill="#BE5915"></circle><circle cx="479.9" cy="479" r="1.8" fill="#BE5915"></circle><circle cx="491" cy="477.8" r="1.8" fill="#BE5915"></circle><circle cx="502" cy="476.8" r="1.8" fill="#BE5915"></circle><circle cx="513.1" cy="476.3" r="1.8" fill="#BE5915"></circle><circle cx="524.2" cy="475.5" r="1.8" fill="#BE5915"></circle><circle cx="535.3" cy="474.7" r="1.8" fill="#BE5915"></circle><circle cx="546.3" cy="473.1" r="1.8" fill="#BE5915"></circle><circle cx="557.4" cy="471.3" r="1.8" fill="#BE5915"></circle><circle cx="568.5" cy="468.2" r="1.8" fill="#BE5915"></circle><circle cx="579.6" cy="465.2" r="1.8" fill="#BE5915"></circle><circle cx="590.6" cy="461.9" r="1.8" fill="#BE5915"></circle><circle cx="601.7" cy="460.4" r="1.8" fill="#BE5915"></circle><circle cx="612.8" cy="458.4" r="1.8" fill="#BE5915"></circle><circle cx="623.9" cy="452.9" r="1.8" fill="#BE5915"></circle><circle cx="634.9" cy="449.6" r="1.8" fill="#BE5915"></circle><circle cx="646" cy="446.4" r="1.8" fill="#BE5915"></circle><circle cx="657.1" cy="446.3" r="1.8" fill="#BE5915"></circle><circle cx="668.2" cy="444.8" r="1.8" fill="#BE5915"></circle><circle cx="679.2" cy="442.5" r="1.8" fill="#BE5915"></circle><circle cx="690.3" cy="440.1" r="1.8" fill="#BE5915"></circle><circle cx="701.4" cy="437.1" r="1.8" fill="#BE5915"></circle><circle cx="712.5" cy="433.4" r="1.8" fill="#BE5915"></circle><circle cx="723.5" cy="432.1" r="1.8" fill="#BE5915"></circle></g></g><g><path fill="none" stroke-linecap="butt" stroke-linejoin="round" stroke="#fff" stroke-width="2.5" d="M70.1 487.3L81.2 488.7L92.3 488.1L103.4 487.3L114.4 486.4L125.5 485.6L136.6 485.6L147.7 485.6L158.7 486.2L169.8 485.5L180.9 484.4L192 483.6L203 484.2L214.1 483.4L225.2 483.5L236.3 483.1L247.3 483.9L258.4 483.2L269.5 481.3L280.6 480.7L291.6 480.7L302.7 480.8L313.8 479.9L324.9 478.8L335.9 476.7L347 474.3L358.1 474L369.2 473.3L380.2 472.3L391.3 472.7L402.4 473.5L413.4 472.6L424.5 470.6L435.6 468.5L446.7 466.6L457.7 463.8L468.8 461.6L479.9 460.6L491 460.8L502 458.9L513.1 456.3L524.2 453.1L535.3 449.2L546.3 445.1L557.4 439.4L568.5 433.3L579.6 427.9L590.6 421.4L601.7 416.9L612.8 410.6L623.9 399.2L634.9 391.9L646 385.8L657.1 382L668.2 377.1L679.2 373.5L690.3 370L701.4 363.1L712.5 363.5L723.5 360.5"></path><polyline points="70.10,487.30 81.20,488.70 92.30,488.10 103.40,487.30 114.40,486.40 125.50,485.60 136.60,485.60 147.70,485.60 158.70,486.20 169.80,485.50 180.90,484.40 192.00,483.60 203.00,484.20 214.10,483.40 225.20,483.50 236.30,483.10 247.30,483.90 258.40,483.20 269.50,481.30 280.60,480.70 291.60,480.70 302.70,480.80 313.80,479.90 324.90,478.80 335.90,476.70 347.00,474.30 358.10,474.00 369.20,473.30 380.20,472.30 391.30,472.70 402.40,473.50 413.40,472.60 424.50,470.60 435.60,468.50 446.70,466.60 457.70,463.80 468.80,461.60 479.90,460.60 491.00,460.80 502.00,458.90 513.10,456.30 524.20,453.10 535.30,449.20 546.30,445.10 557.40,439.40 568.50,433.30 579.60,427.90 590.60,421.40 601.70,416.90 612.80,410.60 623.90,399.20 634.90,391.90 646.00,385.80 657.10,382.00 668.20,377.10 679.20,373.50 690.30,370.00 701.40,363.10 712.50,363.50 723.50,360.50" stroke-linejoin="round" stroke-width="1.5" stroke="#286BBB" fill="none" stroke-linecap="butt"></polyline><g><circle cx="70.1" cy="487.3" r="1.8" fill="#286BBB"></circle><circle cx="81.2" cy="488.7" r="1.8" fill="#286BBB"></circle><circle cx="92.3" cy="488.1" r="1.8" fill="#286BBB"></circle><circle cx="103.4" cy="487.3" r="1.8" fill="#286BBB"></circle><circle cx="114.4" cy="486.4" r="1.8" fill="#286BBB"></circle><circle cx="125.5" cy="485.6" r="1.8" fill="#286BBB"></circle><circle cx="136.6" cy="485.6" r="1.8" fill="#286BBB"></circle><circle cx="147.7" cy="485.6" r="1.8" fill="#286BBB"></circle><circle cx="158.7" cy="486.2" r="1.8" fill="#286BBB"></circle><circle cx="169.8" cy="485.5" r="1.8" fill="#286BBB"></circle><circle cx="180.9" cy="484.4" r="1.8" fill="#286BBB"></circle><circle cx="192" cy="483.6" r="1.8" fill="#286BBB"></circle><circle cx="203" cy="484.2" r="1.8" fill="#286BBB"></circle><circle cx="214.1" cy="483.4" r="1.8" fill="#286BBB"></circle><circle cx="225.2" cy="483.5" r="1.8" fill="#286BBB"></circle><circle cx="236.3" cy="483.1" r="1.8" fill="#286BBB"></circle><circle cx="247.3" cy="483.9" r="1.8" fill="#286BBB"></circle><circle cx="258.4" cy="483.2" r="1.8" fill="#286BBB"></circle><circle cx="269.5" cy="481.3" r="1.8" fill="#286BBB"></circle><circle cx="280.6" cy="480.7" r="1.8" fill="#286BBB"></circle><circle cx="291.6" cy="480.7" r="1.8" fill="#286BBB"></circle><circle cx="302.7" cy="480.8" r="1.8" fill="#286BBB"></circle><circle cx="313.8" cy="479.9" r="1.8" fill="#286BBB"></circle><circle cx="324.9" cy="478.8" r="1.8" fill="#286BBB"></circle><circle cx="335.9" cy="476.7" r="1.8" fill="#286BBB"></circle><circle cx="347" cy="474.3" r="1.8" fill="#286BBB"></circle><circle cx="358.1" cy="474" r="1.8" fill="#286BBB"></circle><circle cx="369.2" cy="473.3" r="1.8" fill="#286BBB"></circle><circle cx="380.2" cy="472.3" r="1.8" fill="#286BBB"></circle><circle cx="391.3" cy="472.7" r="1.8" fill="#286BBB"></circle><circle cx="402.4" cy="473.5" r="1.8" fill="#286BBB"></circle><circle cx="413.4" cy="472.6" r="1.8" fill="#286BBB"></circle><circle cx="424.5" cy="470.6" r="1.8" fill="#286BBB"></circle><circle cx="435.6" cy="468.5" r="1.8" fill="#286BBB"></circle><circle cx="446.7" cy="466.6" r="1.8" fill="#286BBB"></circle><circle cx="457.7" cy="463.8" r="1.8" fill="#286BBB"></circle><circle cx="468.8" cy="461.6" r="1.8" fill="#286BBB"></circle><circle cx="479.9" cy="460.6" r="1.8" fill="#286BBB"></circle><circle cx="491" cy="460.8" r="1.8" fill="#286BBB"></circle><circle cx="502" cy="458.9" r="1.8" fill="#286BBB"></circle><circle cx="513.1" cy="456.3" r="1.8" fill="#286BBB"></circle><circle cx="524.2" cy="453.1" r="1.8" fill="#286BBB"></circle><circle cx="535.3" cy="449.2" r="1.8" fill="#286BBB"></circle><circle cx="546.3" cy="445.1" r="1.8" fill="#286BBB"></circle><circle cx="557.4" cy="439.4" r="1.8" fill="#286BBB"></circle><circle cx="568.5" cy="433.3" r="1.8" fill="#286BBB"></circle><circle cx="579.6" cy="427.9" r="1.8" fill="#286BBB"></circle><circle cx="590.6" cy="421.4" r="1.8" fill="#286BBB"></circle><circle cx="601.7" cy="416.9" r="1.8" fill="#286BBB"></circle><circle cx="612.8" cy="410.6" r="1.8" fill="#286BBB"></circle><circle cx="623.9" cy="399.2" r="1.8" fill="#286BBB"></circle><circle cx="634.9" cy="391.9" r="1.8" fill="#286BBB"></circle><circle cx="646" cy="385.8" r="1.8" fill="#286BBB"></circle><circle cx="657.1" cy="382" r="1.8" fill="#286BBB"></circle><circle cx="668.2" cy="377.1" r="1.8" fill="#286BBB"></circle><circle cx="679.2" cy="373.5" r="1.8" fill="#286BBB"></circle><circle cx="690.3" cy="370" r="1.8" fill="#286BBB"></circle><circle cx="701.4" cy="363.1" r="1.8" fill="#286BBB"></circle><circle cx="712.5" cy="363.5" r="1.8" fill="#286BBB"></circle><circle cx="723.5" cy="360.5" r="1.8" fill="#286BBB"></circle></g></g></g></g></g></g><g class="SourcesFooter" style="fill:#5b5b5b"><text x="16.0" y="546.5" style="font-size:13.5px;line-height:1.2"><tspan x="16" y="546.5"><tspan style="font-weight:700">Data source:</tspan> Feenstra et al. (2015), Penn World Table (2021)</tspan></text><text x="16.0" y="564.7" style="font-size:13.5px;line-height:1.2"><tspan x="16" y="564.7"><tspan style="font-weight:700">Note:</tspan> This data is expressed in <tspan>international-$<tspan style="font-feature-settings:&quot;sups&quot;">ยน</tspan></tspan> at 2017 prices, using multiple benchmark years to adjust for differences in the cost of</tspan><tspan x="16" y="580.9">living between countries over time.</tspan></text><text font-size="13.50" x="553.7" y="546.5"><tspan x="553.74" y="546.495"><a target="_blank" style="fill: #5b5b5b;  text-decoration: underline;" href="https://ourworldindata.org/economic-growth">OurWorldInData.org/economic-growth</a> | <a target="_blank" style="fill: #5b5b5b;  text-decoration: underline;" href="https://creativecommons.org/licenses/by/4.0/">CC BY</a></tspan></text></g><line x1="16" y1="600" x2="834" y2="600" stroke="#e7e7e7"></line><g transform="translate(15, 616)"><text x="0.0" y="12.0" style="font-size:12.375px;fill:#5b5b5b;line-height:1.2"><tspan x="0" y="12.0"><tspan style="font-weight:700">1.</tspan> <tspan style="font-weight:700">International dollars</tspan>: International dollars are a hypothetical currency that is used to make meaningful comparisons of monetary indicators of</tspan><tspan x="0" y="26.9">living standards. Figures expressed in international dollars are adjusted for inflation within countries over time, and for differences in the cost of living</tspan><tspan x="0" y="41.7">between countries. The goal of such adjustments is to provide a unit whose purchasing power is held fixed over time and across countries, such that</tspan><tspan x="0" y="56.6">one international dollar can buy the same quantity and quality of goods and services no matter where or when it is spent. Read more in our article:</tspan><tspan x="0" y="71.4">What are Purchasing Power Parity adjustments and why do we need them?</tspan></text></g></svg>