<?xml version="1.0" encoding="utf-8" standalone="no"?>
<!DOCTYPE svg PUBLIC "-//W3C//DTD SVG 1.1//EN"
  "http://www.w3.org/Graphics/SVG/1.1/DTD/svg11.dtd">
<svg xmlns:xlink="http://www.w3.org/1999/xlink" width="864pt" height="432pt" viewBox="0 0 864 432" xmlns="http://www.w3.org/2000/svg" version="1.1">
 <metadata>
  <rdf:RDF xmlns:dc="http://purl.org/dc/elements/1.1/" xmlns:cc="http://creativecommons.org/ns#" xmlns:rdf="http://www.w3.org/1999/02/22-rdf-syntax-ns#">
   <cc:Work>
    <dc:type rdf:resource="http://purl.org/dc/dcmitype/StillImage"/>
    <dc:date>2026-05-16T12:46:40.461221</dc:date>
    <dc:format>image/svg+xml</dc:format>
    <dc:creator>
     <cc:Agent>
      <dc:title>Matplotlib v3.7.2, https://matplotlib.org/</dc:title>
     </cc:Agent>
    </dc:creator>
   </cc:Work>
  </rdf:RDF>
 </metadata>
 <defs>
  <style type="text/css">*{stroke-linejoin: round; stroke-linecap: butt}</style>
 </defs>
 <g id="figure_1">
  <g id="patch_1">
   <path d="M 0 432 
L 864 432 
L 864 0 
L 0 0 
L 0 432 
z
" style="fill: none"/>
  </g>
  <g id="axes_1">
   <g id="patch_2">
    <path d="M 53.75 371.304 
L 853.2 371.304 
L 853.2 10.8 
L 53.75 10.8 
L 53.75 371.304 
z
" style="fill: none"/>
   </g>
   <g id="matplotlib.axis_1">
    <g id="xtick_1">
     <g id="line2d_1">
      <path d="M 87.134276 371.304 
L 87.134276 10.8 
" clip-path="url(#pf24bbf53b3)" style="fill: none; stroke-dasharray: 1.85,0.8; stroke-dashoffset: 0; stroke: #808080; stroke-width: 0.5"/>
     </g>
     <g id="line2d_2">
      <defs>
       <path id="m8c902ac4f9" d="M 0 0 
L 0 3.5 
" style="stroke: #ffffff; stroke-width: 0.8"/>
      </defs>
      <g>
       <use xlink:href="#m8c902ac4f9" x="87.134276" y="371.304" style="fill: #ffffff; stroke: #ffffff; stroke-width: 0.8"/>
      </g>
     </g>
     <g id="text_1">
      <!-- 2025-01 -->
      <g style="fill: #ffffff" transform="translate(66.242869 385.902438) scale(0.1 -0.1)">
       <defs>
        <path id="DejaVuSans-32" d="M 1228 531 
L 3431 531 
L 3431 0 
L 469 0 
L 469 531 
Q 828 903 1448 1529 
Q 2069 2156 2228 2338 
Q 2531 2678 2651 2914 
Q 2772 3150 2772 3378 
Q 2772 3750 2511 3984 
Q 2250 4219 1831 4219 
Q 1534 4219 1204 4116 
Q 875 4013 500 3803 
L 500 4441 
Q 881 4594 1212 4672 
Q 1544 4750 1819 4750 
Q 2544 4750 2975 4387 
Q 3406 4025 3406 3419 
Q 3406 3131 3298 2873 
Q 3191 2616 2906 2266 
Q 2828 2175 2409 1742 
Q 1991 1309 1228 531 
z
" transform="scale(0.015625)"/>
        <path id="DejaVuSans-30" d="M 2034 4250 
Q 1547 4250 1301 3770 
Q 1056 3291 1056 2328 
Q 1056 1369 1301 889 
Q 1547 409 2034 409 
Q 2525 409 2770 889 
Q 3016 1369 3016 2328 
Q 3016 3291 2770 3770 
Q 2525 4250 2034 4250 
z
M 2034 4750 
Q 2819 4750 3233 4129 
Q 3647 3509 3647 2328 
Q 3647 1150 3233 529 
Q 2819 -91 2034 -91 
Q 1250 -91 836 529 
Q 422 1150 422 2328 
Q 422 3509 836 4129 
Q 1250 4750 2034 4750 
z
" transform="scale(0.015625)"/>
        <path id="DejaVuSans-35" d="M 691 4666 
L 3169 4666 
L 3169 4134 
L 1269 4134 
L 1269 2991 
Q 1406 3038 1543 3061 
Q 1681 3084 1819 3084 
Q 2600 3084 3056 2656 
Q 3513 2228 3513 1497 
Q 3513 744 3044 326 
Q 2575 -91 1722 -91 
Q 1428 -91 1123 -41 
Q 819 9 494 109 
L 494 744 
Q 775 591 1075 516 
Q 1375 441 1709 441 
Q 2250 441 2565 725 
Q 2881 1009 2881 1497 
Q 2881 1984 2565 2268 
Q 2250 2553 1709 2553 
Q 1456 2553 1204 2497 
Q 953 2441 691 2322 
L 691 4666 
z
" transform="scale(0.015625)"/>
        <path id="DejaVuSans-2d" d="M 313 2009 
L 1997 2009 
L 1997 1497 
L 313 1497 
L 313 2009 
z
" transform="scale(0.015625)"/>
        <path id="DejaVuSans-31" d="M 794 531 
L 1825 531 
L 1825 4091 
L 703 3866 
L 703 4441 
L 1819 4666 
L 2450 4666 
L 2450 531 
L 3481 531 
L 3481 0 
L 794 0 
L 794 531 
z
" transform="scale(0.015625)"/>
       </defs>
       <use xlink:href="#DejaVuSans-32"/>
       <use xlink:href="#DejaVuSans-30" x="63.623047"/>
       <use xlink:href="#DejaVuSans-32" x="127.246094"/>
       <use xlink:href="#DejaVuSans-35" x="190.869141"/>
       <use xlink:href="#DejaVuSans-2d" x="254.492188"/>
       <use xlink:href="#DejaVuSans-30" x="290.576172"/>
       <use xlink:href="#DejaVuSans-31" x="354.199219"/>
      </g>
     </g>
    </g>
    <g id="xtick_2">
     <g id="line2d_3">
      <path d="M 174.287916 371.304 
L 174.287916 10.8 
" clip-path="url(#pf24bbf53b3)" style="fill: none; stroke-dasharray: 1.85,0.8; stroke-dashoffset: 0; stroke: #808080; stroke-width: 0.5"/>
     </g>
     <g id="line2d_4">
      <g>
       <use xlink:href="#m8c902ac4f9" x="174.287916" y="371.304" style="fill: #ffffff; stroke: #ffffff; stroke-width: 0.8"/>
      </g>
     </g>
     <g id="text_2">
      <!-- 2025-03 -->
      <g style="fill: #ffffff" transform="translate(153.396509 385.902438) scale(0.1 -0.1)">
       <defs>
        <path id="DejaVuSans-33" d="M 2597 2516 
Q 3050 2419 3304 2112 
Q 3559 1806 3559 1356 
Q 3559 666 3084 287 
Q 2609 -91 1734 -91 
Q 1441 -91 1130 -33 
Q 819 25 488 141 
L 488 750 
Q 750 597 1062 519 
Q 1375 441 1716 441 
Q 2309 441 2620 675 
Q 2931 909 2931 1356 
Q 2931 1769 2642 2001 
Q 2353 2234 1838 2234 
L 1294 2234 
L 1294 2753 
L 1863 2753 
Q 2328 2753 2575 2939 
Q 2822 3125 2822 3475 
Q 2822 3834 2567 4026 
Q 2313 4219 1838 4219 
Q 1578 4219 1281 4162 
Q 984 4106 628 3988 
L 628 4550 
Q 988 4650 1302 4700 
Q 1616 4750 1894 4750 
Q 2613 4750 3031 4423 
Q 3450 4097 3450 3541 
Q 3450 3153 3228 2886 
Q 3006 2619 2597 2516 
z
" transform="scale(0.015625)"/>
       </defs>
       <use xlink:href="#DejaVuSans-32"/>
       <use xlink:href="#DejaVuSans-30" x="63.623047"/>
       <use xlink:href="#DejaVuSans-32" x="127.246094"/>
       <use xlink:href="#DejaVuSans-35" x="190.869141"/>
       <use xlink:href="#DejaVuSans-2d" x="254.492188"/>
       <use xlink:href="#DejaVuSans-30" x="290.576172"/>
       <use xlink:href="#DejaVuSans-33" x="354.199219"/>
      </g>
     </g>
    </g>
    <g id="xtick_3">
     <g id="line2d_5">
      <path d="M 264.395916 371.304 
L 264.395916 10.8 
" clip-path="url(#pf24bbf53b3)" style="fill: none; stroke-dasharray: 1.85,0.8; stroke-dashoffset: 0; stroke: #808080; stroke-width: 0.5"/>
     </g>
     <g id="line2d_6">
      <g>
       <use xlink:href="#m8c902ac4f9" x="264.395916" y="371.304" style="fill: #ffffff; stroke: #ffffff; stroke-width: 0.8"/>
      </g>
     </g>
     <g id="text_3">
      <!-- 2025-05 -->
      <g style="fill: #ffffff" transform="translate(243.50451 385.902438) scale(0.1 -0.1)">
       <use xlink:href="#DejaVuSans-32"/>
       <use xlink:href="#DejaVuSans-30" x="63.623047"/>
       <use xlink:href="#DejaVuSans-32" x="127.246094"/>
       <use xlink:href="#DejaVuSans-35" x="190.869141"/>
       <use xlink:href="#DejaVuSans-2d" x="254.492188"/>
       <use xlink:href="#DejaVuSans-30" x="290.576172"/>
       <use xlink:href="#DejaVuSans-35" x="354.199219"/>
      </g>
     </g>
    </g>
    <g id="xtick_4">
     <g id="line2d_7">
      <path d="M 354.503917 371.304 
L 354.503917 10.8 
" clip-path="url(#pf24bbf53b3)" style="fill: none; stroke-dasharray: 1.85,0.8; stroke-dashoffset: 0; stroke: #808080; stroke-width: 0.5"/>
     </g>
     <g id="line2d_8">
      <g>
       <use xlink:href="#m8c902ac4f9" x="354.503917" y="371.304" style="fill: #ffffff; stroke: #ffffff; stroke-width: 0.8"/>
      </g>
     </g>
     <g id="text_4">
      <!-- 2025-07 -->
      <g style="fill: #ffffff" transform="translate(333.612511 385.902438) scale(0.1 -0.1)">
       <defs>
        <path id="DejaVuSans-37" d="M 525 4666 
L 3525 4666 
L 3525 4397 
L 1831 0 
L 1172 0 
L 2766 4134 
L 525 4134 
L 525 4666 
z
" transform="scale(0.015625)"/>
       </defs>
       <use xlink:href="#DejaVuSans-32"/>
       <use xlink:href="#DejaVuSans-30" x="63.623047"/>
       <use xlink:href="#DejaVuSans-32" x="127.246094"/>
       <use xlink:href="#DejaVuSans-35" x="190.869141"/>
       <use xlink:href="#DejaVuSans-2d" x="254.492188"/>
       <use xlink:href="#DejaVuSans-30" x="290.576172"/>
       <use xlink:href="#DejaVuSans-37" x="354.199219"/>
      </g>
     </g>
    </g>
    <g id="xtick_5">
     <g id="line2d_9">
      <path d="M 446.089098 371.304 
L 446.089098 10.8 
" clip-path="url(#pf24bbf53b3)" style="fill: none; stroke-dasharray: 1.85,0.8; stroke-dashoffset: 0; stroke: #808080; stroke-width: 0.5"/>
     </g>
     <g id="line2d_10">
      <g>
       <use xlink:href="#m8c902ac4f9" x="446.089098" y="371.304" style="fill: #ffffff; stroke: #ffffff; stroke-width: 0.8"/>
      </g>
     </g>
     <g id="text_5">
      <!-- 2025-09 -->
      <g style="fill: #ffffff" transform="translate(425.197692 385.902438) scale(0.1 -0.1)">
       <defs>
        <path id="DejaVuSans-39" d="M 703 97 
L 703 672 
Q 941 559 1184 500 
Q 1428 441 1663 441 
Q 2288 441 2617 861 
Q 2947 1281 2994 2138 
Q 2813 1869 2534 1725 
Q 2256 1581 1919 1581 
Q 1219 1581 811 2004 
Q 403 2428 403 3163 
Q 403 3881 828 4315 
Q 1253 4750 1959 4750 
Q 2769 4750 3195 4129 
Q 3622 3509 3622 2328 
Q 3622 1225 3098 567 
Q 2575 -91 1691 -91 
Q 1453 -91 1209 -44 
Q 966 3 703 97 
z
M 1959 2075 
Q 2384 2075 2632 2365 
Q 2881 2656 2881 3163 
Q 2881 3666 2632 3958 
Q 2384 4250 1959 4250 
Q 1534 4250 1286 3958 
Q 1038 3666 1038 3163 
Q 1038 2656 1286 2365 
Q 1534 2075 1959 2075 
z
" transform="scale(0.015625)"/>
       </defs>
       <use xlink:href="#DejaVuSans-32"/>
       <use xlink:href="#DejaVuSans-30" x="63.623047"/>
       <use xlink:href="#DejaVuSans-32" x="127.246094"/>
       <use xlink:href="#DejaVuSans-35" x="190.869141"/>
       <use xlink:href="#DejaVuSans-2d" x="254.492188"/>
       <use xlink:href="#DejaVuSans-30" x="290.576172"/>
       <use xlink:href="#DejaVuSans-39" x="354.199219"/>
      </g>
     </g>
    </g>
    <g id="xtick_6">
     <g id="line2d_11">
      <path d="M 536.197099 371.304 
L 536.197099 10.8 
" clip-path="url(#pf24bbf53b3)" style="fill: none; stroke-dasharray: 1.85,0.8; stroke-dashoffset: 0; stroke: #808080; stroke-width: 0.5"/>
     </g>
     <g id="line2d_12">
      <g>
       <use xlink:href="#m8c902ac4f9" x="536.197099" y="371.304" style="fill: #ffffff; stroke: #ffffff; stroke-width: 0.8"/>
      </g>
     </g>
     <g id="text_6">
      <!-- 2025-11 -->
      <g style="fill: #ffffff" transform="translate(515.305693 385.902438) scale(0.1 -0.1)">
       <use xlink:href="#DejaVuSans-32"/>
       <use xlink:href="#DejaVuSans-30" x="63.623047"/>
       <use xlink:href="#DejaVuSans-32" x="127.246094"/>
       <use xlink:href="#DejaVuSans-35" x="190.869141"/>
       <use xlink:href="#DejaVuSans-2d" x="254.492188"/>
       <use xlink:href="#DejaVuSans-31" x="290.576172"/>
       <use xlink:href="#DejaVuSans-31" x="354.199219"/>
      </g>
     </g>
    </g>
    <g id="xtick_7">
     <g id="line2d_13">
      <path d="M 626.3051 371.304 
L 626.3051 10.8 
" clip-path="url(#pf24bbf53b3)" style="fill: none; stroke-dasharray: 1.85,0.8; stroke-dashoffset: 0; stroke: #808080; stroke-width: 0.5"/>
     </g>
     <g id="line2d_14">
      <g>
       <use xlink:href="#m8c902ac4f9" x="626.3051" y="371.304" style="fill: #ffffff; stroke: #ffffff; stroke-width: 0.8"/>
      </g>
     </g>
     <g id="text_7">
      <!-- 2026-01 -->
      <g style="fill: #ffffff" transform="translate(605.413694 385.902438) scale(0.1 -0.1)">
       <defs>
        <path id="DejaVuSans-36" d="M 2113 2584 
Q 1688 2584 1439 2293 
Q 1191 2003 1191 1497 
Q 1191 994 1439 701 
Q 1688 409 2113 409 
Q 2538 409 2786 701 
Q 3034 994 3034 1497 
Q 3034 2003 2786 2293 
Q 2538 2584 2113 2584 
z
M 3366 4563 
L 3366 3988 
Q 3128 4100 2886 4159 
Q 2644 4219 2406 4219 
Q 1781 4219 1451 3797 
Q 1122 3375 1075 2522 
Q 1259 2794 1537 2939 
Q 1816 3084 2150 3084 
Q 2853 3084 3261 2657 
Q 3669 2231 3669 1497 
Q 3669 778 3244 343 
Q 2819 -91 2113 -91 
Q 1303 -91 875 529 
Q 447 1150 447 2328 
Q 447 3434 972 4092 
Q 1497 4750 2381 4750 
Q 2619 4750 2861 4703 
Q 3103 4656 3366 4563 
z
" transform="scale(0.015625)"/>
       </defs>
       <use xlink:href="#DejaVuSans-32"/>
       <use xlink:href="#DejaVuSans-30" x="63.623047"/>
       <use xlink:href="#DejaVuSans-32" x="127.246094"/>
       <use xlink:href="#DejaVuSans-36" x="190.869141"/>
       <use xlink:href="#DejaVuSans-2d" x="254.492188"/>
       <use xlink:href="#DejaVuSans-30" x="290.576172"/>
       <use xlink:href="#DejaVuSans-31" x="354.199219"/>
      </g>
     </g>
    </g>
    <g id="xtick_8">
     <g id="line2d_15">
      <path d="M 713.45874 371.304 
L 713.45874 10.8 
" clip-path="url(#pf24bbf53b3)" style="fill: none; stroke-dasharray: 1.85,0.8; stroke-dashoffset: 0; stroke: #808080; stroke-width: 0.5"/>
     </g>
     <g id="line2d_16">
      <g>
       <use xlink:href="#m8c902ac4f9" x="713.45874" y="371.304" style="fill: #ffffff; stroke: #ffffff; stroke-width: 0.8"/>
      </g>
     </g>
     <g id="text_8">
      <!-- 2026-03 -->
      <g style="fill: #ffffff" transform="translate(692.567334 385.902438) scale(0.1 -0.1)">
       <use xlink:href="#DejaVuSans-32"/>
       <use xlink:href="#DejaVuSans-30" x="63.623047"/>
       <use xlink:href="#DejaVuSans-32" x="127.246094"/>
       <use xlink:href="#DejaVuSans-36" x="190.869141"/>
       <use xlink:href="#DejaVuSans-2d" x="254.492188"/>
       <use xlink:href="#DejaVuSans-30" x="290.576172"/>
       <use xlink:href="#DejaVuSans-33" x="354.199219"/>
      </g>
     </g>
    </g>
    <g id="xtick_9">
     <g id="line2d_17">
      <path d="M 803.566741 371.304 
L 803.566741 10.8 
" clip-path="url(#pf24bbf53b3)" style="fill: none; stroke-dasharray: 1.85,0.8; stroke-dashoffset: 0; stroke: #808080; stroke-width: 0.5"/>
     </g>
     <g id="line2d_18">
      <g>
       <use xlink:href="#m8c902ac4f9" x="803.566741" y="371.304" style="fill: #ffffff; stroke: #ffffff; stroke-width: 0.8"/>
      </g>
     </g>
     <g id="text_9">
      <!-- 2026-05 -->
      <g style="fill: #ffffff" transform="translate(782.675334 385.902438) scale(0.1 -0.1)">
       <use xlink:href="#DejaVuSans-32"/>
       <use xlink:href="#DejaVuSans-30" x="63.623047"/>
       <use xlink:href="#DejaVuSans-32" x="127.246094"/>
       <use xlink:href="#DejaVuSans-36" x="190.869141"/>
       <use xlink:href="#DejaVuSans-2d" x="254.492188"/>
       <use xlink:href="#DejaVuSans-30" x="290.576172"/>
       <use xlink:href="#DejaVuSans-35" x="354.199219"/>
      </g>
     </g>
    </g>
    <g id="text_10">
     <!-- Datum -->
     <g style="fill: #d3d3d3" transform="translate(433.179063 401.10025) scale(0.12 -0.12)">
      <defs>
       <path id="DejaVuSans-44" d="M 1259 4147 
L 1259 519 
L 2022 519 
Q 2988 519 3436 956 
Q 3884 1394 3884 2338 
Q 3884 3275 3436 3711 
Q 2988 4147 2022 4147 
L 1259 4147 
z
M 628 4666 
L 1925 4666 
Q 3281 4666 3915 4102 
Q 4550 3538 4550 2338 
Q 4550 1131 3912 565 
Q 3275 0 1925 0 
L 628 0 
L 628 4666 
z
" transform="scale(0.015625)"/>
       <path id="DejaVuSans-61" d="M 2194 1759 
Q 1497 1759 1228 1600 
Q 959 1441 959 1056 
Q 959 750 1161 570 
Q 1363 391 1709 391 
Q 2188 391 2477 730 
Q 2766 1069 2766 1631 
L 2766 1759 
L 2194 1759 
z
M 3341 1997 
L 3341 0 
L 2766 0 
L 2766 531 
Q 2569 213 2275 61 
Q 1981 -91 1556 -91 
Q 1019 -91 701 211 
Q 384 513 384 1019 
Q 384 1609 779 1909 
Q 1175 2209 1959 2209 
L 2766 2209 
L 2766 2266 
Q 2766 2663 2505 2880 
Q 2244 3097 1772 3097 
Q 1472 3097 1187 3025 
Q 903 2953 641 2809 
L 641 3341 
Q 956 3463 1253 3523 
Q 1550 3584 1831 3584 
Q 2591 3584 2966 3190 
Q 3341 2797 3341 1997 
z
" transform="scale(0.015625)"/>
       <path id="DejaVuSans-74" d="M 1172 4494 
L 1172 3500 
L 2356 3500 
L 2356 3053 
L 1172 3053 
L 1172 1153 
Q 1172 725 1289 603 
Q 1406 481 1766 481 
L 2356 481 
L 2356 0 
L 1766 0 
Q 1100 0 847 248 
Q 594 497 594 1153 
L 594 3053 
L 172 3053 
L 172 3500 
L 594 3500 
L 594 4494 
L 1172 4494 
z
" transform="scale(0.015625)"/>
       <path id="DejaVuSans-75" d="M 544 1381 
L 544 3500 
L 1119 3500 
L 1119 1403 
Q 1119 906 1312 657 
Q 1506 409 1894 409 
Q 2359 409 2629 706 
Q 2900 1003 2900 1516 
L 2900 3500 
L 3475 3500 
L 3475 0 
L 2900 0 
L 2900 538 
Q 2691 219 2414 64 
Q 2138 -91 1772 -91 
Q 1169 -91 856 284 
Q 544 659 544 1381 
z
M 1991 3584 
L 1991 3584 
z
" transform="scale(0.015625)"/>
       <path id="DejaVuSans-6d" d="M 3328 2828 
Q 3544 3216 3844 3400 
Q 4144 3584 4550 3584 
Q 5097 3584 5394 3201 
Q 5691 2819 5691 2113 
L 5691 0 
L 5113 0 
L 5113 2094 
Q 5113 2597 4934 2840 
Q 4756 3084 4391 3084 
Q 3944 3084 3684 2787 
Q 3425 2491 3425 1978 
L 3425 0 
L 2847 0 
L 2847 2094 
Q 2847 2600 2669 2842 
Q 2491 3084 2119 3084 
Q 1678 3084 1418 2786 
Q 1159 2488 1159 1978 
L 1159 0 
L 581 0 
L 581 3500 
L 1159 3500 
L 1159 2956 
Q 1356 3278 1631 3431 
Q 1906 3584 2284 3584 
Q 2666 3584 2933 3390 
Q 3200 3197 3328 2828 
z
" transform="scale(0.015625)"/>
      </defs>
      <use xlink:href="#DejaVuSans-44"/>
      <use xlink:href="#DejaVuSans-61" x="77.001953"/>
      <use xlink:href="#DejaVuSans-74" x="138.28125"/>
      <use xlink:href="#DejaVuSans-75" x="177.490234"/>
      <use xlink:href="#DejaVuSans-6d" x="240.869141"/>
     </g>
    </g>
   </g>
   <g id="matplotlib.axis_2">
    <g id="ytick_1">
     <g id="line2d_19">
      <path d="M 53.75 371.304 
L 853.2 371.304 
" clip-path="url(#pf24bbf53b3)" style="fill: none; stroke-dasharray: 1.85,0.8; stroke-dashoffset: 0; stroke: #808080; stroke-width: 0.5"/>
     </g>
     <g id="line2d_20">
      <defs>
       <path id="m8600b48b15" d="M 0 0 
L -3.5 0 
" style="stroke: #ffffff; stroke-width: 0.8"/>
      </defs>
      <g>
       <use xlink:href="#m8600b48b15" x="53.75" y="371.304" style="fill: #ffffff; stroke: #ffffff; stroke-width: 0.8"/>
      </g>
     </g>
     <g id="text_11">
      <!-- 0 -->
      <g style="fill: #ffffff" transform="translate(40.3875 375.103219) scale(0.1 -0.1)">
       <use xlink:href="#DejaVuSans-30"/>
      </g>
     </g>
    </g>
    <g id="ytick_2">
     <g id="line2d_21">
      <path d="M 53.75 317.63129 
L 853.2 317.63129 
" clip-path="url(#pf24bbf53b3)" style="fill: none; stroke-dasharray: 1.85,0.8; stroke-dashoffset: 0; stroke: #808080; stroke-width: 0.5"/>
     </g>
     <g id="line2d_22">
      <g>
       <use xlink:href="#m8600b48b15" x="53.75" y="317.63129" style="fill: #ffffff; stroke: #ffffff; stroke-width: 0.8"/>
      </g>
     </g>
     <g id="text_12">
      <!-- 20 -->
      <g style="fill: #ffffff" transform="translate(34.025 321.430508) scale(0.1 -0.1)">
       <use xlink:href="#DejaVuSans-32"/>
       <use xlink:href="#DejaVuSans-30" x="63.623047"/>
      </g>
     </g>
    </g>
    <g id="ytick_3">
     <g id="line2d_23">
      <path d="M 53.75 263.958579 
L 853.2 263.958579 
" clip-path="url(#pf24bbf53b3)" style="fill: none; stroke-dasharray: 1.85,0.8; stroke-dashoffset: 0; stroke: #808080; stroke-width: 0.5"/>
     </g>
     <g id="line2d_24">
      <g>
       <use xlink:href="#m8600b48b15" x="53.75" y="263.958579" style="fill: #ffffff; stroke: #ffffff; stroke-width: 0.8"/>
      </g>
     </g>
     <g id="text_13">
      <!-- 40 -->
      <g style="fill: #ffffff" transform="translate(34.025 267.757798) scale(0.1 -0.1)">
       <defs>
        <path id="DejaVuSans-34" d="M 2419 4116 
L 825 1625 
L 2419 1625 
L 2419 4116 
z
M 2253 4666 
L 3047 4666 
L 3047 1625 
L 3713 1625 
L 3713 1100 
L 3047 1100 
L 3047 0 
L 2419 0 
L 2419 1100 
L 313 1100 
L 313 1709 
L 2253 4666 
z
" transform="scale(0.015625)"/>
       </defs>
       <use xlink:href="#DejaVuSans-34"/>
       <use xlink:href="#DejaVuSans-30" x="63.623047"/>
      </g>
     </g>
    </g>
    <g id="ytick_4">
     <g id="line2d_25">
      <path d="M 53.75 210.285869 
L 853.2 210.285869 
" clip-path="url(#pf24bbf53b3)" style="fill: none; stroke-dasharray: 1.85,0.8; stroke-dashoffset: 0; stroke: #808080; stroke-width: 0.5"/>
     </g>
     <g id="line2d_26">
      <g>
       <use xlink:href="#m8600b48b15" x="53.75" y="210.285869" style="fill: #ffffff; stroke: #ffffff; stroke-width: 0.8"/>
      </g>
     </g>
     <g id="text_14">
      <!-- 60 -->
      <g style="fill: #ffffff" transform="translate(34.025 214.085087) scale(0.1 -0.1)">
       <use xlink:href="#DejaVuSans-36"/>
       <use xlink:href="#DejaVuSans-30" x="63.623047"/>
      </g>
     </g>
    </g>
    <g id="ytick_5">
     <g id="line2d_27">
      <path d="M 53.75 156.613158 
L 853.2 156.613158 
" clip-path="url(#pf24bbf53b3)" style="fill: none; stroke-dasharray: 1.85,0.8; stroke-dashoffset: 0; stroke: #808080; stroke-width: 0.5"/>
     </g>
     <g id="line2d_28">
      <g>
       <use xlink:href="#m8600b48b15" x="53.75" y="156.613158" style="fill: #ffffff; stroke: #ffffff; stroke-width: 0.8"/>
      </g>
     </g>
     <g id="text_15">
      <!-- 80 -->
      <g style="fill: #ffffff" transform="translate(34.025 160.412377) scale(0.1 -0.1)">
       <defs>
        <path id="DejaVuSans-38" d="M 2034 2216 
Q 1584 2216 1326 1975 
Q 1069 1734 1069 1313 
Q 1069 891 1326 650 
Q 1584 409 2034 409 
Q 2484 409 2743 651 
Q 3003 894 3003 1313 
Q 3003 1734 2745 1975 
Q 2488 2216 2034 2216 
z
M 1403 2484 
Q 997 2584 770 2862 
Q 544 3141 544 3541 
Q 544 4100 942 4425 
Q 1341 4750 2034 4750 
Q 2731 4750 3128 4425 
Q 3525 4100 3525 3541 
Q 3525 3141 3298 2862 
Q 3072 2584 2669 2484 
Q 3125 2378 3379 2068 
Q 3634 1759 3634 1313 
Q 3634 634 3220 271 
Q 2806 -91 2034 -91 
Q 1263 -91 848 271 
Q 434 634 434 1313 
Q 434 1759 690 2068 
Q 947 2378 1403 2484 
z
M 1172 3481 
Q 1172 3119 1398 2916 
Q 1625 2713 2034 2713 
Q 2441 2713 2670 2916 
Q 2900 3119 2900 3481 
Q 2900 3844 2670 4047 
Q 2441 4250 2034 4250 
Q 1625 4250 1398 4047 
Q 1172 3844 1172 3481 
z
" transform="scale(0.015625)"/>
       </defs>
       <use xlink:href="#DejaVuSans-38"/>
       <use xlink:href="#DejaVuSans-30" x="63.623047"/>
      </g>
     </g>
    </g>
    <g id="ytick_6">
     <g id="line2d_29">
      <path d="M 53.75 102.940448 
L 853.2 102.940448 
" clip-path="url(#pf24bbf53b3)" style="fill: none; stroke-dasharray: 1.85,0.8; stroke-dashoffset: 0; stroke: #808080; stroke-width: 0.5"/>
     </g>
     <g id="line2d_30">
      <g>
       <use xlink:href="#m8600b48b15" x="53.75" y="102.940448" style="fill: #ffffff; stroke: #ffffff; stroke-width: 0.8"/>
      </g>
     </g>
     <g id="text_16">
      <!-- 100 -->
      <g style="fill: #ffffff" transform="translate(27.6625 106.739666) scale(0.1 -0.1)">
       <use xlink:href="#DejaVuSans-31"/>
       <use xlink:href="#DejaVuSans-30" x="63.623047"/>
       <use xlink:href="#DejaVuSans-30" x="127.246094"/>
      </g>
     </g>
    </g>
    <g id="ytick_7">
     <g id="line2d_31">
      <path d="M 53.75 49.267737 
L 853.2 49.267737 
" clip-path="url(#pf24bbf53b3)" style="fill: none; stroke-dasharray: 1.85,0.8; stroke-dashoffset: 0; stroke: #808080; stroke-width: 0.5"/>
     </g>
     <g id="line2d_32">
      <g>
       <use xlink:href="#m8600b48b15" x="53.75" y="49.267737" style="fill: #ffffff; stroke: #ffffff; stroke-width: 0.8"/>
      </g>
     </g>
     <g id="text_17">
      <!-- 120 -->
      <g style="fill: #ffffff" transform="translate(27.6625 53.066956) scale(0.1 -0.1)">
       <use xlink:href="#DejaVuSans-31"/>
       <use xlink:href="#DejaVuSans-32" x="63.623047"/>
       <use xlink:href="#DejaVuSans-30" x="127.246094"/>
      </g>
     </g>
    </g>
    <g id="text_18">
     <!-- Index, Durchschnitt 2025–2025 = 100 -->
     <g style="fill: #d3d3d3" transform="translate(21.166875 305.382938) rotate(-90) scale(0.12 -0.12)">
      <defs>
       <path id="DejaVuSans-49" d="M 628 4666 
L 1259 4666 
L 1259 0 
L 628 0 
L 628 4666 
z
" transform="scale(0.015625)"/>
       <path id="DejaVuSans-6e" d="M 3513 2113 
L 3513 0 
L 2938 0 
L 2938 2094 
Q 2938 2591 2744 2837 
Q 2550 3084 2163 3084 
Q 1697 3084 1428 2787 
Q 1159 2491 1159 1978 
L 1159 0 
L 581 0 
L 581 3500 
L 1159 3500 
L 1159 2956 
Q 1366 3272 1645 3428 
Q 1925 3584 2291 3584 
Q 2894 3584 3203 3211 
Q 3513 2838 3513 2113 
z
" transform="scale(0.015625)"/>
       <path id="DejaVuSans-64" d="M 2906 2969 
L 2906 4863 
L 3481 4863 
L 3481 0 
L 2906 0 
L 2906 525 
Q 2725 213 2448 61 
Q 2172 -91 1784 -91 
Q 1150 -91 751 415 
Q 353 922 353 1747 
Q 353 2572 751 3078 
Q 1150 3584 1784 3584 
Q 2172 3584 2448 3432 
Q 2725 3281 2906 2969 
z
M 947 1747 
Q 947 1113 1208 752 
Q 1469 391 1925 391 
Q 2381 391 2643 752 
Q 2906 1113 2906 1747 
Q 2906 2381 2643 2742 
Q 2381 3103 1925 3103 
Q 1469 3103 1208 2742 
Q 947 2381 947 1747 
z
" transform="scale(0.015625)"/>
       <path id="DejaVuSans-65" d="M 3597 1894 
L 3597 1613 
L 953 1613 
Q 991 1019 1311 708 
Q 1631 397 2203 397 
Q 2534 397 2845 478 
Q 3156 559 3463 722 
L 3463 178 
Q 3153 47 2828 -22 
Q 2503 -91 2169 -91 
Q 1331 -91 842 396 
Q 353 884 353 1716 
Q 353 2575 817 3079 
Q 1281 3584 2069 3584 
Q 2775 3584 3186 3129 
Q 3597 2675 3597 1894 
z
M 3022 2063 
Q 3016 2534 2758 2815 
Q 2500 3097 2075 3097 
Q 1594 3097 1305 2825 
Q 1016 2553 972 2059 
L 3022 2063 
z
" transform="scale(0.015625)"/>
       <path id="DejaVuSans-78" d="M 3513 3500 
L 2247 1797 
L 3578 0 
L 2900 0 
L 1881 1375 
L 863 0 
L 184 0 
L 1544 1831 
L 300 3500 
L 978 3500 
L 1906 2253 
L 2834 3500 
L 3513 3500 
z
" transform="scale(0.015625)"/>
       <path id="DejaVuSans-2c" d="M 750 794 
L 1409 794 
L 1409 256 
L 897 -744 
L 494 -744 
L 750 256 
L 750 794 
z
" transform="scale(0.015625)"/>
       <path id="DejaVuSans-20" transform="scale(0.015625)"/>
       <path id="DejaVuSans-72" d="M 2631 2963 
Q 2534 3019 2420 3045 
Q 2306 3072 2169 3072 
Q 1681 3072 1420 2755 
Q 1159 2438 1159 1844 
L 1159 0 
L 581 0 
L 581 3500 
L 1159 3500 
L 1159 2956 
Q 1341 3275 1631 3429 
Q 1922 3584 2338 3584 
Q 2397 3584 2469 3576 
Q 2541 3569 2628 3553 
L 2631 2963 
z
" transform="scale(0.015625)"/>
       <path id="DejaVuSans-63" d="M 3122 3366 
L 3122 2828 
Q 2878 2963 2633 3030 
Q 2388 3097 2138 3097 
Q 1578 3097 1268 2742 
Q 959 2388 959 1747 
Q 959 1106 1268 751 
Q 1578 397 2138 397 
Q 2388 397 2633 464 
Q 2878 531 3122 666 
L 3122 134 
Q 2881 22 2623 -34 
Q 2366 -91 2075 -91 
Q 1284 -91 818 406 
Q 353 903 353 1747 
Q 353 2603 823 3093 
Q 1294 3584 2113 3584 
Q 2378 3584 2631 3529 
Q 2884 3475 3122 3366 
z
" transform="scale(0.015625)"/>
       <path id="DejaVuSans-68" d="M 3513 2113 
L 3513 0 
L 2938 0 
L 2938 2094 
Q 2938 2591 2744 2837 
Q 2550 3084 2163 3084 
Q 1697 3084 1428 2787 
Q 1159 2491 1159 1978 
L 1159 0 
L 581 0 
L 581 4863 
L 1159 4863 
L 1159 2956 
Q 1366 3272 1645 3428 
Q 1925 3584 2291 3584 
Q 2894 3584 3203 3211 
Q 3513 2838 3513 2113 
z
" transform="scale(0.015625)"/>
       <path id="DejaVuSans-73" d="M 2834 3397 
L 2834 2853 
Q 2591 2978 2328 3040 
Q 2066 3103 1784 3103 
Q 1356 3103 1142 2972 
Q 928 2841 928 2578 
Q 928 2378 1081 2264 
Q 1234 2150 1697 2047 
L 1894 2003 
Q 2506 1872 2764 1633 
Q 3022 1394 3022 966 
Q 3022 478 2636 193 
Q 2250 -91 1575 -91 
Q 1294 -91 989 -36 
Q 684 19 347 128 
L 347 722 
Q 666 556 975 473 
Q 1284 391 1588 391 
Q 1994 391 2212 530 
Q 2431 669 2431 922 
Q 2431 1156 2273 1281 
Q 2116 1406 1581 1522 
L 1381 1569 
Q 847 1681 609 1914 
Q 372 2147 372 2553 
Q 372 3047 722 3315 
Q 1072 3584 1716 3584 
Q 2034 3584 2315 3537 
Q 2597 3491 2834 3397 
z
" transform="scale(0.015625)"/>
       <path id="DejaVuSans-69" d="M 603 3500 
L 1178 3500 
L 1178 0 
L 603 0 
L 603 3500 
z
M 603 4863 
L 1178 4863 
L 1178 4134 
L 603 4134 
L 603 4863 
z
" transform="scale(0.015625)"/>
       <path id="DejaVuSans-2013" d="M 313 1978 
L 2888 1978 
L 2888 1528 
L 313 1528 
L 313 1978 
z
" transform="scale(0.015625)"/>
       <path id="DejaVuSans-3d" d="M 678 2906 
L 4684 2906 
L 4684 2381 
L 678 2381 
L 678 2906 
z
M 678 1631 
L 4684 1631 
L 4684 1100 
L 678 1100 
L 678 1631 
z
" transform="scale(0.015625)"/>
      </defs>
      <use xlink:href="#DejaVuSans-49"/>
      <use xlink:href="#DejaVuSans-6e" x="29.492188"/>
      <use xlink:href="#DejaVuSans-64" x="92.871094"/>
      <use xlink:href="#DejaVuSans-65" x="156.347656"/>
      <use xlink:href="#DejaVuSans-78" x="216.121094"/>
      <use xlink:href="#DejaVuSans-2c" x="275.300781"/>
      <use xlink:href="#DejaVuSans-20" x="307.087891"/>
      <use xlink:href="#DejaVuSans-44" x="338.875"/>
      <use xlink:href="#DejaVuSans-75" x="415.876953"/>
      <use xlink:href="#DejaVuSans-72" x="479.255859"/>
      <use xlink:href="#DejaVuSans-63" x="518.119141"/>
      <use xlink:href="#DejaVuSans-68" x="573.099609"/>
      <use xlink:href="#DejaVuSans-73" x="636.478516"/>
      <use xlink:href="#DejaVuSans-63" x="688.578125"/>
      <use xlink:href="#DejaVuSans-68" x="743.558594"/>
      <use xlink:href="#DejaVuSans-6e" x="806.9375"/>
      <use xlink:href="#DejaVuSans-69" x="870.316406"/>
      <use xlink:href="#DejaVuSans-74" x="898.099609"/>
      <use xlink:href="#DejaVuSans-74" x="937.308594"/>
      <use xlink:href="#DejaVuSans-20" x="976.517578"/>
      <use xlink:href="#DejaVuSans-32" x="1008.304688"/>
      <use xlink:href="#DejaVuSans-30" x="1071.927734"/>
      <use xlink:href="#DejaVuSans-32" x="1135.550781"/>
      <use xlink:href="#DejaVuSans-35" x="1199.173828"/>
      <use xlink:href="#DejaVuSans-2013" x="1262.796875"/>
      <use xlink:href="#DejaVuSans-32" x="1312.796875"/>
      <use xlink:href="#DejaVuSans-30" x="1376.419922"/>
      <use xlink:href="#DejaVuSans-32" x="1440.042969"/>
      <use xlink:href="#DejaVuSans-35" x="1503.666016"/>
      <use xlink:href="#DejaVuSans-20" x="1567.289062"/>
      <use xlink:href="#DejaVuSans-3d" x="1599.076172"/>
      <use xlink:href="#DejaVuSans-20" x="1682.865234"/>
      <use xlink:href="#DejaVuSans-31" x="1714.652344"/>
      <use xlink:href="#DejaVuSans-30" x="1778.275391"/>
      <use xlink:href="#DejaVuSans-30" x="1841.898438"/>
     </g>
    </g>
   </g>
   <g id="line2d_33">
    <path d="M 90.088636 130.001184 
L 91.565817 99.144653 
L 93.042997 132.256104 
L 94.520177 114.923167 
L 95.997358 115.766935 
L 97.474538 105.805001 
L 98.951718 107.324705 
L 100.428899 121.577162 
L 101.906079 144.267492 
L 103.383259 128.642611 
L 104.86044 151.020874 
L 106.33762 164.382285 
L 107.8148 162.903381 
L 109.291981 148.357958 
L 110.769161 140.855029 
L 112.246341 139.709638 
L 113.723522 138.056311 
L 115.200702 125.637887 
L 116.677882 122.234471 
L 118.155063 129.825701 
L 119.632243 148.92504 
L 121.109424 142.111758 
L 122.586604 152.459566 
L 124.063784 163.73771 
L 125.540965 155.478531 
L 127.018145 130.262259 
L 128.495325 123.698045 
L 131.449686 91.547099 
L 132.926866 85.245607 
L 134.404047 67.492638 
L 135.881227 71.478299 
L 137.358407 108.016111 
L 138.835588 120.608456 
L 140.312768 117.709374 
L 141.789948 149.541132 
L 143.267129 140.325897 
L 144.744309 156.028858 
L 146.221489 182.032042 
L 147.69867 161.927051 
L 149.17585 153.182556 
L 150.65303 131.188491 
L 152.130211 123.886458 
L 153.607391 122.775164 
L 155.084571 134.670321 
L 156.561752 122.108053 
L 158.038932 123.657832 
L 159.516112 118.621531 
L 160.993293 144.042972 
L 163.947653 122.702446 
L 165.424834 104.740204 
L 166.902014 102.426551 
L 168.379194 104.531935 
L 171.333555 150.609616 
L 172.810735 183.727592 
L 174.287916 205.998035 
L 175.765096 213.558184 
L 177.242276 207.872197 
L 178.719457 189.821654 
L 180.196637 162.798828 
L 181.673817 158.804705 
L 183.150998 133.850569 
L 184.628178 121.084222 
L 186.105358 120.688462 
L 187.582539 105.685704 
L 189.059719 116.202656 
L 190.536899 105.017838 
L 192.01408 88.159601 
L 193.49126 83.396997 
L 194.968441 96.903845 
L 196.445621 69.441947 
L 197.922801 98.541086 
L 199.399982 112.130034 
L 200.877162 101.721657 
L 202.354342 102.884892 
L 203.831523 115.122694 
L 205.308703 103.988143 
L 206.785883 105.139901 
L 208.263064 89.759143 
L 209.740244 101.808365 
L 211.217424 119.366136 
L 212.694605 99.353969 
L 214.171785 90.419134 
L 215.648965 86.006045 
L 217.126146 107.989135 
L 218.603326 108.922404 
L 220.080506 65.667737 
L 221.557687 64.725336 
L 223.034867 83.663993 
L 224.512047 85.233376 
L 225.989228 88.536846 
L 227.466408 49.5975 
L 228.943588 55.411078 
L 230.420769 74.733682 
L 231.897949 75.265578 
L 233.375129 70.775499 
L 234.85231 56.387241 
L 236.32949 56.892161 
L 237.80667 86.157513 
L 239.283851 83.964918 
L 242.238211 75.060577 
L 243.715392 78.447237 
L 245.192572 109.525678 
L 246.669752 93.432738 
L 248.146933 76.059527 
L 249.624113 89.32736 
L 251.101293 75.858715 
L 252.578474 89.320239 
L 254.055654 79.751384 
L 255.532834 74.218792 
L 257.010015 78.697226 
L 258.487195 97.389664 
L 259.964375 92.141995 
L 261.441556 93.764325 
L 262.918736 91.151507 
L 264.395916 102.010434 
L 265.873097 86.660925 
L 267.350277 88.306377 
L 268.827458 98.850473 
L 270.304638 79.727341 
L 271.781818 91.09345 
L 273.258999 85.761418 
L 274.736179 66.189748 
L 276.213359 75.741177 
L 277.69054 80.251027 
L 279.16772 78.490634 
L 280.6449 81.440651 
L 282.122081 97.584444 
L 283.599261 103.467724 
L 285.076441 99.525124 
L 286.553622 92.985875 
L 288.030802 68.38938 
L 289.507982 53.497458 
L 290.985163 57.399008 
L 292.462343 39.018219 
L 293.939523 37.681399 
L 295.416704 53.786906 
L 296.893884 57.697755 
L 298.371064 68.30686 
L 299.848245 57.868072 
L 302.802605 27.966857 
L 304.279786 41.179398 
L 305.756966 48.516198 
L 307.234146 53.879478 
L 308.711327 74.546107 
L 310.188507 62.611407 
L 311.665687 70.285407 
L 313.142868 93.970415 
L 314.620048 56.231333 
L 316.097228 54.030443 
L 317.574409 51.083693 
L 319.051589 57.10068 
L 320.528769 78.242153 
L 323.48313 49.187163 
L 324.96031 82.331529 
L 326.437491 79.362913 
L 327.914671 77.937542 
L 329.391851 54.210479 
L 330.869032 51.672809 
L 332.346212 68.777181 
L 333.823392 78.719678 
L 335.300573 80.273479 
L 336.777753 91.550115 
L 338.254933 68.226351 
L 339.732114 82.538876 
L 341.209294 94.545623 
L 342.686475 93.465746 
L 344.163655 88.525788 
L 345.640835 95.889229 
L 347.118016 71.288211 
L 350.072376 81.356205 
L 351.549557 78.521212 
L 353.026737 94.169384 
L 354.503917 90.51179 
L 355.981098 90.446026 
L 357.458278 108.079781 
L 358.935458 112.11219 
L 360.412639 108.742369 
L 361.889819 113.310444 
L 363.366999 98.053005 
L 364.84418 109.657626 
L 366.32136 110.337639 
L 367.79854 106.58119 
L 369.275721 133.084351 
L 370.752901 123.637977 
L 372.230081 126.998248 
L 373.707262 134.110946 
L 375.184442 105.472744 
L 376.661622 108.284447 
L 378.138803 120.168378 
L 379.615983 94.514877 
L 381.093163 90.051774 
L 382.570344 77.772419 
L 384.047524 84.329764 
L 385.524704 93.045272 
L 387.001885 96.615319 
L 388.479065 103.458341 
L 389.956245 124.787892 
L 391.433426 135.772567 
L 392.910606 144.433118 
L 394.387786 143.68332 
L 395.864967 146.347492 
L 397.342147 118.002759 
L 398.819327 107.389297 
L 400.296508 78.30398 
L 401.773688 75.193111 
L 403.250868 75.890717 
L 404.728049 84.046516 
L 406.205229 74.698412 
L 407.682409 89.642946 
L 409.15959 53.257104 
L 410.63677 70.844866 
L 412.11395 71.007392 
L 413.591131 72.42648 
L 415.068311 51.873118 
L 416.545492 45.640406 
L 418.022672 38.286851 
L 419.499852 80.598029 
L 420.977033 87.300642 
L 422.454213 96.774829 
L 423.931393 88.171581 
L 425.408574 85.118686 
L 426.885754 81.080413 
L 428.362934 80.350637 
L 429.840115 69.764821 
L 431.317295 64.931426 
L 432.794475 53.749039 
L 434.271656 56.827234 
L 435.748836 54.648378 
L 437.226016 82.910927 
L 438.703197 86.510044 
L 440.180377 98.044041 
L 441.657557 76.553137 
L 443.134738 85.903754 
L 444.611918 96.924789 
L 446.089098 71.628343 
L 447.566279 80.891665 
L 449.043459 85.920007 
L 450.520639 86.080187 
L 451.99782 100.396482 
L 453.475 94.414597 
L 454.95218 82.98708 
L 456.429361 123.522031 
L 457.906541 107.504657 
L 459.383721 105.232641 
L 460.860902 75.948272 
L 462.338082 77.490679 
L 463.815262 61.631475 
L 466.769623 83.04321 
L 468.246803 79.334262 
L 469.723984 76.290582 
L 471.201164 90.101621 
L 472.678344 76.168101 
L 474.155525 107.313646 
L 475.632705 100.866719 
L 477.109885 97.549928 
L 478.587066 100.854236 
L 480.064246 111.950669 
L 481.541426 101.010563 
L 483.018607 107.420042 
L 484.495787 91.604151 
L 485.972967 82.663116 
L 487.450148 59.402353 
L 488.927328 55.51915 
L 490.404508 48.441135 
L 491.881689 64.817826 
L 493.358869 49.957822 
L 494.83605 48.931562 
L 496.31323 51.781634 
L 497.79041 51.538683 
L 499.267591 68.888436 
L 500.744771 83.691639 
L 502.221951 89.578019 
L 503.699132 110.072989 
L 505.176312 117.929538 
L 506.653492 117.033382 
L 508.130673 135.126232 
L 509.607853 110.751075 
L 511.085033 97.289132 
L 512.562214 105.96602 
L 514.039394 112.92834 
L 515.516574 113.808662 
L 516.993755 105.168636 
L 518.470935 102.062459 
L 519.948115 115.617226 
L 521.425296 117.650395 
L 522.902476 100.650157 
L 524.379656 90.2866 
L 525.856837 90.60872 
L 527.334017 82.251942 
L 528.811197 71.946106 
L 531.765558 57.286496 
L 533.242738 55.640877 
L 534.719919 52.060777 
L 536.197099 49.478873 
L 537.674279 76.924099 
L 539.15146 91.801612 
L 540.62864 117.664302 
L 542.10582 118.312731 
L 543.583001 134.0549 
L 546.537361 151.559975 
L 548.014542 139.962392 
L 549.491722 144.788162 
L 550.968902 145.570047 
L 552.446083 149.441019 
L 553.923263 121.837958 
L 555.400443 137.832796 
L 556.877624 119.803867 
L 558.354804 99.074993 
L 559.831984 80.589148 
L 561.309165 66.566071 
L 562.786345 73.565253 
L 564.263525 98.121451 
L 565.740706 83.803229 
L 567.217886 97.431384 
L 568.695067 114.855113 
L 570.172247 126.810086 
L 571.649427 145.531343 
L 573.126608 143.50186 
L 574.603788 133.30552 
L 576.080968 158.398557 
L 577.558149 160.434742 
L 579.035329 175.893411 
L 580.512509 176.466777 
L 581.98969 156.020062 
L 583.46687 146.235399 
L 584.94405 157.451214 
L 586.421231 162.984979 
L 587.898411 165.023175 
L 589.375591 175.9291 
L 590.852772 184.508807 
L 592.329952 180.87953 
L 593.807132 191.170286 
L 595.284313 198.953614 
L 596.761493 197.583536 
L 598.238673 190.235928 
L 599.715854 177.792454 
L 601.193034 162.766909 
L 602.670214 159.27779 
L 604.147395 173.740191 
L 605.624575 149.886207 
L 607.101755 128.811001 
L 608.578936 142.731787 
L 610.056116 136.162211 
L 611.533296 146.983271 
L 613.010477 158.809815 
L 614.487657 122.992313 
L 615.964837 134.464231 
L 617.442018 132.065714 
L 618.919198 119.043429 
L 620.396378 123.664786 
L 621.873559 90.009635 
L 623.350739 92.683944 
L 624.827919 120.360561 
L 626.3051 100.112229 
L 627.78228 105.516811 
L 629.25946 97.105159 
L 630.736641 99.362095 
L 632.213821 104.625597 
L 633.691001 99.075077 
L 635.168182 85.637932 
L 636.645362 95.464399 
L 638.122542 99.604628 
L 639.599723 119.15837 
L 641.076903 107.588852 
L 642.554084 130.37963 
L 644.031264 128.774558 
L 645.508444 136.514072 
L 646.985625 138.65548 
L 648.462805 125.551011 
L 649.939985 115.263439 
L 651.417166 108.509303 
L 652.894346 120.407979 
L 654.371526 125.804099 
L 655.848707 121.690763 
L 657.325887 138.201747 
L 658.803067 128.643867 
L 660.280248 136.746551 
L 661.757428 153.782227 
L 663.234608 144.309464 
L 664.711789 137.81537 
L 666.188969 134.126361 
L 667.666149 125.475277 
L 669.14333 135.386777 
L 670.62051 128.655931 
L 672.09769 120.083932 
L 673.574871 105.123481 
L 675.052051 111.037758 
L 676.529231 103.575544 
L 678.006412 85.030888 
L 679.483592 104.80957 
L 680.960772 100.617065 
L 682.437953 104.207972 
L 683.915133 116.288945 
L 685.392313 115.253469 
L 686.869494 134.201928 
L 688.346674 133.093231 
L 689.823854 106.318215 
L 691.301035 105.810447 
L 692.778215 91.893766 
L 694.255395 112.105488 
L 695.732576 97.278576 
L 697.209756 58.60011 
L 698.686936 59.484286 
L 700.164117 65.222801 
L 701.641297 79.036772 
L 704.595658 34.68078 
L 706.072838 41.408107 
L 707.550018 41.653572 
L 709.027199 49.335866 
L 710.504379 44.931407 
L 711.981559 44.241676 
L 713.45874 108.21952 
L 714.93592 143.569635 
L 716.413101 194.571775 
L 717.890281 251.582189 
L 720.844642 336.120014 
L 722.321822 358.986023 
L 723.799002 364.376699 
L 726.753363 364.376699 
L 728.230543 361.332097 
L 729.707724 360.47406 
L 731.184904 360.47406 
L 732.662084 360.615474 
L 737.093625 360.615474 
L 738.570806 367.30795 
L 740.047986 371.304 
L 741.525166 367.477598 
L 748.911068 367.477598 
L 750.388248 366.914453 
L 751.865429 363.931427 
L 754.819789 363.931427 
L 756.29697 350.720729 
L 757.77415 348.367116 
L 759.25133 348.367116 
L 760.728511 346.397365 
L 762.205691 353.206794 
L 763.682871 351.095629 
L 765.160052 351.095629 
L 766.637232 364.012774 
L 768.114412 366.366388 
L 769.591593 365.247303 
L 771.068773 367.780198 
L 772.545953 367.780198 
L 774.023134 364.019727 
L 775.500314 364.019727 
L 776.977494 361.626236 
L 778.454675 355.81802 
L 779.931855 355.032448 
L 782.886216 355.032448 
L 784.363396 343.084428 
L 785.840576 343.084428 
L 787.317757 344.092175 
L 788.794937 349.900391 
L 790.272118 345.692387 
L 791.749298 345.692387 
L 793.226478 341.283152 
L 794.703659 357.32323 
L 796.180839 357.32323 
L 797.658019 359.002527 
L 799.1352 359.002527 
L 800.61238 365.115187 
L 802.08956 365.115187 
L 803.566741 369.524422 
L 805.043921 371.304 
L 806.521101 371.304 
L 807.998282 369.623613 
L 816.861364 369.623613 
L 816.861364 369.623613 
" clip-path="url(#pf24bbf53b3)" style="fill: none; stroke: #cc241d; stroke-width: 1.5; stroke-linecap: square"/>
   </g>
   <g id="patch_3">
    <path d="M 53.75 371.304 
L 53.75 10.8 
" style="fill: none; stroke: #333333; stroke-width: 0.8; stroke-linejoin: miter; stroke-linecap: square"/>
   </g>
   <g id="patch_4">
    <path d="M 853.2 371.304 
L 853.2 10.8 
" style="fill: none; stroke: #333333; stroke-width: 0.8; stroke-linejoin: miter; stroke-linecap: square"/>
   </g>
   <g id="patch_5">
    <path d="M 53.75 371.304 
L 853.2 371.304 
" style="fill: none; stroke: #333333; stroke-width: 0.8; stroke-linejoin: miter; stroke-linecap: square"/>
   </g>
   <g id="patch_6">
    <path d="M 53.75 10.8 
L 853.2 10.8 
" style="fill: none; stroke: #333333; stroke-width: 0.8; stroke-linejoin: miter; stroke-linecap: square"/>
   </g>
   <g id="text_19">
    <!-- Quelle: IMF PortWatch / HDX -->
    <g style="fill: #a9a9a9" transform="translate(739.70125 423.71585) scale(0.08 -0.08)">
     <defs>
      <path id="DejaVuSans-51" d="M 2522 4238 
Q 1834 4238 1429 3725 
Q 1025 3213 1025 2328 
Q 1025 1447 1429 934 
Q 1834 422 2522 422 
Q 3209 422 3611 934 
Q 4013 1447 4013 2328 
Q 4013 3213 3611 3725 
Q 3209 4238 2522 4238 
z
M 3406 84 
L 4238 -825 
L 3475 -825 
L 2784 -78 
Q 2681 -84 2626 -87 
Q 2572 -91 2522 -91 
Q 1538 -91 948 567 
Q 359 1225 359 2328 
Q 359 3434 948 4092 
Q 1538 4750 2522 4750 
Q 3503 4750 4090 4092 
Q 4678 3434 4678 2328 
Q 4678 1516 4351 937 
Q 4025 359 3406 84 
z
" transform="scale(0.015625)"/>
      <path id="DejaVuSans-6c" d="M 603 4863 
L 1178 4863 
L 1178 0 
L 603 0 
L 603 4863 
z
" transform="scale(0.015625)"/>
      <path id="DejaVuSans-3a" d="M 750 794 
L 1409 794 
L 1409 0 
L 750 0 
L 750 794 
z
M 750 3309 
L 1409 3309 
L 1409 2516 
L 750 2516 
L 750 3309 
z
" transform="scale(0.015625)"/>
      <path id="DejaVuSans-4d" d="M 628 4666 
L 1569 4666 
L 2759 1491 
L 3956 4666 
L 4897 4666 
L 4897 0 
L 4281 0 
L 4281 4097 
L 3078 897 
L 2444 897 
L 1241 4097 
L 1241 0 
L 628 0 
L 628 4666 
z
" transform="scale(0.015625)"/>
      <path id="DejaVuSans-46" d="M 628 4666 
L 3309 4666 
L 3309 4134 
L 1259 4134 
L 1259 2759 
L 3109 2759 
L 3109 2228 
L 1259 2228 
L 1259 0 
L 628 0 
L 628 4666 
z
" transform="scale(0.015625)"/>
      <path id="DejaVuSans-50" d="M 1259 4147 
L 1259 2394 
L 2053 2394 
Q 2494 2394 2734 2622 
Q 2975 2850 2975 3272 
Q 2975 3691 2734 3919 
Q 2494 4147 2053 4147 
L 1259 4147 
z
M 628 4666 
L 2053 4666 
Q 2838 4666 3239 4311 
Q 3641 3956 3641 3272 
Q 3641 2581 3239 2228 
Q 2838 1875 2053 1875 
L 1259 1875 
L 1259 0 
L 628 0 
L 628 4666 
z
" transform="scale(0.015625)"/>
      <path id="DejaVuSans-6f" d="M 1959 3097 
Q 1497 3097 1228 2736 
Q 959 2375 959 1747 
Q 959 1119 1226 758 
Q 1494 397 1959 397 
Q 2419 397 2687 759 
Q 2956 1122 2956 1747 
Q 2956 2369 2687 2733 
Q 2419 3097 1959 3097 
z
M 1959 3584 
Q 2709 3584 3137 3096 
Q 3566 2609 3566 1747 
Q 3566 888 3137 398 
Q 2709 -91 1959 -91 
Q 1206 -91 779 398 
Q 353 888 353 1747 
Q 353 2609 779 3096 
Q 1206 3584 1959 3584 
z
" transform="scale(0.015625)"/>
      <path id="DejaVuSans-57" d="M 213 4666 
L 850 4666 
L 1831 722 
L 2809 4666 
L 3519 4666 
L 4500 722 
L 5478 4666 
L 6119 4666 
L 4947 0 
L 4153 0 
L 3169 4050 
L 2175 0 
L 1381 0 
L 213 4666 
z
" transform="scale(0.015625)"/>
      <path id="DejaVuSans-2f" d="M 1625 4666 
L 2156 4666 
L 531 -594 
L 0 -594 
L 1625 4666 
z
" transform="scale(0.015625)"/>
      <path id="DejaVuSans-48" d="M 628 4666 
L 1259 4666 
L 1259 2753 
L 3553 2753 
L 3553 4666 
L 4184 4666 
L 4184 0 
L 3553 0 
L 3553 2222 
L 1259 2222 
L 1259 0 
L 628 0 
L 628 4666 
z
" transform="scale(0.015625)"/>
      <path id="DejaVuSans-58" d="M 403 4666 
L 1081 4666 
L 2241 2931 
L 3406 4666 
L 4084 4666 
L 2584 2425 
L 4184 0 
L 3506 0 
L 2194 1984 
L 872 0 
L 191 0 
L 1856 2491 
L 403 4666 
z
" transform="scale(0.015625)"/>
     </defs>
     <use xlink:href="#DejaVuSans-51"/>
     <use xlink:href="#DejaVuSans-75" x="78.710938"/>
     <use xlink:href="#DejaVuSans-65" x="142.089844"/>
     <use xlink:href="#DejaVuSans-6c" x="203.613281"/>
     <use xlink:href="#DejaVuSans-6c" x="231.396484"/>
     <use xlink:href="#DejaVuSans-65" x="259.179688"/>
     <use xlink:href="#DejaVuSans-3a" x="320.703125"/>
     <use xlink:href="#DejaVuSans-20" x="354.394531"/>
     <use xlink:href="#DejaVuSans-49" x="386.181641"/>
     <use xlink:href="#DejaVuSans-4d" x="415.673828"/>
     <use xlink:href="#DejaVuSans-46" x="501.953125"/>
     <use xlink:href="#DejaVuSans-20" x="559.472656"/>
     <use xlink:href="#DejaVuSans-50" x="591.259766"/>
     <use xlink:href="#DejaVuSans-6f" x="647.9375"/>
     <use xlink:href="#DejaVuSans-72" x="709.119141"/>
     <use xlink:href="#DejaVuSans-74" x="750.232422"/>
     <use xlink:href="#DejaVuSans-57" x="789.441406"/>
     <use xlink:href="#DejaVuSans-61" x="881.943359"/>
     <use xlink:href="#DejaVuSans-74" x="943.222656"/>
     <use xlink:href="#DejaVuSans-63" x="982.431641"/>
     <use xlink:href="#DejaVuSans-68" x="1037.412109"/>
     <use xlink:href="#DejaVuSans-20" x="1100.791016"/>
     <use xlink:href="#DejaVuSans-2f" x="1132.578125"/>
     <use xlink:href="#DejaVuSans-20" x="1166.269531"/>
     <use xlink:href="#DejaVuSans-48" x="1198.056641"/>
     <use xlink:href="#DejaVuSans-44" x="1273.251953"/>
     <use xlink:href="#DejaVuSans-58" x="1350.253906"/>
    </g>
   </g>
   <g id="legend_1">
    <g id="patch_7">
     <path d="M 611.776563 33.478125 
L 846.2 33.478125 
Q 848.2 33.478125 848.2 31.478125 
L 848.2 17.8 
Q 848.2 15.8 846.2 15.8 
L 611.776563 15.8 
Q 609.776563 15.8 609.776563 17.8 
L 609.776563 31.478125 
Q 609.776563 33.478125 611.776563 33.478125 
z
" style="opacity: 0.7; stroke: #cccccc; stroke-linejoin: miter"/>
    </g>
    <g id="line2d_34">
     <path d="M 613.776563 23.898438 
L 623.776563 23.898438 
L 633.776563 23.898438 
" style="fill: none; stroke: #cc241d; stroke-width: 1.5; stroke-linecap: square"/>
    </g>
    <g id="text_20">
     <!-- Straße von Hormus, 7-Tage-Durchschnitt -->
     <g style="fill: #e6e6e6" transform="translate(641.776563 27.398438) scale(0.1 -0.1)">
      <defs>
       <path id="DejaVuSans-53" d="M 3425 4513 
L 3425 3897 
Q 3066 4069 2747 4153 
Q 2428 4238 2131 4238 
Q 1616 4238 1336 4038 
Q 1056 3838 1056 3469 
Q 1056 3159 1242 3001 
Q 1428 2844 1947 2747 
L 2328 2669 
Q 3034 2534 3370 2195 
Q 3706 1856 3706 1288 
Q 3706 609 3251 259 
Q 2797 -91 1919 -91 
Q 1588 -91 1214 -16 
Q 841 59 441 206 
L 441 856 
Q 825 641 1194 531 
Q 1563 422 1919 422 
Q 2459 422 2753 634 
Q 3047 847 3047 1241 
Q 3047 1584 2836 1778 
Q 2625 1972 2144 2069 
L 1759 2144 
Q 1053 2284 737 2584 
Q 422 2884 422 3419 
Q 422 4038 858 4394 
Q 1294 4750 2059 4750 
Q 2388 4750 2728 4690 
Q 3069 4631 3425 4513 
z
" transform="scale(0.015625)"/>
       <path id="DejaVuSans-df" d="M 581 3553 
Q 581 4178 954 4520 
Q 1328 4863 2009 4863 
Q 2659 4863 3001 4500 
Q 3344 4138 3353 3438 
Q 2881 3413 2618 3233 
Q 2356 3053 2356 2753 
Q 2356 2606 2447 2479 
Q 2538 2353 2741 2222 
L 2919 2106 
Q 3438 1775 3588 1553 
Q 3738 1331 3738 1019 
Q 3738 481 3386 195 
Q 3034 -91 2375 -91 
Q 2175 -91 1962 -52 
Q 1750 -13 1522 63 
L 1522 575 
Q 1772 481 1990 436 
Q 2209 391 2413 391 
Q 2775 391 2962 539 
Q 3150 688 3150 972 
Q 3150 1169 3058 1300 
Q 2966 1431 2650 1625 
L 2363 1797 
Q 2063 1981 1927 2192 
Q 1791 2403 1791 2688 
Q 1791 3084 2052 3353 
Q 2313 3622 2784 3713 
Q 2759 4034 2554 4209 
Q 2350 4384 1997 4384 
Q 1591 4384 1378 4167 
Q 1166 3950 1166 3541 
L 1166 0 
L 581 0 
L 581 3553 
z
" transform="scale(0.015625)"/>
       <path id="DejaVuSans-76" d="M 191 3500 
L 800 3500 
L 1894 563 
L 2988 3500 
L 3597 3500 
L 2284 0 
L 1503 0 
L 191 3500 
z
" transform="scale(0.015625)"/>
       <path id="DejaVuSans-54" d="M -19 4666 
L 3928 4666 
L 3928 4134 
L 2272 4134 
L 2272 0 
L 1638 0 
L 1638 4134 
L -19 4134 
L -19 4666 
z
" transform="scale(0.015625)"/>
       <path id="DejaVuSans-67" d="M 2906 1791 
Q 2906 2416 2648 2759 
Q 2391 3103 1925 3103 
Q 1463 3103 1205 2759 
Q 947 2416 947 1791 
Q 947 1169 1205 825 
Q 1463 481 1925 481 
Q 2391 481 2648 825 
Q 2906 1169 2906 1791 
z
M 3481 434 
Q 3481 -459 3084 -895 
Q 2688 -1331 1869 -1331 
Q 1566 -1331 1297 -1286 
Q 1028 -1241 775 -1147 
L 775 -588 
Q 1028 -725 1275 -790 
Q 1522 -856 1778 -856 
Q 2344 -856 2625 -561 
Q 2906 -266 2906 331 
L 2906 616 
Q 2728 306 2450 153 
Q 2172 0 1784 0 
Q 1141 0 747 490 
Q 353 981 353 1791 
Q 353 2603 747 3093 
Q 1141 3584 1784 3584 
Q 2172 3584 2450 3431 
Q 2728 3278 2906 2969 
L 2906 3500 
L 3481 3500 
L 3481 434 
z
" transform="scale(0.015625)"/>
      </defs>
      <use xlink:href="#DejaVuSans-53"/>
      <use xlink:href="#DejaVuSans-74" x="63.476562"/>
      <use xlink:href="#DejaVuSans-72" x="102.685547"/>
      <use xlink:href="#DejaVuSans-61" x="143.798828"/>
      <use xlink:href="#DejaVuSans-df" x="205.078125"/>
      <use xlink:href="#DejaVuSans-65" x="268.066406"/>
      <use xlink:href="#DejaVuSans-20" x="329.589844"/>
      <use xlink:href="#DejaVuSans-76" x="361.376953"/>
      <use xlink:href="#DejaVuSans-6f" x="420.556641"/>
      <use xlink:href="#DejaVuSans-6e" x="481.738281"/>
      <use xlink:href="#DejaVuSans-20" x="545.117188"/>
      <use xlink:href="#DejaVuSans-48" x="576.904297"/>
      <use xlink:href="#DejaVuSans-6f" x="652.099609"/>
      <use xlink:href="#DejaVuSans-72" x="713.28125"/>
      <use xlink:href="#DejaVuSans-6d" x="752.644531"/>
      <use xlink:href="#DejaVuSans-75" x="850.056641"/>
      <use xlink:href="#DejaVuSans-73" x="913.435547"/>
      <use xlink:href="#DejaVuSans-2c" x="965.535156"/>
      <use xlink:href="#DejaVuSans-20" x="997.322266"/>
      <use xlink:href="#DejaVuSans-37" x="1029.109375"/>
      <use xlink:href="#DejaVuSans-2d" x="1092.732422"/>
      <use xlink:href="#DejaVuSans-54" x="1119.691406"/>
      <use xlink:href="#DejaVuSans-61" x="1164.275391"/>
      <use xlink:href="#DejaVuSans-67" x="1225.554688"/>
      <use xlink:href="#DejaVuSans-65" x="1289.03125"/>
      <use xlink:href="#DejaVuSans-2d" x="1350.554688"/>
      <use xlink:href="#DejaVuSans-44" x="1386.638672"/>
      <use xlink:href="#DejaVuSans-75" x="1463.640625"/>
      <use xlink:href="#DejaVuSans-72" x="1527.019531"/>
      <use xlink:href="#DejaVuSans-63" x="1565.882812"/>
      <use xlink:href="#DejaVuSans-68" x="1620.863281"/>
      <use xlink:href="#DejaVuSans-73" x="1684.242188"/>
      <use xlink:href="#DejaVuSans-63" x="1736.341797"/>
      <use xlink:href="#DejaVuSans-68" x="1791.322266"/>
      <use xlink:href="#DejaVuSans-6e" x="1854.701172"/>
      <use xlink:href="#DejaVuSans-69" x="1918.080078"/>
      <use xlink:href="#DejaVuSans-74" x="1945.863281"/>
      <use xlink:href="#DejaVuSans-74" x="1985.072266"/>
     </g>
    </g>
   </g>
  </g>
 </g>
 <defs>
  <clipPath id="pf24bbf53b3">
   <rect x="53.75" y="10.8" width="799.45" height="360.504"/>
  </clipPath>
 </defs>
</svg>
