<svg xmlns="http://www.w3.org/2000/svg" version="1.1" style="font-family:Lato, &#x27;Helvetica Neue&#x27;, Helvetica, Arial, &#x27;Liberation Sans&#x27;, sans-serif;font-size:18px;background-color:white;text-rendering:geometricPrecision;-webkit-font-smoothing:antialiased" width="850" height="706.25" viewBox="0 0 850 706.25"><defs><style>@import url(https://ourworldindata.org/fonts.css)</style></defs><defs><pattern id="noDataPattern" patternUnits="userSpaceOnUse" width="4" height="4" patternTransform="rotate(-45 2 2)"><path d="M -1,2 l 6,0" stroke="#ccc" stroke-width="0.7"></path></pattern></defs><rect class="background-fill" fill="white" width="850" height="706.25"></rect><g class="HeaderView"><g transform="translate(769, 16) scale(1)"><svg className="owidLogo" xmlns="http://www.w3.org/2000/svg" width="65" height="36" viewBox="0 0 65 36"  fill="none"><path fill="#002147" d="M0 0h64.8v36H0z"/><path fill="#CE261E" d="M0 33.3h64.8V36H0z"/><path fill="#fff" d="M13.796 10.575c0 .636-.106 1.226-.318 1.77a4.193 4.193 0 0 1-.894 1.404 4.084 4.084 0 0 1-1.386.93c-.54.22-1.138.33-1.794.33-.656 0-1.256-.11-1.8-.33a4.149 4.149 0 0 1-1.392-.93 4.193 4.193 0 0 1-.894-1.404A4.833 4.833 0 0 1 5 10.575c0-.636.106-1.224.318-1.764a4.18 4.18 0 0 1 .894-1.41 4.076 4.076 0 0 1 1.392-.924 4.684 4.684 0 0 1 1.8-.336c.656 0 1.254.112 1.794.336.54.224 1.002.534 1.386.93.384.392.682.86.894 1.404.212.54.318 1.128.318 1.764Zm-1.656 0c0-.476-.064-.902-.192-1.278a2.671 2.671 0 0 0-.54-.966 2.332 2.332 0 0 0-.864-.606 2.94 2.94 0 0 0-1.14-.21c-.424 0-.806.07-1.146.21-.34.14-.63.342-.87.606a2.742 2.742 0 0 0-.546.966 3.955 3.955 0 0 0-.192 1.278c0 .476.064.904.192 1.284.128.376.31.696.546.96.24.26.53.46.87.6.34.14.722.21 1.146.21.424 0 .804-.07 1.14-.21.34-.14.628-.34.864-.6.236-.264.416-.584.54-.96a4.01 4.01 0 0 0 .192-1.284ZM16.104 8.757v3.912c0 .376.086.668.258.876.176.204.438.306.786.306.256 0 .496-.056.72-.168a2.58 2.58 0 0 0 .636-.474V8.757h1.482v6.156h-.906c-.192 0-.318-.09-.378-.27l-.102-.492a4.65 4.65 0 0 1-.396.354 2.577 2.577 0 0 1-.438.27 2.35 2.35 0 0 1-.498.168 2.345 2.345 0 0 1-.57.066c-.336 0-.634-.056-.894-.168a1.821 1.821 0 0 1-.648-.486 2.157 2.157 0 0 1-.402-.738 3.233 3.233 0 0 1-.132-.948V8.757h1.482ZM21.328 14.913V8.757h.87c.152 0 .258.028.318.084.06.056.1.152.12.288l.09.744c.22-.38.478-.68.774-.9.296-.22.628-.33.996-.33.304 0 .556.07.756.21l-.192 1.11c-.012.072-.038.124-.078.156a.278.278 0 0 1-.162.042 1.01 1.01 0 0 1-.246-.042 1.646 1.646 0 0 0-.414-.042c-.308 0-.572.086-.792.258-.22.168-.406.416-.558.744v3.834h-1.482ZM27.347 6.237h1.356a.57.57 0 0 1 .348.102c.096.064.16.152.192.264l1.476 5.19c.036.128.068.268.096.42.032.148.062.306.09.474a5.968 5.968 0 0 1 .228-.894l1.704-5.19a.575.575 0 0 1 .186-.252.543.543 0 0 1 .348-.114h.474a.57.57 0 0 1 .348.102.497.497 0 0 1 .192.264l1.692 5.19c.088.256.164.54.228.852.028-.156.056-.306.084-.45.032-.144.064-.278.096-.402l1.476-5.19c.028-.1.09-.186.186-.258a.563.563 0 0 1 .348-.108h1.266l-2.694 8.676h-1.458l-1.896-5.928-.078-.246a9.504 9.504 0 0 1-.072-.282c-.024.1-.05.194-.078.282-.024.088-.048.17-.072.246l-1.914 5.928H30.04l-2.694-8.676ZM42.771 8.661c.46 0 .876.074 1.248.222.376.148.696.358.96.63s.468.604.612.996c.144.392.216.83.216 1.314 0 .488-.072.928-.216 1.32a2.85 2.85 0 0 1-.612 1.002 2.653 2.653 0 0 1-.96.636 3.35 3.35 0 0 1-1.248.222c-.46 0-.878-.074-1.254-.222a2.712 2.712 0 0 1-.966-.636 2.922 2.922 0 0 1-.618-1.002 3.807 3.807 0 0 1-.216-1.32c0-.484.072-.922.216-1.314.148-.392.354-.724.618-.996.268-.272.59-.482.966-.63a3.397 3.397 0 0 1 1.254-.222Zm0 5.202c.512 0 .89-.172 1.134-.516.248-.344.372-.848.372-1.512s-.124-1.17-.372-1.518c-.244-.348-.622-.522-1.134-.522-.52 0-.904.176-1.152.528-.248.348-.372.852-.372 1.512s.124 1.164.372 1.512c.248.344.632.516 1.152.516ZM46.723 14.913V8.757h.87c.152 0 .258.028.318.084.06.056.1.152.12.288l.09.744c.22-.38.478-.68.774-.9.296-.22.628-.33.996-.33.304 0 .556.07.756.21l-.192 1.11c-.012.072-.038.124-.078.156a.278.278 0 0 1-.162.042 1.01 1.01 0 0 1-.246-.042 1.646 1.646 0 0 0-.414-.042c-.308 0-.572.086-.792.258-.22.168-.406.416-.558.744v3.834h-1.482ZM52.96 5.997v8.916h-1.482V5.997h1.482ZM58.732 14.913c-.192 0-.318-.09-.378-.27l-.12-.594a3.68 3.68 0 0 1-.402.39c-.14.116-.292.216-.456.3-.16.084-.334.148-.522.192a2.372 2.372 0 0 1-.6.072c-.336 0-.644-.07-.924-.21a2.098 2.098 0 0 1-.726-.606 3.033 3.033 0 0 1-.468-.99 5.072 5.072 0 0 1-.162-1.344c0-.456.062-.88.186-1.272s.302-.732.534-1.02c.232-.288.51-.512.834-.672a2.384 2.384 0 0 1 1.092-.246 2.103 2.103 0 0 1 1.536.606V5.997h1.482v8.916h-.906Zm-1.974-1.086c.308 0 .57-.064.786-.192.216-.128.42-.31.612-.546v-2.76a1.452 1.452 0 0 0-.552-.432 1.597 1.597 0 0 0-.636-.126c-.224 0-.428.042-.612.126a1.21 1.21 0 0 0-.462.384c-.124.168-.22.384-.288.648-.068.26-.102.568-.102.924 0 .36.028.666.084.918.06.248.144.452.252.612.108.156.24.27.396.342.156.068.33.102.522.102ZM16.331 20.757v6.156H14.85v-6.156h1.481Zm.223-1.794a.844.844 0 0 1-.078.36.963.963 0 0 1-.21.294.995.995 0 0 1-.3.204.963.963 0 0 1-.372.072.948.948 0 0 1-.367-.072 1.018 1.018 0 0 1-.498-.498.963.963 0 0 1 0-.732.995.995 0 0 1 .205-.3.929.929 0 0 1 .293-.198.899.899 0 0 1 .738 0 .912.912 0 0 1 .3.198.943.943 0 0 1 .288.672ZM17.771 26.913v-6.156h.906c.192 0 .318.09.378.27l.102.486a2.934 2.934 0 0 1 .828-.618c.156-.076.322-.134.498-.174.176-.04.368-.06.576-.06.336 0 .634.058.894.174.26.112.476.272.648.48.176.204.308.45.396.738.092.284.138.598.138.942v3.918h-1.482v-3.918c0-.376-.088-.666-.264-.87-.172-.208-.432-.312-.78-.312-.256 0-.496.058-.72.174a2.58 2.58 0 0 0-.636.474v4.452h-1.482ZM34.22 22.575c0 .636-.106 1.22-.318 1.752-.212.532-.51.99-.894 1.374a4 4 0 0 1-1.386.894 4.87 4.87 0 0 1-1.794.318h-3.312v-8.676h3.312a4.79 4.79 0 0 1 1.794.324 4 4 0 0 1 1.386.894c.384.38.682.836.894 1.368.212.532.318 1.116.318 1.752Zm-1.65 0c0-.476-.064-.902-.192-1.278a2.68 2.68 0 0 0-.546-.96 2.332 2.332 0 0 0-.864-.606 2.94 2.94 0 0 0-1.14-.21h-1.686v6.108h1.686c.424 0 .804-.07 1.14-.21.34-.14.628-.34.864-.6a2.75 2.75 0 0 0 .546-.96 4.01 4.01 0 0 0 .192-1.284ZM39.98 26.913h-.665c-.14 0-.25-.02-.33-.06-.08-.044-.14-.13-.18-.258l-.132-.438c-.156.14-.31.264-.462.372a2.804 2.804 0 0 1-.462.264c-.16.072-.33.126-.51.162-.18.036-.38.054-.6.054-.26 0-.5-.034-.72-.102a1.618 1.618 0 0 1-.57-.318 1.448 1.448 0 0 1-.366-.522 1.852 1.852 0 0 1-.132-.726c0-.232.06-.46.18-.684.124-.228.328-.432.612-.612.284-.184.662-.336 1.134-.456.472-.12 1.058-.188 1.758-.204v-.36c0-.412-.088-.716-.264-.912-.172-.2-.424-.3-.756-.3a1.837 1.837 0 0 0-1.02.276c-.116.068-.224.13-.324.186a.664.664 0 0 1-.33.084.429.429 0 0 1-.258-.078.614.614 0 0 1-.174-.192l-.27-.474c.708-.648 1.562-.972 2.562-.972.36 0 .68.06.96.18.284.116.524.28.72.492.196.208.344.458.444.75.104.292.156.612.156.96v3.888Zm-2.88-.924c.153 0 .293-.014.42-.042.129-.028.249-.07.36-.126.117-.056.227-.124.33-.204.109-.084.217-.182.325-.294v-1.038c-.432.02-.794.058-1.086.114-.288.052-.52.12-.696.204a.923.923 0 0 0-.378.294.664.664 0 0 0-.108.366c0 .26.076.446.228.558.156.112.358.168.606.168ZM43.22 27.01c-.532 0-.942-.15-1.23-.45-.288-.305-.432-.723-.432-1.255v-3.438h-.624a.31.31 0 0 1-.21-.078c-.056-.052-.084-.13-.084-.234v-.588l.99-.162.312-1.68a.302.302 0 0 1 .108-.186.365.365 0 0 1 .222-.066h.768v1.938h1.62v1.056h-1.62v3.336c0 .192.048.342.144.45a.488.488 0 0 0 .384.162c.092 0 .168-.01.228-.03.064-.024.118-.048.162-.072.048-.024.09-.046.126-.066a.194.194 0 0 1 .108-.036.16.16 0 0 1 .108.036c.028.02.058.052.09.096l.444.72c-.216.18-.464.316-.744.408a2.77 2.77 0 0 1-.87.138ZM50.423 26.913h-.666c-.14 0-.25-.02-.33-.06-.08-.044-.14-.13-.18-.258l-.132-.438c-.156.14-.31.264-.462.372a2.804 2.804 0 0 1-.462.264c-.16.072-.33.126-.51.162-.18.036-.38.054-.6.054-.26 0-.5-.034-.72-.102a1.618 1.618 0 0 1-.57-.318 1.448 1.448 0 0 1-.366-.522 1.852 1.852 0 0 1-.132-.726c0-.232.06-.46.18-.684.124-.228.328-.432.612-.612.284-.184.662-.336 1.134-.456.472-.12 1.058-.188 1.758-.204v-.36c0-.412-.088-.716-.264-.912-.172-.2-.424-.3-.756-.3a1.837 1.837 0 0 0-1.02.276c-.116.068-.224.13-.324.186a.664.664 0 0 1-.33.084.429.429 0 0 1-.258-.078.614.614 0 0 1-.174-.192l-.27-.474c.708-.648 1.562-.972 2.562-.972.36 0 .68.06.96.18.284.116.524.28.72.492.196.208.344.458.444.75.104.292.156.612.156.96v3.888Zm-2.88-.924c.152 0 .292-.014.42-.042.128-.028.248-.07.36-.126.116-.056.226-.124.33-.204.108-.084.216-.182.324-.294v-1.038c-.432.02-.794.058-1.086.114-.288.052-.52.12-.696.204a.923.923 0 0 0-.378.294.664.664 0 0 0-.108.366c0 .26.076.446.228.558.156.112.358.168.606.168Z"/></svg></g><a href="https://ourworldindata.org/grapher/number-of-people-living-in-extreme-poverty-by-region-190?time=1945..latest" style="font-family:&#x27;Playfair Display&#x27;, Georgia, &#x27;Times New Roman&#x27;, &#x27;Liberation Serif&#x27;, serif" target="_blank" rel="noopener"><text font-size="23.75" font-weight="500" x="16.0" y="39.0" fill="#5b5b5b"><tspan x="16" y="39.0375">Number of people living in extreme poverty by region, 1945 to 2018</tspan></text></a><text x="16.0" y="62.7" style="font-size:14.625px;line-height:1.2" fill="#5b5b5b"><tspan x="16" y="62.7">Extreme poverty is defined as living below the International Poverty Line of $1.90 per day. Data after 1981 relates</tspan><tspan x="16" y="80.2">to household income or expenditure surveys collated by the World Bank; before 1981 it is based on historical</tspan><tspan x="16" y="97.8">reconstructions of GDP per capita and inequality data.</tspan></text></g><g style="pointer-events:none"><g class="StackedArea"><defs><clipPath id="boundsClip-9"><rect x="85.665" y="117.14999999999999" width="818" height="832.9000000000001"></rect></clipPath></defs><rect x="16" y="117.14999999999999" width="818" height="416.45000000000005" fill="none"></rect><g class="DualAxisView"><g class="HorizontalAxis"><line x1="85.7" y1="513.1" x2="85.7" y2="518.1" stroke="#999" stroke-width="1"></line><line x1="697.6" y1="513.1" x2="697.6" y2="518.1" stroke="#999" stroke-width="1"></line><line x1="211.4" y1="513.1" x2="211.4" y2="518.1" stroke="#999" stroke-width="1"></line><line x1="295.2" y1="513.1" x2="295.2" y2="518.1" stroke="#999" stroke-width="1"></line><line x1="379.1" y1="513.1" x2="379.1" y2="518.1" stroke="#999" stroke-width="1"></line><line x1="462.9" y1="513.1" x2="462.9" y2="518.1" stroke="#999" stroke-width="1"></line><line x1="546.7" y1="513.1" x2="546.7" y2="518.1" stroke="#999" stroke-width="1"></line><line x1="630.6" y1="513.1" x2="630.6" y2="518.1" stroke="#999" stroke-width="1"></line><text x="85.665" y="531.6" fill="#5b5b5b" text-anchor="start" font-size="13.5">1945</text><text x="697.615" y="531.6" fill="#5b5b5b" text-anchor="end" font-size="13.5">2018</text><text x="211.4" y="531.6" fill="#5b5b5b" text-anchor="middle" font-size="13.5">1960</text><text x="295.2" y="531.6" fill="#5b5b5b" text-anchor="middle" font-size="13.5">1970</text><text x="379.1" y="531.6" fill="#5b5b5b" text-anchor="middle" font-size="13.5">1980</text><text x="462.9" y="531.6" fill="#5b5b5b" text-anchor="middle" font-size="13.5">1990</text><text x="546.7" y="531.6" fill="#5b5b5b" text-anchor="middle" font-size="13.5">2000</text><text x="630.6" y="531.6" fill="#5b5b5b" text-anchor="middle" font-size="13.5">2010</text></g><g class="VerticalAxis"><text x="80.67" y="513.1" dy=".32em" text-anchor="end" fill="#5b5b5b" font-size="13.5">0</text><text x="80.67" y="417" dy=".32em" text-anchor="end" fill="#5b5b5b" font-size="13.5">500 million</text><text x="80.67" y="320.8" dy=".32em" text-anchor="end" fill="#5b5b5b" font-size="13.5">1 billion</text><text x="80.67" y="224.7" dy=".32em" text-anchor="end" fill="#5b5b5b" font-size="13.5">1.5 billion</text><text x="80.67" y="128.5" dy=".32em" text-anchor="end" fill="#5b5b5b" font-size="13.5">2 billion</text></g><g class="AxisGridLines horizontalLines"><line x1="85.67" y1="513.1" x2="697.62" y2="513.1" stroke="#999" stroke-width="1"></line><line x1="85.67" y1="417" x2="697.62" y2="417" stroke="#ddd" stroke-width="1" stroke-dasharray="3,2"></line><line x1="85.67" y1="320.8" x2="697.62" y2="320.8" stroke="#ddd" stroke-width="1" stroke-dasharray="3,2"></line><line x1="85.67" y1="224.7" x2="697.62" y2="224.7" stroke="#ddd" stroke-width="1" stroke-dasharray="3,2"></line><line x1="85.67" y1="128.5" x2="697.62" y2="128.5" stroke="#ddd" stroke-width="1" stroke-dasharray="3,2"></line></g></g><g clip-path="url(#boundsClip-9)"><g class="LineLabels" style="cursor:default"><g class="legendMark"><g class="indicator"><path d="M701.615,421.8 H704.615 V229.10000000000002 H728.615" stroke="#999" stroke-width="0.5" fill="none"></path></g><rect x="697.615" y="215.60000000000002" width="133.41500000000002" height="27" fill="#fff" opacity="0"></rect><text font-size="13.50" font-weight="400" x="732.6" y="227.3" fill="#4c6a9c"><tspan x="732.615" y="227.34500000000003">Sub-Saharan</tspan><tspan x="732.615" y="240.84500000000003">Africa (Moatsos)</tspan></text></g><g class="legendMark"><g class="indicator"><path d="M701.615,463 H707.615 V264.85 H728.615" stroke="#999" stroke-width="0.5" fill="none"></path></g><rect x="697.615" y="244.60000000000002" width="95.075" height="40.5" fill="#fff" opacity="0"></rect><text font-size="13.50" font-weight="400" x="732.6" y="256.3" fill="#883039"><tspan x="732.615" y="256.345">Western</tspan><tspan x="732.615" y="269.845">offshoots</tspan><tspan x="732.615" y="283.345">(Moatsos)</tspan></text></g><g class="legendMark"><g class="indicator"><path d="M701.615,463.6 H710.615 V300.6 H728.615" stroke="#999" stroke-width="0.5" fill="none"></path></g><rect x="697.615" y="287.1" width="132.875" height="27" fill="#fff" opacity="0"></rect><text font-size="13.50" font-weight="400" x="732.6" y="298.8" fill="#578145"><tspan x="732.615" y="298.845">Western Europe</tspan><tspan x="732.615" y="312.345">(Moatsos)</tspan></text></g><g class="legendMark"><g class="indicator"><path d="M701.615,466.3 H713.615 V336.35 H728.615" stroke="#999" stroke-width="0.5" fill="none"></path></g><rect x="697.615" y="316.1" width="132.2" height="40.5" fill="#fff" opacity="0"></rect><text font-size="13.50" font-weight="400" x="732.6" y="327.8" fill="#b13507"><tspan x="732.615" y="327.845">Middle East and</tspan><tspan x="732.615" y="341.345">North Africa</tspan><tspan x="732.615" y="354.845">(Moatsos)</tspan></text></g><g class="legendMark"><g class="indicator"><path d="M701.615,471.4 H716.615 V378.85 H728.615" stroke="#999" stroke-width="0.5" fill="none"></path></g><rect x="697.615" y="358.6" width="123.965" height="40.5" fill="#fff" opacity="0"></rect><text font-size="13.50" font-weight="400" x="732.6" y="370.3" fill="#b16214"><tspan x="732.615" y="370.345">Latin America</tspan><tspan x="732.615" y="383.845">and Caribbean</tspan><tspan x="732.615" y="397.345">(Moatsos)</tspan></text></g><g class="legendMark"><g class="indicator"><path d="M701.615,474.1 H719.615 V421.35 H728.615" stroke="#999" stroke-width="0.5" fill="none"></path></g><rect x="697.615" y="401.1" width="136.385" height="40.5" fill="#fff" opacity="0"></rect><text font-size="13.50" font-weight="400" x="732.6" y="412.8" fill="#970046"><tspan x="732.615" y="412.845">Eastern Europe</tspan><tspan x="732.615" y="426.345">and former</tspan><tspan x="732.615" y="439.845">USSR (Moatsos)</tspan></text></g><g class="legendMark"><g class="indicator"><path d="M701.615,474.8 H722.615 V457.1 H728.615" stroke="#999" stroke-width="0.5" fill="none"></path></g><rect x="697.615" y="443.6" width="95.075" height="27" fill="#fff" opacity="0"></rect><text font-size="13.50" font-weight="400" x="732.6" y="455.3" fill="#d73c50"><tspan x="732.615" y="455.345">East Asia</tspan><tspan x="732.615" y="468.845">(Moatsos)</tspan></text></g><g class="legendMark"><g class="indicator"><path d="M701.615,494.3 H725.615 V492.85 H728.615" stroke="#999" stroke-width="0.5" fill="none"></path></g><rect x="697.615" y="472.6" width="132.2" height="40.5" fill="#fff" opacity="0"></rect><text font-size="13.50" font-weight="400" x="732.6" y="484.3" fill="#00295b"><tspan x="732.615" y="484.345">South and</tspan><tspan x="732.615" y="497.845">South-East Asia</tspan><tspan x="732.615" y="511.345">(Moatsos)</tspan></text></g></g><g class="Areas"><rect x="85.665" y="123.14999999999999" width="611.95" height="389.95000000000005" opacity="0" fill="rgba(255,255,255,0)"></rect><path class="South-and-South__002dEast-Asia-__0028Moatsos__0029-area" stroke-linecap="round" d="M85.7 437.5L94 432.4L102.4 439.5L110.8 438.6L119.2 438L127.6 429.4L136 428.2L144.3 427.3L152.7 425.6L161.1 419.3L169.5 419.8L177.9 421.9L186.3 418.5L194.6 414.9L203 411.7L211.4 404.2L219.8 407.1L228.2 400.4L236.6 409.4L244.9 402.2L253.3 399L261.7 393.9L270.1 393L278.5 390.8L286.9 391.2L295.2 388.8L303.6 385.3L312 380.8L320.4 377.5L328.8 375.8L337.2 377.2L345.5 375.4L353.9 372.5L362.3 375.3L370.7 374.5L379.1 375.8L387.4 375.2L395.8 375.4L404.2 376.8L412.6 376.7L421 378.5L429.4 377.4L437.7 375L446.1 373.8L454.5 373.4L462.9 376L471.3 373.9L479.7 372.6L488 374.6L496.4 375.4L504.8 377.9L513.2 384.7L521.6 380.8L530 372.2L538.3 382.9L546.7 384.3L555.1 385.8L563.5 388.4L571.9 387L580.3 395.3L588.6 400.4L597 399.3L605.4 407.1L613.8 408.7L622.2 415L630.6 427.2L638.9 439.8L647.3 444.5L655.7 450.4L664.1 455.5L672.5 460.6L680.8 466.1L689.2 469.5L697.6 475.4L697.6 513.1L85.7 513.1" fill="#00295B" fill-opacity="0.8"></path><path class="East-Asia-__0028Moatsos__0029-area" stroke-linecap="round" d="M85.7 327.3L94 321.9L102.4 329.8L110.8 328.9L119.2 327.2L127.6 319.4L136 319.5L144.3 319.3L152.7 318.6L161.1 307.6L169.5 306.1L177.9 307.5L186.3 300.4L194.6 292.8L203 285.4L211.4 276.6L219.8 277.4L228.2 270.2L236.6 275.3L244.9 264.6L253.3 258.5L261.7 251.1L270.1 245.8L278.5 239.8L286.9 236L295.2 229L303.6 221.7L312 213.7L320.4 206.9L328.8 201.7L337.2 199.9L345.5 193.4L353.9 185.6L362.3 189.1L370.7 190.9L379.1 187.9L387.4 200.6L395.8 203.7L404.2 208.6L412.6 221.2L421 237.4L429.4 242.1L437.7 244.4L446.1 234.1L454.5 227.6L462.9 226.1L471.3 228.4L479.7 233.6L488 241.4L496.4 248.3L504.8 263.4L513.2 283.4L521.6 278.9L530 270.2L538.3 282.3L546.7 293.9L555.1 299.2L563.5 307.5L571.9 315.3L580.3 334.7L588.6 352.3L597 354.2L605.4 366.3L613.8 369.5L622.2 380.1L630.6 397.2L638.9 418.5L647.3 427L655.7 445.3L664.1 451.8L672.5 458.6L680.8 464.5L689.2 468L697.6 474.2L697.6 475.4L689.2 469.5L680.8 466.1L672.5 460.6L664.1 455.5L655.7 450.4L647.3 444.5L638.9 439.8L630.6 427.2L622.2 415L613.8 408.7L605.4 407.1L597 399.3L588.6 400.4L580.3 395.3L571.9 387L563.5 388.4L555.1 385.8L546.7 384.3L538.3 382.9L530 372.2L521.6 380.8L513.2 384.7L504.8 377.9L496.4 375.4L488 374.6L479.7 372.6L471.3 373.9L462.9 376L454.5 373.4L446.1 373.8L437.7 375L429.4 377.4L421 378.5L412.6 376.7L404.2 376.8L395.8 375.4L387.4 375.2L379.1 375.8L370.7 374.5L362.3 375.3L353.9 372.5L345.5 375.4L337.2 377.2L328.8 375.8L320.4 377.5L312 380.8L303.6 385.3L295.2 388.8L286.9 391.2L278.5 390.8L270.1 393L261.7 393.9L253.3 399L244.9 402.2L236.6 409.4L228.2 400.4L219.8 407.1L211.4 404.2L203 411.7L194.6 414.9L186.3 418.5L177.9 421.9L169.5 419.8L161.1 419.3L152.7 425.6L144.3 427.3L136 428.2L127.6 429.4L119.2 438L110.8 438.6L102.4 439.5L94 432.4L85.7 437.5" fill="#D73C50" fill-opacity="0.8"></path><path class="Eastern-Europe-and-former-USSR-__0028Moatsos__0029-area" stroke-linecap="round" d="M85.7 307L94 301.7L102.4 312.1L110.8 315.8L119.2 315.3L127.6 308.4L136 309.2L144.3 309.9L152.7 310.1L161.1 299.8L169.5 300L177.9 302L186.3 295.6L194.6 288.7L203 281.5L211.4 273.6L219.8 275L228.2 268.1L236.6 273.3L244.9 263.3L253.3 257.4L261.7 250.3L270.1 245.1L278.5 239.2L286.9 235.6L295.2 228.6L303.6 221.4L312 213.4L320.4 206.6L328.8 201.4L337.2 199.5L345.5 193L353.9 185.2L362.3 188.7L370.7 190.4L379.1 187.4L387.4 200.5L395.8 203.5L404.2 208.5L412.6 221.1L421 237.1L429.4 242L437.7 244.2L446.1 234L454.5 227.5L462.9 225.9L471.3 228.1L479.7 232.5L488 239.5L496.4 245.5L504.8 260.2L513.2 280.3L521.6 276.6L530 267.9L538.3 278.8L546.7 290.8L555.1 297.1L563.5 306L571.9 314.1L580.3 333.8L588.6 351.4L597 353.6L605.4 365.9L613.8 369.3L622.2 379.9L630.6 397L638.9 418.3L647.3 426.8L655.7 445.1L664.1 451.2L672.5 458.1L680.8 464.4L689.2 467.9L697.6 474L697.6 474.2L689.2 468L680.8 464.5L672.5 458.6L664.1 451.8L655.7 445.3L647.3 427L638.9 418.5L630.6 397.2L622.2 380.1L613.8 369.5L605.4 366.3L597 354.2L588.6 352.3L580.3 334.7L571.9 315.3L563.5 307.5L555.1 299.2L546.7 293.9L538.3 282.3L530 270.2L521.6 278.9L513.2 283.4L504.8 263.4L496.4 248.3L488 241.4L479.7 233.6L471.3 228.4L462.9 226.1L454.5 227.6L446.1 234.1L437.7 244.4L429.4 242.1L421 237.4L412.6 221.2L404.2 208.6L395.8 203.7L387.4 200.6L379.1 187.9L370.7 190.9L362.3 189.1L353.9 185.6L345.5 193.4L337.2 199.9L328.8 201.7L320.4 206.9L312 213.7L303.6 221.7L295.2 229L286.9 236L278.5 239.8L270.1 245.8L261.7 251.1L253.3 258.5L244.9 264.6L236.6 275.3L228.2 270.2L219.8 277.4L211.4 276.6L203 285.4L194.6 292.8L186.3 300.4L177.9 307.5L169.5 306.1L161.1 307.6L152.7 318.6L144.3 319.3L136 319.5L127.6 319.4L119.2 327.2L110.8 328.9L102.4 329.8L94 321.9L85.7 327.3" fill="#970046" fill-opacity="0.8"></path><path class="Latin-America-and-Caribbean-__0028Moatsos__0029-area" stroke-linecap="round" d="M85.7 294.9L94 290.2L102.4 299.9L110.8 304L119.2 303.4L127.6 296L136 297.1L144.3 297.4L152.7 296.7L161.1 286.6L169.5 286.5L177.9 288.7L186.3 281L194.6 274.1L203 266.3L211.4 258.5L219.8 259.2L228.2 253.9L236.6 258.7L244.9 248.8L253.3 241.7L261.7 234.7L270.1 230.1L278.5 224.2L286.9 219.7L295.2 212L303.6 205.1L312 198L320.4 192.9L328.8 190L337.2 187.2L345.5 181.7L353.9 174.2L362.3 179.5L370.7 181.6L379.1 178.7L387.4 190.5L395.8 193.1L404.2 195.7L412.6 208.4L421 225.5L429.4 233.5L437.7 233.6L446.1 222.6L454.5 216.2L462.9 213.9L471.3 215.9L479.7 219.5L488 227L496.4 234L504.8 248.9L513.2 268L521.6 263.8L530 255L538.3 266L546.7 279.8L555.1 285.2L563.5 294.4L571.9 302.8L580.3 323.5L588.6 341.6L597 345.4L605.4 358L613.8 362.3L622.2 373.1L630.6 390.7L638.9 412.5L647.3 421.7L655.7 440.2L664.1 444.9L672.5 452.1L680.8 458.4L689.2 460.3L697.6 468.7L697.6 474L689.2 467.9L680.8 464.4L672.5 458.1L664.1 451.2L655.7 445.1L647.3 426.8L638.9 418.3L630.6 397L622.2 379.9L613.8 369.3L605.4 365.9L597 353.6L588.6 351.4L580.3 333.8L571.9 314.1L563.5 306L555.1 297.1L546.7 290.8L538.3 278.8L530 267.9L521.6 276.6L513.2 280.3L504.8 260.2L496.4 245.5L488 239.5L479.7 232.5L471.3 228.1L462.9 225.9L454.5 227.5L446.1 234L437.7 244.2L429.4 242L421 237.1L412.6 221.1L404.2 208.5L395.8 203.5L387.4 200.5L379.1 187.4L370.7 190.4L362.3 188.7L353.9 185.2L345.5 193L337.2 199.5L328.8 201.4L320.4 206.6L312 213.4L303.6 221.4L295.2 228.6L286.9 235.6L278.5 239.2L270.1 245.1L261.7 250.3L253.3 257.4L244.9 263.3L236.6 273.3L228.2 268.1L219.8 275L211.4 273.6L203 281.5L194.6 288.7L186.3 295.6L177.9 302L169.5 300L161.1 299.8L152.7 310.1L144.3 309.9L136 309.2L127.6 308.4L119.2 315.3L110.8 315.8L102.4 312.1L94 301.7L85.7 307" fill="#B16214" fill-opacity="0.8"></path><path class="Middle-East-and-North-Africa-__0028Moatsos__0029-area" stroke-linecap="round" d="M85.7 286.4L94 282.1L102.4 291.9L110.8 296.2L119.2 295.5L127.6 288.1L136 288.2L144.3 288.4L152.7 287.4L161.1 276.8L169.5 276.4L177.9 278.3L186.3 270.6L194.6 263.1L203 256L211.4 247.5L219.8 247.9L228.2 242.8L236.6 247.8L244.9 237.5L253.3 229.9L261.7 223L270.1 218L278.5 212.1L286.9 208.4L295.2 202.3L303.6 193.9L312 187.8L320.4 184.1L328.8 182.5L337.2 179.9L345.5 175.3L353.9 167.7L362.3 172.6L370.7 175.9L379.1 172.2L387.4 183.3L395.8 186.4L404.2 188.8L412.6 201.6L421 218.6L429.4 226.8L437.7 227.9L446.1 217L454.5 210L462.9 208.7L471.3 210.8L479.7 214.6L488 222.1L496.4 228.8L504.8 243.8L513.2 263.1L521.6 258.9L530 250.2L538.3 261.4L546.7 274.9L555.1 280.9L563.5 290.1L571.9 298L580.3 319.3L588.6 337.5L597 342L605.4 354.8L613.8 359.1L622.2 370.4L630.6 388.3L638.9 409.7L647.3 418L655.7 436.4L664.1 441.5L672.5 448.1L680.8 454.5L689.2 455.8L697.6 463.8L697.6 468.7L689.2 460.3L680.8 458.4L672.5 452.1L664.1 444.9L655.7 440.2L647.3 421.7L638.9 412.5L630.6 390.7L622.2 373.1L613.8 362.3L605.4 358L597 345.4L588.6 341.6L580.3 323.5L571.9 302.8L563.5 294.4L555.1 285.2L546.7 279.8L538.3 266L530 255L521.6 263.8L513.2 268L504.8 248.9L496.4 234L488 227L479.7 219.5L471.3 215.9L462.9 213.9L454.5 216.2L446.1 222.6L437.7 233.6L429.4 233.5L421 225.5L412.6 208.4L404.2 195.7L395.8 193.1L387.4 190.5L379.1 178.7L370.7 181.6L362.3 179.5L353.9 174.2L345.5 181.7L337.2 187.2L328.8 190L320.4 192.9L312 198L303.6 205.1L295.2 212L286.9 219.7L278.5 224.2L270.1 230.1L261.7 234.7L253.3 241.7L244.9 248.8L236.6 258.7L228.2 253.9L219.8 259.2L211.4 258.5L203 266.3L194.6 274.1L186.3 281L177.9 288.7L169.5 286.5L161.1 286.6L152.7 296.7L144.3 297.4L136 297.1L127.6 296L119.2 303.4L110.8 304L102.4 299.9L94 290.2L85.7 294.9" fill="#B13507" fill-opacity="0.8"></path><path class="Western-Europe-__0028Moatsos__0029-area" stroke-linecap="round" d="M85.7 274.1L94 272.2L102.4 284L110.8 289.6L119.2 290.3L127.6 283.8L136 283.8L144.3 284.6L152.7 284L161.1 274.2L169.5 274.4L177.9 276.9L186.3 269L194.6 261.5L203 254.2L211.4 245.6L219.8 246.5L228.2 241.9L236.6 247.1L244.9 236.9L253.3 229.4L261.7 222.5L270.1 217.5L278.5 211.7L286.9 208.2L295.2 202.1L303.6 193.7L312 187.7L320.4 184L328.8 182.5L337.2 179.9L345.5 175.2L353.9 167.7L362.3 172.5L370.7 175.9L379.1 172.2L387.4 183.3L395.8 186.4L404.2 188.8L412.6 201.6L421 218.6L429.4 226.8L437.7 227.9L446.1 217L454.5 210L462.9 208.7L471.3 210.8L479.7 214.6L488 222L496.4 228.8L504.8 243.7L513.2 263L521.6 258.9L530 250.2L538.3 261.4L546.7 274.9L555.1 280.9L563.5 290.1L571.9 297.8L580.3 319L588.6 337.3L597 341.8L605.4 354.6L613.8 358.9L622.2 370.2L630.6 388L638.9 409.4L647.3 417.7L655.7 436L664.1 441.2L672.5 447.7L680.8 454.1L689.2 455.4L697.6 463.4L697.6 463.8L689.2 455.8L680.8 454.5L672.5 448.1L664.1 441.5L655.7 436.4L647.3 418L638.9 409.7L630.6 388.3L622.2 370.4L613.8 359.1L605.4 354.8L597 342L588.6 337.5L580.3 319.3L571.9 298L563.5 290.1L555.1 280.9L546.7 274.9L538.3 261.4L530 250.2L521.6 258.9L513.2 263.1L504.8 243.8L496.4 228.8L488 222.1L479.7 214.6L471.3 210.8L462.9 208.7L454.5 210L446.1 217L437.7 227.9L429.4 226.8L421 218.6L412.6 201.6L404.2 188.8L395.8 186.4L387.4 183.3L379.1 172.2L370.7 175.9L362.3 172.6L353.9 167.7L345.5 175.3L337.2 179.9L328.8 182.5L320.4 184.1L312 187.8L303.6 193.9L295.2 202.3L286.9 208.4L278.5 212.1L270.1 218L261.7 223L253.3 229.9L244.9 237.5L236.6 247.8L228.2 242.8L219.8 247.9L211.4 247.5L203 256L194.6 263.1L186.3 270.6L177.9 278.3L169.5 276.4L161.1 276.8L152.7 287.4L144.3 288.4L136 288.2L127.6 288.1L119.2 295.5L110.8 296.2L102.4 291.9L94 282.1L85.7 286.4" fill="#578145" fill-opacity="0.8"></path><path class="Western-offshoots-__0028Moatsos__0029-area" stroke-linecap="round" d="M85.7 274.1L94 272.1L102.4 283.9L110.8 289.5L119.2 290.2L127.6 283.7L136 283.7L144.3 284.6L152.7 283.9L161.1 274.2L169.5 274.4L177.9 276.8L186.3 269L194.6 261.4L203 254.2L211.4 245.6L219.8 246.5L228.2 241.8L236.6 247.1L244.9 236.9L253.3 229.4L261.7 222.5L270.1 217.5L278.5 211.7L286.9 208.2L295.2 202.1L303.6 193.7L312 187.7L320.4 184L328.8 182.5L337.2 179.9L345.5 175.2L353.9 167.7L362.3 172.5L370.7 175.7L379.1 171.9L387.4 183L395.8 186.1L404.2 188.5L412.6 201.4L421 218.4L429.4 226.6L437.7 227.7L446.1 216.7L454.5 209.8L462.9 208.4L471.3 210.5L479.7 214.2L488 221.7L496.4 228.3L504.8 243.3L513.2 262.6L521.6 258.4L530 249.8L538.3 260.9L546.7 274.5L555.1 280.4L563.5 289.6L571.9 297.2L580.3 318.4L588.6 336.7L597 341.2L605.4 354L613.8 358.3L622.2 369.6L630.6 387.3L638.9 408.7L647.3 417L655.7 435.4L664.1 440.5L672.5 446.9L680.8 453.2L689.2 454.5L697.6 462.5L697.6 463.4L689.2 455.4L680.8 454.1L672.5 447.7L664.1 441.2L655.7 436L647.3 417.7L638.9 409.4L630.6 388L622.2 370.2L613.8 358.9L605.4 354.6L597 341.8L588.6 337.3L580.3 319L571.9 297.8L563.5 290.1L555.1 280.9L546.7 274.9L538.3 261.4L530 250.2L521.6 258.9L513.2 263L504.8 243.7L496.4 228.8L488 222L479.7 214.6L471.3 210.8L462.9 208.7L454.5 210L446.1 217L437.7 227.9L429.4 226.8L421 218.6L412.6 201.6L404.2 188.8L395.8 186.4L387.4 183.3L379.1 172.2L370.7 175.9L362.3 172.5L353.9 167.7L345.5 175.2L337.2 179.9L328.8 182.5L320.4 184L312 187.7L303.6 193.7L295.2 202.1L286.9 208.2L278.5 211.7L270.1 217.5L261.7 222.5L253.3 229.4L244.9 236.9L236.6 247.1L228.2 241.9L219.8 246.5L211.4 245.6L203 254.2L194.6 261.5L186.3 269L177.9 276.9L169.5 274.4L161.1 274.2L152.7 284L144.3 284.6L136 283.8L127.6 283.8L119.2 290.3L110.8 289.6L102.4 284L94 272.2L85.7 274.1" fill="#883039" fill-opacity="0.8"></path><path class="Sub__002dSaharan-Africa-__0028Moatsos__0029-area" stroke-linecap="round" d="M85.7 265.9L94 264L102.4 275.8L110.8 281.3L119.2 282L127.6 257.6L136 257.3L144.3 257.7L152.7 256.7L161.1 246.5L169.5 246.3L177.9 248.2L186.3 239.7L194.6 231.5L203 223.8L211.4 214.4L219.8 215L228.2 209.9L236.6 214.6L244.9 203.8L253.3 195.6L261.7 188L270.1 182L278.5 175.5L286.9 171.6L295.2 166L303.6 155.8L312 149.1L320.4 143.9L328.8 141.9L337.2 137.5L345.5 131.7L353.9 123.1L362.3 127L370.7 128.5L379.1 124.3L387.4 133.2L395.8 134.1L404.2 136L412.6 149.4L421 168L429.4 174.6L437.7 175.4L446.1 163.4L454.5 150.2L462.9 147.2L471.3 148.1L479.7 152.8L488 159L496.4 162.8L504.8 176.5L513.2 195.9L521.6 189.4L530 176.6L538.3 192.3L546.7 200.5L555.1 210.5L563.5 224.7L571.9 228.8L580.3 249.1L588.6 266.8L597 271.4L605.4 285.1L613.8 286L622.2 296.6L630.6 314.6L638.9 329.4L647.3 339.6L655.7 363.4L664.1 368.3L672.5 358.3L680.8 372.1L689.2 372.4L697.6 381.1L697.6 462.5L689.2 454.5L680.8 453.2L672.5 446.9L664.1 440.5L655.7 435.4L647.3 417L638.9 408.7L630.6 387.3L622.2 369.6L613.8 358.3L605.4 354L597 341.2L588.6 336.7L580.3 318.4L571.9 297.2L563.5 289.6L555.1 280.4L546.7 274.5L538.3 260.9L530 249.8L521.6 258.4L513.2 262.6L504.8 243.3L496.4 228.3L488 221.7L479.7 214.2L471.3 210.5L462.9 208.4L454.5 209.8L446.1 216.7L437.7 227.7L429.4 226.6L421 218.4L412.6 201.4L404.2 188.5L395.8 186.1L387.4 183L379.1 171.9L370.7 175.7L362.3 172.5L353.9 167.7L345.5 175.2L337.2 179.9L328.8 182.5L320.4 184L312 187.7L303.6 193.7L295.2 202.1L286.9 208.2L278.5 211.7L270.1 217.5L261.7 222.5L253.3 229.4L244.9 236.9L236.6 247.1L228.2 241.8L219.8 246.5L211.4 245.6L203 254.2L194.6 261.4L186.3 269L177.9 276.8L169.5 274.4L161.1 274.2L152.7 283.9L144.3 284.6L136 283.7L127.6 283.7L119.2 290.2L110.8 289.5L102.4 283.9L94 272.1L85.7 274.1" fill="#4C6A9C" fill-opacity="0.8"></path><path class="South-and-South__002dEast-Asia-__0028Moatsos__0029-border" stroke-linecap="round" d="M85.7 437.5L94 432.4L102.4 439.5L110.8 438.6L119.2 438L127.6 429.4L136 428.2L144.3 427.3L152.7 425.6L161.1 419.3L169.5 419.8L177.9 421.9L186.3 418.5L194.6 414.9L203 411.7L211.4 404.2L219.8 407.1L228.2 400.4L236.6 409.4L244.9 402.2L253.3 399L261.7 393.9L270.1 393L278.5 390.8L286.9 391.2L295.2 388.8L303.6 385.3L312 380.8L320.4 377.5L328.8 375.8L337.2 377.2L345.5 375.4L353.9 372.5L362.3 375.3L370.7 374.5L379.1 375.8L387.4 375.2L395.8 375.4L404.2 376.8L412.6 376.7L421 378.5L429.4 377.4L437.7 375L446.1 373.8L454.5 373.4L462.9 376L471.3 373.9L479.7 372.6L488 374.6L496.4 375.4L504.8 377.9L513.2 384.7L521.6 380.8L530 372.2L538.3 382.9L546.7 384.3L555.1 385.8L563.5 388.4L571.9 387L580.3 395.3L588.6 400.4L597 399.3L605.4 407.1L613.8 408.7L622.2 415L630.6 427.2L638.9 439.8L647.3 444.5L655.7 450.4L664.1 455.5L672.5 460.6L680.8 466.1L689.2 469.5L697.6 475.4" stroke="rgb(0, 34, 76)" stroke-opacity="0.7" stroke-width="0.5" fill="none"></path><path class="East-Asia-__0028Moatsos__0029-border" stroke-linecap="round" d="M85.7 327.3L94 321.9L102.4 329.8L110.8 328.9L119.2 327.2L127.6 319.4L136 319.5L144.3 319.3L152.7 318.6L161.1 307.6L169.5 306.1L177.9 307.5L186.3 300.4L194.6 292.8L203 285.4L211.4 276.6L219.8 277.4L228.2 270.2L236.6 275.3L244.9 264.6L253.3 258.5L261.7 251.1L270.1 245.8L278.5 239.8L286.9 236L295.2 229L303.6 221.7L312 213.7L320.4 206.9L328.8 201.7L337.2 199.9L345.5 193.4L353.9 185.6L362.3 189.1L370.7 190.9L379.1 187.9L387.4 200.6L395.8 203.7L404.2 208.6L412.6 221.2L421 237.4L429.4 242.1L437.7 244.4L446.1 234.1L454.5 227.6L462.9 226.1L471.3 228.4L479.7 233.6L488 241.4L496.4 248.3L504.8 263.4L513.2 283.4L521.6 278.9L530 270.2L538.3 282.3L546.7 293.9L555.1 299.2L563.5 307.5L571.9 315.3L580.3 334.7L588.6 352.3L597 354.2L605.4 366.3L613.8 369.5L622.2 380.1L630.6 397.2L638.9 418.5L647.3 427L655.7 445.3L664.1 451.8L672.5 458.6L680.8 464.5L689.2 468L697.6 474.2" stroke="rgb(180, 50, 67)" stroke-opacity="0.7" stroke-width="0.5" fill="none"></path><path class="Eastern-Europe-and-former-USSR-__0028Moatsos__0029-border" stroke-linecap="round" d="M85.7 307L94 301.7L102.4 312.1L110.8 315.8L119.2 315.3L127.6 308.4L136 309.2L144.3 309.9L152.7 310.1L161.1 299.8L169.5 300L177.9 302L186.3 295.6L194.6 288.7L203 281.5L211.4 273.6L219.8 275L228.2 268.1L236.6 273.3L244.9 263.3L253.3 257.4L261.7 250.3L270.1 245.1L278.5 239.2L286.9 235.6L295.2 228.6L303.6 221.4L312 213.4L320.4 206.6L328.8 201.4L337.2 199.5L345.5 193L353.9 185.2L362.3 188.7L370.7 190.4L379.1 187.4L387.4 200.5L395.8 203.5L404.2 208.5L412.6 221.1L421 237.1L429.4 242L437.7 244.2L446.1 234L454.5 227.5L462.9 225.9L471.3 228.1L479.7 232.5L488 239.5L496.4 245.5L504.8 260.2L513.2 280.3L521.6 276.6L530 267.9L538.3 278.8L546.7 290.8L555.1 297.1L563.5 306L571.9 314.1L580.3 333.8L588.6 351.4L597 353.6L605.4 365.9L613.8 369.3L622.2 379.9L630.6 397L638.9 418.3L647.3 426.8L655.7 445.1L664.1 451.2L672.5 458.1L680.8 464.4L689.2 467.9L697.6 474" stroke="rgb(126, 0, 59)" stroke-opacity="0.7" stroke-width="0.5" fill="none"></path><path class="Latin-America-and-Caribbean-__0028Moatsos__0029-border" stroke-linecap="round" d="M85.7 294.9L94 290.2L102.4 299.9L110.8 304L119.2 303.4L127.6 296L136 297.1L144.3 297.4L152.7 296.7L161.1 286.6L169.5 286.5L177.9 288.7L186.3 281L194.6 274.1L203 266.3L211.4 258.5L219.8 259.2L228.2 253.9L236.6 258.7L244.9 248.8L253.3 241.7L261.7 234.7L270.1 230.1L278.5 224.2L286.9 219.7L295.2 212L303.6 205.1L312 198L320.4 192.9L328.8 190L337.2 187.2L345.5 181.7L353.9 174.2L362.3 179.5L370.7 181.6L379.1 178.7L387.4 190.5L395.8 193.1L404.2 195.7L412.6 208.4L421 225.5L429.4 233.5L437.7 233.6L446.1 222.6L454.5 216.2L462.9 213.9L471.3 215.9L479.7 219.5L488 227L496.4 234L504.8 248.9L513.2 268L521.6 263.8L530 255L538.3 266L546.7 279.8L555.1 285.2L563.5 294.4L571.9 302.8L580.3 323.5L588.6 341.6L597 345.4L605.4 358L613.8 362.3L622.2 373.1L630.6 390.7L638.9 412.5L647.3 421.7L655.7 440.2L664.1 444.9L672.5 452.1L680.8 458.4L689.2 460.3L697.6 468.7" stroke="rgb(148, 82, 17)" stroke-opacity="0.7" stroke-width="0.5" fill="none"></path><path class="Middle-East-and-North-Africa-__0028Moatsos__0029-border" stroke-linecap="round" d="M85.7 286.4L94 282.1L102.4 291.9L110.8 296.2L119.2 295.5L127.6 288.1L136 288.2L144.3 288.4L152.7 287.4L161.1 276.8L169.5 276.4L177.9 278.3L186.3 270.6L194.6 263.1L203 256L211.4 247.5L219.8 247.9L228.2 242.8L236.6 247.8L244.9 237.5L253.3 229.9L261.7 223L270.1 218L278.5 212.1L286.9 208.4L295.2 202.3L303.6 193.9L312 187.8L320.4 184.1L328.8 182.5L337.2 179.9L345.5 175.3L353.9 167.7L362.3 172.6L370.7 175.9L379.1 172.2L387.4 183.3L395.8 186.4L404.2 188.8L412.6 201.6L421 218.6L429.4 226.8L437.7 227.9L446.1 217L454.5 210L462.9 208.7L471.3 210.8L479.7 214.6L488 222.1L496.4 228.8L504.8 243.8L513.2 263.1L521.6 258.9L530 250.2L538.3 261.4L546.7 274.9L555.1 280.9L563.5 290.1L571.9 298L580.3 319.3L588.6 337.5L597 342L605.4 354.8L613.8 359.1L622.2 370.4L630.6 388.3L638.9 409.7L647.3 418L655.7 436.4L664.1 441.5L672.5 448.1L680.8 454.5L689.2 455.8L697.6 463.8" stroke="rgb(148, 44, 6)" stroke-opacity="0.7" stroke-width="0.5" fill="none"></path><path class="Western-Europe-__0028Moatsos__0029-border" stroke-linecap="round" d="M85.7 274.1L94 272.2L102.4 284L110.8 289.6L119.2 290.3L127.6 283.8L136 283.8L144.3 284.6L152.7 284L161.1 274.2L169.5 274.4L177.9 276.9L186.3 269L194.6 261.5L203 254.2L211.4 245.6L219.8 246.5L228.2 241.9L236.6 247.1L244.9 236.9L253.3 229.4L261.7 222.5L270.1 217.5L278.5 211.7L286.9 208.2L295.2 202.1L303.6 193.7L312 187.7L320.4 184L328.8 182.5L337.2 179.9L345.5 175.2L353.9 167.7L362.3 172.5L370.7 175.9L379.1 172.2L387.4 183.3L395.8 186.4L404.2 188.8L412.6 201.6L421 218.6L429.4 226.8L437.7 227.9L446.1 217L454.5 210L462.9 208.7L471.3 210.8L479.7 214.6L488 222L496.4 228.8L504.8 243.7L513.2 263L521.6 258.9L530 250.2L538.3 261.4L546.7 274.9L555.1 280.9L563.5 290.1L571.9 297.8L580.3 319L588.6 337.3L597 341.8L605.4 354.6L613.8 358.9L622.2 370.2L630.6 388L638.9 409.4L647.3 417.7L655.7 436L664.1 441.2L672.5 447.7L680.8 454.1L689.2 455.4L697.6 463.4" stroke="rgb(73, 108, 58)" stroke-opacity="0.7" stroke-width="0.5" fill="none"></path><path class="Western-offshoots-__0028Moatsos__0029-border" stroke-linecap="round" d="M85.7 274.1L94 272.1L102.4 283.9L110.8 289.5L119.2 290.2L127.6 283.7L136 283.7L144.3 284.6L152.7 283.9L161.1 274.2L169.5 274.4L177.9 276.8L186.3 269L194.6 261.4L203 254.2L211.4 245.6L219.8 246.5L228.2 241.8L236.6 247.1L244.9 236.9L253.3 229.4L261.7 222.5L270.1 217.5L278.5 211.7L286.9 208.2L295.2 202.1L303.6 193.7L312 187.7L320.4 184L328.8 182.5L337.2 179.9L345.5 175.2L353.9 167.7L362.3 172.5L370.7 175.7L379.1 171.9L387.4 183L395.8 186.1L404.2 188.5L412.6 201.4L421 218.4L429.4 226.6L437.7 227.7L446.1 216.7L454.5 209.8L462.9 208.4L471.3 210.5L479.7 214.2L488 221.7L496.4 228.3L504.8 243.3L513.2 262.6L521.6 258.4L530 249.8L538.3 260.9L546.7 274.5L555.1 280.4L563.5 289.6L571.9 297.2L580.3 318.4L588.6 336.7L597 341.2L605.4 354L613.8 358.3L622.2 369.6L630.6 387.3L638.9 408.7L647.3 417L655.7 435.4L664.1 440.5L672.5 446.9L680.8 453.2L689.2 454.5L697.6 462.5" stroke="rgb(114, 40, 48)" stroke-opacity="0.7" stroke-width="0.5" fill="none"></path><path class="Sub__002dSaharan-Africa-__0028Moatsos__0029-border" stroke-linecap="round" d="M85.7 265.9L94 264L102.4 275.8L110.8 281.3L119.2 282L127.6 257.6L136 257.3L144.3 257.7L152.7 256.7L161.1 246.5L169.5 246.3L177.9 248.2L186.3 239.7L194.6 231.5L203 223.8L211.4 214.4L219.8 215L228.2 209.9L236.6 214.6L244.9 203.8L253.3 195.6L261.7 188L270.1 182L278.5 175.5L286.9 171.6L295.2 166L303.6 155.8L312 149.1L320.4 143.9L328.8 141.9L337.2 137.5L345.5 131.7L353.9 123.1L362.3 127L370.7 128.5L379.1 124.3L387.4 133.2L395.8 134.1L404.2 136L412.6 149.4L421 168L429.4 174.6L437.7 175.4L446.1 163.4L454.5 150.2L462.9 147.2L471.3 148.1L479.7 152.8L488 159L496.4 162.8L504.8 176.5L513.2 195.9L521.6 189.4L530 176.6L538.3 192.3L546.7 200.5L555.1 210.5L563.5 224.7L571.9 228.8L580.3 249.1L588.6 266.8L597 271.4L605.4 285.1L613.8 286L622.2 296.6L630.6 314.6L638.9 329.4L647.3 339.6L655.7 363.4L664.1 368.3L672.5 358.3L680.8 372.1L689.2 372.4L697.6 381.1" stroke="rgb(64, 89, 131)" stroke-opacity="0.7" stroke-width="0.5" fill="none"></path></g></g></g></g><g class="SourcesFooter" style="fill:#5b5b5b"><text x="16.0" y="562.7" style="font-size:13.5px;line-height:1.2"><tspan x="16" y="562.7"><tspan style="font-weight:700">Data source:</tspan> Michalis Moatsos (2021)</tspan></text><text x="16.0" y="580.9" style="font-size:13.5px;line-height:1.2"><tspan x="16" y="580.9"><tspan style="font-weight:700">Note:</tspan> Data is measured in <tspan>international-$<tspan style="font-feature-settings:&quot;sups&quot;">ยน</tspan></tspan> at 2011 prices to account for inflation and differences in the cost of living between countries.</tspan></text><text font-size="13.50" x="612.3" y="562.7"><tspan x="612.3299999999999" y="562.695"><a target="_blank" style="fill: #5b5b5b;  text-decoration: underline;" href="https://ourworldindata.org/poverty">OurWorldInData.org/poverty</a> | <a target="_blank" style="fill: #5b5b5b;  text-decoration: underline;" href="https://creativecommons.org/licenses/by/4.0/">CC BY</a></tspan></text></g><line x1="16" y1="600" x2="834" y2="600" stroke="#e7e7e7"></line><g transform="translate(15, 616)"><text x="0.0" y="12.0" style="font-size:12.375px;fill:#5b5b5b;line-height:1.2"><tspan x="0" y="12.0"><tspan style="font-weight:700">1.</tspan> <tspan style="font-weight:700">International dollars</tspan>: International dollars are a hypothetical currency that is used to make meaningful comparisons of monetary indicators of</tspan><tspan x="0" y="26.9">living standards. Figures expressed in international dollars are adjusted for inflation within countries over time, and for differences in the cost of living</tspan><tspan x="0" y="41.7">between countries. The goal of such adjustments is to provide a unit whose purchasing power is held fixed over time and across countries, such that</tspan><tspan x="0" y="56.6">one international dollar can buy the same quantity and quality of goods and services no matter where or when it is spent. Read more in our article:</tspan><tspan x="0" y="71.4">What are Purchasing Power Parity adjustments and why do we need them?</tspan></text></g></svg>