<?xml version="1.0" encoding="utf-8" standalone="no"?>
<!DOCTYPE svg PUBLIC "-//W3C//DTD SVG 1.1//EN"
  "http://www.w3.org/Graphics/SVG/1.1/DTD/svg11.dtd">
<svg xmlns:xlink="http://www.w3.org/1999/xlink" width="864pt" height="432pt" viewBox="0 0 864 432" xmlns="http://www.w3.org/2000/svg" version="1.1">
 <metadata>
  <rdf:RDF xmlns:dc="http://purl.org/dc/elements/1.1/" xmlns:cc="http://creativecommons.org/ns#" xmlns:rdf="http://www.w3.org/1999/02/22-rdf-syntax-ns#">
   <cc:Work>
    <dc:type rdf:resource="http://purl.org/dc/dcmitype/StillImage"/>
    <dc:date>2026-05-25T11:08:11.754110</dc:date>
    <dc:format>image/svg+xml</dc:format>
    <dc:creator>
     <cc:Agent>
      <dc:title>Matplotlib v3.7.2, https://matplotlib.org/</dc:title>
     </cc:Agent>
    </dc:creator>
   </cc:Work>
  </rdf:RDF>
 </metadata>
 <defs>
  <style type="text/css">*{stroke-linejoin: round; stroke-linecap: butt}</style>
 </defs>
 <g id="figure_1">
  <g id="patch_1">
   <path d="M 0 432 
L 864 432 
L 864 0 
L 0 0 
L 0 432 
z
" style="fill: none"/>
  </g>
  <g id="axes_1">
   <g id="patch_2">
    <path d="M 53.75 371.304 
L 836.342511 371.304 
L 836.342511 10.8 
L 53.75 10.8 
L 53.75 371.304 
z
" style="fill: none"/>
   </g>
   <g id="matplotlib.axis_1">
    <g id="xtick_1">
     <g id="line2d_1">
      <path d="M 89.322387 371.304 
L 89.322387 10.8 
" clip-path="url(#p44a46a377a)" style="fill: none; stroke-dasharray: 1.85,0.8; stroke-dashoffset: 0; stroke: #808080; stroke-width: 0.5"/>
     </g>
     <g id="line2d_2">
      <defs>
       <path id="m1d06eddd9c" d="M 0 0 
L 0 3.5 
" style="stroke: #ffffff; stroke-width: 0.8"/>
      </defs>
      <g>
       <use xlink:href="#m1d06eddd9c" x="89.322387" y="371.304" style="fill: #ffffff; stroke: #ffffff; stroke-width: 0.8"/>
      </g>
     </g>
     <g id="text_1">
      <!-- 2025-07 -->
      <g style="fill: #ffffff" transform="translate(68.430981 385.902438) scale(0.1 -0.1)">
       <defs>
        <path id="DejaVuSans-32" d="M 1228 531 
L 3431 531 
L 3431 0 
L 469 0 
L 469 531 
Q 828 903 1448 1529 
Q 2069 2156 2228 2338 
Q 2531 2678 2651 2914 
Q 2772 3150 2772 3378 
Q 2772 3750 2511 3984 
Q 2250 4219 1831 4219 
Q 1534 4219 1204 4116 
Q 875 4013 500 3803 
L 500 4441 
Q 881 4594 1212 4672 
Q 1544 4750 1819 4750 
Q 2544 4750 2975 4387 
Q 3406 4025 3406 3419 
Q 3406 3131 3298 2873 
Q 3191 2616 2906 2266 
Q 2828 2175 2409 1742 
Q 1991 1309 1228 531 
z
" transform="scale(0.015625)"/>
        <path id="DejaVuSans-30" d="M 2034 4250 
Q 1547 4250 1301 3770 
Q 1056 3291 1056 2328 
Q 1056 1369 1301 889 
Q 1547 409 2034 409 
Q 2525 409 2770 889 
Q 3016 1369 3016 2328 
Q 3016 3291 2770 3770 
Q 2525 4250 2034 4250 
z
M 2034 4750 
Q 2819 4750 3233 4129 
Q 3647 3509 3647 2328 
Q 3647 1150 3233 529 
Q 2819 -91 2034 -91 
Q 1250 -91 836 529 
Q 422 1150 422 2328 
Q 422 3509 836 4129 
Q 1250 4750 2034 4750 
z
" transform="scale(0.015625)"/>
        <path id="DejaVuSans-35" d="M 691 4666 
L 3169 4666 
L 3169 4134 
L 1269 4134 
L 1269 2991 
Q 1406 3038 1543 3061 
Q 1681 3084 1819 3084 
Q 2600 3084 3056 2656 
Q 3513 2228 3513 1497 
Q 3513 744 3044 326 
Q 2575 -91 1722 -91 
Q 1428 -91 1123 -41 
Q 819 9 494 109 
L 494 744 
Q 775 591 1075 516 
Q 1375 441 1709 441 
Q 2250 441 2565 725 
Q 2881 1009 2881 1497 
Q 2881 1984 2565 2268 
Q 2250 2553 1709 2553 
Q 1456 2553 1204 2497 
Q 953 2441 691 2322 
L 691 4666 
z
" transform="scale(0.015625)"/>
        <path id="DejaVuSans-2d" d="M 313 2009 
L 1997 2009 
L 1997 1497 
L 313 1497 
L 313 2009 
z
" transform="scale(0.015625)"/>
        <path id="DejaVuSans-37" d="M 525 4666 
L 3525 4666 
L 3525 4397 
L 1831 0 
L 1172 0 
L 2766 4134 
L 525 4134 
L 525 4666 
z
" transform="scale(0.015625)"/>
       </defs>
       <use xlink:href="#DejaVuSans-32"/>
       <use xlink:href="#DejaVuSans-30" x="63.623047"/>
       <use xlink:href="#DejaVuSans-32" x="127.246094"/>
       <use xlink:href="#DejaVuSans-35" x="190.869141"/>
       <use xlink:href="#DejaVuSans-2d" x="254.492188"/>
       <use xlink:href="#DejaVuSans-30" x="290.576172"/>
       <use xlink:href="#DejaVuSans-37" x="354.199219"/>
      </g>
     </g>
    </g>
    <g id="xtick_2">
     <g id="line2d_3">
      <path d="M 158.029178 371.304 
L 158.029178 10.8 
" clip-path="url(#p44a46a377a)" style="fill: none; stroke-dasharray: 1.85,0.8; stroke-dashoffset: 0; stroke: #808080; stroke-width: 0.5"/>
     </g>
     <g id="line2d_4">
      <g>
       <use xlink:href="#m1d06eddd9c" x="158.029178" y="371.304" style="fill: #ffffff; stroke: #ffffff; stroke-width: 0.8"/>
      </g>
     </g>
     <g id="text_2">
      <!-- 2025-08 -->
      <g style="fill: #ffffff" transform="translate(137.137771 385.902438) scale(0.1 -0.1)">
       <defs>
        <path id="DejaVuSans-38" d="M 2034 2216 
Q 1584 2216 1326 1975 
Q 1069 1734 1069 1313 
Q 1069 891 1326 650 
Q 1584 409 2034 409 
Q 2484 409 2743 651 
Q 3003 894 3003 1313 
Q 3003 1734 2745 1975 
Q 2488 2216 2034 2216 
z
M 1403 2484 
Q 997 2584 770 2862 
Q 544 3141 544 3541 
Q 544 4100 942 4425 
Q 1341 4750 2034 4750 
Q 2731 4750 3128 4425 
Q 3525 4100 3525 3541 
Q 3525 3141 3298 2862 
Q 3072 2584 2669 2484 
Q 3125 2378 3379 2068 
Q 3634 1759 3634 1313 
Q 3634 634 3220 271 
Q 2806 -91 2034 -91 
Q 1263 -91 848 271 
Q 434 634 434 1313 
Q 434 1759 690 2068 
Q 947 2378 1403 2484 
z
M 1172 3481 
Q 1172 3119 1398 2916 
Q 1625 2713 2034 2713 
Q 2441 2713 2670 2916 
Q 2900 3119 2900 3481 
Q 2900 3844 2670 4047 
Q 2441 4250 2034 4250 
Q 1625 4250 1398 4047 
Q 1172 3844 1172 3481 
z
" transform="scale(0.015625)"/>
       </defs>
       <use xlink:href="#DejaVuSans-32"/>
       <use xlink:href="#DejaVuSans-30" x="63.623047"/>
       <use xlink:href="#DejaVuSans-32" x="127.246094"/>
       <use xlink:href="#DejaVuSans-35" x="190.869141"/>
       <use xlink:href="#DejaVuSans-2d" x="254.492188"/>
       <use xlink:href="#DejaVuSans-30" x="290.576172"/>
       <use xlink:href="#DejaVuSans-38" x="354.199219"/>
      </g>
     </g>
    </g>
    <g id="xtick_3">
     <g id="line2d_5">
      <path d="M 226.735968 371.304 
L 226.735968 10.8 
" clip-path="url(#p44a46a377a)" style="fill: none; stroke-dasharray: 1.85,0.8; stroke-dashoffset: 0; stroke: #808080; stroke-width: 0.5"/>
     </g>
     <g id="line2d_6">
      <g>
       <use xlink:href="#m1d06eddd9c" x="226.735968" y="371.304" style="fill: #ffffff; stroke: #ffffff; stroke-width: 0.8"/>
      </g>
     </g>
     <g id="text_3">
      <!-- 2025-09 -->
      <g style="fill: #ffffff" transform="translate(205.844562 385.902438) scale(0.1 -0.1)">
       <defs>
        <path id="DejaVuSans-39" d="M 703 97 
L 703 672 
Q 941 559 1184 500 
Q 1428 441 1663 441 
Q 2288 441 2617 861 
Q 2947 1281 2994 2138 
Q 2813 1869 2534 1725 
Q 2256 1581 1919 1581 
Q 1219 1581 811 2004 
Q 403 2428 403 3163 
Q 403 3881 828 4315 
Q 1253 4750 1959 4750 
Q 2769 4750 3195 4129 
Q 3622 3509 3622 2328 
Q 3622 1225 3098 567 
Q 2575 -91 1691 -91 
Q 1453 -91 1209 -44 
Q 966 3 703 97 
z
M 1959 2075 
Q 2384 2075 2632 2365 
Q 2881 2656 2881 3163 
Q 2881 3666 2632 3958 
Q 2384 4250 1959 4250 
Q 1534 4250 1286 3958 
Q 1038 3666 1038 3163 
Q 1038 2656 1286 2365 
Q 1534 2075 1959 2075 
z
" transform="scale(0.015625)"/>
       </defs>
       <use xlink:href="#DejaVuSans-32"/>
       <use xlink:href="#DejaVuSans-30" x="63.623047"/>
       <use xlink:href="#DejaVuSans-32" x="127.246094"/>
       <use xlink:href="#DejaVuSans-35" x="190.869141"/>
       <use xlink:href="#DejaVuSans-2d" x="254.492188"/>
       <use xlink:href="#DejaVuSans-30" x="290.576172"/>
       <use xlink:href="#DejaVuSans-39" x="354.199219"/>
      </g>
     </g>
    </g>
    <g id="xtick_4">
     <g id="line2d_7">
      <path d="M 293.226411 371.304 
L 293.226411 10.8 
" clip-path="url(#p44a46a377a)" style="fill: none; stroke-dasharray: 1.85,0.8; stroke-dashoffset: 0; stroke: #808080; stroke-width: 0.5"/>
     </g>
     <g id="line2d_8">
      <g>
       <use xlink:href="#m1d06eddd9c" x="293.226411" y="371.304" style="fill: #ffffff; stroke: #ffffff; stroke-width: 0.8"/>
      </g>
     </g>
     <g id="text_4">
      <!-- 2025-10 -->
      <g style="fill: #ffffff" transform="translate(272.335005 385.902438) scale(0.1 -0.1)">
       <defs>
        <path id="DejaVuSans-31" d="M 794 531 
L 1825 531 
L 1825 4091 
L 703 3866 
L 703 4441 
L 1819 4666 
L 2450 4666 
L 2450 531 
L 3481 531 
L 3481 0 
L 794 0 
L 794 531 
z
" transform="scale(0.015625)"/>
       </defs>
       <use xlink:href="#DejaVuSans-32"/>
       <use xlink:href="#DejaVuSans-30" x="63.623047"/>
       <use xlink:href="#DejaVuSans-32" x="127.246094"/>
       <use xlink:href="#DejaVuSans-35" x="190.869141"/>
       <use xlink:href="#DejaVuSans-2d" x="254.492188"/>
       <use xlink:href="#DejaVuSans-31" x="290.576172"/>
       <use xlink:href="#DejaVuSans-30" x="354.199219"/>
      </g>
     </g>
    </g>
    <g id="xtick_5">
     <g id="line2d_9">
      <path d="M 361.933202 371.304 
L 361.933202 10.8 
" clip-path="url(#p44a46a377a)" style="fill: none; stroke-dasharray: 1.85,0.8; stroke-dashoffset: 0; stroke: #808080; stroke-width: 0.5"/>
     </g>
     <g id="line2d_10">
      <g>
       <use xlink:href="#m1d06eddd9c" x="361.933202" y="371.304" style="fill: #ffffff; stroke: #ffffff; stroke-width: 0.8"/>
      </g>
     </g>
     <g id="text_5">
      <!-- 2025-11 -->
      <g style="fill: #ffffff" transform="translate(341.041796 385.902438) scale(0.1 -0.1)">
       <use xlink:href="#DejaVuSans-32"/>
       <use xlink:href="#DejaVuSans-30" x="63.623047"/>
       <use xlink:href="#DejaVuSans-32" x="127.246094"/>
       <use xlink:href="#DejaVuSans-35" x="190.869141"/>
       <use xlink:href="#DejaVuSans-2d" x="254.492188"/>
       <use xlink:href="#DejaVuSans-31" x="290.576172"/>
       <use xlink:href="#DejaVuSans-31" x="354.199219"/>
      </g>
     </g>
    </g>
    <g id="xtick_6">
     <g id="line2d_11">
      <path d="M 428.423645 371.304 
L 428.423645 10.8 
" clip-path="url(#p44a46a377a)" style="fill: none; stroke-dasharray: 1.85,0.8; stroke-dashoffset: 0; stroke: #808080; stroke-width: 0.5"/>
     </g>
     <g id="line2d_12">
      <g>
       <use xlink:href="#m1d06eddd9c" x="428.423645" y="371.304" style="fill: #ffffff; stroke: #ffffff; stroke-width: 0.8"/>
      </g>
     </g>
     <g id="text_6">
      <!-- 2025-12 -->
      <g style="fill: #ffffff" transform="translate(407.532238 385.902438) scale(0.1 -0.1)">
       <use xlink:href="#DejaVuSans-32"/>
       <use xlink:href="#DejaVuSans-30" x="63.623047"/>
       <use xlink:href="#DejaVuSans-32" x="127.246094"/>
       <use xlink:href="#DejaVuSans-35" x="190.869141"/>
       <use xlink:href="#DejaVuSans-2d" x="254.492188"/>
       <use xlink:href="#DejaVuSans-31" x="290.576172"/>
       <use xlink:href="#DejaVuSans-32" x="354.199219"/>
      </g>
     </g>
    </g>
    <g id="xtick_7">
     <g id="line2d_13">
      <path d="M 497.130435 371.304 
L 497.130435 10.8 
" clip-path="url(#p44a46a377a)" style="fill: none; stroke-dasharray: 1.85,0.8; stroke-dashoffset: 0; stroke: #808080; stroke-width: 0.5"/>
     </g>
     <g id="line2d_14">
      <g>
       <use xlink:href="#m1d06eddd9c" x="497.130435" y="371.304" style="fill: #ffffff; stroke: #ffffff; stroke-width: 0.8"/>
      </g>
     </g>
     <g id="text_7">
      <!-- 2026-01 -->
      <g style="fill: #ffffff" transform="translate(476.239029 385.902438) scale(0.1 -0.1)">
       <defs>
        <path id="DejaVuSans-36" d="M 2113 2584 
Q 1688 2584 1439 2293 
Q 1191 2003 1191 1497 
Q 1191 994 1439 701 
Q 1688 409 2113 409 
Q 2538 409 2786 701 
Q 3034 994 3034 1497 
Q 3034 2003 2786 2293 
Q 2538 2584 2113 2584 
z
M 3366 4563 
L 3366 3988 
Q 3128 4100 2886 4159 
Q 2644 4219 2406 4219 
Q 1781 4219 1451 3797 
Q 1122 3375 1075 2522 
Q 1259 2794 1537 2939 
Q 1816 3084 2150 3084 
Q 2853 3084 3261 2657 
Q 3669 2231 3669 1497 
Q 3669 778 3244 343 
Q 2819 -91 2113 -91 
Q 1303 -91 875 529 
Q 447 1150 447 2328 
Q 447 3434 972 4092 
Q 1497 4750 2381 4750 
Q 2619 4750 2861 4703 
Q 3103 4656 3366 4563 
z
" transform="scale(0.015625)"/>
       </defs>
       <use xlink:href="#DejaVuSans-32"/>
       <use xlink:href="#DejaVuSans-30" x="63.623047"/>
       <use xlink:href="#DejaVuSans-32" x="127.246094"/>
       <use xlink:href="#DejaVuSans-36" x="190.869141"/>
       <use xlink:href="#DejaVuSans-2d" x="254.492188"/>
       <use xlink:href="#DejaVuSans-30" x="290.576172"/>
       <use xlink:href="#DejaVuSans-31" x="354.199219"/>
      </g>
     </g>
    </g>
    <g id="xtick_8">
     <g id="line2d_15">
      <path d="M 565.837226 371.304 
L 565.837226 10.8 
" clip-path="url(#p44a46a377a)" style="fill: none; stroke-dasharray: 1.85,0.8; stroke-dashoffset: 0; stroke: #808080; stroke-width: 0.5"/>
     </g>
     <g id="line2d_16">
      <g>
       <use xlink:href="#m1d06eddd9c" x="565.837226" y="371.304" style="fill: #ffffff; stroke: #ffffff; stroke-width: 0.8"/>
      </g>
     </g>
     <g id="text_8">
      <!-- 2026-02 -->
      <g style="fill: #ffffff" transform="translate(544.94582 385.902438) scale(0.1 -0.1)">
       <use xlink:href="#DejaVuSans-32"/>
       <use xlink:href="#DejaVuSans-30" x="63.623047"/>
       <use xlink:href="#DejaVuSans-32" x="127.246094"/>
       <use xlink:href="#DejaVuSans-36" x="190.869141"/>
       <use xlink:href="#DejaVuSans-2d" x="254.492188"/>
       <use xlink:href="#DejaVuSans-30" x="290.576172"/>
       <use xlink:href="#DejaVuSans-32" x="354.199219"/>
      </g>
     </g>
    </g>
    <g id="xtick_9">
     <g id="line2d_17">
      <path d="M 627.894973 371.304 
L 627.894973 10.8 
" clip-path="url(#p44a46a377a)" style="fill: none; stroke-dasharray: 1.85,0.8; stroke-dashoffset: 0; stroke: #808080; stroke-width: 0.5"/>
     </g>
     <g id="line2d_18">
      <g>
       <use xlink:href="#m1d06eddd9c" x="627.894973" y="371.304" style="fill: #ffffff; stroke: #ffffff; stroke-width: 0.8"/>
      </g>
     </g>
     <g id="text_9">
      <!-- 2026-03 -->
      <g style="fill: #ffffff" transform="translate(607.003566 385.902438) scale(0.1 -0.1)">
       <defs>
        <path id="DejaVuSans-33" d="M 2597 2516 
Q 3050 2419 3304 2112 
Q 3559 1806 3559 1356 
Q 3559 666 3084 287 
Q 2609 -91 1734 -91 
Q 1441 -91 1130 -33 
Q 819 25 488 141 
L 488 750 
Q 750 597 1062 519 
Q 1375 441 1716 441 
Q 2309 441 2620 675 
Q 2931 909 2931 1356 
Q 2931 1769 2642 2001 
Q 2353 2234 1838 2234 
L 1294 2234 
L 1294 2753 
L 1863 2753 
Q 2328 2753 2575 2939 
Q 2822 3125 2822 3475 
Q 2822 3834 2567 4026 
Q 2313 4219 1838 4219 
Q 1578 4219 1281 4162 
Q 984 4106 628 3988 
L 628 4550 
Q 988 4650 1302 4700 
Q 1616 4750 1894 4750 
Q 2613 4750 3031 4423 
Q 3450 4097 3450 3541 
Q 3450 3153 3228 2886 
Q 3006 2619 2597 2516 
z
" transform="scale(0.015625)"/>
       </defs>
       <use xlink:href="#DejaVuSans-32"/>
       <use xlink:href="#DejaVuSans-30" x="63.623047"/>
       <use xlink:href="#DejaVuSans-32" x="127.246094"/>
       <use xlink:href="#DejaVuSans-36" x="190.869141"/>
       <use xlink:href="#DejaVuSans-2d" x="254.492188"/>
       <use xlink:href="#DejaVuSans-30" x="290.576172"/>
       <use xlink:href="#DejaVuSans-33" x="354.199219"/>
      </g>
     </g>
    </g>
    <g id="xtick_10">
     <g id="line2d_19">
      <path d="M 696.601764 371.304 
L 696.601764 10.8 
" clip-path="url(#p44a46a377a)" style="fill: none; stroke-dasharray: 1.85,0.8; stroke-dashoffset: 0; stroke: #808080; stroke-width: 0.5"/>
     </g>
     <g id="line2d_20">
      <g>
       <use xlink:href="#m1d06eddd9c" x="696.601764" y="371.304" style="fill: #ffffff; stroke: #ffffff; stroke-width: 0.8"/>
      </g>
     </g>
     <g id="text_10">
      <!-- 2026-04 -->
      <g style="fill: #ffffff" transform="translate(675.710357 385.902438) scale(0.1 -0.1)">
       <defs>
        <path id="DejaVuSans-34" d="M 2419 4116 
L 825 1625 
L 2419 1625 
L 2419 4116 
z
M 2253 4666 
L 3047 4666 
L 3047 1625 
L 3713 1625 
L 3713 1100 
L 3047 1100 
L 3047 0 
L 2419 0 
L 2419 1100 
L 313 1100 
L 313 1709 
L 2253 4666 
z
" transform="scale(0.015625)"/>
       </defs>
       <use xlink:href="#DejaVuSans-32"/>
       <use xlink:href="#DejaVuSans-30" x="63.623047"/>
       <use xlink:href="#DejaVuSans-32" x="127.246094"/>
       <use xlink:href="#DejaVuSans-36" x="190.869141"/>
       <use xlink:href="#DejaVuSans-2d" x="254.492188"/>
       <use xlink:href="#DejaVuSans-30" x="290.576172"/>
       <use xlink:href="#DejaVuSans-34" x="354.199219"/>
      </g>
     </g>
    </g>
    <g id="xtick_11">
     <g id="line2d_21">
      <path d="M 763.092206 371.304 
L 763.092206 10.8 
" clip-path="url(#p44a46a377a)" style="fill: none; stroke-dasharray: 1.85,0.8; stroke-dashoffset: 0; stroke: #808080; stroke-width: 0.5"/>
     </g>
     <g id="line2d_22">
      <g>
       <use xlink:href="#m1d06eddd9c" x="763.092206" y="371.304" style="fill: #ffffff; stroke: #ffffff; stroke-width: 0.8"/>
      </g>
     </g>
     <g id="text_11">
      <!-- 2026-05 -->
      <g style="fill: #ffffff" transform="translate(742.2008 385.902438) scale(0.1 -0.1)">
       <use xlink:href="#DejaVuSans-32"/>
       <use xlink:href="#DejaVuSans-30" x="63.623047"/>
       <use xlink:href="#DejaVuSans-32" x="127.246094"/>
       <use xlink:href="#DejaVuSans-36" x="190.869141"/>
       <use xlink:href="#DejaVuSans-2d" x="254.492188"/>
       <use xlink:href="#DejaVuSans-30" x="290.576172"/>
       <use xlink:href="#DejaVuSans-35" x="354.199219"/>
      </g>
     </g>
    </g>
    <g id="xtick_12">
     <g id="line2d_23">
      <path d="M 831.798997 371.304 
L 831.798997 10.8 
" clip-path="url(#p44a46a377a)" style="fill: none; stroke-dasharray: 1.85,0.8; stroke-dashoffset: 0; stroke: #808080; stroke-width: 0.5"/>
     </g>
     <g id="line2d_24">
      <g>
       <use xlink:href="#m1d06eddd9c" x="831.798997" y="371.304" style="fill: #ffffff; stroke: #ffffff; stroke-width: 0.8"/>
      </g>
     </g>
     <g id="text_12">
      <!-- 2026-06 -->
      <g style="fill: #ffffff" transform="translate(810.907591 385.902438) scale(0.1 -0.1)">
       <use xlink:href="#DejaVuSans-32"/>
       <use xlink:href="#DejaVuSans-30" x="63.623047"/>
       <use xlink:href="#DejaVuSans-32" x="127.246094"/>
       <use xlink:href="#DejaVuSans-36" x="190.869141"/>
       <use xlink:href="#DejaVuSans-2d" x="254.492188"/>
       <use xlink:href="#DejaVuSans-30" x="290.576172"/>
       <use xlink:href="#DejaVuSans-36" x="354.199219"/>
      </g>
     </g>
    </g>
    <g id="text_13">
     <!-- Datum -->
     <g style="fill: #d3d3d3" transform="translate(424.750318 401.10025) scale(0.12 -0.12)">
      <defs>
       <path id="DejaVuSans-44" d="M 1259 4147 
L 1259 519 
L 2022 519 
Q 2988 519 3436 956 
Q 3884 1394 3884 2338 
Q 3884 3275 3436 3711 
Q 2988 4147 2022 4147 
L 1259 4147 
z
M 628 4666 
L 1925 4666 
Q 3281 4666 3915 4102 
Q 4550 3538 4550 2338 
Q 4550 1131 3912 565 
Q 3275 0 1925 0 
L 628 0 
L 628 4666 
z
" transform="scale(0.015625)"/>
       <path id="DejaVuSans-61" d="M 2194 1759 
Q 1497 1759 1228 1600 
Q 959 1441 959 1056 
Q 959 750 1161 570 
Q 1363 391 1709 391 
Q 2188 391 2477 730 
Q 2766 1069 2766 1631 
L 2766 1759 
L 2194 1759 
z
M 3341 1997 
L 3341 0 
L 2766 0 
L 2766 531 
Q 2569 213 2275 61 
Q 1981 -91 1556 -91 
Q 1019 -91 701 211 
Q 384 513 384 1019 
Q 384 1609 779 1909 
Q 1175 2209 1959 2209 
L 2766 2209 
L 2766 2266 
Q 2766 2663 2505 2880 
Q 2244 3097 1772 3097 
Q 1472 3097 1187 3025 
Q 903 2953 641 2809 
L 641 3341 
Q 956 3463 1253 3523 
Q 1550 3584 1831 3584 
Q 2591 3584 2966 3190 
Q 3341 2797 3341 1997 
z
" transform="scale(0.015625)"/>
       <path id="DejaVuSans-74" d="M 1172 4494 
L 1172 3500 
L 2356 3500 
L 2356 3053 
L 1172 3053 
L 1172 1153 
Q 1172 725 1289 603 
Q 1406 481 1766 481 
L 2356 481 
L 2356 0 
L 1766 0 
Q 1100 0 847 248 
Q 594 497 594 1153 
L 594 3053 
L 172 3053 
L 172 3500 
L 594 3500 
L 594 4494 
L 1172 4494 
z
" transform="scale(0.015625)"/>
       <path id="DejaVuSans-75" d="M 544 1381 
L 544 3500 
L 1119 3500 
L 1119 1403 
Q 1119 906 1312 657 
Q 1506 409 1894 409 
Q 2359 409 2629 706 
Q 2900 1003 2900 1516 
L 2900 3500 
L 3475 3500 
L 3475 0 
L 2900 0 
L 2900 538 
Q 2691 219 2414 64 
Q 2138 -91 1772 -91 
Q 1169 -91 856 284 
Q 544 659 544 1381 
z
M 1991 3584 
L 1991 3584 
z
" transform="scale(0.015625)"/>
       <path id="DejaVuSans-6d" d="M 3328 2828 
Q 3544 3216 3844 3400 
Q 4144 3584 4550 3584 
Q 5097 3584 5394 3201 
Q 5691 2819 5691 2113 
L 5691 0 
L 5113 0 
L 5113 2094 
Q 5113 2597 4934 2840 
Q 4756 3084 4391 3084 
Q 3944 3084 3684 2787 
Q 3425 2491 3425 1978 
L 3425 0 
L 2847 0 
L 2847 2094 
Q 2847 2600 2669 2842 
Q 2491 3084 2119 3084 
Q 1678 3084 1418 2786 
Q 1159 2488 1159 1978 
L 1159 0 
L 581 0 
L 581 3500 
L 1159 3500 
L 1159 2956 
Q 1356 3278 1631 3431 
Q 1906 3584 2284 3584 
Q 2666 3584 2933 3390 
Q 3200 3197 3328 2828 
z
" transform="scale(0.015625)"/>
      </defs>
      <use xlink:href="#DejaVuSans-44"/>
      <use xlink:href="#DejaVuSans-61" x="77.001953"/>
      <use xlink:href="#DejaVuSans-74" x="138.28125"/>
      <use xlink:href="#DejaVuSans-75" x="177.490234"/>
      <use xlink:href="#DejaVuSans-6d" x="240.869141"/>
     </g>
    </g>
   </g>
   <g id="matplotlib.axis_2">
    <g id="ytick_1">
     <g id="line2d_25">
      <path d="M 53.75 371.304 
L 836.342511 371.304 
" clip-path="url(#p44a46a377a)" style="fill: none; stroke-dasharray: 1.85,0.8; stroke-dashoffset: 0; stroke: #808080; stroke-width: 0.5"/>
     </g>
     <g id="line2d_26">
      <defs>
       <path id="m7ae0f5dbd1" d="M 0 0 
L -3.5 0 
" style="stroke: #ffffff; stroke-width: 0.8"/>
      </defs>
      <g>
       <use xlink:href="#m7ae0f5dbd1" x="53.75" y="371.304" style="fill: #ffffff; stroke: #ffffff; stroke-width: 0.8"/>
      </g>
     </g>
     <g id="text_14">
      <!-- 0 -->
      <g style="fill: #ffffff" transform="translate(40.3875 375.103219) scale(0.1 -0.1)">
       <use xlink:href="#DejaVuSans-30"/>
      </g>
     </g>
    </g>
    <g id="ytick_2">
     <g id="line2d_27">
      <path d="M 53.75 320.653097 
L 836.342511 320.653097 
" clip-path="url(#p44a46a377a)" style="fill: none; stroke-dasharray: 1.85,0.8; stroke-dashoffset: 0; stroke: #808080; stroke-width: 0.5"/>
     </g>
     <g id="line2d_28">
      <g>
       <use xlink:href="#m7ae0f5dbd1" x="53.75" y="320.653097" style="fill: #ffffff; stroke: #ffffff; stroke-width: 0.8"/>
      </g>
     </g>
     <g id="text_15">
      <!-- 20 -->
      <g style="fill: #ffffff" transform="translate(34.025 324.452316) scale(0.1 -0.1)">
       <use xlink:href="#DejaVuSans-32"/>
       <use xlink:href="#DejaVuSans-30" x="63.623047"/>
      </g>
     </g>
    </g>
    <g id="ytick_3">
     <g id="line2d_29">
      <path d="M 53.75 270.002195 
L 836.342511 270.002195 
" clip-path="url(#p44a46a377a)" style="fill: none; stroke-dasharray: 1.85,0.8; stroke-dashoffset: 0; stroke: #808080; stroke-width: 0.5"/>
     </g>
     <g id="line2d_30">
      <g>
       <use xlink:href="#m7ae0f5dbd1" x="53.75" y="270.002195" style="fill: #ffffff; stroke: #ffffff; stroke-width: 0.8"/>
      </g>
     </g>
     <g id="text_16">
      <!-- 40 -->
      <g style="fill: #ffffff" transform="translate(34.025 273.801414) scale(0.1 -0.1)">
       <use xlink:href="#DejaVuSans-34"/>
       <use xlink:href="#DejaVuSans-30" x="63.623047"/>
      </g>
     </g>
    </g>
    <g id="ytick_4">
     <g id="line2d_31">
      <path d="M 53.75 219.351292 
L 836.342511 219.351292 
" clip-path="url(#p44a46a377a)" style="fill: none; stroke-dasharray: 1.85,0.8; stroke-dashoffset: 0; stroke: #808080; stroke-width: 0.5"/>
     </g>
     <g id="line2d_32">
      <g>
       <use xlink:href="#m7ae0f5dbd1" x="53.75" y="219.351292" style="fill: #ffffff; stroke: #ffffff; stroke-width: 0.8"/>
      </g>
     </g>
     <g id="text_17">
      <!-- 60 -->
      <g style="fill: #ffffff" transform="translate(34.025 223.150511) scale(0.1 -0.1)">
       <use xlink:href="#DejaVuSans-36"/>
       <use xlink:href="#DejaVuSans-30" x="63.623047"/>
      </g>
     </g>
    </g>
    <g id="ytick_5">
     <g id="line2d_33">
      <path d="M 53.75 168.70039 
L 836.342511 168.70039 
" clip-path="url(#p44a46a377a)" style="fill: none; stroke-dasharray: 1.85,0.8; stroke-dashoffset: 0; stroke: #808080; stroke-width: 0.5"/>
     </g>
     <g id="line2d_34">
      <g>
       <use xlink:href="#m7ae0f5dbd1" x="53.75" y="168.70039" style="fill: #ffffff; stroke: #ffffff; stroke-width: 0.8"/>
      </g>
     </g>
     <g id="text_18">
      <!-- 80 -->
      <g style="fill: #ffffff" transform="translate(34.025 172.499609) scale(0.1 -0.1)">
       <use xlink:href="#DejaVuSans-38"/>
       <use xlink:href="#DejaVuSans-30" x="63.623047"/>
      </g>
     </g>
    </g>
    <g id="ytick_6">
     <g id="line2d_35">
      <path d="M 53.75 118.049487 
L 836.342511 118.049487 
" clip-path="url(#p44a46a377a)" style="fill: none; stroke-dasharray: 1.85,0.8; stroke-dashoffset: 0; stroke: #808080; stroke-width: 0.5"/>
     </g>
     <g id="line2d_36">
      <g>
       <use xlink:href="#m7ae0f5dbd1" x="53.75" y="118.049487" style="fill: #ffffff; stroke: #ffffff; stroke-width: 0.8"/>
      </g>
     </g>
     <g id="text_19">
      <!-- 100 -->
      <g style="fill: #ffffff" transform="translate(27.6625 121.848706) scale(0.1 -0.1)">
       <use xlink:href="#DejaVuSans-31"/>
       <use xlink:href="#DejaVuSans-30" x="63.623047"/>
       <use xlink:href="#DejaVuSans-30" x="127.246094"/>
      </g>
     </g>
    </g>
    <g id="ytick_7">
     <g id="line2d_37">
      <path d="M 53.75 67.398585 
L 836.342511 67.398585 
" clip-path="url(#p44a46a377a)" style="fill: none; stroke-dasharray: 1.85,0.8; stroke-dashoffset: 0; stroke: #808080; stroke-width: 0.5"/>
     </g>
     <g id="line2d_38">
      <g>
       <use xlink:href="#m7ae0f5dbd1" x="53.75" y="67.398585" style="fill: #ffffff; stroke: #ffffff; stroke-width: 0.8"/>
      </g>
     </g>
     <g id="text_20">
      <!-- 120 -->
      <g style="fill: #ffffff" transform="translate(27.6625 71.197804) scale(0.1 -0.1)">
       <use xlink:href="#DejaVuSans-31"/>
       <use xlink:href="#DejaVuSans-32" x="63.623047"/>
       <use xlink:href="#DejaVuSans-30" x="127.246094"/>
      </g>
     </g>
    </g>
    <g id="ytick_8">
     <g id="line2d_39">
      <path d="M 53.75 16.747682 
L 836.342511 16.747682 
" clip-path="url(#p44a46a377a)" style="fill: none; stroke-dasharray: 1.85,0.8; stroke-dashoffset: 0; stroke: #808080; stroke-width: 0.5"/>
     </g>
     <g id="line2d_40">
      <g>
       <use xlink:href="#m7ae0f5dbd1" x="53.75" y="16.747682" style="fill: #ffffff; stroke: #ffffff; stroke-width: 0.8"/>
      </g>
     </g>
     <g id="text_21">
      <!-- 140 -->
      <g style="fill: #ffffff" transform="translate(27.6625 20.546901) scale(0.1 -0.1)">
       <use xlink:href="#DejaVuSans-31"/>
       <use xlink:href="#DejaVuSans-34" x="63.623047"/>
       <use xlink:href="#DejaVuSans-30" x="127.246094"/>
      </g>
     </g>
    </g>
    <g id="text_22">
     <!-- USD pro Barrel -->
     <g style="fill: #d3d3d3" transform="translate(21.166875 235.34325) rotate(-90) scale(0.12 -0.12)">
      <defs>
       <path id="DejaVuSans-55" d="M 556 4666 
L 1191 4666 
L 1191 1831 
Q 1191 1081 1462 751 
Q 1734 422 2344 422 
Q 2950 422 3222 751 
Q 3494 1081 3494 1831 
L 3494 4666 
L 4128 4666 
L 4128 1753 
Q 4128 841 3676 375 
Q 3225 -91 2344 -91 
Q 1459 -91 1007 375 
Q 556 841 556 1753 
L 556 4666 
z
" transform="scale(0.015625)"/>
       <path id="DejaVuSans-53" d="M 3425 4513 
L 3425 3897 
Q 3066 4069 2747 4153 
Q 2428 4238 2131 4238 
Q 1616 4238 1336 4038 
Q 1056 3838 1056 3469 
Q 1056 3159 1242 3001 
Q 1428 2844 1947 2747 
L 2328 2669 
Q 3034 2534 3370 2195 
Q 3706 1856 3706 1288 
Q 3706 609 3251 259 
Q 2797 -91 1919 -91 
Q 1588 -91 1214 -16 
Q 841 59 441 206 
L 441 856 
Q 825 641 1194 531 
Q 1563 422 1919 422 
Q 2459 422 2753 634 
Q 3047 847 3047 1241 
Q 3047 1584 2836 1778 
Q 2625 1972 2144 2069 
L 1759 2144 
Q 1053 2284 737 2584 
Q 422 2884 422 3419 
Q 422 4038 858 4394 
Q 1294 4750 2059 4750 
Q 2388 4750 2728 4690 
Q 3069 4631 3425 4513 
z
" transform="scale(0.015625)"/>
       <path id="DejaVuSans-20" transform="scale(0.015625)"/>
       <path id="DejaVuSans-70" d="M 1159 525 
L 1159 -1331 
L 581 -1331 
L 581 3500 
L 1159 3500 
L 1159 2969 
Q 1341 3281 1617 3432 
Q 1894 3584 2278 3584 
Q 2916 3584 3314 3078 
Q 3713 2572 3713 1747 
Q 3713 922 3314 415 
Q 2916 -91 2278 -91 
Q 1894 -91 1617 61 
Q 1341 213 1159 525 
z
M 3116 1747 
Q 3116 2381 2855 2742 
Q 2594 3103 2138 3103 
Q 1681 3103 1420 2742 
Q 1159 2381 1159 1747 
Q 1159 1113 1420 752 
Q 1681 391 2138 391 
Q 2594 391 2855 752 
Q 3116 1113 3116 1747 
z
" transform="scale(0.015625)"/>
       <path id="DejaVuSans-72" d="M 2631 2963 
Q 2534 3019 2420 3045 
Q 2306 3072 2169 3072 
Q 1681 3072 1420 2755 
Q 1159 2438 1159 1844 
L 1159 0 
L 581 0 
L 581 3500 
L 1159 3500 
L 1159 2956 
Q 1341 3275 1631 3429 
Q 1922 3584 2338 3584 
Q 2397 3584 2469 3576 
Q 2541 3569 2628 3553 
L 2631 2963 
z
" transform="scale(0.015625)"/>
       <path id="DejaVuSans-6f" d="M 1959 3097 
Q 1497 3097 1228 2736 
Q 959 2375 959 1747 
Q 959 1119 1226 758 
Q 1494 397 1959 397 
Q 2419 397 2687 759 
Q 2956 1122 2956 1747 
Q 2956 2369 2687 2733 
Q 2419 3097 1959 3097 
z
M 1959 3584 
Q 2709 3584 3137 3096 
Q 3566 2609 3566 1747 
Q 3566 888 3137 398 
Q 2709 -91 1959 -91 
Q 1206 -91 779 398 
Q 353 888 353 1747 
Q 353 2609 779 3096 
Q 1206 3584 1959 3584 
z
" transform="scale(0.015625)"/>
       <path id="DejaVuSans-42" d="M 1259 2228 
L 1259 519 
L 2272 519 
Q 2781 519 3026 730 
Q 3272 941 3272 1375 
Q 3272 1813 3026 2020 
Q 2781 2228 2272 2228 
L 1259 2228 
z
M 1259 4147 
L 1259 2741 
L 2194 2741 
Q 2656 2741 2882 2914 
Q 3109 3088 3109 3444 
Q 3109 3797 2882 3972 
Q 2656 4147 2194 4147 
L 1259 4147 
z
M 628 4666 
L 2241 4666 
Q 2963 4666 3353 4366 
Q 3744 4066 3744 3513 
Q 3744 3084 3544 2831 
Q 3344 2578 2956 2516 
Q 3422 2416 3680 2098 
Q 3938 1781 3938 1306 
Q 3938 681 3513 340 
Q 3088 0 2303 0 
L 628 0 
L 628 4666 
z
" transform="scale(0.015625)"/>
       <path id="DejaVuSans-65" d="M 3597 1894 
L 3597 1613 
L 953 1613 
Q 991 1019 1311 708 
Q 1631 397 2203 397 
Q 2534 397 2845 478 
Q 3156 559 3463 722 
L 3463 178 
Q 3153 47 2828 -22 
Q 2503 -91 2169 -91 
Q 1331 -91 842 396 
Q 353 884 353 1716 
Q 353 2575 817 3079 
Q 1281 3584 2069 3584 
Q 2775 3584 3186 3129 
Q 3597 2675 3597 1894 
z
M 3022 2063 
Q 3016 2534 2758 2815 
Q 2500 3097 2075 3097 
Q 1594 3097 1305 2825 
Q 1016 2553 972 2059 
L 3022 2063 
z
" transform="scale(0.015625)"/>
       <path id="DejaVuSans-6c" d="M 603 4863 
L 1178 4863 
L 1178 0 
L 603 0 
L 603 4863 
z
" transform="scale(0.015625)"/>
      </defs>
      <use xlink:href="#DejaVuSans-55"/>
      <use xlink:href="#DejaVuSans-53" x="73.193359"/>
      <use xlink:href="#DejaVuSans-44" x="136.669922"/>
      <use xlink:href="#DejaVuSans-20" x="213.671875"/>
      <use xlink:href="#DejaVuSans-70" x="245.458984"/>
      <use xlink:href="#DejaVuSans-72" x="308.935547"/>
      <use xlink:href="#DejaVuSans-6f" x="347.798828"/>
      <use xlink:href="#DejaVuSans-20" x="408.980469"/>
      <use xlink:href="#DejaVuSans-42" x="440.767578"/>
      <use xlink:href="#DejaVuSans-61" x="509.371094"/>
      <use xlink:href="#DejaVuSans-72" x="570.650391"/>
      <use xlink:href="#DejaVuSans-72" x="610.013672"/>
      <use xlink:href="#DejaVuSans-65" x="648.876953"/>
      <use xlink:href="#DejaVuSans-6c" x="710.400391"/>
     </g>
    </g>
   </g>
   <g id="line2d_41">
    <path d="M 89.322387 200.027973 
L 91.538735 191.999805 
L 93.755083 192.962172 
L 95.971431 191.41732 
L 102.620475 189.087378 
L 104.836823 187.694478 
L 107.053172 189.011402 
L 109.26952 193.063474 
L 111.485868 188.808798 
L 118.134912 191.594598 
L 120.35126 193.342054 
L 122.567608 194.861581 
L 124.783956 190.682882 
L 127.000304 191.341343 
L 133.649349 189.163354 
L 135.865697 194.81093 
L 138.082045 196.127854 
L 140.298393 192.962172 
L 142.514741 195.975901 
L 149.163785 191.822527 
L 151.380133 185.896371 
L 153.596481 183.946312 
L 155.81283 185.339211 
L 158.029178 192.632941 
L 164.678222 195.140161 
L 166.89457 196.20383 
L 169.110918 199.166908 
L 171.327266 201.648802 
L 173.543614 201.192944 
L 180.192659 200.71176 
L 184.625355 203.522885 
L 186.841703 198.787026 
L 189.058051 200.863713 
L 195.707095 198.635073 
L 197.923443 202.585844 
L 200.139791 200.078624 
L 202.356139 198.052588 
L 204.572488 198.356493 
M 213.43788 201.902056 
L 217.870576 197.546079 
L 220.086924 199.521464 
L 226.735968 201.395547 
L 228.952317 198.863002 
L 231.168665 199.698742 
L 233.385013 203.117678 
L 235.601361 206.89117 
L 242.250405 205.574247 
L 244.466753 199.166908 
L 248.899449 200.99034 
L 251.115797 199.420162 
L 257.764842 199.394837 
L 259.98119 194.81093 
L 262.197538 196.077203 
L 264.413886 199.521464 
L 266.630234 201.496849 
L 273.279278 201.952707 
L 275.495626 199.192233 
L 277.711975 194.937557 
L 279.928323 192.810219 
L 282.144671 191.113414 
L 288.793715 196.558386 
L 291.010063 197.774008 
L 293.226411 202.459216 
L 295.442759 205.574247 
L 297.659107 203.826791 
L 304.308152 201.395547 
L 306.5245 201.370222 
L 308.740848 200.559808 
L 310.957196 201.040991 
L 313.173544 208.182768 
L 319.822588 208.84123 
L 322.038936 211.753657 
L 324.255284 213.450462 
L 326.471632 216.616144 
L 328.687981 216.236262 
L 335.337025 217.553185 
L 337.553373 216.818747 
L 339.769721 213.577089 
L 341.986069 203.345607 
L 344.202417 204.662531 
L 350.851461 205.371643 
L 353.06781 209.145136 
L 355.284158 206.663241 
L 357.500506 206.409987 
L 359.716854 205.574247 
L 366.365898 204.687856 
L 368.582246 206.587265 
L 370.798594 210.386083 
L 373.014942 210.715314 
L 375.23129 209.930225 
L 381.880335 211.728332 
L 384.096683 209.575668 
L 386.313031 214.590108 
L 388.529379 213.931646 
L 390.745727 210.614012 
L 397.394771 211.34845 
L 399.611119 207.043123 
L 401.827468 209.778272 
L 404.043816 210.132828 
L 406.260164 212.310817 
L 412.909208 207.119099 
L 415.125556 209.246437 
L 417.341904 207.16975 
L 419.558252 208.765254 
L 421.7746 209.043834 
L 428.423645 208.663952 
L 430.639993 210.816615 
L 435.072689 208.84123 
L 437.289037 208.157443 
L 443.938081 210.993893 
L 446.154429 212.716024 
L 448.370777 211.449752 
L 450.587126 214.615433 
L 452.803474 214.007622 
L 459.452518 215.425847 
L 461.668866 219.528571 
L 463.885214 217.80644 
L 466.101562 217.603836 
L 468.31791 215.932356 
L 474.966955 213.729042 
L 477.183303 209.980875 
L 479.399651 209.980875 
M 490.481391 211.500402 
L 492.697739 213.526439 
L 494.914087 215.932356 
M 499.346784 214.336853 
L 505.995828 211.753657 
L 508.212176 214.032948 
L 510.428524 216.616144 
L 512.644872 210.892592 
L 514.86122 206.409987 
L 521.510264 205.675549 
L 523.726613 200.1546 
L 525.942961 196.887617 
L 528.159309 203.750814 
L 530.375657 201.699453 
L 537.024701 201.851406 
L 539.241049 199.901346 
L 541.457397 202.332589 
L 543.673745 205.523596 
L 545.890093 198.685724 
L 552.539138 199.850695 
L 554.755486 193.316728 
L 556.971834 191.746551 
L 559.188182 191.493296 
L 561.40453 188.327615 
L 568.053574 199.800044 
L 570.269922 194.000516 
L 572.48627 191.113414 
L 574.702619 194.355072 
L 576.918967 192.886196 
L 583.568011 191.012112 
L 585.784359 191.467971 
L 588.000707 190.176373 
L 590.217055 194.53235 
L 592.433403 194.127143 
L 599.082448 191.97448 
L 601.298796 194.608326 
L 603.515144 189.517911 
L 605.731492 185.997673 
L 607.94784 187.061342 
L 614.596884 189.214005 
L 616.813232 190.961462 
L 619.02958 192.278385 
L 621.245928 189.821816 
L 623.462277 190.682882 
L 630.111321 175.690214 
L 632.327669 160.393642 
L 634.544017 164.749619 
L 638.976713 128.83813 
L 645.625757 132.358367 
L 647.842106 143.780146 
L 650.058454 140.893044 
L 652.274802 112.02203 
L 654.49115 109.869367 
L 661.140194 115.41564 
L 663.356542 96.801434 
L 665.57289 72.235746 
L 667.789238 90.064864 
L 670.005586 71.400006 
L 676.654631 108.451141 
L 678.870979 96.725457 
L 681.087327 94.902025 
L 683.303675 84.138708 
L 685.520023 63.675743 
L 692.169067 62.6374 
L 694.385415 50.455858 
L 696.601764 68.512905 
L 698.818112 48.125916 
M 709.899852 21.280938 
L 712.1162 62.054915 
L 714.332548 69.855154 
L 716.548896 69.753852 
L 723.197941 59.091837 
L 725.414289 70.716219 
L 727.630637 80.238589 
L 729.846985 75.933262 
L 732.063333 121.519074 
L 738.712377 109.438834 
L 740.928725 102.49966 
L 743.145073 84.012081 
L 745.361422 84.493264 
L 747.57777 88.013502 
L 754.226814 82.872435 
L 756.443162 73.426042 
L 758.65951 56.863197 
L 760.875858 56.660593 
L 763.092206 71.805213 
M 771.957599 81.302258 
L 774.173947 108.67907 
L 776.390295 113.440255 
L 778.606643 109.23623 
L 785.255687 102.575637 
L 787.472035 89.254449 
L 789.688383 92.014923 
L 791.904731 90.41942 
L 794.12108 82.695157 
L 800.770124 75.680007 
L 800.770124 75.680007 
" clip-path="url(#p44a46a377a)" style="fill: none; stroke: #cc241d; stroke-width: 1.5; stroke-linecap: square"/>
   </g>
   <g id="line2d_42">
    <path d="M 89.322387 202.535193 
L 91.538735 197.419452 
L 93.755083 198.761701 
M 102.620475 196.153179 
L 104.836823 195.165486 
L 107.053172 195.013534 
L 109.26952 199.648091 
L 111.485868 194.962883 
L 120.35126 199.698742 
L 122.567608 201.294246 
L 124.783956 197.166197 
L 127.000304 197.748682 
L 133.649349 198.103239 
L 135.865697 200.205251 
L 138.082045 204.029394 
L 140.298393 201.218269 
L 142.514741 203.193654 
L 149.163785 199.572115 
L 151.380133 193.342054 
L 153.596481 191.265367 
L 155.81283 193.114125 
L 158.029178 198.103239 
L 164.678222 200.787737 
L 166.89457 203.649513 
L 169.110918 205.7262 
L 171.327266 206.941821 
L 180.192659 206.61259 
L 182.409007 208.663952 
L 184.625355 210.031526 
L 186.841703 206.713892 
L 189.058051 209.778272 
L 195.707095 207.929514 
L 197.923443 210.79129 
L 200.139791 208.739928 
L 202.356139 207.802887 
L 204.572488 209.018508 
L 211.221532 206.232709 
L 213.43788 210.23413 
L 215.654228 207.980165 
L 217.870576 206.789869 
L 220.086924 208.309396 
M 228.952317 204.282649 
L 231.168665 208.309396 
L 233.385013 209.702295 
L 235.601361 213.729042 
L 242.250405 212.766675 
L 244.466753 211.829633 
L 246.683101 209.195786 
L 248.899449 212.488095 
L 251.115797 211.703006 
L 257.764842 210.082177 
L 259.98119 206.967147 
L 264.413886 209.449041 
L 266.630234 211.703006 
L 273.279278 211.778982 
L 275.495626 209.828923 
L 277.711975 205.675549 
L 279.928323 205.396969 
L 282.144671 202.889749 
L 288.793715 208.537325 
L 291.010063 211.323124 
L 293.226411 212.792001 
L 295.442759 216.109635 
L 297.659107 215.172593 
L 304.308152 213.045255 
L 306.5245 212.969279 
L 308.740848 210.816615 
L 310.957196 213.374486 
L 313.173544 219.984429 
M 322.038936 220.566914 
L 324.255284 221.681234 
L 326.471632 223.681945 
L 335.337025 223.555317 
L 337.553373 222.744903 
L 339.769721 221.124074 
L 341.986069 213.171882 
L 344.202417 213.602415 
L 350.851461 213.956971 
L 353.06781 216.894724 
L 355.284158 216.160286 
L 357.500506 215.907031 
L 359.716854 214.919338 
L 366.365898 214.818037 
L 368.582246 215.85638 
L 370.798594 218.338274 
L 373.014942 218.743482 
L 375.23129 217.983718 
L 381.880335 216.9707 
M 386.313031 221.124074 
L 388.529379 220.516263 
L 390.745727 217.147978 
L 397.394771 217.679813 
L 399.611119 215.527149 
L 401.827468 218.667505 
L 404.043816 219.174014 
L 406.260164 222.238394 
L 412.909208 221.605258 
L 415.125556 223.783246 
L 417.341904 222.365021 
M 421.7746 222.947506 
L 428.423645 220.693541 
L 430.639993 222.365021 
L 432.856341 221.655908 
L 435.072689 219.807151 
L 437.289037 218.768807 
L 443.938081 221.782536 
L 446.154429 223.403365 
L 448.370777 222.719577 
L 450.587126 225.024193 
L 452.803474 225.404075 
L 459.452518 227.024904 
L 461.668866 230.899698 
L 463.885214 229.304195 
L 466.101562 228.924313 
L 468.31791 227.455437 
L 474.966955 223.960525 
L 477.183303 223.023483 
L 479.399651 222.59295 
M 483.832347 227.961946 
L 490.481391 224.694963 
L 492.697739 224.948217 
L 494.914087 226.290466 
M 499.346784 226.417093 
L 505.995828 224.163128 
L 508.212176 227.024904 
L 510.428524 229.456147 
L 512.644872 225.074844 
L 514.86122 221.985139 
L 521.510264 220.896145 
L 523.726613 217.198629 
L 525.942961 214.691409 
L 528.159309 221.554607 
L 530.375657 220.870819 
M 539.241049 218.591529 
L 541.457397 218.388925 
L 543.673745 221.276027 
L 545.890093 217.578511 
L 552.539138 218.186322 
L 554.755486 214.1849 
L 556.971834 212.386793 
L 559.188182 207.271052 
L 561.40453 207.954839 
L 568.053574 215.29922 
L 570.269922 212.716024 
L 572.48627 207.802887 
L 574.702619 212.006912 
L 576.918967 209.803597 
L 583.568011 207.878863 
L 585.784359 208.714603 
L 588.000707 207.195076 
L 590.217055 211.551053 
L 592.433403 211.62703 
M 601.298796 212.943953 
L 603.515144 205.852827 
L 605.731492 202.484542 
L 607.94784 202.408565 
L 614.596884 203.244305 
L 616.813232 205.118389 
L 619.02958 205.928803 
L 621.245928 206.435312 
L 623.462277 201.724778 
L 630.111321 191.164065 
L 632.327669 182.680039 
L 634.544017 182.426784 
L 636.760365 166.47175 
L 638.976713 141.424879 
L 645.625757 131.598604 
L 647.842106 159.304647 
L 650.058454 151.479083 
L 652.274802 129.16736 
L 654.49115 121.898956 
L 661.140194 134.789611 
L 663.356542 128.154342 
L 665.57289 127.875762 
L 667.789238 127.901088 
L 670.005586 121.316471 
L 676.654631 145.071744 
L 678.870979 135.321445 
L 681.087327 139.550795 
L 683.303675 127.72381 
L 685.520023 114.85848 
L 692.169067 106.171851 
L 694.385415 110.806408 
L 696.601764 113.237652 
L 698.818112 84.543915 
M 707.683504 82.56853 
L 709.899852 81.124979 
L 712.1162 127.749135 
L 714.332548 119.011854 
L 716.548896 122.253512 
L 723.197941 116.226055 
L 725.414289 135.600025 
L 727.630637 135.676001 
L 729.846985 127.014697 
L 732.063333 153.733048 
L 738.712377 140.690441 
L 740.928725 134.156474 
L 743.145073 131.320024 
L 745.361422 119.898245 
L 747.57777 122.050909 
L 754.226814 118.328067 
L 756.443162 109.312207 
L 758.65951 91.53374 
L 760.875858 96.168297 
L 763.092206 104.424395 
L 769.741251 93.331847 
L 771.957599 103.715282 
L 774.173947 121.215169 
L 776.390295 122.15221 
L 778.606643 120.911263 
L 785.255687 114.098717 
L 787.472035 103.411376 
L 789.688383 106.602383 
L 791.904731 106.247827 
L 794.12108 95.281907 
L 800.770124 87.02581 
L 800.770124 87.02581 
" clip-path="url(#p44a46a377a)" style="fill: none; stroke: #98971a; stroke-width: 1.5; stroke-linecap: square"/>
   </g>
   <g id="line2d_43">
    <path d="M 623.462277 371.304 
L 623.462277 10.8 
" clip-path="url(#p44a46a377a)" style="fill: none; stroke-dasharray: 5.55,2.4; stroke-dashoffset: 0; stroke: #d79921; stroke-width: 1.5"/>
   </g>
   <g id="patch_3">
    <path d="M 53.75 371.304 
L 53.75 10.8 
" style="fill: none; stroke: #333333; stroke-width: 0.8; stroke-linejoin: miter; stroke-linecap: square"/>
   </g>
   <g id="patch_4">
    <path d="M 836.342511 371.304 
L 836.342511 10.8 
" style="fill: none; stroke: #333333; stroke-width: 0.8; stroke-linejoin: miter; stroke-linecap: square"/>
   </g>
   <g id="patch_5">
    <path d="M 53.75 371.304 
L 836.342511 371.304 
" style="fill: none; stroke: #333333; stroke-width: 0.8; stroke-linejoin: miter; stroke-linecap: square"/>
   </g>
   <g id="patch_6">
    <path d="M 53.75 10.8 
L 836.342511 10.8 
" style="fill: none; stroke: #333333; stroke-width: 0.8; stroke-linejoin: miter; stroke-linecap: square"/>
   </g>
   <g id="text_23">
    <!-- Quelle: U.S. Energy Information Administration via FRED -->
    <g style="fill: #a9a9a9" transform="translate(610.625011 423.71585) scale(0.08 -0.08)">
     <defs>
      <path id="DejaVuSans-51" d="M 2522 4238 
Q 1834 4238 1429 3725 
Q 1025 3213 1025 2328 
Q 1025 1447 1429 934 
Q 1834 422 2522 422 
Q 3209 422 3611 934 
Q 4013 1447 4013 2328 
Q 4013 3213 3611 3725 
Q 3209 4238 2522 4238 
z
M 3406 84 
L 4238 -825 
L 3475 -825 
L 2784 -78 
Q 2681 -84 2626 -87 
Q 2572 -91 2522 -91 
Q 1538 -91 948 567 
Q 359 1225 359 2328 
Q 359 3434 948 4092 
Q 1538 4750 2522 4750 
Q 3503 4750 4090 4092 
Q 4678 3434 4678 2328 
Q 4678 1516 4351 937 
Q 4025 359 3406 84 
z
" transform="scale(0.015625)"/>
      <path id="DejaVuSans-3a" d="M 750 794 
L 1409 794 
L 1409 0 
L 750 0 
L 750 794 
z
M 750 3309 
L 1409 3309 
L 1409 2516 
L 750 2516 
L 750 3309 
z
" transform="scale(0.015625)"/>
      <path id="DejaVuSans-2e" d="M 684 794 
L 1344 794 
L 1344 0 
L 684 0 
L 684 794 
z
" transform="scale(0.015625)"/>
      <path id="DejaVuSans-45" d="M 628 4666 
L 3578 4666 
L 3578 4134 
L 1259 4134 
L 1259 2753 
L 3481 2753 
L 3481 2222 
L 1259 2222 
L 1259 531 
L 3634 531 
L 3634 0 
L 628 0 
L 628 4666 
z
" transform="scale(0.015625)"/>
      <path id="DejaVuSans-6e" d="M 3513 2113 
L 3513 0 
L 2938 0 
L 2938 2094 
Q 2938 2591 2744 2837 
Q 2550 3084 2163 3084 
Q 1697 3084 1428 2787 
Q 1159 2491 1159 1978 
L 1159 0 
L 581 0 
L 581 3500 
L 1159 3500 
L 1159 2956 
Q 1366 3272 1645 3428 
Q 1925 3584 2291 3584 
Q 2894 3584 3203 3211 
Q 3513 2838 3513 2113 
z
" transform="scale(0.015625)"/>
      <path id="DejaVuSans-67" d="M 2906 1791 
Q 2906 2416 2648 2759 
Q 2391 3103 1925 3103 
Q 1463 3103 1205 2759 
Q 947 2416 947 1791 
Q 947 1169 1205 825 
Q 1463 481 1925 481 
Q 2391 481 2648 825 
Q 2906 1169 2906 1791 
z
M 3481 434 
Q 3481 -459 3084 -895 
Q 2688 -1331 1869 -1331 
Q 1566 -1331 1297 -1286 
Q 1028 -1241 775 -1147 
L 775 -588 
Q 1028 -725 1275 -790 
Q 1522 -856 1778 -856 
Q 2344 -856 2625 -561 
Q 2906 -266 2906 331 
L 2906 616 
Q 2728 306 2450 153 
Q 2172 0 1784 0 
Q 1141 0 747 490 
Q 353 981 353 1791 
Q 353 2603 747 3093 
Q 1141 3584 1784 3584 
Q 2172 3584 2450 3431 
Q 2728 3278 2906 2969 
L 2906 3500 
L 3481 3500 
L 3481 434 
z
" transform="scale(0.015625)"/>
      <path id="DejaVuSans-79" d="M 2059 -325 
Q 1816 -950 1584 -1140 
Q 1353 -1331 966 -1331 
L 506 -1331 
L 506 -850 
L 844 -850 
Q 1081 -850 1212 -737 
Q 1344 -625 1503 -206 
L 1606 56 
L 191 3500 
L 800 3500 
L 1894 763 
L 2988 3500 
L 3597 3500 
L 2059 -325 
z
" transform="scale(0.015625)"/>
      <path id="DejaVuSans-49" d="M 628 4666 
L 1259 4666 
L 1259 0 
L 628 0 
L 628 4666 
z
" transform="scale(0.015625)"/>
      <path id="DejaVuSans-66" d="M 2375 4863 
L 2375 4384 
L 1825 4384 
Q 1516 4384 1395 4259 
Q 1275 4134 1275 3809 
L 1275 3500 
L 2222 3500 
L 2222 3053 
L 1275 3053 
L 1275 0 
L 697 0 
L 697 3053 
L 147 3053 
L 147 3500 
L 697 3500 
L 697 3744 
Q 697 4328 969 4595 
Q 1241 4863 1831 4863 
L 2375 4863 
z
" transform="scale(0.015625)"/>
      <path id="DejaVuSans-69" d="M 603 3500 
L 1178 3500 
L 1178 0 
L 603 0 
L 603 3500 
z
M 603 4863 
L 1178 4863 
L 1178 4134 
L 603 4134 
L 603 4863 
z
" transform="scale(0.015625)"/>
      <path id="DejaVuSans-41" d="M 2188 4044 
L 1331 1722 
L 3047 1722 
L 2188 4044 
z
M 1831 4666 
L 2547 4666 
L 4325 0 
L 3669 0 
L 3244 1197 
L 1141 1197 
L 716 0 
L 50 0 
L 1831 4666 
z
" transform="scale(0.015625)"/>
      <path id="DejaVuSans-64" d="M 2906 2969 
L 2906 4863 
L 3481 4863 
L 3481 0 
L 2906 0 
L 2906 525 
Q 2725 213 2448 61 
Q 2172 -91 1784 -91 
Q 1150 -91 751 415 
Q 353 922 353 1747 
Q 353 2572 751 3078 
Q 1150 3584 1784 3584 
Q 2172 3584 2448 3432 
Q 2725 3281 2906 2969 
z
M 947 1747 
Q 947 1113 1208 752 
Q 1469 391 1925 391 
Q 2381 391 2643 752 
Q 2906 1113 2906 1747 
Q 2906 2381 2643 2742 
Q 2381 3103 1925 3103 
Q 1469 3103 1208 2742 
Q 947 2381 947 1747 
z
" transform="scale(0.015625)"/>
      <path id="DejaVuSans-73" d="M 2834 3397 
L 2834 2853 
Q 2591 2978 2328 3040 
Q 2066 3103 1784 3103 
Q 1356 3103 1142 2972 
Q 928 2841 928 2578 
Q 928 2378 1081 2264 
Q 1234 2150 1697 2047 
L 1894 2003 
Q 2506 1872 2764 1633 
Q 3022 1394 3022 966 
Q 3022 478 2636 193 
Q 2250 -91 1575 -91 
Q 1294 -91 989 -36 
Q 684 19 347 128 
L 347 722 
Q 666 556 975 473 
Q 1284 391 1588 391 
Q 1994 391 2212 530 
Q 2431 669 2431 922 
Q 2431 1156 2273 1281 
Q 2116 1406 1581 1522 
L 1381 1569 
Q 847 1681 609 1914 
Q 372 2147 372 2553 
Q 372 3047 722 3315 
Q 1072 3584 1716 3584 
Q 2034 3584 2315 3537 
Q 2597 3491 2834 3397 
z
" transform="scale(0.015625)"/>
      <path id="DejaVuSans-76" d="M 191 3500 
L 800 3500 
L 1894 563 
L 2988 3500 
L 3597 3500 
L 2284 0 
L 1503 0 
L 191 3500 
z
" transform="scale(0.015625)"/>
      <path id="DejaVuSans-46" d="M 628 4666 
L 3309 4666 
L 3309 4134 
L 1259 4134 
L 1259 2759 
L 3109 2759 
L 3109 2228 
L 1259 2228 
L 1259 0 
L 628 0 
L 628 4666 
z
" transform="scale(0.015625)"/>
      <path id="DejaVuSans-52" d="M 2841 2188 
Q 3044 2119 3236 1894 
Q 3428 1669 3622 1275 
L 4263 0 
L 3584 0 
L 2988 1197 
Q 2756 1666 2539 1819 
Q 2322 1972 1947 1972 
L 1259 1972 
L 1259 0 
L 628 0 
L 628 4666 
L 2053 4666 
Q 2853 4666 3247 4331 
Q 3641 3997 3641 3322 
Q 3641 2881 3436 2590 
Q 3231 2300 2841 2188 
z
M 1259 4147 
L 1259 2491 
L 2053 2491 
Q 2509 2491 2742 2702 
Q 2975 2913 2975 3322 
Q 2975 3731 2742 3939 
Q 2509 4147 2053 4147 
L 1259 4147 
z
" transform="scale(0.015625)"/>
     </defs>
     <use xlink:href="#DejaVuSans-51"/>
     <use xlink:href="#DejaVuSans-75" x="78.710938"/>
     <use xlink:href="#DejaVuSans-65" x="142.089844"/>
     <use xlink:href="#DejaVuSans-6c" x="203.613281"/>
     <use xlink:href="#DejaVuSans-6c" x="231.396484"/>
     <use xlink:href="#DejaVuSans-65" x="259.179688"/>
     <use xlink:href="#DejaVuSans-3a" x="320.703125"/>
     <use xlink:href="#DejaVuSans-20" x="354.394531"/>
     <use xlink:href="#DejaVuSans-55" x="386.181641"/>
     <use xlink:href="#DejaVuSans-2e" x="459.375"/>
     <use xlink:href="#DejaVuSans-53" x="491.162109"/>
     <use xlink:href="#DejaVuSans-2e" x="554.638672"/>
     <use xlink:href="#DejaVuSans-20" x="586.425781"/>
     <use xlink:href="#DejaVuSans-45" x="618.212891"/>
     <use xlink:href="#DejaVuSans-6e" x="681.396484"/>
     <use xlink:href="#DejaVuSans-65" x="744.775391"/>
     <use xlink:href="#DejaVuSans-72" x="806.298828"/>
     <use xlink:href="#DejaVuSans-67" x="845.662109"/>
     <use xlink:href="#DejaVuSans-79" x="909.138672"/>
     <use xlink:href="#DejaVuSans-20" x="968.318359"/>
     <use xlink:href="#DejaVuSans-49" x="1000.105469"/>
     <use xlink:href="#DejaVuSans-6e" x="1029.597656"/>
     <use xlink:href="#DejaVuSans-66" x="1092.976562"/>
     <use xlink:href="#DejaVuSans-6f" x="1128.181641"/>
     <use xlink:href="#DejaVuSans-72" x="1189.363281"/>
     <use xlink:href="#DejaVuSans-6d" x="1228.726562"/>
     <use xlink:href="#DejaVuSans-61" x="1326.138672"/>
     <use xlink:href="#DejaVuSans-74" x="1387.417969"/>
     <use xlink:href="#DejaVuSans-69" x="1426.626953"/>
     <use xlink:href="#DejaVuSans-6f" x="1454.410156"/>
     <use xlink:href="#DejaVuSans-6e" x="1515.591797"/>
     <use xlink:href="#DejaVuSans-20" x="1578.970703"/>
     <use xlink:href="#DejaVuSans-41" x="1610.757812"/>
     <use xlink:href="#DejaVuSans-64" x="1677.416016"/>
     <use xlink:href="#DejaVuSans-6d" x="1740.892578"/>
     <use xlink:href="#DejaVuSans-69" x="1838.304688"/>
     <use xlink:href="#DejaVuSans-6e" x="1866.087891"/>
     <use xlink:href="#DejaVuSans-69" x="1929.466797"/>
     <use xlink:href="#DejaVuSans-73" x="1957.25"/>
     <use xlink:href="#DejaVuSans-74" x="2009.349609"/>
     <use xlink:href="#DejaVuSans-72" x="2048.558594"/>
     <use xlink:href="#DejaVuSans-61" x="2089.671875"/>
     <use xlink:href="#DejaVuSans-74" x="2150.951172"/>
     <use xlink:href="#DejaVuSans-69" x="2190.160156"/>
     <use xlink:href="#DejaVuSans-6f" x="2217.943359"/>
     <use xlink:href="#DejaVuSans-6e" x="2279.125"/>
     <use xlink:href="#DejaVuSans-20" x="2342.503906"/>
     <use xlink:href="#DejaVuSans-76" x="2374.291016"/>
     <use xlink:href="#DejaVuSans-69" x="2433.470703"/>
     <use xlink:href="#DejaVuSans-61" x="2461.253906"/>
     <use xlink:href="#DejaVuSans-20" x="2522.533203"/>
     <use xlink:href="#DejaVuSans-46" x="2554.320312"/>
     <use xlink:href="#DejaVuSans-52" x="2611.839844"/>
     <use xlink:href="#DejaVuSans-45" x="2681.322266"/>
     <use xlink:href="#DejaVuSans-44" x="2744.505859"/>
    </g>
   </g>
   <g id="text_24">
    <!-- Beginn der akuten -->
    <g style="fill: #e6e6e6" transform="translate(647.842106 342.852037) scale(0.1 -0.1)">
     <defs>
      <path id="DejaVuSans-6b" d="M 581 4863 
L 1159 4863 
L 1159 1991 
L 2875 3500 
L 3609 3500 
L 1753 1863 
L 3688 0 
L 2938 0 
L 1159 1709 
L 1159 0 
L 581 0 
L 581 4863 
z
" transform="scale(0.015625)"/>
     </defs>
     <use xlink:href="#DejaVuSans-42"/>
     <use xlink:href="#DejaVuSans-65" x="68.603516"/>
     <use xlink:href="#DejaVuSans-67" x="130.126953"/>
     <use xlink:href="#DejaVuSans-69" x="193.603516"/>
     <use xlink:href="#DejaVuSans-6e" x="221.386719"/>
     <use xlink:href="#DejaVuSans-6e" x="284.765625"/>
     <use xlink:href="#DejaVuSans-20" x="348.144531"/>
     <use xlink:href="#DejaVuSans-64" x="379.931641"/>
     <use xlink:href="#DejaVuSans-65" x="443.408203"/>
     <use xlink:href="#DejaVuSans-72" x="504.931641"/>
     <use xlink:href="#DejaVuSans-20" x="546.044922"/>
     <use xlink:href="#DejaVuSans-61" x="577.832031"/>
     <use xlink:href="#DejaVuSans-6b" x="639.111328"/>
     <use xlink:href="#DejaVuSans-75" x="693.896484"/>
     <use xlink:href="#DejaVuSans-74" x="757.275391"/>
     <use xlink:href="#DejaVuSans-65" x="796.484375"/>
     <use xlink:href="#DejaVuSans-6e" x="858.007812"/>
    </g>
    <!-- Hormus-/Iran-Krise -->
    <g style="fill: #e6e6e6" transform="translate(647.842106 354.04985) scale(0.1 -0.1)">
     <defs>
      <path id="DejaVuSans-48" d="M 628 4666 
L 1259 4666 
L 1259 2753 
L 3553 2753 
L 3553 4666 
L 4184 4666 
L 4184 0 
L 3553 0 
L 3553 2222 
L 1259 2222 
L 1259 0 
L 628 0 
L 628 4666 
z
" transform="scale(0.015625)"/>
      <path id="DejaVuSans-2f" d="M 1625 4666 
L 2156 4666 
L 531 -594 
L 0 -594 
L 1625 4666 
z
" transform="scale(0.015625)"/>
      <path id="DejaVuSans-4b" d="M 628 4666 
L 1259 4666 
L 1259 2694 
L 3353 4666 
L 4166 4666 
L 1850 2491 
L 4331 0 
L 3500 0 
L 1259 2247 
L 1259 0 
L 628 0 
L 628 4666 
z
" transform="scale(0.015625)"/>
     </defs>
     <use xlink:href="#DejaVuSans-48"/>
     <use xlink:href="#DejaVuSans-6f" x="75.195312"/>
     <use xlink:href="#DejaVuSans-72" x="136.376953"/>
     <use xlink:href="#DejaVuSans-6d" x="175.740234"/>
     <use xlink:href="#DejaVuSans-75" x="273.152344"/>
     <use xlink:href="#DejaVuSans-73" x="336.53125"/>
     <use xlink:href="#DejaVuSans-2d" x="388.630859"/>
     <use xlink:href="#DejaVuSans-2f" x="424.714844"/>
     <use xlink:href="#DejaVuSans-49" x="458.40625"/>
     <use xlink:href="#DejaVuSans-72" x="487.898438"/>
     <use xlink:href="#DejaVuSans-61" x="529.011719"/>
     <use xlink:href="#DejaVuSans-6e" x="590.291016"/>
     <use xlink:href="#DejaVuSans-2d" x="653.669922"/>
     <use xlink:href="#DejaVuSans-4b" x="689.753906"/>
     <use xlink:href="#DejaVuSans-72" x="755.330078"/>
     <use xlink:href="#DejaVuSans-69" x="796.443359"/>
     <use xlink:href="#DejaVuSans-73" x="824.226562"/>
     <use xlink:href="#DejaVuSans-65" x="876.326172"/>
    </g>
   </g>
   <g id="legend_1">
    <g id="patch_7">
     <path d="M 770.184698 48.15625 
L 829.342511 48.15625 
Q 831.342511 48.15625 831.342511 46.15625 
L 831.342511 17.8 
Q 831.342511 15.8 829.342511 15.8 
L 770.184698 15.8 
Q 768.184698 15.8 768.184698 17.8 
L 768.184698 46.15625 
Q 768.184698 48.15625 770.184698 48.15625 
z
" style="opacity: 0.7; stroke: #cccccc; stroke-linejoin: miter"/>
    </g>
    <g id="line2d_44">
     <path d="M 772.184698 23.898438 
L 782.184698 23.898438 
L 792.184698 23.898438 
" style="fill: none; stroke: #cc241d; stroke-width: 1.5; stroke-linecap: square"/>
    </g>
    <g id="text_25">
     <!-- Brent -->
     <g style="fill: #e6e6e6" transform="translate(800.184698 27.398438) scale(0.1 -0.1)">
      <use xlink:href="#DejaVuSans-42"/>
      <use xlink:href="#DejaVuSans-72" x="68.603516"/>
      <use xlink:href="#DejaVuSans-65" x="107.466797"/>
      <use xlink:href="#DejaVuSans-6e" x="168.990234"/>
      <use xlink:href="#DejaVuSans-74" x="232.369141"/>
     </g>
    </g>
    <g id="line2d_45">
     <path d="M 772.184698 38.576563 
L 782.184698 38.576563 
L 792.184698 38.576563 
" style="fill: none; stroke: #98971a; stroke-width: 1.5; stroke-linecap: square"/>
    </g>
    <g id="text_26">
     <!-- WTI -->
     <g style="fill: #e6e6e6" transform="translate(800.184698 42.076563) scale(0.1 -0.1)">
      <defs>
       <path id="DejaVuSans-57" d="M 213 4666 
L 850 4666 
L 1831 722 
L 2809 4666 
L 3519 4666 
L 4500 722 
L 5478 4666 
L 6119 4666 
L 4947 0 
L 4153 0 
L 3169 4050 
L 2175 0 
L 1381 0 
L 213 4666 
z
" transform="scale(0.015625)"/>
       <path id="DejaVuSans-54" d="M -19 4666 
L 3928 4666 
L 3928 4134 
L 2272 4134 
L 2272 0 
L 1638 0 
L 1638 4134 
L -19 4134 
L -19 4666 
z
" transform="scale(0.015625)"/>
      </defs>
      <use xlink:href="#DejaVuSans-57"/>
      <use xlink:href="#DejaVuSans-54" x="98.876953"/>
      <use xlink:href="#DejaVuSans-49" x="159.960938"/>
     </g>
    </g>
   </g>
  </g>
 </g>
 <defs>
  <clipPath id="p44a46a377a">
   <rect x="53.75" y="10.8" width="782.592511" height="360.504"/>
  </clipPath>
 </defs>
</svg>
