<?xml version="1.0" encoding="utf-8" standalone="no"?>
<!DOCTYPE svg PUBLIC "-//W3C//DTD SVG 1.1//EN"
  "http://www.w3.org/Graphics/SVG/1.1/DTD/svg11.dtd">
<svg xmlns:xlink="http://www.w3.org/1999/xlink" width="864pt" height="432pt" viewBox="0 0 864 432" xmlns="http://www.w3.org/2000/svg" version="1.1">
 <metadata>
  <rdf:RDF xmlns:dc="http://purl.org/dc/elements/1.1/" xmlns:cc="http://creativecommons.org/ns#" xmlns:rdf="http://www.w3.org/1999/02/22-rdf-syntax-ns#">
   <cc:Work>
    <dc:type rdf:resource="http://purl.org/dc/dcmitype/StillImage"/>
    <dc:date>2026-05-15T15:36:07.354963</dc:date>
    <dc:format>image/svg+xml</dc:format>
    <dc:creator>
     <cc:Agent>
      <dc:title>Matplotlib v3.7.2, https://matplotlib.org/</dc:title>
     </cc:Agent>
    </dc:creator>
   </cc:Work>
  </rdf:RDF>
 </metadata>
 <defs>
  <style type="text/css">*{stroke-linejoin: round; stroke-linecap: butt}</style>
 </defs>
 <g id="figure_1">
  <g id="patch_1">
   <path d="M 0 432 
L 864 432 
L 864 0 
L 0 0 
L 0 432 
z
" style="fill: none"/>
  </g>
  <g id="axes_1">
   <g id="patch_2">
    <path d="M 72.65 371.304 
L 853.2 371.304 
L 853.2 10.8 
L 72.65 10.8 
L 72.65 371.304 
z
" style="fill: none"/>
   </g>
   <g id="matplotlib.axis_1">
    <g id="xtick_1">
     <g id="line2d_1">
      <path d="M 106.540909 371.304 
L 106.540909 10.8 
" clip-path="url(#pccc10525a2)" style="fill: none; stroke-dasharray: 1.85,0.8; stroke-dashoffset: 0; stroke: #808080; stroke-width: 0.5"/>
     </g>
     <g id="line2d_2">
      <defs>
       <path id="m26a0afc983" d="M 0 0 
L 0 3.5 
" style="stroke: #ffffff; stroke-width: 0.8"/>
      </defs>
      <g>
       <use xlink:href="#m26a0afc983" x="106.540909" y="371.304" style="fill: #ffffff; stroke: #ffffff; stroke-width: 0.8"/>
      </g>
     </g>
     <g id="text_1">
      <!-- 2019 -->
      <g style="fill: #ffffff" transform="translate(93.815909 385.902438) scale(0.1 -0.1)">
       <defs>
        <path id="DejaVuSans-32" d="M 1228 531 
L 3431 531 
L 3431 0 
L 469 0 
L 469 531 
Q 828 903 1448 1529 
Q 2069 2156 2228 2338 
Q 2531 2678 2651 2914 
Q 2772 3150 2772 3378 
Q 2772 3750 2511 3984 
Q 2250 4219 1831 4219 
Q 1534 4219 1204 4116 
Q 875 4013 500 3803 
L 500 4441 
Q 881 4594 1212 4672 
Q 1544 4750 1819 4750 
Q 2544 4750 2975 4387 
Q 3406 4025 3406 3419 
Q 3406 3131 3298 2873 
Q 3191 2616 2906 2266 
Q 2828 2175 2409 1742 
Q 1991 1309 1228 531 
z
" transform="scale(0.015625)"/>
        <path id="DejaVuSans-30" d="M 2034 4250 
Q 1547 4250 1301 3770 
Q 1056 3291 1056 2328 
Q 1056 1369 1301 889 
Q 1547 409 2034 409 
Q 2525 409 2770 889 
Q 3016 1369 3016 2328 
Q 3016 3291 2770 3770 
Q 2525 4250 2034 4250 
z
M 2034 4750 
Q 2819 4750 3233 4129 
Q 3647 3509 3647 2328 
Q 3647 1150 3233 529 
Q 2819 -91 2034 -91 
Q 1250 -91 836 529 
Q 422 1150 422 2328 
Q 422 3509 836 4129 
Q 1250 4750 2034 4750 
z
" transform="scale(0.015625)"/>
        <path id="DejaVuSans-31" d="M 794 531 
L 1825 531 
L 1825 4091 
L 703 3866 
L 703 4441 
L 1819 4666 
L 2450 4666 
L 2450 531 
L 3481 531 
L 3481 0 
L 794 0 
L 794 531 
z
" transform="scale(0.015625)"/>
        <path id="DejaVuSans-39" d="M 703 97 
L 703 672 
Q 941 559 1184 500 
Q 1428 441 1663 441 
Q 2288 441 2617 861 
Q 2947 1281 2994 2138 
Q 2813 1869 2534 1725 
Q 2256 1581 1919 1581 
Q 1219 1581 811 2004 
Q 403 2428 403 3163 
Q 403 3881 828 4315 
Q 1253 4750 1959 4750 
Q 2769 4750 3195 4129 
Q 3622 3509 3622 2328 
Q 3622 1225 3098 567 
Q 2575 -91 1691 -91 
Q 1453 -91 1209 -44 
Q 966 3 703 97 
z
M 1959 2075 
Q 2384 2075 2632 2365 
Q 2881 2656 2881 3163 
Q 2881 3666 2632 3958 
Q 2384 4250 1959 4250 
Q 1534 4250 1286 3958 
Q 1038 3666 1038 3163 
Q 1038 2656 1286 2365 
Q 1534 2075 1959 2075 
z
" transform="scale(0.015625)"/>
       </defs>
       <use xlink:href="#DejaVuSans-32"/>
       <use xlink:href="#DejaVuSans-30" x="63.623047"/>
       <use xlink:href="#DejaVuSans-31" x="127.246094"/>
       <use xlink:href="#DejaVuSans-39" x="190.869141"/>
      </g>
     </g>
    </g>
    <g id="xtick_2">
     <g id="line2d_3">
      <path d="M 203.182955 371.304 
L 203.182955 10.8 
" clip-path="url(#pccc10525a2)" style="fill: none; stroke-dasharray: 1.85,0.8; stroke-dashoffset: 0; stroke: #808080; stroke-width: 0.5"/>
     </g>
     <g id="line2d_4">
      <g>
       <use xlink:href="#m26a0afc983" x="203.182955" y="371.304" style="fill: #ffffff; stroke: #ffffff; stroke-width: 0.8"/>
      </g>
     </g>
     <g id="text_2">
      <!-- 2020 -->
      <g style="fill: #ffffff" transform="translate(190.457955 385.902438) scale(0.1 -0.1)">
       <use xlink:href="#DejaVuSans-32"/>
       <use xlink:href="#DejaVuSans-30" x="63.623047"/>
       <use xlink:href="#DejaVuSans-32" x="127.246094"/>
       <use xlink:href="#DejaVuSans-30" x="190.869141"/>
      </g>
     </g>
    </g>
    <g id="xtick_3">
     <g id="line2d_5">
      <path d="M 300.089773 371.304 
L 300.089773 10.8 
" clip-path="url(#pccc10525a2)" style="fill: none; stroke-dasharray: 1.85,0.8; stroke-dashoffset: 0; stroke: #808080; stroke-width: 0.5"/>
     </g>
     <g id="line2d_6">
      <g>
       <use xlink:href="#m26a0afc983" x="300.089773" y="371.304" style="fill: #ffffff; stroke: #ffffff; stroke-width: 0.8"/>
      </g>
     </g>
     <g id="text_3">
      <!-- 2021 -->
      <g style="fill: #ffffff" transform="translate(287.364773 385.902438) scale(0.1 -0.1)">
       <use xlink:href="#DejaVuSans-32"/>
       <use xlink:href="#DejaVuSans-30" x="63.623047"/>
       <use xlink:href="#DejaVuSans-32" x="127.246094"/>
       <use xlink:href="#DejaVuSans-31" x="190.869141"/>
      </g>
     </g>
    </g>
    <g id="xtick_4">
     <g id="line2d_7">
      <path d="M 396.731818 371.304 
L 396.731818 10.8 
" clip-path="url(#pccc10525a2)" style="fill: none; stroke-dasharray: 1.85,0.8; stroke-dashoffset: 0; stroke: #808080; stroke-width: 0.5"/>
     </g>
     <g id="line2d_8">
      <g>
       <use xlink:href="#m26a0afc983" x="396.731818" y="371.304" style="fill: #ffffff; stroke: #ffffff; stroke-width: 0.8"/>
      </g>
     </g>
     <g id="text_4">
      <!-- 2022 -->
      <g style="fill: #ffffff" transform="translate(384.006818 385.902438) scale(0.1 -0.1)">
       <use xlink:href="#DejaVuSans-32"/>
       <use xlink:href="#DejaVuSans-30" x="63.623047"/>
       <use xlink:href="#DejaVuSans-32" x="127.246094"/>
       <use xlink:href="#DejaVuSans-32" x="190.869141"/>
      </g>
     </g>
    </g>
    <g id="xtick_5">
     <g id="line2d_9">
      <path d="M 493.373864 371.304 
L 493.373864 10.8 
" clip-path="url(#pccc10525a2)" style="fill: none; stroke-dasharray: 1.85,0.8; stroke-dashoffset: 0; stroke: #808080; stroke-width: 0.5"/>
     </g>
     <g id="line2d_10">
      <g>
       <use xlink:href="#m26a0afc983" x="493.373864" y="371.304" style="fill: #ffffff; stroke: #ffffff; stroke-width: 0.8"/>
      </g>
     </g>
     <g id="text_5">
      <!-- 2023 -->
      <g style="fill: #ffffff" transform="translate(480.648864 385.902438) scale(0.1 -0.1)">
       <defs>
        <path id="DejaVuSans-33" d="M 2597 2516 
Q 3050 2419 3304 2112 
Q 3559 1806 3559 1356 
Q 3559 666 3084 287 
Q 2609 -91 1734 -91 
Q 1441 -91 1130 -33 
Q 819 25 488 141 
L 488 750 
Q 750 597 1062 519 
Q 1375 441 1716 441 
Q 2309 441 2620 675 
Q 2931 909 2931 1356 
Q 2931 1769 2642 2001 
Q 2353 2234 1838 2234 
L 1294 2234 
L 1294 2753 
L 1863 2753 
Q 2328 2753 2575 2939 
Q 2822 3125 2822 3475 
Q 2822 3834 2567 4026 
Q 2313 4219 1838 4219 
Q 1578 4219 1281 4162 
Q 984 4106 628 3988 
L 628 4550 
Q 988 4650 1302 4700 
Q 1616 4750 1894 4750 
Q 2613 4750 3031 4423 
Q 3450 4097 3450 3541 
Q 3450 3153 3228 2886 
Q 3006 2619 2597 2516 
z
" transform="scale(0.015625)"/>
       </defs>
       <use xlink:href="#DejaVuSans-32"/>
       <use xlink:href="#DejaVuSans-30" x="63.623047"/>
       <use xlink:href="#DejaVuSans-32" x="127.246094"/>
       <use xlink:href="#DejaVuSans-33" x="190.869141"/>
      </g>
     </g>
    </g>
    <g id="xtick_6">
     <g id="line2d_11">
      <path d="M 590.015909 371.304 
L 590.015909 10.8 
" clip-path="url(#pccc10525a2)" style="fill: none; stroke-dasharray: 1.85,0.8; stroke-dashoffset: 0; stroke: #808080; stroke-width: 0.5"/>
     </g>
     <g id="line2d_12">
      <g>
       <use xlink:href="#m26a0afc983" x="590.015909" y="371.304" style="fill: #ffffff; stroke: #ffffff; stroke-width: 0.8"/>
      </g>
     </g>
     <g id="text_6">
      <!-- 2024 -->
      <g style="fill: #ffffff" transform="translate(577.290909 385.902438) scale(0.1 -0.1)">
       <defs>
        <path id="DejaVuSans-34" d="M 2419 4116 
L 825 1625 
L 2419 1625 
L 2419 4116 
z
M 2253 4666 
L 3047 4666 
L 3047 1625 
L 3713 1625 
L 3713 1100 
L 3047 1100 
L 3047 0 
L 2419 0 
L 2419 1100 
L 313 1100 
L 313 1709 
L 2253 4666 
z
" transform="scale(0.015625)"/>
       </defs>
       <use xlink:href="#DejaVuSans-32"/>
       <use xlink:href="#DejaVuSans-30" x="63.623047"/>
       <use xlink:href="#DejaVuSans-32" x="127.246094"/>
       <use xlink:href="#DejaVuSans-34" x="190.869141"/>
      </g>
     </g>
    </g>
    <g id="xtick_7">
     <g id="line2d_13">
      <path d="M 686.922727 371.304 
L 686.922727 10.8 
" clip-path="url(#pccc10525a2)" style="fill: none; stroke-dasharray: 1.85,0.8; stroke-dashoffset: 0; stroke: #808080; stroke-width: 0.5"/>
     </g>
     <g id="line2d_14">
      <g>
       <use xlink:href="#m26a0afc983" x="686.922727" y="371.304" style="fill: #ffffff; stroke: #ffffff; stroke-width: 0.8"/>
      </g>
     </g>
     <g id="text_7">
      <!-- 2025 -->
      <g style="fill: #ffffff" transform="translate(674.197727 385.902438) scale(0.1 -0.1)">
       <defs>
        <path id="DejaVuSans-35" d="M 691 4666 
L 3169 4666 
L 3169 4134 
L 1269 4134 
L 1269 2991 
Q 1406 3038 1543 3061 
Q 1681 3084 1819 3084 
Q 2600 3084 3056 2656 
Q 3513 2228 3513 1497 
Q 3513 744 3044 326 
Q 2575 -91 1722 -91 
Q 1428 -91 1123 -41 
Q 819 9 494 109 
L 494 744 
Q 775 591 1075 516 
Q 1375 441 1709 441 
Q 2250 441 2565 725 
Q 2881 1009 2881 1497 
Q 2881 1984 2565 2268 
Q 2250 2553 1709 2553 
Q 1456 2553 1204 2497 
Q 953 2441 691 2322 
L 691 4666 
z
" transform="scale(0.015625)"/>
       </defs>
       <use xlink:href="#DejaVuSans-32"/>
       <use xlink:href="#DejaVuSans-30" x="63.623047"/>
       <use xlink:href="#DejaVuSans-32" x="127.246094"/>
       <use xlink:href="#DejaVuSans-35" x="190.869141"/>
      </g>
     </g>
    </g>
    <g id="xtick_8">
     <g id="line2d_15">
      <path d="M 783.564773 371.304 
L 783.564773 10.8 
" clip-path="url(#pccc10525a2)" style="fill: none; stroke-dasharray: 1.85,0.8; stroke-dashoffset: 0; stroke: #808080; stroke-width: 0.5"/>
     </g>
     <g id="line2d_16">
      <g>
       <use xlink:href="#m26a0afc983" x="783.564773" y="371.304" style="fill: #ffffff; stroke: #ffffff; stroke-width: 0.8"/>
      </g>
     </g>
     <g id="text_8">
      <!-- 2026 -->
      <g style="fill: #ffffff" transform="translate(770.839773 385.902438) scale(0.1 -0.1)">
       <defs>
        <path id="DejaVuSans-36" d="M 2113 2584 
Q 1688 2584 1439 2293 
Q 1191 2003 1191 1497 
Q 1191 994 1439 701 
Q 1688 409 2113 409 
Q 2538 409 2786 701 
Q 3034 994 3034 1497 
Q 3034 2003 2786 2293 
Q 2538 2584 2113 2584 
z
M 3366 4563 
L 3366 3988 
Q 3128 4100 2886 4159 
Q 2644 4219 2406 4219 
Q 1781 4219 1451 3797 
Q 1122 3375 1075 2522 
Q 1259 2794 1537 2939 
Q 1816 3084 2150 3084 
Q 2853 3084 3261 2657 
Q 3669 2231 3669 1497 
Q 3669 778 3244 343 
Q 2819 -91 2113 -91 
Q 1303 -91 875 529 
Q 447 1150 447 2328 
Q 447 3434 972 4092 
Q 1497 4750 2381 4750 
Q 2619 4750 2861 4703 
Q 3103 4656 3366 4563 
z
" transform="scale(0.015625)"/>
       </defs>
       <use xlink:href="#DejaVuSans-32"/>
       <use xlink:href="#DejaVuSans-30" x="63.623047"/>
       <use xlink:href="#DejaVuSans-32" x="127.246094"/>
       <use xlink:href="#DejaVuSans-36" x="190.869141"/>
      </g>
     </g>
    </g>
    <g id="text_9">
     <!-- Datum -->
     <g style="fill: #d3d3d3" transform="translate(442.629063 401.10025) scale(0.12 -0.12)">
      <defs>
       <path id="DejaVuSans-44" d="M 1259 4147 
L 1259 519 
L 2022 519 
Q 2988 519 3436 956 
Q 3884 1394 3884 2338 
Q 3884 3275 3436 3711 
Q 2988 4147 2022 4147 
L 1259 4147 
z
M 628 4666 
L 1925 4666 
Q 3281 4666 3915 4102 
Q 4550 3538 4550 2338 
Q 4550 1131 3912 565 
Q 3275 0 1925 0 
L 628 0 
L 628 4666 
z
" transform="scale(0.015625)"/>
       <path id="DejaVuSans-61" d="M 2194 1759 
Q 1497 1759 1228 1600 
Q 959 1441 959 1056 
Q 959 750 1161 570 
Q 1363 391 1709 391 
Q 2188 391 2477 730 
Q 2766 1069 2766 1631 
L 2766 1759 
L 2194 1759 
z
M 3341 1997 
L 3341 0 
L 2766 0 
L 2766 531 
Q 2569 213 2275 61 
Q 1981 -91 1556 -91 
Q 1019 -91 701 211 
Q 384 513 384 1019 
Q 384 1609 779 1909 
Q 1175 2209 1959 2209 
L 2766 2209 
L 2766 2266 
Q 2766 2663 2505 2880 
Q 2244 3097 1772 3097 
Q 1472 3097 1187 3025 
Q 903 2953 641 2809 
L 641 3341 
Q 956 3463 1253 3523 
Q 1550 3584 1831 3584 
Q 2591 3584 2966 3190 
Q 3341 2797 3341 1997 
z
" transform="scale(0.015625)"/>
       <path id="DejaVuSans-74" d="M 1172 4494 
L 1172 3500 
L 2356 3500 
L 2356 3053 
L 1172 3053 
L 1172 1153 
Q 1172 725 1289 603 
Q 1406 481 1766 481 
L 2356 481 
L 2356 0 
L 1766 0 
Q 1100 0 847 248 
Q 594 497 594 1153 
L 594 3053 
L 172 3053 
L 172 3500 
L 594 3500 
L 594 4494 
L 1172 4494 
z
" transform="scale(0.015625)"/>
       <path id="DejaVuSans-75" d="M 544 1381 
L 544 3500 
L 1119 3500 
L 1119 1403 
Q 1119 906 1312 657 
Q 1506 409 1894 409 
Q 2359 409 2629 706 
Q 2900 1003 2900 1516 
L 2900 3500 
L 3475 3500 
L 3475 0 
L 2900 0 
L 2900 538 
Q 2691 219 2414 64 
Q 2138 -91 1772 -91 
Q 1169 -91 856 284 
Q 544 659 544 1381 
z
M 1991 3584 
L 1991 3584 
z
" transform="scale(0.015625)"/>
       <path id="DejaVuSans-6d" d="M 3328 2828 
Q 3544 3216 3844 3400 
Q 4144 3584 4550 3584 
Q 5097 3584 5394 3201 
Q 5691 2819 5691 2113 
L 5691 0 
L 5113 0 
L 5113 2094 
Q 5113 2597 4934 2840 
Q 4756 3084 4391 3084 
Q 3944 3084 3684 2787 
Q 3425 2491 3425 1978 
L 3425 0 
L 2847 0 
L 2847 2094 
Q 2847 2600 2669 2842 
Q 2491 3084 2119 3084 
Q 1678 3084 1418 2786 
Q 1159 2488 1159 1978 
L 1159 0 
L 581 0 
L 581 3500 
L 1159 3500 
L 1159 2956 
Q 1356 3278 1631 3431 
Q 1906 3584 2284 3584 
Q 2666 3584 2933 3390 
Q 3200 3197 3328 2828 
z
" transform="scale(0.015625)"/>
      </defs>
      <use xlink:href="#DejaVuSans-44"/>
      <use xlink:href="#DejaVuSans-61" x="77.001953"/>
      <use xlink:href="#DejaVuSans-74" x="138.28125"/>
      <use xlink:href="#DejaVuSans-75" x="177.490234"/>
      <use xlink:href="#DejaVuSans-6d" x="240.869141"/>
     </g>
    </g>
   </g>
   <g id="matplotlib.axis_2">
    <g id="ytick_1">
     <g id="line2d_17">
      <path d="M 72.65 371.304 
L 853.2 371.304 
" clip-path="url(#pccc10525a2)" style="fill: none; stroke-dasharray: 1.85,0.8; stroke-dashoffset: 0; stroke: #808080; stroke-width: 0.5"/>
     </g>
     <g id="line2d_18">
      <defs>
       <path id="m7dc631b3a1" d="M 0 0 
L -3.5 0 
" style="stroke: #ffffff; stroke-width: 0.8"/>
      </defs>
      <g>
       <use xlink:href="#m7dc631b3a1" x="72.65" y="371.304" style="fill: #ffffff; stroke: #ffffff; stroke-width: 0.8"/>
      </g>
     </g>
     <g id="text_10">
      <!-- 0 -->
      <g style="fill: #ffffff" transform="translate(59.2875 375.103219) scale(0.1 -0.1)">
       <use xlink:href="#DejaVuSans-30"/>
      </g>
     </g>
    </g>
    <g id="ytick_2">
     <g id="line2d_19">
      <path d="M 72.65 317.701375 
L 853.2 317.701375 
" clip-path="url(#pccc10525a2)" style="fill: none; stroke-dasharray: 1.85,0.8; stroke-dashoffset: 0; stroke: #808080; stroke-width: 0.5"/>
     </g>
     <g id="line2d_20">
      <g>
       <use xlink:href="#m7dc631b3a1" x="72.65" y="317.701375" style="fill: #ffffff; stroke: #ffffff; stroke-width: 0.8"/>
      </g>
     </g>
     <g id="text_11">
      <!-- 50000 -->
      <g style="fill: #ffffff" transform="translate(33.8375 321.500594) scale(0.1 -0.1)">
       <use xlink:href="#DejaVuSans-35"/>
       <use xlink:href="#DejaVuSans-30" x="63.623047"/>
       <use xlink:href="#DejaVuSans-30" x="127.246094"/>
       <use xlink:href="#DejaVuSans-30" x="190.869141"/>
       <use xlink:href="#DejaVuSans-30" x="254.492188"/>
      </g>
     </g>
    </g>
    <g id="ytick_3">
     <g id="line2d_21">
      <path d="M 72.65 264.09875 
L 853.2 264.09875 
" clip-path="url(#pccc10525a2)" style="fill: none; stroke-dasharray: 1.85,0.8; stroke-dashoffset: 0; stroke: #808080; stroke-width: 0.5"/>
     </g>
     <g id="line2d_22">
      <g>
       <use xlink:href="#m7dc631b3a1" x="72.65" y="264.09875" style="fill: #ffffff; stroke: #ffffff; stroke-width: 0.8"/>
      </g>
     </g>
     <g id="text_12">
      <!-- 100000 -->
      <g style="fill: #ffffff" transform="translate(27.475 267.897968) scale(0.1 -0.1)">
       <use xlink:href="#DejaVuSans-31"/>
       <use xlink:href="#DejaVuSans-30" x="63.623047"/>
       <use xlink:href="#DejaVuSans-30" x="127.246094"/>
       <use xlink:href="#DejaVuSans-30" x="190.869141"/>
       <use xlink:href="#DejaVuSans-30" x="254.492188"/>
       <use xlink:href="#DejaVuSans-30" x="318.115234"/>
      </g>
     </g>
    </g>
    <g id="ytick_4">
     <g id="line2d_23">
      <path d="M 72.65 210.496124 
L 853.2 210.496124 
" clip-path="url(#pccc10525a2)" style="fill: none; stroke-dasharray: 1.85,0.8; stroke-dashoffset: 0; stroke: #808080; stroke-width: 0.5"/>
     </g>
     <g id="line2d_24">
      <g>
       <use xlink:href="#m7dc631b3a1" x="72.65" y="210.496124" style="fill: #ffffff; stroke: #ffffff; stroke-width: 0.8"/>
      </g>
     </g>
     <g id="text_13">
      <!-- 150000 -->
      <g style="fill: #ffffff" transform="translate(27.475 214.295343) scale(0.1 -0.1)">
       <use xlink:href="#DejaVuSans-31"/>
       <use xlink:href="#DejaVuSans-35" x="63.623047"/>
       <use xlink:href="#DejaVuSans-30" x="127.246094"/>
       <use xlink:href="#DejaVuSans-30" x="190.869141"/>
       <use xlink:href="#DejaVuSans-30" x="254.492188"/>
       <use xlink:href="#DejaVuSans-30" x="318.115234"/>
      </g>
     </g>
    </g>
    <g id="ytick_5">
     <g id="line2d_25">
      <path d="M 72.65 156.893499 
L 853.2 156.893499 
" clip-path="url(#pccc10525a2)" style="fill: none; stroke-dasharray: 1.85,0.8; stroke-dashoffset: 0; stroke: #808080; stroke-width: 0.5"/>
     </g>
     <g id="line2d_26">
      <g>
       <use xlink:href="#m7dc631b3a1" x="72.65" y="156.893499" style="fill: #ffffff; stroke: #ffffff; stroke-width: 0.8"/>
      </g>
     </g>
     <g id="text_14">
      <!-- 200000 -->
      <g style="fill: #ffffff" transform="translate(27.475 160.692718) scale(0.1 -0.1)">
       <use xlink:href="#DejaVuSans-32"/>
       <use xlink:href="#DejaVuSans-30" x="63.623047"/>
       <use xlink:href="#DejaVuSans-30" x="127.246094"/>
       <use xlink:href="#DejaVuSans-30" x="190.869141"/>
       <use xlink:href="#DejaVuSans-30" x="254.492188"/>
       <use xlink:href="#DejaVuSans-30" x="318.115234"/>
      </g>
     </g>
    </g>
    <g id="ytick_6">
     <g id="line2d_27">
      <path d="M 72.65 103.290874 
L 853.2 103.290874 
" clip-path="url(#pccc10525a2)" style="fill: none; stroke-dasharray: 1.85,0.8; stroke-dashoffset: 0; stroke: #808080; stroke-width: 0.5"/>
     </g>
     <g id="line2d_28">
      <g>
       <use xlink:href="#m7dc631b3a1" x="72.65" y="103.290874" style="fill: #ffffff; stroke: #ffffff; stroke-width: 0.8"/>
      </g>
     </g>
     <g id="text_15">
      <!-- 250000 -->
      <g style="fill: #ffffff" transform="translate(27.475 107.090093) scale(0.1 -0.1)">
       <use xlink:href="#DejaVuSans-32"/>
       <use xlink:href="#DejaVuSans-35" x="63.623047"/>
       <use xlink:href="#DejaVuSans-30" x="127.246094"/>
       <use xlink:href="#DejaVuSans-30" x="190.869141"/>
       <use xlink:href="#DejaVuSans-30" x="254.492188"/>
       <use xlink:href="#DejaVuSans-30" x="318.115234"/>
      </g>
     </g>
    </g>
    <g id="ytick_7">
     <g id="line2d_29">
      <path d="M 72.65 49.688249 
L 853.2 49.688249 
" clip-path="url(#pccc10525a2)" style="fill: none; stroke-dasharray: 1.85,0.8; stroke-dashoffset: 0; stroke: #808080; stroke-width: 0.5"/>
     </g>
     <g id="line2d_30">
      <g>
       <use xlink:href="#m7dc631b3a1" x="72.65" y="49.688249" style="fill: #ffffff; stroke: #ffffff; stroke-width: 0.8"/>
      </g>
     </g>
     <g id="text_16">
      <!-- 300000 -->
      <g style="fill: #ffffff" transform="translate(27.475 53.487468) scale(0.1 -0.1)">
       <use xlink:href="#DejaVuSans-33"/>
       <use xlink:href="#DejaVuSans-30" x="63.623047"/>
       <use xlink:href="#DejaVuSans-30" x="127.246094"/>
       <use xlink:href="#DejaVuSans-30" x="190.869141"/>
       <use xlink:href="#DejaVuSans-30" x="254.492188"/>
       <use xlink:href="#DejaVuSans-30" x="318.115234"/>
      </g>
     </g>
    </g>
    <g id="text_17">
     <!-- Metrische Tonnen, 28-Tage-Durchschnitt -->
     <g style="fill: #d3d3d3" transform="translate(20.979375 310.987313) rotate(-90) scale(0.12 -0.12)">
      <defs>
       <path id="DejaVuSans-4d" d="M 628 4666 
L 1569 4666 
L 2759 1491 
L 3956 4666 
L 4897 4666 
L 4897 0 
L 4281 0 
L 4281 4097 
L 3078 897 
L 2444 897 
L 1241 4097 
L 1241 0 
L 628 0 
L 628 4666 
z
" transform="scale(0.015625)"/>
       <path id="DejaVuSans-65" d="M 3597 1894 
L 3597 1613 
L 953 1613 
Q 991 1019 1311 708 
Q 1631 397 2203 397 
Q 2534 397 2845 478 
Q 3156 559 3463 722 
L 3463 178 
Q 3153 47 2828 -22 
Q 2503 -91 2169 -91 
Q 1331 -91 842 396 
Q 353 884 353 1716 
Q 353 2575 817 3079 
Q 1281 3584 2069 3584 
Q 2775 3584 3186 3129 
Q 3597 2675 3597 1894 
z
M 3022 2063 
Q 3016 2534 2758 2815 
Q 2500 3097 2075 3097 
Q 1594 3097 1305 2825 
Q 1016 2553 972 2059 
L 3022 2063 
z
" transform="scale(0.015625)"/>
       <path id="DejaVuSans-72" d="M 2631 2963 
Q 2534 3019 2420 3045 
Q 2306 3072 2169 3072 
Q 1681 3072 1420 2755 
Q 1159 2438 1159 1844 
L 1159 0 
L 581 0 
L 581 3500 
L 1159 3500 
L 1159 2956 
Q 1341 3275 1631 3429 
Q 1922 3584 2338 3584 
Q 2397 3584 2469 3576 
Q 2541 3569 2628 3553 
L 2631 2963 
z
" transform="scale(0.015625)"/>
       <path id="DejaVuSans-69" d="M 603 3500 
L 1178 3500 
L 1178 0 
L 603 0 
L 603 3500 
z
M 603 4863 
L 1178 4863 
L 1178 4134 
L 603 4134 
L 603 4863 
z
" transform="scale(0.015625)"/>
       <path id="DejaVuSans-73" d="M 2834 3397 
L 2834 2853 
Q 2591 2978 2328 3040 
Q 2066 3103 1784 3103 
Q 1356 3103 1142 2972 
Q 928 2841 928 2578 
Q 928 2378 1081 2264 
Q 1234 2150 1697 2047 
L 1894 2003 
Q 2506 1872 2764 1633 
Q 3022 1394 3022 966 
Q 3022 478 2636 193 
Q 2250 -91 1575 -91 
Q 1294 -91 989 -36 
Q 684 19 347 128 
L 347 722 
Q 666 556 975 473 
Q 1284 391 1588 391 
Q 1994 391 2212 530 
Q 2431 669 2431 922 
Q 2431 1156 2273 1281 
Q 2116 1406 1581 1522 
L 1381 1569 
Q 847 1681 609 1914 
Q 372 2147 372 2553 
Q 372 3047 722 3315 
Q 1072 3584 1716 3584 
Q 2034 3584 2315 3537 
Q 2597 3491 2834 3397 
z
" transform="scale(0.015625)"/>
       <path id="DejaVuSans-63" d="M 3122 3366 
L 3122 2828 
Q 2878 2963 2633 3030 
Q 2388 3097 2138 3097 
Q 1578 3097 1268 2742 
Q 959 2388 959 1747 
Q 959 1106 1268 751 
Q 1578 397 2138 397 
Q 2388 397 2633 464 
Q 2878 531 3122 666 
L 3122 134 
Q 2881 22 2623 -34 
Q 2366 -91 2075 -91 
Q 1284 -91 818 406 
Q 353 903 353 1747 
Q 353 2603 823 3093 
Q 1294 3584 2113 3584 
Q 2378 3584 2631 3529 
Q 2884 3475 3122 3366 
z
" transform="scale(0.015625)"/>
       <path id="DejaVuSans-68" d="M 3513 2113 
L 3513 0 
L 2938 0 
L 2938 2094 
Q 2938 2591 2744 2837 
Q 2550 3084 2163 3084 
Q 1697 3084 1428 2787 
Q 1159 2491 1159 1978 
L 1159 0 
L 581 0 
L 581 4863 
L 1159 4863 
L 1159 2956 
Q 1366 3272 1645 3428 
Q 1925 3584 2291 3584 
Q 2894 3584 3203 3211 
Q 3513 2838 3513 2113 
z
" transform="scale(0.015625)"/>
       <path id="DejaVuSans-20" transform="scale(0.015625)"/>
       <path id="DejaVuSans-54" d="M -19 4666 
L 3928 4666 
L 3928 4134 
L 2272 4134 
L 2272 0 
L 1638 0 
L 1638 4134 
L -19 4134 
L -19 4666 
z
" transform="scale(0.015625)"/>
       <path id="DejaVuSans-6f" d="M 1959 3097 
Q 1497 3097 1228 2736 
Q 959 2375 959 1747 
Q 959 1119 1226 758 
Q 1494 397 1959 397 
Q 2419 397 2687 759 
Q 2956 1122 2956 1747 
Q 2956 2369 2687 2733 
Q 2419 3097 1959 3097 
z
M 1959 3584 
Q 2709 3584 3137 3096 
Q 3566 2609 3566 1747 
Q 3566 888 3137 398 
Q 2709 -91 1959 -91 
Q 1206 -91 779 398 
Q 353 888 353 1747 
Q 353 2609 779 3096 
Q 1206 3584 1959 3584 
z
" transform="scale(0.015625)"/>
       <path id="DejaVuSans-6e" d="M 3513 2113 
L 3513 0 
L 2938 0 
L 2938 2094 
Q 2938 2591 2744 2837 
Q 2550 3084 2163 3084 
Q 1697 3084 1428 2787 
Q 1159 2491 1159 1978 
L 1159 0 
L 581 0 
L 581 3500 
L 1159 3500 
L 1159 2956 
Q 1366 3272 1645 3428 
Q 1925 3584 2291 3584 
Q 2894 3584 3203 3211 
Q 3513 2838 3513 2113 
z
" transform="scale(0.015625)"/>
       <path id="DejaVuSans-2c" d="M 750 794 
L 1409 794 
L 1409 256 
L 897 -744 
L 494 -744 
L 750 256 
L 750 794 
z
" transform="scale(0.015625)"/>
       <path id="DejaVuSans-38" d="M 2034 2216 
Q 1584 2216 1326 1975 
Q 1069 1734 1069 1313 
Q 1069 891 1326 650 
Q 1584 409 2034 409 
Q 2484 409 2743 651 
Q 3003 894 3003 1313 
Q 3003 1734 2745 1975 
Q 2488 2216 2034 2216 
z
M 1403 2484 
Q 997 2584 770 2862 
Q 544 3141 544 3541 
Q 544 4100 942 4425 
Q 1341 4750 2034 4750 
Q 2731 4750 3128 4425 
Q 3525 4100 3525 3541 
Q 3525 3141 3298 2862 
Q 3072 2584 2669 2484 
Q 3125 2378 3379 2068 
Q 3634 1759 3634 1313 
Q 3634 634 3220 271 
Q 2806 -91 2034 -91 
Q 1263 -91 848 271 
Q 434 634 434 1313 
Q 434 1759 690 2068 
Q 947 2378 1403 2484 
z
M 1172 3481 
Q 1172 3119 1398 2916 
Q 1625 2713 2034 2713 
Q 2441 2713 2670 2916 
Q 2900 3119 2900 3481 
Q 2900 3844 2670 4047 
Q 2441 4250 2034 4250 
Q 1625 4250 1398 4047 
Q 1172 3844 1172 3481 
z
" transform="scale(0.015625)"/>
       <path id="DejaVuSans-2d" d="M 313 2009 
L 1997 2009 
L 1997 1497 
L 313 1497 
L 313 2009 
z
" transform="scale(0.015625)"/>
       <path id="DejaVuSans-67" d="M 2906 1791 
Q 2906 2416 2648 2759 
Q 2391 3103 1925 3103 
Q 1463 3103 1205 2759 
Q 947 2416 947 1791 
Q 947 1169 1205 825 
Q 1463 481 1925 481 
Q 2391 481 2648 825 
Q 2906 1169 2906 1791 
z
M 3481 434 
Q 3481 -459 3084 -895 
Q 2688 -1331 1869 -1331 
Q 1566 -1331 1297 -1286 
Q 1028 -1241 775 -1147 
L 775 -588 
Q 1028 -725 1275 -790 
Q 1522 -856 1778 -856 
Q 2344 -856 2625 -561 
Q 2906 -266 2906 331 
L 2906 616 
Q 2728 306 2450 153 
Q 2172 0 1784 0 
Q 1141 0 747 490 
Q 353 981 353 1791 
Q 353 2603 747 3093 
Q 1141 3584 1784 3584 
Q 2172 3584 2450 3431 
Q 2728 3278 2906 2969 
L 2906 3500 
L 3481 3500 
L 3481 434 
z
" transform="scale(0.015625)"/>
      </defs>
      <use xlink:href="#DejaVuSans-4d"/>
      <use xlink:href="#DejaVuSans-65" x="86.279297"/>
      <use xlink:href="#DejaVuSans-74" x="147.802734"/>
      <use xlink:href="#DejaVuSans-72" x="187.011719"/>
      <use xlink:href="#DejaVuSans-69" x="228.125"/>
      <use xlink:href="#DejaVuSans-73" x="255.908203"/>
      <use xlink:href="#DejaVuSans-63" x="308.007812"/>
      <use xlink:href="#DejaVuSans-68" x="362.988281"/>
      <use xlink:href="#DejaVuSans-65" x="426.367188"/>
      <use xlink:href="#DejaVuSans-20" x="487.890625"/>
      <use xlink:href="#DejaVuSans-54" x="519.677734"/>
      <use xlink:href="#DejaVuSans-6f" x="563.761719"/>
      <use xlink:href="#DejaVuSans-6e" x="624.943359"/>
      <use xlink:href="#DejaVuSans-6e" x="688.322266"/>
      <use xlink:href="#DejaVuSans-65" x="751.701172"/>
      <use xlink:href="#DejaVuSans-6e" x="813.224609"/>
      <use xlink:href="#DejaVuSans-2c" x="876.603516"/>
      <use xlink:href="#DejaVuSans-20" x="908.390625"/>
      <use xlink:href="#DejaVuSans-32" x="940.177734"/>
      <use xlink:href="#DejaVuSans-38" x="1003.800781"/>
      <use xlink:href="#DejaVuSans-2d" x="1067.423828"/>
      <use xlink:href="#DejaVuSans-54" x="1094.382812"/>
      <use xlink:href="#DejaVuSans-61" x="1138.966797"/>
      <use xlink:href="#DejaVuSans-67" x="1200.246094"/>
      <use xlink:href="#DejaVuSans-65" x="1263.722656"/>
      <use xlink:href="#DejaVuSans-2d" x="1325.246094"/>
      <use xlink:href="#DejaVuSans-44" x="1361.330078"/>
      <use xlink:href="#DejaVuSans-75" x="1438.332031"/>
      <use xlink:href="#DejaVuSans-72" x="1501.710938"/>
      <use xlink:href="#DejaVuSans-63" x="1540.574219"/>
      <use xlink:href="#DejaVuSans-68" x="1595.554688"/>
      <use xlink:href="#DejaVuSans-73" x="1658.933594"/>
      <use xlink:href="#DejaVuSans-63" x="1711.033203"/>
      <use xlink:href="#DejaVuSans-68" x="1766.013672"/>
      <use xlink:href="#DejaVuSans-6e" x="1829.392578"/>
      <use xlink:href="#DejaVuSans-69" x="1892.771484"/>
      <use xlink:href="#DejaVuSans-74" x="1920.554688"/>
      <use xlink:href="#DejaVuSans-74" x="1959.763672"/>
     </g>
    </g>
   </g>
   <g id="line2d_31">
    <path d="M 108.129545 159.868751 
L 108.394318 175.974694 
L 109.188636 140.88873 
L 109.453409 132.319286 
L 109.718182 133.177719 
L 109.982955 139.833315 
L 110.247727 152.088631 
L 110.5125 150.1525 
L 111.042045 135.437977 
L 111.306818 141.433769 
L 111.571591 139.372141 
L 111.836364 139.466928 
L 112.365909 149.957786 
L 112.630682 141.829464 
L 112.895455 137.743554 
L 113.160227 138.506727 
L 113.425 138.10026 
L 113.689773 142.473436 
L 114.484091 137.227079 
L 114.748864 133.935112 
L 115.013636 132.424245 
L 115.278409 131.804867 
L 115.543182 137.086142 
L 115.807955 131.360119 
L 116.072727 132.829711 
L 116.3375 132.7593 
L 116.602273 133.205657 
L 117.396591 139.260188 
L 117.661364 126.221235 
L 117.926136 131.241389 
L 118.455682 134.441542 
L 118.720455 127.834444 
L 118.985227 130.358171 
L 119.25 130.191275 
L 119.514773 132.179243 
L 119.779545 130.548728 
L 120.044318 135.134547 
L 120.309091 132.413525 
L 120.573864 132.675106 
L 120.838636 133.216224 
L 121.103409 127.212807 
L 121.368182 128.74879 
L 121.632955 128.84627 
L 121.897727 129.524305 
L 122.1625 129.566728 
L 122.427273 130.918739 
L 122.692045 124.282543 
L 122.956818 127.226476 
L 123.221591 131.514724 
L 123.486364 131.75092 
L 124.015909 141.303291 
L 124.280682 143.983843 
L 124.545455 142.533356 
L 124.810227 143.143354 
L 125.075 152.172831 
L 125.339773 146.131317 
L 125.869318 149.658447 
L 126.134091 153.884363 
L 126.398864 152.846271 
L 126.663636 158.451996 
L 126.928409 156.580919 
L 127.193182 152.753654 
L 127.457955 154.027137 
L 127.722727 159.856729 
L 127.9875 159.263807 
L 128.517045 162.80786 
L 128.781818 157.415397 
L 129.046591 158.201135 
L 129.311364 161.375674 
L 129.576136 166.787204 
L 129.840909 167.460032 
L 130.105682 174.248383 
L 130.370455 171.818691 
L 130.635227 173.925772 
L 131.164773 167.509537 
L 131.429545 160.810013 
L 132.488636 149.263587 
L 132.753409 152.58113 
L 133.018182 152.686382 
L 133.547727 146.303458 
L 133.8125 145.663405 
L 134.077273 144.347805 
L 134.342045 140.410501 
L 134.606818 140.535663 
L 134.871591 139.767078 
L 135.136364 136.654258 
L 135.665909 133.855704 
L 136.195455 144.444558 
L 136.725 141.179315 
L 136.989773 133.95617 
L 137.254545 133.765115 
L 137.519318 125.071841 
L 137.784091 125.559549 
L 138.048864 124.831625 
L 138.313636 131.59463 
L 138.578409 130.170791 
L 138.843182 135.878169 
L 139.107955 135.803125 
L 139.372727 142.197804 
L 139.6375 141.425313 
L 139.902273 147.356559 
L 140.167045 140.086626 
L 140.431818 141.662084 
L 140.696591 140.513341 
L 140.961364 143.498356 
L 141.226136 142.694202 
L 141.490909 140.187131 
L 141.755682 146.355606 
L 142.020455 144.565738 
L 142.285227 145.534835 
L 142.814773 146.378655 
L 143.079545 140.063309 
L 143.344318 141.990247 
L 143.609091 140.884424 
L 144.138636 140.293455 
L 144.403409 142.941808 
L 144.668182 139.854412 
L 144.932955 140.90242 
L 145.197727 140.855556 
L 145.4625 139.239283 
L 145.727273 136.780722 
L 145.992045 139.926239 
L 146.256818 137.766704 
L 146.521591 145.726503 
L 146.786364 134.593505 
L 147.051136 136.447812 
L 147.315909 135.307033 
L 147.580682 136.821843 
L 147.845455 137.675503 
L 148.110227 141.225452 
L 148.375 138.60838 
L 148.639773 139.216579 
L 148.904545 141.530681 
L 149.169318 141.200871 
L 149.434091 141.584934 
L 149.698864 144.61153 
L 149.963636 143.224753 
L 150.228409 147.176186 
L 150.493182 148.913447 
L 150.757955 144.166015 
L 151.022727 145.659691 
L 151.2875 149.011272 
L 151.817045 146.357788 
L 152.081818 146.507838 
L 152.611364 151.290187 
L 152.876136 151.221001 
L 153.140909 150.946173 
L 153.405682 150.15496 
L 153.670455 148.201183 
L 153.935227 142.081601 
L 154.2 150.936142 
L 154.464773 147.385695 
L 154.729545 146.661754 
L 154.994318 149.637618 
L 155.259091 146.408443 
L 155.523864 144.874374 
L 155.788636 146.100228 
L 156.053409 140.732116 
L 156.318182 139.324397 
L 156.582955 136.272187 
L 156.847727 139.023762 
L 157.1125 136.831262 
L 157.377273 138.054397 
L 157.642045 132.589686 
L 157.906818 139.296179 
L 158.171591 142.105416 
L 158.436364 142.923775 
L 158.701136 140.758918 
L 158.965909 140.360765 
L 159.230682 142.944603 
L 159.495455 143.806457 
L 159.760227 142.741258 
L 160.025 139.333739 
L 160.289773 143.338238 
L 160.554545 142.884262 
L 160.819318 143.121798 
L 161.084091 139.808007 
L 161.348864 141.774151 
L 161.613636 134.287434 
L 161.878409 138.201307 
L 162.143182 137.670717 
L 162.407955 135.78134 
L 162.672727 136.866678 
L 162.9375 140.063538 
L 163.202273 140.086664 
L 163.467045 144.044567 
L 163.731818 141.912216 
L 163.996591 146.150117 
L 164.261364 142.940889 
L 164.526136 141.535543 
L 164.790909 137.203915 
L 165.055682 139.687286 
L 165.585227 130.075264 
L 166.114773 127.464548 
L 166.379545 129.265902 
L 166.644318 125.758108 
L 166.909091 130.589006 
L 167.173864 130.381717 
L 167.968182 125.573256 
L 168.232955 125.32542 
L 168.497727 129.962392 
L 168.7625 127.901562 
L 169.027273 133.328024 
L 169.292045 130.498112 
L 169.821591 135.159396 
L 170.086364 136.362775 
L 170.351136 129.461016 
L 170.615909 130.722018 
L 170.880682 131.413721 
L 171.939773 136.549312 
L 172.469318 144.500266 
L 172.734091 144.772759 
L 172.998864 141.35092 
L 173.528409 148.334692 
L 173.793182 149.294983 
L 174.057955 152.813765 
L 174.322727 148.807964 
L 174.5875 148.379488 
L 175.117045 151.62574 
L 175.381818 149.770438 
L 175.911364 144.573625 
L 176.176136 143.411597 
L 176.705682 139.23488 
L 176.970455 139.080505 
L 177.235227 136.092618 
L 177.5 134.563526 
L 177.764773 138.847793 
L 178.029545 136.333255 
L 178.294318 137.14388 
L 179.088636 130.678906 
L 179.353409 132.422944 
L 179.618182 128.464352 
L 179.882955 120.602684 
L 180.147727 121.345349 
L 180.4125 127.301825 
L 180.942045 124.402077 
L 181.206818 123.7621 
L 181.471591 124.303639 
L 181.736364 121.77528 
L 182.001136 117.570843 
L 182.530682 118.090789 
L 183.060227 123.154093 
L 183.325 122.456722 
L 183.589773 119.517384 
L 183.854545 122.291856 
L 184.119318 122.576716 
L 184.384091 118.123678 
L 184.648864 123.080198 
L 184.913636 122.906563 
L 185.178409 123.929416 
L 185.443182 123.861418 
L 185.707955 124.448558 
L 185.972727 125.818985 
L 186.2375 122.725769 
L 186.502273 128.594338 
L 187.031818 124.370489 
L 187.296591 127.759247 
L 187.561364 132.826916 
L 187.826136 129.325631 
L 188.090909 128.613061 
L 188.355682 131.864749 
L 188.620455 129.806446 
L 188.885227 124.853717 
L 189.15 132.362717 
L 189.414773 136.122176 
L 189.679545 137.398263 
L 189.944318 134.96769 
L 190.209091 136.354926 
L 190.473864 139.79989 
L 190.738636 137.117768 
L 191.003409 143.076733 
L 191.268182 142.29536 
L 191.532955 144.311547 
L 191.797727 148.55339 
L 192.0625 146.100075 
L 192.327273 144.77475 
L 192.592045 146.173357 
L 193.121591 144.538247 
L 193.386364 145.42472 
L 193.651136 148.032449 
L 194.180682 140.449822 
L 194.445455 140.990443 
L 194.975 135.956237 
L 195.239773 140.3345 
L 195.504545 140.348934 
L 195.769318 135.776669 
L 196.298864 138.415258 
L 196.563636 129.701538 
L 196.828409 130.005925 
L 197.093182 130.056158 
L 197.357955 132.094551 
L 197.622727 129.8826 
L 198.152273 133.122343 
L 198.417045 132.925736 
L 198.681818 132.202943 
L 198.946591 133.005566 
L 199.211364 132.357855 
L 199.740909 135.706947 
L 200.270455 129.921079 
L 200.8 132.950279 
L 201.064773 132.850654 
L 201.329545 133.581718 
L 201.859091 143.722607 
L 202.123864 144.612908 
L 202.388636 143.372237 
L 202.653409 141.011195 
L 202.918182 139.824318 
L 203.447727 147.134414 
L 203.7125 141.457092 
L 203.977273 147.040762 
L 204.242045 150.07402 
L 204.506818 149.616675 
L 204.771591 147.073537 
L 205.036364 146.730824 
L 205.301136 138.308589 
L 205.565909 142.784523 
L 205.830682 142.477724 
L 206.095455 138.169873 
L 206.360227 137.193539 
L 206.625 133.529264 
L 206.889773 131.851846 
L 207.154545 128.109847 
L 207.419318 129.53269 
L 207.684091 136.749633 
L 207.948864 133.854096 
L 208.213636 133.336562 
L 208.478409 130.541989 
L 208.743182 130.167269 
L 209.007955 126.176055 
L 209.272727 127.008121 
L 209.802273 132.627361 
L 210.067045 126.269439 
L 210.331818 130.382024 
L 210.596591 123.079279 
L 210.861364 119.062719 
L 211.126136 126.722151 
L 211.390909 125.799267 
L 211.655682 126.184517 
L 211.920455 122.947761 
L 212.185227 121.910473 
L 212.45 121.488544 
L 212.714773 127.536605 
L 213.244318 131.159147 
L 213.509091 132.618057 
L 213.773864 133.10408 
L 214.038636 132.495537 
L 214.303409 133.204661 
L 214.568182 141.07234 
L 214.832955 139.04214 
L 215.097727 137.897342 
L 215.3625 142.54691 
L 215.892045 135.845663 
L 216.156818 133.757266 
L 216.421591 136.264146 
L 216.686364 134.865271 
L 216.951136 135.398502 
L 217.215909 130.755481 
L 217.480682 134.150059 
L 217.745455 127.086381 
L 218.010227 133.112733 
L 218.275 134.879054 
L 218.539773 137.581392 
L 218.804545 142.215148 
L 219.069318 137.483185 
L 219.334091 136.896083 
L 219.598864 138.273977 
L 219.863636 141.974013 
L 220.393182 144.995861 
L 220.657955 145.158736 
L 220.922727 148.529537 
L 221.1875 144.320582 
L 221.452273 147.617488 
L 221.717045 154.063855 
L 221.981818 151.902176 
L 222.246591 153.259586 
L 222.511364 150.780273 
L 222.776136 151.292829 
L 223.040909 153.68699 
L 223.305682 161.248827 
L 223.570455 165.534396 
L 223.835227 165.003653 
L 224.1 168.986328 
L 224.364773 166.669201 
L 225.423864 178.766319 
L 225.688636 181.666489 
L 226.218182 173.620696 
L 226.482955 174.507437 
L 226.747727 174.812895 
L 227.0125 174.669087 
L 227.277273 175.322771 
L 227.542045 172.191421 
L 227.806818 165.402533 
L 228.071591 163.829564 
L 228.336364 164.45526 
L 228.601136 166.360297 
L 228.865909 164.034364 
L 229.130682 160.35531 
L 229.660227 164.339976 
L 229.925 163.172549 
L 230.189773 154.679979 
L 230.454545 156.810377 
L 230.719318 153.34983 
L 230.984091 145.922803 
L 231.248864 151.70913 
L 231.513636 148.660864 
L 231.778409 151.214837 
L 232.043182 152.650124 
L 232.307955 146.915983 
L 232.572727 146.071168 
L 232.8375 143.867985 
L 233.102273 143.152773 
L 233.631818 140.11381 
L 233.896591 142.106143 
L 234.426136 137.847568 
L 234.690909 133.98278 
L 234.955682 135.972088 
L 235.220455 139.21007 
L 235.485227 139.066453 
L 235.75 138.152567 
L 236.014773 135.379779 
L 236.279545 136.929814 
L 236.544318 135.491847 
L 236.809091 132.837828 
L 237.073864 127.157137 
L 237.338636 127.025274 
L 237.603409 131.411807 
L 237.868182 129.986743 
L 238.132955 132.190921 
L 238.397727 140.875465 
L 238.6625 132.832276 
L 238.927273 131.79564 
L 239.192045 133.680155 
L 239.456818 134.105875 
L 239.986364 137.240135 
L 240.251136 135.018651 
L 240.515909 129.17317 
L 240.780682 133.867879 
L 241.045455 133.356204 
L 241.310227 133.092172 
L 241.575 136.045677 
L 242.104545 143.265568 
L 242.369318 140.058599 
L 242.634091 140.547226 
L 242.898864 138.758927 
L 243.163636 139.486851 
L 243.428409 142.434497 
L 243.693182 143.439585 
L 243.957955 139.940099 
L 244.222727 140.666951 
L 244.4875 148.547762 
L 244.752273 149.249229 
L 245.017045 152.144498 
L 245.811364 140.816311 
L 246.340909 151.269052 
L 246.605682 145.898835 
L 246.870455 144.580019 
L 247.135227 147.304105 
L 247.664773 143.75025 
L 247.929545 150.703813 
L 248.194318 148.375506 
L 248.459091 149.782077 
L 248.723864 152.619762 
L 249.518182 141.951729 
L 249.782955 143.960794 
L 250.047727 144.939884 
L 250.3125 149.093054 
L 250.577273 149.064108 
L 250.842045 151.74424 
L 251.106818 148.740387 
L 251.371591 151.355238 
L 252.165909 144.902554 
L 252.430682 137.681553 
L 252.695455 136.728957 
L 252.960227 140.138429 
L 253.225 135.840609 
L 253.489773 135.916571 
L 253.754545 133.851722 
L 254.019318 137.667157 
L 254.548864 128.714944 
L 255.078409 132.040336 
L 255.343182 126.436373 
L 255.607955 125.646423 
L 255.872727 122.541683 
L 256.1375 121.986934 
L 256.402273 127.58837 
L 256.667045 127.425494 
L 256.931818 125.875498 
L 257.196591 126.719127 
L 257.726136 124.110402 
L 257.990909 124.119323 
L 258.255682 117.125252 
L 258.520455 115.794146 
L 258.785227 115.372906 
L 259.05 112.739179 
L 259.314773 112.215788 
L 259.579545 109.606335 
L 260.109091 120.005704 
L 260.373864 119.882571 
L 260.638636 119.317446 
L 260.903409 119.621412 
L 261.432955 108.140686 
L 261.697727 109.144166 
L 261.9625 112.6229 
L 262.227273 110.223072 
L 262.492045 114.32149 
L 262.756818 109.456286 
L 263.021591 112.077991 
L 263.286364 121.132967 
L 263.551136 121.834932 
L 264.080682 112.570714 
L 264.345455 112.582391 
L 264.610227 112.288994 
L 265.404545 99.02667 
L 265.669318 99.461081 
L 265.934091 103.693353 
L 266.198864 101.532823 
L 266.463636 103.99146 
L 266.993182 110.963822 
L 267.257955 111.163262 
L 267.7875 101.210939 
L 268.052273 102.543615 
L 268.317045 100.943156 
L 268.581818 110.046758 
L 268.846591 112.105788 
L 269.111364 115.30284 
L 269.376136 113.627834 
L 269.905682 105.469247 
L 270.170455 110.0239 
L 270.435227 107.165004 
L 270.7 95.489357 
L 270.964773 91.284078 
L 271.229545 92.022875 
L 271.494318 96.976676 
L 271.759091 99.808886 
L 272.023864 98.430648 
L 272.818182 112.23788 
L 273.082955 115.437803 
L 273.6125 107.760223 
L 274.142045 103.726893 
L 274.406818 109.316996 
L 274.671591 103.66437 
L 274.936364 111.60445 
L 275.201136 107.636171 
L 275.465909 105.698436 
L 275.995455 95.862507 
L 276.260227 95.724213 
L 276.525 96.696794 
L 276.789773 92.910917 
L 277.054545 93.022602 
L 277.319318 90.568636 
L 277.584091 95.212767 
L 277.848864 96.338614 
L 278.113636 101.553843 
L 278.643182 106.456722 
L 278.907955 103.057014 
L 279.4375 100.177749 
L 279.702273 94.527113 
L 279.967045 96.119762 
L 280.231818 93.617936 
L 280.496591 92.406938 
L 280.761364 93.785099 
L 281.026136 101.91991 
L 281.290909 104.032122 
L 281.555682 102.275717 
L 281.820455 101.277062 
L 282.085227 105.193461 
L 282.35 93.539178 
L 282.614773 103.676392 
L 282.879545 103.781874 
L 283.144318 109.315005 
L 283.938636 94.246618 
L 284.203409 99.828757 
L 284.468182 100.669208 
L 284.732955 106.987617 
L 285.792045 92.505222 
L 286.056818 94.072563 
L 286.321591 99.563386 
L 286.851136 96.403473 
L 287.115909 101.880819 
L 287.380682 102.614562 
L 287.645455 100.7624 
L 287.910227 97.023349 
L 288.175 97.140241 
L 288.439773 93.169818 
L 288.704545 92.92987 
L 289.234091 79.805305 
L 289.498864 78.283603 
L 289.763636 85.457357 
L 290.028409 80.323298 
L 290.293182 79.463014 
L 290.557955 76.660592 
L 291.0875 96.75882 
L 291.352273 96.703762 
L 292.146591 88.925983 
L 292.411364 90.18932 
L 292.676136 90.768114 
L 292.940909 93.955939 
L 293.205682 89.973225 
L 293.735227 77.332693 
L 294 78.071145 
L 294.264773 82.473069 
L 294.794318 74.861765 
L 295.059091 73.736569 
L 295.323864 80.396772 
L 295.588636 80.111146 
L 295.853409 81.075764 
L 296.118182 81.3218 
L 296.382955 86.190526 
L 296.647727 76.234298 
L 296.9125 83.046732 
L 297.177273 81.731745 
L 297.442045 87.01459 
L 297.706818 87.986023 
L 297.971591 91.733804 
L 298.236364 89.069676 
L 298.501136 82.080737 
L 298.765909 79.282105 
L 299.030682 75.25337 
L 299.295455 75.406865 
L 299.560227 78.657711 
L 299.825 84.678932 
L 300.089773 93.803631 
L 300.354545 99.059942 
L 300.619318 101.898316 
L 300.884091 102.133555 
L 301.148864 104.466073 
L 301.413636 99.208039 
L 301.678409 96.196682 
L 302.207955 103.70618 
L 302.472727 105.01887 
L 302.7375 105.512167 
L 303.002273 101.077966 
L 303.267045 104.432572 
L 303.531818 100.375083 
L 303.796591 104.533728 
L 304.061364 117.312517 
L 304.326136 113.808743 
L 304.590909 114.465337 
L 304.855682 107.138853 
L 305.120455 107.668562 
L 305.385227 101.134402 
L 305.65 100.168942 
L 305.914773 101.616328 
L 306.444318 115.410925 
L 306.709091 113.696522 
L 307.768182 90.822789 
L 308.297727 104.352857 
L 308.5625 101.064259 
L 308.827273 110.267754 
L 309.092045 109.799726 
L 309.356818 105.509257 
L 309.621591 107.768455 
L 309.886364 108.755164 
L 310.151136 105.17022 
L 310.415909 106.937576 
L 310.680682 104.329157 
L 310.945455 104.791939 
L 311.210227 111.382497 
L 311.475 115.052247 
L 311.739773 114.32306 
L 312.004545 114.400784 
L 312.269318 108.102016 
L 312.534091 110.409915 
L 312.798864 113.806101 
L 313.063636 113.959596 
L 313.328409 113.603407 
L 313.857955 105.933369 
L 314.122727 113.785388 
L 314.3875 107.29813 
L 314.652273 109.206804 
L 314.917045 109.420219 
L 315.181818 112.098245 
L 315.711364 100.801377 
L 315.976136 102.874382 
L 316.240909 102.483351 
L 316.505682 106.112172 
L 316.770455 113.212452 
L 317.035227 107.59953 
L 317.564773 102.731875 
L 317.829545 105.404272 
L 318.094318 103.3614 
L 318.359091 106.139241 
L 318.623864 96.304729 
L 319.153409 88.611336 
L 319.418182 88.018912 
L 319.682955 92.124299 
L 319.947727 89.928927 
L 320.2125 91.743069 
L 320.477273 96.130942 
L 320.742045 98.226307 
L 321.006818 97.508606 
L 321.271591 95.068691 
L 321.536364 95.789876 
L 321.801136 101.443498 
L 322.065909 99.402731 
L 322.330682 102.9093 
L 322.595455 99.582108 
L 322.860227 99.079469 
L 323.125 101.597988 
L 323.389773 95.532698 
L 323.654545 98.042947 
L 323.919318 88.97369 
L 324.184091 92.005837 
L 324.448864 89.059186 
L 324.713636 83.493434 
L 324.978409 81.015155 
L 325.243182 81.369583 
L 325.507955 89.48146 
L 325.772727 89.298407 
L 326.0375 90.590919 
L 326.302273 91.250231 
L 326.567045 93.276066 
L 326.831818 93.824306 
L 327.361364 104.60387 
L 327.626136 99.997491 
L 327.890909 93.216299 
L 328.155682 92.663886 
L 328.420455 96.441033 
L 328.685227 96.419286 
L 328.95 90.683958 
L 329.214773 90.582304 
L 329.479545 95.01505 
L 329.744318 93.322547 
L 330.009091 90.911003 
L 330.273864 90.535823 
L 330.538636 88.008613 
L 330.803409 95.595069 
L 331.068182 98.547004 
L 331.332955 107.295411 
L 331.597727 97.864566 
L 331.8625 104.387775 
L 332.127273 107.372637 
L 332.656818 102.640942 
L 332.921591 95.26369 
L 333.186364 97.065236 
L 333.451136 99.957978 
L 333.715909 100.68862 
L 333.980682 98.39795 
L 334.245455 91.785454 
L 334.510227 92.23093 
L 334.775 92.301838 
L 335.039773 99.945458 
L 335.304545 97.801889 
L 335.569318 96.963046 
L 335.834091 97.502173 
L 336.098864 100.37872 
L 336.363636 99.040837 
L 336.628409 104.245116 
L 336.893182 100.567708 
L 337.157955 99.074415 
L 337.422727 99.850926 
L 338.217045 88.790445 
L 338.481818 83.341777 
L 338.746591 81.975292 
L 339.011364 83.554732 
L 339.276136 82.062856 
L 339.805682 90.991101 
L 340.070455 88.785123 
L 340.335227 87.65384 
L 340.6 76.058137 
L 340.864773 77.420524 
L 341.659091 92.061469 
L 341.923864 85.715875 
L 342.188636 82.09429 
L 342.453409 75.978039 
L 342.718182 84.615834 
L 342.982955 87.505743 
L 343.5125 77.261707 
L 343.777273 80.630288 
L 344.042045 74.93788 
L 344.571591 79.592464 
L 344.836364 79.610651 
L 345.101136 83.412532 
L 345.365909 94.068925 
L 345.630682 93.827024 
L 345.895455 92.420568 
L 346.160227 87.097444 
L 346.425 91.729936 
L 347.219318 95.92729 
L 347.484091 94.831116 
L 347.748864 97.13982 
L 348.013636 108.005263 
L 348.278409 103.822 
L 348.543182 97.428738 
L 349.072727 102.55625 
L 349.3375 109.977648 
L 349.602273 112.259742 
L 349.867045 113.32563 
L 350.396591 100.502504 
L 350.661364 103.176433 
L 350.926136 104.339571 
L 351.190909 100.989828 
L 351.455682 112.561754 
L 351.985227 107.086744 
L 352.25 111.152733 
L 352.514773 111.881614 
L 353.044318 100.222468 
L 353.309091 98.598883 
L 353.573864 104.656439 
L 353.838636 107.030461 
L 354.103409 105.938729 
L 354.368182 103.043039 
L 354.632955 102.426915 
L 354.897727 101.025742 
L 355.1625 100.371675 
L 355.427273 95.144692 
L 355.692045 95.011221 
L 355.956818 97.288912 
L 356.221591 97.358863 
L 356.486364 91.464527 
L 357.015909 74.99535 
L 357.280682 75.167912 
L 357.545455 79.700359 
L 357.810227 78.236777 
L 358.604545 86.873079 
L 358.869318 82.675955 
L 359.134091 82.658496 
L 359.398864 78.688265 
L 359.663636 82.773091 
L 360.193182 80.291902 
L 360.722727 90.429652 
L 361.252273 75.617217 
L 361.517045 77.605224 
L 361.781818 80.974302 
L 362.046591 82.076984 
L 362.311364 87.778696 
L 362.576136 90.384664 
L 363.105682 99.851921 
L 363.370455 93.261823 
L 363.635227 91.767994 
L 363.9 93.012341 
L 364.164773 96.692621 
L 364.429545 107.118982 
L 364.694318 109.60534 
L 364.959091 106.614658 
L 365.223864 111.749215 
L 365.753409 103.407881 
L 366.018182 95.183286 
L 366.282955 93.050284 
L 366.547727 86.458118 
L 366.8125 95.967071 
L 367.077273 92.868303 
L 367.342045 98.972723 
L 367.871591 104.045025 
L 368.136364 101.867839 
L 368.401136 106.556959 
L 368.665909 107.130736 
L 369.195455 95.141437 
L 369.460227 98.938954 
L 369.725 97.985784 
L 370.254545 93.894679 
L 370.519318 96.025766 
L 370.784091 99.314402 
L 371.313636 85.094927 
L 371.578409 87.513937 
L 371.843182 84.534665 
L 372.107955 74.270872 
L 372.372727 77.851834 
L 372.6375 83.95277 
L 372.902273 79.96416 
L 373.167045 81.489002 
L 373.431818 87.270926 
L 373.696591 85.417538 
L 373.961364 93.783606 
L 374.226136 89.448992 
L 374.490909 90.200424 
L 375.020455 85.948855 
L 375.285227 85.233719 
L 375.55 85.937331 
L 375.814773 88.565008 
L 376.079545 89.149391 
L 376.344318 88.227043 
L 376.609091 86.143509 
L 376.873864 79.972162 
L 377.138636 81.52974 
L 377.403409 79.239032 
L 377.668182 78.305236 
L 377.932955 75.583792 
L 378.197727 79.995977 
L 378.727273 91.526247 
L 378.992045 85.426421 
L 379.256818 85.086274 
L 379.521591 96.735311 
L 380.051136 81.678142 
L 380.580682 87.876865 
L 380.845455 94.027804 
L 381.375 97.340447 
L 381.904545 84.955598 
L 382.169318 81.79982 
L 382.434091 76.683833 
L 382.698864 81.452667 
L 382.963636 75.089729 
L 383.228409 77.074443 
L 384.022727 98.126874 
L 384.552273 91.496727 
L 384.817045 92.545156 
L 385.081818 96.086834 
L 385.346591 89.681512 
L 385.611364 89.490534 
L 385.876136 92.794599 
L 386.140909 86.646761 
L 386.405682 89.616959 
L 386.670455 90.49141 
L 386.935227 86.446134 
L 387.464773 91.793877 
L 387.729545 90.348903 
L 387.994318 92.141681 
L 388.259091 90.420386 
L 388.788636 80.531965 
L 389.582955 95.519336 
L 389.847727 99.224924 
L 390.1125 94.898349 
L 390.377273 97.050954 
L 390.642045 93.348276 
L 390.906818 82.897909 
L 391.171591 78.599859 
L 391.436364 77.882732 
L 392.230682 88.96071 
L 392.495455 89.549305 
L 392.760227 92.59359 
L 393.025 91.117105 
L 393.289773 83.93332 
L 393.554545 87.565472 
L 394.084091 74.255596 
L 394.348864 79.121068 
L 394.613636 74.489571 
L 394.878409 77.721426 
L 395.407955 85.602238 
L 395.672727 87.054562 
L 395.9375 89.430614 
L 396.467045 82.138168 
L 396.731818 81.79894 
L 396.996591 74.206128 
L 397.261364 74.15555 
L 397.526136 74.731855 
L 397.790909 76.544964 
L 398.055682 77.556637 
L 398.320455 81.641769 
L 398.585227 83.977695 
L 398.85 78.081406 
L 399.114773 79.317751 
L 399.644318 74.458558 
L 399.909091 73.984519 
L 400.173864 72.728189 
L 400.438636 67.520847 
L 400.703409 75.050254 
L 400.968182 77.309873 
L 401.497727 98.970196 
L 401.7625 92.190268 
L 402.027273 97.3473 
L 402.292045 86.671533 
L 402.556818 90.36709 
L 403.086364 71.731831 
L 403.351136 68.272203 
L 403.615909 74.701876 
L 403.880682 74.802189 
L 404.145455 74.395039 
L 404.675 86.79191 
L 404.939773 83.727945 
L 405.204545 82.716655 
L 405.469318 80.507921 
L 405.734091 72.771798 
L 405.998864 71.639022 
L 406.263636 77.074022 
L 406.528409 79.155029 
L 406.793182 84.056453 
L 407.322727 86.297846 
L 407.852273 90.967324 
L 408.117045 85.740571 
L 408.381818 88.022664 
L 408.646591 85.161088 
L 408.911364 84.003233 
L 409.176136 81.752076 
L 409.440909 82.252878 
L 409.705682 81.206363 
L 409.970455 81.001984 
L 410.235227 83.356632 
L 410.5 87.728271 
L 410.764773 94.112688 
L 411.029545 90.799969 
L 411.559091 98.131698 
L 411.823864 96.918364 
L 412.088636 91.07675 
L 412.618182 96.351861 
L 412.882955 93.699106 
L 413.147727 102.608321 
L 413.4125 102.711966 
L 413.677273 95.577035 
L 413.942045 95.373154 
L 414.206818 92.025172 
L 414.471591 95.088026 
L 414.736364 99.731124 
L 415.001136 96.259052 
L 415.530682 103.156217 
L 415.795455 100.481216 
L 416.325 98.941213 
L 416.589773 103.906577 
L 416.854545 101.837401 
L 417.119318 115.791351 
L 417.384091 111.281379 
L 417.913636 99.24468 
L 418.178409 93.320709 
L 418.443182 98.589196 
L 418.707955 97.096134 
L 418.972727 90.397299 
L 419.2375 88.350482 
L 419.502273 96.171718 
L 419.767045 89.044636 
L 420.031818 88.158279 
L 420.296591 88.802927 
L 420.561364 92.539374 
L 420.826136 92.789928 
L 421.090909 93.451844 
L 421.355682 90.93478 
L 421.620455 91.490562 
L 421.885227 87.787081 
L 422.15 77.467005 
L 422.414773 89.053251 
L 422.679545 86.216294 
L 422.944318 86.290725 
L 423.209091 85.68938 
L 423.473864 91.676946 
L 424.003409 83.155469 
L 424.268182 86.60342 
L 424.532955 80.143002 
L 424.797727 78.892874 
L 425.0625 82.667264 
L 425.592045 96.178725 
L 425.856818 96.524308 
L 426.121591 95.999654 
L 426.386364 92.89744 
L 426.651136 98.37804 
L 426.915909 89.817701 
L 427.180682 94.103882 
L 427.445455 91.855864 
L 427.710227 95.556475 
L 427.975 93.972785 
L 428.239773 87.497933 
L 428.504545 92.958279 
L 428.769318 95.114827 
L 429.034091 99.148808 
L 429.298864 100.176753 
L 429.563636 98.378423 
L 429.828409 85.364165 
L 430.093182 83.488724 
L 430.357955 78.376221 
L 430.622727 75.742303 
L 430.8875 66.882631 
L 431.152273 66.981222 
L 431.417045 70.992076 
L 431.681818 66.960891 
L 431.946591 68.56269 
L 432.211364 67.633144 
L 432.476136 73.444741 
L 432.740909 71.203807 
L 433.005682 67.290202 
L 433.270455 55.991114 
L 433.8 66.006228 
L 434.064773 63.031895 
L 434.329545 63.024391 
L 434.859091 71.253351 
L 435.123864 71.082818 
L 435.388636 66.788252 
L 435.653409 71.471782 
L 435.918182 71.80653 
L 436.182955 75.035016 
L 436.447727 66.116879 
L 436.7125 63.17666 
L 437.242045 73.354497 
L 437.771591 82.699541 
L 438.036364 85.140604 
L 438.565909 97.600534 
L 438.830682 91.687858 
L 439.095455 92.882929 
L 439.360227 93.188043 
L 439.625 92.828216 
L 439.889773 95.466652 
L 440.154545 96.158241 
L 440.419318 98.232203 
L 440.684091 104.157858 
L 440.948864 105.98969 
L 441.213636 96.049887 
L 441.478409 92.172809 
L 441.743182 90.441444 
L 442.007955 87.734856 
L 442.5375 90.179366 
L 442.802273 93.082331 
L 443.067045 90.810345 
L 443.331818 81.452897 
L 443.596591 81.88279 
L 443.861364 87.461751 
L 444.126136 90.068179 
L 444.390909 87.217591 
L 444.655682 89.847604 
L 444.920455 87.306265 
L 445.185227 86.816758 
L 445.45 85.450083 
L 445.714773 78.040285 
L 445.979545 76.983357 
L 446.244318 83.735794 
L 446.773864 88.8156 
L 447.038636 93.986684 
L 447.303409 93.62992 
L 447.568182 88.51979 
L 447.832955 87.432116 
L 448.097727 89.708237 
L 448.3625 82.233159 
L 448.627273 84.091716 
L 449.156818 97.049078 
L 449.686364 95.418103 
L 449.951136 93.893377 
L 450.215909 93.048216 
L 450.480682 87.675817 
L 450.745455 100.007407 
L 451.010227 97.312688 
L 451.275 89.676573 
L 451.539773 87.806109 
L 451.804545 90.219376 
L 452.069318 90.759384 
L 452.334091 91.868155 
L 452.598864 94.842794 
L 452.863636 94.631064 
L 453.128409 100.97279 
L 453.393182 92.666374 
L 453.922727 97.76318 
L 454.1875 92.529841 
L 454.717045 76.356129 
L 454.981818 78.351066 
L 455.246591 81.338723 
L 455.511364 79.209091 
L 455.776136 79.854122 
L 456.040909 84.63203 
L 456.305682 74.940599 
L 456.570455 72.960633 
L 456.835227 77.747998 
L 457.1 79.810282 
L 457.364773 72.508035 
L 457.629545 75.445612 
L 457.894318 86.211546 
L 458.159091 78.978944 
L 458.423864 82.156891 
L 458.688636 88.44176 
L 458.953409 83.032107 
L 459.218182 72.443635 
L 459.482955 72.107049 
L 459.747727 69.716755 
L 460.0125 63.011105 
L 460.277273 70.120612 
L 460.542045 70.563447 
L 460.806818 71.941072 
L 461.071591 64.5495 
L 461.336364 66.05202 
L 461.601136 61.983236 
L 462.130682 74.283737 
L 462.395455 80.110495 
L 462.925 69.400078 
L 463.454545 75.592368 
L 463.719318 79.555402 
L 463.984091 80.445512 
L 464.248864 71.463014 
L 464.513636 69.609052 
L 464.778409 77.098526 
L 465.043182 71.785548 
L 465.572727 79.035533 
L 465.8375 73.553631 
L 466.102273 71.542652 
L 466.367045 76.252791 
L 466.631818 89.170947 
L 466.896591 92.076707 
L 467.161364 93.552311 
L 467.426136 100.437224 
L 467.690909 100.20478 
L 467.955682 93.014638 
L 468.220455 97.464843 
L 468.485227 105.204794 
L 468.75 101.639569 
L 469.279545 99.446379 
L 469.544318 103.211619 
L 469.809091 103.0296 
L 470.073864 103.266676 
L 470.603409 118.753202 
L 470.868182 119.393945 
L 471.132955 128.347804 
L 471.397727 131.064079 
L 471.927273 139.748929 
L 472.192045 135.758827 
L 472.456818 135.454938 
L 472.986364 125.082447 
L 473.251136 127.808332 
L 473.515909 127.148216 
L 473.780682 127.68742 
L 474.045455 127.379626 
L 474.310227 125.841384 
L 474.575 125.666869 
L 474.839773 116.718255 
L 475.104545 114.246523 
L 475.369318 120.61486 
L 475.634091 119.060422 
L 475.898864 115.955069 
L 476.163636 115.891358 
L 476.428409 122.470927 
L 476.693182 126.145311 
L 476.957955 125.995032 
L 477.222727 129.158735 
L 477.4875 129.4578 
L 477.752273 127.560382 
L 478.017045 114.626566 
L 478.811364 101.455635 
L 479.340909 104.812614 
L 479.605682 106.998376 
L 479.870455 114.032993 
L 480.4 120.649089 
L 480.664773 114.20858 
L 480.929545 120.279728 
L 481.194318 121.978778 
L 481.459091 117.475813 
L 481.723864 117.943841 
L 481.988636 117.385761 
L 482.253409 125.574251 
L 482.782955 118.258948 
L 483.047727 126.052999 
L 483.3125 122.887458 
L 483.577273 121.253382 
L 483.842045 122.254641 
L 484.106818 124.675871 
L 484.371591 122.986584 
L 484.901136 114.780635 
L 485.165909 111.693698 
L 485.430682 114.497269 
L 485.695455 118.965239 
L 485.960227 118.179731 
L 486.225 125.941238 
L 486.489773 127.665787 
L 486.754545 118.525621 
L 487.019318 119.195462 
L 487.284091 113.924869 
L 487.813636 109.717599 
L 488.078409 119.843633 
L 488.343182 119.135734 
L 488.607955 114.739131 
L 488.872727 117.079499 
L 489.1375 112.642809 
L 489.402273 114.462772 
L 489.667045 114.221215 
L 489.931818 118.48764 
L 490.196591 124.854062 
L 490.461364 119.453865 
L 490.726136 119.618081 
L 490.990909 119.458689 
L 491.520455 114.869041 
L 491.785227 118.142094 
L 492.05 118.892378 
L 492.844318 137.693307 
L 493.109091 131.527244 
L 493.373864 133.949853 
L 493.638636 129.657584 
L 493.903409 130.524568 
L 494.168182 137.347647 
L 494.432955 134.366154 
L 494.697727 139.308852 
L 494.9625 138.96836 
L 495.227273 133.455101 
L 495.492045 119.798339 
L 495.756818 118.726209 
L 496.551136 135.710431 
L 496.815909 130.39217 
L 497.080682 127.851903 
L 497.345455 130.693761 
L 497.610227 128.917447 
L 497.875 124.490291 
L 498.404545 130.014348 
L 498.669318 132.165077 
L 498.934091 136.233325 
L 499.198864 129.353811 
L 499.728409 132.465175 
L 499.993182 130.624422 
L 500.257955 136.061643 
L 500.522727 139.182158 
L 500.7875 135.598861 
L 501.052273 126.144813 
L 501.581818 118.529947 
L 501.846591 128.597822 
L 502.111364 127.945248 
L 502.376136 124.772126 
L 502.640909 131.832434 
L 502.905682 144.881649 
L 503.170455 141.653699 
L 503.435227 140.334155 
L 503.7 138.212027 
L 503.964773 133.399124 
L 504.229545 134.971213 
L 504.494318 138.823557 
L 505.023864 132.637929 
L 505.288636 141.107105 
L 505.553409 137.682433 
L 505.818182 141.363211 
L 506.6125 127.694197 
L 506.877273 129.180406 
L 507.142045 128.281222 
L 507.406818 132.842614 
L 507.936364 124.034324 
L 508.995455 144.954663 
L 509.260227 145.187107 
L 509.525 146.567183 
L 509.789773 150.125479 
L 510.054545 145.703339 
L 510.319318 146.001408 
L 510.584091 142.19945 
L 510.848864 141.157415 
L 511.113636 141.071957 
L 511.378409 139.753486 
L 511.643182 143.205341 
L 511.907955 142.432507 
L 512.172727 138.507033 
L 512.4375 138.202302 
L 512.967045 134.423241 
L 513.231818 129.16712 
L 513.496591 135.704343 
L 513.761364 135.025734 
L 514.026136 140.971529 
L 514.820455 128.731446 
L 515.085227 120.666548 
L 515.35 129.732628 
L 515.614773 130.387997 
L 516.144318 119.166057 
L 516.409091 117.856737 
L 516.673864 113.385167 
L 517.203409 101.736972 
L 517.468182 105.96553 
L 517.732955 95.390996 
L 517.997727 103.334637 
L 518.2625 104.580132 
L 518.527273 104.067193 
L 518.792045 110.018999 
L 519.321591 102.505711 
L 519.586364 109.191528 
L 519.851136 106.444853 
L 520.115909 105.925596 
L 520.380682 108.6931 
L 520.645455 109.461838 
L 520.910227 109.076895 
L 521.439773 96.343897 
L 521.704545 94.399309 
L 521.969318 97.325897 
L 522.234091 95.801822 
L 522.498864 98.85407 
L 522.763636 95.461292 
L 523.028409 84.355977 
L 523.293182 87.246575 
L 523.557955 94.297081 
L 523.822727 93.785214 
L 524.0875 92.848815 
L 524.352273 93.666446 
L 524.617045 95.028144 
L 524.881818 95.613332 
L 525.146591 102.514478 
L 525.676136 96.615471 
L 525.940909 95.569378 
L 526.205682 92.524557 
L 526.470455 90.882556 
L 526.735227 85.689954 
L 527 86.593924 
L 527.264773 88.664785 
L 527.529545 86.212503 
L 527.794318 85.746275 
L 528.059091 85.521068 
L 528.323864 84.277525 
L 528.853409 98.869844 
L 529.118182 98.773628 
L 529.382955 98.42969 
L 529.9125 105.234812 
L 530.177273 105.384478 
L 530.442045 106.411274 
L 530.706818 109.269596 
L 531.236364 99.557681 
L 531.501136 100.390321 
L 532.030682 107.248815 
L 532.295455 106.890405 
L 532.560227 107.396529 
L 532.825 107.158533 
L 533.089773 114.026446 
L 533.354545 117.197233 
L 533.619318 116.866122 
L 533.884091 118.446519 
L 534.148864 128.132398 
L 534.413636 126.967958 
L 534.678409 131.84951 
L 534.943182 134.147072 
L 535.472727 129.282902 
L 535.7375 127.928632 
L 536.002273 128.53124 
L 536.267045 125.95192 
L 536.531818 126.083093 
L 536.796591 122.299169 
L 537.326136 119.751666 
L 537.590909 115.560324 
L 537.855682 122.275239 
L 538.120455 122.218803 
L 538.385227 121.523386 
L 538.65 120.309976 
L 538.914773 123.516753 
L 539.179545 122.033568 
L 539.444318 125.544999 
L 539.973864 121.801162 
L 540.238636 117.966316 
L 540.503409 112.027872 
L 540.768182 101.983621 
L 541.032955 100.745898 
L 541.297727 101.683025 
L 541.827273 90.573958 
L 542.092045 93.113267 
L 542.356818 86.654955 
L 542.621591 90.288409 
L 542.886364 96.898761 
L 543.151136 91.662512 
L 543.415909 92.575748 
L 543.680682 86.469758 
L 543.945455 88.460061 
L 544.210227 89.418783 
L 544.475 84.248159 
L 545.004545 86.517502 
L 545.269318 87.412054 
L 545.534091 87.744122 
L 545.798864 86.91018 
L 546.063636 92.736594 
L 546.328409 85.121192 
L 546.593182 89.465647 
L 546.857955 86.443148 
L 547.122727 89.26188 
L 547.3875 89.255486 
L 547.652273 91.345912 
L 547.917045 86.709055 
L 548.181818 94.287126 
L 548.446591 89.119335 
L 548.711364 89.316555 
L 549.240909 99.808465 
L 549.505682 93.809259 
L 549.770455 98.33355 
L 550.035227 98.405033 
L 550.3 98.136752 
L 550.564773 106.359931 
L 550.829545 102.334182 
L 551.094318 106.813754 
L 551.359091 104.599659 
L 551.623864 105.978586 
L 551.888636 112.836047 
L 552.153409 111.70461 
L 552.418182 111.692243 
L 552.682955 112.784435 
L 552.947727 109.549976 
L 553.2125 111.349033 
L 553.477273 109.896977 
L 553.742045 112.367598 
L 554.006818 108.945109 
L 554.271591 111.200248 
L 554.536364 106.644139 
L 555.330682 121.260886 
L 555.595455 122.565574 
L 555.860227 131.187863 
L 556.125 130.244839 
L 556.389773 123.831477 
L 556.654545 123.926392 
L 556.919318 125.442274 
L 557.448864 130.663552 
L 557.713636 125.153164 
L 557.978409 122.24124 
L 558.243182 127.180301 
L 558.507955 129.344928 
L 558.772727 128.435368 
L 559.0375 126.470066 
L 559.567045 124.813094 
L 559.831818 124.245136 
L 560.096591 114.56768 
L 560.361364 114.98264 
L 560.626136 111.815529 
L 560.890909 113.442599 
L 561.155682 118.148143 
L 561.420455 115.279599 
L 561.685227 109.122151 
L 561.95 113.634879 
L 562.214773 110.332728 
L 562.479545 109.417156 
L 562.744318 111.212959 
L 563.009091 111.75515 
L 563.273864 105.718231 
L 563.803409 113.871458 
L 564.068182 105.938116 
L 564.332955 103.694961 
L 564.597727 96.781295 
L 564.8625 97.595021 
L 565.127273 99.224388 
L 565.392045 99.910922 
L 565.656818 92.949128 
L 565.921591 93.802252 
L 566.186364 96.069414 
L 566.451136 100.993963 
L 566.980682 92.102628 
L 567.245455 92.076592 
L 567.510227 100.712167 
L 567.775 99.126256 
L 568.039773 104.512976 
L 568.569318 103.579563 
L 568.834091 101.91566 
L 569.098864 103.724979 
L 569.363636 100.883925 
L 569.628409 99.526477 
L 569.893182 93.322279 
L 570.157955 93.423894 
L 570.422727 91.342849 
L 570.6875 93.615256 
L 571.217045 84.819754 
L 571.481818 84.662086 
L 571.746591 85.294673 
L 572.011364 90.124078 
L 572.276136 88.073931 
L 572.540909 88.260583 
L 572.805682 84.129046 
L 573.070455 84.397404 
L 573.335227 88.686494 
L 573.6 88.062177 
L 573.864773 88.835012 
L 574.129545 90.70291 
L 574.394318 100.049294 
L 574.659091 102.437941 
L 574.923864 99.211408 
L 575.188636 100.518776 
L 575.453409 100.516402 
L 575.718182 100.938791 
L 575.982955 99.674803 
L 576.5125 112.546899 
L 577.042045 118.761779 
L 577.306818 126.058666 
L 577.571591 126.220507 
L 577.836364 128.63029 
L 578.101136 128.305152 
L 578.365909 129.724052 
L 578.895455 143.175362 
L 579.160227 141.565714 
L 579.425 142.870555 
L 579.689773 137.811386 
L 579.954545 139.112934 
L 580.484091 144.328661 
L 581.013636 137.76904 
L 581.278409 139.04796 
L 581.543182 141.685401 
L 581.807955 135.65254 
L 582.072727 137.131322 
L 582.602273 144.843553 
L 582.867045 139.763747 
L 583.131818 138.967901 
L 583.396591 136.766288 
L 583.926136 129.876053 
L 584.190909 127.689181 
L 584.455682 133.442236 
L 584.720455 132.513685 
L 584.985227 132.566637 
L 585.25 126.205269 
L 585.514773 125.720127 
L 585.779545 126.978027 
L 586.044318 120.509301 
L 586.309091 118.381085 
L 586.573864 120.905769 
L 586.838636 118.599707 
L 587.103409 125.978989 
L 587.368182 123.067946 
L 587.632955 122.631161 
L 587.897727 124.385843 
L 588.1625 122.29289 
L 588.427273 129.486209 
L 588.692045 126.681681 
L 588.956818 127.033889 
L 589.221591 129.059877 
L 589.486364 124.993582 
L 590.015909 121.410399 
L 590.280682 126.0427 
L 590.545455 127.924841 
L 590.810227 127.849836 
L 591.339773 140.010472 
L 591.604545 141.228438 
L 591.869318 137.695298 
L 592.134091 131.229941 
L 592.398864 130.559908 
L 593.457955 150.281003 
L 593.722727 156.611626 
L 593.9875 154.413153 
L 594.252273 147.690847 
L 594.517045 146.123354 
L 594.781818 151.051502 
L 595.046591 158.482894 
L 595.311364 161.709389 
L 595.840909 154.380953 
L 596.105682 155.720176 
L 596.370455 151.416498 
L 596.635227 151.215029 
L 597.164773 158.576162 
L 597.429545 155.058643 
L 597.694318 155.334161 
L 597.959091 153.154793 
L 598.223864 148.339171 
L 598.488636 146.391443 
L 599.018182 131.298207 
L 599.282955 130.496351 
L 599.8125 138.793616 
L 600.077273 136.033923 
L 600.342045 131.712441 
L 600.871591 130.104439 
L 601.136364 125.578156 
L 601.401136 124.888444 
L 601.665909 127.472894 
L 601.930682 126.481169 
L 602.195455 121.222331 
L 602.460227 113.465648 
L 602.725 112.423689 
L 602.989773 117.265193 
L 603.254545 116.387795 
L 603.519318 114.773475 
L 603.784091 117.026355 
L 604.048864 115.554657 
L 604.578409 107.912148 
L 604.843182 113.068567 
L 605.107955 113.199779 
L 605.372727 111.135197 
L 605.6375 120.946622 
L 605.902273 116.319375 
L 606.167045 120.947694 
L 606.431818 133.299002 
L 606.696591 127.123558 
L 606.961364 126.865577 
L 607.226136 124.71033 
L 607.490909 124.27255 
L 607.755682 124.497145 
L 608.020455 119.672449 
L 608.285227 121.069372 
L 608.55 120.876402 
L 608.814773 121.071401 
L 609.079545 122.819229 
L 609.344318 123.061207 
L 609.873864 128.549963 
L 610.138636 129.01263 
L 610.403409 125.077049 
L 610.668182 122.832592 
L 610.932955 123.022575 
L 611.4625 133.146349 
L 611.992045 137.99463 
L 612.256818 132.775649 
L 612.786364 134.541205 
L 613.051136 131.14812 
L 613.315909 133.805968 
L 613.580682 131.455646 
L 613.845455 124.176792 
L 614.110227 128.133355 
L 614.375 126.688535 
L 614.639773 127.581325 
L 614.904545 129.152839 
L 615.169318 129.763028 
L 615.434091 129.376668 
L 615.698864 121.945775 
L 615.963636 123.701643 
L 616.228409 123.794759 
L 616.493182 125.65611 
L 617.2875 116.768374 
L 617.552273 112.291789 
L 618.081818 125.018851 
L 618.346591 123.557797 
L 618.611364 118.186584 
L 618.876136 116.518739 
L 619.140909 118.222651 
L 619.405682 114.355413 
L 619.670455 114.833395 
L 620.2 111.512138 
L 620.464773 114.924022 
L 620.729545 112.286467 
L 620.994318 108.062886 
L 621.259091 107.832165 
L 621.523864 107.209456 
L 621.788636 110.774566 
L 622.053409 106.205976 
L 622.318182 106.298096 
L 622.582955 103.785205 
L 622.847727 103.214069 
L 623.1125 108.991092 
L 623.377273 105.168229 
L 623.642045 103.259134 
L 623.906818 104.022627 
L 624.171591 109.901648 
L 624.436364 107.109449 
L 624.701136 107.40813 
L 624.965909 110.556212 
L 625.230682 109.840617 
L 625.495455 108.275344 
L 625.760227 104.634386 
L 626.025 102.813619 
L 626.554545 98.076028 
L 626.819318 97.334474 
L 627.084091 97.576145 
L 627.613636 92.37133 
L 627.878409 86.719355 
L 628.407955 93.839506 
L 628.672727 91.574565 
L 628.9375 92.033404 
L 629.202273 84.94147 
L 629.731818 83.564342 
L 629.996591 88.652495 
L 630.261364 88.150583 
L 630.790909 81.732817 
L 631.055682 86.445905 
L 631.320455 88.434639 
L 631.585227 85.110319 
L 631.85 84.135057 
L 632.114773 84.848393 
L 632.379545 80.304537 
L 632.644318 80.276472 
L 632.909091 77.29406 
L 633.173864 83.050638 
L 633.438636 83.450513 
L 633.703409 79.111381 
L 633.968182 78.860521 
L 634.497727 80.458032 
L 634.7625 83.416016 
L 635.027273 81.92169 
L 635.292045 81.168114 
L 635.556818 72.349142 
L 635.821591 73.20843 
L 636.086364 77.026047 
L 636.351136 69.900918 
L 636.615909 69.289427 
L 636.880682 75.248086 
L 637.145455 78.187157 
L 637.410227 70.568922 
L 637.675 69.304283 
L 637.939773 73.069025 
L 638.469318 75.111744 
L 638.734091 70.724063 
L 638.998864 68.544044 
L 639.528409 74.740776 
L 639.793182 66.989836 
L 640.322727 66.495199 
L 640.5875 65.68936 
L 641.117045 69.83939 
L 641.381818 62.021486 
L 641.646591 58.61994 
L 641.911364 49.47828 
L 642.176136 46.357305 
L 642.440909 53.174219 
L 642.705682 56.904656 
L 642.970455 65.187678 
L 643.5 56.70736 
L 643.764773 55.892868 
L 644.029545 56.021055 
L 644.559091 40.51707 
L 645.088636 48.823868 
L 645.353409 43.106421 
L 645.618182 46.246884 
L 645.882955 42.820872 
L 646.147727 48.264602 
L 646.677273 49.860467 
L 646.942045 44.137735 
L 647.206818 55.558387 
L 647.736364 45.440317 
L 648.001136 45.275528 
L 648.265909 44.569658 
L 648.530682 37.410836 
L 648.795455 43.340588 
L 649.060227 42.730552 
L 649.325 52.759067 
L 649.589773 50.548226 
L 649.854545 44.111317 
L 650.119318 44.388213 
L 650.384091 39.40604 
L 650.648864 37.196234 
L 650.913636 38.55127 
L 651.443182 50.616225 
L 651.707955 49.924407 
L 651.972727 54.343637 
L 652.2375 45.269134 
L 652.502273 48.252579 
L 652.767045 47.748447 
L 653.031818 46.670804 
L 653.296591 48.943096 
L 653.561364 38.28341 
L 653.826136 41.83734 
L 654.355682 33.933978 
L 654.620455 25.917208 
L 654.885227 34.664467 
L 655.15 38.696609 
L 655.414773 32.865563 
L 655.679545 33.815286 
L 655.944318 38.697031 
L 656.209091 36.012535 
L 656.473864 36.263165 
L 657.003409 38.70174 
L 657.268182 41.59678 
L 657.532955 41.010137 
L 657.797727 36.195243 
L 658.0625 34.378918 
L 658.327273 33.527938 
L 659.121591 38.845816 
L 659.386364 34.269684 
L 659.651136 40.051378 
L 659.915909 35.957554 
L 660.180682 39.704569 
L 660.445455 41.090082 
L 660.710227 40.750317 
L 660.975 46.819972 
L 661.504545 47.547284 
L 661.769318 50.927848 
L 663.093182 60.19601 
L 663.357955 67.982136 
L 663.8875 63.609693 
L 664.152273 62.660199 
L 664.681818 69.188386 
L 664.946591 65.508949 
L 665.211364 74.646206 
L 665.476136 76.677477 
L 665.740909 76.29127 
L 666.005682 69.652049 
L 666.270455 69.63145 
L 666.535227 77.009698 
L 666.8 79.428555 
L 667.329545 76.234872 
L 667.594318 77.233451 
L 667.859091 74.542063 
L 668.123864 73.149965 
L 668.388636 73.006578 
L 668.653409 70.051274 
L 668.918182 79.295353 
L 669.182955 79.810053 
L 669.447727 81.493903 
L 669.7125 69.449661 
L 669.977273 65.06979 
L 670.242045 62.531783 
L 670.771591 43.264587 
L 671.036364 48.577756 
L 671.301136 56.55911 
L 671.565909 56.25235 
L 671.830682 55.431272 
L 672.095455 56.519329 
L 672.889773 64.153185 
L 673.154545 63.476261 
L 673.419318 64.982571 
L 673.684091 59.588654 
L 674.213636 52.406591 
L 674.478409 60.422558 
L 674.743182 61.017585 
L 675.007955 53.595038 
L 675.272727 55.11563 
L 675.5375 59.211636 
L 675.802273 59.087852 
L 676.067045 58.818958 
L 676.331818 50.889828 
L 676.596591 52.983279 
L 676.861364 54.149595 
L 677.126136 57.19836 
L 677.920455 78.620419 
L 678.185227 82.598768 
L 678.45 82.707121 
L 678.714773 75.051212 
L 679.244318 68.454413 
L 679.773864 59.319607 
L 680.038636 60.04129 
L 680.303409 60.362101 
L 680.568182 68.013685 
L 680.832955 66.785917 
L 681.097727 64.568567 
L 681.627273 68.259223 
L 681.892045 63.448847 
L 682.156818 60.821629 
L 682.421591 64.725815 
L 682.686364 55.05973 
L 683.215909 52.462185 
L 683.480682 48.364034 
L 683.745455 54.059122 
L 684.010227 55.598436 
L 684.275 55.983992 
L 684.539773 59.405409 
L 685.069318 52.678165 
L 685.334091 46.00437 
L 685.598864 47.769198 
L 685.863636 42.465448 
L 686.393182 54.169467 
L 686.657955 52.925694 
L 687.1875 56.018834 
L 687.452273 51.117372 
L 687.717045 50.550868 
L 687.981818 42.136252 
L 688.246591 42.778105 
L 688.511364 42.906024 
L 688.776136 44.76883 
L 689.040909 41.669603 
L 689.305682 45.959076 
L 689.570455 47.717893 
L 689.835227 43.211023 
L 690.1 49.608496 
L 690.364773 42.101678 
L 691.159091 53.092743 
L 691.423864 46.858222 
L 691.688636 49.248171 
L 691.953409 47.142431 
L 692.482955 45.608706 
L 692.747727 52.813895 
L 693.0125 44.89024 
L 693.277273 50.832856 
L 693.806818 38.589979 
L 694.336364 50.418202 
L 694.601136 51.722047 
L 695.395455 40.428395 
L 695.925 43.485162 
L 696.189773 44.259298 
L 696.454545 45.525316 
L 696.719318 40.845462 
L 696.984091 48.085952 
L 697.248864 60.116908 
L 697.513636 63.772032 
L 697.778409 72.152841 
L 698.043182 65.377316 
L 698.307955 55.089135 
L 698.572727 49.377201 
L 698.8375 51.465444 
L 699.102273 48.812688 
L 699.367045 53.608975 
L 699.631818 46.710432 
L 699.896591 51.677749 
L 700.161364 52.635206 
L 700.426136 59.321674 
L 700.690909 53.918453 
L 701.220455 67.423367 
L 701.485227 69.311175 
L 701.75 58.616685 
L 702.014773 60.252063 
L 702.279545 69.84207 
L 702.544318 68.512917 
L 702.809091 71.393215 
L 703.073864 77.207837 
L 703.338636 80.468599 
L 703.603409 73.746103 
L 703.868182 74.586209 
L 704.132955 83.815279 
L 704.397727 68.497716 
L 704.6625 62.103 
L 705.456818 77.367917 
L 705.721591 83.112319 
L 705.986364 84.688696 
L 706.251136 75.132305 
L 706.515909 75.569932 
L 706.780682 73.502249 
L 707.045455 88.769502 
L 707.310227 83.601749 
L 707.575 82.489916 
L 707.839773 76.348204 
L 708.104545 82.221788 
L 708.369318 77.262741 
L 708.634091 69.325226 
L 708.898864 65.634685 
L 709.163636 75.022534 
L 709.693182 70.70132 
L 710.222727 80.890299 
L 710.4875 74.41334 
L 710.752273 76.709332 
L 711.017045 77.923087 
L 711.281818 80.222563 
L 711.546591 70.462023 
L 711.811364 77.426076 
L 712.076136 74.660678 
L 712.605682 52.389477 
L 712.870455 52.125828 
L 713.135227 57.793655 
L 713.4 53.302789 
L 713.664773 57.762412 
L 713.929545 58.538655 
L 714.194318 53.740531 
L 714.459091 41.834163 
L 714.723864 42.359775 
L 714.988636 46.979364 
L 715.253409 48.383216 
L 715.518182 43.83132 
L 715.782955 41.99788 
L 716.047727 42.658073 
L 716.3125 43.92053 
L 716.577273 40.962852 
L 716.842045 40.773175 
L 717.106818 37.664031 
L 717.371591 31.11337 
L 717.901136 31.337314 
L 718.165909 28.680155 
L 718.430682 30.344325 
L 718.695455 29.89077 
L 718.960227 31.536945 
L 719.225 28.046457 
L 719.489773 29.4407 
L 720.019318 37.13907 
L 720.284091 33.310771 
L 720.548864 25.869348 
L 721.078409 39.385059 
L 721.343182 34.961693 
L 721.607955 38.017579 
L 722.1375 53.1277 
L 722.402273 44.778555 
L 722.931818 53.436834 
L 723.196591 61.625936 
L 723.461364 61.979943 
L 723.726136 66.278989 
L 723.990909 67.981408 
L 724.255682 63.795273 
L 724.785227 72.421697 
L 725.05 61.062956 
L 725.314773 61.624558 
L 725.579545 65.857519 
L 725.844318 63.29317 
L 726.109091 67.348132 
L 726.373864 62.816451 
L 726.903409 75.377575 
L 727.168182 81.325131 
L 727.432955 83.821979 
L 727.697727 90.229025 
L 727.9625 92.078468 
L 728.227273 90.125227 
L 728.492045 86.289576 
L 729.021591 88.983989 
L 729.286364 87.840913 
L 729.551136 89.219764 
L 729.815909 89.691544 
L 730.080682 91.949324 
L 730.345455 84.374776 
L 730.610227 84.562079 
L 730.875 88.207631 
L 731.139773 83.925509 
L 731.404545 86.380892 
L 731.669318 91.197394 
L 731.934091 83.180318 
L 732.198864 82.385353 
L 732.463636 90.244033 
L 732.728409 88.651729 
L 732.993182 89.649657 
L 733.257955 95.150282 
L 733.522727 86.961677 
L 733.7875 89.646824 
L 734.052273 85.478722 
L 734.317045 77.79222 
L 734.581818 74.276194 
L 734.846591 73.140201 
L 735.111364 70.148294 
L 735.376136 70.392033 
L 735.640909 70.379781 
L 736.170455 65.335659 
L 736.435227 65.143149 
L 736.7 65.212833 
L 737.229545 65.088283 
L 737.494318 57.195105 
L 737.759091 65.279147 
L 738.288636 57.767773 
L 738.553409 59.945571 
L 738.818182 54.083932 
L 739.082955 52.508436 
L 739.347727 60.028578 
L 739.6125 58.14211 
L 739.877273 58.855293 
L 740.142045 61.998245 
L 740.671591 58.66577 
L 740.936364 60.880898 
L 741.201136 60.206233 
L 741.465909 62.21166 
L 741.730682 67.751721 
L 741.995455 68.075749 
L 742.260227 66.066876 
L 742.525 66.025946 
L 742.789773 65.746791 
L 743.054545 59.082951 
L 743.584091 67.434393 
L 743.848864 66.133726 
L 744.113636 70.438323 
L 744.378409 66.862224 
L 744.643182 72.289796 
L 744.907955 71.606937 
L 745.172727 69.798576 
L 745.4375 69.29406 
L 745.702273 67.562925 
L 745.967045 61.496792 
L 746.496591 67.178326 
L 746.761364 53.494303 
L 747.026136 58.63223 
L 747.290909 58.982255 
L 747.555682 62.463822 
L 747.820455 57.013584 
L 748.085227 56.162259 
L 748.35 54.444678 
L 748.614773 54.981164 
L 748.879545 53.468115 
L 749.144318 53.916501 
L 749.409091 59.293074 
L 749.673864 67.377383 
L 749.938636 61.912519 
L 750.203409 67.721589 
L 750.468182 65.866555 
L 750.997727 72.111797 
L 751.2625 72.315334 
L 751.527273 65.183313 
L 751.792045 65.181513 
L 752.056818 63.683397 
L 752.321591 63.741785 
L 752.586364 61.001657 
L 753.115909 67.677558 
L 753.380682 73.751616 
L 753.645455 72.050728 
L 753.910227 67.069474 
L 754.439773 74.073079 
L 754.969318 64.116314 
L 755.234091 66.41782 
L 755.498864 64.24006 
L 755.763636 70.468379 
L 756.028409 64.688522 
L 756.822727 59.937033 
L 757.0875 55.267057 
L 757.352273 55.683626 
L 757.617045 49.489843 
L 757.881818 54.479405 
L 758.146591 47.673671 
L 758.411364 37.265037 
L 758.676136 31.802852 
L 758.940909 31.806528 
L 759.205682 33.880375 
L 759.470455 26.29725 
L 760 38.823724 
L 760.264773 38.268478 
L 760.529545 37.329781 
L 760.794318 31.452636 
L 761.323864 41.229908 
L 761.588636 43.041294 
L 761.853409 40.845271 
L 762.118182 46.962441 
L 762.382955 44.365317 
L 762.647727 45.466774 
L 762.9125 47.39421 
L 763.177273 44.587959 
L 763.442045 56.238681 
L 763.971591 60.324005 
L 764.236364 53.933845 
L 764.501136 50.630315 
L 764.765909 54.401375 
L 765.030682 54.411176 
L 765.560227 64.030703 
L 766.089773 81.976977 
L 766.354545 83.185869 
L 766.619318 76.272356 
L 766.884091 81.55501 
L 767.148864 79.048589 
L 767.413636 78.034619 
L 767.678409 73.650422 
L 767.943182 72.195991 
L 768.207955 73.796681 
L 768.472727 69.547715 
L 768.7375 68.552965 
L 769.002273 71.601385 
L 769.267045 69.501158 
L 769.531818 65.549189 
L 769.796591 65.089853 
L 770.061364 67.954262 
L 770.326136 68.819868 
L 770.590909 68.945183 
L 770.855682 64.079482 
L 771.120455 63.043764 
L 771.385227 56.566385 
L 771.65 64.436092 
L 771.914773 66.021926 
L 772.179545 68.550285 
L 772.444318 68.618093 
L 772.709091 62.967955 
L 772.973864 51.157114 
L 773.238636 53.454599 
L 773.503409 43.003006 
L 773.768182 42.054776 
L 774.032955 42.983326 
L 774.297727 46.694925 
L 774.5625 48.394779 
L 774.827273 42.052249 
L 775.092045 41.422648 
L 775.621591 50.987002 
L 776.151136 52.435728 
L 776.415909 46.465812 
L 776.680682 46.924 
L 776.945455 50.468473 
L 777.475 45.223265 
L 777.739773 47.056743 
L 778.004545 50.949557 
L 778.269318 42.260495 
L 778.534091 39.634962 
L 778.798864 38.258753 
L 779.063636 33.862418 
L 779.328409 32.169265 
L 779.593182 32.824174 
L 779.857955 36.194209 
L 780.122727 35.116299 
L 780.3875 47.816943 
L 780.652273 45.919908 
L 780.917045 50.593904 
L 781.181818 51.857892 
L 781.446591 51.068249 
L 781.976136 41.594329 
L 782.240909 45.204274 
L 782.770455 49.261534 
L 783.035227 49.782819 
L 783.564773 37.977147 
L 783.829545 41.758468 
L 784.094318 41.66719 
L 784.359091 45.791376 
L 784.623864 54.273149 
L 784.888636 49.772788 
L 785.153409 49.493939 
L 785.418182 50.823744 
L 785.947727 60.074791 
L 786.2125 70.063985 
L 786.477273 70.045645 
L 786.742045 70.363624 
L 787.271591 66.992708 
L 787.536364 68.104924 
L 788.065909 60.762743 
L 788.330682 58.133266 
L 788.595455 57.706742 
L 789.125 67.270025 
L 789.389773 71.311969 
L 790.448864 63.852858 
L 790.713636 68.821438 
L 790.978409 68.911758 
L 791.243182 73.635834 
L 791.507955 71.841908 
L 791.772727 67.878453 
L 792.0375 66.505805 
L 792.302273 73.066 
L 792.567045 67.175952 
L 792.831818 68.956249 
L 793.096591 76.4896 
L 793.361364 75.036126 
L 793.626136 69.168209 
L 793.890909 73.377125 
L 794.420455 62.90187 
L 794.685227 65.958139 
L 794.95 71.932113 
L 795.214773 71.815719 
L 795.479545 68.591751 
L 795.744318 69.632407 
L 796.273864 60.400466 
L 796.538636 50.016374 
L 796.803409 49.610908 
L 797.068182 46.762082 
L 797.332955 46.396397 
L 797.8625 55.452599 
L 798.127273 50.352615 
L 798.392045 55.494294 
L 798.656818 48.968863 
L 798.921591 54.670268 
L 799.186364 55.976181 
L 799.715909 45.603882 
L 799.980682 44.70979 
L 800.510227 30.085845 
L 800.775 33.14399 
L 801.039773 33.580775 
L 801.304545 26.286453 
L 801.569318 23.758668 
L 801.834091 32.415607 
L 802.363636 23.847725 
L 802.628409 25.078059 
L 802.893182 23.109426 
L 803.157955 18.936499 
L 803.422727 23.919055 
L 803.6875 23.598052 
L 803.952273 32.053636 
L 804.217045 34.373902 
L 804.746591 43.705545 
L 805.011364 40.783743 
L 805.276136 32.088708 
L 805.540909 32.89715 
L 805.805682 31.578564 
L 806.070455 39.736079 
L 806.335227 35.269602 
L 806.6 37.979828 
L 807.129545 50.060864 
L 807.394318 50.055733 
L 807.923864 52.975353 
L 808.188636 48.100424 
L 808.453409 51.915323 
L 808.718182 52.731806 
L 808.982955 57.55631 
L 809.247727 50.442514 
L 809.5125 57.890599 
L 809.777273 58.650225 
L 810.042045 57.853384 
L 810.306818 60.355899 
L 810.571591 65.998226 
L 810.836364 62.428368 
L 811.101136 64.831641 
L 811.365909 65.283052 
L 811.630682 61.068737 
L 811.895455 60.239811 
L 812.425 52.179316 
L 812.689773 59.434278 
L 812.954545 63.117391 
L 813.219318 64.407109 
L 813.484091 60.551548 
L 813.748864 62.46991 
L 814.013636 54.126317 
L 814.278409 53.598063 
L 814.543182 42.178291 
L 814.807955 43.487804 
L 815.072727 41.951208 
L 815.3375 43.120243 
L 815.602273 48.344048 
L 816.131818 40.746412 
L 816.396591 39.690249 
L 816.926136 31.93483 
L 817.190909 35.425586 
L 817.455682 35.542095 
L 817.720455 38.803011 
L 817.720455 38.803011 
" clip-path="url(#pccc10525a2)" style="fill: none; stroke: #cc241d; stroke-width: 1.5; stroke-linecap: square"/>
   </g>
   <g id="patch_3">
    <path d="M 72.65 371.304 
L 72.65 10.8 
" style="fill: none; stroke: #333333; stroke-width: 0.8; stroke-linejoin: miter; stroke-linecap: square"/>
   </g>
   <g id="patch_4">
    <path d="M 853.2 371.304 
L 853.2 10.8 
" style="fill: none; stroke: #333333; stroke-width: 0.8; stroke-linejoin: miter; stroke-linecap: square"/>
   </g>
   <g id="patch_5">
    <path d="M 72.65 371.304 
L 853.2 371.304 
" style="fill: none; stroke: #333333; stroke-width: 0.8; stroke-linejoin: miter; stroke-linecap: square"/>
   </g>
   <g id="patch_6">
    <path d="M 72.65 10.8 
L 853.2 10.8 
" style="fill: none; stroke: #333333; stroke-width: 0.8; stroke-linejoin: miter; stroke-linecap: square"/>
   </g>
   <g id="text_18">
    <!-- Quelle: IMF PortWatch / HDX -->
    <g style="fill: #a9a9a9" transform="translate(739.70125 423.71585) scale(0.08 -0.08)">
     <defs>
      <path id="DejaVuSans-51" d="M 2522 4238 
Q 1834 4238 1429 3725 
Q 1025 3213 1025 2328 
Q 1025 1447 1429 934 
Q 1834 422 2522 422 
Q 3209 422 3611 934 
Q 4013 1447 4013 2328 
Q 4013 3213 3611 3725 
Q 3209 4238 2522 4238 
z
M 3406 84 
L 4238 -825 
L 3475 -825 
L 2784 -78 
Q 2681 -84 2626 -87 
Q 2572 -91 2522 -91 
Q 1538 -91 948 567 
Q 359 1225 359 2328 
Q 359 3434 948 4092 
Q 1538 4750 2522 4750 
Q 3503 4750 4090 4092 
Q 4678 3434 4678 2328 
Q 4678 1516 4351 937 
Q 4025 359 3406 84 
z
" transform="scale(0.015625)"/>
      <path id="DejaVuSans-6c" d="M 603 4863 
L 1178 4863 
L 1178 0 
L 603 0 
L 603 4863 
z
" transform="scale(0.015625)"/>
      <path id="DejaVuSans-3a" d="M 750 794 
L 1409 794 
L 1409 0 
L 750 0 
L 750 794 
z
M 750 3309 
L 1409 3309 
L 1409 2516 
L 750 2516 
L 750 3309 
z
" transform="scale(0.015625)"/>
      <path id="DejaVuSans-49" d="M 628 4666 
L 1259 4666 
L 1259 0 
L 628 0 
L 628 4666 
z
" transform="scale(0.015625)"/>
      <path id="DejaVuSans-46" d="M 628 4666 
L 3309 4666 
L 3309 4134 
L 1259 4134 
L 1259 2759 
L 3109 2759 
L 3109 2228 
L 1259 2228 
L 1259 0 
L 628 0 
L 628 4666 
z
" transform="scale(0.015625)"/>
      <path id="DejaVuSans-50" d="M 1259 4147 
L 1259 2394 
L 2053 2394 
Q 2494 2394 2734 2622 
Q 2975 2850 2975 3272 
Q 2975 3691 2734 3919 
Q 2494 4147 2053 4147 
L 1259 4147 
z
M 628 4666 
L 2053 4666 
Q 2838 4666 3239 4311 
Q 3641 3956 3641 3272 
Q 3641 2581 3239 2228 
Q 2838 1875 2053 1875 
L 1259 1875 
L 1259 0 
L 628 0 
L 628 4666 
z
" transform="scale(0.015625)"/>
      <path id="DejaVuSans-57" d="M 213 4666 
L 850 4666 
L 1831 722 
L 2809 4666 
L 3519 4666 
L 4500 722 
L 5478 4666 
L 6119 4666 
L 4947 0 
L 4153 0 
L 3169 4050 
L 2175 0 
L 1381 0 
L 213 4666 
z
" transform="scale(0.015625)"/>
      <path id="DejaVuSans-2f" d="M 1625 4666 
L 2156 4666 
L 531 -594 
L 0 -594 
L 1625 4666 
z
" transform="scale(0.015625)"/>
      <path id="DejaVuSans-48" d="M 628 4666 
L 1259 4666 
L 1259 2753 
L 3553 2753 
L 3553 4666 
L 4184 4666 
L 4184 0 
L 3553 0 
L 3553 2222 
L 1259 2222 
L 1259 0 
L 628 0 
L 628 4666 
z
" transform="scale(0.015625)"/>
      <path id="DejaVuSans-58" d="M 403 4666 
L 1081 4666 
L 2241 2931 
L 3406 4666 
L 4084 4666 
L 2584 2425 
L 4184 0 
L 3506 0 
L 2194 1984 
L 872 0 
L 191 0 
L 1856 2491 
L 403 4666 
z
" transform="scale(0.015625)"/>
     </defs>
     <use xlink:href="#DejaVuSans-51"/>
     <use xlink:href="#DejaVuSans-75" x="78.710938"/>
     <use xlink:href="#DejaVuSans-65" x="142.089844"/>
     <use xlink:href="#DejaVuSans-6c" x="203.613281"/>
     <use xlink:href="#DejaVuSans-6c" x="231.396484"/>
     <use xlink:href="#DejaVuSans-65" x="259.179688"/>
     <use xlink:href="#DejaVuSans-3a" x="320.703125"/>
     <use xlink:href="#DejaVuSans-20" x="354.394531"/>
     <use xlink:href="#DejaVuSans-49" x="386.181641"/>
     <use xlink:href="#DejaVuSans-4d" x="415.673828"/>
     <use xlink:href="#DejaVuSans-46" x="501.953125"/>
     <use xlink:href="#DejaVuSans-20" x="559.472656"/>
     <use xlink:href="#DejaVuSans-50" x="591.259766"/>
     <use xlink:href="#DejaVuSans-6f" x="647.9375"/>
     <use xlink:href="#DejaVuSans-72" x="709.119141"/>
     <use xlink:href="#DejaVuSans-74" x="750.232422"/>
     <use xlink:href="#DejaVuSans-57" x="789.441406"/>
     <use xlink:href="#DejaVuSans-61" x="881.943359"/>
     <use xlink:href="#DejaVuSans-74" x="943.222656"/>
     <use xlink:href="#DejaVuSans-63" x="982.431641"/>
     <use xlink:href="#DejaVuSans-68" x="1037.412109"/>
     <use xlink:href="#DejaVuSans-20" x="1100.791016"/>
     <use xlink:href="#DejaVuSans-2f" x="1132.578125"/>
     <use xlink:href="#DejaVuSans-20" x="1166.269531"/>
     <use xlink:href="#DejaVuSans-48" x="1198.056641"/>
     <use xlink:href="#DejaVuSans-44" x="1273.251953"/>
     <use xlink:href="#DejaVuSans-58" x="1350.253906"/>
    </g>
   </g>
  </g>
 </g>
 <defs>
  <clipPath id="pccc10525a2">
   <rect x="72.65" y="10.8" width="780.55" height="360.504"/>
  </clipPath>
 </defs>
</svg>
