<svg xmlns="http://www.w3.org/2000/svg" version="1.1" style="font-family:Lato, &#x27;Helvetica Neue&#x27;, Helvetica, Arial, &#x27;Liberation Sans&#x27;, sans-serif;font-size:18px;background-color:white;text-rendering:geometricPrecision;-webkit-font-smoothing:antialiased" width="850" height="600" viewBox="0 0 850 600"><defs><style>@import url(https://ourworldindata.org/fonts.css)</style></defs><defs><pattern id="noDataPattern" patternUnits="userSpaceOnUse" width="4" height="4" patternTransform="rotate(-45 2 2)"><path d="M -1,2 l 6,0" stroke="#ccc" stroke-width="0.7"></path></pattern></defs><rect class="background-fill" fill="white" width="850" height="600"></rect><g class="HeaderView"><g transform="translate(769, 16) scale(1)"><svg className="owidLogo" xmlns="http://www.w3.org/2000/svg" width="65" height="36" viewBox="0 0 65 36"  fill="none"><path fill="#002147" d="M0 0h64.8v36H0z"/><path fill="#CE261E" d="M0 33.3h64.8V36H0z"/><path fill="#fff" d="M13.796 10.575c0 .636-.106 1.226-.318 1.77a4.193 4.193 0 0 1-.894 1.404 4.084 4.084 0 0 1-1.386.93c-.54.22-1.138.33-1.794.33-.656 0-1.256-.11-1.8-.33a4.149 4.149 0 0 1-1.392-.93 4.193 4.193 0 0 1-.894-1.404A4.833 4.833 0 0 1 5 10.575c0-.636.106-1.224.318-1.764a4.18 4.18 0 0 1 .894-1.41 4.076 4.076 0 0 1 1.392-.924 4.684 4.684 0 0 1 1.8-.336c.656 0 1.254.112 1.794.336.54.224 1.002.534 1.386.93.384.392.682.86.894 1.404.212.54.318 1.128.318 1.764Zm-1.656 0c0-.476-.064-.902-.192-1.278a2.671 2.671 0 0 0-.54-.966 2.332 2.332 0 0 0-.864-.606 2.94 2.94 0 0 0-1.14-.21c-.424 0-.806.07-1.146.21-.34.14-.63.342-.87.606a2.742 2.742 0 0 0-.546.966 3.955 3.955 0 0 0-.192 1.278c0 .476.064.904.192 1.284.128.376.31.696.546.96.24.26.53.46.87.6.34.14.722.21 1.146.21.424 0 .804-.07 1.14-.21.34-.14.628-.34.864-.6.236-.264.416-.584.54-.96a4.01 4.01 0 0 0 .192-1.284ZM16.104 8.757v3.912c0 .376.086.668.258.876.176.204.438.306.786.306.256 0 .496-.056.72-.168a2.58 2.58 0 0 0 .636-.474V8.757h1.482v6.156h-.906c-.192 0-.318-.09-.378-.27l-.102-.492a4.65 4.65 0 0 1-.396.354 2.577 2.577 0 0 1-.438.27 2.35 2.35 0 0 1-.498.168 2.345 2.345 0 0 1-.57.066c-.336 0-.634-.056-.894-.168a1.821 1.821 0 0 1-.648-.486 2.157 2.157 0 0 1-.402-.738 3.233 3.233 0 0 1-.132-.948V8.757h1.482ZM21.328 14.913V8.757h.87c.152 0 .258.028.318.084.06.056.1.152.12.288l.09.744c.22-.38.478-.68.774-.9.296-.22.628-.33.996-.33.304 0 .556.07.756.21l-.192 1.11c-.012.072-.038.124-.078.156a.278.278 0 0 1-.162.042 1.01 1.01 0 0 1-.246-.042 1.646 1.646 0 0 0-.414-.042c-.308 0-.572.086-.792.258-.22.168-.406.416-.558.744v3.834h-1.482ZM27.347 6.237h1.356a.57.57 0 0 1 .348.102c.096.064.16.152.192.264l1.476 5.19c.036.128.068.268.096.42.032.148.062.306.09.474a5.968 5.968 0 0 1 .228-.894l1.704-5.19a.575.575 0 0 1 .186-.252.543.543 0 0 1 .348-.114h.474a.57.57 0 0 1 .348.102.497.497 0 0 1 .192.264l1.692 5.19c.088.256.164.54.228.852.028-.156.056-.306.084-.45.032-.144.064-.278.096-.402l1.476-5.19c.028-.1.09-.186.186-.258a.563.563 0 0 1 .348-.108h1.266l-2.694 8.676h-1.458l-1.896-5.928-.078-.246a9.504 9.504 0 0 1-.072-.282c-.024.1-.05.194-.078.282-.024.088-.048.17-.072.246l-1.914 5.928H30.04l-2.694-8.676ZM42.771 8.661c.46 0 .876.074 1.248.222.376.148.696.358.96.63s.468.604.612.996c.144.392.216.83.216 1.314 0 .488-.072.928-.216 1.32a2.85 2.85 0 0 1-.612 1.002 2.653 2.653 0 0 1-.96.636 3.35 3.35 0 0 1-1.248.222c-.46 0-.878-.074-1.254-.222a2.712 2.712 0 0 1-.966-.636 2.922 2.922 0 0 1-.618-1.002 3.807 3.807 0 0 1-.216-1.32c0-.484.072-.922.216-1.314.148-.392.354-.724.618-.996.268-.272.59-.482.966-.63a3.397 3.397 0 0 1 1.254-.222Zm0 5.202c.512 0 .89-.172 1.134-.516.248-.344.372-.848.372-1.512s-.124-1.17-.372-1.518c-.244-.348-.622-.522-1.134-.522-.52 0-.904.176-1.152.528-.248.348-.372.852-.372 1.512s.124 1.164.372 1.512c.248.344.632.516 1.152.516ZM46.723 14.913V8.757h.87c.152 0 .258.028.318.084.06.056.1.152.12.288l.09.744c.22-.38.478-.68.774-.9.296-.22.628-.33.996-.33.304 0 .556.07.756.21l-.192 1.11c-.012.072-.038.124-.078.156a.278.278 0 0 1-.162.042 1.01 1.01 0 0 1-.246-.042 1.646 1.646 0 0 0-.414-.042c-.308 0-.572.086-.792.258-.22.168-.406.416-.558.744v3.834h-1.482ZM52.96 5.997v8.916h-1.482V5.997h1.482ZM58.732 14.913c-.192 0-.318-.09-.378-.27l-.12-.594a3.68 3.68 0 0 1-.402.39c-.14.116-.292.216-.456.3-.16.084-.334.148-.522.192a2.372 2.372 0 0 1-.6.072c-.336 0-.644-.07-.924-.21a2.098 2.098 0 0 1-.726-.606 3.033 3.033 0 0 1-.468-.99 5.072 5.072 0 0 1-.162-1.344c0-.456.062-.88.186-1.272s.302-.732.534-1.02c.232-.288.51-.512.834-.672a2.384 2.384 0 0 1 1.092-.246 2.103 2.103 0 0 1 1.536.606V5.997h1.482v8.916h-.906Zm-1.974-1.086c.308 0 .57-.064.786-.192.216-.128.42-.31.612-.546v-2.76a1.452 1.452 0 0 0-.552-.432 1.597 1.597 0 0 0-.636-.126c-.224 0-.428.042-.612.126a1.21 1.21 0 0 0-.462.384c-.124.168-.22.384-.288.648-.068.26-.102.568-.102.924 0 .36.028.666.084.918.06.248.144.452.252.612.108.156.24.27.396.342.156.068.33.102.522.102ZM16.331 20.757v6.156H14.85v-6.156h1.481Zm.223-1.794a.844.844 0 0 1-.078.36.963.963 0 0 1-.21.294.995.995 0 0 1-.3.204.963.963 0 0 1-.372.072.948.948 0 0 1-.367-.072 1.018 1.018 0 0 1-.498-.498.963.963 0 0 1 0-.732.995.995 0 0 1 .205-.3.929.929 0 0 1 .293-.198.899.899 0 0 1 .738 0 .912.912 0 0 1 .3.198.943.943 0 0 1 .288.672ZM17.771 26.913v-6.156h.906c.192 0 .318.09.378.27l.102.486a2.934 2.934 0 0 1 .828-.618c.156-.076.322-.134.498-.174.176-.04.368-.06.576-.06.336 0 .634.058.894.174.26.112.476.272.648.48.176.204.308.45.396.738.092.284.138.598.138.942v3.918h-1.482v-3.918c0-.376-.088-.666-.264-.87-.172-.208-.432-.312-.78-.312-.256 0-.496.058-.72.174a2.58 2.58 0 0 0-.636.474v4.452h-1.482ZM34.22 22.575c0 .636-.106 1.22-.318 1.752-.212.532-.51.99-.894 1.374a4 4 0 0 1-1.386.894 4.87 4.87 0 0 1-1.794.318h-3.312v-8.676h3.312a4.79 4.79 0 0 1 1.794.324 4 4 0 0 1 1.386.894c.384.38.682.836.894 1.368.212.532.318 1.116.318 1.752Zm-1.65 0c0-.476-.064-.902-.192-1.278a2.68 2.68 0 0 0-.546-.96 2.332 2.332 0 0 0-.864-.606 2.94 2.94 0 0 0-1.14-.21h-1.686v6.108h1.686c.424 0 .804-.07 1.14-.21.34-.14.628-.34.864-.6a2.75 2.75 0 0 0 .546-.96 4.01 4.01 0 0 0 .192-1.284ZM39.98 26.913h-.665c-.14 0-.25-.02-.33-.06-.08-.044-.14-.13-.18-.258l-.132-.438c-.156.14-.31.264-.462.372a2.804 2.804 0 0 1-.462.264c-.16.072-.33.126-.51.162-.18.036-.38.054-.6.054-.26 0-.5-.034-.72-.102a1.618 1.618 0 0 1-.57-.318 1.448 1.448 0 0 1-.366-.522 1.852 1.852 0 0 1-.132-.726c0-.232.06-.46.18-.684.124-.228.328-.432.612-.612.284-.184.662-.336 1.134-.456.472-.12 1.058-.188 1.758-.204v-.36c0-.412-.088-.716-.264-.912-.172-.2-.424-.3-.756-.3a1.837 1.837 0 0 0-1.02.276c-.116.068-.224.13-.324.186a.664.664 0 0 1-.33.084.429.429 0 0 1-.258-.078.614.614 0 0 1-.174-.192l-.27-.474c.708-.648 1.562-.972 2.562-.972.36 0 .68.06.96.18.284.116.524.28.72.492.196.208.344.458.444.75.104.292.156.612.156.96v3.888Zm-2.88-.924c.153 0 .293-.014.42-.042.129-.028.249-.07.36-.126.117-.056.227-.124.33-.204.109-.084.217-.182.325-.294v-1.038c-.432.02-.794.058-1.086.114-.288.052-.52.12-.696.204a.923.923 0 0 0-.378.294.664.664 0 0 0-.108.366c0 .26.076.446.228.558.156.112.358.168.606.168ZM43.22 27.01c-.532 0-.942-.15-1.23-.45-.288-.305-.432-.723-.432-1.255v-3.438h-.624a.31.31 0 0 1-.21-.078c-.056-.052-.084-.13-.084-.234v-.588l.99-.162.312-1.68a.302.302 0 0 1 .108-.186.365.365 0 0 1 .222-.066h.768v1.938h1.62v1.056h-1.62v3.336c0 .192.048.342.144.45a.488.488 0 0 0 .384.162c.092 0 .168-.01.228-.03.064-.024.118-.048.162-.072.048-.024.09-.046.126-.066a.194.194 0 0 1 .108-.036.16.16 0 0 1 .108.036c.028.02.058.052.09.096l.444.72c-.216.18-.464.316-.744.408a2.77 2.77 0 0 1-.87.138ZM50.423 26.913h-.666c-.14 0-.25-.02-.33-.06-.08-.044-.14-.13-.18-.258l-.132-.438c-.156.14-.31.264-.462.372a2.804 2.804 0 0 1-.462.264c-.16.072-.33.126-.51.162-.18.036-.38.054-.6.054-.26 0-.5-.034-.72-.102a1.618 1.618 0 0 1-.57-.318 1.448 1.448 0 0 1-.366-.522 1.852 1.852 0 0 1-.132-.726c0-.232.06-.46.18-.684.124-.228.328-.432.612-.612.284-.184.662-.336 1.134-.456.472-.12 1.058-.188 1.758-.204v-.36c0-.412-.088-.716-.264-.912-.172-.2-.424-.3-.756-.3a1.837 1.837 0 0 0-1.02.276c-.116.068-.224.13-.324.186a.664.664 0 0 1-.33.084.429.429 0 0 1-.258-.078.614.614 0 0 1-.174-.192l-.27-.474c.708-.648 1.562-.972 2.562-.972.36 0 .68.06.96.18.284.116.524.28.72.492.196.208.344.458.444.75.104.292.156.612.156.96v3.888Zm-2.88-.924c.152 0 .292-.014.42-.042.128-.028.248-.07.36-.126.116-.056.226-.124.33-.204.108-.084.216-.182.324-.294v-1.038c-.432.02-.794.058-1.086.114-.288.052-.52.12-.696.204a.923.923 0 0 0-.378.294.664.664 0 0 0-.108.366c0 .26.076.446.228.558.156.112.358.168.606.168Z"/></svg></g><a href="https://ourworldindata.org/grapher/prevalence-of-undernourishment?country=Low-income+countries~Lower-middle-income+countries~High-income+countries~Upper-middle-income+countries" style="font-family:&#x27;Playfair Display&#x27;, Georgia, &#x27;Times New Roman&#x27;, &#x27;Liberation Serif&#x27;, serif" target="_blank" rel="noopener"><text font-size="24.75" font-weight="500" x="16.0" y="40.0" fill="#5b5b5b"><tspan x="16" y="40.0075">Share of the population that is undernourished</tspan></text></a><text x="16.0" y="63.9" style="font-size:14.625px;line-height:1.2" fill="#5b5b5b"><tspan x="16" y="63.9">Share of individuals that have a daily food intake that is insufficient to provide the amount of dietary energy</tspan><tspan x="16" y="81.4">required to maintain a normal, active, and healthy life.</tspan></text></g><g style="pointer-events:none"><g class="LineChart"><defs><clipPath id="boundsClip-4"><rect x="38.135000000000005" y="90.8" width="838" height="434.6"></rect></clipPath></defs><rect x="16" y="100.8" width="818" height="414.6" fill="none"></rect><g class="DualAxisView"><g class="HorizontalAxis"><line x1="48.1" y1="494.90000000000003" x2="48.1" y2="499.90000000000003" stroke="#999" stroke-width="1"></line><line x1="611.1" y1="494.90000000000003" x2="611.1" y2="499.90000000000003" stroke="#999" stroke-width="1"></line><line x1="166.6" y1="494.90000000000003" x2="166.6" y2="499.90000000000003" stroke="#999" stroke-width="1"></line><line x1="314.8" y1="494.90000000000003" x2="314.8" y2="499.90000000000003" stroke="#999" stroke-width="1"></line><line x1="462.9" y1="494.90000000000003" x2="462.9" y2="499.90000000000003" stroke="#999" stroke-width="1"></line><text x="48.135000000000005" y="513.4" fill="#5b5b5b" text-anchor="start" font-size="13.5">2001</text><text x="611.0799999999999" y="513.4" fill="#5b5b5b" text-anchor="end" font-size="13.5">2020</text><text x="166.6" y="513.4" fill="#5b5b5b" text-anchor="middle" font-size="13.5">2005</text><text x="314.8" y="513.4" fill="#5b5b5b" text-anchor="middle" font-size="13.5">2010</text><text x="462.9" y="513.4" fill="#5b5b5b" text-anchor="middle" font-size="13.5">2015</text></g><g class="VerticalAxis"><text x="43.14" y="494.9" dy=".32em" text-anchor="end" fill="#5b5b5b" font-size="13.5">0%</text><text x="43.14" y="441.2" dy=".32em" text-anchor="end" fill="#5b5b5b" font-size="13.5">5%</text><text x="43.14" y="387.6" dy=".32em" text-anchor="end" fill="#5b5b5b" font-size="13.5">10%</text><text x="43.14" y="333.9" dy=".32em" text-anchor="end" fill="#5b5b5b" font-size="13.5">15%</text><text x="43.14" y="280.3" dy=".32em" text-anchor="end" fill="#5b5b5b" font-size="13.5">20%</text><text x="43.14" y="226.6" dy=".32em" text-anchor="end" fill="#5b5b5b" font-size="13.5">25%</text><text x="43.14" y="173" dy=".32em" text-anchor="end" fill="#5b5b5b" font-size="13.5">30%</text><text x="43.14" y="119.3" dy=".32em" text-anchor="end" fill="#5b5b5b" font-size="13.5">35%</text></g><g class="AxisGridLines horizontalLines"><line x1="48.14" y1="494.9" x2="611.08" y2="494.9" stroke="#999" stroke-width="1"></line><line x1="48.14" y1="441.2" x2="611.08" y2="441.2" stroke="#ddd" stroke-width="1" stroke-dasharray="3,2"></line><line x1="48.14" y1="387.6" x2="611.08" y2="387.6" stroke="#ddd" stroke-width="1" stroke-dasharray="3,2"></line><line x1="48.14" y1="333.9" x2="611.08" y2="333.9" stroke="#ddd" stroke-width="1" stroke-dasharray="3,2"></line><line x1="48.14" y1="280.3" x2="611.08" y2="280.3" stroke="#ddd" stroke-width="1" stroke-dasharray="3,2"></line><line x1="48.14" y1="226.6" x2="611.08" y2="226.6" stroke="#ddd" stroke-width="1" stroke-dasharray="3,2"></line><line x1="48.14" y1="173" x2="611.08" y2="173" stroke="#ddd" stroke-width="1" stroke-dasharray="3,2"></line><line x1="48.14" y1="119.3" x2="611.08" y2="119.3" stroke="#ddd" stroke-width="1" stroke-dasharray="3,2"></line></g></g><g clip-path="url(#boundsClip-4)"><g class="LineLabels" style="cursor:default"><g class="legendMark"><rect x="611.0799999999999" y="158.05" width="166.625" height="13.5" fill="#fff" opacity="0"></rect><text font-size="13.50" font-weight="400" x="615.1" y="169.8" fill="#cf0a66"><tspan x="615.0799999999999" y="169.79500000000002">Low-income countries</tspan></text></g><g class="legendMark"><rect x="611.0799999999999" y="352.85" width="222.92000000000002" height="13.5" fill="#fff" opacity="0"></rect><text font-size="13.50" font-weight="400" x="615.1" y="364.6" fill="#18470f"><tspan x="615.0799999999999" y="364.595">Lower-middle-income countries</tspan></text></g><g class="legendMark"><rect x="611.0799999999999" y="444.95" width="222.92000000000002" height="13.5" fill="#fff" opacity="0"></rect><text font-size="13.50" font-weight="400" x="615.1" y="456.7" fill="#883039"><tspan x="615.0799999999999" y="456.695">Upper-middle-income countries</tspan></text></g><g class="legendMark"><rect x="611.0799999999999" y="460.45" width="169.595" height="13.5" fill="#fff" opacity="0"></rect><text font-size="13.50" font-weight="400" x="615.1" y="472.2" fill="#286bbb"><tspan x="615.0799999999999" y="472.195">High-income countries</tspan></text></g></g><g class="Lines"><rect x="48" y="107" width="563" height="388" fill="rgba(255,255,255,0)" opacity="0"></rect><g><path stroke-linecap="round" stroke-linejoin="round" stroke="#ddd" d="M48.1 395.1L77.8 400.5L107.4 407.2L137 413.5L166.6 420.9L196.3 428.1L225.9 436.1L255.5 442.9L285.2 451.7L314.8 454.7L344.4 456L374.1 456.6L403.7 457.5L433.3 457.9L462.9 457.5L492.6 456.7L522.2 456.2L551.8 456L581.5 455L611.1 452.9" fill="none" stroke-width="1"></path></g><g><path stroke-linecap="round" stroke-linejoin="round" stroke="#ddd" d="M48.1 301.2L77.8 295.2L107.4 292.1L137 293.7L166.6 300.6L196.3 314.5L225.9 327.9L255.5 335.5L285.2 341.6L314.8 348.5L344.4 355.8L374.1 361.1L403.7 363.9L433.3 366.4L462.9 369.5L492.6 373.8L522.2 378.3L551.8 378.8L581.5 370.7L611.1 359.6" fill="none" stroke-width="1"></path></g><g><path stroke-linecap="round" stroke-linejoin="round" stroke="#ddd" d="M48.1 106.8L77.8 115.2L107.4 123.1L137 134.3L166.6 143.4L196.3 153.6L225.9 161.9L255.5 170.3L285.2 192.3L314.8 207.7L344.4 223.1L374.1 223.9L403.7 226.1L433.3 222.1L462.9 215L492.6 209.9L522.2 204.1L551.8 198.2L581.5 181.6L611.1 164.8" fill="none" stroke-width="1"></path></g><g><path stroke-linecap="round" stroke-linejoin="round" stroke="#ddd" d="M48.1 465.7L77.8 465.9L107.4 465.8L137 465.8L166.6 465.9L196.3 466L225.9 466L255.5 465.9L285.2 465.7L314.8 465.6L344.4 466L374.1 466.1L403.7 466.4L433.3 466.5L462.9 466.6L492.6 466.6L522.2 466.7L551.8 466.8L581.5 466.4L611.1 466" fill="none" stroke-width="1"></path></g><g><path fill="none" stroke-linecap="butt" stroke-linejoin="round" stroke="#fff" stroke-width="2.5" d="M48.1 395.1L77.8 400.5L107.4 407.2L137 413.5L166.6 420.9L196.3 428.1L225.9 436.1L255.5 442.9L285.2 451.7L314.8 454.7L344.4 456L374.1 456.6L403.7 457.5L433.3 457.9L462.9 457.5L492.6 456.7L522.2 456.2L551.8 456L581.5 455L611.1 452.9"></path><polyline points="48.10,395.10 77.80,400.50 107.40,407.20 137.00,413.50 166.60,420.90 196.30,428.10 225.90,436.10 255.50,442.90 285.20,451.70 314.80,454.70 344.40,456.00 374.10,456.60 403.70,457.50 433.30,457.90 462.90,457.50 492.60,456.70 522.20,456.20 551.80,456.00 581.50,455.00 611.10,452.90" stroke-linejoin="round" stroke-width="1.5" stroke="#883039" fill="none" stroke-linecap="butt"></polyline><g><circle cx="48.1" cy="395.1" r="1.8" fill="#883039"></circle><circle cx="77.8" cy="400.5" r="1.8" fill="#883039"></circle><circle cx="107.4" cy="407.2" r="1.8" fill="#883039"></circle><circle cx="137" cy="413.5" r="1.8" fill="#883039"></circle><circle cx="166.6" cy="420.9" r="1.8" fill="#883039"></circle><circle cx="196.3" cy="428.1" r="1.8" fill="#883039"></circle><circle cx="225.9" cy="436.1" r="1.8" fill="#883039"></circle><circle cx="255.5" cy="442.9" r="1.8" fill="#883039"></circle><circle cx="285.2" cy="451.7" r="1.8" fill="#883039"></circle><circle cx="314.8" cy="454.7" r="1.8" fill="#883039"></circle><circle cx="344.4" cy="456" r="1.8" fill="#883039"></circle><circle cx="374.1" cy="456.6" r="1.8" fill="#883039"></circle><circle cx="403.7" cy="457.5" r="1.8" fill="#883039"></circle><circle cx="433.3" cy="457.9" r="1.8" fill="#883039"></circle><circle cx="462.9" cy="457.5" r="1.8" fill="#883039"></circle><circle cx="492.6" cy="456.7" r="1.8" fill="#883039"></circle><circle cx="522.2" cy="456.2" r="1.8" fill="#883039"></circle><circle cx="551.8" cy="456" r="1.8" fill="#883039"></circle><circle cx="581.5" cy="455" r="1.8" fill="#883039"></circle><circle cx="611.1" cy="452.9" r="1.8" fill="#883039"></circle></g></g><g><path fill="none" stroke-linecap="butt" stroke-linejoin="round" stroke="#fff" stroke-width="2.5" d="M48.1 301.2L77.8 295.2L107.4 292.1L137 293.7L166.6 300.6L196.3 314.5L225.9 327.9L255.5 335.5L285.2 341.6L314.8 348.5L344.4 355.8L374.1 361.1L403.7 363.9L433.3 366.4L462.9 369.5L492.6 373.8L522.2 378.3L551.8 378.8L581.5 370.7L611.1 359.6"></path><polyline points="48.10,301.20 77.80,295.20 107.40,292.10 137.00,293.70 166.60,300.60 196.30,314.50 225.90,327.90 255.50,335.50 285.20,341.60 314.80,348.50 344.40,355.80 374.10,361.10 403.70,363.90 433.30,366.40 462.90,369.50 492.60,373.80 522.20,378.30 551.80,378.80 581.50,370.70 611.10,359.60" stroke-linejoin="round" stroke-width="1.5" stroke="#18470F" fill="none" stroke-linecap="butt"></polyline><g><circle cx="48.1" cy="301.2" r="1.8" fill="#18470F"></circle><circle cx="77.8" cy="295.2" r="1.8" fill="#18470F"></circle><circle cx="107.4" cy="292.1" r="1.8" fill="#18470F"></circle><circle cx="137" cy="293.7" r="1.8" fill="#18470F"></circle><circle cx="166.6" cy="300.6" r="1.8" fill="#18470F"></circle><circle cx="196.3" cy="314.5" r="1.8" fill="#18470F"></circle><circle cx="225.9" cy="327.9" r="1.8" fill="#18470F"></circle><circle cx="255.5" cy="335.5" r="1.8" fill="#18470F"></circle><circle cx="285.2" cy="341.6" r="1.8" fill="#18470F"></circle><circle cx="314.8" cy="348.5" r="1.8" fill="#18470F"></circle><circle cx="344.4" cy="355.8" r="1.8" fill="#18470F"></circle><circle cx="374.1" cy="361.1" r="1.8" fill="#18470F"></circle><circle cx="403.7" cy="363.9" r="1.8" fill="#18470F"></circle><circle cx="433.3" cy="366.4" r="1.8" fill="#18470F"></circle><circle cx="462.9" cy="369.5" r="1.8" fill="#18470F"></circle><circle cx="492.6" cy="373.8" r="1.8" fill="#18470F"></circle><circle cx="522.2" cy="378.3" r="1.8" fill="#18470F"></circle><circle cx="551.8" cy="378.8" r="1.8" fill="#18470F"></circle><circle cx="581.5" cy="370.7" r="1.8" fill="#18470F"></circle><circle cx="611.1" cy="359.6" r="1.8" fill="#18470F"></circle></g></g><g><path fill="none" stroke-linecap="butt" stroke-linejoin="round" stroke="#fff" stroke-width="2.5" d="M48.1 106.8L77.8 115.2L107.4 123.1L137 134.3L166.6 143.4L196.3 153.6L225.9 161.9L255.5 170.3L285.2 192.3L314.8 207.7L344.4 223.1L374.1 223.9L403.7 226.1L433.3 222.1L462.9 215L492.6 209.9L522.2 204.1L551.8 198.2L581.5 181.6L611.1 164.8"></path><polyline points="48.10,106.80 77.80,115.20 107.40,123.10 137.00,134.30 166.60,143.40 196.30,153.60 225.90,161.90 255.50,170.30 285.20,192.30 314.80,207.70 344.40,223.10 374.10,223.90 403.70,226.10 433.30,222.10 462.90,215.00 492.60,209.90 522.20,204.10 551.80,198.20 581.50,181.60 611.10,164.80" stroke-linejoin="round" stroke-width="1.5" stroke="#CF0A66" fill="none" stroke-linecap="butt"></polyline><g><circle cx="48.1" cy="106.8" r="1.8" fill="#CF0A66"></circle><circle cx="77.8" cy="115.2" r="1.8" fill="#CF0A66"></circle><circle cx="107.4" cy="123.1" r="1.8" fill="#CF0A66"></circle><circle cx="137" cy="134.3" r="1.8" fill="#CF0A66"></circle><circle cx="166.6" cy="143.4" r="1.8" fill="#CF0A66"></circle><circle cx="196.3" cy="153.6" r="1.8" fill="#CF0A66"></circle><circle cx="225.9" cy="161.9" r="1.8" fill="#CF0A66"></circle><circle cx="255.5" cy="170.3" r="1.8" fill="#CF0A66"></circle><circle cx="285.2" cy="192.3" r="1.8" fill="#CF0A66"></circle><circle cx="314.8" cy="207.7" r="1.8" fill="#CF0A66"></circle><circle cx="344.4" cy="223.1" r="1.8" fill="#CF0A66"></circle><circle cx="374.1" cy="223.9" r="1.8" fill="#CF0A66"></circle><circle cx="403.7" cy="226.1" r="1.8" fill="#CF0A66"></circle><circle cx="433.3" cy="222.1" r="1.8" fill="#CF0A66"></circle><circle cx="462.9" cy="215" r="1.8" fill="#CF0A66"></circle><circle cx="492.6" cy="209.9" r="1.8" fill="#CF0A66"></circle><circle cx="522.2" cy="204.1" r="1.8" fill="#CF0A66"></circle><circle cx="551.8" cy="198.2" r="1.8" fill="#CF0A66"></circle><circle cx="581.5" cy="181.6" r="1.8" fill="#CF0A66"></circle><circle cx="611.1" cy="164.8" r="1.8" fill="#CF0A66"></circle></g></g><g><path fill="none" stroke-linecap="butt" stroke-linejoin="round" stroke="#fff" stroke-width="2.5" d="M48.1 465.7L77.8 465.9L107.4 465.8L137 465.8L166.6 465.9L196.3 466L225.9 466L255.5 465.9L285.2 465.7L314.8 465.6L344.4 466L374.1 466.1L403.7 466.4L433.3 466.5L462.9 466.6L492.6 466.6L522.2 466.7L551.8 466.8L581.5 466.4L611.1 466"></path><polyline points="48.10,465.70 77.80,465.90 107.40,465.80 137.00,465.80 166.60,465.90 196.30,466.00 225.90,466.00 255.50,465.90 285.20,465.70 314.80,465.60 344.40,466.00 374.10,466.10 403.70,466.40 433.30,466.50 462.90,466.60 492.60,466.60 522.20,466.70 551.80,466.80 581.50,466.40 611.10,466.00" stroke-linejoin="round" stroke-width="1.5" stroke="#286BBB" fill="none" stroke-linecap="butt"></polyline><g><circle cx="48.1" cy="465.7" r="1.8" fill="#286BBB"></circle><circle cx="77.8" cy="465.9" r="1.8" fill="#286BBB"></circle><circle cx="107.4" cy="465.8" r="1.8" fill="#286BBB"></circle><circle cx="137" cy="465.8" r="1.8" fill="#286BBB"></circle><circle cx="166.6" cy="465.9" r="1.8" fill="#286BBB"></circle><circle cx="196.3" cy="466" r="1.8" fill="#286BBB"></circle><circle cx="225.9" cy="466" r="1.8" fill="#286BBB"></circle><circle cx="255.5" cy="465.9" r="1.8" fill="#286BBB"></circle><circle cx="285.2" cy="465.7" r="1.8" fill="#286BBB"></circle><circle cx="314.8" cy="465.6" r="1.8" fill="#286BBB"></circle><circle cx="344.4" cy="466" r="1.8" fill="#286BBB"></circle><circle cx="374.1" cy="466.1" r="1.8" fill="#286BBB"></circle><circle cx="403.7" cy="466.4" r="1.8" fill="#286BBB"></circle><circle cx="433.3" cy="466.5" r="1.8" fill="#286BBB"></circle><circle cx="462.9" cy="466.6" r="1.8" fill="#286BBB"></circle><circle cx="492.6" cy="466.6" r="1.8" fill="#286BBB"></circle><circle cx="522.2" cy="466.7" r="1.8" fill="#286BBB"></circle><circle cx="551.8" cy="466.8" r="1.8" fill="#286BBB"></circle><circle cx="581.5" cy="466.4" r="1.8" fill="#286BBB"></circle><circle cx="611.1" cy="466" r="1.8" fill="#286BBB"></circle></g></g></g></g></g></g><g class="SourcesFooter" style="fill:#5b5b5b"><text x="16.0" y="544.5" style="font-size:13.5px;line-height:1.2"><tspan x="16" y="544.5"><tspan style="font-weight:700">Data source:</tspan> Food and Agriculture Organization of the United Nations (via World Bank)</tspan></text><text x="16.0" y="562.7" style="font-size:13.5px;line-height:1.2"><tspan x="16" y="562.7"><tspan style="font-weight:700">Note:</tspan> Countries and regions with rates below 2.5% are coded as &quot;2.5%&quot; in the FAO dataset.</tspan></text><text font-size="13.50" x="16.0" y="580.9"><tspan x="16" y="580.8950000000001"><a target="_blank" style="fill: #5b5b5b;  text-decoration: underline;" href="https://ourworldindata.org/hunger-and-undernourishment">OurWorldInData.org/hunger-and-undernourishment</a> | <a target="_blank" style="fill: #5b5b5b;  text-decoration: underline;" href="https://creativecommons.org/licenses/by/4.0/">CC BY</a></tspan></text></g></svg>