<?xml version="1.0" encoding="utf-8" standalone="no"?>
<!DOCTYPE svg PUBLIC "-//W3C//DTD SVG 1.1//EN"
  "http://www.w3.org/Graphics/SVG/1.1/DTD/svg11.dtd">
<svg xmlns:xlink="http://www.w3.org/1999/xlink" width="864pt" height="432pt" viewBox="0 0 864 432" xmlns="http://www.w3.org/2000/svg" version="1.1">
 <metadata>
  <rdf:RDF xmlns:dc="http://purl.org/dc/elements/1.1/" xmlns:cc="http://creativecommons.org/ns#" xmlns:rdf="http://www.w3.org/1999/02/22-rdf-syntax-ns#">
   <cc:Work>
    <dc:type rdf:resource="http://purl.org/dc/dcmitype/StillImage"/>
    <dc:date>2024-01-25T22:20:20.772997</dc:date>
    <dc:format>image/svg+xml</dc:format>
    <dc:creator>
     <cc:Agent>
      <dc:title>Matplotlib v3.7.2, https://matplotlib.org/</dc:title>
     </cc:Agent>
    </dc:creator>
   </cc:Work>
  </rdf:RDF>
 </metadata>
 <defs>
  <style type="text/css">*{stroke-linejoin: round; stroke-linecap: butt}</style>
 </defs>
 <g id="figure_1">
  <g id="patch_1">
   <path d="M 0 432 
L 864 432 
L 864 0 
L 0 0 
L 0 432 
z
" style="fill: none"/>
  </g>
  <g id="axes_1">
   <g id="patch_2">
    <path d="M 60.05 371.304 
L 853.2 371.304 
L 853.2 10.8 
L 60.05 10.8 
L 60.05 371.304 
z
" style="fill: none"/>
   </g>
   <g id="matplotlib.axis_1">
    <g id="xtick_1">
     <g id="line2d_1">
      <path d="M 138.595466 371.304 
L 138.595466 10.8 
" clip-path="url(#p6fa667bc8e)" style="fill: none; stroke-dasharray: 1.85,0.8; stroke-dashoffset: 0; stroke: #808080; stroke-width: 0.5"/>
     </g>
     <g id="line2d_2">
      <defs>
       <path id="m7ac11436cc" d="M 0 0 
L 0 3.5 
" style="stroke: #ffffff; stroke-width: 0.8"/>
      </defs>
      <g>
       <use xlink:href="#m7ac11436cc" x="138.595466" y="371.304" style="fill: #ffffff; stroke: #ffffff; stroke-width: 0.8"/>
      </g>
     </g>
     <g id="text_1">
      <!-- 1992 -->
      <g style="fill: #ffffff" transform="translate(125.870466 385.902438) scale(0.1 -0.1)">
       <defs>
        <path id="DejaVuSans-31" d="M 794 531 
L 1825 531 
L 1825 4091 
L 703 3866 
L 703 4441 
L 1819 4666 
L 2450 4666 
L 2450 531 
L 3481 531 
L 3481 0 
L 794 0 
L 794 531 
z
" transform="scale(0.015625)"/>
        <path id="DejaVuSans-39" d="M 703 97 
L 703 672 
Q 941 559 1184 500 
Q 1428 441 1663 441 
Q 2288 441 2617 861 
Q 2947 1281 2994 2138 
Q 2813 1869 2534 1725 
Q 2256 1581 1919 1581 
Q 1219 1581 811 2004 
Q 403 2428 403 3163 
Q 403 3881 828 4315 
Q 1253 4750 1959 4750 
Q 2769 4750 3195 4129 
Q 3622 3509 3622 2328 
Q 3622 1225 3098 567 
Q 2575 -91 1691 -91 
Q 1453 -91 1209 -44 
Q 966 3 703 97 
z
M 1959 2075 
Q 2384 2075 2632 2365 
Q 2881 2656 2881 3163 
Q 2881 3666 2632 3958 
Q 2384 4250 1959 4250 
Q 1534 4250 1286 3958 
Q 1038 3666 1038 3163 
Q 1038 2656 1286 2365 
Q 1534 2075 1959 2075 
z
" transform="scale(0.015625)"/>
        <path id="DejaVuSans-32" d="M 1228 531 
L 3431 531 
L 3431 0 
L 469 0 
L 469 531 
Q 828 903 1448 1529 
Q 2069 2156 2228 2338 
Q 2531 2678 2651 2914 
Q 2772 3150 2772 3378 
Q 2772 3750 2511 3984 
Q 2250 4219 1831 4219 
Q 1534 4219 1204 4116 
Q 875 4013 500 3803 
L 500 4441 
Q 881 4594 1212 4672 
Q 1544 4750 1819 4750 
Q 2544 4750 2975 4387 
Q 3406 4025 3406 3419 
Q 3406 3131 3298 2873 
Q 3191 2616 2906 2266 
Q 2828 2175 2409 1742 
Q 1991 1309 1228 531 
z
" transform="scale(0.015625)"/>
       </defs>
       <use xlink:href="#DejaVuSans-31"/>
       <use xlink:href="#DejaVuSans-39" x="63.623047"/>
       <use xlink:href="#DejaVuSans-39" x="127.246094"/>
       <use xlink:href="#DejaVuSans-32" x="190.869141"/>
      </g>
     </g>
    </g>
    <g id="xtick_2">
     <g id="line2d_3">
      <path d="M 223.640062 371.304 
L 223.640062 10.8 
" clip-path="url(#p6fa667bc8e)" style="fill: none; stroke-dasharray: 1.85,0.8; stroke-dashoffset: 0; stroke: #808080; stroke-width: 0.5"/>
     </g>
     <g id="line2d_4">
      <g>
       <use xlink:href="#m7ac11436cc" x="223.640062" y="371.304" style="fill: #ffffff; stroke: #ffffff; stroke-width: 0.8"/>
      </g>
     </g>
     <g id="text_2">
      <!-- 1996 -->
      <g style="fill: #ffffff" transform="translate(210.915062 385.902438) scale(0.1 -0.1)">
       <defs>
        <path id="DejaVuSans-36" d="M 2113 2584 
Q 1688 2584 1439 2293 
Q 1191 2003 1191 1497 
Q 1191 994 1439 701 
Q 1688 409 2113 409 
Q 2538 409 2786 701 
Q 3034 994 3034 1497 
Q 3034 2003 2786 2293 
Q 2538 2584 2113 2584 
z
M 3366 4563 
L 3366 3988 
Q 3128 4100 2886 4159 
Q 2644 4219 2406 4219 
Q 1781 4219 1451 3797 
Q 1122 3375 1075 2522 
Q 1259 2794 1537 2939 
Q 1816 3084 2150 3084 
Q 2853 3084 3261 2657 
Q 3669 2231 3669 1497 
Q 3669 778 3244 343 
Q 2819 -91 2113 -91 
Q 1303 -91 875 529 
Q 447 1150 447 2328 
Q 447 3434 972 4092 
Q 1497 4750 2381 4750 
Q 2619 4750 2861 4703 
Q 3103 4656 3366 4563 
z
" transform="scale(0.015625)"/>
       </defs>
       <use xlink:href="#DejaVuSans-31"/>
       <use xlink:href="#DejaVuSans-39" x="63.623047"/>
       <use xlink:href="#DejaVuSans-39" x="127.246094"/>
       <use xlink:href="#DejaVuSans-36" x="190.869141"/>
      </g>
     </g>
    </g>
    <g id="xtick_3">
     <g id="line2d_5">
      <path d="M 308.684657 371.304 
L 308.684657 10.8 
" clip-path="url(#p6fa667bc8e)" style="fill: none; stroke-dasharray: 1.85,0.8; stroke-dashoffset: 0; stroke: #808080; stroke-width: 0.5"/>
     </g>
     <g id="line2d_6">
      <g>
       <use xlink:href="#m7ac11436cc" x="308.684657" y="371.304" style="fill: #ffffff; stroke: #ffffff; stroke-width: 0.8"/>
      </g>
     </g>
     <g id="text_3">
      <!-- 2000 -->
      <g style="fill: #ffffff" transform="translate(295.959657 385.902438) scale(0.1 -0.1)">
       <defs>
        <path id="DejaVuSans-30" d="M 2034 4250 
Q 1547 4250 1301 3770 
Q 1056 3291 1056 2328 
Q 1056 1369 1301 889 
Q 1547 409 2034 409 
Q 2525 409 2770 889 
Q 3016 1369 3016 2328 
Q 3016 3291 2770 3770 
Q 2525 4250 2034 4250 
z
M 2034 4750 
Q 2819 4750 3233 4129 
Q 3647 3509 3647 2328 
Q 3647 1150 3233 529 
Q 2819 -91 2034 -91 
Q 1250 -91 836 529 
Q 422 1150 422 2328 
Q 422 3509 836 4129 
Q 1250 4750 2034 4750 
z
" transform="scale(0.015625)"/>
       </defs>
       <use xlink:href="#DejaVuSans-32"/>
       <use xlink:href="#DejaVuSans-30" x="63.623047"/>
       <use xlink:href="#DejaVuSans-30" x="127.246094"/>
       <use xlink:href="#DejaVuSans-30" x="190.869141"/>
      </g>
     </g>
    </g>
    <g id="xtick_4">
     <g id="line2d_7">
      <path d="M 393.729253 371.304 
L 393.729253 10.8 
" clip-path="url(#p6fa667bc8e)" style="fill: none; stroke-dasharray: 1.85,0.8; stroke-dashoffset: 0; stroke: #808080; stroke-width: 0.5"/>
     </g>
     <g id="line2d_8">
      <g>
       <use xlink:href="#m7ac11436cc" x="393.729253" y="371.304" style="fill: #ffffff; stroke: #ffffff; stroke-width: 0.8"/>
      </g>
     </g>
     <g id="text_4">
      <!-- 2004 -->
      <g style="fill: #ffffff" transform="translate(381.004253 385.902438) scale(0.1 -0.1)">
       <defs>
        <path id="DejaVuSans-34" d="M 2419 4116 
L 825 1625 
L 2419 1625 
L 2419 4116 
z
M 2253 4666 
L 3047 4666 
L 3047 1625 
L 3713 1625 
L 3713 1100 
L 3047 1100 
L 3047 0 
L 2419 0 
L 2419 1100 
L 313 1100 
L 313 1709 
L 2253 4666 
z
" transform="scale(0.015625)"/>
       </defs>
       <use xlink:href="#DejaVuSans-32"/>
       <use xlink:href="#DejaVuSans-30" x="63.623047"/>
       <use xlink:href="#DejaVuSans-30" x="127.246094"/>
       <use xlink:href="#DejaVuSans-34" x="190.869141"/>
      </g>
     </g>
    </g>
    <g id="xtick_5">
     <g id="line2d_9">
      <path d="M 478.773849 371.304 
L 478.773849 10.8 
" clip-path="url(#p6fa667bc8e)" style="fill: none; stroke-dasharray: 1.85,0.8; stroke-dashoffset: 0; stroke: #808080; stroke-width: 0.5"/>
     </g>
     <g id="line2d_10">
      <g>
       <use xlink:href="#m7ac11436cc" x="478.773849" y="371.304" style="fill: #ffffff; stroke: #ffffff; stroke-width: 0.8"/>
      </g>
     </g>
     <g id="text_5">
      <!-- 2008 -->
      <g style="fill: #ffffff" transform="translate(466.048849 385.902438) scale(0.1 -0.1)">
       <defs>
        <path id="DejaVuSans-38" d="M 2034 2216 
Q 1584 2216 1326 1975 
Q 1069 1734 1069 1313 
Q 1069 891 1326 650 
Q 1584 409 2034 409 
Q 2484 409 2743 651 
Q 3003 894 3003 1313 
Q 3003 1734 2745 1975 
Q 2488 2216 2034 2216 
z
M 1403 2484 
Q 997 2584 770 2862 
Q 544 3141 544 3541 
Q 544 4100 942 4425 
Q 1341 4750 2034 4750 
Q 2731 4750 3128 4425 
Q 3525 4100 3525 3541 
Q 3525 3141 3298 2862 
Q 3072 2584 2669 2484 
Q 3125 2378 3379 2068 
Q 3634 1759 3634 1313 
Q 3634 634 3220 271 
Q 2806 -91 2034 -91 
Q 1263 -91 848 271 
Q 434 634 434 1313 
Q 434 1759 690 2068 
Q 947 2378 1403 2484 
z
M 1172 3481 
Q 1172 3119 1398 2916 
Q 1625 2713 2034 2713 
Q 2441 2713 2670 2916 
Q 2900 3119 2900 3481 
Q 2900 3844 2670 4047 
Q 2441 4250 2034 4250 
Q 1625 4250 1398 4047 
Q 1172 3844 1172 3481 
z
" transform="scale(0.015625)"/>
       </defs>
       <use xlink:href="#DejaVuSans-32"/>
       <use xlink:href="#DejaVuSans-30" x="63.623047"/>
       <use xlink:href="#DejaVuSans-30" x="127.246094"/>
       <use xlink:href="#DejaVuSans-38" x="190.869141"/>
      </g>
     </g>
    </g>
    <g id="xtick_6">
     <g id="line2d_11">
      <path d="M 563.818445 371.304 
L 563.818445 10.8 
" clip-path="url(#p6fa667bc8e)" style="fill: none; stroke-dasharray: 1.85,0.8; stroke-dashoffset: 0; stroke: #808080; stroke-width: 0.5"/>
     </g>
     <g id="line2d_12">
      <g>
       <use xlink:href="#m7ac11436cc" x="563.818445" y="371.304" style="fill: #ffffff; stroke: #ffffff; stroke-width: 0.8"/>
      </g>
     </g>
     <g id="text_6">
      <!-- 2012 -->
      <g style="fill: #ffffff" transform="translate(551.093445 385.902438) scale(0.1 -0.1)">
       <use xlink:href="#DejaVuSans-32"/>
       <use xlink:href="#DejaVuSans-30" x="63.623047"/>
       <use xlink:href="#DejaVuSans-31" x="127.246094"/>
       <use xlink:href="#DejaVuSans-32" x="190.869141"/>
      </g>
     </g>
    </g>
    <g id="xtick_7">
     <g id="line2d_13">
      <path d="M 648.863041 371.304 
L 648.863041 10.8 
" clip-path="url(#p6fa667bc8e)" style="fill: none; stroke-dasharray: 1.85,0.8; stroke-dashoffset: 0; stroke: #808080; stroke-width: 0.5"/>
     </g>
     <g id="line2d_14">
      <g>
       <use xlink:href="#m7ac11436cc" x="648.863041" y="371.304" style="fill: #ffffff; stroke: #ffffff; stroke-width: 0.8"/>
      </g>
     </g>
     <g id="text_7">
      <!-- 2016 -->
      <g style="fill: #ffffff" transform="translate(636.138041 385.902438) scale(0.1 -0.1)">
       <use xlink:href="#DejaVuSans-32"/>
       <use xlink:href="#DejaVuSans-30" x="63.623047"/>
       <use xlink:href="#DejaVuSans-31" x="127.246094"/>
       <use xlink:href="#DejaVuSans-36" x="190.869141"/>
      </g>
     </g>
    </g>
    <g id="xtick_8">
     <g id="line2d_15">
      <path d="M 733.907637 371.304 
L 733.907637 10.8 
" clip-path="url(#p6fa667bc8e)" style="fill: none; stroke-dasharray: 1.85,0.8; stroke-dashoffset: 0; stroke: #808080; stroke-width: 0.5"/>
     </g>
     <g id="line2d_16">
      <g>
       <use xlink:href="#m7ac11436cc" x="733.907637" y="371.304" style="fill: #ffffff; stroke: #ffffff; stroke-width: 0.8"/>
      </g>
     </g>
     <g id="text_8">
      <!-- 2020 -->
      <g style="fill: #ffffff" transform="translate(721.182637 385.902438) scale(0.1 -0.1)">
       <use xlink:href="#DejaVuSans-32"/>
       <use xlink:href="#DejaVuSans-30" x="63.623047"/>
       <use xlink:href="#DejaVuSans-32" x="127.246094"/>
       <use xlink:href="#DejaVuSans-30" x="190.869141"/>
      </g>
     </g>
    </g>
    <g id="xtick_9">
     <g id="line2d_17">
      <path d="M 818.952233 371.304 
L 818.952233 10.8 
" clip-path="url(#p6fa667bc8e)" style="fill: none; stroke-dasharray: 1.85,0.8; stroke-dashoffset: 0; stroke: #808080; stroke-width: 0.5"/>
     </g>
     <g id="line2d_18">
      <g>
       <use xlink:href="#m7ac11436cc" x="818.952233" y="371.304" style="fill: #ffffff; stroke: #ffffff; stroke-width: 0.8"/>
      </g>
     </g>
     <g id="text_9">
      <!-- 2024 -->
      <g style="fill: #ffffff" transform="translate(806.227233 385.902438) scale(0.1 -0.1)">
       <use xlink:href="#DejaVuSans-32"/>
       <use xlink:href="#DejaVuSans-30" x="63.623047"/>
       <use xlink:href="#DejaVuSans-32" x="127.246094"/>
       <use xlink:href="#DejaVuSans-34" x="190.869141"/>
      </g>
     </g>
    </g>
    <g id="text_10">
     <!-- Jahr -->
     <g style="fill: #d3d3d3" transform="translate(444.909063 401.10025) scale(0.12 -0.12)">
      <defs>
       <path id="DejaVuSans-4a" d="M 628 4666 
L 1259 4666 
L 1259 325 
Q 1259 -519 939 -900 
Q 619 -1281 -91 -1281 
L -331 -1281 
L -331 -750 
L -134 -750 
Q 284 -750 456 -515 
Q 628 -281 628 325 
L 628 4666 
z
" transform="scale(0.015625)"/>
       <path id="DejaVuSans-61" d="M 2194 1759 
Q 1497 1759 1228 1600 
Q 959 1441 959 1056 
Q 959 750 1161 570 
Q 1363 391 1709 391 
Q 2188 391 2477 730 
Q 2766 1069 2766 1631 
L 2766 1759 
L 2194 1759 
z
M 3341 1997 
L 3341 0 
L 2766 0 
L 2766 531 
Q 2569 213 2275 61 
Q 1981 -91 1556 -91 
Q 1019 -91 701 211 
Q 384 513 384 1019 
Q 384 1609 779 1909 
Q 1175 2209 1959 2209 
L 2766 2209 
L 2766 2266 
Q 2766 2663 2505 2880 
Q 2244 3097 1772 3097 
Q 1472 3097 1187 3025 
Q 903 2953 641 2809 
L 641 3341 
Q 956 3463 1253 3523 
Q 1550 3584 1831 3584 
Q 2591 3584 2966 3190 
Q 3341 2797 3341 1997 
z
" transform="scale(0.015625)"/>
       <path id="DejaVuSans-68" d="M 3513 2113 
L 3513 0 
L 2938 0 
L 2938 2094 
Q 2938 2591 2744 2837 
Q 2550 3084 2163 3084 
Q 1697 3084 1428 2787 
Q 1159 2491 1159 1978 
L 1159 0 
L 581 0 
L 581 4863 
L 1159 4863 
L 1159 2956 
Q 1366 3272 1645 3428 
Q 1925 3584 2291 3584 
Q 2894 3584 3203 3211 
Q 3513 2838 3513 2113 
z
" transform="scale(0.015625)"/>
       <path id="DejaVuSans-72" d="M 2631 2963 
Q 2534 3019 2420 3045 
Q 2306 3072 2169 3072 
Q 1681 3072 1420 2755 
Q 1159 2438 1159 1844 
L 1159 0 
L 581 0 
L 581 3500 
L 1159 3500 
L 1159 2956 
Q 1341 3275 1631 3429 
Q 1922 3584 2338 3584 
Q 2397 3584 2469 3576 
Q 2541 3569 2628 3553 
L 2631 2963 
z
" transform="scale(0.015625)"/>
      </defs>
      <use xlink:href="#DejaVuSans-4a"/>
      <use xlink:href="#DejaVuSans-61" x="29.492188"/>
      <use xlink:href="#DejaVuSans-68" x="90.771484"/>
      <use xlink:href="#DejaVuSans-72" x="154.150391"/>
     </g>
    </g>
   </g>
   <g id="matplotlib.axis_2">
    <g id="ytick_1">
     <g id="line2d_19">
      <path d="M 60.05 368.332046 
L 853.2 368.332046 
" clip-path="url(#p6fa667bc8e)" style="fill: none; stroke-dasharray: 1.85,0.8; stroke-dashoffset: 0; stroke: #808080; stroke-width: 0.5"/>
     </g>
     <g id="line2d_20">
      <defs>
       <path id="mc4eb209699" d="M 0 0 
L -3.5 0 
" style="stroke: #ffffff; stroke-width: 0.8"/>
      </defs>
      <g>
       <use xlink:href="#mc4eb209699" x="60.05" y="368.332046" style="fill: #ffffff; stroke: #ffffff; stroke-width: 0.8"/>
      </g>
     </g>
     <g id="text_11">
      <!-- 0 -->
      <g style="fill: #ffffff" transform="translate(46.6875 372.131265) scale(0.1 -0.1)">
       <use xlink:href="#DejaVuSans-30"/>
      </g>
     </g>
    </g>
    <g id="ytick_2">
     <g id="line2d_21">
      <path d="M 60.05 312.90673 
L 853.2 312.90673 
" clip-path="url(#p6fa667bc8e)" style="fill: none; stroke-dasharray: 1.85,0.8; stroke-dashoffset: 0; stroke: #808080; stroke-width: 0.5"/>
     </g>
     <g id="line2d_22">
      <g>
       <use xlink:href="#mc4eb209699" x="60.05" y="312.90673" style="fill: #ffffff; stroke: #ffffff; stroke-width: 0.8"/>
      </g>
     </g>
     <g id="text_12">
      <!-- 200 -->
      <g style="fill: #ffffff" transform="translate(33.9625 316.705948) scale(0.1 -0.1)">
       <use xlink:href="#DejaVuSans-32"/>
       <use xlink:href="#DejaVuSans-30" x="63.623047"/>
       <use xlink:href="#DejaVuSans-30" x="127.246094"/>
      </g>
     </g>
    </g>
    <g id="ytick_3">
     <g id="line2d_23">
      <path d="M 60.05 257.481413 
L 853.2 257.481413 
" clip-path="url(#p6fa667bc8e)" style="fill: none; stroke-dasharray: 1.85,0.8; stroke-dashoffset: 0; stroke: #808080; stroke-width: 0.5"/>
     </g>
     <g id="line2d_24">
      <g>
       <use xlink:href="#mc4eb209699" x="60.05" y="257.481413" style="fill: #ffffff; stroke: #ffffff; stroke-width: 0.8"/>
      </g>
     </g>
     <g id="text_13">
      <!-- 400 -->
      <g style="fill: #ffffff" transform="translate(33.9625 261.280632) scale(0.1 -0.1)">
       <use xlink:href="#DejaVuSans-34"/>
       <use xlink:href="#DejaVuSans-30" x="63.623047"/>
       <use xlink:href="#DejaVuSans-30" x="127.246094"/>
      </g>
     </g>
    </g>
    <g id="ytick_4">
     <g id="line2d_25">
      <path d="M 60.05 202.056097 
L 853.2 202.056097 
" clip-path="url(#p6fa667bc8e)" style="fill: none; stroke-dasharray: 1.85,0.8; stroke-dashoffset: 0; stroke: #808080; stroke-width: 0.5"/>
     </g>
     <g id="line2d_26">
      <g>
       <use xlink:href="#mc4eb209699" x="60.05" y="202.056097" style="fill: #ffffff; stroke: #ffffff; stroke-width: 0.8"/>
      </g>
     </g>
     <g id="text_14">
      <!-- 600 -->
      <g style="fill: #ffffff" transform="translate(33.9625 205.855316) scale(0.1 -0.1)">
       <use xlink:href="#DejaVuSans-36"/>
       <use xlink:href="#DejaVuSans-30" x="63.623047"/>
       <use xlink:href="#DejaVuSans-30" x="127.246094"/>
      </g>
     </g>
    </g>
    <g id="ytick_5">
     <g id="line2d_27">
      <path d="M 60.05 146.630781 
L 853.2 146.630781 
" clip-path="url(#p6fa667bc8e)" style="fill: none; stroke-dasharray: 1.85,0.8; stroke-dashoffset: 0; stroke: #808080; stroke-width: 0.5"/>
     </g>
     <g id="line2d_28">
      <g>
       <use xlink:href="#mc4eb209699" x="60.05" y="146.630781" style="fill: #ffffff; stroke: #ffffff; stroke-width: 0.8"/>
      </g>
     </g>
     <g id="text_15">
      <!-- 800 -->
      <g style="fill: #ffffff" transform="translate(33.9625 150.43) scale(0.1 -0.1)">
       <use xlink:href="#DejaVuSans-38"/>
       <use xlink:href="#DejaVuSans-30" x="63.623047"/>
       <use xlink:href="#DejaVuSans-30" x="127.246094"/>
      </g>
     </g>
    </g>
    <g id="ytick_6">
     <g id="line2d_29">
      <path d="M 60.05 91.205465 
L 853.2 91.205465 
" clip-path="url(#p6fa667bc8e)" style="fill: none; stroke-dasharray: 1.85,0.8; stroke-dashoffset: 0; stroke: #808080; stroke-width: 0.5"/>
     </g>
     <g id="line2d_30">
      <g>
       <use xlink:href="#mc4eb209699" x="60.05" y="91.205465" style="fill: #ffffff; stroke: #ffffff; stroke-width: 0.8"/>
      </g>
     </g>
     <g id="text_16">
      <!-- 1000 -->
      <g style="fill: #ffffff" transform="translate(27.6 95.004683) scale(0.1 -0.1)">
       <use xlink:href="#DejaVuSans-31"/>
       <use xlink:href="#DejaVuSans-30" x="63.623047"/>
       <use xlink:href="#DejaVuSans-30" x="127.246094"/>
       <use xlink:href="#DejaVuSans-30" x="190.869141"/>
      </g>
     </g>
    </g>
    <g id="ytick_7">
     <g id="line2d_31">
      <path d="M 60.05 35.780148 
L 853.2 35.780148 
" clip-path="url(#p6fa667bc8e)" style="fill: none; stroke-dasharray: 1.85,0.8; stroke-dashoffset: 0; stroke: #808080; stroke-width: 0.5"/>
     </g>
     <g id="line2d_32">
      <g>
       <use xlink:href="#mc4eb209699" x="60.05" y="35.780148" style="fill: #ffffff; stroke: #ffffff; stroke-width: 0.8"/>
      </g>
     </g>
     <g id="text_17">
      <!-- 1200 -->
      <g style="fill: #ffffff" transform="translate(27.6 39.579367) scale(0.1 -0.1)">
       <use xlink:href="#DejaVuSans-31"/>
       <use xlink:href="#DejaVuSans-32" x="63.623047"/>
       <use xlink:href="#DejaVuSans-30" x="127.246094"/>
       <use xlink:href="#DejaVuSans-30" x="190.869141"/>
      </g>
     </g>
    </g>
    <g id="text_18">
     <!-- Index (1990: 100) -->
     <g style="fill: #d3d3d3" transform="translate(21.104375 244.811063) rotate(-90) scale(0.12 -0.12)">
      <defs>
       <path id="DejaVuSans-49" d="M 628 4666 
L 1259 4666 
L 1259 0 
L 628 0 
L 628 4666 
z
" transform="scale(0.015625)"/>
       <path id="DejaVuSans-6e" d="M 3513 2113 
L 3513 0 
L 2938 0 
L 2938 2094 
Q 2938 2591 2744 2837 
Q 2550 3084 2163 3084 
Q 1697 3084 1428 2787 
Q 1159 2491 1159 1978 
L 1159 0 
L 581 0 
L 581 3500 
L 1159 3500 
L 1159 2956 
Q 1366 3272 1645 3428 
Q 1925 3584 2291 3584 
Q 2894 3584 3203 3211 
Q 3513 2838 3513 2113 
z
" transform="scale(0.015625)"/>
       <path id="DejaVuSans-64" d="M 2906 2969 
L 2906 4863 
L 3481 4863 
L 3481 0 
L 2906 0 
L 2906 525 
Q 2725 213 2448 61 
Q 2172 -91 1784 -91 
Q 1150 -91 751 415 
Q 353 922 353 1747 
Q 353 2572 751 3078 
Q 1150 3584 1784 3584 
Q 2172 3584 2448 3432 
Q 2725 3281 2906 2969 
z
M 947 1747 
Q 947 1113 1208 752 
Q 1469 391 1925 391 
Q 2381 391 2643 752 
Q 2906 1113 2906 1747 
Q 2906 2381 2643 2742 
Q 2381 3103 1925 3103 
Q 1469 3103 1208 2742 
Q 947 2381 947 1747 
z
" transform="scale(0.015625)"/>
       <path id="DejaVuSans-65" d="M 3597 1894 
L 3597 1613 
L 953 1613 
Q 991 1019 1311 708 
Q 1631 397 2203 397 
Q 2534 397 2845 478 
Q 3156 559 3463 722 
L 3463 178 
Q 3153 47 2828 -22 
Q 2503 -91 2169 -91 
Q 1331 -91 842 396 
Q 353 884 353 1716 
Q 353 2575 817 3079 
Q 1281 3584 2069 3584 
Q 2775 3584 3186 3129 
Q 3597 2675 3597 1894 
z
M 3022 2063 
Q 3016 2534 2758 2815 
Q 2500 3097 2075 3097 
Q 1594 3097 1305 2825 
Q 1016 2553 972 2059 
L 3022 2063 
z
" transform="scale(0.015625)"/>
       <path id="DejaVuSans-78" d="M 3513 3500 
L 2247 1797 
L 3578 0 
L 2900 0 
L 1881 1375 
L 863 0 
L 184 0 
L 1544 1831 
L 300 3500 
L 978 3500 
L 1906 2253 
L 2834 3500 
L 3513 3500 
z
" transform="scale(0.015625)"/>
       <path id="DejaVuSans-20" transform="scale(0.015625)"/>
       <path id="DejaVuSans-28" d="M 1984 4856 
Q 1566 4138 1362 3434 
Q 1159 2731 1159 2009 
Q 1159 1288 1364 580 
Q 1569 -128 1984 -844 
L 1484 -844 
Q 1016 -109 783 600 
Q 550 1309 550 2009 
Q 550 2706 781 3412 
Q 1013 4119 1484 4856 
L 1984 4856 
z
" transform="scale(0.015625)"/>
       <path id="DejaVuSans-3a" d="M 750 794 
L 1409 794 
L 1409 0 
L 750 0 
L 750 794 
z
M 750 3309 
L 1409 3309 
L 1409 2516 
L 750 2516 
L 750 3309 
z
" transform="scale(0.015625)"/>
       <path id="DejaVuSans-29" d="M 513 4856 
L 1013 4856 
Q 1481 4119 1714 3412 
Q 1947 2706 1947 2009 
Q 1947 1309 1714 600 
Q 1481 -109 1013 -844 
L 513 -844 
Q 928 -128 1133 580 
Q 1338 1288 1338 2009 
Q 1338 2731 1133 3434 
Q 928 4138 513 4856 
z
" transform="scale(0.015625)"/>
      </defs>
      <use xlink:href="#DejaVuSans-49"/>
      <use xlink:href="#DejaVuSans-6e" x="29.492188"/>
      <use xlink:href="#DejaVuSans-64" x="92.871094"/>
      <use xlink:href="#DejaVuSans-65" x="156.347656"/>
      <use xlink:href="#DejaVuSans-78" x="216.121094"/>
      <use xlink:href="#DejaVuSans-20" x="275.300781"/>
      <use xlink:href="#DejaVuSans-28" x="307.087891"/>
      <use xlink:href="#DejaVuSans-31" x="346.101562"/>
      <use xlink:href="#DejaVuSans-39" x="409.724609"/>
      <use xlink:href="#DejaVuSans-39" x="473.347656"/>
      <use xlink:href="#DejaVuSans-30" x="536.970703"/>
      <use xlink:href="#DejaVuSans-3a" x="600.59375"/>
      <use xlink:href="#DejaVuSans-20" x="634.285156"/>
      <use xlink:href="#DejaVuSans-31" x="666.072266"/>
      <use xlink:href="#DejaVuSans-30" x="729.695312"/>
      <use xlink:href="#DejaVuSans-30" x="793.318359"/>
      <use xlink:href="#DejaVuSans-29" x="856.941406"/>
     </g>
    </g>
   </g>
   <g id="line2d_33">
    <path d="M 96.102273 340.619388 
L 97.906778 340.696866 
L 99.536654 337.571763 
L 103.087455 336.228752 
L 104.891961 338.062482 
L 108.442762 333.697674 
L 110.247267 332.716241 
L 111.993563 336.202925 
L 113.798068 338.062482 
L 115.544364 339.224709 
L 117.348869 339.663776 
L 119.153375 339.663776 
L 120.783251 340.102842 
L 122.587756 339.379672 
L 124.334052 340.913815 
L 126.138557 342.347231 
L 129.689358 342.134968 
L 131.493864 341.169691 
L 133.240159 340.676925 
L 135.044665 340.501026 
L 136.79096 342.489563 
L 138.595466 343.137862 
L 140.399971 342.454726 
L 142.088057 342.18653 
L 143.892562 342.392934 
L 145.638858 342.332622 
L 147.443363 341.429075 
L 149.189659 338.724733 
L 150.994165 338.886577 
L 152.79867 339.986104 
L 154.544966 341.827211 
L 156.349471 343.006542 
L 159.900272 341.806628 
L 161.704778 342.416193 
L 163.334653 343.116768 
L 165.139159 345.44525 
L 166.885455 347.252521 
L 168.68996 346.566966 
L 170.436256 345.753131 
L 172.240761 345.475114 
L 174.045266 346.562523 
L 175.791562 349.037332 
L 177.596068 349.206401 
L 181.146869 347.162084 
L 184.58125 345.919086 
L 186.385755 346.291689 
L 188.132051 343.209084 
L 189.936556 340.648277 
L 191.682852 339.662489 
L 193.487358 340.101664 
L 195.291863 338.987666 
L 197.038159 338.505208 
L 198.842664 335.488324 
L 200.58896 333.412946 
L 202.393465 333.148632 
L 204.197971 334.704531 
L 205.827846 334.12787 
L 207.632352 334.41823 
L 209.378648 335.862904 
L 211.183153 333.331152 
L 212.929449 332.291228 
L 214.733954 332.716647 
L 216.538459 334.236222 
L 218.284755 335.41191 
L 220.089261 333.40218 
L 221.835556 334.145013 
L 223.640062 337.814298 
L 225.444567 338.521105 
L 227.132653 338.30223 
L 228.937158 337.941113 
L 230.683454 337.184472 
L 232.487959 342.821317 
L 234.234255 345.090117 
L 236.03876 344.692714 
L 237.843266 345.662555 
L 239.589561 345.368223 
L 241.394067 342.378151 
L 243.140363 341.802161 
L 244.944868 339.896383 
L 246.749373 340.138196 
L 248.379249 339.979426 
L 250.183755 340.341024 
L 251.93005 338.888569 
L 253.734556 337.740659 
L 255.480851 339.639555 
L 257.285357 341.971974 
L 259.089862 343.679919 
L 260.836158 344.30801 
L 262.640663 345.856691 
L 264.386959 347.696513 
L 266.191464 348.561699 
L 267.99597 348.838175 
L 269.625846 347.86396 
L 271.430351 347.24346 
L 274.981152 348.924923 
L 276.727448 348.9358 
L 278.531953 349.354515 
L 280.336459 349.039994 
L 282.082754 349.757808 
L 283.88726 349.895753 
L 285.633556 351.043383 
L 287.438061 351.55607 
L 289.242566 351.779242 
L 290.872442 352.183093 
L 292.676948 351.18441 
L 294.423243 350.637054 
L 296.227749 351.671357 
L 297.974044 349.128921 
L 299.77855 349.040399 
L 301.583055 347.834407 
L 303.329351 348.143639 
L 305.133856 348.102788 
L 306.880152 347.656331 
L 308.684657 346.73122 
L 310.489163 347.162627 
L 312.177249 347.950173 
L 313.981754 348.628387 
L 315.72805 347.419506 
L 317.532555 347.806397 
L 321.083356 346.575715 
L 322.887862 345.34834 
L 324.634157 346.139343 
L 326.438663 347.296445 
L 328.184958 346.631056 
L 329.989464 347.396556 
L 333.423845 347.922536 
L 335.228351 348.81507 
L 336.974646 348.593916 
L 338.779152 349.465293 
L 340.525447 350.445828 
L 342.329953 351.152939 
L 344.134458 351.606476 
L 345.880754 352.195993 
L 347.685259 351.529205 
L 353.040566 350.040521 
L 354.670442 349.501335 
L 356.474947 349.721825 
L 358.221243 349.622818 
L 360.025748 348.995222 
L 361.772044 349.725184 
L 363.576549 350.959578 
L 365.381055 351.006243 
L 367.12735 350.921445 
L 368.931856 349.810107 
L 370.678151 349.670363 
L 372.482657 348.998538 
L 374.287162 348.625605 
L 375.917038 348.935493 
L 377.721544 349.730072 
L 379.467839 348.989299 
L 386.627651 347.365937 
L 391.924748 342.53505 
L 393.729253 339.964291 
L 395.533759 336.095492 
L 397.221845 333.183535 
L 399.02635 334.042338 
L 400.772646 336.367949 
L 402.577151 336.829699 
L 404.323447 335.333099 
L 406.127952 335.012025 
L 407.932458 334.32121 
L 411.483259 331.660266 
L 413.229554 331.549247 
L 415.03406 331.217543 
L 416.838565 330.292053 
L 418.468441 328.747951 
L 420.272947 328.620201 
L 422.019242 330.352971 
L 423.823748 326.981055 
L 425.570043 326.058506 
L 427.374549 323.909578 
L 429.179054 323.221317 
L 432.729855 318.213126 
L 434.476151 314.711892 
L 436.280656 312.757443 
L 438.085162 310.049881 
L 439.715038 308.307864 
L 441.519543 293.303551 
L 443.265839 273.918091 
L 445.070344 283.716781 
L 446.81664 277.812793 
L 448.621145 278.240254 
L 450.425651 279.032276 
L 452.171946 280.499398 
L 453.976452 285.98338 
L 455.722747 290.063993 
L 457.527253 301.681037 
L 459.331758 301.343537 
L 460.961634 292.590678 
L 462.76614 277.501125 
L 464.512435 278.384321 
L 466.316941 280.302245 
L 468.063236 274.834897 
L 469.867742 280.466649 
L 471.672247 278.461668 
L 473.418543 274.370334 
L 475.223048 286.825267 
L 476.969344 290.65253 
L 478.773849 285.402153 
L 480.578355 275.301027 
L 482.26644 269.523473 
L 484.070946 266.244824 
L 485.817241 270.439483 
L 487.621747 271.190712 
L 489.368043 269.843225 
L 491.172548 278.901569 
L 492.977053 286.618124 
L 494.723349 310.988067 
L 496.527855 324.644365 
L 498.27415 331.955648 
L 500.078656 330.136744 
L 501.883161 329.339471 
L 503.513037 324.155993 
L 505.317542 316.353173 
L 507.063838 314.542779 
L 508.868343 309.575927 
L 510.614639 307.080838 
L 512.419145 295.969543 
L 514.22365 295.748421 
L 515.969946 294.456968 
L 517.774451 290.046809 
L 519.520747 286.596304 
L 521.325252 282.022756 
L 523.129758 287.876775 
L 524.759633 280.856406 
L 526.564139 277.776483 
L 528.310435 288.163994 
L 530.11494 292.166539 
L 531.861236 289.248689 
L 533.665741 282.780818 
L 535.470246 277.779372 
L 537.216542 271.216932 
L 539.021048 269.241085 
L 540.767343 261.105713 
L 542.571849 256.649971 
L 544.376354 252.576203 
L 546.00623 256.999564 
L 547.810735 257.240996 
L 549.557031 263.696877 
L 551.361536 262.113266 
L 553.107832 255.276212 
L 554.912338 262.920008 
L 556.716843 271.095394 
L 558.463139 281.708611 
L 560.267644 279.519858 
L 562.01394 279.77932 
L 563.818445 273.886154 
L 565.622951 269.439449 
L 567.311036 269.096245 
L 569.115542 271.266552 
L 570.861837 275.819229 
L 572.666343 281.309139 
L 574.412638 279.481918 
L 576.217144 280.346836 
L 578.021649 273.583602 
L 579.767945 273.884795 
L 581.57245 277.994503 
L 583.318746 275.004121 
L 585.123251 273.98196 
L 586.927757 273.897771 
L 590.362138 283.735652 
L 592.108434 283.412874 
L 593.912939 286.323796 
L 595.659235 287.420282 
L 597.46374 284.144647 
L 599.268246 284.460731 
L 601.014541 283.948165 
L 602.819047 285.498853 
L 604.565343 283.809011 
L 606.369848 282.912036 
L 608.174353 284.578544 
L 609.804229 290.426433 
L 611.608735 290.150816 
L 613.35503 287.602056 
L 615.159536 288.421902 
L 616.905831 284.998319 
L 618.710337 286.305052 
L 622.261138 289.402038 
L 624.065643 289.69056 
L 625.811939 292.811426 
L 627.616444 300.026931 
L 629.42095 301.213207 
L 631.050826 298.74841 
L 632.855331 297.548587 
L 634.601627 294.588321 
L 636.406132 299.997928 
L 638.152428 304.405855 
L 639.956933 308.265384 
L 641.761439 307.211614 
L 643.507734 307.225193 
L 645.31224 312.100841 
L 648.863041 315.944757 
L 650.667546 314.458917 
L 652.355632 310.297976 
L 654.160138 311.247594 
L 655.906433 313.335226 
L 657.710939 313.951105 
L 659.457234 311.339362 
L 661.26174 312.665909 
L 663.066245 313.011104 
L 664.812541 312.904997 
L 666.617046 304.474016 
L 668.363342 302.020668 
L 670.167847 300.916997 
L 671.972353 298.733859 
L 675.406734 301.744745 
L 677.15303 302.732832 
L 678.957535 301.32466 
L 680.703831 298.215977 
L 682.508336 292.352516 
L 684.312842 291.280099 
L 686.059137 288.580531 
L 687.863643 288.35861 
L 689.609938 288.272513 
L 691.414444 285.555115 
L 693.218949 286.250138 
L 694.848825 288.679215 
L 696.653331 288.066119 
L 698.399626 288.373507 
L 700.204132 286.726564 
L 701.950427 295.104092 
L 703.754933 297.443644 
L 705.559438 297.446959 
L 707.305734 295.469169 
L 709.110239 295.746424 
L 712.66104 298.755066 
L 714.465546 294.521414 
L 716.095422 292.893292 
L 717.899927 292.906199 
L 719.646223 297.83189 
L 721.450728 299.421387 
L 723.197024 298.730542 
L 725.001529 301.445569 
L 726.806035 300.862048 
L 728.55233 300.884917 
L 730.356836 299.682312 
L 732.103131 297.138853 
L 733.907637 297.676029 
L 735.712142 301.699675 
L 737.400228 307.617168 
L 739.204734 309.077566 
L 740.951029 306.947131 
L 742.755535 300.916576 
L 744.50183 293.678241 
L 746.306336 292.085789 
L 748.110841 289.783695 
L 749.857137 289.679297 
L 751.661642 285.519327 
L 753.407938 277.279758 
L 755.212443 274.937806 
L 757.016949 269.094418 
L 758.646825 263.034122 
L 760.45133 259.091186 
L 762.197626 249.233338 
L 764.002131 255.49838 
L 765.748427 257.615053 
L 767.552932 258.560247 
L 769.357438 259.092451 
L 771.103733 253.182088 
L 772.908239 254.357279 
L 774.654534 256.439334 
L 776.45904 253.731309 
L 778.263545 251.847087 
L 779.893421 248.47644 
L 781.697927 249.138884 
L 783.444222 258.268674 
L 785.248728 262.105071 
L 786.995023 279.944098 
L 788.799529 274.719148 
L 790.604034 277.587005 
L 792.35033 278.699099 
L 794.154835 274.027382 
L 795.901131 270.264152 
L 797.705636 262.810382 
L 799.510142 263.639332 
L 801.140018 264.579773 
L 802.944523 265.132177 
L 804.690819 271.762922 
L 806.495324 269.96628 
L 808.24162 269.027185 
L 810.046125 270.53668 
L 811.850631 271.369791 
L 813.596926 275.298531 
L 815.401432 272.390479 
L 817.147727 269.83293 
L 817.147727 269.83293 
" clip-path="url(#p6fa667bc8e)" style="fill: none; stroke: #cc241d; stroke-width: 1.5; stroke-linecap: square"/>
   </g>
   <g id="line2d_34">
    <path d="M 96.102273 340.619388 
L 101.34116 340.619388 
L 103.087455 338.796187 
L 119.153375 338.796187 
L 120.783251 339.525467 
L 152.79867 339.525467 
L 156.349471 342.807229 
L 159.900272 342.807229 
L 161.704778 345.724351 
L 182.951374 345.724351 
L 184.58125 346.818272 
L 186.385755 346.818272 
L 188.132051 345.432639 
L 189.936556 343.828222 
L 191.682852 344.192862 
L 198.842664 344.192862 
L 200.58896 342.005021 
L 202.393465 341.27574 
L 204.197971 340.9111 
L 205.827846 340.36414 
L 207.632352 341.27574 
L 209.378648 340.057842 
L 211.183153 338.599281 
L 212.929449 338.395082 
L 214.733954 338.51906 
L 218.284755 338.453425 
L 220.089261 339.459832 
L 221.835556 339.634859 
L 225.444567 339.685909 
L 227.132653 339.882814 
L 228.937158 339.649445 
L 230.683454 340.473532 
L 232.487959 340.473532 
L 234.234255 340.327676 
L 236.03876 340.36414 
L 237.843266 340.54646 
L 239.589561 340.9111 
L 241.394067 342.296733 
L 243.140363 342.551981 
L 244.944868 342.639495 
L 246.749373 343.098941 
L 248.379249 343.171869 
L 250.183755 342.515517 
L 251.93005 342.274854 
L 253.734556 343.171869 
L 255.480851 342.807229 
L 257.285357 341.399718 
L 259.089862 341.239276 
L 260.836158 341.239276 
L 262.640663 343.828222 
L 264.386959 345.432639 
L 266.191464 345.432639 
L 267.99597 343.944907 
L 269.625846 345.082584 
L 271.430351 345.593081 
L 273.176647 346.249433 
L 274.981152 346.453632 
L 276.727448 346.453632 
L 278.531953 349.224897 
L 280.336459 348.575838 
L 282.082754 348.568545 
L 283.88726 349.297825 
L 301.583055 349.297825 
L 305.133856 350.027106 
L 313.981754 350.027106 
L 315.72805 349.662466 
L 321.083356 349.662466 
L 322.887862 348.532081 
L 326.438663 348.532081 
L 328.184958 345.906671 
L 329.989464 344.922143 
L 331.793969 344.922143 
L 333.423845 344.557502 
L 335.228351 343.90115 
L 336.974646 343.682366 
L 340.525447 343.53651 
L 342.329953 343.682366 
L 344.134458 344.411646 
L 345.880754 344.703358 
L 347.685259 346.8912 
L 349.431555 348.386225 
L 351.23606 347.109984 
L 353.040566 346.563024 
L 354.670442 346.781808 
L 356.474947 347.299597 
L 358.221243 347.452746 
L 361.772044 350.172962 
L 363.576549 350.829314 
L 365.381055 350.501138 
L 367.12735 349.188433 
L 370.678151 349.188433 
L 372.482657 348.875885 
L 374.287162 348.680542 
L 377.721544 350.008874 
L 379.467839 350.12608 
L 381.272345 349.500982 
L 383.01864 349.305639 
L 384.823146 348.543801 
L 386.627651 347.469415 
L 388.373947 346.844318 
L 390.178452 344.959258 
L 391.924748 341.7654 
L 395.533759 335.709767 
L 397.221845 330.093657 
L 399.02635 326.72399 
L 402.577151 321.801347 
L 404.323447 320.375343 
L 406.127952 322.035758 
L 407.932458 325.063575 
L 409.678753 324.08686 
L 411.483259 327.056073 
L 413.229554 327.505362 
L 415.03406 326.884171 
L 416.838565 329.343539 
L 418.468441 328.54068 
L 420.272947 328.286734 
L 422.019242 328.237898 
L 423.823748 328.482077 
L 425.570043 328.560214 
L 427.374549 331.364274 
L 429.179054 333.092171 
L 432.729855 338.693188 
L 434.476151 337.928864 
L 436.280656 335.045601 
L 438.085162 331.197344 
L 439.715038 329.525039 
L 441.519543 327.149404 
L 443.265839 326.965843 
L 445.070344 328.286734 
L 446.81664 326.796546 
L 448.621145 327.759308 
L 450.425651 330.491319 
L 452.171946 333.552115 
L 453.976452 333.170309 
L 455.722747 328.57872 
L 457.527253 327.665188 
L 459.331758 327.487781 
L 462.76614 325.99608 
L 464.512435 325.700765 
L 466.316941 322.277612 
L 468.063236 315.244926 
L 469.867742 313.756768 
L 471.672247 314.690862 
L 473.418543 310.347453 
L 475.223048 300.423721 
L 476.969344 296.199078 
L 478.773849 296.507982 
L 480.578355 264.856076 
L 482.26644 267.864064 
L 484.070946 272.258814 
L 485.817241 263.98959 
L 487.621747 246.549648 
L 489.368043 225.986462 
L 491.172548 241.945135 
L 492.977053 248.366591 
L 494.723349 281.280417 
L 496.527855 294.395898 
L 498.27415 308.087153 
L 500.078656 305.933543 
L 501.883161 309.389644 
L 503.513037 320.5991 
L 507.063838 319.459287 
L 508.868343 313.042878 
L 510.614639 311.725046 
L 512.419145 311.53412 
L 514.22365 314.985653 
L 515.969946 313.122791 
L 517.774451 308.337564 
L 519.520747 305.351607 
L 521.325252 295.299164 
L 523.129758 296.746656 
L 524.759633 295.331523 
L 526.564139 291.784944 
L 528.310435 289.617048 
L 530.11494 292.134075 
L 531.861236 293.317143 
L 533.665741 297.703464 
L 537.216542 293.065091 
L 539.021048 286.226903 
L 540.767343 278.057541 
L 542.571849 265.508187 
L 544.376354 270.153052 
L 546.00623 269.170851 
L 547.810735 272.412997 
L 549.557031 275.011232 
L 551.361536 274.720136 
L 553.107832 274.262678 
L 554.912338 275.376488 
L 556.716843 273.115837 
L 558.463139 275.047771 
L 560.267644 278.816301 
L 562.01394 282.148284 
L 563.818445 278.568037 
L 565.622951 277.196172 
L 567.311036 285.083969 
L 569.115542 287.853204 
L 570.861837 292.618526 
L 572.666343 300.687855 
L 574.412638 301.701974 
L 576.217144 300.176168 
L 578.021649 300.376519 
L 579.767945 304.968217 
L 581.57245 304.724463 
L 583.318746 298.265602 
L 585.123251 297.626765 
L 586.927757 295.150703 
L 588.557633 297.360814 
L 590.362138 300.33892 
L 592.108434 300.417057 
L 593.912939 302.95739 
L 595.659235 308.368884 
L 597.46374 308.369563 
L 599.268246 307.585959 
L 601.014541 306.019672 
L 602.819047 303.890442 
L 604.565343 303.101944 
L 606.369848 304.174661 
L 608.174353 307.781581 
L 609.804229 310.169695 
L 611.608735 311.068422 
L 613.35503 310.83948 
L 615.159536 311.923317 
L 616.905831 314.337546 
L 618.710337 314.184143 
L 622.261138 318.022904 
L 624.065643 319.22907 
L 625.811939 319.351932 
L 627.616444 321.135692 
L 629.42095 316.801739 
L 631.050826 318.489395 
L 632.855331 323.701643 
L 634.601627 320.439292 
L 636.406132 322.311014 
L 638.152428 321.305685 
L 639.956933 322.100612 
L 641.761439 323.287729 
L 643.507734 326.521899 
L 645.31224 327.654195 
L 647.058536 327.590197 
L 648.863041 329.367371 
L 650.667546 329.110151 
L 652.355632 327.904234 
L 654.160138 328.470542 
L 655.906433 328.566465 
L 657.710939 327.325646 
L 659.457234 321.352988 
L 661.26174 316.314695 
L 663.066245 312.634078 
L 664.812541 298.146242 
L 666.617046 287.069719 
L 668.363342 300.410899 
L 670.167847 301.65795 
L 671.972353 305.636324 
L 673.602229 305.370454 
L 675.406734 302.616061 
L 677.15303 309.903285 
L 680.703831 302.132355 
L 682.508336 293.382139 
L 684.312842 291.921684 
L 686.059137 293.034073 
L 687.863643 293.590268 
L 689.609938 291.051071 
L 691.414444 286.701764 
L 693.218949 287.033812 
L 696.653331 295.970363 
L 698.399626 288.566994 
L 700.204132 279.706608 
L 701.950427 277.109358 
L 705.559438 279.192744 
L 707.305734 284.638278 
L 709.110239 289.8958 
L 710.856535 290.923584 
L 712.66104 291.464936 
L 714.465546 294.41426 
L 716.095422 295.644735 
L 717.899927 303.597725 
L 719.646223 303.014561 
L 721.450728 311.718133 
L 723.197024 311.560618 
L 725.001529 317.472546 
L 726.806035 319.500393 
L 728.55233 317.870027 
L 730.356836 317.479988 
L 732.103131 316.943558 
L 733.907637 315.746425 
L 737.400228 317.133005 
L 739.204734 321.205941 
L 740.951029 328.842742 
L 742.755535 328.219607 
L 744.50183 330.648516 
L 746.306336 330.859792 
L 748.110841 330.405317 
L 749.857137 325.983107 
L 751.661642 322.426444 
L 753.407938 309.559481 
L 755.212443 301.970908 
L 757.016949 300.88402 
L 758.646825 298.882009 
L 760.45133 296.973644 
L 762.197626 292.335811 
L 764.002131 271.9555 
L 765.748427 256.607579 
L 767.552932 241.752024 
L 769.357438 231.137695 
L 771.103733 192.770794 
L 772.908239 238.664793 
L 774.654534 235.986615 
L 776.45904 199.313872 
L 778.263545 169.612753 
L 779.893421 110.574769 
L 781.697927 124.228573 
L 783.444222 63.132631 
L 785.248728 56.619338 
L 786.995023 52.096683 
L 788.799529 42.017272 
L 790.604034 27.186545 
L 792.35033 56.995513 
L 794.154835 99.768472 
L 795.901131 56.428293 
L 797.705636 73.312419 
L 799.510142 190.237847 
L 801.140018 225.393639 
L 802.944523 221.982818 
L 804.690819 237.599535 
L 806.495324 267.230686 
L 808.24162 265.481918 
L 810.046125 256.903435 
L 811.850631 245.463541 
L 815.401432 271.980006 
L 817.147727 259.405096 
L 817.147727 259.405096 
" clip-path="url(#p6fa667bc8e)" style="fill: none; stroke: #98971a; stroke-width: 1.5; stroke-linecap: square"/>
   </g>
   <g id="line2d_35">
    <path d="M 96.102273 340.619388 
L 99.536654 343.950882 
L 101.34116 345.983825 
L 103.087455 346.319785 
L 104.891961 347.797712 
L 106.638256 345.271216 
L 108.442762 332.751921 
L 110.247267 322.572578 
L 111.993563 320.449854 
L 113.798068 324.809043 
L 115.544364 331.532457 
L 117.348869 336.664127 
L 119.153375 342.859506 
L 120.783251 342.503802 
L 122.587756 342.798591 
L 124.334052 342.958675 
L 126.138557 344.33828 
L 127.884853 342.651554 
L 129.689358 342.222445 
L 131.493864 341.211761 
L 133.240159 339.008006 
L 135.044665 340.463572 
L 136.79096 344.229953 
L 140.399971 344.420801 
L 142.088057 345.016151 
L 143.892562 343.224699 
L 145.638858 341.950519 
L 147.443363 340.355973 
L 149.189659 341.494826 
L 150.994165 342.198868 
L 152.79867 341.544274 
L 154.544966 341.514266 
L 156.349471 342.986667 
L 158.095767 344.206103 
L 159.900272 345.216774 
L 161.704778 343.977829 
L 163.334653 343.453513 
L 165.139159 343.532576 
L 166.885455 343.802759 
L 170.436256 346.139035 
L 172.240761 346.101826 
L 174.045266 347.022459 
L 175.791562 346.358548 
L 177.596068 348.210159 
L 179.342363 350.428894 
L 181.146869 349.485853 
L 182.951374 350.15171 
L 184.58125 350.15105 
L 188.132051 346.650965 
L 189.936556 345.747136 
L 191.682852 344.40131 
L 193.487358 346.001757 
L 195.291863 347.155692 
L 197.038159 346.479264 
L 198.842664 345.339633 
L 200.58896 347.152091 
L 204.197971 345.528561 
L 205.827846 345.574084 
L 207.632352 343.478083 
L 209.378648 343.671081 
L 212.929449 347.099821 
L 214.733954 346.869733 
L 216.538459 346.29316 
L 218.284755 346.951041 
L 220.089261 346.004601 
L 221.835556 344.254187 
L 223.640062 344.387506 
L 225.444567 344.769118 
L 227.132653 342.176862 
L 228.937158 340.340369 
L 230.683454 342.824345 
L 232.487959 343.803545 
L 234.234255 342.301952 
L 236.03876 341.125368 
L 237.843266 337.856856 
L 239.589561 336.282952 
L 241.394067 337.829192 
L 243.140363 336.596023 
L 244.944868 337.164706 
L 246.749373 340.710003 
L 248.379249 342.506946 
L 250.183755 344.862513 
L 251.93005 342.921622 
L 253.734556 344.825075 
L 255.480851 343.831243 
L 257.285357 343.489023 
L 259.089862 343.797843 
L 260.836158 341.750282 
L 262.640663 342.837721 
L 266.191464 347.853069 
L 267.99597 349.364131 
L 269.625846 350.560353 
L 271.430351 350.099437 
L 273.176647 349.175889 
L 274.981152 351.089087 
L 276.727448 351.796874 
L 278.531953 352.286218 
L 280.336459 350.340698 
L 282.082754 351.304541 
L 283.88726 353.224912 
L 285.633556 354.917455 
L 287.438061 353.561912 
L 289.242566 354.561625 
L 292.676948 347.865672 
L 294.423243 347.642415 
L 296.227749 347.032661 
L 297.974044 343.203093 
L 299.77855 341.136171 
L 301.583055 337.766919 
L 303.329351 339.048929 
L 305.133856 335.538555 
L 306.880152 334.400616 
L 308.684657 334.48749 
L 310.489163 331.322461 
L 312.177249 332.030329 
L 313.981754 337.761697 
L 315.72805 331.619878 
L 317.532555 328.084071 
L 319.278851 330.181944 
L 321.083356 326.571036 
L 322.887862 324.285082 
L 324.634157 327.001997 
L 326.438663 324.918271 
L 328.184958 334.695599 
L 329.989464 334.280637 
L 331.793969 331.499354 
L 333.423845 335.27809 
L 335.228351 333.979476 
L 336.974646 330.784049 
L 338.779152 331.35767 
L 340.525447 335.335104 
L 342.329953 334.351821 
L 344.134458 334.218582 
L 345.880754 340.561982 
L 347.685259 343.106469 
L 349.431555 343.666324 
L 351.23606 341.881742 
L 353.040566 341.205788 
L 354.670442 336.642777 
L 356.474947 334.075386 
L 358.221243 334.598092 
L 360.025748 336.158152 
L 361.772044 334.191084 
L 363.576549 333.18476 
L 365.381055 330.872919 
L 367.12735 331.993016 
L 368.931856 336.313323 
L 370.678151 330.943794 
L 372.482657 327.654284 
L 374.287162 325.206643 
L 375.917038 328.50009 
L 377.721544 335.277489 
L 379.467839 334.380263 
L 381.272345 331.934844 
L 383.01864 330.697366 
L 384.823146 329.094241 
L 386.627651 332.624819 
L 388.373947 329.46716 
L 390.178452 330.110363 
L 391.924748 329.060726 
L 393.729253 327.425704 
L 395.533759 327.672367 
L 397.221845 324.20075 
L 399.02635 324.288711 
L 400.772646 318.701956 
L 402.577151 321.542417 
L 404.323447 317.859886 
L 406.127952 312.582152 
L 407.932458 311.140587 
L 409.678753 302.663673 
L 411.483259 310.569243 
L 413.229554 315.564045 
L 415.03406 310.006615 
L 416.838565 307.965065 
L 418.468441 298.051826 
L 420.272947 298.87683 
L 422.019242 303.258795 
L 423.823748 295.926141 
L 425.570043 292.246868 
L 427.374549 283.896126 
L 429.179054 284.80593 
L 430.92535 290.553069 
L 432.729855 295.120137 
L 434.476151 292.865968 
L 436.280656 284.739313 
L 438.085162 288.04849 
L 439.715038 285.485119 
L 441.519543 275.459767 
L 443.265839 275.23531 
L 445.070344 276.921737 
L 446.81664 270.573275 
L 448.621145 271.286938 
L 450.425651 285.775346 
L 452.171946 290.751633 
L 453.976452 290.138278 
L 455.722747 286.127435 
L 457.527253 296.369836 
L 459.331758 291.792956 
L 460.961634 285.999632 
L 462.76614 278.958023 
L 464.512435 278.921912 
L 466.316941 275.091331 
L 468.063236 267.810833 
L 469.867742 274.175025 
L 471.672247 266.96738 
L 473.418543 259.394749 
L 475.223048 245.895693 
L 476.969344 247.495726 
L 478.773849 246.740211 
L 480.578355 243.266886 
L 482.26644 232.123897 
L 484.070946 223.051518 
L 485.817241 204.792502 
L 487.621747 193.043903 
L 489.368043 191.95497 
L 491.172548 218.077432 
L 492.977053 237.941882 
L 494.723349 273.316234 
L 496.527855 298.732631 
L 498.27415 314.843028 
L 500.078656 311.327235 
L 501.883161 311.675863 
L 505.317542 301.629983 
L 507.063838 292.410967 
L 508.868343 277.783555 
L 510.614639 282.636642 
L 512.419145 272.486501 
L 514.22365 279.192111 
L 515.969946 271.98909 
L 517.774451 266.749965 
L 519.520747 269.584856 
L 521.325252 267.191334 
L 523.129758 270.755418 
L 524.759633 263.340251 
L 526.564139 255.897222 
L 528.310435 267.811891 
L 530.11494 268.981729 
L 531.861236 269.049547 
L 533.665741 266.80918 
L 535.470246 265.427631 
L 537.216542 258.297314 
L 539.021048 255.046206 
L 540.767343 246.914151 
L 542.571849 240.322541 
L 544.376354 230.702432 
L 546.00623 216.602731 
L 547.810735 205.500938 
L 549.557031 216.586684 
L 551.361536 217.32487 
L 553.107832 213.214831 
L 554.912338 222.626898 
L 556.716843 220.503874 
L 558.463139 222.528214 
L 560.267644 221.565542 
L 562.01394 225.276881 
L 563.818445 221.227057 
L 565.622951 210.993527 
L 567.311036 203.682221 
L 569.115542 209.271434 
L 570.861837 222.009785 
L 572.666343 241.726496 
L 574.412638 232.364672 
L 576.217144 218.103893 
L 578.021649 218.287334 
L 581.57245 223.211758 
L 583.318746 223.66433 
L 585.123251 219.757755 
L 586.927757 214.529003 
L 588.557633 223.642324 
L 590.362138 232.390479 
L 592.108434 232.363498 
L 593.912939 231.864326 
L 595.659235 226.027044 
L 597.46374 221.698176 
L 599.268246 220.503702 
L 601.014541 223.598778 
L 602.819047 225.537318 
L 604.565343 221.681972 
L 606.369848 225.832438 
L 608.174353 224.629557 
L 609.804229 225.910155 
L 611.608735 225.731195 
L 613.35503 223.316785 
L 615.159536 220.136524 
L 620.514842 239.133784 
L 622.261138 252.690898 
L 624.065643 263.72266 
L 625.811939 285.277884 
L 627.616444 303.723912 
L 629.42095 291.417321 
L 631.050826 293.700779 
L 632.855331 289.341276 
L 634.601627 282.254456 
L 636.406132 285.652744 
L 638.152428 293.298051 
L 639.956933 305.571551 
L 641.761439 304.915814 
L 643.507734 303.759321 
L 645.31224 308.791279 
L 648.863041 326.021635 
L 650.667546 323.754433 
L 652.355632 315.793094 
L 654.160138 311.121354 
L 655.906433 305.305912 
L 657.710939 302.477397 
L 659.457234 306.806377 
L 661.26174 306.207471 
L 663.066245 305.778832 
L 664.812541 300.448656 
L 666.617046 306.352577 
L 668.363342 295.68368 
L 670.167847 294.77505 
L 671.972353 294.266602 
L 673.602229 298.809583 
L 675.406734 297.063069 
L 677.15303 300.500759 
L 678.957535 305.41454 
L 680.703831 303.301206 
L 682.508336 299.769982 
L 684.312842 294.977444 
L 686.059137 292.364841 
L 687.863643 285.367072 
L 689.609938 283.745805 
L 691.414444 277.375399 
L 693.218949 281.590737 
L 694.848825 280.012518 
L 698.399626 266.753027 
L 700.204132 268.246972 
L 701.950427 269.004535 
L 703.754933 270.823673 
L 705.559438 263.810462 
L 707.305734 261.67089 
L 709.110239 280.888139 
L 710.856535 291.821218 
L 712.66104 289.184924 
L 714.465546 283.323675 
L 716.095422 279.946387 
L 717.899927 273.959988 
L 719.646223 275.394899 
L 721.450728 284.875728 
L 723.197024 283.405306 
L 725.001529 289.616146 
L 726.806035 285.90235 
L 728.55233 289.59882 
L 730.356836 285.564722 
L 732.103131 282.050633 
L 733.907637 283.964439 
L 735.712142 294.801337 
L 737.400228 323.510315 
L 739.204734 332.882884 
L 740.951029 325.523681 
L 742.755535 314.382607 
L 744.50183 311.167333 
L 746.306336 308.809512 
L 748.110841 312.974651 
L 749.857137 313.397158 
L 751.661642 310.171342 
L 753.407938 301.817648 
L 755.212443 295.416927 
L 757.016949 285.99273 
L 758.646825 281.459249 
L 760.45133 281.808172 
L 762.197626 278.053909 
L 764.002131 271.270708 
L 765.748427 270.095011 
L 767.552932 275.132084 
L 769.357438 269.637695 
L 771.103733 257.601938 
L 772.908239 261.529645 
L 774.654534 269.731815 
L 776.45904 255.281923 
L 778.263545 243.868141 
L 779.893421 219.873715 
L 781.697927 228.171069 
L 783.444222 220.304624 
L 785.248728 212.938361 
L 786.995023 229.363142 
L 788.799529 239.410636 
L 790.604034 248.699002 
L 792.35033 244.592249 
L 794.154835 248.262692 
L 795.901131 260.720641 
L 797.705636 257.31598 
L 799.510142 257.90923 
L 801.140018 263.686982 
L 802.944523 258.036642 
L 804.690819 268.320206 
L 806.495324 269.34002 
L 810.046125 255.881513 
L 811.850631 245.972313 
L 813.596926 250.891356 
L 815.401432 259.818613 
L 817.147727 265.952106 
L 817.147727 265.952106 
" clip-path="url(#p6fa667bc8e)" style="fill: none; stroke: #d79921; stroke-width: 1.5; stroke-linecap: square"/>
   </g>
   <g id="patch_3">
    <path d="M 60.05 371.304 
L 60.05 10.8 
" style="fill: none; stroke: #333333; stroke-width: 0.8; stroke-linejoin: miter; stroke-linecap: square"/>
   </g>
   <g id="patch_4">
    <path d="M 853.2 371.304 
L 853.2 10.8 
" style="fill: none; stroke: #333333; stroke-width: 0.8; stroke-linejoin: miter; stroke-linecap: square"/>
   </g>
   <g id="patch_5">
    <path d="M 60.05 371.304 
L 853.2 371.304 
" style="fill: none; stroke: #333333; stroke-width: 0.8; stroke-linejoin: miter; stroke-linecap: square"/>
   </g>
   <g id="patch_6">
    <path d="M 60.05 10.8 
L 853.2 10.8 
" style="fill: none; stroke: #333333; stroke-width: 0.8; stroke-linejoin: miter; stroke-linecap: square"/>
   </g>
   <g id="text_19">
    <!-- Quelle: Federal Reserve Bank of Saint Louis -->
    <g style="fill: #a9a9a9" transform="translate(679.04875 423.71585) scale(0.08 -0.08)">
     <defs>
      <path id="DejaVuSans-51" d="M 2522 4238 
Q 1834 4238 1429 3725 
Q 1025 3213 1025 2328 
Q 1025 1447 1429 934 
Q 1834 422 2522 422 
Q 3209 422 3611 934 
Q 4013 1447 4013 2328 
Q 4013 3213 3611 3725 
Q 3209 4238 2522 4238 
z
M 3406 84 
L 4238 -825 
L 3475 -825 
L 2784 -78 
Q 2681 -84 2626 -87 
Q 2572 -91 2522 -91 
Q 1538 -91 948 567 
Q 359 1225 359 2328 
Q 359 3434 948 4092 
Q 1538 4750 2522 4750 
Q 3503 4750 4090 4092 
Q 4678 3434 4678 2328 
Q 4678 1516 4351 937 
Q 4025 359 3406 84 
z
" transform="scale(0.015625)"/>
      <path id="DejaVuSans-75" d="M 544 1381 
L 544 3500 
L 1119 3500 
L 1119 1403 
Q 1119 906 1312 657 
Q 1506 409 1894 409 
Q 2359 409 2629 706 
Q 2900 1003 2900 1516 
L 2900 3500 
L 3475 3500 
L 3475 0 
L 2900 0 
L 2900 538 
Q 2691 219 2414 64 
Q 2138 -91 1772 -91 
Q 1169 -91 856 284 
Q 544 659 544 1381 
z
M 1991 3584 
L 1991 3584 
z
" transform="scale(0.015625)"/>
      <path id="DejaVuSans-6c" d="M 603 4863 
L 1178 4863 
L 1178 0 
L 603 0 
L 603 4863 
z
" transform="scale(0.015625)"/>
      <path id="DejaVuSans-46" d="M 628 4666 
L 3309 4666 
L 3309 4134 
L 1259 4134 
L 1259 2759 
L 3109 2759 
L 3109 2228 
L 1259 2228 
L 1259 0 
L 628 0 
L 628 4666 
z
" transform="scale(0.015625)"/>
      <path id="DejaVuSans-52" d="M 2841 2188 
Q 3044 2119 3236 1894 
Q 3428 1669 3622 1275 
L 4263 0 
L 3584 0 
L 2988 1197 
Q 2756 1666 2539 1819 
Q 2322 1972 1947 1972 
L 1259 1972 
L 1259 0 
L 628 0 
L 628 4666 
L 2053 4666 
Q 2853 4666 3247 4331 
Q 3641 3997 3641 3322 
Q 3641 2881 3436 2590 
Q 3231 2300 2841 2188 
z
M 1259 4147 
L 1259 2491 
L 2053 2491 
Q 2509 2491 2742 2702 
Q 2975 2913 2975 3322 
Q 2975 3731 2742 3939 
Q 2509 4147 2053 4147 
L 1259 4147 
z
" transform="scale(0.015625)"/>
      <path id="DejaVuSans-73" d="M 2834 3397 
L 2834 2853 
Q 2591 2978 2328 3040 
Q 2066 3103 1784 3103 
Q 1356 3103 1142 2972 
Q 928 2841 928 2578 
Q 928 2378 1081 2264 
Q 1234 2150 1697 2047 
L 1894 2003 
Q 2506 1872 2764 1633 
Q 3022 1394 3022 966 
Q 3022 478 2636 193 
Q 2250 -91 1575 -91 
Q 1294 -91 989 -36 
Q 684 19 347 128 
L 347 722 
Q 666 556 975 473 
Q 1284 391 1588 391 
Q 1994 391 2212 530 
Q 2431 669 2431 922 
Q 2431 1156 2273 1281 
Q 2116 1406 1581 1522 
L 1381 1569 
Q 847 1681 609 1914 
Q 372 2147 372 2553 
Q 372 3047 722 3315 
Q 1072 3584 1716 3584 
Q 2034 3584 2315 3537 
Q 2597 3491 2834 3397 
z
" transform="scale(0.015625)"/>
      <path id="DejaVuSans-76" d="M 191 3500 
L 800 3500 
L 1894 563 
L 2988 3500 
L 3597 3500 
L 2284 0 
L 1503 0 
L 191 3500 
z
" transform="scale(0.015625)"/>
      <path id="DejaVuSans-42" d="M 1259 2228 
L 1259 519 
L 2272 519 
Q 2781 519 3026 730 
Q 3272 941 3272 1375 
Q 3272 1813 3026 2020 
Q 2781 2228 2272 2228 
L 1259 2228 
z
M 1259 4147 
L 1259 2741 
L 2194 2741 
Q 2656 2741 2882 2914 
Q 3109 3088 3109 3444 
Q 3109 3797 2882 3972 
Q 2656 4147 2194 4147 
L 1259 4147 
z
M 628 4666 
L 2241 4666 
Q 2963 4666 3353 4366 
Q 3744 4066 3744 3513 
Q 3744 3084 3544 2831 
Q 3344 2578 2956 2516 
Q 3422 2416 3680 2098 
Q 3938 1781 3938 1306 
Q 3938 681 3513 340 
Q 3088 0 2303 0 
L 628 0 
L 628 4666 
z
" transform="scale(0.015625)"/>
      <path id="DejaVuSans-6b" d="M 581 4863 
L 1159 4863 
L 1159 1991 
L 2875 3500 
L 3609 3500 
L 1753 1863 
L 3688 0 
L 2938 0 
L 1159 1709 
L 1159 0 
L 581 0 
L 581 4863 
z
" transform="scale(0.015625)"/>
      <path id="DejaVuSans-6f" d="M 1959 3097 
Q 1497 3097 1228 2736 
Q 959 2375 959 1747 
Q 959 1119 1226 758 
Q 1494 397 1959 397 
Q 2419 397 2687 759 
Q 2956 1122 2956 1747 
Q 2956 2369 2687 2733 
Q 2419 3097 1959 3097 
z
M 1959 3584 
Q 2709 3584 3137 3096 
Q 3566 2609 3566 1747 
Q 3566 888 3137 398 
Q 2709 -91 1959 -91 
Q 1206 -91 779 398 
Q 353 888 353 1747 
Q 353 2609 779 3096 
Q 1206 3584 1959 3584 
z
" transform="scale(0.015625)"/>
      <path id="DejaVuSans-66" d="M 2375 4863 
L 2375 4384 
L 1825 4384 
Q 1516 4384 1395 4259 
Q 1275 4134 1275 3809 
L 1275 3500 
L 2222 3500 
L 2222 3053 
L 1275 3053 
L 1275 0 
L 697 0 
L 697 3053 
L 147 3053 
L 147 3500 
L 697 3500 
L 697 3744 
Q 697 4328 969 4595 
Q 1241 4863 1831 4863 
L 2375 4863 
z
" transform="scale(0.015625)"/>
      <path id="DejaVuSans-53" d="M 3425 4513 
L 3425 3897 
Q 3066 4069 2747 4153 
Q 2428 4238 2131 4238 
Q 1616 4238 1336 4038 
Q 1056 3838 1056 3469 
Q 1056 3159 1242 3001 
Q 1428 2844 1947 2747 
L 2328 2669 
Q 3034 2534 3370 2195 
Q 3706 1856 3706 1288 
Q 3706 609 3251 259 
Q 2797 -91 1919 -91 
Q 1588 -91 1214 -16 
Q 841 59 441 206 
L 441 856 
Q 825 641 1194 531 
Q 1563 422 1919 422 
Q 2459 422 2753 634 
Q 3047 847 3047 1241 
Q 3047 1584 2836 1778 
Q 2625 1972 2144 2069 
L 1759 2144 
Q 1053 2284 737 2584 
Q 422 2884 422 3419 
Q 422 4038 858 4394 
Q 1294 4750 2059 4750 
Q 2388 4750 2728 4690 
Q 3069 4631 3425 4513 
z
" transform="scale(0.015625)"/>
      <path id="DejaVuSans-69" d="M 603 3500 
L 1178 3500 
L 1178 0 
L 603 0 
L 603 3500 
z
M 603 4863 
L 1178 4863 
L 1178 4134 
L 603 4134 
L 603 4863 
z
" transform="scale(0.015625)"/>
      <path id="DejaVuSans-74" d="M 1172 4494 
L 1172 3500 
L 2356 3500 
L 2356 3053 
L 1172 3053 
L 1172 1153 
Q 1172 725 1289 603 
Q 1406 481 1766 481 
L 2356 481 
L 2356 0 
L 1766 0 
Q 1100 0 847 248 
Q 594 497 594 1153 
L 594 3053 
L 172 3053 
L 172 3500 
L 594 3500 
L 594 4494 
L 1172 4494 
z
" transform="scale(0.015625)"/>
      <path id="DejaVuSans-4c" d="M 628 4666 
L 1259 4666 
L 1259 531 
L 3531 531 
L 3531 0 
L 628 0 
L 628 4666 
z
" transform="scale(0.015625)"/>
     </defs>
     <use xlink:href="#DejaVuSans-51"/>
     <use xlink:href="#DejaVuSans-75" x="78.710938"/>
     <use xlink:href="#DejaVuSans-65" x="142.089844"/>
     <use xlink:href="#DejaVuSans-6c" x="203.613281"/>
     <use xlink:href="#DejaVuSans-6c" x="231.396484"/>
     <use xlink:href="#DejaVuSans-65" x="259.179688"/>
     <use xlink:href="#DejaVuSans-3a" x="320.703125"/>
     <use xlink:href="#DejaVuSans-20" x="354.394531"/>
     <use xlink:href="#DejaVuSans-46" x="386.181641"/>
     <use xlink:href="#DejaVuSans-65" x="438.201172"/>
     <use xlink:href="#DejaVuSans-64" x="499.724609"/>
     <use xlink:href="#DejaVuSans-65" x="563.201172"/>
     <use xlink:href="#DejaVuSans-72" x="624.724609"/>
     <use xlink:href="#DejaVuSans-61" x="665.837891"/>
     <use xlink:href="#DejaVuSans-6c" x="727.117188"/>
     <use xlink:href="#DejaVuSans-20" x="754.900391"/>
     <use xlink:href="#DejaVuSans-52" x="786.6875"/>
     <use xlink:href="#DejaVuSans-65" x="851.669922"/>
     <use xlink:href="#DejaVuSans-73" x="913.193359"/>
     <use xlink:href="#DejaVuSans-65" x="965.292969"/>
     <use xlink:href="#DejaVuSans-72" x="1026.816406"/>
     <use xlink:href="#DejaVuSans-76" x="1067.929688"/>
     <use xlink:href="#DejaVuSans-65" x="1127.109375"/>
     <use xlink:href="#DejaVuSans-20" x="1188.632812"/>
     <use xlink:href="#DejaVuSans-42" x="1220.419922"/>
     <use xlink:href="#DejaVuSans-61" x="1289.023438"/>
     <use xlink:href="#DejaVuSans-6e" x="1350.302734"/>
     <use xlink:href="#DejaVuSans-6b" x="1413.681641"/>
     <use xlink:href="#DejaVuSans-20" x="1471.591797"/>
     <use xlink:href="#DejaVuSans-6f" x="1503.378906"/>
     <use xlink:href="#DejaVuSans-66" x="1564.560547"/>
     <use xlink:href="#DejaVuSans-20" x="1599.765625"/>
     <use xlink:href="#DejaVuSans-53" x="1631.552734"/>
     <use xlink:href="#DejaVuSans-61" x="1695.029297"/>
     <use xlink:href="#DejaVuSans-69" x="1756.308594"/>
     <use xlink:href="#DejaVuSans-6e" x="1784.091797"/>
     <use xlink:href="#DejaVuSans-74" x="1847.470703"/>
     <use xlink:href="#DejaVuSans-20" x="1886.679688"/>
     <use xlink:href="#DejaVuSans-4c" x="1918.466797"/>
     <use xlink:href="#DejaVuSans-6f" x="1972.429688"/>
     <use xlink:href="#DejaVuSans-75" x="2033.611328"/>
     <use xlink:href="#DejaVuSans-69" x="2096.990234"/>
     <use xlink:href="#DejaVuSans-73" x="2124.773438"/>
    </g>
   </g>
   <g id="legend_1">
    <g id="patch_7">
     <path d="M 67.05 62.834375 
L 151.403125 62.834375 
Q 153.403125 62.834375 153.403125 60.834375 
L 153.403125 17.8 
Q 153.403125 15.8 151.403125 15.8 
L 67.05 15.8 
Q 65.05 15.8 65.05 17.8 
L 65.05 60.834375 
Q 65.05 62.834375 67.05 62.834375 
z
" style="opacity: 0.7; stroke: #cccccc; stroke-linejoin: miter"/>
    </g>
    <g id="line2d_36">
     <path d="M 69.05 23.898438 
L 79.05 23.898438 
L 89.05 23.898438 
" style="fill: none; stroke: #cc241d; stroke-width: 1.5; stroke-linecap: square"/>
    </g>
    <g id="text_20">
     <!-- Kupfer -->
     <g style="fill: #e6e6e6" transform="translate(97.05 27.398438) scale(0.1 -0.1)">
      <defs>
       <path id="DejaVuSans-4b" d="M 628 4666 
L 1259 4666 
L 1259 2694 
L 3353 4666 
L 4166 4666 
L 1850 2491 
L 4331 0 
L 3500 0 
L 1259 2247 
L 1259 0 
L 628 0 
L 628 4666 
z
" transform="scale(0.015625)"/>
       <path id="DejaVuSans-70" d="M 1159 525 
L 1159 -1331 
L 581 -1331 
L 581 3500 
L 1159 3500 
L 1159 2969 
Q 1341 3281 1617 3432 
Q 1894 3584 2278 3584 
Q 2916 3584 3314 3078 
Q 3713 2572 3713 1747 
Q 3713 922 3314 415 
Q 2916 -91 2278 -91 
Q 1894 -91 1617 61 
Q 1341 213 1159 525 
z
M 3116 1747 
Q 3116 2381 2855 2742 
Q 2594 3103 2138 3103 
Q 1681 3103 1420 2742 
Q 1159 2381 1159 1747 
Q 1159 1113 1420 752 
Q 1681 391 2138 391 
Q 2594 391 2855 752 
Q 3116 1113 3116 1747 
z
" transform="scale(0.015625)"/>
      </defs>
      <use xlink:href="#DejaVuSans-4b"/>
      <use xlink:href="#DejaVuSans-75" x="60.576172"/>
      <use xlink:href="#DejaVuSans-70" x="123.955078"/>
      <use xlink:href="#DejaVuSans-66" x="187.431641"/>
      <use xlink:href="#DejaVuSans-65" x="222.636719"/>
      <use xlink:href="#DejaVuSans-72" x="284.160156"/>
     </g>
    </g>
    <g id="line2d_37">
     <path d="M 69.05 38.576563 
L 79.05 38.576563 
L 89.05 38.576563 
" style="fill: none; stroke: #98971a; stroke-width: 1.5; stroke-linecap: square"/>
    </g>
    <g id="text_21">
     <!-- Steinkohle -->
     <g style="fill: #e6e6e6" transform="translate(97.05 42.076563) scale(0.1 -0.1)">
      <use xlink:href="#DejaVuSans-53"/>
      <use xlink:href="#DejaVuSans-74" x="63.476562"/>
      <use xlink:href="#DejaVuSans-65" x="102.685547"/>
      <use xlink:href="#DejaVuSans-69" x="164.208984"/>
      <use xlink:href="#DejaVuSans-6e" x="191.992188"/>
      <use xlink:href="#DejaVuSans-6b" x="255.371094"/>
      <use xlink:href="#DejaVuSans-6f" x="309.65625"/>
      <use xlink:href="#DejaVuSans-68" x="370.837891"/>
      <use xlink:href="#DejaVuSans-6c" x="434.216797"/>
      <use xlink:href="#DejaVuSans-65" x="462"/>
     </g>
    </g>
    <g id="line2d_38">
     <path d="M 69.05 53.254687 
L 79.05 53.254687 
L 89.05 53.254687 
" style="fill: none; stroke: #d79921; stroke-width: 1.5; stroke-linecap: square"/>
    </g>
    <g id="text_22">
     <!-- Erdl -->
     <g style="fill: #e6e6e6" transform="translate(97.05 56.754687) scale(0.1 -0.1)">
      <defs>
       <path id="DejaVuSans-45" d="M 628 4666 
L 3578 4666 
L 3578 4134 
L 1259 4134 
L 1259 2753 
L 3481 2753 
L 3481 2222 
L 1259 2222 
L 1259 531 
L 3634 531 
L 3634 0 
L 628 0 
L 628 4666 
z
" transform="scale(0.015625)"/>
       <path id="DejaVuSans-f6" d="M 1959 3097 
Q 1497 3097 1228 2736 
Q 959 2375 959 1747 
Q 959 1119 1226 758 
Q 1494 397 1959 397 
Q 2419 397 2687 759 
Q 2956 1122 2956 1747 
Q 2956 2369 2687 2733 
Q 2419 3097 1959 3097 
z
M 1959 3584 
Q 2709 3584 3137 3096 
Q 3566 2609 3566 1747 
Q 3566 888 3137 398 
Q 2709 -91 1959 -91 
Q 1206 -91 779 398 
Q 353 888 353 1747 
Q 353 2609 779 3096 
Q 1206 3584 1959 3584 
z
M 2254 4850 
L 2888 4850 
L 2888 4219 
L 2254 4219 
L 2254 4850 
z
M 1032 4850 
L 1666 4850 
L 1666 4219 
L 1032 4219 
L 1032 4850 
z
" transform="scale(0.015625)"/>
      </defs>
      <use xlink:href="#DejaVuSans-45"/>
      <use xlink:href="#DejaVuSans-72" x="63.183594"/>
      <use xlink:href="#DejaVuSans-64" x="102.546875"/>
      <use xlink:href="#DejaVuSans-f6" x="166.023438"/>
      <use xlink:href="#DejaVuSans-6c" x="227.205078"/>
     </g>
    </g>
   </g>
  </g>
 </g>
 <defs>
  <clipPath id="p6fa667bc8e">
   <rect x="60.05" y="10.8" width="793.15" height="360.504"/>
  </clipPath>
 </defs>
</svg>
