<?xml version="1.0" encoding="utf-8" standalone="no"?>
<!DOCTYPE svg PUBLIC "-//W3C//DTD SVG 1.1//EN"
  "http://www.w3.org/Graphics/SVG/1.1/DTD/svg11.dtd">
<svg xmlns:xlink="http://www.w3.org/1999/xlink" width="864pt" height="432pt" viewBox="0 0 864 432" xmlns="http://www.w3.org/2000/svg" version="1.1">
 <metadata>
  <rdf:RDF xmlns:dc="http://purl.org/dc/elements/1.1/" xmlns:cc="http://creativecommons.org/ns#" xmlns:rdf="http://www.w3.org/1999/02/22-rdf-syntax-ns#">
   <cc:Work>
    <dc:type rdf:resource="http://purl.org/dc/dcmitype/StillImage"/>
    <dc:date>2026-05-18T11:18:53.283098</dc:date>
    <dc:format>image/svg+xml</dc:format>
    <dc:creator>
     <cc:Agent>
      <dc:title>Matplotlib v3.7.2, https://matplotlib.org/</dc:title>
     </cc:Agent>
    </dc:creator>
   </cc:Work>
  </rdf:RDF>
 </metadata>
 <defs>
  <style type="text/css">*{stroke-linejoin: round; stroke-linecap: butt}</style>
 </defs>
 <g id="figure_1">
  <g id="patch_1">
   <path d="M 0 432 
L 864 432 
L 864 0 
L 0 0 
L 0 432 
z
" style="fill: none"/>
  </g>
  <g id="axes_1">
   <g id="patch_2">
    <path d="M 53.75 371.304 
L 841.564258 371.304 
L 841.564258 11.508665 
L 53.75 11.508665 
L 53.75 371.304 
z
" style="fill: none"/>
   </g>
   <g id="matplotlib.axis_1">
    <g id="xtick_1">
     <g id="line2d_1">
      <path d="M 129.050802 371.304 
L 129.050802 11.508665 
" clip-path="url(#pc5fcdb2e0f)" style="fill: none; stroke-dasharray: 1.85,0.8; stroke-dashoffset: 0; stroke: #808080; stroke-width: 0.5"/>
     </g>
     <g id="line2d_2">
      <defs>
       <path id="m5b790b1af7" d="M 0 0 
L 0 3.5 
" style="stroke: #ffffff; stroke-width: 0.8"/>
      </defs>
      <g>
       <use xlink:href="#m5b790b1af7" x="129.050802" y="371.304" style="fill: #ffffff; stroke: #ffffff; stroke-width: 0.8"/>
      </g>
     </g>
     <g id="text_1">
      <!-- 1992 -->
      <g style="fill: #ffffff" transform="translate(116.325802 385.902437) scale(0.1 -0.1)">
       <defs>
        <path id="DejaVuSans-31" d="M 794 531 
L 1825 531 
L 1825 4091 
L 703 3866 
L 703 4441 
L 1819 4666 
L 2450 4666 
L 2450 531 
L 3481 531 
L 3481 0 
L 794 0 
L 794 531 
z
" transform="scale(0.015625)"/>
        <path id="DejaVuSans-39" d="M 703 97 
L 703 672 
Q 941 559 1184 500 
Q 1428 441 1663 441 
Q 2288 441 2617 861 
Q 2947 1281 2994 2138 
Q 2813 1869 2534 1725 
Q 2256 1581 1919 1581 
Q 1219 1581 811 2004 
Q 403 2428 403 3163 
Q 403 3881 828 4315 
Q 1253 4750 1959 4750 
Q 2769 4750 3195 4129 
Q 3622 3509 3622 2328 
Q 3622 1225 3098 567 
Q 2575 -91 1691 -91 
Q 1453 -91 1209 -44 
Q 966 3 703 97 
z
M 1959 2075 
Q 2384 2075 2632 2365 
Q 2881 2656 2881 3163 
Q 2881 3666 2632 3958 
Q 2384 4250 1959 4250 
Q 1534 4250 1286 3958 
Q 1038 3666 1038 3163 
Q 1038 2656 1286 2365 
Q 1534 2075 1959 2075 
z
" transform="scale(0.015625)"/>
        <path id="DejaVuSans-32" d="M 1228 531 
L 3431 531 
L 3431 0 
L 469 0 
L 469 531 
Q 828 903 1448 1529 
Q 2069 2156 2228 2338 
Q 2531 2678 2651 2914 
Q 2772 3150 2772 3378 
Q 2772 3750 2511 3984 
Q 2250 4219 1831 4219 
Q 1534 4219 1204 4116 
Q 875 4013 500 3803 
L 500 4441 
Q 881 4594 1212 4672 
Q 1544 4750 1819 4750 
Q 2544 4750 2975 4387 
Q 3406 4025 3406 3419 
Q 3406 3131 3298 2873 
Q 3191 2616 2906 2266 
Q 2828 2175 2409 1742 
Q 1991 1309 1228 531 
z
" transform="scale(0.015625)"/>
       </defs>
       <use xlink:href="#DejaVuSans-31"/>
       <use xlink:href="#DejaVuSans-39" x="63.623047"/>
       <use xlink:href="#DejaVuSans-39" x="127.246094"/>
       <use xlink:href="#DejaVuSans-32" x="190.869141"/>
      </g>
     </g>
    </g>
    <g id="xtick_2">
     <g id="line2d_3">
      <path d="M 208.087027 371.304 
L 208.087027 11.508665 
" clip-path="url(#pc5fcdb2e0f)" style="fill: none; stroke-dasharray: 1.85,0.8; stroke-dashoffset: 0; stroke: #808080; stroke-width: 0.5"/>
     </g>
     <g id="line2d_4">
      <g>
       <use xlink:href="#m5b790b1af7" x="208.087027" y="371.304" style="fill: #ffffff; stroke: #ffffff; stroke-width: 0.8"/>
      </g>
     </g>
     <g id="text_2">
      <!-- 1996 -->
      <g style="fill: #ffffff" transform="translate(195.362027 385.902437) scale(0.1 -0.1)">
       <defs>
        <path id="DejaVuSans-36" d="M 2113 2584 
Q 1688 2584 1439 2293 
Q 1191 2003 1191 1497 
Q 1191 994 1439 701 
Q 1688 409 2113 409 
Q 2538 409 2786 701 
Q 3034 994 3034 1497 
Q 3034 2003 2786 2293 
Q 2538 2584 2113 2584 
z
M 3366 4563 
L 3366 3988 
Q 3128 4100 2886 4159 
Q 2644 4219 2406 4219 
Q 1781 4219 1451 3797 
Q 1122 3375 1075 2522 
Q 1259 2794 1537 2939 
Q 1816 3084 2150 3084 
Q 2853 3084 3261 2657 
Q 3669 2231 3669 1497 
Q 3669 778 3244 343 
Q 2819 -91 2113 -91 
Q 1303 -91 875 529 
Q 447 1150 447 2328 
Q 447 3434 972 4092 
Q 1497 4750 2381 4750 
Q 2619 4750 2861 4703 
Q 3103 4656 3366 4563 
z
" transform="scale(0.015625)"/>
       </defs>
       <use xlink:href="#DejaVuSans-31"/>
       <use xlink:href="#DejaVuSans-39" x="63.623047"/>
       <use xlink:href="#DejaVuSans-39" x="127.246094"/>
       <use xlink:href="#DejaVuSans-36" x="190.869141"/>
      </g>
     </g>
    </g>
    <g id="xtick_3">
     <g id="line2d_5">
      <path d="M 287.123251 371.304 
L 287.123251 11.508665 
" clip-path="url(#pc5fcdb2e0f)" style="fill: none; stroke-dasharray: 1.85,0.8; stroke-dashoffset: 0; stroke: #808080; stroke-width: 0.5"/>
     </g>
     <g id="line2d_6">
      <g>
       <use xlink:href="#m5b790b1af7" x="287.123251" y="371.304" style="fill: #ffffff; stroke: #ffffff; stroke-width: 0.8"/>
      </g>
     </g>
     <g id="text_3">
      <!-- 2000 -->
      <g style="fill: #ffffff" transform="translate(274.398251 385.902437) scale(0.1 -0.1)">
       <defs>
        <path id="DejaVuSans-30" d="M 2034 4250 
Q 1547 4250 1301 3770 
Q 1056 3291 1056 2328 
Q 1056 1369 1301 889 
Q 1547 409 2034 409 
Q 2525 409 2770 889 
Q 3016 1369 3016 2328 
Q 3016 3291 2770 3770 
Q 2525 4250 2034 4250 
z
M 2034 4750 
Q 2819 4750 3233 4129 
Q 3647 3509 3647 2328 
Q 3647 1150 3233 529 
Q 2819 -91 2034 -91 
Q 1250 -91 836 529 
Q 422 1150 422 2328 
Q 422 3509 836 4129 
Q 1250 4750 2034 4750 
z
" transform="scale(0.015625)"/>
       </defs>
       <use xlink:href="#DejaVuSans-32"/>
       <use xlink:href="#DejaVuSans-30" x="63.623047"/>
       <use xlink:href="#DejaVuSans-30" x="127.246094"/>
       <use xlink:href="#DejaVuSans-30" x="190.869141"/>
      </g>
     </g>
    </g>
    <g id="xtick_4">
     <g id="line2d_7">
      <path d="M 366.159475 371.304 
L 366.159475 11.508665 
" clip-path="url(#pc5fcdb2e0f)" style="fill: none; stroke-dasharray: 1.85,0.8; stroke-dashoffset: 0; stroke: #808080; stroke-width: 0.5"/>
     </g>
     <g id="line2d_8">
      <g>
       <use xlink:href="#m5b790b1af7" x="366.159475" y="371.304" style="fill: #ffffff; stroke: #ffffff; stroke-width: 0.8"/>
      </g>
     </g>
     <g id="text_4">
      <!-- 2004 -->
      <g style="fill: #ffffff" transform="translate(353.434475 385.902437) scale(0.1 -0.1)">
       <defs>
        <path id="DejaVuSans-34" d="M 2419 4116 
L 825 1625 
L 2419 1625 
L 2419 4116 
z
M 2253 4666 
L 3047 4666 
L 3047 1625 
L 3713 1625 
L 3713 1100 
L 3047 1100 
L 3047 0 
L 2419 0 
L 2419 1100 
L 313 1100 
L 313 1709 
L 2253 4666 
z
" transform="scale(0.015625)"/>
       </defs>
       <use xlink:href="#DejaVuSans-32"/>
       <use xlink:href="#DejaVuSans-30" x="63.623047"/>
       <use xlink:href="#DejaVuSans-30" x="127.246094"/>
       <use xlink:href="#DejaVuSans-34" x="190.869141"/>
      </g>
     </g>
    </g>
    <g id="xtick_5">
     <g id="line2d_9">
      <path d="M 445.1957 371.304 
L 445.1957 11.508665 
" clip-path="url(#pc5fcdb2e0f)" style="fill: none; stroke-dasharray: 1.85,0.8; stroke-dashoffset: 0; stroke: #808080; stroke-width: 0.5"/>
     </g>
     <g id="line2d_10">
      <g>
       <use xlink:href="#m5b790b1af7" x="445.1957" y="371.304" style="fill: #ffffff; stroke: #ffffff; stroke-width: 0.8"/>
      </g>
     </g>
     <g id="text_5">
      <!-- 2008 -->
      <g style="fill: #ffffff" transform="translate(432.4707 385.902437) scale(0.1 -0.1)">
       <defs>
        <path id="DejaVuSans-38" d="M 2034 2216 
Q 1584 2216 1326 1975 
Q 1069 1734 1069 1313 
Q 1069 891 1326 650 
Q 1584 409 2034 409 
Q 2484 409 2743 651 
Q 3003 894 3003 1313 
Q 3003 1734 2745 1975 
Q 2488 2216 2034 2216 
z
M 1403 2484 
Q 997 2584 770 2862 
Q 544 3141 544 3541 
Q 544 4100 942 4425 
Q 1341 4750 2034 4750 
Q 2731 4750 3128 4425 
Q 3525 4100 3525 3541 
Q 3525 3141 3298 2862 
Q 3072 2584 2669 2484 
Q 3125 2378 3379 2068 
Q 3634 1759 3634 1313 
Q 3634 634 3220 271 
Q 2806 -91 2034 -91 
Q 1263 -91 848 271 
Q 434 634 434 1313 
Q 434 1759 690 2068 
Q 947 2378 1403 2484 
z
M 1172 3481 
Q 1172 3119 1398 2916 
Q 1625 2713 2034 2713 
Q 2441 2713 2670 2916 
Q 2900 3119 2900 3481 
Q 2900 3844 2670 4047 
Q 2441 4250 2034 4250 
Q 1625 4250 1398 4047 
Q 1172 3844 1172 3481 
z
" transform="scale(0.015625)"/>
       </defs>
       <use xlink:href="#DejaVuSans-32"/>
       <use xlink:href="#DejaVuSans-30" x="63.623047"/>
       <use xlink:href="#DejaVuSans-30" x="127.246094"/>
       <use xlink:href="#DejaVuSans-38" x="190.869141"/>
      </g>
     </g>
    </g>
    <g id="xtick_6">
     <g id="line2d_11">
      <path d="M 524.231924 371.304 
L 524.231924 11.508665 
" clip-path="url(#pc5fcdb2e0f)" style="fill: none; stroke-dasharray: 1.85,0.8; stroke-dashoffset: 0; stroke: #808080; stroke-width: 0.5"/>
     </g>
     <g id="line2d_12">
      <g>
       <use xlink:href="#m5b790b1af7" x="524.231924" y="371.304" style="fill: #ffffff; stroke: #ffffff; stroke-width: 0.8"/>
      </g>
     </g>
     <g id="text_6">
      <!-- 2012 -->
      <g style="fill: #ffffff" transform="translate(511.506924 385.902437) scale(0.1 -0.1)">
       <use xlink:href="#DejaVuSans-32"/>
       <use xlink:href="#DejaVuSans-30" x="63.623047"/>
       <use xlink:href="#DejaVuSans-31" x="127.246094"/>
       <use xlink:href="#DejaVuSans-32" x="190.869141"/>
      </g>
     </g>
    </g>
    <g id="xtick_7">
     <g id="line2d_13">
      <path d="M 603.268148 371.304 
L 603.268148 11.508665 
" clip-path="url(#pc5fcdb2e0f)" style="fill: none; stroke-dasharray: 1.85,0.8; stroke-dashoffset: 0; stroke: #808080; stroke-width: 0.5"/>
     </g>
     <g id="line2d_14">
      <g>
       <use xlink:href="#m5b790b1af7" x="603.268148" y="371.304" style="fill: #ffffff; stroke: #ffffff; stroke-width: 0.8"/>
      </g>
     </g>
     <g id="text_7">
      <!-- 2016 -->
      <g style="fill: #ffffff" transform="translate(590.543148 385.902437) scale(0.1 -0.1)">
       <use xlink:href="#DejaVuSans-32"/>
       <use xlink:href="#DejaVuSans-30" x="63.623047"/>
       <use xlink:href="#DejaVuSans-31" x="127.246094"/>
       <use xlink:href="#DejaVuSans-36" x="190.869141"/>
      </g>
     </g>
    </g>
    <g id="xtick_8">
     <g id="line2d_15">
      <path d="M 682.304372 371.304 
L 682.304372 11.508665 
" clip-path="url(#pc5fcdb2e0f)" style="fill: none; stroke-dasharray: 1.85,0.8; stroke-dashoffset: 0; stroke: #808080; stroke-width: 0.5"/>
     </g>
     <g id="line2d_16">
      <g>
       <use xlink:href="#m5b790b1af7" x="682.304372" y="371.304" style="fill: #ffffff; stroke: #ffffff; stroke-width: 0.8"/>
      </g>
     </g>
     <g id="text_8">
      <!-- 2020 -->
      <g style="fill: #ffffff" transform="translate(669.579372 385.902437) scale(0.1 -0.1)">
       <use xlink:href="#DejaVuSans-32"/>
       <use xlink:href="#DejaVuSans-30" x="63.623047"/>
       <use xlink:href="#DejaVuSans-32" x="127.246094"/>
       <use xlink:href="#DejaVuSans-30" x="190.869141"/>
      </g>
     </g>
    </g>
    <g id="xtick_9">
     <g id="line2d_17">
      <path d="M 761.340597 371.304 
L 761.340597 11.508665 
" clip-path="url(#pc5fcdb2e0f)" style="fill: none; stroke-dasharray: 1.85,0.8; stroke-dashoffset: 0; stroke: #808080; stroke-width: 0.5"/>
     </g>
     <g id="line2d_18">
      <g>
       <use xlink:href="#m5b790b1af7" x="761.340597" y="371.304" style="fill: #ffffff; stroke: #ffffff; stroke-width: 0.8"/>
      </g>
     </g>
     <g id="text_9">
      <!-- 2024 -->
      <g style="fill: #ffffff" transform="translate(748.615597 385.902437) scale(0.1 -0.1)">
       <use xlink:href="#DejaVuSans-32"/>
       <use xlink:href="#DejaVuSans-30" x="63.623047"/>
       <use xlink:href="#DejaVuSans-32" x="127.246094"/>
       <use xlink:href="#DejaVuSans-34" x="190.869141"/>
      </g>
     </g>
    </g>
    <g id="xtick_10">
     <g id="line2d_19">
      <path d="M 840.376821 371.304 
L 840.376821 11.508665 
" clip-path="url(#pc5fcdb2e0f)" style="fill: none; stroke-dasharray: 1.85,0.8; stroke-dashoffset: 0; stroke: #808080; stroke-width: 0.5"/>
     </g>
     <g id="line2d_20">
      <g>
       <use xlink:href="#m5b790b1af7" x="840.376821" y="371.304" style="fill: #ffffff; stroke: #ffffff; stroke-width: 0.8"/>
      </g>
     </g>
     <g id="text_10">
      <!-- 2028 -->
      <g style="fill: #ffffff" transform="translate(827.651821 385.902437) scale(0.1 -0.1)">
       <use xlink:href="#DejaVuSans-32"/>
       <use xlink:href="#DejaVuSans-30" x="63.623047"/>
       <use xlink:href="#DejaVuSans-32" x="127.246094"/>
       <use xlink:href="#DejaVuSans-38" x="190.869141"/>
      </g>
     </g>
    </g>
    <g id="text_11">
     <!-- Jahr -->
     <g style="fill: #d3d3d3" transform="translate(435.941191 401.10025) scale(0.12 -0.12)">
      <defs>
       <path id="DejaVuSans-4a" d="M 628 4666 
L 1259 4666 
L 1259 325 
Q 1259 -519 939 -900 
Q 619 -1281 -91 -1281 
L -331 -1281 
L -331 -750 
L -134 -750 
Q 284 -750 456 -515 
Q 628 -281 628 325 
L 628 4666 
z
" transform="scale(0.015625)"/>
       <path id="DejaVuSans-61" d="M 2194 1759 
Q 1497 1759 1228 1600 
Q 959 1441 959 1056 
Q 959 750 1161 570 
Q 1363 391 1709 391 
Q 2188 391 2477 730 
Q 2766 1069 2766 1631 
L 2766 1759 
L 2194 1759 
z
M 3341 1997 
L 3341 0 
L 2766 0 
L 2766 531 
Q 2569 213 2275 61 
Q 1981 -91 1556 -91 
Q 1019 -91 701 211 
Q 384 513 384 1019 
Q 384 1609 779 1909 
Q 1175 2209 1959 2209 
L 2766 2209 
L 2766 2266 
Q 2766 2663 2505 2880 
Q 2244 3097 1772 3097 
Q 1472 3097 1187 3025 
Q 903 2953 641 2809 
L 641 3341 
Q 956 3463 1253 3523 
Q 1550 3584 1831 3584 
Q 2591 3584 2966 3190 
Q 3341 2797 3341 1997 
z
" transform="scale(0.015625)"/>
       <path id="DejaVuSans-68" d="M 3513 2113 
L 3513 0 
L 2938 0 
L 2938 2094 
Q 2938 2591 2744 2837 
Q 2550 3084 2163 3084 
Q 1697 3084 1428 2787 
Q 1159 2491 1159 1978 
L 1159 0 
L 581 0 
L 581 4863 
L 1159 4863 
L 1159 2956 
Q 1366 3272 1645 3428 
Q 1925 3584 2291 3584 
Q 2894 3584 3203 3211 
Q 3513 2838 3513 2113 
z
" transform="scale(0.015625)"/>
       <path id="DejaVuSans-72" d="M 2631 2963 
Q 2534 3019 2420 3045 
Q 2306 3072 2169 3072 
Q 1681 3072 1420 2755 
Q 1159 2438 1159 1844 
L 1159 0 
L 581 0 
L 581 3500 
L 1159 3500 
L 1159 2956 
Q 1341 3275 1631 3429 
Q 1922 3584 2338 3584 
Q 2397 3584 2469 3576 
Q 2541 3569 2628 3553 
L 2631 2963 
z
" transform="scale(0.015625)"/>
      </defs>
      <use xlink:href="#DejaVuSans-4a"/>
      <use xlink:href="#DejaVuSans-61" x="29.492188"/>
      <use xlink:href="#DejaVuSans-68" x="90.771484"/>
      <use xlink:href="#DejaVuSans-72" x="154.150391"/>
     </g>
    </g>
   </g>
   <g id="matplotlib.axis_2">
    <g id="ytick_1">
     <g id="line2d_21">
      <path d="M 53.75 371.304 
L 841.564258 371.304 
" clip-path="url(#pc5fcdb2e0f)" style="fill: none; stroke-dasharray: 1.85,0.8; stroke-dashoffset: 0; stroke: #808080; stroke-width: 0.5"/>
     </g>
     <g id="line2d_22">
      <defs>
       <path id="m737889f007" d="M 0 0 
L -3.5 0 
" style="stroke: #ffffff; stroke-width: 0.8"/>
      </defs>
      <g>
       <use xlink:href="#m737889f007" x="53.75" y="371.304" style="fill: #ffffff; stroke: #ffffff; stroke-width: 0.8"/>
      </g>
     </g>
     <g id="text_12">
      <!-- 0 -->
      <g style="fill: #ffffff" transform="translate(40.3875 375.103219) scale(0.1 -0.1)">
       <use xlink:href="#DejaVuSans-30"/>
      </g>
     </g>
    </g>
    <g id="ytick_2">
     <g id="line2d_23">
      <path d="M 53.75 326.769178 
L 841.564258 326.769178 
" clip-path="url(#pc5fcdb2e0f)" style="fill: none; stroke-dasharray: 1.85,0.8; stroke-dashoffset: 0; stroke: #808080; stroke-width: 0.5"/>
     </g>
     <g id="line2d_24">
      <g>
       <use xlink:href="#m737889f007" x="53.75" y="326.769178" style="fill: #ffffff; stroke: #ffffff; stroke-width: 0.8"/>
      </g>
     </g>
     <g id="text_13">
      <!-- 100 -->
      <g style="fill: #ffffff" transform="translate(27.6625 330.568397) scale(0.1 -0.1)">
       <use xlink:href="#DejaVuSans-31"/>
       <use xlink:href="#DejaVuSans-30" x="63.623047"/>
       <use xlink:href="#DejaVuSans-30" x="127.246094"/>
      </g>
     </g>
    </g>
    <g id="ytick_3">
     <g id="line2d_25">
      <path d="M 53.75 282.234356 
L 841.564258 282.234356 
" clip-path="url(#pc5fcdb2e0f)" style="fill: none; stroke-dasharray: 1.85,0.8; stroke-dashoffset: 0; stroke: #808080; stroke-width: 0.5"/>
     </g>
     <g id="line2d_26">
      <g>
       <use xlink:href="#m737889f007" x="53.75" y="282.234356" style="fill: #ffffff; stroke: #ffffff; stroke-width: 0.8"/>
      </g>
     </g>
     <g id="text_14">
      <!-- 200 -->
      <g style="fill: #ffffff" transform="translate(27.6625 286.033575) scale(0.1 -0.1)">
       <use xlink:href="#DejaVuSans-32"/>
       <use xlink:href="#DejaVuSans-30" x="63.623047"/>
       <use xlink:href="#DejaVuSans-30" x="127.246094"/>
      </g>
     </g>
    </g>
    <g id="ytick_4">
     <g id="line2d_27">
      <path d="M 53.75 237.699535 
L 841.564258 237.699535 
" clip-path="url(#pc5fcdb2e0f)" style="fill: none; stroke-dasharray: 1.85,0.8; stroke-dashoffset: 0; stroke: #808080; stroke-width: 0.5"/>
     </g>
     <g id="line2d_28">
      <g>
       <use xlink:href="#m737889f007" x="53.75" y="237.699535" style="fill: #ffffff; stroke: #ffffff; stroke-width: 0.8"/>
      </g>
     </g>
     <g id="text_15">
      <!-- 300 -->
      <g style="fill: #ffffff" transform="translate(27.6625 241.498753) scale(0.1 -0.1)">
       <defs>
        <path id="DejaVuSans-33" d="M 2597 2516 
Q 3050 2419 3304 2112 
Q 3559 1806 3559 1356 
Q 3559 666 3084 287 
Q 2609 -91 1734 -91 
Q 1441 -91 1130 -33 
Q 819 25 488 141 
L 488 750 
Q 750 597 1062 519 
Q 1375 441 1716 441 
Q 2309 441 2620 675 
Q 2931 909 2931 1356 
Q 2931 1769 2642 2001 
Q 2353 2234 1838 2234 
L 1294 2234 
L 1294 2753 
L 1863 2753 
Q 2328 2753 2575 2939 
Q 2822 3125 2822 3475 
Q 2822 3834 2567 4026 
Q 2313 4219 1838 4219 
Q 1578 4219 1281 4162 
Q 984 4106 628 3988 
L 628 4550 
Q 988 4650 1302 4700 
Q 1616 4750 1894 4750 
Q 2613 4750 3031 4423 
Q 3450 4097 3450 3541 
Q 3450 3153 3228 2886 
Q 3006 2619 2597 2516 
z
" transform="scale(0.015625)"/>
       </defs>
       <use xlink:href="#DejaVuSans-33"/>
       <use xlink:href="#DejaVuSans-30" x="63.623047"/>
       <use xlink:href="#DejaVuSans-30" x="127.246094"/>
      </g>
     </g>
    </g>
    <g id="ytick_5">
     <g id="line2d_29">
      <path d="M 53.75 193.164713 
L 841.564258 193.164713 
" clip-path="url(#pc5fcdb2e0f)" style="fill: none; stroke-dasharray: 1.85,0.8; stroke-dashoffset: 0; stroke: #808080; stroke-width: 0.5"/>
     </g>
     <g id="line2d_30">
      <g>
       <use xlink:href="#m737889f007" x="53.75" y="193.164713" style="fill: #ffffff; stroke: #ffffff; stroke-width: 0.8"/>
      </g>
     </g>
     <g id="text_16">
      <!-- 400 -->
      <g style="fill: #ffffff" transform="translate(27.6625 196.963931) scale(0.1 -0.1)">
       <use xlink:href="#DejaVuSans-34"/>
       <use xlink:href="#DejaVuSans-30" x="63.623047"/>
       <use xlink:href="#DejaVuSans-30" x="127.246094"/>
      </g>
     </g>
    </g>
    <g id="ytick_6">
     <g id="line2d_31">
      <path d="M 53.75 148.629891 
L 841.564258 148.629891 
" clip-path="url(#pc5fcdb2e0f)" style="fill: none; stroke-dasharray: 1.85,0.8; stroke-dashoffset: 0; stroke: #808080; stroke-width: 0.5"/>
     </g>
     <g id="line2d_32">
      <g>
       <use xlink:href="#m737889f007" x="53.75" y="148.629891" style="fill: #ffffff; stroke: #ffffff; stroke-width: 0.8"/>
      </g>
     </g>
     <g id="text_17">
      <!-- 500 -->
      <g style="fill: #ffffff" transform="translate(27.6625 152.42911) scale(0.1 -0.1)">
       <defs>
        <path id="DejaVuSans-35" d="M 691 4666 
L 3169 4666 
L 3169 4134 
L 1269 4134 
L 1269 2991 
Q 1406 3038 1543 3061 
Q 1681 3084 1819 3084 
Q 2600 3084 3056 2656 
Q 3513 2228 3513 1497 
Q 3513 744 3044 326 
Q 2575 -91 1722 -91 
Q 1428 -91 1123 -41 
Q 819 9 494 109 
L 494 744 
Q 775 591 1075 516 
Q 1375 441 1709 441 
Q 2250 441 2565 725 
Q 2881 1009 2881 1497 
Q 2881 1984 2565 2268 
Q 2250 2553 1709 2553 
Q 1456 2553 1204 2497 
Q 953 2441 691 2322 
L 691 4666 
z
" transform="scale(0.015625)"/>
       </defs>
       <use xlink:href="#DejaVuSans-35"/>
       <use xlink:href="#DejaVuSans-30" x="63.623047"/>
       <use xlink:href="#DejaVuSans-30" x="127.246094"/>
      </g>
     </g>
    </g>
    <g id="ytick_7">
     <g id="line2d_33">
      <path d="M 53.75 104.095069 
L 841.564258 104.095069 
" clip-path="url(#pc5fcdb2e0f)" style="fill: none; stroke-dasharray: 1.85,0.8; stroke-dashoffset: 0; stroke: #808080; stroke-width: 0.5"/>
     </g>
     <g id="line2d_34">
      <g>
       <use xlink:href="#m737889f007" x="53.75" y="104.095069" style="fill: #ffffff; stroke: #ffffff; stroke-width: 0.8"/>
      </g>
     </g>
     <g id="text_18">
      <!-- 600 -->
      <g style="fill: #ffffff" transform="translate(27.6625 107.894288) scale(0.1 -0.1)">
       <use xlink:href="#DejaVuSans-36"/>
       <use xlink:href="#DejaVuSans-30" x="63.623047"/>
       <use xlink:href="#DejaVuSans-30" x="127.246094"/>
      </g>
     </g>
    </g>
    <g id="ytick_8">
     <g id="line2d_35">
      <path d="M 53.75 59.560247 
L 841.564258 59.560247 
" clip-path="url(#pc5fcdb2e0f)" style="fill: none; stroke-dasharray: 1.85,0.8; stroke-dashoffset: 0; stroke: #808080; stroke-width: 0.5"/>
     </g>
     <g id="line2d_36">
      <g>
       <use xlink:href="#m737889f007" x="53.75" y="59.560247" style="fill: #ffffff; stroke: #ffffff; stroke-width: 0.8"/>
      </g>
     </g>
     <g id="text_19">
      <!-- 700 -->
      <g style="fill: #ffffff" transform="translate(27.6625 63.359466) scale(0.1 -0.1)">
       <defs>
        <path id="DejaVuSans-37" d="M 525 4666 
L 3525 4666 
L 3525 4397 
L 1831 0 
L 1172 0 
L 2766 4134 
L 525 4134 
L 525 4666 
z
" transform="scale(0.015625)"/>
       </defs>
       <use xlink:href="#DejaVuSans-37"/>
       <use xlink:href="#DejaVuSans-30" x="63.623047"/>
       <use xlink:href="#DejaVuSans-30" x="127.246094"/>
      </g>
     </g>
    </g>
    <g id="ytick_9">
     <g id="line2d_37">
      <path d="M 53.75 15.025425 
L 841.564258 15.025425 
" clip-path="url(#pc5fcdb2e0f)" style="fill: none; stroke-dasharray: 1.85,0.8; stroke-dashoffset: 0; stroke: #808080; stroke-width: 0.5"/>
     </g>
     <g id="line2d_38">
      <g>
       <use xlink:href="#m737889f007" x="53.75" y="15.025425" style="fill: #ffffff; stroke: #ffffff; stroke-width: 0.8"/>
      </g>
     </g>
     <g id="text_20">
      <!-- 800 -->
      <g style="fill: #ffffff" transform="translate(27.6625 18.824644) scale(0.1 -0.1)">
       <use xlink:href="#DejaVuSans-38"/>
       <use xlink:href="#DejaVuSans-30" x="63.623047"/>
       <use xlink:href="#DejaVuSans-30" x="127.246094"/>
      </g>
     </g>
    </g>
    <g id="text_21">
     <!-- Index (Jun. 2012 = 100) -->
     <g style="fill: #d3d3d3" transform="translate(21.166875 263.267583) rotate(-90) scale(0.12 -0.12)">
      <defs>
       <path id="DejaVuSans-49" d="M 628 4666 
L 1259 4666 
L 1259 0 
L 628 0 
L 628 4666 
z
" transform="scale(0.015625)"/>
       <path id="DejaVuSans-6e" d="M 3513 2113 
L 3513 0 
L 2938 0 
L 2938 2094 
Q 2938 2591 2744 2837 
Q 2550 3084 2163 3084 
Q 1697 3084 1428 2787 
Q 1159 2491 1159 1978 
L 1159 0 
L 581 0 
L 581 3500 
L 1159 3500 
L 1159 2956 
Q 1366 3272 1645 3428 
Q 1925 3584 2291 3584 
Q 2894 3584 3203 3211 
Q 3513 2838 3513 2113 
z
" transform="scale(0.015625)"/>
       <path id="DejaVuSans-64" d="M 2906 2969 
L 2906 4863 
L 3481 4863 
L 3481 0 
L 2906 0 
L 2906 525 
Q 2725 213 2448 61 
Q 2172 -91 1784 -91 
Q 1150 -91 751 415 
Q 353 922 353 1747 
Q 353 2572 751 3078 
Q 1150 3584 1784 3584 
Q 2172 3584 2448 3432 
Q 2725 3281 2906 2969 
z
M 947 1747 
Q 947 1113 1208 752 
Q 1469 391 1925 391 
Q 2381 391 2643 752 
Q 2906 1113 2906 1747 
Q 2906 2381 2643 2742 
Q 2381 3103 1925 3103 
Q 1469 3103 1208 2742 
Q 947 2381 947 1747 
z
" transform="scale(0.015625)"/>
       <path id="DejaVuSans-65" d="M 3597 1894 
L 3597 1613 
L 953 1613 
Q 991 1019 1311 708 
Q 1631 397 2203 397 
Q 2534 397 2845 478 
Q 3156 559 3463 722 
L 3463 178 
Q 3153 47 2828 -22 
Q 2503 -91 2169 -91 
Q 1331 -91 842 396 
Q 353 884 353 1716 
Q 353 2575 817 3079 
Q 1281 3584 2069 3584 
Q 2775 3584 3186 3129 
Q 3597 2675 3597 1894 
z
M 3022 2063 
Q 3016 2534 2758 2815 
Q 2500 3097 2075 3097 
Q 1594 3097 1305 2825 
Q 1016 2553 972 2059 
L 3022 2063 
z
" transform="scale(0.015625)"/>
       <path id="DejaVuSans-78" d="M 3513 3500 
L 2247 1797 
L 3578 0 
L 2900 0 
L 1881 1375 
L 863 0 
L 184 0 
L 1544 1831 
L 300 3500 
L 978 3500 
L 1906 2253 
L 2834 3500 
L 3513 3500 
z
" transform="scale(0.015625)"/>
       <path id="DejaVuSans-20" transform="scale(0.015625)"/>
       <path id="DejaVuSans-28" d="M 1984 4856 
Q 1566 4138 1362 3434 
Q 1159 2731 1159 2009 
Q 1159 1288 1364 580 
Q 1569 -128 1984 -844 
L 1484 -844 
Q 1016 -109 783 600 
Q 550 1309 550 2009 
Q 550 2706 781 3412 
Q 1013 4119 1484 4856 
L 1984 4856 
z
" transform="scale(0.015625)"/>
       <path id="DejaVuSans-75" d="M 544 1381 
L 544 3500 
L 1119 3500 
L 1119 1403 
Q 1119 906 1312 657 
Q 1506 409 1894 409 
Q 2359 409 2629 706 
Q 2900 1003 2900 1516 
L 2900 3500 
L 3475 3500 
L 3475 0 
L 2900 0 
L 2900 538 
Q 2691 219 2414 64 
Q 2138 -91 1772 -91 
Q 1169 -91 856 284 
Q 544 659 544 1381 
z
M 1991 3584 
L 1991 3584 
z
" transform="scale(0.015625)"/>
       <path id="DejaVuSans-2e" d="M 684 794 
L 1344 794 
L 1344 0 
L 684 0 
L 684 794 
z
" transform="scale(0.015625)"/>
       <path id="DejaVuSans-3d" d="M 678 2906 
L 4684 2906 
L 4684 2381 
L 678 2381 
L 678 2906 
z
M 678 1631 
L 4684 1631 
L 4684 1100 
L 678 1100 
L 678 1631 
z
" transform="scale(0.015625)"/>
       <path id="DejaVuSans-29" d="M 513 4856 
L 1013 4856 
Q 1481 4119 1714 3412 
Q 1947 2706 1947 2009 
Q 1947 1309 1714 600 
Q 1481 -109 1013 -844 
L 513 -844 
Q 928 -128 1133 580 
Q 1338 1288 1338 2009 
Q 1338 2731 1133 3434 
Q 928 4138 513 4856 
z
" transform="scale(0.015625)"/>
      </defs>
      <use xlink:href="#DejaVuSans-49"/>
      <use xlink:href="#DejaVuSans-6e" x="29.492188"/>
      <use xlink:href="#DejaVuSans-64" x="92.871094"/>
      <use xlink:href="#DejaVuSans-65" x="156.347656"/>
      <use xlink:href="#DejaVuSans-78" x="216.121094"/>
      <use xlink:href="#DejaVuSans-20" x="275.300781"/>
      <use xlink:href="#DejaVuSans-28" x="307.087891"/>
      <use xlink:href="#DejaVuSans-4a" x="346.101562"/>
      <use xlink:href="#DejaVuSans-75" x="375.59375"/>
      <use xlink:href="#DejaVuSans-6e" x="438.972656"/>
      <use xlink:href="#DejaVuSans-2e" x="502.351562"/>
      <use xlink:href="#DejaVuSans-20" x="534.138672"/>
      <use xlink:href="#DejaVuSans-32" x="565.925781"/>
      <use xlink:href="#DejaVuSans-30" x="629.548828"/>
      <use xlink:href="#DejaVuSans-31" x="693.171875"/>
      <use xlink:href="#DejaVuSans-32" x="756.794922"/>
      <use xlink:href="#DejaVuSans-20" x="820.417969"/>
      <use xlink:href="#DejaVuSans-3d" x="852.205078"/>
      <use xlink:href="#DejaVuSans-20" x="935.994141"/>
      <use xlink:href="#DejaVuSans-31" x="967.78125"/>
      <use xlink:href="#DejaVuSans-30" x="1031.404297"/>
      <use xlink:href="#DejaVuSans-30" x="1095.027344"/>
      <use xlink:href="#DejaVuSans-29" x="1158.650391"/>
     </g>
    </g>
   </g>
   <g id="line2d_39">
    <path d="M 89.559739 361.555784 
L 92.751482 362.727672 
L 94.4285 363.44278 
L 96.051421 363.560958 
L 97.728438 364.080834 
L 99.351359 363.192113 
L 101.028377 358.78832 
L 102.705394 355.20763 
L 104.328315 354.46094 
L 106.005333 355.99433 
L 107.628253 358.359361 
L 109.305271 360.164479 
L 110.982288 362.343769 
L 112.497014 362.218646 
L 115.796952 362.378652 
L 117.47397 362.863943 
L 119.096891 362.270619 
L 120.773908 362.119676 
L 122.450926 361.764157 
L 124.073847 360.988963 
L 125.750864 361.500974 
L 127.373785 362.825837 
L 130.72782 362.89297 
L 132.296643 363.102391 
L 133.973661 362.472229 
L 137.273599 361.463125 
L 138.89652 361.863728 
L 140.573537 362.111382 
L 142.250555 361.881122 
L 143.873476 361.870566 
L 147.173414 362.817448 
L 148.850432 363.172962 
L 150.527449 362.73715 
L 152.042175 362.552717 
L 155.342113 362.675568 
L 158.642051 363.497377 
L 160.319069 363.484288 
L 161.996087 363.808131 
L 163.619007 363.574593 
L 165.296025 364.225917 
L 166.918946 365.00638 
L 168.595963 364.674655 
L 170.272981 364.908877 
L 171.787707 364.908645 
L 175.087645 363.677454 
L 176.764663 363.359523 
L 178.387583 362.886114 
L 180.064601 363.449088 
L 181.741619 363.854997 
L 183.364539 363.617056 
L 185.041557 363.216179 
L 186.664477 363.85373 
L 190.018513 363.282636 
L 191.533238 363.29865 
L 193.210256 362.561359 
L 194.833177 362.629249 
L 198.133115 363.835344 
L 199.810133 363.754408 
L 201.48715 363.551592 
L 203.110071 363.783009 
L 204.787089 363.450089 
L 206.410009 362.834362 
L 209.764045 363.015494 
L 211.332868 362.103642 
L 213.009885 361.457636 
L 214.632806 362.3314 
L 216.309824 362.675844 
L 217.932744 362.147643 
L 219.609762 361.733767 
L 221.286779 360.584034 
L 222.9097 360.030397 
L 224.586718 360.574303 
L 226.209638 360.140523 
L 227.886656 360.340563 
L 229.563674 361.587658 
L 231.078399 362.219752 
L 232.755417 363.048347 
L 234.378337 362.365619 
L 236.055355 363.035178 
L 237.678276 362.685587 
L 239.355293 362.565208 
L 241.032311 362.673839 
L 242.655232 361.953588 
L 244.332249 362.336105 
L 247.632188 364.100306 
L 250.823931 365.052622 
L 252.500949 364.89049 
L 254.123869 364.565622 
L 255.800887 365.238609 
L 259.100825 365.659713 
L 260.777843 364.975356 
L 262.400763 365.314398 
L 265.700702 366.585278 
L 267.377719 366.108451 
L 269.054737 366.460111 
L 272.246481 364.10474 
L 273.869401 364.026207 
L 275.546419 363.811719 
L 277.169339 362.464629 
L 278.846357 361.737567 
L 280.523375 360.552398 
L 282.146295 361.003358 
L 283.823313 359.768548 
L 285.446233 359.368266 
L 287.123251 359.398825 
L 288.800269 358.285493 
L 290.369092 358.534493 
L 292.04611 360.550561 
L 293.66903 358.390112 
L 295.346048 357.146355 
L 296.968968 357.884304 
L 298.645986 356.61413 
L 300.323004 355.810021 
L 301.945924 356.765725 
L 303.622942 356.032752 
L 305.245862 359.472029 
L 306.92288 359.326062 
L 308.599898 358.347717 
L 310.114624 359.676926 
L 311.791641 359.220125 
L 313.414562 358.096101 
L 315.09158 358.297878 
L 316.7145 359.696982 
L 318.391518 359.351102 
L 320.068535 359.304233 
L 321.691456 361.535591 
L 323.368474 362.43064 
L 324.991394 362.627575 
L 326.668412 361.99983 
L 328.34543 361.762056 
L 329.860155 360.15697 
L 331.537173 359.253863 
L 333.160094 359.43773 
L 334.837111 359.986497 
L 336.460032 359.294561 
L 338.137049 358.940576 
L 339.814067 358.127362 
L 341.436988 358.521367 
L 343.114005 360.04108 
L 344.736926 358.152293 
L 346.413944 356.995173 
L 348.090961 356.13419 
L 349.605687 357.292694 
L 351.282705 359.676715 
L 352.905625 359.361106 
L 354.582643 358.500905 
L 357.882581 357.501693 
L 359.559599 358.743611 
L 361.182519 357.632871 
L 362.859537 357.859125 
L 364.482458 357.489904 
L 366.159475 356.914768 
L 367.836493 357.001534 
L 369.405316 355.780357 
L 371.082334 355.811298 
L 372.705254 353.846099 
L 374.382272 354.84526 
L 376.005192 353.549892 
L 377.68221 351.693394 
L 379.359228 351.186308 
L 380.982148 348.204465 
L 382.659166 350.985332 
L 384.282087 352.742306 
L 385.959104 350.787422 
L 387.636122 350.069285 
L 389.150848 346.5822 
L 390.827866 346.872404 
L 392.450786 348.413806 
L 394.127804 345.834468 
L 395.750724 344.540246 
L 397.427742 341.602785 
L 399.10476 341.922818 
L 400.72768 343.944434 
L 402.404698 345.550948 
L 404.027618 344.75802 
L 405.704636 341.899385 
L 407.381654 343.063422 
L 408.89638 342.16173 
L 410.573397 338.635208 
L 412.196318 338.556253 
L 413.873336 339.149471 
L 415.496256 336.916333 
L 417.173274 337.167372 
L 418.850291 342.26382 
L 420.473212 344.014281 
L 422.15023 343.798527 
L 423.77315 342.387671 
L 425.450168 345.990543 
L 427.127186 344.380577 
L 428.641911 342.342715 
L 430.318929 339.865756 
L 431.94185 339.853053 
L 433.618867 338.505607 
L 435.241788 335.944616 
L 436.918805 338.183286 
L 438.595823 335.647922 
L 440.218744 332.98417 
L 441.895761 328.235737 
L 443.518682 328.798565 
L 445.1957 328.532805 
L 446.872717 327.311026 
L 448.44154 323.391364 
L 450.118558 320.20006 
L 451.741479 313.777261 
L 453.418496 309.644569 
L 455.041417 309.261525 
L 456.718435 318.450373 
L 458.395452 325.437901 
L 460.018373 337.881198 
L 461.69539 346.82168 
L 463.318311 352.48868 
L 464.995329 351.251963 
L 466.672346 351.374597 
L 469.86409 347.840854 
L 471.48701 344.597969 
L 473.164028 339.452624 
L 474.786949 341.159749 
L 476.463966 337.589331 
L 478.140984 339.948099 
L 479.763904 337.414361 
L 481.440922 335.571444 
L 483.063843 336.568647 
L 484.74086 335.7267 
L 486.417878 336.980404 
L 487.932604 334.372042 
L 489.609622 331.753879 
L 491.232542 335.944988 
L 492.90956 336.356491 
L 494.53248 336.380346 
L 496.209498 335.592274 
L 497.886516 335.106299 
L 499.509436 332.598136 
L 501.186454 331.454525 
L 502.809374 328.59399 
L 504.486392 326.275322 
L 506.16341 322.891349 
L 507.678136 317.931632 
L 509.355153 314.02646 
L 510.978074 317.925987 
L 512.655092 318.185652 
L 514.278012 316.739903 
L 515.95503 320.050695 
L 517.632048 319.3039 
L 519.254968 320.015982 
L 520.931986 319.677352 
L 522.554906 320.982854 
L 524.231924 319.558287 
L 525.908942 315.958536 
L 527.477765 313.386708 
L 529.154782 315.352772 
L 530.777703 319.833619 
L 532.454721 326.769178 
L 534.077641 323.476059 
L 535.754659 318.459681 
L 537.431677 318.524208 
L 540.731615 320.256426 
L 542.354535 320.415623 
L 544.031553 319.041444 
L 545.708571 317.202177 
L 547.223296 320.407882 
L 548.900314 323.485137 
L 550.523235 323.475646 
L 552.200252 323.300057 
L 553.823173 321.246732 
L 555.500191 319.724008 
L 557.177208 319.303839 
L 558.800129 320.392564 
L 560.477147 321.074466 
L 562.100067 319.718308 
L 563.777085 321.178278 
L 565.454102 320.755152 
L 566.968828 321.205615 
L 568.645846 321.142664 
L 570.268766 320.29337 
L 571.945784 319.17468 
L 576.92274 325.857164 
L 578.54566 330.626021 
L 580.222678 334.506558 
L 581.845599 342.088833 
L 583.522616 348.577416 
L 585.199634 344.248444 
L 586.71436 345.051674 
L 588.391378 343.518173 
L 590.014298 341.025311 
L 591.691316 342.220694 
L 593.314236 344.91001 
L 594.991254 349.227342 
L 596.668272 348.996679 
L 598.291192 348.589871 
L 599.96821 350.359915 
L 603.268148 356.420872 
L 604.945166 355.62336 
L 606.513989 352.822876 
L 608.191007 351.179543 
L 609.813927 349.133901 
L 611.490945 348.138941 
L 613.113865 349.661705 
L 616.467901 349.300255 
L 618.090821 347.42531 
L 619.767839 349.502076 
L 621.390759 345.74918 
L 623.067777 345.42956 
L 624.744795 345.250708 
L 626.259521 346.848749 
L 627.936538 346.234394 
L 629.559459 347.443638 
L 631.236477 349.172111 
L 632.859397 348.428724 
L 634.536415 347.186579 
L 636.213433 345.500754 
L 637.836353 344.581744 
L 639.513371 342.120206 
L 641.136291 341.549908 
L 642.813309 339.309051 
L 644.490327 340.79184 
L 646.005052 340.236685 
L 649.304991 335.572521 
L 650.982008 336.098032 
L 652.604929 336.364513 
L 654.281947 337.004414 
L 655.958964 334.537443 
L 657.581885 333.784827 
L 659.258903 340.544694 
L 660.881823 344.390519 
L 662.558841 343.463175 
L 664.235858 341.401419 
L 665.750584 340.213423 
L 667.427602 338.107645 
L 669.050522 338.61239 
L 670.72754 341.94737 
L 672.350461 341.430134 
L 674.027478 343.614862 
L 675.704496 342.308495 
L 677.327416 343.608767 
L 680.627355 340.953614 
L 682.304372 341.626815 
L 683.98139 345.438807 
L 685.550213 355.537489 
L 687.227231 358.834388 
L 688.850151 356.245711 
L 690.527169 352.326723 
L 692.15009 351.195716 
L 693.827107 350.366328 
L 695.504125 351.831459 
L 697.127046 351.980081 
L 698.804063 350.845366 
L 700.426984 347.906867 
L 702.104002 345.655347 
L 703.781019 342.340287 
L 705.295745 340.745588 
L 706.972763 340.868325 
L 708.595683 339.547724 
L 710.272701 337.161663 
L 711.895621 336.748099 
L 713.572639 338.519942 
L 715.249657 336.587233 
L 716.872577 332.35353 
L 718.549595 333.735142 
L 720.172515 336.620341 
L 721.849533 331.537441 
L 723.526551 327.522524 
L 725.041277 319.082234 
L 726.718294 322.000915 
L 728.341215 319.233811 
L 730.018233 316.642652 
L 731.641153 322.420239 
L 733.318171 325.95455 
L 734.995189 329.22183 
L 736.618109 327.777237 
L 738.295127 329.068353 
L 739.918047 333.450567 
L 741.595065 332.252942 
L 743.272083 332.461624 
L 744.786808 334.494008 
L 746.463826 332.506442 
L 748.086747 336.123793 
L 749.763764 336.482523 
L 753.063703 331.748353 
L 754.74072 328.262688 
L 756.363641 329.993013 
L 758.040659 333.133269 
L 759.663579 335.290789 
L 761.340597 334.562059 
L 763.017614 333.314702 
L 764.586438 331.844414 
L 766.263455 329.980558 
L 767.886376 332.730343 
L 769.563393 332.793699 
L 771.186314 332.268325 
L 772.863332 334.604492 
L 774.540349 337.373034 
L 776.16327 336.347128 
L 777.840288 337.163593 
L 779.463208 337.294028 
L 781.140226 334.987527 
L 782.817244 336.381275 
L 784.331969 337.984327 
L 786.008987 340.220219 
L 787.631907 341.536699 
L 789.308925 338.864332 
L 790.931846 338.995251 
L 792.608863 340.072985 
L 794.285881 339.903554 
L 795.908802 341.588448 
L 797.585819 341.722116 
L 799.20874 342.596469 
L 800.885758 341.303845 
L 802.562775 339.06737 
L 804.077501 325.136225 
L 805.754519 323.553114 
L 805.754519 323.553114 
" clip-path="url(#pc5fcdb2e0f)" style="fill: none; stroke: #cc241d; stroke-width: 1.5; stroke-linecap: square"/>
   </g>
   <g id="line2d_40">
    <path d="M 89.559739 353.058852 
L 94.4285 353.058852 
L 96.051421 351.858513 
L 110.982288 351.858513 
L 112.497014 352.338649 
L 142.250555 352.338649 
L 145.550493 354.499258 
L 148.850432 354.499258 
L 150.527449 356.4198 
L 170.272981 356.4198 
L 171.787707 357.140003 
L 173.464725 357.140003 
L 176.764663 355.171448 
L 178.387583 355.411516 
L 185.041557 355.411516 
L 186.664477 353.971109 
L 188.341495 353.490974 
L 190.018513 353.250906 
L 191.533238 352.890804 
L 193.210256 353.490974 
L 194.833177 352.689148 
L 196.510194 351.728877 
L 198.133115 351.594439 
L 201.48715 351.652055 
L 203.110071 351.632849 
L 204.787089 352.295436 
L 206.410009 352.410669 
L 209.764045 352.444278 
L 211.332868 352.573915 
L 213.009885 352.420272 
L 214.632806 352.962825 
L 221.286779 353.010838 
L 222.9097 353.250906 
L 224.586718 354.163163 
L 226.209638 354.331211 
L 227.886656 354.388827 
L 229.563674 354.691312 
L 231.078399 354.739326 
L 232.755417 354.307204 
L 234.378337 354.148759 
L 236.055355 354.739326 
L 237.678276 354.499258 
L 239.355293 353.572597 
L 242.655232 353.466967 
L 244.332249 355.171448 
L 245.95517 356.227746 
L 247.632188 356.227746 
L 249.309205 355.24827 
L 250.823931 355.997281 
L 255.800887 356.899936 
L 257.423807 356.899936 
L 259.100825 358.72445 
L 260.777843 358.29713 
L 262.400763 358.292329 
L 264.077781 358.772464 
L 280.523375 358.772464 
L 283.823313 359.2526 
L 292.04611 359.2526 
L 293.66903 359.012532 
L 298.645986 359.012532 
L 300.323004 358.268322 
L 303.622942 358.268322 
L 305.245862 356.539834 
L 306.92288 355.891651 
L 308.599898 355.891651 
L 310.114624 355.651583 
L 311.791641 355.219461 
L 315.09158 355.027407 
L 316.7145 354.979394 
L 318.391518 355.075421 
L 320.068535 355.555556 
L 321.691456 355.747611 
L 323.368474 357.188017 
L 324.991394 358.172295 
L 326.668412 357.332058 
L 328.34543 356.971956 
L 329.860155 357.115997 
L 331.537173 357.456893 
L 333.160094 357.557721 
L 336.460032 359.348627 
L 338.137049 359.780749 
L 339.814067 359.564688 
L 341.436988 358.700444 
L 344.736926 358.700444 
L 348.090961 358.366064 
L 351.282705 359.240596 
L 352.905625 359.317761 
L 354.582643 358.906216 
L 356.205563 358.777608 
L 357.882581 358.276038 
L 359.559599 357.568696 
L 361.182519 357.157151 
L 362.859537 355.916087 
L 364.482458 353.81335 
L 367.836493 349.826511 
L 369.405316 346.129039 
L 371.082334 343.910556 
L 374.382272 340.669642 
L 376.005192 339.730805 
L 377.68221 340.823971 
L 379.359228 342.817391 
L 380.982148 342.174352 
L 382.659166 344.129189 
L 384.282087 344.424987 
L 385.959104 344.016015 
L 387.636122 345.635186 
L 389.150848 345.106608 
L 390.827866 344.939418 
L 392.450786 344.907266 
L 395.750724 345.119469 
L 397.427742 346.965574 
L 399.10476 348.103168 
L 402.404698 351.790702 
L 404.027618 351.287495 
L 405.704636 349.389245 
L 407.381654 346.855673 
L 408.89638 345.754679 
L 410.573397 344.190635 
L 412.196318 344.069785 
L 413.873336 344.939418 
L 415.496256 343.958325 
L 417.173274 344.592177 
L 418.850291 346.390848 
L 420.473212 348.405981 
L 422.15023 348.154611 
L 423.77315 345.131653 
L 425.450168 344.530212 
L 427.127186 344.413412 
L 430.318929 343.431323 
L 431.94185 343.236897 
L 433.618867 340.9832 
L 435.241788 336.353099 
L 436.918805 335.373342 
L 438.595823 335.988321 
L 440.218744 333.128756 
L 441.895761 326.595281 
L 443.518682 323.813908 
L 445.1957 324.017281 
L 446.872717 303.178655 
L 448.44154 305.15902 
L 450.118558 308.052386 
L 451.741479 302.608188 
L 453.418496 291.126275 
L 455.041417 277.588116 
L 456.718435 288.094807 
L 458.395452 292.322493 
L 460.018373 313.991928 
L 461.69539 322.626751 
L 463.318311 331.640645 
L 464.995329 330.222776 
L 466.672346 332.498165 
L 468.187072 339.87812 
L 471.48701 339.127703 
L 473.164028 334.903339 
L 474.786949 334.03572 
L 476.463966 333.91002 
L 478.140984 336.182402 
L 479.763904 334.955952 
L 481.440922 331.805508 
L 483.063843 329.839647 
L 484.74086 323.221433 
L 486.417878 324.174416 
L 487.932604 323.242737 
L 489.609622 320.90778 
L 491.232542 319.480505 
L 492.90956 321.137637 
L 494.53248 321.916532 
L 496.209498 324.804349 
L 499.509436 321.750589 
L 501.186454 317.24854 
L 502.809374 311.870087 
L 504.486392 303.607984 
L 506.16341 306.666019 
L 507.678136 306.019368 
L 509.355153 308.153896 
L 510.978074 309.864492 
L 512.655092 309.672844 
L 514.278012 309.371668 
L 515.95503 310.104966 
L 517.632048 308.616623 
L 519.254968 309.888548 
L 520.931986 312.36963 
L 522.554906 314.563304 
L 524.231924 312.206182 
L 525.908942 311.302988 
L 527.477765 316.496068 
L 529.154782 318.319245 
L 530.777703 321.456584 
L 532.454721 326.769178 
L 534.077641 327.436843 
L 535.754659 326.4323 
L 537.431677 326.564205 
L 539.054597 329.587235 
L 540.731615 329.426755 
L 542.354535 325.174442 
L 544.031553 324.753852 
L 545.708571 323.123691 
L 547.223296 324.578759 
L 548.900314 326.539451 
L 550.523235 326.590894 
L 552.200252 328.26337 
L 553.823173 331.826128 
L 555.500191 331.826575 
L 557.177208 331.310674 
L 558.800129 330.27948 
L 560.477147 328.877661 
L 562.100067 328.358539 
L 563.777085 329.064783 
L 565.454102 331.439466 
L 566.968828 333.011726 
L 568.645846 333.603419 
L 570.268766 333.452691 
L 571.945784 334.166256 
L 573.568705 335.755709 
L 575.245722 335.654712 
L 578.54566 338.182033 
L 580.222678 338.976135 
L 581.845599 339.057023 
L 583.522616 340.231396 
L 585.199634 337.378056 
L 586.71436 338.489156 
L 588.391378 341.920738 
L 590.014298 339.772908 
L 591.691316 341.005191 
L 593.314236 340.343314 
L 594.991254 340.866669 
L 596.668272 341.64823 
L 598.291192 343.777506 
L 599.96821 344.522974 
L 601.59113 344.48084 
L 603.268148 345.650876 
L 604.945166 345.48153 
L 606.513989 344.687592 
L 608.191007 345.060432 
L 609.813927 345.123584 
L 611.490945 344.306668 
L 613.113865 340.374456 
L 614.790883 337.057402 
L 616.467901 334.634198 
L 618.090821 325.09586 
L 619.767839 317.803423 
L 621.390759 326.58684 
L 623.067777 327.407859 
L 624.744795 330.027096 
L 626.259521 329.852055 
L 627.936538 328.038649 
L 629.559459 332.836329 
L 632.859397 327.720192 
L 634.536415 321.959323 
L 636.213433 320.997805 
L 637.836353 321.730168 
L 639.513371 322.096349 
L 641.136291 320.424621 
L 642.813309 317.561173 
L 644.490327 317.779783 
L 647.68207 323.663329 
L 649.304991 318.789182 
L 650.982008 312.955781 
L 652.604929 311.245833 
L 655.958964 312.617469 
L 659.258903 319.664026 
L 660.881823 320.340688 
L 662.558841 320.697097 
L 664.235858 322.63884 
L 665.750584 323.448946 
L 667.427602 328.684946 
L 669.050522 328.301009 
L 670.72754 334.031169 
L 672.350461 333.927466 
L 674.027478 337.819695 
L 675.704496 339.154765 
L 677.327416 338.081383 
L 680.627355 337.471425 
L 682.304372 336.68327 
L 685.550213 337.596151 
L 687.227231 340.277645 
L 688.850151 345.305476 
L 690.527169 344.895224 
L 692.15009 346.494341 
L 693.827107 346.633439 
L 695.504125 346.334227 
L 697.127046 343.422782 
L 698.804063 341.081186 
L 700.426984 332.60998 
L 702.104002 327.613901 
L 703.781019 326.898327 
L 705.295745 325.580266 
L 706.972763 324.323858 
L 708.595683 321.270454 
L 710.272701 307.852694 
L 713.572639 287.967669 
L 715.249657 280.979527 
L 716.872577 255.719958 
L 718.549595 285.935133 
L 720.172515 284.171904 
L 721.849533 260.027716 
L 723.526551 240.473427 
L 725.041277 201.604663 
L 726.718294 210.593901 
L 728.341215 170.370242 
L 730.018233 166.082093 
L 731.641153 163.104519 
L 733.318171 156.46855 
L 734.995189 146.704462 
L 736.618109 166.329755 
L 738.295127 194.490135 
L 739.918047 165.956315 
L 741.595065 177.072297 
L 743.272083 254.052344 
L 744.786808 277.197819 
L 746.463826 274.952241 
L 748.086747 285.2338 
L 749.763764 304.742024 
L 751.386685 303.59069 
L 753.063703 297.942884 
L 754.74072 290.411216 
L 758.040659 307.868828 
L 759.663579 299.5899 
L 761.340597 303.692351 
L 763.017614 309.510319 
L 764.586438 305.187801 
L 766.263455 305.287601 
L 767.886376 300.241034 
L 769.563393 302.400101 
L 771.186314 303.127506 
L 772.863332 298.498657 
L 774.540349 299.887106 
L 776.16327 297.738842 
L 777.840288 299.010001 
L 779.463208 303.977346 
L 781.140226 311.13205 
L 782.817244 316.965182 
L 784.331969 321.000892 
L 786.008987 322.741726 
L 787.631907 321.351734 
L 790.931846 315.464587 
L 792.608863 314.065335 
L 794.285881 317.272297 
L 795.908802 317.769752 
L 797.585819 315.878704 
L 800.885758 315.69711 
L 802.562775 312.626986 
L 804.077501 304.058111 
L 805.754519 300.281674 
L 805.754519 300.281674 
" clip-path="url(#pc5fcdb2e0f)" style="fill: none; stroke: #98971a; stroke-width: 1.5; stroke-linecap: square"/>
   </g>
   <g id="line2d_41">
    <path d="M 89.559739 359.518422 
L 91.236757 359.472083 
L 92.751482 358.90057 
L 94.4285 358.591641 
L 96.051421 358.715209 
L 97.728438 358.730659 
L 99.351359 357.232359 
L 101.028377 353.23175 
L 102.705394 352.119616 
L 104.328315 350.405068 
L 106.005333 351.795237 
L 107.628253 349.787211 
L 109.305271 347.068653 
L 110.982288 348.381592 
L 114.174032 348.381592 
L 115.796952 349.169354 
L 117.47397 350.775777 
L 119.096891 351.409078 
L 120.773908 350.65221 
L 122.450926 348.196236 
L 124.073847 344.079779 
L 127.373785 324.069008 
L 129.050802 323.543831 
L 130.72782 327.668014 
L 132.296643 327.544441 
L 133.973661 329.567917 
L 135.596581 330.371129 
L 137.273599 333.074243 
L 138.89652 337.831726 
L 140.573537 340.982781 
L 142.250555 342.293793 
L 143.873476 347.593824 
L 145.550493 346.107115 
L 147.173414 346.782893 
L 148.850432 347.354408 
L 150.527449 346.654174 
L 152.042175 346.396734 
L 153.719193 347.709676 
L 155.342113 348.443377 
L 157.019131 350.161786 
L 158.642051 351.416803 
L 160.319069 352.498048 
L 161.996087 352.253482 
L 163.619007 352.43369 
L 165.296025 353.308984 
L 166.918946 350.605869 
L 168.595963 339.252789 
L 170.272981 338.609192 
L 171.787707 333.589123 
L 173.464725 332.881163 
L 175.087645 334.908499 
L 176.764663 333.653481 
L 178.387583 334.966423 
L 180.064601 336.646215 
L 181.741619 331.915765 
L 183.364539 329.08393 
L 185.041557 330.081509 
L 186.664477 326.123378 
L 188.341495 324.385662 
L 190.018513 324.9649 
L 191.533238 327.378395 
L 193.210256 328.150713 
L 194.833177 326.509537 
L 196.510194 328.285869 
L 198.133115 328.980956 
L 199.810133 326.799156 
L 201.48715 326.440028 
L 203.110071 326.219918 
L 204.787089 323.613343 
L 206.410009 322.377635 
L 208.087027 322.261786 
L 209.764045 323.227184 
L 211.332868 325.968914 
L 213.009885 327.474935 
L 214.632806 327.281855 
L 216.309824 331.046907 
L 217.932744 336.260056 
L 219.609762 338.248776 
L 221.286779 337.090299 
L 222.9097 337.495764 
L 224.586718 338.248776 
L 226.209638 338.248776 
L 227.886656 337.804692 
L 229.563674 337.804692 
L 231.078399 340.527116 
L 232.755417 336.597945 
L 234.378337 332.108845 
L 236.055355 335.149848 
L 237.678276 336.453135 
L 239.355293 335.043654 
L 241.032311 333.421787 
L 242.655232 334.587986 
L 244.332249 332.05092 
L 245.95517 331.68407 
L 247.632188 332.695805 
L 249.309205 333.199743 
L 250.823931 332.752442 
L 252.500949 333.267322 
L 254.123869 333.460402 
L 255.800887 333.846561 
L 257.423807 336.055392 
L 260.777843 339.117634 
L 262.400763 343.886699 
L 264.077781 347.458672 
L 265.700702 353.588948 
L 267.377719 354.409537 
L 269.054737 343.37182 
L 270.569463 342.689606 
L 272.246481 346.049191 
L 273.869401 346.416042 
L 275.546419 339.513447 
L 277.169339 340.256803 
L 278.846357 341.955904 
L 280.523375 342.959917 
L 282.146295 347.104692 
L 283.823313 349.679087 
L 287.123251 349.003308 
L 288.800269 349.534277 
L 290.369092 347.786907 
L 292.04611 346.251924 
L 293.66903 345.750337 
L 295.346048 348.169556 
L 296.968968 351.113392 
L 298.645986 349.779824 
L 300.323004 348.088479 
L 301.945924 345.536652 
L 303.622942 346.589813 
L 305.245862 346.589813 
L 306.92288 350.451405 
L 310.114624 349.257822 
L 311.791641 349.495201 
L 313.414562 354.454029 
L 315.09158 354.599858 
L 318.391518 356.349567 
L 320.068535 356.919571 
L 321.691456 358.560748 
L 323.368474 358.560748 
L 326.668412 360.568775 
L 328.34543 360.568775 
L 331.537173 361.070782 
L 336.460032 360.818939 
L 338.137049 361.088335 
L 339.814067 360.977001 
L 341.436988 361.745721 
L 343.114005 361.749319 
L 344.736926 361.184875 
L 346.413944 350.104172 
L 348.090961 349.020326 
L 349.605687 345.526109 
L 351.282705 345.161864 
L 352.905625 343.596482 
L 354.582643 341.124842 
L 356.205563 341.057851 
L 359.559599 342.220378 
L 361.182519 341.103114 
L 362.859537 331.789869 
L 364.482458 318.777847 
L 366.159475 295.272984 
L 367.836493 294.352171 
L 369.405316 293.807801 
L 371.082334 296.232164 
L 372.705254 298.954409 
L 374.382272 299.919253 
L 376.005192 301.205833 
L 377.68221 303.603783 
L 379.359228 304.946636 
L 380.982148 308.801992 
L 382.659166 323.32197 
L 384.282087 321.252588 
L 385.959104 317.789419 
L 387.636122 319.577459 
L 389.150848 324.336533 
L 390.827866 321.164393 
L 392.450786 326.400299 
L 394.127804 330.040068 
L 395.750724 332.479066 
L 397.427742 326.438166 
L 399.10476 326.190559 
L 400.72768 332.282114 
L 402.404698 332.585093 
L 404.027618 329.803471 
L 405.704636 331.541505 
L 407.381654 334.516243 
L 408.89638 331.934463 
L 410.573397 327.995736 
L 412.196318 327.522012 
L 413.873336 330.283061 
L 415.496256 331.020016 
L 417.173274 322.4869 
L 418.850291 315.999437 
L 420.473212 317.749773 
L 422.15023 316.822565 
L 423.77315 289.9777 
L 425.450168 297.630621 
L 427.127186 296.110668 
L 428.641911 284.913838 
L 430.318929 281.972352 
L 431.94185 286.834978 
L 433.618867 290.748089 
L 435.241788 294.096389 
L 436.918805 299.661303 
L 438.595823 290.645259 
L 440.218744 287.171387 
L 441.895761 279.446511 
L 443.518682 259.162134 
L 445.1957 243.040757 
L 446.872717 230.724725 
L 448.44154 224.528116 
L 450.118558 228.450097 
L 451.741479 233.949397 
L 453.418496 240.538813 
L 455.041417 256.986403 
L 456.718435 293.327218 
L 458.395452 281.268953 
L 460.018373 274.357295 
L 461.69539 307.365049 
L 463.318311 328.060265 
L 464.995329 323.856553 
L 466.672346 324.0356 
L 468.187072 330.378979 
L 469.86409 326.254504 
L 471.48701 325.281621 
L 473.164028 328.908236 
L 474.786949 322.004919 
L 476.463966 317.142292 
L 478.140984 316.119167 
L 479.763904 321.393379 
L 481.440922 312.668676 
L 483.063843 312.830152 
L 484.74086 308.433545 
L 486.417878 307.189199 
L 487.932604 313.512754 
L 489.609622 306.367501 
L 492.90956 311.143913 
L 494.53248 312.511267 
L 496.209498 311.889919 
L 497.886516 307.686033 
L 499.509436 311.221312 
L 501.186454 313.990608 
L 502.809374 313.199918 
L 504.486392 310.734935 
L 506.16341 309.861829 
L 507.678136 312.199821 
L 509.355153 314.115973 
L 510.978074 312.364527 
L 512.655092 315.667241 
L 514.278012 317.067026 
L 515.95503 315.803099 
L 517.632048 317.968398 
L 519.254968 324.027012 
L 520.931986 326.98697 
L 524.231924 320.320693 
L 525.908942 322.226848 
L 527.477765 323.199802 
L 530.777703 324.166604 
L 532.454721 326.769178 
L 534.077641 327.445464 
L 535.754659 326.431743 
L 537.431677 326.167786 
L 539.054597 329.758311 
L 540.731615 334.907095 
L 542.354535 334.269792 
L 544.031553 331.887821 
L 547.223296 332.198472 
L 548.900314 330.819919 
L 550.523235 328.078299 
L 552.200252 324.891472 
L 553.823173 326.061525 
L 555.500191 329.902442 
L 557.177208 327.003159 
L 558.800129 329.540181 
L 560.477147 330.877034 
L 562.100067 330.235548 
L 563.777085 327.846315 
L 565.454102 323.293835 
L 566.968828 323.884537 
L 568.645846 325.317309 
L 570.268766 324.975365 
L 571.945784 324.256537 
L 573.568705 322.34335 
L 575.245722 321.348046 
L 576.92274 321.333863 
L 578.54566 323.20027 
L 580.222678 323.803121 
L 581.845599 323.504888 
L 583.522616 323.807232 
L 585.199634 326.269539 
L 586.71436 328.720245 
L 590.014298 324.86206 
L 591.691316 323.96029 
L 593.314236 322.524576 
L 594.991254 326.132723 
L 596.668272 328.495466 
L 598.291192 328.827966 
L 599.96821 333.5937 
L 601.59113 334.308132 
L 604.945166 336.895858 
L 606.513989 335.804351 
L 608.191007 335.776585 
L 609.813927 335.138457 
L 611.490945 334.707345 
L 613.113865 332.55598 
L 614.790883 330.685322 
L 616.467901 330.178049 
L 618.090821 327.736493 
L 619.767839 326.110389 
L 621.390759 322.509893 
L 623.067777 317.673627 
L 624.744795 304.876901 
L 626.259521 289.800911 
L 627.936538 285.877012 
L 629.559459 286.438665 
L 631.236477 282.565467 
L 632.859397 280.867215 
L 634.536415 280.996607 
L 636.213433 278.427315 
L 637.836353 278.771207 
L 639.513371 275.35419 
L 641.136291 259.113869 
L 642.813309 251.913591 
L 644.490327 246.508788 
L 646.005052 235.970806 
L 647.68207 231.078023 
L 649.304991 231.900542 
L 650.982008 245.897892 
L 652.604929 262.178931 
L 654.281947 273.524954 
L 655.958964 275.211652 
L 657.581885 277.657649 
L 659.258903 286.406241 
L 660.881823 285.942501 
L 662.558841 308.430267 
L 664.235858 321.721163 
L 665.750584 322.905385 
L 667.427602 319.558672 
L 669.050522 318.528914 
L 670.72754 326.804563 
L 672.350461 329.07313 
L 674.027478 324.753947 
L 675.704496 316.128917 
L 677.327416 316.835343 
L 679.004434 316.453695 
L 680.627355 319.48536 
L 682.304372 321.546584 
L 683.98139 319.493681 
L 685.550213 323.236382 
L 687.227231 325.636817 
L 688.850151 325.640537 
L 690.527169 326.394707 
L 692.15009 327.255563 
L 693.827107 320.462468 
L 695.504125 319.586317 
L 697.127046 319.979006 
L 698.804063 321.506643 
L 700.426984 322.057453 
L 702.104002 312.787332 
L 703.781019 297.90835 
L 705.295745 290.342373 
L 706.972763 295.58483 
L 708.595683 303.008122 
L 710.272701 303.109275 
L 711.895621 291.525026 
L 713.572639 291.538191 
L 715.249657 291.295051 
L 716.872577 286.689907 
L 718.549595 277.988638 
L 720.172515 264.187788 
L 721.849533 262.365333 
L 723.526551 260.748794 
L 725.041277 247.026497 
L 726.718294 244.967579 
L 728.341215 251.252733 
L 730.018233 260.000993 
L 731.641153 285.24729 
L 733.318171 295.13978 
L 734.995189 291.731411 
L 739.918047 291.758652 
L 741.595065 295.810866 
L 743.272083 314.747109 
L 744.786808 318.994678 
L 746.463826 318.015966 
L 748.086747 320.115312 
L 749.763764 325.967931 
L 751.386685 320.358334 
L 758.040659 320.325233 
L 759.663579 324.925255 
L 761.340597 326.986175 
L 763.017614 327.635504 
L 764.586438 327.618034 
L 766.263455 328.058702 
L 769.563393 329.868504 
L 771.186314 330.523712 
L 772.863332 332.516102 
L 774.540349 334.108598 
L 776.16327 333.878663 
L 779.463208 333.769329 
L 781.140226 334.572607 
L 782.817244 337.752831 
L 784.331969 322.594324 
L 786.008987 319.846536 
L 787.631907 319.928858 
L 789.308925 320.385384 
L 790.931846 320.492959 
L 792.608863 320.491669 
L 794.285881 319.58637 
L 795.908802 304.65951 
L 797.585819 296.946968 
L 800.885758 285.576455 
L 802.562775 285.023415 
L 805.754519 285.024809 
L 805.754519 285.024809 
" clip-path="url(#pc5fcdb2e0f)" style="fill: none; stroke: #d79921; stroke-width: 1.5; stroke-linecap: square"/>
   </g>
   <g id="line2d_42">
    <path d="M 532.454721 326.769178 
L 534.077641 326.82123 
L 535.754659 326.741355 
L 537.431677 326.470834 
L 539.054597 326.064113 
L 540.731615 325.840282 
L 545.708571 325.836116 
L 548.900314 325.494602 
L 550.523235 325.154848 
L 560.477147 324.793013 
L 563.777085 324.472044 
L 565.454102 324.699309 
L 566.968828 325.393135 
L 568.645846 327.3848 
L 570.268766 327.559869 
L 571.945784 327.508423 
L 576.92274 326.85034 
L 580.222678 326.757254 
L 581.845599 327.225652 
L 585.199634 327.655517 
L 586.71436 327.565757 
L 588.391378 327.303908 
L 590.014298 327.313092 
L 591.691316 325.278116 
L 593.314236 325.094159 
L 594.991254 326.03611 
L 596.668272 326.255041 
L 598.291192 324.470189 
L 599.96821 322.97945 
L 601.59113 320.303937 
L 603.268148 320.711012 
L 604.945166 320.539645 
L 606.513989 316.718499 
L 608.191007 314.080832 
L 609.813927 299.225518 
L 611.490945 297.006765 
L 613.113865 297.954331 
L 614.790883 297.636666 
L 616.467901 297.8957 
L 618.090821 293.081224 
L 619.767839 289.469988 
L 621.390759 290.447761 
L 624.744795 289.862906 
L 626.259521 290.134367 
L 629.559459 290.02237 
L 631.236477 289.067318 
L 632.859397 288.650718 
L 637.836353 284.782756 
L 639.513371 278.835347 
L 641.136291 274.707756 
L 642.813309 272.303719 
L 644.490327 270.555867 
L 646.005052 270.553412 
L 647.68207 270.215228 
L 649.304991 270.579778 
L 650.982008 270.061529 
L 652.604929 275.859524 
L 654.281947 279.505603 
L 655.958964 281.456292 
L 657.581885 283.838755 
L 659.258903 287.101976 
L 660.881823 287.655026 
L 662.558841 289.145227 
L 664.235858 289.323759 
L 665.750584 290.031834 
L 667.427602 292.50567 
L 669.050522 295.500811 
L 670.72754 297.726132 
L 672.350461 302.337661 
L 674.027478 306.71811 
L 675.704496 307.896842 
L 677.327416 308.487946 
L 679.004434 311.414336 
L 680.627355 312.965486 
L 682.304372 312.16397 
L 683.98139 312.461289 
L 685.550213 311.990001 
L 687.227231 315.197521 
L 688.850151 317.621352 
L 690.527169 320.44398 
L 692.15009 323.768849 
L 695.504125 322.8553 
L 697.127046 322.763595 
L 698.804063 322.034862 
L 700.426984 321.143184 
L 702.104002 317.903098 
L 703.781019 315.410121 
L 705.295745 311.68737 
L 706.972763 308.540539 
L 708.595683 305.197015 
L 710.272701 303.762346 
L 711.895621 304.289888 
L 713.572639 298.550109 
L 715.249657 285.433321 
L 718.549595 256.849028 
L 720.172515 242.248199 
L 721.849533 184.985958 
L 723.526551 132.588675 
L 725.041277 40.188604 
L 726.718294 28.417075 
L 728.341215 54.153684 
L 730.018233 60.852219 
L 731.641153 62.674297 
L 733.318171 66.695806 
L 734.995189 78.236095 
L 736.618109 85.099308 
L 738.295127 84.43558 
L 739.918047 76.088565 
L 741.595065 70.3398 
L 743.272083 80.132408 
L 746.463826 168.380783 
L 748.086747 214.298475 
L 749.763764 185.957798 
L 751.386685 183.541154 
L 753.063703 197.390154 
L 754.74072 226.359363 
L 756.363641 245.919117 
L 758.040659 252.482621 
L 759.663579 265.897221 
L 761.340597 285.536057 
L 763.017614 286.186854 
L 764.586438 284.333999 
L 767.886376 284.250689 
L 769.563393 286.281714 
L 772.863332 296.097897 
L 774.540349 298.771996 
L 776.16327 299.463915 
L 779.463208 303.753688 
L 781.140226 307.439038 
L 782.817244 307.722601 
L 784.331969 308.643437 
L 786.008987 311.649527 
L 787.631907 313.760259 
L 789.308925 317.369903 
L 790.931846 317.180523 
L 792.608863 314.236009 
L 794.285881 312.073574 
L 795.908802 313.231065 
L 797.585819 311.383955 
L 799.20874 304.647466 
L 800.885758 279.375823 
L 802.562775 266.918016 
L 804.077501 262.561153 
L 805.754519 259.361628 
L 805.754519 259.361628 
" clip-path="url(#pc5fcdb2e0f)" style="fill: none; stroke: #458588; stroke-width: 1.5; stroke-linecap: square"/>
   </g>
   <g id="line2d_43">
    <path d="M 532.454721 326.769178 
L 534.077641 329.573314 
L 535.754659 341.918488 
L 537.431677 341.740101 
L 539.054597 343.215833 
L 540.731615 347.552602 
L 542.354535 347.805061 
L 544.031553 349.204391 
L 545.708571 350.053016 
L 547.223296 353.132852 
L 553.823173 352.890796 
L 560.477147 352.767013 
L 562.100067 353.170936 
L 563.777085 354.557237 
L 568.645846 355.138056 
L 571.945784 355.155296 
L 578.54566 354.876783 
L 580.222678 354.878319 
L 583.522616 355.120581 
L 585.199634 355.209534 
L 593.314236 355.096254 
L 594.991254 355.426635 
L 596.668272 355.503424 
L 598.291192 355.457112 
L 599.96821 356.614284 
L 601.59113 356.985531 
L 603.268148 357.237529 
L 606.513989 357.103823 
L 608.191007 356.495686 
L 609.813927 356.207922 
L 611.490945 356.352258 
L 613.113865 357.275446 
L 614.790883 358.02329 
L 618.090821 358.179502 
L 619.767839 358.395129 
L 621.390759 357.956129 
L 626.259521 357.904393 
L 627.936538 357.893652 
L 631.236477 357.42656 
L 632.859397 357.356259 
L 636.213433 356.919862 
L 637.836353 357.043901 
L 641.136291 356.973788 
L 644.490327 356.357848 
L 647.68207 356.307314 
L 650.982008 356.686103 
L 652.604929 357.236135 
L 654.281947 357.511136 
L 655.958964 357.520704 
L 657.581885 357.660691 
L 659.258903 357.690499 
L 667.427602 357.239644 
L 669.050522 359.441379 
L 672.350461 353.985244 
L 674.027478 357.502301 
L 675.704496 357.744229 
L 680.627355 359.011939 
L 682.304372 358.843057 
L 685.550213 359.016445 
L 688.850151 359.162771 
L 692.15009 358.995921 
L 693.827107 358.70742 
L 697.127046 358.645494 
L 698.804063 357.990378 
L 700.426984 357.019809 
L 702.104002 356.870767 
L 703.781019 356.300662 
L 705.295745 351.741895 
L 706.972763 351.782254 
L 708.595683 352.172972 
L 710.272701 352.760832 
L 711.895621 347.941526 
L 713.572639 339.663417 
L 715.249657 340.562239 
L 716.872577 338.807381 
L 718.549595 330.349796 
L 720.172515 326.845637 
L 721.849533 324.316195 
L 723.526551 316.858156 
L 725.041277 316.902009 
L 726.718294 326.417655 
L 728.341215 326.103795 
L 730.018233 324.150784 
L 731.641153 329.022804 
L 733.318171 336.465217 
L 734.995189 341.868693 
L 736.618109 340.093833 
L 738.295127 341.15156 
L 739.918047 338.345626 
L 741.595065 335.932988 
L 743.272083 336.78488 
L 744.786808 343.238053 
L 746.463826 347.723884 
L 748.086747 349.181332 
L 749.763764 348.596412 
L 751.386685 350.530829 
L 753.063703 349.609544 
L 754.74072 347.484107 
L 756.363641 347.597088 
L 758.040659 348.19727 
L 761.340597 352.36932 
L 763.017614 353.22175 
L 764.586438 354.983569 
L 766.263455 353.734778 
L 767.886376 353.112361 
L 769.563393 354.614641 
L 771.186314 354.730594 
L 772.863332 353.376005 
L 774.540349 351.477588 
L 776.16327 351.272676 
L 779.463208 352.798676 
L 781.140226 352.734189 
L 782.817244 351.43098 
L 784.331969 350.973549 
L 786.008987 351.934696 
L 787.631907 351.652955 
L 789.308925 350.795313 
L 790.931846 349.124918 
L 792.608863 344.841025 
L 794.285881 344.484933 
L 795.908802 346.4465 
L 797.585819 345.582482 
L 799.20874 343.528755 
L 800.885758 339.795393 
L 802.562775 331.371008 
L 804.077501 334.094642 
L 805.754519 333.834467 
L 805.754519 333.834467 
" clip-path="url(#pc5fcdb2e0f)" style="fill: none; stroke: #b16286; stroke-width: 1.5; stroke-linecap: square"/>
   </g>
   <g id="patch_3">
    <path d="M 53.75 371.304 
L 53.75 11.508665 
" style="fill: none; stroke: #333333; stroke-width: 0.8; stroke-linejoin: miter; stroke-linecap: square"/>
   </g>
   <g id="patch_4">
    <path d="M 841.564258 371.304 
L 841.564258 11.508665 
" style="fill: none; stroke: #333333; stroke-width: 0.8; stroke-linejoin: miter; stroke-linecap: square"/>
   </g>
   <g id="patch_5">
    <path d="M 53.75 371.304 
L 841.564258 371.304 
" style="fill: none; stroke: #333333; stroke-width: 0.8; stroke-linejoin: miter; stroke-linecap: square"/>
   </g>
   <g id="patch_6">
    <path d="M 53.75 11.508665 
L 841.564258 11.508665 
" style="fill: none; stroke: #333333; stroke-width: 0.8; stroke-linejoin: miter; stroke-linecap: square"/>
   </g>
   <g id="text_22">
    <!-- Quelle: IMF Primary Commodity Prices -->
    <g style="fill: #a9a9a9" transform="translate(688.446758 423.60955) scale(0.08 -0.08)">
     <defs>
      <path id="DejaVuSans-51" d="M 2522 4238 
Q 1834 4238 1429 3725 
Q 1025 3213 1025 2328 
Q 1025 1447 1429 934 
Q 1834 422 2522 422 
Q 3209 422 3611 934 
Q 4013 1447 4013 2328 
Q 4013 3213 3611 3725 
Q 3209 4238 2522 4238 
z
M 3406 84 
L 4238 -825 
L 3475 -825 
L 2784 -78 
Q 2681 -84 2626 -87 
Q 2572 -91 2522 -91 
Q 1538 -91 948 567 
Q 359 1225 359 2328 
Q 359 3434 948 4092 
Q 1538 4750 2522 4750 
Q 3503 4750 4090 4092 
Q 4678 3434 4678 2328 
Q 4678 1516 4351 937 
Q 4025 359 3406 84 
z
" transform="scale(0.015625)"/>
      <path id="DejaVuSans-6c" d="M 603 4863 
L 1178 4863 
L 1178 0 
L 603 0 
L 603 4863 
z
" transform="scale(0.015625)"/>
      <path id="DejaVuSans-3a" d="M 750 794 
L 1409 794 
L 1409 0 
L 750 0 
L 750 794 
z
M 750 3309 
L 1409 3309 
L 1409 2516 
L 750 2516 
L 750 3309 
z
" transform="scale(0.015625)"/>
      <path id="DejaVuSans-4d" d="M 628 4666 
L 1569 4666 
L 2759 1491 
L 3956 4666 
L 4897 4666 
L 4897 0 
L 4281 0 
L 4281 4097 
L 3078 897 
L 2444 897 
L 1241 4097 
L 1241 0 
L 628 0 
L 628 4666 
z
" transform="scale(0.015625)"/>
      <path id="DejaVuSans-46" d="M 628 4666 
L 3309 4666 
L 3309 4134 
L 1259 4134 
L 1259 2759 
L 3109 2759 
L 3109 2228 
L 1259 2228 
L 1259 0 
L 628 0 
L 628 4666 
z
" transform="scale(0.015625)"/>
      <path id="DejaVuSans-50" d="M 1259 4147 
L 1259 2394 
L 2053 2394 
Q 2494 2394 2734 2622 
Q 2975 2850 2975 3272 
Q 2975 3691 2734 3919 
Q 2494 4147 2053 4147 
L 1259 4147 
z
M 628 4666 
L 2053 4666 
Q 2838 4666 3239 4311 
Q 3641 3956 3641 3272 
Q 3641 2581 3239 2228 
Q 2838 1875 2053 1875 
L 1259 1875 
L 1259 0 
L 628 0 
L 628 4666 
z
" transform="scale(0.015625)"/>
      <path id="DejaVuSans-69" d="M 603 3500 
L 1178 3500 
L 1178 0 
L 603 0 
L 603 3500 
z
M 603 4863 
L 1178 4863 
L 1178 4134 
L 603 4134 
L 603 4863 
z
" transform="scale(0.015625)"/>
      <path id="DejaVuSans-6d" d="M 3328 2828 
Q 3544 3216 3844 3400 
Q 4144 3584 4550 3584 
Q 5097 3584 5394 3201 
Q 5691 2819 5691 2113 
L 5691 0 
L 5113 0 
L 5113 2094 
Q 5113 2597 4934 2840 
Q 4756 3084 4391 3084 
Q 3944 3084 3684 2787 
Q 3425 2491 3425 1978 
L 3425 0 
L 2847 0 
L 2847 2094 
Q 2847 2600 2669 2842 
Q 2491 3084 2119 3084 
Q 1678 3084 1418 2786 
Q 1159 2488 1159 1978 
L 1159 0 
L 581 0 
L 581 3500 
L 1159 3500 
L 1159 2956 
Q 1356 3278 1631 3431 
Q 1906 3584 2284 3584 
Q 2666 3584 2933 3390 
Q 3200 3197 3328 2828 
z
" transform="scale(0.015625)"/>
      <path id="DejaVuSans-79" d="M 2059 -325 
Q 1816 -950 1584 -1140 
Q 1353 -1331 966 -1331 
L 506 -1331 
L 506 -850 
L 844 -850 
Q 1081 -850 1212 -737 
Q 1344 -625 1503 -206 
L 1606 56 
L 191 3500 
L 800 3500 
L 1894 763 
L 2988 3500 
L 3597 3500 
L 2059 -325 
z
" transform="scale(0.015625)"/>
      <path id="DejaVuSans-43" d="M 4122 4306 
L 4122 3641 
Q 3803 3938 3442 4084 
Q 3081 4231 2675 4231 
Q 1875 4231 1450 3742 
Q 1025 3253 1025 2328 
Q 1025 1406 1450 917 
Q 1875 428 2675 428 
Q 3081 428 3442 575 
Q 3803 722 4122 1019 
L 4122 359 
Q 3791 134 3420 21 
Q 3050 -91 2638 -91 
Q 1578 -91 968 557 
Q 359 1206 359 2328 
Q 359 3453 968 4101 
Q 1578 4750 2638 4750 
Q 3056 4750 3426 4639 
Q 3797 4528 4122 4306 
z
" transform="scale(0.015625)"/>
      <path id="DejaVuSans-6f" d="M 1959 3097 
Q 1497 3097 1228 2736 
Q 959 2375 959 1747 
Q 959 1119 1226 758 
Q 1494 397 1959 397 
Q 2419 397 2687 759 
Q 2956 1122 2956 1747 
Q 2956 2369 2687 2733 
Q 2419 3097 1959 3097 
z
M 1959 3584 
Q 2709 3584 3137 3096 
Q 3566 2609 3566 1747 
Q 3566 888 3137 398 
Q 2709 -91 1959 -91 
Q 1206 -91 779 398 
Q 353 888 353 1747 
Q 353 2609 779 3096 
Q 1206 3584 1959 3584 
z
" transform="scale(0.015625)"/>
      <path id="DejaVuSans-74" d="M 1172 4494 
L 1172 3500 
L 2356 3500 
L 2356 3053 
L 1172 3053 
L 1172 1153 
Q 1172 725 1289 603 
Q 1406 481 1766 481 
L 2356 481 
L 2356 0 
L 1766 0 
Q 1100 0 847 248 
Q 594 497 594 1153 
L 594 3053 
L 172 3053 
L 172 3500 
L 594 3500 
L 594 4494 
L 1172 4494 
z
" transform="scale(0.015625)"/>
      <path id="DejaVuSans-63" d="M 3122 3366 
L 3122 2828 
Q 2878 2963 2633 3030 
Q 2388 3097 2138 3097 
Q 1578 3097 1268 2742 
Q 959 2388 959 1747 
Q 959 1106 1268 751 
Q 1578 397 2138 397 
Q 2388 397 2633 464 
Q 2878 531 3122 666 
L 3122 134 
Q 2881 22 2623 -34 
Q 2366 -91 2075 -91 
Q 1284 -91 818 406 
Q 353 903 353 1747 
Q 353 2603 823 3093 
Q 1294 3584 2113 3584 
Q 2378 3584 2631 3529 
Q 2884 3475 3122 3366 
z
" transform="scale(0.015625)"/>
      <path id="DejaVuSans-73" d="M 2834 3397 
L 2834 2853 
Q 2591 2978 2328 3040 
Q 2066 3103 1784 3103 
Q 1356 3103 1142 2972 
Q 928 2841 928 2578 
Q 928 2378 1081 2264 
Q 1234 2150 1697 2047 
L 1894 2003 
Q 2506 1872 2764 1633 
Q 3022 1394 3022 966 
Q 3022 478 2636 193 
Q 2250 -91 1575 -91 
Q 1294 -91 989 -36 
Q 684 19 347 128 
L 347 722 
Q 666 556 975 473 
Q 1284 391 1588 391 
Q 1994 391 2212 530 
Q 2431 669 2431 922 
Q 2431 1156 2273 1281 
Q 2116 1406 1581 1522 
L 1381 1569 
Q 847 1681 609 1914 
Q 372 2147 372 2553 
Q 372 3047 722 3315 
Q 1072 3584 1716 3584 
Q 2034 3584 2315 3537 
Q 2597 3491 2834 3397 
z
" transform="scale(0.015625)"/>
     </defs>
     <use xlink:href="#DejaVuSans-51"/>
     <use xlink:href="#DejaVuSans-75" x="78.710938"/>
     <use xlink:href="#DejaVuSans-65" x="142.089844"/>
     <use xlink:href="#DejaVuSans-6c" x="203.613281"/>
     <use xlink:href="#DejaVuSans-6c" x="231.396484"/>
     <use xlink:href="#DejaVuSans-65" x="259.179688"/>
     <use xlink:href="#DejaVuSans-3a" x="320.703125"/>
     <use xlink:href="#DejaVuSans-20" x="354.394531"/>
     <use xlink:href="#DejaVuSans-49" x="386.181641"/>
     <use xlink:href="#DejaVuSans-4d" x="415.673828"/>
     <use xlink:href="#DejaVuSans-46" x="501.953125"/>
     <use xlink:href="#DejaVuSans-20" x="559.472656"/>
     <use xlink:href="#DejaVuSans-50" x="591.259766"/>
     <use xlink:href="#DejaVuSans-72" x="649.8125"/>
     <use xlink:href="#DejaVuSans-69" x="690.925781"/>
     <use xlink:href="#DejaVuSans-6d" x="718.708984"/>
     <use xlink:href="#DejaVuSans-61" x="816.121094"/>
     <use xlink:href="#DejaVuSans-72" x="877.400391"/>
     <use xlink:href="#DejaVuSans-79" x="918.513672"/>
     <use xlink:href="#DejaVuSans-20" x="977.693359"/>
     <use xlink:href="#DejaVuSans-43" x="1009.480469"/>
     <use xlink:href="#DejaVuSans-6f" x="1079.304688"/>
     <use xlink:href="#DejaVuSans-6d" x="1140.486328"/>
     <use xlink:href="#DejaVuSans-6d" x="1237.898438"/>
     <use xlink:href="#DejaVuSans-6f" x="1335.310547"/>
     <use xlink:href="#DejaVuSans-64" x="1396.492188"/>
     <use xlink:href="#DejaVuSans-69" x="1459.96875"/>
     <use xlink:href="#DejaVuSans-74" x="1487.751953"/>
     <use xlink:href="#DejaVuSans-79" x="1526.960938"/>
     <use xlink:href="#DejaVuSans-20" x="1586.140625"/>
     <use xlink:href="#DejaVuSans-50" x="1617.927734"/>
     <use xlink:href="#DejaVuSans-72" x="1676.480469"/>
     <use xlink:href="#DejaVuSans-69" x="1717.59375"/>
     <use xlink:href="#DejaVuSans-63" x="1745.376953"/>
     <use xlink:href="#DejaVuSans-65" x="1800.357422"/>
     <use xlink:href="#DejaVuSans-73" x="1861.880859"/>
    </g>
   </g>
   <g id="legend_1">
    <g id="patch_7">
     <path d="M 60.75 92.89929 
L 162.865625 92.89929 
Q 164.865625 92.89929 164.865625 90.89929 
L 164.865625 18.508665 
Q 164.865625 16.508665 162.865625 16.508665 
L 60.75 16.508665 
Q 58.75 16.508665 58.75 18.508665 
L 58.75 90.89929 
Q 58.75 92.89929 60.75 92.89929 
z
" style="opacity: 0.7; stroke: #cccccc; stroke-linejoin: miter"/>
    </g>
    <g id="line2d_44">
     <path d="M 62.75 24.607103 
L 72.75 24.607103 
L 82.75 24.607103 
" style="fill: none; stroke: #cc241d; stroke-width: 1.5; stroke-linecap: square"/>
    </g>
    <g id="text_23">
     <!-- Erdöl (Brent) -->
     <g style="fill: #e6e6e6" transform="translate(90.75 28.107103) scale(0.1 -0.1)">
      <defs>
       <path id="DejaVuSans-45" d="M 628 4666 
L 3578 4666 
L 3578 4134 
L 1259 4134 
L 1259 2753 
L 3481 2753 
L 3481 2222 
L 1259 2222 
L 1259 531 
L 3634 531 
L 3634 0 
L 628 0 
L 628 4666 
z
" transform="scale(0.015625)"/>
       <path id="DejaVuSans-f6" d="M 1959 3097 
Q 1497 3097 1228 2736 
Q 959 2375 959 1747 
Q 959 1119 1226 758 
Q 1494 397 1959 397 
Q 2419 397 2687 759 
Q 2956 1122 2956 1747 
Q 2956 2369 2687 2733 
Q 2419 3097 1959 3097 
z
M 1959 3584 
Q 2709 3584 3137 3096 
Q 3566 2609 3566 1747 
Q 3566 888 3137 398 
Q 2709 -91 1959 -91 
Q 1206 -91 779 398 
Q 353 888 353 1747 
Q 353 2609 779 3096 
Q 1206 3584 1959 3584 
z
M 2254 4850 
L 2888 4850 
L 2888 4219 
L 2254 4219 
L 2254 4850 
z
M 1032 4850 
L 1666 4850 
L 1666 4219 
L 1032 4219 
L 1032 4850 
z
" transform="scale(0.015625)"/>
       <path id="DejaVuSans-42" d="M 1259 2228 
L 1259 519 
L 2272 519 
Q 2781 519 3026 730 
Q 3272 941 3272 1375 
Q 3272 1813 3026 2020 
Q 2781 2228 2272 2228 
L 1259 2228 
z
M 1259 4147 
L 1259 2741 
L 2194 2741 
Q 2656 2741 2882 2914 
Q 3109 3088 3109 3444 
Q 3109 3797 2882 3972 
Q 2656 4147 2194 4147 
L 1259 4147 
z
M 628 4666 
L 2241 4666 
Q 2963 4666 3353 4366 
Q 3744 4066 3744 3513 
Q 3744 3084 3544 2831 
Q 3344 2578 2956 2516 
Q 3422 2416 3680 2098 
Q 3938 1781 3938 1306 
Q 3938 681 3513 340 
Q 3088 0 2303 0 
L 628 0 
L 628 4666 
z
" transform="scale(0.015625)"/>
      </defs>
      <use xlink:href="#DejaVuSans-45"/>
      <use xlink:href="#DejaVuSans-72" x="63.183594"/>
      <use xlink:href="#DejaVuSans-64" x="102.546875"/>
      <use xlink:href="#DejaVuSans-f6" x="166.023438"/>
      <use xlink:href="#DejaVuSans-6c" x="227.205078"/>
      <use xlink:href="#DejaVuSans-20" x="254.988281"/>
      <use xlink:href="#DejaVuSans-28" x="286.775391"/>
      <use xlink:href="#DejaVuSans-42" x="325.789062"/>
      <use xlink:href="#DejaVuSans-72" x="394.392578"/>
      <use xlink:href="#DejaVuSans-65" x="433.255859"/>
      <use xlink:href="#DejaVuSans-6e" x="494.779297"/>
      <use xlink:href="#DejaVuSans-74" x="558.158203"/>
      <use xlink:href="#DejaVuSans-29" x="597.367188"/>
     </g>
    </g>
    <g id="line2d_45">
     <path d="M 62.75 39.285228 
L 72.75 39.285228 
L 82.75 39.285228 
" style="fill: none; stroke: #98971a; stroke-width: 1.5; stroke-linecap: square"/>
    </g>
    <g id="text_24">
     <!-- Steinkohle -->
     <g style="fill: #e6e6e6" transform="translate(90.75 42.785228) scale(0.1 -0.1)">
      <defs>
       <path id="DejaVuSans-53" d="M 3425 4513 
L 3425 3897 
Q 3066 4069 2747 4153 
Q 2428 4238 2131 4238 
Q 1616 4238 1336 4038 
Q 1056 3838 1056 3469 
Q 1056 3159 1242 3001 
Q 1428 2844 1947 2747 
L 2328 2669 
Q 3034 2534 3370 2195 
Q 3706 1856 3706 1288 
Q 3706 609 3251 259 
Q 2797 -91 1919 -91 
Q 1588 -91 1214 -16 
Q 841 59 441 206 
L 441 856 
Q 825 641 1194 531 
Q 1563 422 1919 422 
Q 2459 422 2753 634 
Q 3047 847 3047 1241 
Q 3047 1584 2836 1778 
Q 2625 1972 2144 2069 
L 1759 2144 
Q 1053 2284 737 2584 
Q 422 2884 422 3419 
Q 422 4038 858 4394 
Q 1294 4750 2059 4750 
Q 2388 4750 2728 4690 
Q 3069 4631 3425 4513 
z
" transform="scale(0.015625)"/>
       <path id="DejaVuSans-6b" d="M 581 4863 
L 1159 4863 
L 1159 1991 
L 2875 3500 
L 3609 3500 
L 1753 1863 
L 3688 0 
L 2938 0 
L 1159 1709 
L 1159 0 
L 581 0 
L 581 4863 
z
" transform="scale(0.015625)"/>
      </defs>
      <use xlink:href="#DejaVuSans-53"/>
      <use xlink:href="#DejaVuSans-74" x="63.476562"/>
      <use xlink:href="#DejaVuSans-65" x="102.685547"/>
      <use xlink:href="#DejaVuSans-69" x="164.208984"/>
      <use xlink:href="#DejaVuSans-6e" x="191.992188"/>
      <use xlink:href="#DejaVuSans-6b" x="255.371094"/>
      <use xlink:href="#DejaVuSans-6f" x="309.65625"/>
      <use xlink:href="#DejaVuSans-68" x="370.837891"/>
      <use xlink:href="#DejaVuSans-6c" x="434.216797"/>
      <use xlink:href="#DejaVuSans-65" x="462"/>
     </g>
    </g>
    <g id="line2d_46">
     <path d="M 62.75 53.963353 
L 72.75 53.963353 
L 82.75 53.963353 
" style="fill: none; stroke: #d79921; stroke-width: 1.5; stroke-linecap: square"/>
    </g>
    <g id="text_25">
     <!-- Kobalt -->
     <g style="fill: #e6e6e6" transform="translate(90.75 57.463353) scale(0.1 -0.1)">
      <defs>
       <path id="DejaVuSans-4b" d="M 628 4666 
L 1259 4666 
L 1259 2694 
L 3353 4666 
L 4166 4666 
L 1850 2491 
L 4331 0 
L 3500 0 
L 1259 2247 
L 1259 0 
L 628 0 
L 628 4666 
z
" transform="scale(0.015625)"/>
       <path id="DejaVuSans-62" d="M 3116 1747 
Q 3116 2381 2855 2742 
Q 2594 3103 2138 3103 
Q 1681 3103 1420 2742 
Q 1159 2381 1159 1747 
Q 1159 1113 1420 752 
Q 1681 391 2138 391 
Q 2594 391 2855 752 
Q 3116 1113 3116 1747 
z
M 1159 2969 
Q 1341 3281 1617 3432 
Q 1894 3584 2278 3584 
Q 2916 3584 3314 3078 
Q 3713 2572 3713 1747 
Q 3713 922 3314 415 
Q 2916 -91 2278 -91 
Q 1894 -91 1617 61 
Q 1341 213 1159 525 
L 1159 0 
L 581 0 
L 581 4863 
L 1159 4863 
L 1159 2969 
z
" transform="scale(0.015625)"/>
      </defs>
      <use xlink:href="#DejaVuSans-4b"/>
      <use xlink:href="#DejaVuSans-6f" x="60.576172"/>
      <use xlink:href="#DejaVuSans-62" x="121.757812"/>
      <use xlink:href="#DejaVuSans-61" x="185.234375"/>
      <use xlink:href="#DejaVuSans-6c" x="246.513672"/>
      <use xlink:href="#DejaVuSans-74" x="274.296875"/>
     </g>
    </g>
    <g id="line2d_47">
     <path d="M 62.75 68.641478 
L 72.75 68.641478 
L 82.75 68.641478 
" style="fill: none; stroke: #458588; stroke-width: 1.5; stroke-linecap: square"/>
    </g>
    <g id="text_26">
     <!-- Lithium -->
     <g style="fill: #e6e6e6" transform="translate(90.75 72.141478) scale(0.1 -0.1)">
      <defs>
       <path id="DejaVuSans-4c" d="M 628 4666 
L 1259 4666 
L 1259 531 
L 3531 531 
L 3531 0 
L 628 0 
L 628 4666 
z
" transform="scale(0.015625)"/>
      </defs>
      <use xlink:href="#DejaVuSans-4c"/>
      <use xlink:href="#DejaVuSans-69" x="55.712891"/>
      <use xlink:href="#DejaVuSans-74" x="83.496094"/>
      <use xlink:href="#DejaVuSans-68" x="122.705078"/>
      <use xlink:href="#DejaVuSans-69" x="186.083984"/>
      <use xlink:href="#DejaVuSans-75" x="213.867188"/>
      <use xlink:href="#DejaVuSans-6d" x="277.246094"/>
     </g>
    </g>
    <g id="line2d_48">
     <path d="M 62.75 83.319603 
L 72.75 83.319603 
L 82.75 83.319603 
" style="fill: none; stroke: #b16286; stroke-width: 1.5; stroke-linecap: square"/>
    </g>
    <g id="text_27">
     <!-- Seltene Erden -->
     <g style="fill: #e6e6e6" transform="translate(90.75 86.819603) scale(0.1 -0.1)">
      <use xlink:href="#DejaVuSans-53"/>
      <use xlink:href="#DejaVuSans-65" x="63.476562"/>
      <use xlink:href="#DejaVuSans-6c" x="125"/>
      <use xlink:href="#DejaVuSans-74" x="152.783203"/>
      <use xlink:href="#DejaVuSans-65" x="191.992188"/>
      <use xlink:href="#DejaVuSans-6e" x="253.515625"/>
      <use xlink:href="#DejaVuSans-65" x="316.894531"/>
      <use xlink:href="#DejaVuSans-20" x="378.417969"/>
      <use xlink:href="#DejaVuSans-45" x="410.205078"/>
      <use xlink:href="#DejaVuSans-72" x="473.388672"/>
      <use xlink:href="#DejaVuSans-64" x="512.751953"/>
      <use xlink:href="#DejaVuSans-65" x="576.228516"/>
      <use xlink:href="#DejaVuSans-6e" x="637.751953"/>
     </g>
    </g>
   </g>
  </g>
 </g>
 <defs>
  <clipPath id="pc5fcdb2e0f">
   <rect x="53.75" y="11.508665" width="787.814258" height="359.795335"/>
  </clipPath>
 </defs>
</svg>
