<?xml version="1.0" encoding="utf-8" standalone="no"?>
<!DOCTYPE svg PUBLIC "-//W3C//DTD SVG 1.1//EN"
  "http://www.w3.org/Graphics/SVG/1.1/DTD/svg11.dtd">
<svg xmlns:xlink="http://www.w3.org/1999/xlink" width="864pt" height="432pt" viewBox="0 0 864 432" xmlns="http://www.w3.org/2000/svg" version="1.1">
 <metadata>
  <rdf:RDF xmlns:dc="http://purl.org/dc/elements/1.1/" xmlns:cc="http://creativecommons.org/ns#" xmlns:rdf="http://www.w3.org/1999/02/22-rdf-syntax-ns#">
   <cc:Work>
    <dc:type rdf:resource="http://purl.org/dc/dcmitype/StillImage"/>
    <dc:date>2026-05-16T12:46:37.176759</dc:date>
    <dc:format>image/svg+xml</dc:format>
    <dc:creator>
     <cc:Agent>
      <dc:title>Matplotlib v3.7.2, https://matplotlib.org/</dc:title>
     </cc:Agent>
    </dc:creator>
   </cc:Work>
  </rdf:RDF>
 </metadata>
 <defs>
  <style type="text/css">*{stroke-linejoin: round; stroke-linecap: butt}</style>
 </defs>
 <g id="figure_1">
  <g id="patch_1">
   <path d="M 0 432 
L 864 432 
L 864 0 
L 0 0 
L 0 432 
z
" style="fill: none"/>
  </g>
  <g id="axes_1">
   <g id="patch_2">
    <path d="M 47.45 371.304 
L 853.2 371.304 
L 853.2 10.8 
L 47.45 10.8 
L 47.45 371.304 
z
" style="fill: none"/>
   </g>
   <g id="matplotlib.axis_1">
    <g id="xtick_1">
     <g id="line2d_1">
      <path d="M 84.075 371.304 
L 84.075 10.8 
" clip-path="url(#pce714361e4)" style="fill: none; stroke-dasharray: 1.85,0.8; stroke-dashoffset: 0; stroke: #808080; stroke-width: 0.5"/>
     </g>
     <g id="line2d_2">
      <defs>
       <path id="mf322c5d7c3" d="M 0 0 
L 0 3.5 
" style="stroke: #ffffff; stroke-width: 0.8"/>
      </defs>
      <g>
       <use xlink:href="#mf322c5d7c3" x="84.075" y="371.304" style="fill: #ffffff; stroke: #ffffff; stroke-width: 0.8"/>
      </g>
     </g>
     <g id="text_1">
      <!-- 1980 -->
      <g style="fill: #ffffff" transform="translate(71.35 385.902438) scale(0.1 -0.1)">
       <defs>
        <path id="DejaVuSans-31" d="M 794 531 
L 1825 531 
L 1825 4091 
L 703 3866 
L 703 4441 
L 1819 4666 
L 2450 4666 
L 2450 531 
L 3481 531 
L 3481 0 
L 794 0 
L 794 531 
z
" transform="scale(0.015625)"/>
        <path id="DejaVuSans-39" d="M 703 97 
L 703 672 
Q 941 559 1184 500 
Q 1428 441 1663 441 
Q 2288 441 2617 861 
Q 2947 1281 2994 2138 
Q 2813 1869 2534 1725 
Q 2256 1581 1919 1581 
Q 1219 1581 811 2004 
Q 403 2428 403 3163 
Q 403 3881 828 4315 
Q 1253 4750 1959 4750 
Q 2769 4750 3195 4129 
Q 3622 3509 3622 2328 
Q 3622 1225 3098 567 
Q 2575 -91 1691 -91 
Q 1453 -91 1209 -44 
Q 966 3 703 97 
z
M 1959 2075 
Q 2384 2075 2632 2365 
Q 2881 2656 2881 3163 
Q 2881 3666 2632 3958 
Q 2384 4250 1959 4250 
Q 1534 4250 1286 3958 
Q 1038 3666 1038 3163 
Q 1038 2656 1286 2365 
Q 1534 2075 1959 2075 
z
" transform="scale(0.015625)"/>
        <path id="DejaVuSans-38" d="M 2034 2216 
Q 1584 2216 1326 1975 
Q 1069 1734 1069 1313 
Q 1069 891 1326 650 
Q 1584 409 2034 409 
Q 2484 409 2743 651 
Q 3003 894 3003 1313 
Q 3003 1734 2745 1975 
Q 2488 2216 2034 2216 
z
M 1403 2484 
Q 997 2584 770 2862 
Q 544 3141 544 3541 
Q 544 4100 942 4425 
Q 1341 4750 2034 4750 
Q 2731 4750 3128 4425 
Q 3525 4100 3525 3541 
Q 3525 3141 3298 2862 
Q 3072 2584 2669 2484 
Q 3125 2378 3379 2068 
Q 3634 1759 3634 1313 
Q 3634 634 3220 271 
Q 2806 -91 2034 -91 
Q 1263 -91 848 271 
Q 434 634 434 1313 
Q 434 1759 690 2068 
Q 947 2378 1403 2484 
z
M 1172 3481 
Q 1172 3119 1398 2916 
Q 1625 2713 2034 2713 
Q 2441 2713 2670 2916 
Q 2900 3119 2900 3481 
Q 2900 3844 2670 4047 
Q 2441 4250 2034 4250 
Q 1625 4250 1398 4047 
Q 1172 3844 1172 3481 
z
" transform="scale(0.015625)"/>
        <path id="DejaVuSans-30" d="M 2034 4250 
Q 1547 4250 1301 3770 
Q 1056 3291 1056 2328 
Q 1056 1369 1301 889 
Q 1547 409 2034 409 
Q 2525 409 2770 889 
Q 3016 1369 3016 2328 
Q 3016 3291 2770 3770 
Q 2525 4250 2034 4250 
z
M 2034 4750 
Q 2819 4750 3233 4129 
Q 3647 3509 3647 2328 
Q 3647 1150 3233 529 
Q 2819 -91 2034 -91 
Q 1250 -91 836 529 
Q 422 1150 422 2328 
Q 422 3509 836 4129 
Q 1250 4750 2034 4750 
z
" transform="scale(0.015625)"/>
       </defs>
       <use xlink:href="#DejaVuSans-31"/>
       <use xlink:href="#DejaVuSans-39" x="63.623047"/>
       <use xlink:href="#DejaVuSans-38" x="127.246094"/>
       <use xlink:href="#DejaVuSans-30" x="190.869141"/>
      </g>
     </g>
    </g>
    <g id="xtick_2">
     <g id="line2d_3">
      <path d="M 167.347821 371.304 
L 167.347821 10.8 
" clip-path="url(#pce714361e4)" style="fill: none; stroke-dasharray: 1.85,0.8; stroke-dashoffset: 0; stroke: #808080; stroke-width: 0.5"/>
     </g>
     <g id="line2d_4">
      <g>
       <use xlink:href="#mf322c5d7c3" x="167.347821" y="371.304" style="fill: #ffffff; stroke: #ffffff; stroke-width: 0.8"/>
      </g>
     </g>
     <g id="text_2">
      <!-- 1985 -->
      <g style="fill: #ffffff" transform="translate(154.622821 385.902438) scale(0.1 -0.1)">
       <defs>
        <path id="DejaVuSans-35" d="M 691 4666 
L 3169 4666 
L 3169 4134 
L 1269 4134 
L 1269 2991 
Q 1406 3038 1543 3061 
Q 1681 3084 1819 3084 
Q 2600 3084 3056 2656 
Q 3513 2228 3513 1497 
Q 3513 744 3044 326 
Q 2575 -91 1722 -91 
Q 1428 -91 1123 -41 
Q 819 9 494 109 
L 494 744 
Q 775 591 1075 516 
Q 1375 441 1709 441 
Q 2250 441 2565 725 
Q 2881 1009 2881 1497 
Q 2881 1984 2565 2268 
Q 2250 2553 1709 2553 
Q 1456 2553 1204 2497 
Q 953 2441 691 2322 
L 691 4666 
z
" transform="scale(0.015625)"/>
       </defs>
       <use xlink:href="#DejaVuSans-31"/>
       <use xlink:href="#DejaVuSans-39" x="63.623047"/>
       <use xlink:href="#DejaVuSans-38" x="127.246094"/>
       <use xlink:href="#DejaVuSans-35" x="190.869141"/>
      </g>
     </g>
    </g>
    <g id="xtick_3">
     <g id="line2d_5">
      <path d="M 250.575062 371.304 
L 250.575062 10.8 
" clip-path="url(#pce714361e4)" style="fill: none; stroke-dasharray: 1.85,0.8; stroke-dashoffset: 0; stroke: #808080; stroke-width: 0.5"/>
     </g>
     <g id="line2d_6">
      <g>
       <use xlink:href="#mf322c5d7c3" x="250.575062" y="371.304" style="fill: #ffffff; stroke: #ffffff; stroke-width: 0.8"/>
      </g>
     </g>
     <g id="text_3">
      <!-- 1990 -->
      <g style="fill: #ffffff" transform="translate(237.850062 385.902438) scale(0.1 -0.1)">
       <use xlink:href="#DejaVuSans-31"/>
       <use xlink:href="#DejaVuSans-39" x="63.623047"/>
       <use xlink:href="#DejaVuSans-39" x="127.246094"/>
       <use xlink:href="#DejaVuSans-30" x="190.869141"/>
      </g>
     </g>
    </g>
    <g id="xtick_4">
     <g id="line2d_7">
      <path d="M 333.802304 371.304 
L 333.802304 10.8 
" clip-path="url(#pce714361e4)" style="fill: none; stroke-dasharray: 1.85,0.8; stroke-dashoffset: 0; stroke: #808080; stroke-width: 0.5"/>
     </g>
     <g id="line2d_8">
      <g>
       <use xlink:href="#mf322c5d7c3" x="333.802304" y="371.304" style="fill: #ffffff; stroke: #ffffff; stroke-width: 0.8"/>
      </g>
     </g>
     <g id="text_4">
      <!-- 1995 -->
      <g style="fill: #ffffff" transform="translate(321.077304 385.902438) scale(0.1 -0.1)">
       <use xlink:href="#DejaVuSans-31"/>
       <use xlink:href="#DejaVuSans-39" x="63.623047"/>
       <use xlink:href="#DejaVuSans-39" x="127.246094"/>
       <use xlink:href="#DejaVuSans-35" x="190.869141"/>
      </g>
     </g>
    </g>
    <g id="xtick_5">
     <g id="line2d_9">
      <path d="M 417.029545 371.304 
L 417.029545 10.8 
" clip-path="url(#pce714361e4)" style="fill: none; stroke-dasharray: 1.85,0.8; stroke-dashoffset: 0; stroke: #808080; stroke-width: 0.5"/>
     </g>
     <g id="line2d_10">
      <g>
       <use xlink:href="#mf322c5d7c3" x="417.029545" y="371.304" style="fill: #ffffff; stroke: #ffffff; stroke-width: 0.8"/>
      </g>
     </g>
     <g id="text_5">
      <!-- 2000 -->
      <g style="fill: #ffffff" transform="translate(404.304545 385.902438) scale(0.1 -0.1)">
       <defs>
        <path id="DejaVuSans-32" d="M 1228 531 
L 3431 531 
L 3431 0 
L 469 0 
L 469 531 
Q 828 903 1448 1529 
Q 2069 2156 2228 2338 
Q 2531 2678 2651 2914 
Q 2772 3150 2772 3378 
Q 2772 3750 2511 3984 
Q 2250 4219 1831 4219 
Q 1534 4219 1204 4116 
Q 875 4013 500 3803 
L 500 4441 
Q 881 4594 1212 4672 
Q 1544 4750 1819 4750 
Q 2544 4750 2975 4387 
Q 3406 4025 3406 3419 
Q 3406 3131 3298 2873 
Q 3191 2616 2906 2266 
Q 2828 2175 2409 1742 
Q 1991 1309 1228 531 
z
" transform="scale(0.015625)"/>
       </defs>
       <use xlink:href="#DejaVuSans-32"/>
       <use xlink:href="#DejaVuSans-30" x="63.623047"/>
       <use xlink:href="#DejaVuSans-30" x="127.246094"/>
       <use xlink:href="#DejaVuSans-30" x="190.869141"/>
      </g>
     </g>
    </g>
    <g id="xtick_6">
     <g id="line2d_11">
      <path d="M 500.302366 371.304 
L 500.302366 10.8 
" clip-path="url(#pce714361e4)" style="fill: none; stroke-dasharray: 1.85,0.8; stroke-dashoffset: 0; stroke: #808080; stroke-width: 0.5"/>
     </g>
     <g id="line2d_12">
      <g>
       <use xlink:href="#mf322c5d7c3" x="500.302366" y="371.304" style="fill: #ffffff; stroke: #ffffff; stroke-width: 0.8"/>
      </g>
     </g>
     <g id="text_6">
      <!-- 2005 -->
      <g style="fill: #ffffff" transform="translate(487.577366 385.902438) scale(0.1 -0.1)">
       <use xlink:href="#DejaVuSans-32"/>
       <use xlink:href="#DejaVuSans-30" x="63.623047"/>
       <use xlink:href="#DejaVuSans-30" x="127.246094"/>
       <use xlink:href="#DejaVuSans-35" x="190.869141"/>
      </g>
     </g>
    </g>
    <g id="xtick_7">
     <g id="line2d_13">
      <path d="M 583.529608 371.304 
L 583.529608 10.8 
" clip-path="url(#pce714361e4)" style="fill: none; stroke-dasharray: 1.85,0.8; stroke-dashoffset: 0; stroke: #808080; stroke-width: 0.5"/>
     </g>
     <g id="line2d_14">
      <g>
       <use xlink:href="#mf322c5d7c3" x="583.529608" y="371.304" style="fill: #ffffff; stroke: #ffffff; stroke-width: 0.8"/>
      </g>
     </g>
     <g id="text_7">
      <!-- 2010 -->
      <g style="fill: #ffffff" transform="translate(570.804608 385.902438) scale(0.1 -0.1)">
       <use xlink:href="#DejaVuSans-32"/>
       <use xlink:href="#DejaVuSans-30" x="63.623047"/>
       <use xlink:href="#DejaVuSans-31" x="127.246094"/>
       <use xlink:href="#DejaVuSans-30" x="190.869141"/>
      </g>
     </g>
    </g>
    <g id="xtick_8">
     <g id="line2d_15">
      <path d="M 666.756849 371.304 
L 666.756849 10.8 
" clip-path="url(#pce714361e4)" style="fill: none; stroke-dasharray: 1.85,0.8; stroke-dashoffset: 0; stroke: #808080; stroke-width: 0.5"/>
     </g>
     <g id="line2d_16">
      <g>
       <use xlink:href="#mf322c5d7c3" x="666.756849" y="371.304" style="fill: #ffffff; stroke: #ffffff; stroke-width: 0.8"/>
      </g>
     </g>
     <g id="text_8">
      <!-- 2015 -->
      <g style="fill: #ffffff" transform="translate(654.031849 385.902438) scale(0.1 -0.1)">
       <use xlink:href="#DejaVuSans-32"/>
       <use xlink:href="#DejaVuSans-30" x="63.623047"/>
       <use xlink:href="#DejaVuSans-31" x="127.246094"/>
       <use xlink:href="#DejaVuSans-35" x="190.869141"/>
      </g>
     </g>
    </g>
    <g id="xtick_9">
     <g id="line2d_17">
      <path d="M 749.984091 371.304 
L 749.984091 10.8 
" clip-path="url(#pce714361e4)" style="fill: none; stroke-dasharray: 1.85,0.8; stroke-dashoffset: 0; stroke: #808080; stroke-width: 0.5"/>
     </g>
     <g id="line2d_18">
      <g>
       <use xlink:href="#mf322c5d7c3" x="749.984091" y="371.304" style="fill: #ffffff; stroke: #ffffff; stroke-width: 0.8"/>
      </g>
     </g>
     <g id="text_9">
      <!-- 2020 -->
      <g style="fill: #ffffff" transform="translate(737.259091 385.902438) scale(0.1 -0.1)">
       <use xlink:href="#DejaVuSans-32"/>
       <use xlink:href="#DejaVuSans-30" x="63.623047"/>
       <use xlink:href="#DejaVuSans-32" x="127.246094"/>
       <use xlink:href="#DejaVuSans-30" x="190.869141"/>
      </g>
     </g>
    </g>
    <g id="xtick_10">
     <g id="line2d_19">
      <path d="M 833.256912 371.304 
L 833.256912 10.8 
" clip-path="url(#pce714361e4)" style="fill: none; stroke-dasharray: 1.85,0.8; stroke-dashoffset: 0; stroke: #808080; stroke-width: 0.5"/>
     </g>
     <g id="line2d_20">
      <g>
       <use xlink:href="#mf322c5d7c3" x="833.256912" y="371.304" style="fill: #ffffff; stroke: #ffffff; stroke-width: 0.8"/>
      </g>
     </g>
     <g id="text_10">
      <!-- 2025 -->
      <g style="fill: #ffffff" transform="translate(820.531912 385.902438) scale(0.1 -0.1)">
       <use xlink:href="#DejaVuSans-32"/>
       <use xlink:href="#DejaVuSans-30" x="63.623047"/>
       <use xlink:href="#DejaVuSans-32" x="127.246094"/>
       <use xlink:href="#DejaVuSans-35" x="190.869141"/>
      </g>
     </g>
    </g>
    <g id="text_11">
     <!-- Jahr -->
     <g style="fill: #d3d3d3" transform="translate(438.609062 401.10025) scale(0.12 -0.12)">
      <defs>
       <path id="DejaVuSans-4a" d="M 628 4666 
L 1259 4666 
L 1259 325 
Q 1259 -519 939 -900 
Q 619 -1281 -91 -1281 
L -331 -1281 
L -331 -750 
L -134 -750 
Q 284 -750 456 -515 
Q 628 -281 628 325 
L 628 4666 
z
" transform="scale(0.015625)"/>
       <path id="DejaVuSans-61" d="M 2194 1759 
Q 1497 1759 1228 1600 
Q 959 1441 959 1056 
Q 959 750 1161 570 
Q 1363 391 1709 391 
Q 2188 391 2477 730 
Q 2766 1069 2766 1631 
L 2766 1759 
L 2194 1759 
z
M 3341 1997 
L 3341 0 
L 2766 0 
L 2766 531 
Q 2569 213 2275 61 
Q 1981 -91 1556 -91 
Q 1019 -91 701 211 
Q 384 513 384 1019 
Q 384 1609 779 1909 
Q 1175 2209 1959 2209 
L 2766 2209 
L 2766 2266 
Q 2766 2663 2505 2880 
Q 2244 3097 1772 3097 
Q 1472 3097 1187 3025 
Q 903 2953 641 2809 
L 641 3341 
Q 956 3463 1253 3523 
Q 1550 3584 1831 3584 
Q 2591 3584 2966 3190 
Q 3341 2797 3341 1997 
z
" transform="scale(0.015625)"/>
       <path id="DejaVuSans-68" d="M 3513 2113 
L 3513 0 
L 2938 0 
L 2938 2094 
Q 2938 2591 2744 2837 
Q 2550 3084 2163 3084 
Q 1697 3084 1428 2787 
Q 1159 2491 1159 1978 
L 1159 0 
L 581 0 
L 581 4863 
L 1159 4863 
L 1159 2956 
Q 1366 3272 1645 3428 
Q 1925 3584 2291 3584 
Q 2894 3584 3203 3211 
Q 3513 2838 3513 2113 
z
" transform="scale(0.015625)"/>
       <path id="DejaVuSans-72" d="M 2631 2963 
Q 2534 3019 2420 3045 
Q 2306 3072 2169 3072 
Q 1681 3072 1420 2755 
Q 1159 2438 1159 1844 
L 1159 0 
L 581 0 
L 581 3500 
L 1159 3500 
L 1159 2956 
Q 1341 3275 1631 3429 
Q 1922 3584 2338 3584 
Q 2397 3584 2469 3576 
Q 2541 3569 2628 3553 
L 2631 2963 
z
" transform="scale(0.015625)"/>
      </defs>
      <use xlink:href="#DejaVuSans-4a"/>
      <use xlink:href="#DejaVuSans-61" x="29.492188"/>
      <use xlink:href="#DejaVuSans-68" x="90.771484"/>
      <use xlink:href="#DejaVuSans-72" x="154.150391"/>
     </g>
    </g>
   </g>
   <g id="matplotlib.axis_2">
    <g id="ytick_1">
     <g id="line2d_21">
      <path d="M 47.45 318.128109 
L 853.2 318.128109 
" clip-path="url(#pce714361e4)" style="fill: none; stroke-dasharray: 1.85,0.8; stroke-dashoffset: 0; stroke: #808080; stroke-width: 0.5"/>
     </g>
     <g id="line2d_22">
      <defs>
       <path id="m9b03412005" d="M 0 0 
L -3.5 0 
" style="stroke: #ffffff; stroke-width: 0.8"/>
      </defs>
      <g>
       <use xlink:href="#m9b03412005" x="47.45" y="318.128109" style="fill: #ffffff; stroke: #ffffff; stroke-width: 0.8"/>
      </g>
     </g>
     <g id="text_12">
      <!-- 30 -->
      <g style="fill: #ffffff" transform="translate(27.725 321.927327) scale(0.1 -0.1)">
       <defs>
        <path id="DejaVuSans-33" d="M 2597 2516 
Q 3050 2419 3304 2112 
Q 3559 1806 3559 1356 
Q 3559 666 3084 287 
Q 2609 -91 1734 -91 
Q 1441 -91 1130 -33 
Q 819 25 488 141 
L 488 750 
Q 750 597 1062 519 
Q 1375 441 1716 441 
Q 2309 441 2620 675 
Q 2931 909 2931 1356 
Q 2931 1769 2642 2001 
Q 2353 2234 1838 2234 
L 1294 2234 
L 1294 2753 
L 1863 2753 
Q 2328 2753 2575 2939 
Q 2822 3125 2822 3475 
Q 2822 3834 2567 4026 
Q 2313 4219 1838 4219 
Q 1578 4219 1281 4162 
Q 984 4106 628 3988 
L 628 4550 
Q 988 4650 1302 4700 
Q 1616 4750 1894 4750 
Q 2613 4750 3031 4423 
Q 3450 4097 3450 3541 
Q 3450 3153 3228 2886 
Q 3006 2619 2597 2516 
z
" transform="scale(0.015625)"/>
       </defs>
       <use xlink:href="#DejaVuSans-33"/>
       <use xlink:href="#DejaVuSans-30" x="63.623047"/>
      </g>
     </g>
    </g>
    <g id="ytick_2">
     <g id="line2d_23">
      <path d="M 47.45 240.313726 
L 853.2 240.313726 
" clip-path="url(#pce714361e4)" style="fill: none; stroke-dasharray: 1.85,0.8; stroke-dashoffset: 0; stroke: #808080; stroke-width: 0.5"/>
     </g>
     <g id="line2d_24">
      <g>
       <use xlink:href="#m9b03412005" x="47.45" y="240.313726" style="fill: #ffffff; stroke: #ffffff; stroke-width: 0.8"/>
      </g>
     </g>
     <g id="text_13">
      <!-- 40 -->
      <g style="fill: #ffffff" transform="translate(27.725 244.112945) scale(0.1 -0.1)">
       <defs>
        <path id="DejaVuSans-34" d="M 2419 4116 
L 825 1625 
L 2419 1625 
L 2419 4116 
z
M 2253 4666 
L 3047 4666 
L 3047 1625 
L 3713 1625 
L 3713 1100 
L 3047 1100 
L 3047 0 
L 2419 0 
L 2419 1100 
L 313 1100 
L 313 1709 
L 2253 4666 
z
" transform="scale(0.015625)"/>
       </defs>
       <use xlink:href="#DejaVuSans-34"/>
       <use xlink:href="#DejaVuSans-30" x="63.623047"/>
      </g>
     </g>
    </g>
    <g id="ytick_3">
     <g id="line2d_25">
      <path d="M 47.45 162.499344 
L 853.2 162.499344 
" clip-path="url(#pce714361e4)" style="fill: none; stroke-dasharray: 1.85,0.8; stroke-dashoffset: 0; stroke: #808080; stroke-width: 0.5"/>
     </g>
     <g id="line2d_26">
      <g>
       <use xlink:href="#m9b03412005" x="47.45" y="162.499344" style="fill: #ffffff; stroke: #ffffff; stroke-width: 0.8"/>
      </g>
     </g>
     <g id="text_14">
      <!-- 50 -->
      <g style="fill: #ffffff" transform="translate(27.725 166.298563) scale(0.1 -0.1)">
       <use xlink:href="#DejaVuSans-35"/>
       <use xlink:href="#DejaVuSans-30" x="63.623047"/>
      </g>
     </g>
    </g>
    <g id="ytick_4">
     <g id="line2d_27">
      <path d="M 47.45 84.684961 
L 853.2 84.684961 
" clip-path="url(#pce714361e4)" style="fill: none; stroke-dasharray: 1.85,0.8; stroke-dashoffset: 0; stroke: #808080; stroke-width: 0.5"/>
     </g>
     <g id="line2d_28">
      <g>
       <use xlink:href="#m9b03412005" x="47.45" y="84.684961" style="fill: #ffffff; stroke: #ffffff; stroke-width: 0.8"/>
      </g>
     </g>
     <g id="text_15">
      <!-- 60 -->
      <g style="fill: #ffffff" transform="translate(27.725 88.48418) scale(0.1 -0.1)">
       <defs>
        <path id="DejaVuSans-36" d="M 2113 2584 
Q 1688 2584 1439 2293 
Q 1191 2003 1191 1497 
Q 1191 994 1439 701 
Q 1688 409 2113 409 
Q 2538 409 2786 701 
Q 3034 994 3034 1497 
Q 3034 2003 2786 2293 
Q 2538 2584 2113 2584 
z
M 3366 4563 
L 3366 3988 
Q 3128 4100 2886 4159 
Q 2644 4219 2406 4219 
Q 1781 4219 1451 3797 
Q 1122 3375 1075 2522 
Q 1259 2794 1537 2939 
Q 1816 3084 2150 3084 
Q 2853 3084 3261 2657 
Q 3669 2231 3669 1497 
Q 3669 778 3244 343 
Q 2819 -91 2113 -91 
Q 1303 -91 875 529 
Q 447 1150 447 2328 
Q 447 3434 972 4092 
Q 1497 4750 2381 4750 
Q 2619 4750 2861 4703 
Q 3103 4656 3366 4563 
z
" transform="scale(0.015625)"/>
       </defs>
       <use xlink:href="#DejaVuSans-36"/>
       <use xlink:href="#DejaVuSans-30" x="63.623047"/>
      </g>
     </g>
    </g>
    <g id="text_16">
     <!-- % des BIP -->
     <g style="fill: #d3d3d3" transform="translate(21.229375 220.697625) rotate(-90) scale(0.12 -0.12)">
      <defs>
       <path id="DejaVuSans-25" d="M 4653 2053 
Q 4381 2053 4226 1822 
Q 4072 1591 4072 1178 
Q 4072 772 4226 539 
Q 4381 306 4653 306 
Q 4919 306 5073 539 
Q 5228 772 5228 1178 
Q 5228 1588 5073 1820 
Q 4919 2053 4653 2053 
z
M 4653 2450 
Q 5147 2450 5437 2106 
Q 5728 1763 5728 1178 
Q 5728 594 5436 251 
Q 5144 -91 4653 -91 
Q 4153 -91 3862 251 
Q 3572 594 3572 1178 
Q 3572 1766 3864 2108 
Q 4156 2450 4653 2450 
z
M 1428 4353 
Q 1159 4353 1004 4120 
Q 850 3888 850 3481 
Q 850 3069 1003 2837 
Q 1156 2606 1428 2606 
Q 1700 2606 1854 2837 
Q 2009 3069 2009 3481 
Q 2009 3884 1853 4118 
Q 1697 4353 1428 4353 
z
M 4250 4750 
L 4750 4750 
L 1831 -91 
L 1331 -91 
L 4250 4750 
z
M 1428 4750 
Q 1922 4750 2215 4408 
Q 2509 4066 2509 3481 
Q 2509 2891 2217 2550 
Q 1925 2209 1428 2209 
Q 931 2209 642 2551 
Q 353 2894 353 3481 
Q 353 4063 643 4406 
Q 934 4750 1428 4750 
z
" transform="scale(0.015625)"/>
       <path id="DejaVuSans-20" transform="scale(0.015625)"/>
       <path id="DejaVuSans-64" d="M 2906 2969 
L 2906 4863 
L 3481 4863 
L 3481 0 
L 2906 0 
L 2906 525 
Q 2725 213 2448 61 
Q 2172 -91 1784 -91 
Q 1150 -91 751 415 
Q 353 922 353 1747 
Q 353 2572 751 3078 
Q 1150 3584 1784 3584 
Q 2172 3584 2448 3432 
Q 2725 3281 2906 2969 
z
M 947 1747 
Q 947 1113 1208 752 
Q 1469 391 1925 391 
Q 2381 391 2643 752 
Q 2906 1113 2906 1747 
Q 2906 2381 2643 2742 
Q 2381 3103 1925 3103 
Q 1469 3103 1208 2742 
Q 947 2381 947 1747 
z
" transform="scale(0.015625)"/>
       <path id="DejaVuSans-65" d="M 3597 1894 
L 3597 1613 
L 953 1613 
Q 991 1019 1311 708 
Q 1631 397 2203 397 
Q 2534 397 2845 478 
Q 3156 559 3463 722 
L 3463 178 
Q 3153 47 2828 -22 
Q 2503 -91 2169 -91 
Q 1331 -91 842 396 
Q 353 884 353 1716 
Q 353 2575 817 3079 
Q 1281 3584 2069 3584 
Q 2775 3584 3186 3129 
Q 3597 2675 3597 1894 
z
M 3022 2063 
Q 3016 2534 2758 2815 
Q 2500 3097 2075 3097 
Q 1594 3097 1305 2825 
Q 1016 2553 972 2059 
L 3022 2063 
z
" transform="scale(0.015625)"/>
       <path id="DejaVuSans-73" d="M 2834 3397 
L 2834 2853 
Q 2591 2978 2328 3040 
Q 2066 3103 1784 3103 
Q 1356 3103 1142 2972 
Q 928 2841 928 2578 
Q 928 2378 1081 2264 
Q 1234 2150 1697 2047 
L 1894 2003 
Q 2506 1872 2764 1633 
Q 3022 1394 3022 966 
Q 3022 478 2636 193 
Q 2250 -91 1575 -91 
Q 1294 -91 989 -36 
Q 684 19 347 128 
L 347 722 
Q 666 556 975 473 
Q 1284 391 1588 391 
Q 1994 391 2212 530 
Q 2431 669 2431 922 
Q 2431 1156 2273 1281 
Q 2116 1406 1581 1522 
L 1381 1569 
Q 847 1681 609 1914 
Q 372 2147 372 2553 
Q 372 3047 722 3315 
Q 1072 3584 1716 3584 
Q 2034 3584 2315 3537 
Q 2597 3491 2834 3397 
z
" transform="scale(0.015625)"/>
       <path id="DejaVuSans-42" d="M 1259 2228 
L 1259 519 
L 2272 519 
Q 2781 519 3026 730 
Q 3272 941 3272 1375 
Q 3272 1813 3026 2020 
Q 2781 2228 2272 2228 
L 1259 2228 
z
M 1259 4147 
L 1259 2741 
L 2194 2741 
Q 2656 2741 2882 2914 
Q 3109 3088 3109 3444 
Q 3109 3797 2882 3972 
Q 2656 4147 2194 4147 
L 1259 4147 
z
M 628 4666 
L 2241 4666 
Q 2963 4666 3353 4366 
Q 3744 4066 3744 3513 
Q 3744 3084 3544 2831 
Q 3344 2578 2956 2516 
Q 3422 2416 3680 2098 
Q 3938 1781 3938 1306 
Q 3938 681 3513 340 
Q 3088 0 2303 0 
L 628 0 
L 628 4666 
z
" transform="scale(0.015625)"/>
       <path id="DejaVuSans-49" d="M 628 4666 
L 1259 4666 
L 1259 0 
L 628 0 
L 628 4666 
z
" transform="scale(0.015625)"/>
       <path id="DejaVuSans-50" d="M 1259 4147 
L 1259 2394 
L 2053 2394 
Q 2494 2394 2734 2622 
Q 2975 2850 2975 3272 
Q 2975 3691 2734 3919 
Q 2494 4147 2053 4147 
L 1259 4147 
z
M 628 4666 
L 2053 4666 
Q 2838 4666 3239 4311 
Q 3641 3956 3641 3272 
Q 3641 2581 3239 2228 
Q 2838 1875 2053 1875 
L 1259 1875 
L 1259 0 
L 628 0 
L 628 4666 
z
" transform="scale(0.015625)"/>
      </defs>
      <use xlink:href="#DejaVuSans-25"/>
      <use xlink:href="#DejaVuSans-20" x="95.019531"/>
      <use xlink:href="#DejaVuSans-64" x="126.806641"/>
      <use xlink:href="#DejaVuSans-65" x="190.283203"/>
      <use xlink:href="#DejaVuSans-73" x="251.806641"/>
      <use xlink:href="#DejaVuSans-20" x="303.90625"/>
      <use xlink:href="#DejaVuSans-42" x="335.693359"/>
      <use xlink:href="#DejaVuSans-49" x="404.296875"/>
      <use xlink:href="#DejaVuSans-50" x="433.789062"/>
     </g>
    </g>
   </g>
   <g id="line2d_29">
    <path d="M 267.211395 294.250909 
L 283.847727 278.844067 
L 300.529639 288.094318 
L 317.165971 230.456385 
L 333.802304 205.076677 
L 350.438636 200.833493 
L 367.120548 242.192253 
L 383.75688 221.7412 
L 400.393213 232.493245 
L 417.029545 232.111197 
L 433.711457 248.671219 
L 450.347789 194.291166 
L 466.984122 189.098628 
L 483.620455 173.344243 
L 500.302366 158.052885 
L 516.938699 159.414515 
L 533.575031 134.896595 
L 550.211364 102.404006 
L 566.893275 145.772378 
L 583.529608 130.199321 
L 600.16594 129.968012 
L 616.802273 147.332832 
L 633.484184 140.97988 
L 650.120517 155.964729 
L 666.756849 198.165067 
L 683.393182 173.776631 
L 700.075093 148.690191 
L 716.711426 111.957352 
L 733.347758 128.104668 
L 749.984091 154.520251 
L 766.666002 118.159065 
L 783.302335 125.501595 
L 799.938667 141.71074 
L 816.575 119.15535 
" clip-path="url(#pce714361e4)" style="fill: none; stroke: #cc241d; stroke-width: 1.5; stroke-linecap: square"/>
   </g>
   <g id="line2d_30">
    <path d="M 84.075 301.179889 
L 100.756912 302.195014 
L 117.393244 318.744862 
L 134.029577 326.933832 
L 150.665909 327.528701 
L 167.347821 338.19948 
L 183.984153 354.163887 
L 200.620486 353.474303 
L 217.256818 333.804952 
L 233.93873 301.614214 
L 250.575062 284.764132 
L 267.211395 282.820107 
L 283.847727 274.334069 
L 300.529639 263.344748 
L 317.165971 254.247023 
L 333.802304 234.141192 
L 350.438636 233.337143 
L 367.120548 220.928465 
L 383.75688 222.755428 
L 400.393213 222.428916 
L 417.029545 201.726859 
L 433.711457 201.626972 
L 450.347789 180.169571 
L 466.984122 166.872836 
L 483.620455 123.277907 
L 500.302366 101.703746 
L 516.938699 89.232091 
L 533.575031 77.108964 
L 550.211364 40.057075 
L 566.893275 106.901577 
L 583.529608 103.583955 
L 600.16594 70.928435 
L 616.802273 78.914515 
L 633.484184 93.586183 
L 650.120517 117.303479 
L 666.756849 152.885789 
L 683.393182 171.194266 
L 700.075093 151.415525 
L 716.711426 126.088507 
L 733.347758 144.978866 
L 749.984091 181.884145 
L 766.666002 130.432324 
L 783.302335 84.18513 
L 799.938667 119.250992 
L 816.575 126.295226 
" clip-path="url(#pce714361e4)" style="fill: none; stroke: #98971a; stroke-width: 1.5; stroke-linecap: square"/>
   </g>
   <g id="line2d_31">
    <path d="M 84.075 333.275873 
L 100.756912 324.650511 
L 117.393244 346.466266 
L 134.029577 349.725753 
L 150.665909 345.8324 
L 167.347821 342.051017 
L 183.984153 354.917455 
L 200.620486 325.288403 
L 217.256818 291.758936 
L 233.93873 310.665646 
L 250.575062 309.583392 
L 267.211395 301.299502 
L 283.847727 270.222769 
L 300.529639 252.335711 
L 317.165971 245.848465 
L 333.802304 245.717362 
L 350.438636 249.202373 
L 367.120548 233.113313 
L 383.75688 224.161265 
L 400.393213 224.832256 
L 417.029545 184.424733 
L 433.711457 189.726086 
L 450.347789 171.596939 
L 466.984122 131.052155 
L 483.620455 89.7474 
L 500.302366 78.450652 
L 516.938699 72.794448 
L 533.575031 86.527113 
L 550.211364 98.299607 
L 566.893275 177.191152 
L 583.529608 148.825513 
L 600.16594 138.006078 
L 616.802273 148.593744 
L 633.484184 159.775644 
L 650.120517 169.903595 
L 666.756849 197.296714 
L 683.393182 212.151785 
L 700.075093 203.486423 
L 716.711426 189.492357 
L 733.347758 204.409601 
L 749.984091 219.64007 
L 766.666002 181.033325 
L 783.302335 157.025983 
L 799.938667 186.888565 
L 816.575 183.333782 
" clip-path="url(#pce714361e4)" style="fill: none; stroke: #d79921; stroke-width: 1.5; stroke-linecap: square"/>
   </g>
   <g id="line2d_32">
    <path d="M 84.075 216.709317 
L 100.756912 214.352415 
L 117.393244 227.448858 
L 134.029577 234.309391 
L 150.665909 220.847488 
L 167.347821 226.509615 
L 183.984153 248.266655 
L 200.620486 245.665493 
L 217.256818 239.493192 
L 233.93873 231.207663 
L 250.575062 233.011134 
L 267.211395 237.979516 
L 283.847727 217.530247 
L 300.529639 230.750612 
L 317.165971 223.383331 
L 333.802304 205.499948 
L 350.438636 203.25257 
L 367.120548 189.444113 
L 383.75688 185.400294 
L 400.393213 179.7155 
L 417.029545 146.792276 
L 433.711457 157.512066 
L 450.347789 166.566547 
L 466.984122 164.339182 
L 483.620455 143.260095 
L 500.302366 126.162261 
L 516.938699 104.66224 
L 533.575031 96.110181 
L 550.211364 76.248609 
L 566.893275 137.227468 
L 583.529608 98.877212 
L 600.16594 69.899674 
L 616.802273 67.236752 
L 633.484184 69.585812 
L 650.120517 70.346459 
L 666.756849 83.976696 
L 683.393182 97.051721 
L 700.075093 82.89598 
L 716.711426 73.407127 
L 733.347758 80.102841 
L 749.984091 114.998937 
L 766.666002 79.934709 
L 783.302335 27.186545 
L 799.938667 61.139633 
L 816.575 78.204545 
" clip-path="url(#pce714361e4)" style="fill: none; stroke: #458588; stroke-width: 1.5; stroke-linecap: square"/>
   </g>
   <g id="line2d_33">
    <path d="M 84.075 251.855021 
L 100.756912 248.394299 
L 117.393244 264.03984 
L 134.029577 270.490409 
L 150.665909 260.264888 
L 167.347821 263.763195 
L 183.984153 282.9493 
L 200.620486 273.094697 
L 217.256818 258.840486 
L 233.93873 255.872434 
L 250.575062 255.788171 
L 267.211395 256.809549 
L 283.847727 234.480497 
L 300.529639 238.123289 
L 317.165971 230.789364 
L 333.802304 217.526014 
L 350.438636 216.622904 
L 367.120548 202.683627 
L 383.75688 197.854083 
L 400.393213 194.250768 
L 417.029545 160.132196 
L 433.711457 168.907059 
L 450.347789 168.775354 
L 466.984122 155.906086 
L 483.620455 128.241733 
L 500.302366 112.328149 
L 516.938699 95.652482 
L 533.575031 92.728047 
L 550.211364 80.250987 
L 566.893275 146.306248 
L 583.529608 112.574049 
L 600.16594 88.286907 
L 616.802273 89.740945 
L 633.484184 94.739465 
L 650.120517 99.236105 
L 666.756849 117.872906 
L 683.393182 132.062858 
L 700.075093 119.014743 
L 716.711426 107.063446 
L 733.347758 116.517948 
L 749.984091 147.143743 
L 766.666002 110.282147 
L 783.302335 65.840913 
L 799.938667 98.705765 
L 816.575 109.911264 
" clip-path="url(#pce714361e4)" style="fill: none; stroke: #b16286; stroke-width: 1.5; stroke-linecap: square"/>
   </g>
   <g id="patch_3">
    <path d="M 47.45 371.304 
L 47.45 10.8 
" style="fill: none; stroke: #333333; stroke-width: 0.8; stroke-linejoin: miter; stroke-linecap: square"/>
   </g>
   <g id="patch_4">
    <path d="M 853.2 371.304 
L 853.2 10.8 
" style="fill: none; stroke: #333333; stroke-width: 0.8; stroke-linejoin: miter; stroke-linecap: square"/>
   </g>
   <g id="patch_5">
    <path d="M 47.45 371.304 
L 853.2 371.304 
" style="fill: none; stroke: #333333; stroke-width: 0.8; stroke-linejoin: miter; stroke-linecap: square"/>
   </g>
   <g id="patch_6">
    <path d="M 47.45 10.8 
L 853.2 10.8 
" style="fill: none; stroke: #333333; stroke-width: 0.8; stroke-linejoin: miter; stroke-linecap: square"/>
   </g>
   <g id="text_17">
    <!-- Quelle: World Bank World Development Indicators; OECD National Accounts -->
    <g style="fill: #a9a9a9" transform="translate(549.5875 423.71585) scale(0.08 -0.08)">
     <defs>
      <path id="DejaVuSans-51" d="M 2522 4238 
Q 1834 4238 1429 3725 
Q 1025 3213 1025 2328 
Q 1025 1447 1429 934 
Q 1834 422 2522 422 
Q 3209 422 3611 934 
Q 4013 1447 4013 2328 
Q 4013 3213 3611 3725 
Q 3209 4238 2522 4238 
z
M 3406 84 
L 4238 -825 
L 3475 -825 
L 2784 -78 
Q 2681 -84 2626 -87 
Q 2572 -91 2522 -91 
Q 1538 -91 948 567 
Q 359 1225 359 2328 
Q 359 3434 948 4092 
Q 1538 4750 2522 4750 
Q 3503 4750 4090 4092 
Q 4678 3434 4678 2328 
Q 4678 1516 4351 937 
Q 4025 359 3406 84 
z
" transform="scale(0.015625)"/>
      <path id="DejaVuSans-75" d="M 544 1381 
L 544 3500 
L 1119 3500 
L 1119 1403 
Q 1119 906 1312 657 
Q 1506 409 1894 409 
Q 2359 409 2629 706 
Q 2900 1003 2900 1516 
L 2900 3500 
L 3475 3500 
L 3475 0 
L 2900 0 
L 2900 538 
Q 2691 219 2414 64 
Q 2138 -91 1772 -91 
Q 1169 -91 856 284 
Q 544 659 544 1381 
z
M 1991 3584 
L 1991 3584 
z
" transform="scale(0.015625)"/>
      <path id="DejaVuSans-6c" d="M 603 4863 
L 1178 4863 
L 1178 0 
L 603 0 
L 603 4863 
z
" transform="scale(0.015625)"/>
      <path id="DejaVuSans-3a" d="M 750 794 
L 1409 794 
L 1409 0 
L 750 0 
L 750 794 
z
M 750 3309 
L 1409 3309 
L 1409 2516 
L 750 2516 
L 750 3309 
z
" transform="scale(0.015625)"/>
      <path id="DejaVuSans-57" d="M 213 4666 
L 850 4666 
L 1831 722 
L 2809 4666 
L 3519 4666 
L 4500 722 
L 5478 4666 
L 6119 4666 
L 4947 0 
L 4153 0 
L 3169 4050 
L 2175 0 
L 1381 0 
L 213 4666 
z
" transform="scale(0.015625)"/>
      <path id="DejaVuSans-6f" d="M 1959 3097 
Q 1497 3097 1228 2736 
Q 959 2375 959 1747 
Q 959 1119 1226 758 
Q 1494 397 1959 397 
Q 2419 397 2687 759 
Q 2956 1122 2956 1747 
Q 2956 2369 2687 2733 
Q 2419 3097 1959 3097 
z
M 1959 3584 
Q 2709 3584 3137 3096 
Q 3566 2609 3566 1747 
Q 3566 888 3137 398 
Q 2709 -91 1959 -91 
Q 1206 -91 779 398 
Q 353 888 353 1747 
Q 353 2609 779 3096 
Q 1206 3584 1959 3584 
z
" transform="scale(0.015625)"/>
      <path id="DejaVuSans-6e" d="M 3513 2113 
L 3513 0 
L 2938 0 
L 2938 2094 
Q 2938 2591 2744 2837 
Q 2550 3084 2163 3084 
Q 1697 3084 1428 2787 
Q 1159 2491 1159 1978 
L 1159 0 
L 581 0 
L 581 3500 
L 1159 3500 
L 1159 2956 
Q 1366 3272 1645 3428 
Q 1925 3584 2291 3584 
Q 2894 3584 3203 3211 
Q 3513 2838 3513 2113 
z
" transform="scale(0.015625)"/>
      <path id="DejaVuSans-6b" d="M 581 4863 
L 1159 4863 
L 1159 1991 
L 2875 3500 
L 3609 3500 
L 1753 1863 
L 3688 0 
L 2938 0 
L 1159 1709 
L 1159 0 
L 581 0 
L 581 4863 
z
" transform="scale(0.015625)"/>
      <path id="DejaVuSans-44" d="M 1259 4147 
L 1259 519 
L 2022 519 
Q 2988 519 3436 956 
Q 3884 1394 3884 2338 
Q 3884 3275 3436 3711 
Q 2988 4147 2022 4147 
L 1259 4147 
z
M 628 4666 
L 1925 4666 
Q 3281 4666 3915 4102 
Q 4550 3538 4550 2338 
Q 4550 1131 3912 565 
Q 3275 0 1925 0 
L 628 0 
L 628 4666 
z
" transform="scale(0.015625)"/>
      <path id="DejaVuSans-76" d="M 191 3500 
L 800 3500 
L 1894 563 
L 2988 3500 
L 3597 3500 
L 2284 0 
L 1503 0 
L 191 3500 
z
" transform="scale(0.015625)"/>
      <path id="DejaVuSans-70" d="M 1159 525 
L 1159 -1331 
L 581 -1331 
L 581 3500 
L 1159 3500 
L 1159 2969 
Q 1341 3281 1617 3432 
Q 1894 3584 2278 3584 
Q 2916 3584 3314 3078 
Q 3713 2572 3713 1747 
Q 3713 922 3314 415 
Q 2916 -91 2278 -91 
Q 1894 -91 1617 61 
Q 1341 213 1159 525 
z
M 3116 1747 
Q 3116 2381 2855 2742 
Q 2594 3103 2138 3103 
Q 1681 3103 1420 2742 
Q 1159 2381 1159 1747 
Q 1159 1113 1420 752 
Q 1681 391 2138 391 
Q 2594 391 2855 752 
Q 3116 1113 3116 1747 
z
" transform="scale(0.015625)"/>
      <path id="DejaVuSans-6d" d="M 3328 2828 
Q 3544 3216 3844 3400 
Q 4144 3584 4550 3584 
Q 5097 3584 5394 3201 
Q 5691 2819 5691 2113 
L 5691 0 
L 5113 0 
L 5113 2094 
Q 5113 2597 4934 2840 
Q 4756 3084 4391 3084 
Q 3944 3084 3684 2787 
Q 3425 2491 3425 1978 
L 3425 0 
L 2847 0 
L 2847 2094 
Q 2847 2600 2669 2842 
Q 2491 3084 2119 3084 
Q 1678 3084 1418 2786 
Q 1159 2488 1159 1978 
L 1159 0 
L 581 0 
L 581 3500 
L 1159 3500 
L 1159 2956 
Q 1356 3278 1631 3431 
Q 1906 3584 2284 3584 
Q 2666 3584 2933 3390 
Q 3200 3197 3328 2828 
z
" transform="scale(0.015625)"/>
      <path id="DejaVuSans-74" d="M 1172 4494 
L 1172 3500 
L 2356 3500 
L 2356 3053 
L 1172 3053 
L 1172 1153 
Q 1172 725 1289 603 
Q 1406 481 1766 481 
L 2356 481 
L 2356 0 
L 1766 0 
Q 1100 0 847 248 
Q 594 497 594 1153 
L 594 3053 
L 172 3053 
L 172 3500 
L 594 3500 
L 594 4494 
L 1172 4494 
z
" transform="scale(0.015625)"/>
      <path id="DejaVuSans-69" d="M 603 3500 
L 1178 3500 
L 1178 0 
L 603 0 
L 603 3500 
z
M 603 4863 
L 1178 4863 
L 1178 4134 
L 603 4134 
L 603 4863 
z
" transform="scale(0.015625)"/>
      <path id="DejaVuSans-63" d="M 3122 3366 
L 3122 2828 
Q 2878 2963 2633 3030 
Q 2388 3097 2138 3097 
Q 1578 3097 1268 2742 
Q 959 2388 959 1747 
Q 959 1106 1268 751 
Q 1578 397 2138 397 
Q 2388 397 2633 464 
Q 2878 531 3122 666 
L 3122 134 
Q 2881 22 2623 -34 
Q 2366 -91 2075 -91 
Q 1284 -91 818 406 
Q 353 903 353 1747 
Q 353 2603 823 3093 
Q 1294 3584 2113 3584 
Q 2378 3584 2631 3529 
Q 2884 3475 3122 3366 
z
" transform="scale(0.015625)"/>
      <path id="DejaVuSans-3b" d="M 750 3309 
L 1409 3309 
L 1409 2516 
L 750 2516 
L 750 3309 
z
M 750 794 
L 1409 794 
L 1409 256 
L 897 -744 
L 494 -744 
L 750 256 
L 750 794 
z
" transform="scale(0.015625)"/>
      <path id="DejaVuSans-4f" d="M 2522 4238 
Q 1834 4238 1429 3725 
Q 1025 3213 1025 2328 
Q 1025 1447 1429 934 
Q 1834 422 2522 422 
Q 3209 422 3611 934 
Q 4013 1447 4013 2328 
Q 4013 3213 3611 3725 
Q 3209 4238 2522 4238 
z
M 2522 4750 
Q 3503 4750 4090 4092 
Q 4678 3434 4678 2328 
Q 4678 1225 4090 567 
Q 3503 -91 2522 -91 
Q 1538 -91 948 565 
Q 359 1222 359 2328 
Q 359 3434 948 4092 
Q 1538 4750 2522 4750 
z
" transform="scale(0.015625)"/>
      <path id="DejaVuSans-45" d="M 628 4666 
L 3578 4666 
L 3578 4134 
L 1259 4134 
L 1259 2753 
L 3481 2753 
L 3481 2222 
L 1259 2222 
L 1259 531 
L 3634 531 
L 3634 0 
L 628 0 
L 628 4666 
z
" transform="scale(0.015625)"/>
      <path id="DejaVuSans-43" d="M 4122 4306 
L 4122 3641 
Q 3803 3938 3442 4084 
Q 3081 4231 2675 4231 
Q 1875 4231 1450 3742 
Q 1025 3253 1025 2328 
Q 1025 1406 1450 917 
Q 1875 428 2675 428 
Q 3081 428 3442 575 
Q 3803 722 4122 1019 
L 4122 359 
Q 3791 134 3420 21 
Q 3050 -91 2638 -91 
Q 1578 -91 968 557 
Q 359 1206 359 2328 
Q 359 3453 968 4101 
Q 1578 4750 2638 4750 
Q 3056 4750 3426 4639 
Q 3797 4528 4122 4306 
z
" transform="scale(0.015625)"/>
      <path id="DejaVuSans-4e" d="M 628 4666 
L 1478 4666 
L 3547 763 
L 3547 4666 
L 4159 4666 
L 4159 0 
L 3309 0 
L 1241 3903 
L 1241 0 
L 628 0 
L 628 4666 
z
" transform="scale(0.015625)"/>
      <path id="DejaVuSans-41" d="M 2188 4044 
L 1331 1722 
L 3047 1722 
L 2188 4044 
z
M 1831 4666 
L 2547 4666 
L 4325 0 
L 3669 0 
L 3244 1197 
L 1141 1197 
L 716 0 
L 50 0 
L 1831 4666 
z
" transform="scale(0.015625)"/>
     </defs>
     <use xlink:href="#DejaVuSans-51"/>
     <use xlink:href="#DejaVuSans-75" x="78.710938"/>
     <use xlink:href="#DejaVuSans-65" x="142.089844"/>
     <use xlink:href="#DejaVuSans-6c" x="203.613281"/>
     <use xlink:href="#DejaVuSans-6c" x="231.396484"/>
     <use xlink:href="#DejaVuSans-65" x="259.179688"/>
     <use xlink:href="#DejaVuSans-3a" x="320.703125"/>
     <use xlink:href="#DejaVuSans-20" x="354.394531"/>
     <use xlink:href="#DejaVuSans-57" x="386.181641"/>
     <use xlink:href="#DejaVuSans-6f" x="479.183594"/>
     <use xlink:href="#DejaVuSans-72" x="540.365234"/>
     <use xlink:href="#DejaVuSans-6c" x="581.478516"/>
     <use xlink:href="#DejaVuSans-64" x="609.261719"/>
     <use xlink:href="#DejaVuSans-20" x="672.738281"/>
     <use xlink:href="#DejaVuSans-42" x="704.525391"/>
     <use xlink:href="#DejaVuSans-61" x="773.128906"/>
     <use xlink:href="#DejaVuSans-6e" x="834.408203"/>
     <use xlink:href="#DejaVuSans-6b" x="897.787109"/>
     <use xlink:href="#DejaVuSans-20" x="955.697266"/>
     <use xlink:href="#DejaVuSans-57" x="987.484375"/>
     <use xlink:href="#DejaVuSans-6f" x="1080.486328"/>
     <use xlink:href="#DejaVuSans-72" x="1141.667969"/>
     <use xlink:href="#DejaVuSans-6c" x="1182.78125"/>
     <use xlink:href="#DejaVuSans-64" x="1210.564453"/>
     <use xlink:href="#DejaVuSans-20" x="1274.041016"/>
     <use xlink:href="#DejaVuSans-44" x="1305.828125"/>
     <use xlink:href="#DejaVuSans-65" x="1382.830078"/>
     <use xlink:href="#DejaVuSans-76" x="1444.353516"/>
     <use xlink:href="#DejaVuSans-65" x="1503.533203"/>
     <use xlink:href="#DejaVuSans-6c" x="1565.056641"/>
     <use xlink:href="#DejaVuSans-6f" x="1592.839844"/>
     <use xlink:href="#DejaVuSans-70" x="1654.021484"/>
     <use xlink:href="#DejaVuSans-6d" x="1717.498047"/>
     <use xlink:href="#DejaVuSans-65" x="1814.910156"/>
     <use xlink:href="#DejaVuSans-6e" x="1876.433594"/>
     <use xlink:href="#DejaVuSans-74" x="1939.8125"/>
     <use xlink:href="#DejaVuSans-20" x="1979.021484"/>
     <use xlink:href="#DejaVuSans-49" x="2010.808594"/>
     <use xlink:href="#DejaVuSans-6e" x="2040.300781"/>
     <use xlink:href="#DejaVuSans-64" x="2103.679688"/>
     <use xlink:href="#DejaVuSans-69" x="2167.15625"/>
     <use xlink:href="#DejaVuSans-63" x="2194.939453"/>
     <use xlink:href="#DejaVuSans-61" x="2249.919922"/>
     <use xlink:href="#DejaVuSans-74" x="2311.199219"/>
     <use xlink:href="#DejaVuSans-6f" x="2350.408203"/>
     <use xlink:href="#DejaVuSans-72" x="2411.589844"/>
     <use xlink:href="#DejaVuSans-73" x="2452.703125"/>
     <use xlink:href="#DejaVuSans-3b" x="2504.802734"/>
     <use xlink:href="#DejaVuSans-20" x="2538.494141"/>
     <use xlink:href="#DejaVuSans-4f" x="2570.28125"/>
     <use xlink:href="#DejaVuSans-45" x="2648.992188"/>
     <use xlink:href="#DejaVuSans-43" x="2712.175781"/>
     <use xlink:href="#DejaVuSans-44" x="2782"/>
     <use xlink:href="#DejaVuSans-20" x="2859.001953"/>
     <use xlink:href="#DejaVuSans-4e" x="2890.789062"/>
     <use xlink:href="#DejaVuSans-61" x="2965.59375"/>
     <use xlink:href="#DejaVuSans-74" x="3026.873047"/>
     <use xlink:href="#DejaVuSans-69" x="3066.082031"/>
     <use xlink:href="#DejaVuSans-6f" x="3093.865234"/>
     <use xlink:href="#DejaVuSans-6e" x="3155.046875"/>
     <use xlink:href="#DejaVuSans-61" x="3218.425781"/>
     <use xlink:href="#DejaVuSans-6c" x="3279.705078"/>
     <use xlink:href="#DejaVuSans-20" x="3307.488281"/>
     <use xlink:href="#DejaVuSans-41" x="3339.275391"/>
     <use xlink:href="#DejaVuSans-63" x="3405.933594"/>
     <use xlink:href="#DejaVuSans-63" x="3460.914062"/>
     <use xlink:href="#DejaVuSans-6f" x="3515.894531"/>
     <use xlink:href="#DejaVuSans-75" x="3577.076172"/>
     <use xlink:href="#DejaVuSans-6e" x="3640.455078"/>
     <use xlink:href="#DejaVuSans-74" x="3703.833984"/>
     <use xlink:href="#DejaVuSans-73" x="3743.042969"/>
    </g>
   </g>
   <g id="legend_1">
    <g id="patch_7">
     <path d="M 54.45 92.190625 
L 279.745313 92.190625 
Q 281.745313 92.190625 281.745313 90.190625 
L 281.745313 17.8 
Q 281.745313 15.8 279.745313 15.8 
L 54.45 15.8 
Q 52.45 15.8 52.45 17.8 
L 52.45 90.190625 
Q 52.45 92.190625 54.45 92.190625 
z
" style="opacity: 0.7; stroke: #cccccc; stroke-linejoin: miter"/>
    </g>
    <g id="line2d_34">
     <path d="M 56.45 23.898438 
L 66.45 23.898438 
L 76.45 23.898438 
" style="fill: none; stroke: #cc241d; stroke-width: 1.5; stroke-linecap: square"/>
    </g>
    <g id="text_18">
     <!-- Länder mit niedrigem Einkommen -->
     <g style="fill: #e6e6e6" transform="translate(84.45 27.398438) scale(0.1 -0.1)">
      <defs>
       <path id="DejaVuSans-4c" d="M 628 4666 
L 1259 4666 
L 1259 531 
L 3531 531 
L 3531 0 
L 628 0 
L 628 4666 
z
" transform="scale(0.015625)"/>
       <path id="DejaVuSans-e4" d="M 2194 1759 
Q 1497 1759 1228 1600 
Q 959 1441 959 1056 
Q 959 750 1161 570 
Q 1363 391 1709 391 
Q 2188 391 2477 730 
Q 2766 1069 2766 1631 
L 2766 1759 
L 2194 1759 
z
M 3341 1997 
L 3341 0 
L 2766 0 
L 2766 531 
Q 2569 213 2275 61 
Q 1981 -91 1556 -91 
Q 1019 -91 701 211 
Q 384 513 384 1019 
Q 384 1609 779 1909 
Q 1175 2209 1959 2209 
L 2766 2209 
L 2766 2266 
Q 2766 2663 2505 2880 
Q 2244 3097 1772 3097 
Q 1472 3097 1187 3025 
Q 903 2953 641 2809 
L 641 3341 
Q 956 3463 1253 3523 
Q 1550 3584 1831 3584 
Q 2591 3584 2966 3190 
Q 3341 2797 3341 1997 
z
M 2150 4850 
L 2784 4850 
L 2784 4219 
L 2150 4219 
L 2150 4850 
z
M 928 4850 
L 1562 4850 
L 1562 4219 
L 928 4219 
L 928 4850 
z
" transform="scale(0.015625)"/>
       <path id="DejaVuSans-67" d="M 2906 1791 
Q 2906 2416 2648 2759 
Q 2391 3103 1925 3103 
Q 1463 3103 1205 2759 
Q 947 2416 947 1791 
Q 947 1169 1205 825 
Q 1463 481 1925 481 
Q 2391 481 2648 825 
Q 2906 1169 2906 1791 
z
M 3481 434 
Q 3481 -459 3084 -895 
Q 2688 -1331 1869 -1331 
Q 1566 -1331 1297 -1286 
Q 1028 -1241 775 -1147 
L 775 -588 
Q 1028 -725 1275 -790 
Q 1522 -856 1778 -856 
Q 2344 -856 2625 -561 
Q 2906 -266 2906 331 
L 2906 616 
Q 2728 306 2450 153 
Q 2172 0 1784 0 
Q 1141 0 747 490 
Q 353 981 353 1791 
Q 353 2603 747 3093 
Q 1141 3584 1784 3584 
Q 2172 3584 2450 3431 
Q 2728 3278 2906 2969 
L 2906 3500 
L 3481 3500 
L 3481 434 
z
" transform="scale(0.015625)"/>
      </defs>
      <use xlink:href="#DejaVuSans-4c"/>
      <use xlink:href="#DejaVuSans-e4" x="55.712891"/>
      <use xlink:href="#DejaVuSans-6e" x="116.992188"/>
      <use xlink:href="#DejaVuSans-64" x="180.371094"/>
      <use xlink:href="#DejaVuSans-65" x="243.847656"/>
      <use xlink:href="#DejaVuSans-72" x="305.371094"/>
      <use xlink:href="#DejaVuSans-20" x="346.484375"/>
      <use xlink:href="#DejaVuSans-6d" x="378.271484"/>
      <use xlink:href="#DejaVuSans-69" x="475.683594"/>
      <use xlink:href="#DejaVuSans-74" x="503.466797"/>
      <use xlink:href="#DejaVuSans-20" x="542.675781"/>
      <use xlink:href="#DejaVuSans-6e" x="574.462891"/>
      <use xlink:href="#DejaVuSans-69" x="637.841797"/>
      <use xlink:href="#DejaVuSans-65" x="665.625"/>
      <use xlink:href="#DejaVuSans-64" x="727.148438"/>
      <use xlink:href="#DejaVuSans-72" x="790.625"/>
      <use xlink:href="#DejaVuSans-69" x="831.738281"/>
      <use xlink:href="#DejaVuSans-67" x="859.521484"/>
      <use xlink:href="#DejaVuSans-65" x="922.998047"/>
      <use xlink:href="#DejaVuSans-6d" x="984.521484"/>
      <use xlink:href="#DejaVuSans-20" x="1081.933594"/>
      <use xlink:href="#DejaVuSans-45" x="1113.720703"/>
      <use xlink:href="#DejaVuSans-69" x="1176.904297"/>
      <use xlink:href="#DejaVuSans-6e" x="1204.6875"/>
      <use xlink:href="#DejaVuSans-6b" x="1268.066406"/>
      <use xlink:href="#DejaVuSans-6f" x="1322.351562"/>
      <use xlink:href="#DejaVuSans-6d" x="1383.533203"/>
      <use xlink:href="#DejaVuSans-6d" x="1480.945312"/>
      <use xlink:href="#DejaVuSans-65" x="1578.357422"/>
      <use xlink:href="#DejaVuSans-6e" x="1639.880859"/>
     </g>
    </g>
    <g id="line2d_35">
     <path d="M 56.45 38.576563 
L 66.45 38.576563 
L 76.45 38.576563 
" style="fill: none; stroke: #98971a; stroke-width: 1.5; stroke-linecap: square"/>
    </g>
    <g id="text_19">
     <!-- Länder mit unterem Mittel einkommen -->
     <g style="fill: #e6e6e6" transform="translate(84.45 42.076563) scale(0.1 -0.1)">
      <defs>
       <path id="DejaVuSans-4d" d="M 628 4666 
L 1569 4666 
L 2759 1491 
L 3956 4666 
L 4897 4666 
L 4897 0 
L 4281 0 
L 4281 4097 
L 3078 897 
L 2444 897 
L 1241 4097 
L 1241 0 
L 628 0 
L 628 4666 
z
" transform="scale(0.015625)"/>
      </defs>
      <use xlink:href="#DejaVuSans-4c"/>
      <use xlink:href="#DejaVuSans-e4" x="55.712891"/>
      <use xlink:href="#DejaVuSans-6e" x="116.992188"/>
      <use xlink:href="#DejaVuSans-64" x="180.371094"/>
      <use xlink:href="#DejaVuSans-65" x="243.847656"/>
      <use xlink:href="#DejaVuSans-72" x="305.371094"/>
      <use xlink:href="#DejaVuSans-20" x="346.484375"/>
      <use xlink:href="#DejaVuSans-6d" x="378.271484"/>
      <use xlink:href="#DejaVuSans-69" x="475.683594"/>
      <use xlink:href="#DejaVuSans-74" x="503.466797"/>
      <use xlink:href="#DejaVuSans-20" x="542.675781"/>
      <use xlink:href="#DejaVuSans-75" x="574.462891"/>
      <use xlink:href="#DejaVuSans-6e" x="637.841797"/>
      <use xlink:href="#DejaVuSans-74" x="701.220703"/>
      <use xlink:href="#DejaVuSans-65" x="740.429688"/>
      <use xlink:href="#DejaVuSans-72" x="801.953125"/>
      <use xlink:href="#DejaVuSans-65" x="840.816406"/>
      <use xlink:href="#DejaVuSans-6d" x="902.339844"/>
      <use xlink:href="#DejaVuSans-20" x="999.751953"/>
      <use xlink:href="#DejaVuSans-4d" x="1031.539062"/>
      <use xlink:href="#DejaVuSans-69" x="1117.818359"/>
      <use xlink:href="#DejaVuSans-74" x="1145.601562"/>
      <use xlink:href="#DejaVuSans-74" x="1184.810547"/>
      <use xlink:href="#DejaVuSans-65" x="1224.019531"/>
      <use xlink:href="#DejaVuSans-6c" x="1285.542969"/>
      <use xlink:href="#DejaVuSans-20" x="1313.326172"/>
      <use xlink:href="#DejaVuSans-65" x="1345.113281"/>
      <use xlink:href="#DejaVuSans-69" x="1406.636719"/>
      <use xlink:href="#DejaVuSans-6e" x="1434.419922"/>
      <use xlink:href="#DejaVuSans-6b" x="1497.798828"/>
      <use xlink:href="#DejaVuSans-6f" x="1552.083984"/>
      <use xlink:href="#DejaVuSans-6d" x="1613.265625"/>
      <use xlink:href="#DejaVuSans-6d" x="1710.677734"/>
      <use xlink:href="#DejaVuSans-65" x="1808.089844"/>
      <use xlink:href="#DejaVuSans-6e" x="1869.613281"/>
     </g>
    </g>
    <g id="line2d_36">
     <path d="M 56.45 53.254687 
L 66.45 53.254687 
L 76.45 53.254687 
" style="fill: none; stroke: #d79921; stroke-width: 1.5; stroke-linecap: square"/>
    </g>
    <g id="text_20">
     <!-- Länder mit oberem Mittel einkommen -->
     <g style="fill: #e6e6e6" transform="translate(84.45 56.754687) scale(0.1 -0.1)">
      <defs>
       <path id="DejaVuSans-62" d="M 3116 1747 
Q 3116 2381 2855 2742 
Q 2594 3103 2138 3103 
Q 1681 3103 1420 2742 
Q 1159 2381 1159 1747 
Q 1159 1113 1420 752 
Q 1681 391 2138 391 
Q 2594 391 2855 752 
Q 3116 1113 3116 1747 
z
M 1159 2969 
Q 1341 3281 1617 3432 
Q 1894 3584 2278 3584 
Q 2916 3584 3314 3078 
Q 3713 2572 3713 1747 
Q 3713 922 3314 415 
Q 2916 -91 2278 -91 
Q 1894 -91 1617 61 
Q 1341 213 1159 525 
L 1159 0 
L 581 0 
L 581 4863 
L 1159 4863 
L 1159 2969 
z
" transform="scale(0.015625)"/>
      </defs>
      <use xlink:href="#DejaVuSans-4c"/>
      <use xlink:href="#DejaVuSans-e4" x="55.712891"/>
      <use xlink:href="#DejaVuSans-6e" x="116.992188"/>
      <use xlink:href="#DejaVuSans-64" x="180.371094"/>
      <use xlink:href="#DejaVuSans-65" x="243.847656"/>
      <use xlink:href="#DejaVuSans-72" x="305.371094"/>
      <use xlink:href="#DejaVuSans-20" x="346.484375"/>
      <use xlink:href="#DejaVuSans-6d" x="378.271484"/>
      <use xlink:href="#DejaVuSans-69" x="475.683594"/>
      <use xlink:href="#DejaVuSans-74" x="503.466797"/>
      <use xlink:href="#DejaVuSans-20" x="542.675781"/>
      <use xlink:href="#DejaVuSans-6f" x="574.462891"/>
      <use xlink:href="#DejaVuSans-62" x="635.644531"/>
      <use xlink:href="#DejaVuSans-65" x="699.121094"/>
      <use xlink:href="#DejaVuSans-72" x="760.644531"/>
      <use xlink:href="#DejaVuSans-65" x="799.507812"/>
      <use xlink:href="#DejaVuSans-6d" x="861.03125"/>
      <use xlink:href="#DejaVuSans-20" x="958.443359"/>
      <use xlink:href="#DejaVuSans-4d" x="990.230469"/>
      <use xlink:href="#DejaVuSans-69" x="1076.509766"/>
      <use xlink:href="#DejaVuSans-74" x="1104.292969"/>
      <use xlink:href="#DejaVuSans-74" x="1143.501953"/>
      <use xlink:href="#DejaVuSans-65" x="1182.710938"/>
      <use xlink:href="#DejaVuSans-6c" x="1244.234375"/>
      <use xlink:href="#DejaVuSans-20" x="1272.017578"/>
      <use xlink:href="#DejaVuSans-65" x="1303.804688"/>
      <use xlink:href="#DejaVuSans-69" x="1365.328125"/>
      <use xlink:href="#DejaVuSans-6e" x="1393.111328"/>
      <use xlink:href="#DejaVuSans-6b" x="1456.490234"/>
      <use xlink:href="#DejaVuSans-6f" x="1510.775391"/>
      <use xlink:href="#DejaVuSans-6d" x="1571.957031"/>
      <use xlink:href="#DejaVuSans-6d" x="1669.369141"/>
      <use xlink:href="#DejaVuSans-65" x="1766.78125"/>
      <use xlink:href="#DejaVuSans-6e" x="1828.304688"/>
     </g>
    </g>
    <g id="line2d_37">
     <path d="M 56.45 67.932813 
L 66.45 67.932813 
L 76.45 67.932813 
" style="fill: none; stroke: #458588; stroke-width: 1.5; stroke-linecap: square"/>
    </g>
    <g id="text_21">
     <!-- Länder mit hohem Einkommen -->
     <g style="fill: #e6e6e6" transform="translate(84.45 71.432813) scale(0.1 -0.1)">
      <use xlink:href="#DejaVuSans-4c"/>
      <use xlink:href="#DejaVuSans-e4" x="55.712891"/>
      <use xlink:href="#DejaVuSans-6e" x="116.992188"/>
      <use xlink:href="#DejaVuSans-64" x="180.371094"/>
      <use xlink:href="#DejaVuSans-65" x="243.847656"/>
      <use xlink:href="#DejaVuSans-72" x="305.371094"/>
      <use xlink:href="#DejaVuSans-20" x="346.484375"/>
      <use xlink:href="#DejaVuSans-6d" x="378.271484"/>
      <use xlink:href="#DejaVuSans-69" x="475.683594"/>
      <use xlink:href="#DejaVuSans-74" x="503.466797"/>
      <use xlink:href="#DejaVuSans-20" x="542.675781"/>
      <use xlink:href="#DejaVuSans-68" x="574.462891"/>
      <use xlink:href="#DejaVuSans-6f" x="637.841797"/>
      <use xlink:href="#DejaVuSans-68" x="699.023438"/>
      <use xlink:href="#DejaVuSans-65" x="762.402344"/>
      <use xlink:href="#DejaVuSans-6d" x="823.925781"/>
      <use xlink:href="#DejaVuSans-20" x="921.337891"/>
      <use xlink:href="#DejaVuSans-45" x="953.125"/>
      <use xlink:href="#DejaVuSans-69" x="1016.308594"/>
      <use xlink:href="#DejaVuSans-6e" x="1044.091797"/>
      <use xlink:href="#DejaVuSans-6b" x="1107.470703"/>
      <use xlink:href="#DejaVuSans-6f" x="1161.755859"/>
      <use xlink:href="#DejaVuSans-6d" x="1222.9375"/>
      <use xlink:href="#DejaVuSans-6d" x="1320.349609"/>
      <use xlink:href="#DejaVuSans-65" x="1417.761719"/>
      <use xlink:href="#DejaVuSans-6e" x="1479.285156"/>
     </g>
    </g>
    <g id="line2d_38">
     <path d="M 56.45 82.610937 
L 66.45 82.610937 
L 76.45 82.610937 
" style="fill: none; stroke: #b16286; stroke-width: 1.5; stroke-linecap: square"/>
    </g>
    <g id="text_22">
     <!-- Welt -->
     <g style="fill: #e6e6e6" transform="translate(84.45 86.110937) scale(0.1 -0.1)">
      <use xlink:href="#DejaVuSans-57"/>
      <use xlink:href="#DejaVuSans-65" x="93.001953"/>
      <use xlink:href="#DejaVuSans-6c" x="154.525391"/>
      <use xlink:href="#DejaVuSans-74" x="182.308594"/>
     </g>
    </g>
   </g>
  </g>
 </g>
 <defs>
  <clipPath id="pce714361e4">
   <rect x="47.45" y="10.8" width="805.75" height="360.504"/>
  </clipPath>
 </defs>
</svg>
