<svg xmlns="http://www.w3.org/2000/svg" version="1.1" style="font-family:Lato, &#x27;Helvetica Neue&#x27;, Helvetica, Arial, &#x27;Liberation Sans&#x27;, sans-serif;font-size:18px;background-color:white;text-rendering:geometricPrecision;-webkit-font-smoothing:antialiased" width="850" height="600" viewBox="0 0 850 600"><defs><style>@import url(https://ourworldindata.org/fonts.css)</style></defs><defs><pattern id="noDataPattern" patternUnits="userSpaceOnUse" width="4" height="4" patternTransform="rotate(-45 2 2)"><path d="M -1,2 l 6,0" stroke="#ccc" stroke-width="0.7"></path></pattern></defs><rect class="background-fill" fill="white" width="850" height="600"></rect><g class="HeaderView"><g transform="translate(769, 16) scale(1)"><svg className="owidLogo" xmlns="http://www.w3.org/2000/svg" width="65" height="36" viewBox="0 0 65 36"  fill="none"><path fill="#002147" d="M0 0h64.8v36H0z"/><path fill="#CE261E" d="M0 33.3h64.8V36H0z"/><path fill="#fff" d="M13.796 10.575c0 .636-.106 1.226-.318 1.77a4.193 4.193 0 0 1-.894 1.404 4.084 4.084 0 0 1-1.386.93c-.54.22-1.138.33-1.794.33-.656 0-1.256-.11-1.8-.33a4.149 4.149 0 0 1-1.392-.93 4.193 4.193 0 0 1-.894-1.404A4.833 4.833 0 0 1 5 10.575c0-.636.106-1.224.318-1.764a4.18 4.18 0 0 1 .894-1.41 4.076 4.076 0 0 1 1.392-.924 4.684 4.684 0 0 1 1.8-.336c.656 0 1.254.112 1.794.336.54.224 1.002.534 1.386.93.384.392.682.86.894 1.404.212.54.318 1.128.318 1.764Zm-1.656 0c0-.476-.064-.902-.192-1.278a2.671 2.671 0 0 0-.54-.966 2.332 2.332 0 0 0-.864-.606 2.94 2.94 0 0 0-1.14-.21c-.424 0-.806.07-1.146.21-.34.14-.63.342-.87.606a2.742 2.742 0 0 0-.546.966 3.955 3.955 0 0 0-.192 1.278c0 .476.064.904.192 1.284.128.376.31.696.546.96.24.26.53.46.87.6.34.14.722.21 1.146.21.424 0 .804-.07 1.14-.21.34-.14.628-.34.864-.6.236-.264.416-.584.54-.96a4.01 4.01 0 0 0 .192-1.284ZM16.104 8.757v3.912c0 .376.086.668.258.876.176.204.438.306.786.306.256 0 .496-.056.72-.168a2.58 2.58 0 0 0 .636-.474V8.757h1.482v6.156h-.906c-.192 0-.318-.09-.378-.27l-.102-.492a4.65 4.65 0 0 1-.396.354 2.577 2.577 0 0 1-.438.27 2.35 2.35 0 0 1-.498.168 2.345 2.345 0 0 1-.57.066c-.336 0-.634-.056-.894-.168a1.821 1.821 0 0 1-.648-.486 2.157 2.157 0 0 1-.402-.738 3.233 3.233 0 0 1-.132-.948V8.757h1.482ZM21.328 14.913V8.757h.87c.152 0 .258.028.318.084.06.056.1.152.12.288l.09.744c.22-.38.478-.68.774-.9.296-.22.628-.33.996-.33.304 0 .556.07.756.21l-.192 1.11c-.012.072-.038.124-.078.156a.278.278 0 0 1-.162.042 1.01 1.01 0 0 1-.246-.042 1.646 1.646 0 0 0-.414-.042c-.308 0-.572.086-.792.258-.22.168-.406.416-.558.744v3.834h-1.482ZM27.347 6.237h1.356a.57.57 0 0 1 .348.102c.096.064.16.152.192.264l1.476 5.19c.036.128.068.268.096.42.032.148.062.306.09.474a5.968 5.968 0 0 1 .228-.894l1.704-5.19a.575.575 0 0 1 .186-.252.543.543 0 0 1 .348-.114h.474a.57.57 0 0 1 .348.102.497.497 0 0 1 .192.264l1.692 5.19c.088.256.164.54.228.852.028-.156.056-.306.084-.45.032-.144.064-.278.096-.402l1.476-5.19c.028-.1.09-.186.186-.258a.563.563 0 0 1 .348-.108h1.266l-2.694 8.676h-1.458l-1.896-5.928-.078-.246a9.504 9.504 0 0 1-.072-.282c-.024.1-.05.194-.078.282-.024.088-.048.17-.072.246l-1.914 5.928H30.04l-2.694-8.676ZM42.771 8.661c.46 0 .876.074 1.248.222.376.148.696.358.96.63s.468.604.612.996c.144.392.216.83.216 1.314 0 .488-.072.928-.216 1.32a2.85 2.85 0 0 1-.612 1.002 2.653 2.653 0 0 1-.96.636 3.35 3.35 0 0 1-1.248.222c-.46 0-.878-.074-1.254-.222a2.712 2.712 0 0 1-.966-.636 2.922 2.922 0 0 1-.618-1.002 3.807 3.807 0 0 1-.216-1.32c0-.484.072-.922.216-1.314.148-.392.354-.724.618-.996.268-.272.59-.482.966-.63a3.397 3.397 0 0 1 1.254-.222Zm0 5.202c.512 0 .89-.172 1.134-.516.248-.344.372-.848.372-1.512s-.124-1.17-.372-1.518c-.244-.348-.622-.522-1.134-.522-.52 0-.904.176-1.152.528-.248.348-.372.852-.372 1.512s.124 1.164.372 1.512c.248.344.632.516 1.152.516ZM46.723 14.913V8.757h.87c.152 0 .258.028.318.084.06.056.1.152.12.288l.09.744c.22-.38.478-.68.774-.9.296-.22.628-.33.996-.33.304 0 .556.07.756.21l-.192 1.11c-.012.072-.038.124-.078.156a.278.278 0 0 1-.162.042 1.01 1.01 0 0 1-.246-.042 1.646 1.646 0 0 0-.414-.042c-.308 0-.572.086-.792.258-.22.168-.406.416-.558.744v3.834h-1.482ZM52.96 5.997v8.916h-1.482V5.997h1.482ZM58.732 14.913c-.192 0-.318-.09-.378-.27l-.12-.594a3.68 3.68 0 0 1-.402.39c-.14.116-.292.216-.456.3-.16.084-.334.148-.522.192a2.372 2.372 0 0 1-.6.072c-.336 0-.644-.07-.924-.21a2.098 2.098 0 0 1-.726-.606 3.033 3.033 0 0 1-.468-.99 5.072 5.072 0 0 1-.162-1.344c0-.456.062-.88.186-1.272s.302-.732.534-1.02c.232-.288.51-.512.834-.672a2.384 2.384 0 0 1 1.092-.246 2.103 2.103 0 0 1 1.536.606V5.997h1.482v8.916h-.906Zm-1.974-1.086c.308 0 .57-.064.786-.192.216-.128.42-.31.612-.546v-2.76a1.452 1.452 0 0 0-.552-.432 1.597 1.597 0 0 0-.636-.126c-.224 0-.428.042-.612.126a1.21 1.21 0 0 0-.462.384c-.124.168-.22.384-.288.648-.068.26-.102.568-.102.924 0 .36.028.666.084.918.06.248.144.452.252.612.108.156.24.27.396.342.156.068.33.102.522.102ZM16.331 20.757v6.156H14.85v-6.156h1.481Zm.223-1.794a.844.844 0 0 1-.078.36.963.963 0 0 1-.21.294.995.995 0 0 1-.3.204.963.963 0 0 1-.372.072.948.948 0 0 1-.367-.072 1.018 1.018 0 0 1-.498-.498.963.963 0 0 1 0-.732.995.995 0 0 1 .205-.3.929.929 0 0 1 .293-.198.899.899 0 0 1 .738 0 .912.912 0 0 1 .3.198.943.943 0 0 1 .288.672ZM17.771 26.913v-6.156h.906c.192 0 .318.09.378.27l.102.486a2.934 2.934 0 0 1 .828-.618c.156-.076.322-.134.498-.174.176-.04.368-.06.576-.06.336 0 .634.058.894.174.26.112.476.272.648.48.176.204.308.45.396.738.092.284.138.598.138.942v3.918h-1.482v-3.918c0-.376-.088-.666-.264-.87-.172-.208-.432-.312-.78-.312-.256 0-.496.058-.72.174a2.58 2.58 0 0 0-.636.474v4.452h-1.482ZM34.22 22.575c0 .636-.106 1.22-.318 1.752-.212.532-.51.99-.894 1.374a4 4 0 0 1-1.386.894 4.87 4.87 0 0 1-1.794.318h-3.312v-8.676h3.312a4.79 4.79 0 0 1 1.794.324 4 4 0 0 1 1.386.894c.384.38.682.836.894 1.368.212.532.318 1.116.318 1.752Zm-1.65 0c0-.476-.064-.902-.192-1.278a2.68 2.68 0 0 0-.546-.96 2.332 2.332 0 0 0-.864-.606 2.94 2.94 0 0 0-1.14-.21h-1.686v6.108h1.686c.424 0 .804-.07 1.14-.21.34-.14.628-.34.864-.6a2.75 2.75 0 0 0 .546-.96 4.01 4.01 0 0 0 .192-1.284ZM39.98 26.913h-.665c-.14 0-.25-.02-.33-.06-.08-.044-.14-.13-.18-.258l-.132-.438c-.156.14-.31.264-.462.372a2.804 2.804 0 0 1-.462.264c-.16.072-.33.126-.51.162-.18.036-.38.054-.6.054-.26 0-.5-.034-.72-.102a1.618 1.618 0 0 1-.57-.318 1.448 1.448 0 0 1-.366-.522 1.852 1.852 0 0 1-.132-.726c0-.232.06-.46.18-.684.124-.228.328-.432.612-.612.284-.184.662-.336 1.134-.456.472-.12 1.058-.188 1.758-.204v-.36c0-.412-.088-.716-.264-.912-.172-.2-.424-.3-.756-.3a1.837 1.837 0 0 0-1.02.276c-.116.068-.224.13-.324.186a.664.664 0 0 1-.33.084.429.429 0 0 1-.258-.078.614.614 0 0 1-.174-.192l-.27-.474c.708-.648 1.562-.972 2.562-.972.36 0 .68.06.96.18.284.116.524.28.72.492.196.208.344.458.444.75.104.292.156.612.156.96v3.888Zm-2.88-.924c.153 0 .293-.014.42-.042.129-.028.249-.07.36-.126.117-.056.227-.124.33-.204.109-.084.217-.182.325-.294v-1.038c-.432.02-.794.058-1.086.114-.288.052-.52.12-.696.204a.923.923 0 0 0-.378.294.664.664 0 0 0-.108.366c0 .26.076.446.228.558.156.112.358.168.606.168ZM43.22 27.01c-.532 0-.942-.15-1.23-.45-.288-.305-.432-.723-.432-1.255v-3.438h-.624a.31.31 0 0 1-.21-.078c-.056-.052-.084-.13-.084-.234v-.588l.99-.162.312-1.68a.302.302 0 0 1 .108-.186.365.365 0 0 1 .222-.066h.768v1.938h1.62v1.056h-1.62v3.336c0 .192.048.342.144.45a.488.488 0 0 0 .384.162c.092 0 .168-.01.228-.03.064-.024.118-.048.162-.072.048-.024.09-.046.126-.066a.194.194 0 0 1 .108-.036.16.16 0 0 1 .108.036c.028.02.058.052.09.096l.444.72c-.216.18-.464.316-.744.408a2.77 2.77 0 0 1-.87.138ZM50.423 26.913h-.666c-.14 0-.25-.02-.33-.06-.08-.044-.14-.13-.18-.258l-.132-.438c-.156.14-.31.264-.462.372a2.804 2.804 0 0 1-.462.264c-.16.072-.33.126-.51.162-.18.036-.38.054-.6.054-.26 0-.5-.034-.72-.102a1.618 1.618 0 0 1-.57-.318 1.448 1.448 0 0 1-.366-.522 1.852 1.852 0 0 1-.132-.726c0-.232.06-.46.18-.684.124-.228.328-.432.612-.612.284-.184.662-.336 1.134-.456.472-.12 1.058-.188 1.758-.204v-.36c0-.412-.088-.716-.264-.912-.172-.2-.424-.3-.756-.3a1.837 1.837 0 0 0-1.02.276c-.116.068-.224.13-.324.186a.664.664 0 0 1-.33.084.429.429 0 0 1-.258-.078.614.614 0 0 1-.174-.192l-.27-.474c.708-.648 1.562-.972 2.562-.972.36 0 .68.06.96.18.284.116.524.28.72.492.196.208.344.458.444.75.104.292.156.612.156.96v3.888Zm-2.88-.924c.152 0 .292-.014.42-.042.128-.028.248-.07.36-.126.116-.056.226-.124.33-.204.108-.084.216-.182.324-.294v-1.038c-.432.02-.794.058-1.086.114-.288.052-.52.12-.696.204a.923.923 0 0 0-.378.294.664.664 0 0 0-.108.366c0 .26.076.446.228.558.156.112.358.168.606.168Z"/></svg></g><a href="https://ourworldindata.org/grapher/trade-as-share-of-gdp?tab=chart&amp;country=CHN~IND~KOR" style="font-family:&#x27;Playfair Display&#x27;, Georgia, &#x27;Times New Roman&#x27;, &#x27;Liberation Serif&#x27;, serif" target="_blank" rel="noopener"><text font-size="24.75" font-weight="500" x="16.0" y="40.0" fill="#5b5b5b"><tspan x="16" y="40.0075">Trade as a share of GDP, 1960 to 2021</tspan></text></a><text x="16.0" y="63.9" style="font-size:14.625px;line-height:1.2" fill="#5b5b5b"><tspan x="16" y="63.9">Sum of exports and imports of goods and services, divided by gross domestic product, expressed as a</tspan><tspan x="16" y="81.4">percentage. This is also known as the &quot;trade openness index&quot;.</tspan></text></g><g style="pointer-events:none"><g class="LineChart"><defs><clipPath id="boundsClip-6"><rect x="45.695" y="90.8" width="838" height="471"></rect></clipPath></defs><rect x="16" y="100.8" width="818" height="451" fill="none"></rect><g class="DualAxisView"><g class="HorizontalAxis"><line x1="55.7" y1="531.3" x2="55.7" y2="536.3" stroke="#999" stroke-width="1"></line><line x1="723.5" y1="531.3" x2="723.5" y2="536.3" stroke="#999" stroke-width="1"></line><line x1="165.2" y1="531.3" x2="165.2" y2="536.3" stroke="#999" stroke-width="1"></line><line x1="274.7" y1="531.3" x2="274.7" y2="536.3" stroke="#999" stroke-width="1"></line><line x1="384.1" y1="531.3" x2="384.1" y2="536.3" stroke="#999" stroke-width="1"></line><line x1="493.6" y1="531.3" x2="493.6" y2="536.3" stroke="#999" stroke-width="1"></line><line x1="603.1" y1="531.3" x2="603.1" y2="536.3" stroke="#999" stroke-width="1"></line><text x="55.695" y="549.8" fill="#5b5b5b" text-anchor="start" font-size="13.5">1960</text><text x="723.535" y="549.8" fill="#5b5b5b" text-anchor="end" font-size="13.5">2021</text><text x="165.2" y="549.8" fill="#5b5b5b" text-anchor="middle" font-size="13.5">1970</text><text x="274.7" y="549.8" fill="#5b5b5b" text-anchor="middle" font-size="13.5">1980</text><text x="384.1" y="549.8" fill="#5b5b5b" text-anchor="middle" font-size="13.5">1990</text><text x="493.6" y="549.8" fill="#5b5b5b" text-anchor="middle" font-size="13.5">2000</text><text x="603.1" y="549.8" fill="#5b5b5b" text-anchor="middle" font-size="13.5">2010</text></g><g class="VerticalAxis"><text x="50.70" y="531.3" dy=".32em" text-anchor="end" fill="#5b5b5b" font-size="13.5">0%</text><text x="50.70" y="450.9" dy=".32em" text-anchor="end" fill="#5b5b5b" font-size="13.5">20%</text><text x="50.70" y="370.5" dy=".32em" text-anchor="end" fill="#5b5b5b" font-size="13.5">40%</text><text x="50.70" y="290" dy=".32em" text-anchor="end" fill="#5b5b5b" font-size="13.5">60%</text><text x="50.70" y="209.6" dy=".32em" text-anchor="end" fill="#5b5b5b" font-size="13.5">80%</text><text x="50.70" y="129.2" dy=".32em" text-anchor="end" fill="#5b5b5b" font-size="13.5">100%</text></g><g class="AxisGridLines horizontalLines"><line x1="55.70" y1="531.3" x2="723.53" y2="531.3" stroke="#999" stroke-width="1"></line><line x1="55.70" y1="450.9" x2="723.53" y2="450.9" stroke="#ddd" stroke-width="1" stroke-dasharray="3,2"></line><line x1="55.70" y1="370.5" x2="723.53" y2="370.5" stroke="#ddd" stroke-width="1" stroke-dasharray="3,2"></line><line x1="55.70" y1="290" x2="723.53" y2="290" stroke="#ddd" stroke-width="1" stroke-dasharray="3,2"></line><line x1="55.70" y1="209.6" x2="723.53" y2="209.6" stroke="#ddd" stroke-width="1" stroke-dasharray="3,2"></line><line x1="55.70" y1="129.2" x2="723.53" y2="129.2" stroke="#ddd" stroke-width="1" stroke-dasharray="3,2"></line></g></g><g clip-path="url(#boundsClip-6)"><g class="LineLabels" style="cursor:default"><g class="legendMark"><rect x="723.535" y="200.85" width="110.465" height="13.5" fill="#fff" opacity="0"></rect><text font-size="13.50" font-weight="400" x="727.5" y="212.6" fill="#00295b"><tspan x="727.535" y="212.595">South Korea</tspan></text></g><g class="legendMark"><rect x="723.535" y="342.45" width="64.43" height="13.5" fill="#fff" opacity="0"></rect><text font-size="13.50" font-weight="400" x="727.5" y="354.2" fill="#2c8465"><tspan x="727.535" y="354.195">India</tspan></text></g><g class="legendMark"><rect x="723.535" y="373.85" width="70.37" height="13.5" fill="#fff" opacity="0"></rect><text font-size="13.50" font-weight="400" x="727.5" y="385.6" fill="#c15065"><tspan x="727.535" y="385.595">China</tspan></text></g></g><g class="Lines"><rect x="56" y="107" width="668" height="424" fill="rgba(255,255,255,0)" opacity="0"></rect><g><path stroke-linecap="round" stroke-linejoin="round" stroke="#ddd" d="M55.7 472.6L66.6 458.9L77.6 452.9L88.5 456.5L99.5 461.6L110.4 445L121.4 424.1L132.3 415.5L143.3 399.5L154.2 398.3L165.2 400.4L176.1 387.8L187.1 378.3L198 323.9L209 308L219.9 314.2L230.9 314.6L241.8 314.5L252.8 313.3L263.7 312L274.7 267.8L285.6 261.4L296.6 289.1L307.5 298.4L318.5 300.6L329.4 319.6L340.3 289.6L351.3 278L362.2 295.2L373.2 318.5L384.1 327.2L395.1 330.9L406 335.2L417 342.6L427.9 335.6L438.9 320.3L449.8 319.6L460.8 300L471.7 255.9L482.7 291L493.6 265.5L504.6 281.1L515.5 296.7L526.5 285.3L537.4 249.8L548.4 256.6L559.3 247.2L570.3 234.2L581.2 147.2L592.2 184.9L603.1 163.8L614.1 106.8L625 107.2L635.9 137.4L646.9 166.9L657.8 213.1L668.8 235.3L679.7 221.2L690.7 213.7L701.6 226.7L712.6 253.7L723.5 207.6" fill="none" stroke-width="1"></path></g><g><path stroke-linecap="round" stroke-linejoin="round" stroke="#ddd" d="M55.7 485.9L66.6 490L77.6 490.3L88.5 490.3L99.5 493.5L110.4 497L121.4 487.8L132.3 491.2L143.3 495.2L154.2 500.2L165.2 500.5L176.1 500.5L187.1 500.2L198 495.4L209 487.7L219.9 481.9L230.9 479.8L241.8 480.4L252.8 479.4L263.7 471.3L274.7 469.4L285.6 473L296.6 474.5L307.5 476.2L318.5 475L329.4 479.4L340.3 482.2L351.3 480.7L362.2 477.1L373.2 470.3L384.1 468.9L395.1 463L406 457.2L417 452.3L427.9 450.6L438.9 439.3L449.8 443.1L460.8 440.3L471.7 436L482.7 431.5L493.6 423.1L504.6 426.8L515.5 412.6L526.5 408.3L537.4 380.5L548.4 362.4L559.3 347.4L570.3 347.6L581.2 316.7L592.2 345.2L603.1 333.2L614.1 307.6L625 306.9L635.9 314.8L646.9 334.6L657.8 362.7L668.8 370.1L679.7 367.5L690.7 355.9L701.6 370.6L712.6 379.3L723.5 349.2" fill="none" stroke-width="1"></path></g><g><path stroke-linecap="round" stroke-linejoin="round" stroke="#ddd" d="M55.7 496.2L66.6 501.7L77.6 503.3L88.5 503.7L99.5 504.6L110.4 503.8L121.4 504.2L132.3 506.2L143.3 506.3L154.2 509.4L165.2 511.4L176.1 511.5L187.1 508.2L198 499.1L209 489.7L219.9 492.9L230.9 495.8L241.8 497.6L252.8 492.5L263.7 486.7L274.7 481.3L285.6 471.4L296.6 474.1L307.5 476.7L318.5 467.9L329.4 448.1L340.3 451.3L351.3 447.9L362.2 438.7L373.2 454.4L384.1 442L395.1 434.5L406 426.4L417 427.1L427.9 387.5L438.9 393.5L449.8 395.3L460.8 392.4L471.7 400.9L482.7 396.5L493.6 372.8L504.6 376.4L515.5 359.4L526.5 323L537.4 292L548.4 281.2L559.3 272L570.3 281.2L581.2 299.6L592.2 349.6L603.1 327.4L614.1 327.3L625 337.2L635.9 343.3L646.9 350.7L657.8 372.6L668.8 382.9L679.7 380L690.7 380.2L701.6 387L712.6 391.5L723.5 380.6" fill="none" stroke-width="1"></path></g><g><path fill="none" stroke-linecap="butt" stroke-linejoin="round" stroke="#fff" stroke-width="2.5" d="M55.7 472.6L66.6 458.9L77.6 452.9L88.5 456.5L99.5 461.6L110.4 445L121.4 424.1L132.3 415.5L143.3 399.5L154.2 398.3L165.2 400.4L176.1 387.8L187.1 378.3L198 323.9L209 308L219.9 314.2L230.9 314.6L241.8 314.5L252.8 313.3L263.7 312L274.7 267.8L285.6 261.4L296.6 289.1L307.5 298.4L318.5 300.6L329.4 319.6L340.3 289.6L351.3 278L362.2 295.2L373.2 318.5L384.1 327.2L395.1 330.9L406 335.2L417 342.6L427.9 335.6L438.9 320.3L449.8 319.6L460.8 300L471.7 255.9L482.7 291L493.6 265.5L504.6 281.1L515.5 296.7L526.5 285.3L537.4 249.8L548.4 256.6L559.3 247.2L570.3 234.2L581.2 147.2L592.2 184.9L603.1 163.8L614.1 106.8L625 107.2L635.9 137.4L646.9 166.9L657.8 213.1L668.8 235.3L679.7 221.2L690.7 213.7L701.6 226.7L712.6 253.7L723.5 207.6"></path><polyline points="55.70,472.60 66.60,458.90 77.60,452.90 88.50,456.50 99.50,461.60 110.40,445.00 121.40,424.10 132.30,415.50 143.30,399.50 154.20,398.30 165.20,400.40 176.10,387.80 187.10,378.30 198.00,323.90 209.00,308.00 219.90,314.20 230.90,314.60 241.80,314.50 252.80,313.30 263.70,312.00 274.70,267.80 285.60,261.40 296.60,289.10 307.50,298.40 318.50,300.60 329.40,319.60 340.30,289.60 351.30,278.00 362.20,295.20 373.20,318.50 384.10,327.20 395.10,330.90 406.00,335.20 417.00,342.60 427.90,335.60 438.90,320.30 449.80,319.60 460.80,300.00 471.70,255.90 482.70,291.00 493.60,265.50 504.60,281.10 515.50,296.70 526.50,285.30 537.40,249.80 548.40,256.60 559.30,247.20 570.30,234.20 581.20,147.20 592.20,184.90 603.10,163.80 614.10,106.80 625.00,107.20 635.90,137.40 646.90,166.90 657.80,213.10 668.80,235.30 679.70,221.20 690.70,213.70 701.60,226.70 712.60,253.70 723.50,207.60" stroke-linejoin="round" stroke-width="1.5" stroke="#00295B" fill="none" stroke-linecap="butt"></polyline><g><circle cx="55.7" cy="472.6" r="1.8" fill="#00295B"></circle><circle cx="66.6" cy="458.9" r="1.8" fill="#00295B"></circle><circle cx="77.6" cy="452.9" r="1.8" fill="#00295B"></circle><circle cx="88.5" cy="456.5" r="1.8" fill="#00295B"></circle><circle cx="99.5" cy="461.6" r="1.8" fill="#00295B"></circle><circle cx="110.4" cy="445" r="1.8" fill="#00295B"></circle><circle cx="121.4" cy="424.1" r="1.8" fill="#00295B"></circle><circle cx="132.3" cy="415.5" r="1.8" fill="#00295B"></circle><circle cx="143.3" cy="399.5" r="1.8" fill="#00295B"></circle><circle cx="154.2" cy="398.3" r="1.8" fill="#00295B"></circle><circle cx="165.2" cy="400.4" r="1.8" fill="#00295B"></circle><circle cx="176.1" cy="387.8" r="1.8" fill="#00295B"></circle><circle cx="187.1" cy="378.3" r="1.8" fill="#00295B"></circle><circle cx="198" cy="323.9" r="1.8" fill="#00295B"></circle><circle cx="209" cy="308" r="1.8" fill="#00295B"></circle><circle cx="219.9" cy="314.2" r="1.8" fill="#00295B"></circle><circle cx="230.9" cy="314.6" r="1.8" fill="#00295B"></circle><circle cx="241.8" cy="314.5" r="1.8" fill="#00295B"></circle><circle cx="252.8" cy="313.3" r="1.8" fill="#00295B"></circle><circle cx="263.7" cy="312" r="1.8" fill="#00295B"></circle><circle cx="274.7" cy="267.8" r="1.8" fill="#00295B"></circle><circle cx="285.6" cy="261.4" r="1.8" fill="#00295B"></circle><circle cx="296.6" cy="289.1" r="1.8" fill="#00295B"></circle><circle cx="307.5" cy="298.4" r="1.8" fill="#00295B"></circle><circle cx="318.5" cy="300.6" r="1.8" fill="#00295B"></circle><circle cx="329.4" cy="319.6" r="1.8" fill="#00295B"></circle><circle cx="340.3" cy="289.6" r="1.8" fill="#00295B"></circle><circle cx="351.3" cy="278" r="1.8" fill="#00295B"></circle><circle cx="362.2" cy="295.2" r="1.8" fill="#00295B"></circle><circle cx="373.2" cy="318.5" r="1.8" fill="#00295B"></circle><circle cx="384.1" cy="327.2" r="1.8" fill="#00295B"></circle><circle cx="395.1" cy="330.9" r="1.8" fill="#00295B"></circle><circle cx="406" cy="335.2" r="1.8" fill="#00295B"></circle><circle cx="417" cy="342.6" r="1.8" fill="#00295B"></circle><circle cx="427.9" cy="335.6" r="1.8" fill="#00295B"></circle><circle cx="438.9" cy="320.3" r="1.8" fill="#00295B"></circle><circle cx="449.8" cy="319.6" r="1.8" fill="#00295B"></circle><circle cx="460.8" cy="300" r="1.8" fill="#00295B"></circle><circle cx="471.7" cy="255.9" r="1.8" fill="#00295B"></circle><circle cx="482.7" cy="291" r="1.8" fill="#00295B"></circle><circle cx="493.6" cy="265.5" r="1.8" fill="#00295B"></circle><circle cx="504.6" cy="281.1" r="1.8" fill="#00295B"></circle><circle cx="515.5" cy="296.7" r="1.8" fill="#00295B"></circle><circle cx="526.5" cy="285.3" r="1.8" fill="#00295B"></circle><circle cx="537.4" cy="249.8" r="1.8" fill="#00295B"></circle><circle cx="548.4" cy="256.6" r="1.8" fill="#00295B"></circle><circle cx="559.3" cy="247.2" r="1.8" fill="#00295B"></circle><circle cx="570.3" cy="234.2" r="1.8" fill="#00295B"></circle><circle cx="581.2" cy="147.2" r="1.8" fill="#00295B"></circle><circle cx="592.2" cy="184.9" r="1.8" fill="#00295B"></circle><circle cx="603.1" cy="163.8" r="1.8" fill="#00295B"></circle><circle cx="614.1" cy="106.8" r="1.8" fill="#00295B"></circle><circle cx="625" cy="107.2" r="1.8" fill="#00295B"></circle><circle cx="635.9" cy="137.4" r="1.8" fill="#00295B"></circle><circle cx="646.9" cy="166.9" r="1.8" fill="#00295B"></circle><circle cx="657.8" cy="213.1" r="1.8" fill="#00295B"></circle><circle cx="668.8" cy="235.3" r="1.8" fill="#00295B"></circle><circle cx="679.7" cy="221.2" r="1.8" fill="#00295B"></circle><circle cx="690.7" cy="213.7" r="1.8" fill="#00295B"></circle><circle cx="701.6" cy="226.7" r="1.8" fill="#00295B"></circle><circle cx="712.6" cy="253.7" r="1.8" fill="#00295B"></circle><circle cx="723.5" cy="207.6" r="1.8" fill="#00295B"></circle></g></g><g><path fill="none" stroke-linecap="butt" stroke-linejoin="round" stroke="#fff" stroke-width="2.5" d="M55.7 485.9L66.6 490L77.6 490.3L88.5 490.3L99.5 493.5L110.4 497L121.4 487.8L132.3 491.2L143.3 495.2L154.2 500.2L165.2 500.5L176.1 500.5L187.1 500.2L198 495.4L209 487.7L219.9 481.9L230.9 479.8L241.8 480.4L252.8 479.4L263.7 471.3L274.7 469.4L285.6 473L296.6 474.5L307.5 476.2L318.5 475L329.4 479.4L340.3 482.2L351.3 480.7L362.2 477.1L373.2 470.3L384.1 468.9L395.1 463L406 457.2L417 452.3L427.9 450.6L438.9 439.3L449.8 443.1L460.8 440.3L471.7 436L482.7 431.5L493.6 423.1L504.6 426.8L515.5 412.6L526.5 408.3L537.4 380.5L548.4 362.4L559.3 347.4L570.3 347.6L581.2 316.7L592.2 345.2L603.1 333.2L614.1 307.6L625 306.9L635.9 314.8L646.9 334.6L657.8 362.7L668.8 370.1L679.7 367.5L690.7 355.9L701.6 370.6L712.6 379.3L723.5 349.2"></path><polyline points="55.70,485.90 66.60,490.00 77.60,490.30 88.50,490.30 99.50,493.50 110.40,497.00 121.40,487.80 132.30,491.20 143.30,495.20 154.20,500.20 165.20,500.50 176.10,500.50 187.10,500.20 198.00,495.40 209.00,487.70 219.90,481.90 230.90,479.80 241.80,480.40 252.80,479.40 263.70,471.30 274.70,469.40 285.60,473.00 296.60,474.50 307.50,476.20 318.50,475.00 329.40,479.40 340.30,482.20 351.30,480.70 362.20,477.10 373.20,470.30 384.10,468.90 395.10,463.00 406.00,457.20 417.00,452.30 427.90,450.60 438.90,439.30 449.80,443.10 460.80,440.30 471.70,436.00 482.70,431.50 493.60,423.10 504.60,426.80 515.50,412.60 526.50,408.30 537.40,380.50 548.40,362.40 559.30,347.40 570.30,347.60 581.20,316.70 592.20,345.20 603.10,333.20 614.10,307.60 625.00,306.90 635.90,314.80 646.90,334.60 657.80,362.70 668.80,370.10 679.70,367.50 690.70,355.90 701.60,370.60 712.60,379.30 723.50,349.20" stroke-linejoin="round" stroke-width="1.5" stroke="#2C8465" fill="none" stroke-linecap="butt"></polyline><g><circle cx="55.7" cy="485.9" r="1.8" fill="#2C8465"></circle><circle cx="66.6" cy="490" r="1.8" fill="#2C8465"></circle><circle cx="77.6" cy="490.3" r="1.8" fill="#2C8465"></circle><circle cx="88.5" cy="490.3" r="1.8" fill="#2C8465"></circle><circle cx="99.5" cy="493.5" r="1.8" fill="#2C8465"></circle><circle cx="110.4" cy="497" r="1.8" fill="#2C8465"></circle><circle cx="121.4" cy="487.8" r="1.8" fill="#2C8465"></circle><circle cx="132.3" cy="491.2" r="1.8" fill="#2C8465"></circle><circle cx="143.3" cy="495.2" r="1.8" fill="#2C8465"></circle><circle cx="154.2" cy="500.2" r="1.8" fill="#2C8465"></circle><circle cx="165.2" cy="500.5" r="1.8" fill="#2C8465"></circle><circle cx="176.1" cy="500.5" r="1.8" fill="#2C8465"></circle><circle cx="187.1" cy="500.2" r="1.8" fill="#2C8465"></circle><circle cx="198" cy="495.4" r="1.8" fill="#2C8465"></circle><circle cx="209" cy="487.7" r="1.8" fill="#2C8465"></circle><circle cx="219.9" cy="481.9" r="1.8" fill="#2C8465"></circle><circle cx="230.9" cy="479.8" r="1.8" fill="#2C8465"></circle><circle cx="241.8" cy="480.4" r="1.8" fill="#2C8465"></circle><circle cx="252.8" cy="479.4" r="1.8" fill="#2C8465"></circle><circle cx="263.7" cy="471.3" r="1.8" fill="#2C8465"></circle><circle cx="274.7" cy="469.4" r="1.8" fill="#2C8465"></circle><circle cx="285.6" cy="473" r="1.8" fill="#2C8465"></circle><circle cx="296.6" cy="474.5" r="1.8" fill="#2C8465"></circle><circle cx="307.5" cy="476.2" r="1.8" fill="#2C8465"></circle><circle cx="318.5" cy="475" r="1.8" fill="#2C8465"></circle><circle cx="329.4" cy="479.4" r="1.8" fill="#2C8465"></circle><circle cx="340.3" cy="482.2" r="1.8" fill="#2C8465"></circle><circle cx="351.3" cy="480.7" r="1.8" fill="#2C8465"></circle><circle cx="362.2" cy="477.1" r="1.8" fill="#2C8465"></circle><circle cx="373.2" cy="470.3" r="1.8" fill="#2C8465"></circle><circle cx="384.1" cy="468.9" r="1.8" fill="#2C8465"></circle><circle cx="395.1" cy="463" r="1.8" fill="#2C8465"></circle><circle cx="406" cy="457.2" r="1.8" fill="#2C8465"></circle><circle cx="417" cy="452.3" r="1.8" fill="#2C8465"></circle><circle cx="427.9" cy="450.6" r="1.8" fill="#2C8465"></circle><circle cx="438.9" cy="439.3" r="1.8" fill="#2C8465"></circle><circle cx="449.8" cy="443.1" r="1.8" fill="#2C8465"></circle><circle cx="460.8" cy="440.3" r="1.8" fill="#2C8465"></circle><circle cx="471.7" cy="436" r="1.8" fill="#2C8465"></circle><circle cx="482.7" cy="431.5" r="1.8" fill="#2C8465"></circle><circle cx="493.6" cy="423.1" r="1.8" fill="#2C8465"></circle><circle cx="504.6" cy="426.8" r="1.8" fill="#2C8465"></circle><circle cx="515.5" cy="412.6" r="1.8" fill="#2C8465"></circle><circle cx="526.5" cy="408.3" r="1.8" fill="#2C8465"></circle><circle cx="537.4" cy="380.5" r="1.8" fill="#2C8465"></circle><circle cx="548.4" cy="362.4" r="1.8" fill="#2C8465"></circle><circle cx="559.3" cy="347.4" r="1.8" fill="#2C8465"></circle><circle cx="570.3" cy="347.6" r="1.8" fill="#2C8465"></circle><circle cx="581.2" cy="316.7" r="1.8" fill="#2C8465"></circle><circle cx="592.2" cy="345.2" r="1.8" fill="#2C8465"></circle><circle cx="603.1" cy="333.2" r="1.8" fill="#2C8465"></circle><circle cx="614.1" cy="307.6" r="1.8" fill="#2C8465"></circle><circle cx="625" cy="306.9" r="1.8" fill="#2C8465"></circle><circle cx="635.9" cy="314.8" r="1.8" fill="#2C8465"></circle><circle cx="646.9" cy="334.6" r="1.8" fill="#2C8465"></circle><circle cx="657.8" cy="362.7" r="1.8" fill="#2C8465"></circle><circle cx="668.8" cy="370.1" r="1.8" fill="#2C8465"></circle><circle cx="679.7" cy="367.5" r="1.8" fill="#2C8465"></circle><circle cx="690.7" cy="355.9" r="1.8" fill="#2C8465"></circle><circle cx="701.6" cy="370.6" r="1.8" fill="#2C8465"></circle><circle cx="712.6" cy="379.3" r="1.8" fill="#2C8465"></circle><circle cx="723.5" cy="349.2" r="1.8" fill="#2C8465"></circle></g></g><g><path fill="none" stroke-linecap="butt" stroke-linejoin="round" stroke="#fff" stroke-width="2.5" d="M55.7 496.2L66.6 501.7L77.6 503.3L88.5 503.7L99.5 504.6L110.4 503.8L121.4 504.2L132.3 506.2L143.3 506.3L154.2 509.4L165.2 511.4L176.1 511.5L187.1 508.2L198 499.1L209 489.7L219.9 492.9L230.9 495.8L241.8 497.6L252.8 492.5L263.7 486.7L274.7 481.3L285.6 471.4L296.6 474.1L307.5 476.7L318.5 467.9L329.4 448.1L340.3 451.3L351.3 447.9L362.2 438.7L373.2 454.4L384.1 442L395.1 434.5L406 426.4L417 427.1L427.9 387.5L438.9 393.5L449.8 395.3L460.8 392.4L471.7 400.9L482.7 396.5L493.6 372.8L504.6 376.4L515.5 359.4L526.5 323L537.4 292L548.4 281.2L559.3 272L570.3 281.2L581.2 299.6L592.2 349.6L603.1 327.4L614.1 327.3L625 337.2L635.9 343.3L646.9 350.7L657.8 372.6L668.8 382.9L679.7 380L690.7 380.2L701.6 387L712.6 391.5L723.5 380.6"></path><polyline points="55.70,496.20 66.60,501.70 77.60,503.30 88.50,503.70 99.50,504.60 110.40,503.80 121.40,504.20 132.30,506.20 143.30,506.30 154.20,509.40 165.20,511.40 176.10,511.50 187.10,508.20 198.00,499.10 209.00,489.70 219.90,492.90 230.90,495.80 241.80,497.60 252.80,492.50 263.70,486.70 274.70,481.30 285.60,471.40 296.60,474.10 307.50,476.70 318.50,467.90 329.40,448.10 340.30,451.30 351.30,447.90 362.20,438.70 373.20,454.40 384.10,442.00 395.10,434.50 406.00,426.40 417.00,427.10 427.90,387.50 438.90,393.50 449.80,395.30 460.80,392.40 471.70,400.90 482.70,396.50 493.60,372.80 504.60,376.40 515.50,359.40 526.50,323.00 537.40,292.00 548.40,281.20 559.30,272.00 570.30,281.20 581.20,299.60 592.20,349.60 603.10,327.40 614.10,327.30 625.00,337.20 635.90,343.30 646.90,350.70 657.80,372.60 668.80,382.90 679.70,380.00 690.70,380.20 701.60,387.00 712.60,391.50 723.50,380.60" stroke-linejoin="round" stroke-width="1.5" stroke="#C15065" fill="none" stroke-linecap="butt"></polyline><g><circle cx="55.7" cy="496.2" r="1.8" fill="#C15065"></circle><circle cx="66.6" cy="501.7" r="1.8" fill="#C15065"></circle><circle cx="77.6" cy="503.3" r="1.8" fill="#C15065"></circle><circle cx="88.5" cy="503.7" r="1.8" fill="#C15065"></circle><circle cx="99.5" cy="504.6" r="1.8" fill="#C15065"></circle><circle cx="110.4" cy="503.8" r="1.8" fill="#C15065"></circle><circle cx="121.4" cy="504.2" r="1.8" fill="#C15065"></circle><circle cx="132.3" cy="506.2" r="1.8" fill="#C15065"></circle><circle cx="143.3" cy="506.3" r="1.8" fill="#C15065"></circle><circle cx="154.2" cy="509.4" r="1.8" fill="#C15065"></circle><circle cx="165.2" cy="511.4" r="1.8" fill="#C15065"></circle><circle cx="176.1" cy="511.5" r="1.8" fill="#C15065"></circle><circle cx="187.1" cy="508.2" r="1.8" fill="#C15065"></circle><circle cx="198" cy="499.1" r="1.8" fill="#C15065"></circle><circle cx="209" cy="489.7" r="1.8" fill="#C15065"></circle><circle cx="219.9" cy="492.9" r="1.8" fill="#C15065"></circle><circle cx="230.9" cy="495.8" r="1.8" fill="#C15065"></circle><circle cx="241.8" cy="497.6" r="1.8" fill="#C15065"></circle><circle cx="252.8" cy="492.5" r="1.8" fill="#C15065"></circle><circle cx="263.7" cy="486.7" r="1.8" fill="#C15065"></circle><circle cx="274.7" cy="481.3" r="1.8" fill="#C15065"></circle><circle cx="285.6" cy="471.4" r="1.8" fill="#C15065"></circle><circle cx="296.6" cy="474.1" r="1.8" fill="#C15065"></circle><circle cx="307.5" cy="476.7" r="1.8" fill="#C15065"></circle><circle cx="318.5" cy="467.9" r="1.8" fill="#C15065"></circle><circle cx="329.4" cy="448.1" r="1.8" fill="#C15065"></circle><circle cx="340.3" cy="451.3" r="1.8" fill="#C15065"></circle><circle cx="351.3" cy="447.9" r="1.8" fill="#C15065"></circle><circle cx="362.2" cy="438.7" r="1.8" fill="#C15065"></circle><circle cx="373.2" cy="454.4" r="1.8" fill="#C15065"></circle><circle cx="384.1" cy="442" r="1.8" fill="#C15065"></circle><circle cx="395.1" cy="434.5" r="1.8" fill="#C15065"></circle><circle cx="406" cy="426.4" r="1.8" fill="#C15065"></circle><circle cx="417" cy="427.1" r="1.8" fill="#C15065"></circle><circle cx="427.9" cy="387.5" r="1.8" fill="#C15065"></circle><circle cx="438.9" cy="393.5" r="1.8" fill="#C15065"></circle><circle cx="449.8" cy="395.3" r="1.8" fill="#C15065"></circle><circle cx="460.8" cy="392.4" r="1.8" fill="#C15065"></circle><circle cx="471.7" cy="400.9" r="1.8" fill="#C15065"></circle><circle cx="482.7" cy="396.5" r="1.8" fill="#C15065"></circle><circle cx="493.6" cy="372.8" r="1.8" fill="#C15065"></circle><circle cx="504.6" cy="376.4" r="1.8" fill="#C15065"></circle><circle cx="515.5" cy="359.4" r="1.8" fill="#C15065"></circle><circle cx="526.5" cy="323" r="1.8" fill="#C15065"></circle><circle cx="537.4" cy="292" r="1.8" fill="#C15065"></circle><circle cx="548.4" cy="281.2" r="1.8" fill="#C15065"></circle><circle cx="559.3" cy="272" r="1.8" fill="#C15065"></circle><circle cx="570.3" cy="281.2" r="1.8" fill="#C15065"></circle><circle cx="581.2" cy="299.6" r="1.8" fill="#C15065"></circle><circle cx="592.2" cy="349.6" r="1.8" fill="#C15065"></circle><circle cx="603.1" cy="327.4" r="1.8" fill="#C15065"></circle><circle cx="614.1" cy="327.3" r="1.8" fill="#C15065"></circle><circle cx="625" cy="337.2" r="1.8" fill="#C15065"></circle><circle cx="635.9" cy="343.3" r="1.8" fill="#C15065"></circle><circle cx="646.9" cy="350.7" r="1.8" fill="#C15065"></circle><circle cx="657.8" cy="372.6" r="1.8" fill="#C15065"></circle><circle cx="668.8" cy="382.9" r="1.8" fill="#C15065"></circle><circle cx="679.7" cy="380" r="1.8" fill="#C15065"></circle><circle cx="690.7" cy="380.2" r="1.8" fill="#C15065"></circle><circle cx="701.6" cy="387" r="1.8" fill="#C15065"></circle><circle cx="712.6" cy="391.5" r="1.8" fill="#C15065"></circle><circle cx="723.5" cy="380.6" r="1.8" fill="#C15065"></circle></g></g></g></g></g></g><g class="SourcesFooter" style="fill:#5b5b5b"><text x="16.0" y="580.9" style="font-size:13.5px;line-height:1.2"><tspan x="16" y="580.9"><tspan style="font-weight:700">Data source:</tspan> World Bank and OECD</tspan></text><text font-size="13.50" x="518.9" y="580.9"><tspan x="518.91" y="580.895"><a target="_blank" style="fill: #5b5b5b;  text-decoration: underline;" href="https://ourworldindata.org/trade-and-globalization">OurWorldInData.org/trade-and-globalization</a> | <a target="_blank" style="fill: #5b5b5b;  text-decoration: underline;" href="https://creativecommons.org/licenses/by/4.0/">CC BY</a></tspan></text></g></svg>