<svg xmlns:xlink="http://www.w3.org/1999/xlink" version="1.1" class="highcharts-root" style="font-family:open sans;font-size:12px;" xmlns="http://www.w3.org/2000/svg" width="600" viewBox="0 0 600 550" height="550"><desc>Created with Highstock 5.0.2</desc><defs><clipPath id="highcharts-58"><rect x="0" y="0" width="499" height="308" fill="none"></rect></clipPath><clipPath id="highcharts-59"><rect x="0" y="0" width="499" height="308" fill="none"></rect></clipPath><clipPath id="highcharts-60"><rect x="0" y="0" width="471" height="40" fill="none"></rect></clipPath><clipPath id="highcharts-61"><rect x="0" y="0" width="499" height="308" fill="none"></rect></clipPath></defs><rect fill="#ffffff" class="highcharts-background" stroke="#e6ecf5" stroke-width="7" x="3.5" y="3.5" width="592" height="542" rx="0" ry="0"></rect><rect fill="none" class="highcharts-plot-background" x="38" y="45" width="499" height="308"></rect><g class="highcharts-range-selector-buttons" transform="translate(0,10)"><text x="38" y="15" style="color:#666666;fill:#666666;">Period</text><g class="highcharts-button highcharts-button-disabled" style="cursor:pointer;" transform="translate(79,0)"><rect fill="#f7f7f7" class=" highcharts-button-box" x="0" y="0" width="32" height="22" rx="2" ry="2"></rect><text x="-0.20833396911621094" style="font-weight:normal;color:#cccccc;fill:#cccccc;" y="14"><tspan>1 Mnt</tspan></text></g><g class="highcharts-button highcharts-button-disabled" style="cursor:pointer;" transform="translate(116,0)"><rect fill="#f7f7f7" class=" highcharts-button-box" x="0" y="0" width="32" height="22" rx="2" ry="2"></rect><text x="-0.20833396911621094" style="font-weight:normal;color:#cccccc;fill:#cccccc;" y="14"><tspan>3 Mnt</tspan></text></g><g class="highcharts-button" style="cursor:pointer;" transform="translate(153,0)"><rect fill="#f7f7f7" class=" highcharts-button-box" x="0" y="0" width="32" height="22" rx="2" ry="2"></rect><text x="-0.20833396911621094" style="font-weight:normal;color:#333333;fill:#333333;" y="14"><tspan>6 Mnt</tspan></text></g><g class="highcharts-button" style="cursor:pointer;" transform="translate(190,0)"><rect fill="#f7f7f7" class=" highcharts-button-box" x="0" y="0" width="32" height="22" rx="2" ry="2"></rect><text x="9.066666603088379" style="font-weight:normal;color:#333333;fill:#333333;" y="14">1y</text></g><g class="highcharts-button highcharts-button-disabled" style="cursor:pointer;" transform="translate(227,0)"><rect fill="#f7f7f7" class=" highcharts-button-box" x="0" y="0" width="32" height="22" rx="2" ry="2"></rect><text x="9.166666507720947" style="font-weight:normal;color:#cccccc;fill:#cccccc;" y="14">All</text></g></g><g class="highcharts-input-group" transform="translate(272,10)" visibility="visible"><g class="highcharts-label highcharts-range-label" transform="translate(0,0)" style="fill:#666666;"><text x="2" y="14" style="font-size:12px;font-family:open sans;color:#666666;fill:#666666;"><tspan>Date From</tspan></text></g><g class="highcharts-label highcharts-range-input" transform="translate(68,0)" style=""><rect fill="none" class="highcharts-label-box" x="0.5" y="0.5" width="94" height="21" stroke="#cccccc" stroke-width="1"></rect><text x="16.066667556762695" y="14" style="font-size:12px;font-family:open sans;color:#333333;fill:#333333;"><tspan>Jan  1, 2018</tspan></text></g><g class="highcharts-label highcharts-range-label" transform="translate(172,0)" style="fill:#666666;"><text x="2" y="14" style="font-size:12px;font-family:open sans;color:#666666;fill:#666666;"><tspan>Date To</tspan></text></g><g class="highcharts-label highcharts-range-input" transform="translate(224,0)" style=""><rect fill="none" class="highcharts-label-box" x="0.5" y="0.5" width="94" height="21" stroke="#cccccc" stroke-width="1"></rect><text x="11.150001525878906" y="14" style="font-size:12px;font-family:open sans;color:#333333;fill:#333333;"><tspan>Dec 31, 2023</tspan></text></g></g><g class="highcharts-plot-lines-0"><path fill="none" stroke="silver" stroke-width="2" d="M 38 353 L 537 353"></path></g><g class="highcharts-plot-lines-0"><path fill="none" stroke="silver" stroke-width="2" visibility="hidden"></path></g><g class="highcharts-grid highcharts-xaxis-grid "><path fill="none" class="highcharts-grid-line" d="M 92.5 45 L 92.5 353 M 92.5 45 L 92.5 353" opacity="1"></path><path fill="none" class="highcharts-grid-line" d="M 176.5 45 L 176.5 353 M 176.5 45 L 176.5 353" opacity="1"></path><path fill="none" class="highcharts-grid-line" d="M 259.5 45 L 259.5 353 M 259.5 45 L 259.5 353" opacity="1"></path><path fill="none" class="highcharts-grid-line" d="M 342.5 45 L 342.5 353 M 342.5 45 L 342.5 353" opacity="1"></path><path fill="none" class="highcharts-grid-line" d="M 425.5 45 L 425.5 353 M 425.5 45 L 425.5 353" opacity="1"></path><path fill="none" class="highcharts-grid-line" d="M 508.5 45 L 508.5 353 M 508.5 45 L 508.5 353" opacity="1"></path></g><g class="highcharts-grid highcharts-xaxis-grid highcharts-navigator-xaxis"><path fill="none" stroke="#e6e6e6" stroke-width="1" class="highcharts-grid-line" d="M 51.5 388 L 51.5 428" opacity="1"></path><path fill="none" stroke="#e6e6e6" stroke-width="1" class="highcharts-grid-line" d="M 208.5 388 L 208.5 428" opacity="1"></path><path fill="none" stroke="#e6e6e6" stroke-width="1" class="highcharts-grid-line" d="M 365.5 388 L 365.5 428" opacity="1"></path></g><g class="highcharts-grid highcharts-yaxis-grid "><path fill="none" stroke="#e6e6e6" stroke-width="1" class="highcharts-grid-line" d="M 38 353.5 L 537 353.5" opacity="1"></path><path fill="none" stroke="#e6e6e6" stroke-width="1" class="highcharts-grid-line" d="M 38 291.5 L 537 291.5" opacity="1"></path><path fill="none" stroke="#e6e6e6" stroke-width="1" class="highcharts-grid-line" d="M 38 230.5 L 537 230.5" opacity="1"></path><path fill="none" stroke="#e6e6e6" stroke-width="1" class="highcharts-grid-line" d="M 38 168.5 L 537 168.5" opacity="1"></path><path fill="none" stroke="#e6e6e6" stroke-width="1" class="highcharts-grid-line" d="M 38 107.5 L 537 107.5" opacity="1"></path><path fill="none" stroke="#e6e6e6" stroke-width="1" class="highcharts-grid-line" d="M 38 44.5 L 537 44.5" opacity="1"></path></g><g class="highcharts-grid highcharts-yaxis-grid "><path fill="none" stroke="#e6e6e6" stroke-width="1" class="highcharts-grid-line" d="M 38 353.5 L 537 353.5" opacity="1"></path><path fill="none" stroke="#e6e6e6" stroke-width="1" class="highcharts-grid-line" d="M 38 291.5 L 537 291.5" opacity="1"></path><path fill="none" stroke="#e6e6e6" stroke-width="1" class="highcharts-grid-line" d="M 38 230.5 L 537 230.5" opacity="1"></path><path fill="none" stroke="#e6e6e6" stroke-width="1" class="highcharts-grid-line" d="M 38 168.5 L 537 168.5" opacity="1"></path><path fill="none" stroke="#e6e6e6" stroke-width="1" class="highcharts-grid-line" d="M 38 107.5 L 537 107.5" opacity="1"></path><path fill="none" stroke="#e6e6e6" stroke-width="1" class="highcharts-grid-line" d="M 38 44.5 L 537 44.5" opacity="1"></path></g><g class="highcharts-grid highcharts-yaxis-grid highcharts-navigator-yaxis"><path fill="none" class="highcharts-grid-line" d="M 52 428.5 L 523 428.5" opacity="1"></path></g><rect fill="none" class="highcharts-plot-border" x="38" y="45" width="499" height="308"></rect><g class="highcharts-axis highcharts-xaxis "><path fill="none" class="highcharts-tick" stroke="#ccd6eb" stroke-width="1" d="M 92.5 353 L 92.5 363" opacity="1"></path><path fill="none" class="highcharts-tick" stroke="#ccd6eb" stroke-width="1" d="M 176.5 353 L 176.5 363" opacity="1"></path><path fill="none" class="highcharts-tick" stroke="#ccd6eb" stroke-width="1" d="M 259.5 353 L 259.5 363" opacity="1"></path><path fill="none" class="highcharts-tick" stroke="#ccd6eb" stroke-width="1" d="M 342.5 353 L 342.5 363" opacity="1"></path><path fill="none" class="highcharts-tick" stroke="#ccd6eb" stroke-width="1" d="M 425.5 353 L 425.5 363" opacity="1"></path><path fill="none" class="highcharts-tick" stroke="#ccd6eb" stroke-width="1" d="M 508.5 353 L 508.5 363" opacity="1"></path><path fill="none" class="highcharts-axis-line" stroke="#ccd6eb" stroke-width="1" d="M 38 353.5 L 537 353.5"></path></g><g class="highcharts-axis highcharts-xaxis highcharts-navigator-xaxis"><path fill="none" class="highcharts-axis-line" d="M 52 428 L 523 428"></path></g><g class="highcharts-axis highcharts-yaxis "><path fill="none" class="highcharts-axis-line" d="M 38 45 L 38 353"></path></g><g class="highcharts-axis highcharts-yaxis "><path fill="none" class="highcharts-axis-line" d="M 537 45 L 537 353"></path></g><g class="highcharts-axis highcharts-yaxis highcharts-navigator-yaxis"><path fill="none" class="highcharts-axis-line" d="M 38 388 L 38 428"></path></g><g class="highcharts-scrollbar" transform="translate(38,429)"><rect fill="#f2f2f2" class="highcharts-scrollbar-track" x="0" rx="0" ry="0" height="14" width="499" stroke="#f2f2f2" stroke-width="1" y="-0.5"></rect><g transform="translate(14,-0.5)"><rect fill="#cccccc" class="highcharts-scrollbar-thumb" height="14" width="471" rx="0" ry="0" stroke="#cccccc" stroke-width="1"></rect><path fill="none" d="M -3 3.5 L -3 9.333333333333334 M 0 3.5 L 0 9.333333333333334 M 3 3.5 L 3 9.333333333333334" class="highcharts-scrollbar-rifles" stroke="#333333" stroke-width="1" transform="translate(235,0)"></path></g><g><rect fill="#e6e6e6" class="highcharts-scrollbar-button" stroke="#cccccc" stroke-width="1" x="-0.5" y="-0.5" width="14" height="14" rx="0" ry="0"></rect><path fill="#333333" d="M 8 4 L 8 10 L 5 7" class="highcharts-scrollbar-arrow"></path></g><g transform="translate(485,0)"><rect fill="#e6e6e6" class="highcharts-scrollbar-button" stroke="#cccccc" stroke-width="1" x="-0.5" y="-0.5" width="14" height="14" rx="0" ry="0"></rect><path fill="#333333" d="M 6 4 L 6 10 L 9 7" class="highcharts-scrollbar-arrow"></path></g></g><g class="highcharts-series-group"><g class="highcharts-series highcharts-series-0 highcharts-line-series highcharts-color-0 " transform="translate(38,45) scale(1 1)" width="308" height="499" clip-path="url(#highcharts-59)"><path fill="none" d="M 0 97.19248000000002 L 6.9305555555556 98.85260000000002 L 13.861111111111 112.80192000000002 L 20.791666666667 106.84212000000002 L 27.722222222222 119.29148 L 34.652777777778 141.5722 L 41.583333333333 132.60324 L 48.513888888889 157.25556 L 55.444444444444 167.74912 L 62.375 165.72864 L 69.305555555556 153.31932 L 76.236111111111 149.69416 L 83.166666666667 139.03736 L 90.097222222222 130.52116 L 97.027777777778 141.8802 L 103.95833333333 151.69308 L 110.88888888889 142.87812 L 117.81944444444 147.917 L 124.75 140.52808000000002 L 131.68055555556 140.56196 L 138.61111111111 142.38224 L 145.54166666667 133.83216000000002 L 152.47222222222 132.88660000000002 L 159.40277777778 132.07656 L 166.33333333333 143.33396000000002 L 173.26388888889 136.02204 L 180.19444444444 187.13156 L 187.125 215.3844 L 194.05555555556 207.10536000000002 L 200.98611111111 228.61608 L 207.91666666667 230.54416 L 214.84722222222 250.20072 L 221.77777777778 257.71592 L 228.70833333333 243.8282 L 235.63888888889 242.90112 L 242.56944444444 220.34012 L 249.5 209.63096000000002 L 256.43055555556 206.31688000000003 L 263.36111111111 227.31632000000002 L 270.29166666667 229.56472000000002 L 277.22222222222 226.3338 L 284.15277777778 198.33044 L 291.08333333333 176.75504 L 298.01388888889 156.233 L 304.94444444444 138.96036 L 311.875 134.29416 L 318.80555555556 127.73992000000001 L 325.73611111111 169.9236 L 332.66666666667 174.62984 L 339.59722222222 181.84012 L 346.52777777778 196.67340000000002 L 353.45833333333 191.42200000000003 L 360.38888888889 208.8086 L 367.31944444444 216.49936000000002 L 374.25 204.2656 L 381.18055555556 173.327 L 388.11111111111 182.07728 L 395.04166666667 162.79956 L 401.97222222222 147.92624 L 408.90277777778 137.34644 L 415.83333333333 162.73488 L 422.76388888889 180.8268 L 429.69444444444 176.55484 L 436.625 182.12656 L 443.55555555556 220.92532 L 450.48611111111 185.89032 L 457.41666666667 176.63492 L 464.34722222222 161.99876 L 471.27777777778 141.07016000000002 L 478.20833333333 140.04760000000002 L 485.13888888889 114.422 L 492.06944444444 107.31028" class="highcharts-graph" stroke="#7cb5ec" stroke-width="2" stroke-linejoin="round" stroke-linecap="round"></path></g><g class="highcharts-markers highcharts-series-0 highcharts-line-series highcharts-color-0 " transform="translate(38,45) scale(1 1)" width="308" height="499" clip-path="none"></g><g class="highcharts-series highcharts-series-1 highcharts-areaspline-series highcharts-color-undefined highcharts-navigator-series" transform="translate(52,388) scale(1 1)" width="40" height="471" clip-path="url(#highcharts-60)"><path fill="rgb(51,92,173)" fill-opacity="0.05" d="M 0 3.636222636954571 C 0 3.636222636954571 3.92500000000002 3.636222636954571 6.5416666666667 3.8578326500553075 C 9.158333333333221 4.079442663156044 10.46666666666648 5.719932370525129 13.083333333333 5.719932370525129 C 15.6999999999998 5.719932370525129 17.0083333333332 4.924356534996512 19.625 4.924356534996512 C 22.2416666666668 4.924356534996512 23.5500000000002 5.658999895679917 26.166666666667 6.586226058100728 C 28.7833333333334 7.5134522205213985 30.0916666666666 9.560487347100217 32.708333333333 9.560487347100217 C 35.324999999999804 9.560487347100217 36.6333333333332 8.363217665932606 39.25 8.363217665932606 C 41.8666666666668 8.363217665932606 43.175000000000196 10.715737467342164 45.791666666667 11.654064687933143 C 48.4083333333334 12.592391908523979 49.7166666666666 13.054853768887146 52.333333333333 13.054853768887146 C 54.9499999999998 13.054853768887146 56.2583333333332 13.054853768887146 58.875 12.785139170382354 C 61.4916666666668 12.515424571877563 62.8000000000002 11.55670429627779 65.416666666667 11.128614601211918 C 68.03333333333339 10.700524906146114 69.34166666666661 11.025991485683237 71.958333333333 10.644690695053168 C 74.57499999999979 10.26338990442304 75.8833333333332 9.733992774796898 78.5 9.222110648061431 C 81.1166666666668 8.710228521325966 82.42500000000021 8.085280061375837 85.041666666667 8.085280061375837 C 87.65833333333339 8.085280061375837 88.9666666666666 9.03635294134735 91.583333333333 9.601602377360095 C 94.19999999999979 10.166851813372922 95.5083333333332 10.911527241439767 98.125 10.911527241439767 C 100.741666666668 10.911527241439767 102.050000000002 9.734815075402096 104.66666666667 9.734815075402096 C 107.28333333333401 9.734815075402096 108.59166666666599 10.40745697045368 111.20833333333 10.40745697045368 C 113.824999999998 10.40745697045368 115.133333333332 9.421107394519236 117.75 9.421107394519236 C 120.366666666668 9.421107394519236 121.675000000002 9.421107394519236 124.29166666667 9.425630047847822 C 126.90833333333399 9.430152701176407 128.216666666666 9.668619876683692 130.83333333333 9.668619876683692 C 133.449999999998 9.668619876683692 134.758333333332 8.653489779567334 137.375 8.527266636669513 C 139.991666666668 8.401043493771692 141.300000000002 8.447914628267988 143.91666666667 8.401043493771692 C 146.53333333333399 8.354172359275468 147.84166666666601 8.292910964188216 150.45833333333 8.292910964188216 C 153.074999999998 8.292910964188216 154.383333333332 9.79566532018671 157 9.79566532018671 C 159.616666666668 9.79566532018671 160.925000000002 8.819594501817239 163.54166666667 8.819594501817239 C 166.15833333333399 8.819594501817239 167.46666666666601 13.523400653730334 170.08333333333 15.64222262314119 C 172.699999999998 17.761044592555315 174.008333333332 19.41370434887969 176.625 19.41370434887969 C 179.241666666668 19.41370434887969 180.550000000002 18.308532335494203 183.16666666667 18.308532335494203 C 185.78333333333399 18.308532335494203 187.09166666666601 20.922625959417168 189.70833333333 21.180006048843996 C 192.324999999998 21.437386138270824 193.633333333332 21.180006048843996 196.25 21.437386138270824 C 198.866666666668 21.694766227697652 200.175000000002 23.33591377555034 202.79166666667 24.061347369456165 C 205.40833333333399 24.786780963360872 206.71666666666601 25.064554107797157 209.33333333333 25.064554107797157 C 211.949999999998 25.064554107797157 213.258333333332 23.334433634461544 215.875 23.210677393379314 C 218.491666666668 23.086921152297084 219.800000000002 23.210677393379314 222.41666666667 23.086921152297084 C 225.03333333333399 22.963164911214854 226.34166666666601 20.9634942994948 228.95833333333 20.07524518576111 C 231.574999999998 19.186996072026044 232.883333333332 19.020069049171628 235.5 18.64567558362519 C 238.116666666668 18.27128211807875 239.425000000002 18.20327785802892 242.04166666667 18.20327785802892 C 244.65833333333399 18.20327785802892 245.96666666666601 20.706360900250218 248.58333333333 21.006500621147318 C 251.199999999998 21.306640342044417 252.508333333332 21.306640342044417 255.125 21.306640342044417 C 257.741666666668 21.306640342044417 259.050000000002 21.306640342044417 261.66666666667 20.87534367461831 C 264.28333333333404 20.444047007192204 265.59166666666596 18.46082240757579 268.20833333333 17.13716512339031 C 270.824999999998 15.813507839202847 272.133333333332 15.380977720869934 274.75 14.257057253685943 C 277.366666666668 13.133136786501952 278.675000000002 12.526607860109007 281.29166666667 11.517562787470354 C 283.90833333333404 10.508517714833214 285.21666666666596 9.797556611578228 287.83333333333 9.211831890496462 C 290.449999999998 8.626107169413817 291.758333333332 8.888503292532791 294.375 8.588939182059327 C 296.991666666668 8.289375071585864 298.300000000002 7.714011338129147 300.91666666667 7.714011338129147 C 303.53333333333404 7.714011338129147 304.84166666666596 12.716888220150963 307.45833333333 13.345125882521877 C 310.074999999998 13.973363544892791 311.383333333332 13.655215440741864 314 13.973363544892791 C 316.616666666668 14.291511649043718 317.925000000002 14.347345860136192 320.54166666667 14.93586640327651 C 323.15833333333404 15.524386946415945 324.46666666666596 16.915966260592175 327.08333333333 16.915966260592175 C 329.699999999998 16.915966260592175 331.008333333332 16.214954994661277 333.625 16.214954994661277 C 336.241666666668 16.214954994661277 337.550000000002 17.866381300078988 340.16666666667 18.535898452831322 C 342.78333333333404 19.205415605582655 344.09166666666596 19.562540758420443 346.70833333333 19.562540758420443 C 349.324999999998 19.562540758420443 350.633333333332 19.082070514803522 353.25 17.92945175649814 C 355.866666666668 16.776832998192752 357.175000000002 13.799446966893516 359.79166666667 13.799446966893516 C 362.40833333333404 13.799446966893516 363.71666666666596 14.967524976576613 366.33333333333 14.967524976576613 C 368.949999999998 14.967524976576613 370.258333333332 13.305902143653952 372.875 12.394135232610925 C 375.491666666668 11.482368321567897 376.800000000002 11.088239641497227 379.41666666667 10.408690421361474 C 382.03333333333404 9.72914120122674 383.34166666666596 8.99638913193471 385.95833333333 8.99638913193471 C 388.574999999998 8.99638913193471 389.883333333332 11.22465931189899 392.5 12.38550107625635 C 395.116666666668 13.546342840613711 396.425000000002 14.800597953721514 399.04166666667 14.800597953721514 C 401.65833333333404 14.800597953721514 402.96666666666596 14.230332484017023 405.58333333333 14.230332484017023 C 408.199999999998 14.230332484017023 409.508333333332 14.230332484017023 412.125 14.974103381418193 C 414.741666666668 15.717874278819362 416.050000000002 20.153363743254875 418.66666666667 20.153363743254875 C 421.28333333333404 20.153363743254875 422.59166666666596 16.658997321467062 425.20833333333 15.47652905119389 C 427.824999999998 14.294060780918945 429.133333333332 14.87888097133632 431.75 14.241022391884592 C 434.366666666668 13.603163812432864 435.675000000002 13.236746662757554 438.29166666667 12.287236153935247 C 440.90833333333404 11.337725645114363 442.21666666666596 9.629971748239406 444.83333333333 9.493469847776616 C 447.449999999998 9.356967947313827 448.758333333332 9.493469847776616 451.375 9.356967947313827 C 453.991666666668 9.220466046851037 455.300000000002 6.810220742957195 457.91666666667 5.936197429692079 C 460.53333333333404 5.062174116428274 464.45833333333 4.986851380991524 464.45833333333 4.986851380991524 L 464.45833333333 40 C 464.45833333333 40 460.53333333333404 40 457.91666666667 40 C 455.300000000002 40 453.991666666668 40 451.375 40 C 448.758333333332 40 447.449999999998 40 444.83333333333 40 C 442.21666666666596 40 440.90833333333404 40 438.29166666667 40 C 435.675000000002 40 434.366666666668 40 431.75 40 C 429.133333333332 40 427.824999999998 40 425.20833333333 40 C 422.59166666666596 40 421.28333333333404 40 418.66666666667 40 C 416.050000000002 40 414.741666666668 40 412.125 40 C 409.508333333332 40 408.199999999998 40 405.58333333333 40 C 402.96666666666596 40 401.65833333333404 40 399.04166666667 40 C 396.425000000002 40 395.116666666668 40 392.5 40 C 389.883333333332 40 388.574999999998 40 385.95833333333 40 C 383.34166666666596 40 382.03333333333404 40 379.41666666667 40 C 376.800000000002 40 375.491666666668 40 372.875 40 C 370.258333333332 40 368.949999999998 40 366.33333333333 40 C 363.71666666666596 40 362.40833333333404 40 359.79166666667 40 C 357.175000000002 40 355.866666666668 40 353.25 40 C 350.633333333332 40 349.324999999998 40 346.70833333333 40 C 344.09166666666596 40 342.78333333333404 40 340.16666666667 40 C 337.550000000002 40 336.241666666668 40 333.625 40 C 331.008333333332 40 329.699999999998 40 327.08333333333 40 C 324.46666666666596 40 323.15833333333404 40 320.54166666667 40 C 317.925000000002 40 316.616666666668 40 314 40 C 311.383333333332 40 310.074999999998 40 307.45833333333 40 C 304.84166666666596 40 303.53333333333404 40 300.91666666667 40 C 298.300000000002 40 296.991666666668 40 294.375 40 C 291.758333333332 40 290.449999999998 40 287.83333333333 40 C 285.21666666666596 40 283.90833333333404 40 281.29166666667 40 C 278.675000000002 40 277.366666666668 40 274.75 40 C 272.133333333332 40 270.824999999998 40 268.20833333333 40 C 265.59166666666596 40 264.28333333333404 40 261.66666666667 40 C 259.050000000002 40 257.741666666668 40 255.125 40 C 252.508333333332 40 251.199999999998 40 248.58333333333 40 C 245.96666666666601 40 244.65833333333399 40 242.04166666667 40 C 239.425000000002 40 238.116666666668 40 235.5 40 C 232.883333333332 40 231.574999999998 40 228.95833333333 40 C 226.34166666666601 40 225.03333333333399 40 222.41666666667 40 C 219.800000000002 40 218.491666666668 40 215.875 40 C 213.258333333332 40 211.949999999998 40 209.33333333333 40 C 206.71666666666601 40 205.40833333333399 40 202.79166666667 40 C 200.175000000002 40 198.866666666668 40 196.25 40 C 193.633333333332 40 192.324999999998 40 189.70833333333 40 C 187.09166666666601 40 185.78333333333399 40 183.16666666667 40 C 180.550000000002 40 179.241666666668 40 176.625 40 C 174.008333333332 40 172.699999999998 40 170.08333333333 40 C 167.46666666666601 40 166.15833333333399 40 163.54166666667 40 C 160.925000000002 40 159.616666666668 40 157 40 C 154.383333333332 40 153.074999999998 40 150.45833333333 40 C 147.84166666666601 40 146.53333333333399 40 143.91666666667 40 C 141.300000000002 40 139.991666666668 40 137.375 40 C 134.758333333332 40 133.449999999998 40 130.83333333333 40 C 128.216666666666 40 126.90833333333399 40 124.29166666667 40 C 121.675000000002 40 120.366666666668 40 117.75 40 C 115.133333333332 40 113.824999999998 40 111.20833333333 40 C 108.59166666666599 40 107.28333333333401 40 104.66666666667 40 C 102.050000000002 40 100.741666666668 40 98.125 40 C 95.5083333333332 40 94.19999999999979 40 91.583333333333 40 C 88.9666666666666 40 87.65833333333339 40 85.041666666667 40 C 82.42500000000021 40 81.1166666666668 40 78.5 40 C 75.8833333333332 40 74.57499999999979 40 71.958333333333 40 C 69.34166666666661 40 68.03333333333339 40 65.416666666667 40 C 62.8000000000002 40 61.4916666666668 40 58.875 40 C 56.2583333333332 40 54.9499999999998 40 52.333333333333 40 C 49.7166666666666 40 48.4083333333334 40 45.791666666667 40 C 43.175000000000196 40 41.8666666666668 40 39.25 40 C 36.6333333333332 40 35.324999999999804 40 32.708333333333 40 C 30.0916666666666 40 28.7833333333334 40 26.166666666667 40 C 23.5500000000002 40 22.2416666666668 40 19.625 40 C 17.0083333333332 40 15.6999999999998 40 13.083333333333 40 C 10.46666666666648 40 9.158333333333221 40 6.5416666666667 40 C 3.92500000000002 40 0 40 0 40" class="highcharts-area"></path><path fill="none" d="M 0 3.636222636954571 C 0 3.636222636954571 3.92500000000002 3.636222636954571 6.5416666666667 3.8578326500553075 C 9.158333333333221 4.079442663156044 10.46666666666648 5.719932370525129 13.083333333333 5.719932370525129 C 15.6999999999998 5.719932370525129 17.0083333333332 4.924356534996512 19.625 4.924356534996512 C 22.2416666666668 4.924356534996512 23.5500000000002 5.658999895679917 26.166666666667 6.586226058100728 C 28.7833333333334 7.5134522205213985 30.0916666666666 9.560487347100217 32.708333333333 9.560487347100217 C 35.324999999999804 9.560487347100217 36.6333333333332 8.363217665932606 39.25 8.363217665932606 C 41.8666666666668 8.363217665932606 43.175000000000196 10.715737467342164 45.791666666667 11.654064687933143 C 48.4083333333334 12.592391908523979 49.7166666666666 13.054853768887146 52.333333333333 13.054853768887146 C 54.9499999999998 13.054853768887146 56.2583333333332 13.054853768887146 58.875 12.785139170382354 C 61.4916666666668 12.515424571877563 62.8000000000002 11.55670429627779 65.416666666667 11.128614601211918 C 68.03333333333339 10.700524906146114 69.34166666666661 11.025991485683237 71.958333333333 10.644690695053168 C 74.57499999999979 10.26338990442304 75.8833333333332 9.733992774796898 78.5 9.222110648061431 C 81.1166666666668 8.710228521325966 82.42500000000021 8.085280061375837 85.041666666667 8.085280061375837 C 87.65833333333339 8.085280061375837 88.9666666666666 9.03635294134735 91.583333333333 9.601602377360095 C 94.19999999999979 10.166851813372922 95.5083333333332 10.911527241439767 98.125 10.911527241439767 C 100.741666666668 10.911527241439767 102.050000000002 9.734815075402096 104.66666666667 9.734815075402096 C 107.28333333333401 9.734815075402096 108.59166666666599 10.40745697045368 111.20833333333 10.40745697045368 C 113.824999999998 10.40745697045368 115.133333333332 9.421107394519236 117.75 9.421107394519236 C 120.366666666668 9.421107394519236 121.675000000002 9.421107394519236 124.29166666667 9.425630047847822 C 126.90833333333399 9.430152701176407 128.216666666666 9.668619876683692 130.83333333333 9.668619876683692 C 133.449999999998 9.668619876683692 134.758333333332 8.653489779567334 137.375 8.527266636669513 C 139.991666666668 8.401043493771692 141.300000000002 8.447914628267988 143.91666666667 8.401043493771692 C 146.53333333333399 8.354172359275468 147.84166666666601 8.292910964188216 150.45833333333 8.292910964188216 C 153.074999999998 8.292910964188216 154.383333333332 9.79566532018671 157 9.79566532018671 C 159.616666666668 9.79566532018671 160.925000000002 8.819594501817239 163.54166666667 8.819594501817239 C 166.15833333333399 8.819594501817239 167.46666666666601 13.523400653730334 170.08333333333 15.64222262314119 C 172.699999999998 17.761044592555315 174.008333333332 19.41370434887969 176.625 19.41370434887969 C 179.241666666668 19.41370434887969 180.550000000002 18.308532335494203 183.16666666667 18.308532335494203 C 185.78333333333399 18.308532335494203 187.09166666666601 20.922625959417168 189.70833333333 21.180006048843996 C 192.324999999998 21.437386138270824 193.633333333332 21.180006048843996 196.25 21.437386138270824 C 198.866666666668 21.694766227697652 200.175000000002 23.33591377555034 202.79166666667 24.061347369456165 C 205.40833333333399 24.786780963360872 206.71666666666601 25.064554107797157 209.33333333333 25.064554107797157 C 211.949999999998 25.064554107797157 213.258333333332 23.334433634461544 215.875 23.210677393379314 C 218.491666666668 23.086921152297084 219.800000000002 23.210677393379314 222.41666666667 23.086921152297084 C 225.03333333333399 22.963164911214854 226.34166666666601 20.9634942994948 228.95833333333 20.07524518576111 C 231.574999999998 19.186996072026044 232.883333333332 19.020069049171628 235.5 18.64567558362519 C 238.116666666668 18.27128211807875 239.425000000002 18.20327785802892 242.04166666667 18.20327785802892 C 244.65833333333399 18.20327785802892 245.96666666666601 20.706360900250218 248.58333333333 21.006500621147318 C 251.199999999998 21.306640342044417 252.508333333332 21.306640342044417 255.125 21.306640342044417 C 257.741666666668 21.306640342044417 259.050000000002 21.306640342044417 261.66666666667 20.87534367461831 C 264.28333333333404 20.444047007192204 265.59166666666596 18.46082240757579 268.20833333333 17.13716512339031 C 270.824999999998 15.813507839202847 272.133333333332 15.380977720869934 274.75 14.257057253685943 C 277.366666666668 13.133136786501952 278.675000000002 12.526607860109007 281.29166666667 11.517562787470354 C 283.90833333333404 10.508517714833214 285.21666666666596 9.797556611578228 287.83333333333 9.211831890496462 C 290.449999999998 8.626107169413817 291.758333333332 8.888503292532791 294.375 8.588939182059327 C 296.991666666668 8.289375071585864 298.300000000002 7.714011338129147 300.91666666667 7.714011338129147 C 303.53333333333404 7.714011338129147 304.84166666666596 12.716888220150963 307.45833333333 13.345125882521877 C 310.074999999998 13.973363544892791 311.383333333332 13.655215440741864 314 13.973363544892791 C 316.616666666668 14.291511649043718 317.925000000002 14.347345860136192 320.54166666667 14.93586640327651 C 323.15833333333404 15.524386946415945 324.46666666666596 16.915966260592175 327.08333333333 16.915966260592175 C 329.699999999998 16.915966260592175 331.008333333332 16.214954994661277 333.625 16.214954994661277 C 336.241666666668 16.214954994661277 337.550000000002 17.866381300078988 340.16666666667 18.535898452831322 C 342.78333333333404 19.205415605582655 344.09166666666596 19.562540758420443 346.70833333333 19.562540758420443 C 349.324999999998 19.562540758420443 350.633333333332 19.082070514803522 353.25 17.92945175649814 C 355.866666666668 16.776832998192752 357.175000000002 13.799446966893516 359.79166666667 13.799446966893516 C 362.40833333333404 13.799446966893516 363.71666666666596 14.967524976576613 366.33333333333 14.967524976576613 C 368.949999999998 14.967524976576613 370.258333333332 13.305902143653952 372.875 12.394135232610925 C 375.491666666668 11.482368321567897 376.800000000002 11.088239641497227 379.41666666667 10.408690421361474 C 382.03333333333404 9.72914120122674 383.34166666666596 8.99638913193471 385.95833333333 8.99638913193471 C 388.574999999998 8.99638913193471 389.883333333332 11.22465931189899 392.5 12.38550107625635 C 395.116666666668 13.546342840613711 396.425000000002 14.800597953721514 399.04166666667 14.800597953721514 C 401.65833333333404 14.800597953721514 402.96666666666596 14.230332484017023 405.58333333333 14.230332484017023 C 408.199999999998 14.230332484017023 409.508333333332 14.230332484017023 412.125 14.974103381418193 C 414.741666666668 15.717874278819362 416.050000000002 20.153363743254875 418.66666666667 20.153363743254875 C 421.28333333333404 20.153363743254875 422.59166666666596 16.658997321467062 425.20833333333 15.47652905119389 C 427.824999999998 14.294060780918945 429.133333333332 14.87888097133632 431.75 14.241022391884592 C 434.366666666668 13.603163812432864 435.675000000002 13.236746662757554 438.29166666667 12.287236153935247 C 440.90833333333404 11.337725645114363 442.21666666666596 9.629971748239406 444.83333333333 9.493469847776616 C 447.449999999998 9.356967947313827 448.758333333332 9.493469847776616 451.375 9.356967947313827 C 453.991666666668 9.220466046851037 455.300000000002 6.810220742957195 457.91666666667 5.936197429692079 C 460.53333333333404 5.062174116428274 464.45833333333 4.986851380991524 464.45833333333 4.986851380991524" class="highcharts-graph" stroke="#335cad" stroke-width="1" stroke-linejoin="round" stroke-linecap="round"></path></g><g class="highcharts-markers highcharts-series-1 highcharts-areaspline-series highcharts-color-undefined highcharts-navigator-series" transform="translate(52,388) scale(1 1)" width="40" height="471" clip-path="none"></g><g class="highcharts-series highcharts-series-2 highcharts-line-series highcharts-color-1 " transform="translate(38,45) scale(1 1)" width="308" height="499" clip-path="url(#highcharts-61)"><path fill="none" d="M 0 284.762464 L 6.9305555555556 284.7273968 L 13.861111111111 284.093796 L 20.791666666667 283.0271752 L 27.722222222222 280.808864 L 34.652777777778 279.4901648 L 41.583333333333 278.752264 L 48.513888888889 272.70200222222223 L 55.444444444444 268.7800808 L 62.375 271.90626399999996 L 69.305555555556 274.899296 L 76.236111111111 275.31427733333334 L 83.166666666667 274.924552 L 90.097222222222 275.58574120000003 L 97.027777777778 274.47766133333334 L 103.95833333333 272.667648 L 110.88888888889 270.735416 L 117.81944444444 272.1984785882353 L 124.75 273.059388 L 131.68055555556 273.35130044444446 L 138.61111111111 272.80918133333336 L 145.54166666667 272.367228 L 152.47222222222 272.695632 L 159.40277777778 272.040216 L 166.33333333333 271.54413999999997 L 173.26388888889 270.7660648 L 180.19444444444 269.1031 L 187.125 265.9952533333333 L 194.05555555556 265.17600611764703 L 200.98611111111 266.057596 L 207.91666666667 265.79725333333334 L 214.84722222222 263.3265096 L 221.77777777778 261.752064 L 228.70833333333 259.49689333333333 L 235.63888888889 258.6995253333333 L 242.56944444444 260.4382382608696 L 249.5 262.453114 L 256.43055555556 264.4342316 L 263.36111111111 261.01007373913046 L 270.29166666667 257.76505333333336 L 277.22222222222 256.61174 L 284.15277777778 255.04444 L 291.08333333333 254.94428235294117 L 298.01388888889 255.7896 L 304.94444444444 255.566808 L 311.875 251.6979388 L 318.80555555556 243.176696 L 325.73611111111 224.6644667826087 L 332.66666666667 224.72134666666665 L 339.59722222222 224.09386999999998 L 346.52777777778 218.2758504347826 L 353.45833333333 217.54922933333336 L 360.38888888889 211.7566391111111 L 367.31944444444 203.49733600000002 L 374.25 200.89351333333332 L 381.18055555556 197.15110800000002 L 388.11111111111 195.3861 L 395.04166666667 193.641976 L 401.97222222222 193.48008399999998 L 408.90277777778 193.19627599999998 L 415.83333333333 192.453352 L 422.76388888889 192.0484104 L 429.69444444444 191.1490584347826 L 436.625 189.09812378947368 L 443.55555555556 186.74626666666666 L 450.48611111111 165.92274484210526 L 457.41666666667 145.2359333333333 L 464.34722222222 141.984444 L 471.27777777778 142.04393866666663 L 478.20833333333 136.776444 L 485.13888888889 131.912788 L 492.06944444444 129.22101866666668 L 499 123.8830208" class="highcharts-graph" stroke="#434348" stroke-width="2" stroke-linejoin="round" stroke-linecap="round"></path></g><g class="highcharts-markers highcharts-series-2 highcharts-line-series highcharts-color-1 " transform="translate(38,45) scale(1 1)" width="308" height="499" clip-path="none"></g><g class="highcharts-series highcharts-series-3 highcharts-areaspline-series highcharts-color-undefined highcharts-navigator-series" transform="translate(52,388) scale(1 1)" width="40" height="471" clip-path="url(#highcharts-60)"><path fill="rgb(51,92,173)" fill-opacity="0.05" d="M 0 39.998449006500316 C 0 39.998449006500316 3.92500000000002 39.998449006500316 6.5416666666667 39.99844666593378 C 9.158333333333221 39.99844432536724 10.46666666666648 39.99842707245397 13.083333333333 39.99840437613497 C 15.6999999999998 39.99838167981597 17.0083333333332 39.998377035013625 19.625 39.998333184338755 C 22.2416666666668 39.99828933366389 23.5500000000002 39.998232338439095 26.166666666667 39.998185122760646 C 28.7833333333334 39.998137907082196 30.0916666666666 39.998124559573526 32.708333333333 39.998097105946506 C 35.324999999999804 39.99806965231949 36.6333333333332 39.998097105946506 39.25 39.99804785462553 C 41.8666666666668 39.99799860330456 43.175000000000196 39.99777714785075 45.791666666667 39.99764402882022 C 48.4083333333334 39.99751090978969 49.7166666666666 39.99738225947289 52.333333333333 39.99738225947289 C 54.9499999999998 39.99738225947289 56.2583333333332 39.99750923150737 58.875 39.99759091713014 C 61.4916666666668 39.9976726027529 62.8000000000002 39.99776298958334 65.416666666667 39.997790687586715 C 68.03333333333339 39.99781838559009 69.34166666666661 39.99781838559009 71.958333333333 39.99781838559009 C 74.57499999999979 39.99781838559009 75.8833333333332 39.99779237330296 78.5 39.99779237330296 C 81.1166666666668 39.99779237330296 82.42500000000021 39.99783650449446 85.041666666667 39.99783650449446 C 87.65833333333339 39.99783650449446 88.9666666666666 39.997801499236004 91.583333333333 39.99776254550542 C 94.19999999999979 39.99772359177483 95.5083333333332 39.99769169120842 98.125 39.997641735841505 C 100.741666666668 39.99759178047458 102.050000000002 39.99751276867081 104.66666666667 39.99751276867081 C 107.28333333333401 39.99751276867081 108.59166666666599 39.99757939825972 111.20833333333 39.99761042104514 C 113.824999999998 39.99764144383056 115.133333333332 39.99765249353769 117.75 39.99766788259792 C 120.366666666668 39.997683271658154 121.675000000002 39.99768736634628 124.29166666667 39.99768736634628 C 126.90833333333399 39.99768736634628 128.216666666666 39.99766431892746 130.83333333333 39.99765118250917 C 133.449999999998 39.997638046090884 134.758333333332 39.99762168425483 137.375 39.99762168425483 C 139.991666666668 39.99762168425483 141.300000000002 39.99764360363859 143.91666666667 39.99764360363859 C 146.53333333333399 39.99764360363859 147.84166666666601 39.99761522908829 150.45833333333 39.99759985778036 C 153.074999999998 39.99758448647243 154.383333333332 39.99758375578893 157 39.99756674709894 C 159.616666666668 39.99754973840896 160.925000000002 39.9975473998608 163.54166666667 39.99751481433045 C 166.15833333333399 39.99748222880011 167.46666666666601 39.99746750518027 170.08333333333 39.997403819447214 C 172.699999999998 39.99734013371416 174.008333333332 39.99724880858198 176.625 39.99719638566516 C 179.241666666668 39.99714396274834 180.550000000002 39.99714170486311 183.16666666667 39.99714170486311 C 185.78333333333399 39.99714170486311 187.09166666666601 39.99720054673761 189.70833333333 39.99720054673761 C 192.324999999998 39.99720054673761 193.633333333332 39.99720054673761 196.25 39.997183170119726 C 198.866666666668 39.99716579350184 200.175000000002 39.99707225926422 202.79166666667 39.997018259887 C 205.40833333333399 39.99696426050978 206.71666666666601 39.99696429491824 209.33333333333 39.99691317323361 C 211.949999999998 39.996862051548966 213.258333333332 39.99680339991174 215.875 39.996762651463804 C 218.491666666668 39.99672190301587 219.800000000002 39.99670943099392 222.41666666667 39.99670943099392 C 225.03333333333399 39.99670943099392 226.34166666666601 39.99677537491 228.95833333333 39.99682548169948 C 231.574999999998 39.99687558848897 232.883333333332 39.996906622283205 235.5 39.99695996494134 C 238.116666666668 39.997013307599474 239.425000000002 39.99709219499016 242.04166666667 39.99709219499016 C 244.65833333333399 39.99709219499016 245.96666666666601 39.99695267606026 248.58333333333 39.99686364896083 C 251.199999999998 39.996774621861405 252.508333333332 39.996705773007555 255.125 39.996647059493014 C 257.741666666668 39.99658834597848 259.050000000002 39.99660639895293 261.66666666667 39.99657008138814 C 264.28333333333404 39.996533763823365 265.59166666666596 39.996472156709196 268.20833333333 39.99646547166911 C 270.824999999998 39.99645878662903 272.133333333332 39.99645878662903 274.75 39.99645878662903 C 277.366666666668 39.99645878662903 278.675000000002 39.99651520750669 281.29166666667 39.99651520750669 C 283.90833333333404 39.99651520750669 285.21666666666596 39.99651520750669 287.83333333333 39.99650033721477 C 290.449999999998 39.99648546692285 291.758333333332 39.99640750489615 294.375 39.99624210884751 C 296.991666666668 39.996076712798875 298.300000000002 39.9960342277573 300.91666666667 39.99567335697158 C 303.53333333333404 39.99531248618586 304.84166666666596 39.994437754918906 307.45833333333 39.994437754918906 C 310.074999999998 39.994437754918906 311.383333333332 39.994441551376944 314 39.994441551376944 C 316.616666666668 39.994441551376944 317.925000000002 39.994441551376944 320.54166666667 39.994399670334516 C 323.15833333333404 39.99435778929209 324.46666666666596 39.994059844032726 327.08333333333 39.99401134557725 C 329.699999999998 39.99396284712177 331.008333333332 39.99401134557725 333.625 39.99396284712177 C 336.241666666668 39.993914348666294 337.550000000002 39.99376379887771 340.16666666667 39.993576219650556 C 342.78333333333404 39.99338864042341 344.09166666666596 39.99316996324093 346.70833333333 39.99302495098604 C 349.324999999998 39.99287993873114 350.633333333332 39.99293587440085 353.25 39.99285115837609 C 355.866666666668 39.99276644235134 357.175000000002 39.99267488952 359.79166666667 39.99260137086225 C 362.40833333333404 39.99252785220451 363.71666666666596 39.992530408616055 366.33333333333 39.99248356508737 C 368.949999999998 39.992436721558676 370.258333333332 39.99237795872932 372.875 39.9923671532188 C 375.491666666668 39.99235634770828 376.800000000002 39.99236229737354 379.41666666667 39.99235634770828 C 382.03333333333404 39.99235039804303 383.34166666666596 39.99235111077474 385.95833333333 39.992337404892524 C 388.574999999998 39.9923236990103 389.883333333332 39.99230314119615 392.5 39.992287818297164 C 395.116666666668 39.992272495398176 396.425000000002 39.99227820145909 399.04166666667 39.99226079039759 C 401.65833333333404 39.992243379336095 402.96666666666596 39.99224014647127 405.58333333333 39.99220076298969 C 408.199999999998 39.992161379508104 409.508333333332 39.992122646014614 412.125 39.99206387298969 C 414.741666666668 39.99200509996476 416.050000000002 39.99206387298969 418.66666666667 39.99190689786506 C 421.28333333333404 39.991749922740425 422.59166666666596 39.99107115109929 425.20833333333 39.990517028173606 C 427.824999999998 39.98996290524792 429.133333333332 39.9893533044742 431.75 39.989136283236654 C 434.366666666668 39.98891926199911 435.675000000002 39.98891926199911 438.29166666667 39.98891926199911 C 440.90833333333404 39.98891926199911 442.21666666666596 39.988923232981286 444.83333333333 39.988923232981286 C 447.449999999998 39.988923232981286 448.758333333332 39.988706894199844 451.375 39.98857165310691 C 453.991666666668 39.98843641201398 455.300000000002 39.988347885159875 457.91666666667 39.98824702751663 C 460.53333333333404 39.98814616987338 461.84166666666596 39.98817455454048 464.45833333333 39.98806736489067 C 467.074999999998 39.98796017524086 471 39.98771107926759 471 39.98771107926759 L 471 40 C 471 40 467.074999999998 40 464.45833333333 40 C 461.84166666666596 40 460.53333333333404 40 457.91666666667 40 C 455.300000000002 40 453.991666666668 40 451.375 40 C 448.758333333332 40 447.449999999998 40 444.83333333333 40 C 442.21666666666596 40 440.90833333333404 40 438.29166666667 40 C 435.675000000002 40 434.366666666668 40 431.75 40 C 429.133333333332 40 427.824999999998 40 425.20833333333 40 C 422.59166666666596 40 421.28333333333404 40 418.66666666667 40 C 416.050000000002 40 414.741666666668 40 412.125 40 C 409.508333333332 40 408.199999999998 40 405.58333333333 40 C 402.96666666666596 40 401.65833333333404 40 399.04166666667 40 C 396.425000000002 40 395.116666666668 40 392.5 40 C 389.883333333332 40 388.574999999998 40 385.95833333333 40 C 383.34166666666596 40 382.03333333333404 40 379.41666666667 40 C 376.800000000002 40 375.491666666668 40 372.875 40 C 370.258333333332 40 368.949999999998 40 366.33333333333 40 C 363.71666666666596 40 362.40833333333404 40 359.79166666667 40 C 357.175000000002 40 355.866666666668 40 353.25 40 C 350.633333333332 40 349.324999999998 40 346.70833333333 40 C 344.09166666666596 40 342.78333333333404 40 340.16666666667 40 C 337.550000000002 40 336.241666666668 40 333.625 40 C 331.008333333332 40 329.699999999998 40 327.08333333333 40 C 324.46666666666596 40 323.15833333333404 40 320.54166666667 40 C 317.925000000002 40 316.616666666668 40 314 40 C 311.383333333332 40 310.074999999998 40 307.45833333333 40 C 304.84166666666596 40 303.53333333333404 40 300.91666666667 40 C 298.300000000002 40 296.991666666668 40 294.375 40 C 291.758333333332 40 290.449999999998 40 287.83333333333 40 C 285.21666666666596 40 283.90833333333404 40 281.29166666667 40 C 278.675000000002 40 277.366666666668 40 274.75 40 C 272.133333333332 40 270.824999999998 40 268.20833333333 40 C 265.59166666666596 40 264.28333333333404 40 261.66666666667 40 C 259.050000000002 40 257.741666666668 40 255.125 40 C 252.508333333332 40 251.199999999998 40 248.58333333333 40 C 245.96666666666601 40 244.65833333333399 40 242.04166666667 40 C 239.425000000002 40 238.116666666668 40 235.5 40 C 232.883333333332 40 231.574999999998 40 228.95833333333 40 C 226.34166666666601 40 225.03333333333399 40 222.41666666667 40 C 219.800000000002 40 218.491666666668 40 215.875 40 C 213.258333333332 40 211.949999999998 40 209.33333333333 40 C 206.71666666666601 40 205.40833333333399 40 202.79166666667 40 C 200.175000000002 40 198.866666666668 40 196.25 40 C 193.633333333332 40 192.324999999998 40 189.70833333333 40 C 187.09166666666601 40 185.78333333333399 40 183.16666666667 40 C 180.550000000002 40 179.241666666668 40 176.625 40 C 174.008333333332 40 172.699999999998 40 170.08333333333 40 C 167.46666666666601 40 166.15833333333399 40 163.54166666667 40 C 160.925000000002 40 159.616666666668 40 157 40 C 154.383333333332 40 153.074999999998 40 150.45833333333 40 C 147.84166666666601 40 146.53333333333399 40 143.91666666667 40 C 141.300000000002 40 139.991666666668 40 137.375 40 C 134.758333333332 40 133.449999999998 40 130.83333333333 40 C 128.216666666666 40 126.90833333333399 40 124.29166666667 40 C 121.675000000002 40 120.366666666668 40 117.75 40 C 115.133333333332 40 113.824999999998 40 111.20833333333 40 C 108.59166666666599 40 107.28333333333401 40 104.66666666667 40 C 102.050000000002 40 100.741666666668 40 98.125 40 C 95.5083333333332 40 94.19999999999979 40 91.583333333333 40 C 88.9666666666666 40 87.65833333333339 40 85.041666666667 40 C 82.42500000000021 40 81.1166666666668 40 78.5 40 C 75.8833333333332 40 74.57499999999979 40 71.958333333333 40 C 69.34166666666661 40 68.03333333333339 40 65.416666666667 40 C 62.8000000000002 40 61.4916666666668 40 58.875 40 C 56.2583333333332 40 54.9499999999998 40 52.333333333333 40 C 49.7166666666666 40 48.4083333333334 40 45.791666666667 40 C 43.175000000000196 40 41.8666666666668 40 39.25 40 C 36.6333333333332 40 35.324999999999804 40 32.708333333333 40 C 30.0916666666666 40 28.7833333333334 40 26.166666666667 40 C 23.5500000000002 40 22.2416666666668 40 19.625 40 C 17.0083333333332 40 15.6999999999998 40 13.083333333333 40 C 10.46666666666648 40 9.158333333333221 40 6.5416666666667 40 C 3.92500000000002 40 0 40 0 40" class="highcharts-area"></path><path fill="none" d="M 0 39.998449006500316 C 0 39.998449006500316 3.92500000000002 39.998449006500316 6.5416666666667 39.99844666593378 C 9.158333333333221 39.99844432536724 10.46666666666648 39.99842707245397 13.083333333333 39.99840437613497 C 15.6999999999998 39.99838167981597 17.0083333333332 39.998377035013625 19.625 39.998333184338755 C 22.2416666666668 39.99828933366389 23.5500000000002 39.998232338439095 26.166666666667 39.998185122760646 C 28.7833333333334 39.998137907082196 30.0916666666666 39.998124559573526 32.708333333333 39.998097105946506 C 35.324999999999804 39.99806965231949 36.6333333333332 39.998097105946506 39.25 39.99804785462553 C 41.8666666666668 39.99799860330456 43.175000000000196 39.99777714785075 45.791666666667 39.99764402882022 C 48.4083333333334 39.99751090978969 49.7166666666666 39.99738225947289 52.333333333333 39.99738225947289 C 54.9499999999998 39.99738225947289 56.2583333333332 39.99750923150737 58.875 39.99759091713014 C 61.4916666666668 39.9976726027529 62.8000000000002 39.99776298958334 65.416666666667 39.997790687586715 C 68.03333333333339 39.99781838559009 69.34166666666661 39.99781838559009 71.958333333333 39.99781838559009 C 74.57499999999979 39.99781838559009 75.8833333333332 39.99779237330296 78.5 39.99779237330296 C 81.1166666666668 39.99779237330296 82.42500000000021 39.99783650449446 85.041666666667 39.99783650449446 C 87.65833333333339 39.99783650449446 88.9666666666666 39.997801499236004 91.583333333333 39.99776254550542 C 94.19999999999979 39.99772359177483 95.5083333333332 39.99769169120842 98.125 39.997641735841505 C 100.741666666668 39.99759178047458 102.050000000002 39.99751276867081 104.66666666667 39.99751276867081 C 107.28333333333401 39.99751276867081 108.59166666666599 39.99757939825972 111.20833333333 39.99761042104514 C 113.824999999998 39.99764144383056 115.133333333332 39.99765249353769 117.75 39.99766788259792 C 120.366666666668 39.997683271658154 121.675000000002 39.99768736634628 124.29166666667 39.99768736634628 C 126.90833333333399 39.99768736634628 128.216666666666 39.99766431892746 130.83333333333 39.99765118250917 C 133.449999999998 39.997638046090884 134.758333333332 39.99762168425483 137.375 39.99762168425483 C 139.991666666668 39.99762168425483 141.300000000002 39.99764360363859 143.91666666667 39.99764360363859 C 146.53333333333399 39.99764360363859 147.84166666666601 39.99761522908829 150.45833333333 39.99759985778036 C 153.074999999998 39.99758448647243 154.383333333332 39.99758375578893 157 39.99756674709894 C 159.616666666668 39.99754973840896 160.925000000002 39.9975473998608 163.54166666667 39.99751481433045 C 166.15833333333399 39.99748222880011 167.46666666666601 39.99746750518027 170.08333333333 39.997403819447214 C 172.699999999998 39.99734013371416 174.008333333332 39.99724880858198 176.625 39.99719638566516 C 179.241666666668 39.99714396274834 180.550000000002 39.99714170486311 183.16666666667 39.99714170486311 C 185.78333333333399 39.99714170486311 187.09166666666601 39.99720054673761 189.70833333333 39.99720054673761 C 192.324999999998 39.99720054673761 193.633333333332 39.99720054673761 196.25 39.997183170119726 C 198.866666666668 39.99716579350184 200.175000000002 39.99707225926422 202.79166666667 39.997018259887 C 205.40833333333399 39.99696426050978 206.71666666666601 39.99696429491824 209.33333333333 39.99691317323361 C 211.949999999998 39.996862051548966 213.258333333332 39.99680339991174 215.875 39.996762651463804 C 218.491666666668 39.99672190301587 219.800000000002 39.99670943099392 222.41666666667 39.99670943099392 C 225.03333333333399 39.99670943099392 226.34166666666601 39.99677537491 228.95833333333 39.99682548169948 C 231.574999999998 39.99687558848897 232.883333333332 39.996906622283205 235.5 39.99695996494134 C 238.116666666668 39.997013307599474 239.425000000002 39.99709219499016 242.04166666667 39.99709219499016 C 244.65833333333399 39.99709219499016 245.96666666666601 39.99695267606026 248.58333333333 39.99686364896083 C 251.199999999998 39.996774621861405 252.508333333332 39.996705773007555 255.125 39.996647059493014 C 257.741666666668 39.99658834597848 259.050000000002 39.99660639895293 261.66666666667 39.99657008138814 C 264.28333333333404 39.996533763823365 265.59166666666596 39.996472156709196 268.20833333333 39.99646547166911 C 270.824999999998 39.99645878662903 272.133333333332 39.99645878662903 274.75 39.99645878662903 C 277.366666666668 39.99645878662903 278.675000000002 39.99651520750669 281.29166666667 39.99651520750669 C 283.90833333333404 39.99651520750669 285.21666666666596 39.99651520750669 287.83333333333 39.99650033721477 C 290.449999999998 39.99648546692285 291.758333333332 39.99640750489615 294.375 39.99624210884751 C 296.991666666668 39.996076712798875 298.300000000002 39.9960342277573 300.91666666667 39.99567335697158 C 303.53333333333404 39.99531248618586 304.84166666666596 39.994437754918906 307.45833333333 39.994437754918906 C 310.074999999998 39.994437754918906 311.383333333332 39.994441551376944 314 39.994441551376944 C 316.616666666668 39.994441551376944 317.925000000002 39.994441551376944 320.54166666667 39.994399670334516 C 323.15833333333404 39.99435778929209 324.46666666666596 39.994059844032726 327.08333333333 39.99401134557725 C 329.699999999998 39.99396284712177 331.008333333332 39.99401134557725 333.625 39.99396284712177 C 336.241666666668 39.993914348666294 337.550000000002 39.99376379887771 340.16666666667 39.993576219650556 C 342.78333333333404 39.99338864042341 344.09166666666596 39.99316996324093 346.70833333333 39.99302495098604 C 349.324999999998 39.99287993873114 350.633333333332 39.99293587440085 353.25 39.99285115837609 C 355.866666666668 39.99276644235134 357.175000000002 39.99267488952 359.79166666667 39.99260137086225 C 362.40833333333404 39.99252785220451 363.71666666666596 39.992530408616055 366.33333333333 39.99248356508737 C 368.949999999998 39.992436721558676 370.258333333332 39.99237795872932 372.875 39.9923671532188 C 375.491666666668 39.99235634770828 376.800000000002 39.99236229737354 379.41666666667 39.99235634770828 C 382.03333333333404 39.99235039804303 383.34166666666596 39.99235111077474 385.95833333333 39.992337404892524 C 388.574999999998 39.9923236990103 389.883333333332 39.99230314119615 392.5 39.992287818297164 C 395.116666666668 39.992272495398176 396.425000000002 39.99227820145909 399.04166666667 39.99226079039759 C 401.65833333333404 39.992243379336095 402.96666666666596 39.99224014647127 405.58333333333 39.99220076298969 C 408.199999999998 39.992161379508104 409.508333333332 39.992122646014614 412.125 39.99206387298969 C 414.741666666668 39.99200509996476 416.050000000002 39.99206387298969 418.66666666667 39.99190689786506 C 421.28333333333404 39.991749922740425 422.59166666666596 39.99107115109929 425.20833333333 39.990517028173606 C 427.824999999998 39.98996290524792 429.133333333332 39.9893533044742 431.75 39.989136283236654 C 434.366666666668 39.98891926199911 435.675000000002 39.98891926199911 438.29166666667 39.98891926199911 C 440.90833333333404 39.98891926199911 442.21666666666596 39.988923232981286 444.83333333333 39.988923232981286 C 447.449999999998 39.988923232981286 448.758333333332 39.988706894199844 451.375 39.98857165310691 C 453.991666666668 39.98843641201398 455.300000000002 39.988347885159875 457.91666666667 39.98824702751663 C 460.53333333333404 39.98814616987338 461.84166666666596 39.98817455454048 464.45833333333 39.98806736489067 C 467.074999999998 39.98796017524086 471 39.98771107926759 471 39.98771107926759" class="highcharts-graph" stroke="#335cad" stroke-width="1" stroke-linejoin="round" stroke-linecap="round"></path></g><g class="highcharts-markers highcharts-series-3 highcharts-areaspline-series highcharts-color-undefined highcharts-navigator-series" transform="translate(52,388) scale(1 1)" width="40" height="471" clip-path="none"></g></g><g class="highcharts-navigator"><rect fill="rgb(102,133,194)" fill-opacity="0.3" class="highcharts-navigator-mask-inside" style="cursor:ew-resize;" x="52" y="388" width="471" height="40"></rect><path fill="none" class="highcharts-navigator-outline" stroke="#cccccc" stroke-width="1" d="M 38 388.5 L 51.5 388.5 51.5 442.5 L 522.5 442.5 L 522.5 388.5 537 388.5 M 52.5 388.5 L 522.5 388.5"></path></g><text x="300" text-anchor="middle" class="highcharts-title" style="color:#333333;font-size:16px;fill:#333333;width:536px;" y="55"></text><text x="10" text-anchor="start" class="highcharts-subtitle" style="color:#666666;fill:#666666;width:536px;" y="494"><tspan>TP_REZVARPD_K2: I.A.1 Foreign currency reserves (in convertible foreign currencies) (Million US</tspan><tspan dy="15" x="10">Dollars),  International Reserves And Foreign Currency Liquidity Table (Million USD), Right Axis</tspan><tspan x="10" dy="15">TP_DK_USD_A_YTL: (USD) US Dollar (Buying),  Exchange Rates, Left Axis</tspan><title> TP_REZVARPD_K2: I.A.1 Foreign currency reserves (in convertible foreign currencies) (Million US Dollars),  International Reserves And Foreign Currency Liquidity Table (Million USD), Right AxisTP_DK_USD_A_YTL: (USD) US Dollar (Buying),  Exchange Rates, Left Axis</title></text><g class="highcharts-legend" transform="translate(10,452)"><rect fill="none" class="highcharts-legend-box" rx="0" ry="0" x="0" y="0" width="284" height="28" visibility="visible"></rect><g><g><g class="highcharts-legend-item highcharts-line-series highcharts-color-0 highcharts-series-0" transform="translate(8,3)"><path fill="none" d="M 0 11 L 16 11" class="highcharts-graph" stroke="#7cb5ec" stroke-width="2"></path><text x="21" style="color:#333333;font-size:12px;font-weight:bold;cursor:pointer;fill:#333333;" text-anchor="start" y="15">TP_REZVARPD_K2</text></g><g class="highcharts-legend-item highcharts-line-series highcharts-color-1 highcharts-series-2" transform="translate(149.83333587646484,3)"><path fill="none" d="M 0 11 L 16 11" class="highcharts-graph" stroke="#434348" stroke-width="2"></path><text x="21" y="15" style="color:#333333;font-size:12px;font-weight:bold;cursor:pointer;fill:#333333;" text-anchor="start">TP_DK_USD_A_YTL</text></g></g></g></g><g class="highcharts-axis-labels highcharts-xaxis-labels "><text x="96.03716930879511" style="color:#666666;cursor:default;font-size:11px;fill:#666666;width:550px;text-overflow:ellipsis;" text-anchor="end" transform="translate(0,0) rotate(-45 96.03716930879511 369)" y="369" opacity="1"><tspan>2018-09</tspan></text><text x="179.2038359754618" style="color:#666666;cursor:default;font-size:11px;fill:#666666;width:550px;text-overflow:ellipsis;" text-anchor="end" transform="translate(0,0) rotate(-45 179.2038359754618 369)" y="369" opacity="1"><tspan>2019-09</tspan></text><text x="262.37050264212843" style="color:#666666;cursor:default;font-size:11px;fill:#666666;width:550px;text-overflow:ellipsis;" text-anchor="end" transform="translate(0,0) rotate(-45 262.37050264212843 369)" y="369" opacity="1"><tspan>2020-09</tspan></text><text x="345.54679508040016" style="color:#666666;cursor:default;font-size:11px;fill:#666666;width:550px;text-overflow:ellipsis;" text-anchor="end" transform="translate(0,0) rotate(-45 345.54679508040016 369)" y="369" opacity="1"><tspan>2021-09</tspan></text><text x="428.71346174706684" style="color:#666666;cursor:default;font-size:11px;fill:#666666;width:550px;text-overflow:ellipsis;" text-anchor="end" transform="translate(0,0) rotate(-45 428.71346174706684 369)" y="369" opacity="1"><tspan>2022-09</tspan></text><text x="511.8801284137335" style="color:#666666;cursor:default;font-size:11px;fill:#666666;width:550px;text-overflow:ellipsis;" text-anchor="end" transform="translate(0,0) rotate(-45 511.8801284137335 369)" y="369" opacity="1"><tspan>2023-09</tspan></text></g><g class="highcharts-axis-labels highcharts-xaxis-labels highcharts-navigator-xaxis"><text x="55" style="color:#999999;cursor:default;font-size:11px;fill:#999999;width:240px;text-overflow:clip;" text-anchor="start" transform="translate(0,0)" y="424" opacity="1"><tspan>2018</tspan></text><text x="212" style="color:#999999;cursor:default;font-size:11px;fill:#999999;width:240px;text-overflow:clip;" text-anchor="start" transform="translate(0,0)" y="424" opacity="1"><tspan>2020</tspan></text><text x="369.01758512544774" style="color:#999999;cursor:default;font-size:11px;fill:#999999;width:240px;text-overflow:clip;" text-anchor="start" transform="translate(0,0)" y="424" opacity="1"><tspan>2022</tspan></text></g><g class="highcharts-axis-labels highcharts-yaxis-labels "><text x="23" style="color:#666666;cursor:default;font-size:11px;fill:#666666;width:188px;text-overflow:clip;" text-anchor="end" transform="translate(0,0)" y="351" opacity="1"><tspan>0</tspan></text><text x="23" style="color:#666666;cursor:default;font-size:11px;fill:#666666;width:188px;text-overflow:clip;" text-anchor="end" transform="translate(0,0)" y="289" opacity="1"><tspan>10</tspan></text><text x="23" style="color:#666666;cursor:default;font-size:11px;fill:#666666;width:188px;text-overflow:clip;" text-anchor="end" transform="translate(0,0)" y="228" opacity="1"><tspan>20</tspan></text><text x="23" style="color:#666666;cursor:default;font-size:11px;fill:#666666;width:188px;text-overflow:clip;" text-anchor="end" transform="translate(0,0)" y="166" opacity="1"><tspan>30</tspan></text><text x="23" style="color:#666666;cursor:default;font-size:11px;fill:#666666;width:188px;text-overflow:clip;" text-anchor="end" transform="translate(0,0)" y="105" opacity="1"><tspan>40</tspan></text><text x="0" style="color:#666666;cursor:default;font-size:11px;fill:#666666;width:188px;text-overflow:clip;" text-anchor="end" transform="translate(0,0)" y="-9999"><tspan>50</tspan></text></g><g class="highcharts-axis-labels highcharts-yaxis-labels "><text x="552" style="color:#666666;cursor:default;font-size:11px;fill:#666666;width:188px;text-overflow:clip;" text-anchor="start" transform="translate(0,0)" y="351" opacity="1"><tspan>20000</tspan></text><text x="552" style="color:#666666;cursor:default;font-size:11px;fill:#666666;width:188px;text-overflow:clip;" text-anchor="start" transform="translate(0,0)" y="289" opacity="1"><tspan>40000</tspan></text><text x="552" style="color:#666666;cursor:default;font-size:11px;fill:#666666;width:188px;text-overflow:clip;" text-anchor="start" transform="translate(0,0)" y="228" opacity="1"><tspan>60000</tspan></text><text x="552" style="color:#666666;cursor:default;font-size:11px;fill:#666666;width:188px;text-overflow:clip;" text-anchor="start" transform="translate(0,0)" y="166" opacity="1"><tspan>80000</tspan></text><text x="552" style="color:#666666;cursor:default;font-size:11px;fill:#666666;width:188px;text-overflow:clip;" text-anchor="start" transform="translate(0,0)" y="105" opacity="1"><tspan>100000</tspan></text><text x="0" style="color:#666666;cursor:default;font-size:11px;fill:#666666;width:188px;text-overflow:clip;" text-anchor="start" transform="translate(0,0)" y="-9999"><tspan>120000</tspan></text></g><g class="highcharts-axis-labels highcharts-yaxis-labels highcharts-navigator-yaxis"></g><path fill="#f2f2f2" d="M -4.5 0.5 L 3.5 0.5 3.5 15.5 -4.5 15.5 -4.5 0.5 M -1.5 4 L -1.5 12 M 0.5 4 L 0.5 12" class="highcharts-navigator-handle highcharts-navigator-handle-right" stroke="#999999" stroke-width="1" style="cursor:ew-resize;" transform="translate(523,400)"></path><path fill="#f2f2f2" d="M -4.5 0.5 L 3.5 0.5 3.5 15.5 -4.5 15.5 -4.5 0.5 M -1.5 4 L -1.5 12 M 0.5 4 L 0.5 12" class="highcharts-navigator-handle highcharts-navigator-handle-left" stroke="#999999" stroke-width="1" style="cursor:ew-resize;" transform="translate(52,400)"></path></svg>